<?xml version="1.0" encoding="iso-8859-1"?>
<!-- Generator: Adobe Illustrator 19.0.0, SVG Export Plug-In . SVG Version: 6.00 Build 0)  -->
<svg version="1.1" id="Layer_1" xmlns="http://www.w3.org/2000/svg" xmlns:xlink="http://www.w3.org/1999/xlink" x="0px" y="0px"
	 viewBox="0 0 512.001 512.001" style="enable-background:new 0 0 512.001 512.001;" xml:space="preserve">
<path style="fill:#73CBD1;" d="M315.641,425.913H194.189c-35.945,0-65.084-29.139-65.084-65.084V148.556h251.621v212.273
	C380.725,396.774,351.586,425.913,315.641,425.913z"/>
<path style="fill:#47B5BF;" d="M359.799,148.556v212.239c0,35.964-29.124,65.118-65.051,65.118h20.926
	c35.926,0,65.051-29.154,65.051-65.118V148.556H359.799z"/>
<path style="fill:#F6CC65;" d="M482.782,453.483H29.218c-11.995,0-21.718-9.724-21.718-21.718v-6.088h497v6.088
	C504.5,443.759,494.776,453.483,482.782,453.483z"/>
<path style="fill:#C2AE86;" d="M150.031,360.819V148.556h209.768v212.262c0,24.382-19.765,44.147-44.147,44.147H194.178
	C169.796,404.965,150.031,385.2,150.031,360.819z"/>
<rect x="88.25" y="453.441" style="fill:#E89D41;" width="335.51" height="23.554"/>
<path style="fill:#854437;" d="M359.795,148.561v83.31c-3.317,1.603-7.272,2.639-12.357,2.639c-3.285,0-6.09-0.429-8.569-1.173
	c-14.763-4.41-17.578-19.775-37.155-19.775c-22.862,0-22.862,20.948-45.724,20.948s-22.862-20.948-45.724-20.948
	s-22.862,20.948-45.714,20.948c-6.226,0-10.767-1.561-14.523-3.823v-82.126H359.795z"/>
<path style="fill:#F6F1DD;" d="M129.105,148.553c0,0-8.964-52.051,53.736-66.929c77.255-18.331,106.203-46.632,106.203-46.632
	s110.566,45.046,91.682,113.561H129.105z"/>
<path style="fill:#E89D41;" d="M483.574,425.676v6.077c0,12.001-9.719,21.73-21.707,21.73h20.926
	c11.988,0,21.707-9.729,21.707-21.73v-6.077H483.574z"/>
<path style="fill:#A89774;" d="M338.873,148.556v212.239c0,24.355-19.794,44.17-44.124,44.17h20.926
	c24.33,0,44.124-19.815,44.124-44.17V148.556H338.873z"/>
<rect x="402.83" y="453.441" style="fill:#C27A40;" width="20.926" height="23.554"/>
<path style="fill:#63352B;" d="M359.795,148.561v83.31c-3.317,1.603-7.272,2.639-12.357,2.639c-3.285,0-6.09-0.429-8.569-1.173
	v-84.776H359.795z"/>
<path style="fill:#D6C9AD;" d="M289.043,34.992c0,0-2.421,2.364-7.718,6.164c28.742,14.527,93.253,53.772,78.474,107.396h20.926
	C399.609,80.038,289.043,34.992,289.043,34.992z"/>
<path d="M504.5,418.183H360.061c17.117-13.296,28.164-34.066,28.164-57.383V234.509c0-4.142-3.358-7.5-7.5-7.5s-7.5,3.358-7.5,7.5
	V360.8c0,30.059-23.112,54.801-52.476,57.383H189.081c-29.364-2.582-52.477-27.324-52.477-57.383V156.052h5.925v74.633
	c0,0.01,0.002,0.02,0.002,0.03v130.107c0,28.479,23.168,51.649,51.646,51.649h121.474c28.478,0,51.647-23.17,51.647-51.649v-204.77
	h5.926v34.397c0,4.142,3.358,7.5,7.5,7.5s7.5-3.358,7.5-7.5v-40.975c7.975-30.81-6.39-61.666-41.631-89.304
	c-25.81-20.242-53.552-31.656-54.721-32.133c-0.054-0.022-0.11-0.033-0.165-0.053c-0.183-0.07-0.369-0.125-0.556-0.18
	c-0.158-0.046-0.314-0.095-0.473-0.13c-0.208-0.047-0.417-0.076-0.626-0.105c-0.138-0.018-0.275-0.041-0.413-0.052
	c-0.242-0.019-0.482-0.02-0.724-0.015c-0.106,0.002-0.212-0.001-0.318,0.005c-0.271,0.016-0.539,0.053-0.806,0.099
	c-0.077,0.013-0.155,0.021-0.232,0.037c-0.279,0.056-0.553,0.134-0.826,0.222c-0.067,0.022-0.135,0.039-0.201,0.062
	c-0.259,0.092-0.51,0.204-0.759,0.325c-0.08,0.039-0.162,0.073-0.241,0.115c-0.215,0.114-0.421,0.246-0.626,0.382
	c-0.108,0.071-0.218,0.138-0.323,0.216c-0.048,0.036-0.102,0.063-0.149,0.1c-0.119,0.093-0.22,0.201-0.332,0.3
	c-0.092,0.08-0.192,0.148-0.28,0.233c-0.174,0.168-17.914,16.936-61.28,32.526c-3.898,1.401-5.922,5.697-4.521,9.595
	s5.697,5.923,9.595,4.521c25.807-9.277,43.169-18.991,53.696-25.976c-2.425,10.754-10.668,25.588-36.13,35.464
	c-41.836,16.227-50.121,42.759-51.618,55.319h-57.39c0.068-4.478,0.734-10.911,3.306-17.744c6.495-17.26,21.666-28.83,45.093-34.389
	c4.03-0.956,6.522-4.999,5.566-9.029c-0.957-4.03-4.997-6.524-9.029-5.566c-35.598,8.447-49.921,28.427-55.669,43.701
	c-5.537,14.715-4.267,27.856-3.836,31.066v211.712c0,23.317,11.047,44.087,28.164,57.383H88.247c-4.142,0-7.5,3.358-7.5,7.5
	s3.358,7.5,7.5,7.5h100.319c1.847,0.142,3.707,0.237,5.59,0.237h121.52c1.883,0,3.742-0.095,5.59-0.237H496.93
	c-0.715,7.18-6.783,12.807-14.137,12.807h-58.235c-0.264-0.028-0.532-0.044-0.804-0.044H88.247c-0.272,0-0.54,0.016-0.804,0.044
	H29.207c-7.354,0-13.421-5.626-14.137-12.807h30.62c4.142,0,7.5-3.358,7.5-7.5s-3.358-7.5-7.5-7.5H7.5c-4.142,0-7.5,3.358-7.5,7.5
	v6.077c0,16.118,13.102,29.231,29.207,29.231h51.54v16.012c0,4.142,3.358,7.5,7.5,7.5h335.507c4.142,0,7.5-3.358,7.5-7.5v-16.01
	h51.54c16.105,0,29.207-13.113,29.207-29.231v-6.077C512,421.541,508.642,418.183,504.5,418.183z M170.957,182.949
	c-4.142,0-7.5,3.358-7.5,7.5v36.523c-2.175-0.083-4.12-0.399-5.926-1.012v-69.904h194.763v70.492c-1.495,0.31-3.096,0.46-4.857,0.46
	c-8.514,0-12.407-3.567-17.795-8.504c-6.051-5.545-13.582-12.445-27.929-12.445s-21.878,6.9-27.929,12.445
	c-5.388,4.937-9.28,8.504-17.795,8.504s-12.408-3.567-17.795-8.504c-6.051-5.544-13.582-12.444-27.929-12.444
	c-14.35,0-21.88,6.902-27.93,12.447c-1.355,1.242-2.615,2.396-3.878,3.43v-31.488C178.457,186.307,175.099,182.949,170.957,182.949z
	 M315.652,397.471H194.178c-20.207,0-36.646-16.441-36.646-36.648V241.39c1.901,0.346,3.877,0.535,5.926,0.587v118.822
	c0,16.941,13.771,30.723,30.698,30.723c4.142,0,7.5-3.358,7.5-7.5s-3.358-7.5-7.5-7.5c-8.656,0-15.698-7.053-15.698-15.723V239.374
	c6.04-2.516,10.308-6.413,14.013-9.808c5.387-4.938,9.28-8.505,17.795-8.505c8.514,0,12.407,3.567,17.795,8.504
	c6.051,5.545,13.582,12.445,27.929,12.445c14.347,0,21.878-6.9,27.929-12.445c5.388-4.937,9.28-8.504,17.795-8.504
	s12.408,3.567,17.795,8.504c6.051,5.544,13.582,12.444,27.929,12.444c1.677,0,3.292-0.104,4.861-0.292v119.104
	C352.299,381.03,335.859,397.471,315.652,397.471z M374.705,141.048h-64.826c-1.451-6.499-2.658-18.631,4.612-29.397
	c9.084-13.45,12.333-31.358,8.48-46.734c-0.315-1.259-0.699-2.578-1.157-3.94C348.798,78.35,380.357,106.534,374.705,141.048z
	 M250.605,99.715c28.775-11.161,39.753-28.366,43.895-40.834c1.125-3.389,1.823-6.606,2.231-9.544
	c5.917,5.384,9.833,11.816,11.69,19.227c3.406,13.591-1.053,26.832-6.361,34.691c-9.172,13.581-9.005,28.265-7.428,37.792H208.68
	C210.312,131.673,217.757,112.456,250.605,99.715z M416.253,469.5H95.747v-8.51h320.507v8.51H416.253z"/>
<g>
</g>
<g>
</g>
<g>
</g>
<g>
</g>
<g>
</g>
<g>
</g>
<g>
</g>
<g>
</g>
<g>
</g>
<g>
</g>
<g>
</g>
<g>
</g>
<g>
</g>
<g>
</g>
<g>
</g>
</svg>
