<?xml version="1.0" encoding="iso-8859-1"?>
<!-- Generator: Adobe Illustrator 19.0.0, SVG Export Plug-In . SVG Version: 6.00 Build 0)  -->
<svg version="1.1" id="Layer_1" xmlns="http://www.w3.org/2000/svg" xmlns:xlink="http://www.w3.org/1999/xlink" x="0px" y="0px"
	 viewBox="0 0 512 512" style="enable-background:new 0 0 512 512;" xml:space="preserve">
<polyline style="fill:#57565C;" points="29.305,353.698 29.305,311.902 56.59,311.902 48.23,353.698 "/>
<path style="fill:#FFDA44;" d="M161.311,414.212c-48.886-10.241-89.343-32.15-113.081-60.514H29.305
	c-2.616,8.1-3.987,16.493-3.987,25.078c0,55.448,56.991,102.485,135.993,119.033L161.311,414.212L161.311,414.212z"/>
<path style="fill:#EEBF00;" d="M161.311,447.653C94.556,433.67,43.516,397.922,29.297,353.722
	c-2.608,8.092-3.979,16.477-3.979,25.053c0,55.448,56.991,102.485,135.993,119.033L161.311,447.653L161.311,447.653z"/>
<g>
	<rect x="161.311" y="462.367" style="fill:#FFFFFF;" width="193.306" height="41.796"/>
	<rect x="161.311" y="86.204" style="fill:#FFFFFF;" width="193.306" height="417.959"/>
</g>
<rect x="161.311" y="201.143" style="fill:#FFDA44;" width="193.306" height="261.224"/>
<rect x="161.311" y="331.755" style="fill:#FF505D;" width="193.306" height="130.612"/>
<rect x="333.72" y="201.143" style="fill:#EEBF00;" width="20.898" height="261.224"/>
<rect x="161.311" y="201.143" style="fill:#FFF5CC;" width="20.898" height="130.612"/>
<rect x="161.311" y="331.755" style="fill:#FF7C80;" width="20.898" height="130.612"/>
<path style="fill:#FF505D;" d="M468.674,406.406c-12.557,46.862-92.918,104.542-120.673,97.105
	c-27.756-7.437-68.51-97.572-55.953-144.432c12.557-46.862,57.21-55.356,105.985-42.287
	C446.807,329.861,481.231,359.544,468.674,406.406z"/>
<path style="fill:#E21220;" d="M454.527,346.942c2.724,10.073,2.723,21.359-0.629,33.87
	c-12.557,46.862-92.918,104.542-120.673,97.105c-7.299-1.956-15.495-9.634-23.386-20.736c11.539,24.185,26.082,43.094,38.163,46.331
	c27.756,7.437,108.117-50.244,120.673-97.105C475.235,381.921,468.965,362.127,454.527,346.942z"/>
<ellipse transform="matrix(0.2588 -0.9659 0.9659 0.2588 -66.7911 642.3818)" cx="385.184" cy="364.712" rx="10.449" ry="5.224"/>
<ellipse transform="matrix(0.2588 -0.9659 0.9659 0.2588 -81.4027 607.1326)" cx="354.909" cy="356.609" rx="10.449" ry="5.224"/>
<ellipse transform="matrix(0.2588 -0.9659 0.9659 0.2588 -52.1985 677.6419)" cx="415.455" cy="372.834" rx="10.449" ry="5.224"/>
<ellipse transform="matrix(0.2588 -0.9659 0.9659 0.2588 -137.3146 671.6087)" cx="368.966" cy="425.279" rx="10.449" ry="5.224"/>
<ellipse transform="matrix(0.2588 -0.9659 0.9659 0.2588 -151.912 636.3369)" cx="338.684" cy="417.155" rx="10.449" ry="5.224"/>
<ellipse transform="matrix(0.2588 -0.9659 0.9659 0.2588 -122.7078 706.8461)" cx="399.23" cy="433.38" rx="10.449" ry="5.224"/>
<ellipse transform="matrix(0.2588 -0.9659 0.9659 0.2588 -179.8773 668.5663)" cx="345.702" cy="451.492" rx="10.449" ry="5.224"/>
<ellipse transform="matrix(0.2588 -0.9659 0.9659 0.2588 -165.2768 703.8359)" cx="375.984" cy="459.613" rx="10.449" ry="5.224"/>
<ellipse transform="matrix(0.2588 -0.9659 0.9659 0.2588 -109.3629 639.3582)" cx="361.927" cy="390.94" rx="10.449" ry="5.224"/>
<ellipse transform="matrix(0.2588 -0.9659 0.9659 0.2588 -94.7456 674.619)" cx="392.212" cy="399.046" rx="10.449" ry="5.224"/>
<ellipse transform="matrix(0.2588 -0.9659 0.9659 0.2588 -80.1481 709.8909)" cx="422.494" cy="407.17" rx="10.449" ry="5.224"/>
<ellipse transform="matrix(0.2588 -0.9659 0.9659 0.2588 -123.9547 604.098)" cx="331.656" cy="382.818" rx="10.449" ry="5.224"/>
<g>
	<path style="fill:#91DC5A;" d="M397.666,318.161c0,0-33.52,4.872-51.19-12.797s-12.797-51.19-12.797-51.19
		s33.52-4.872,51.19,12.797C402.539,284.641,397.666,318.161,397.666,318.161z"/>
	<path style="fill:#91DC5A;" d="M397.666,318.161c0,0,12.541-31.465,36.677-37.933c24.137-6.468,50.73,14.512,50.73,14.512
		s-12.541,31.465-36.678,37.933C424.259,339.14,397.666,318.161,397.666,318.161z"/>
</g>
<path d="M33.155,378.775c0-5.787,0.697-11.564,2.075-17.241h9.411c21.332,24.049,54.389,43.499,93.567,54.979l4.407-15.041
	c-36.207-10.609-66.552-28.297-85.947-50.01l9.48-47.398H21.468v48.491c-2.636,8.562-3.987,17.375-3.987,26.22
	c0,26.55,11.911,52.13,34.444,73.976c21.35,20.699,51.187,37.071,86.287,47.345l4.403-15.042
	C76.121,465.589,33.155,423.871,33.155,378.775z M47.031,319.739l-5.224,26.122h-4.664v-26.122H47.031z"/>
<path d="M352.684,319.328c11.776,6.001,25.228,7.287,34.561,7.287c3.385,0,6.221-0.168,8.246-0.341
	c6.57,4.579,24.194,15.466,43.223,15.466c3.871,0,7.804-0.451,11.71-1.498c27.616-7.399,41.357-41.166,41.929-42.602l2.165-5.431
	l-4.591-3.623c-1.212-0.955-30.003-23.334-57.613-15.928c-11.627,3.115-20.784,10.907-27.545,18.988
	c-1.814-10.38-5.849-21.705-14.36-30.216c-20.216-20.214-56.327-15.233-57.858-15.011l-5.787,0.841l-0.841,5.787
	c-0.205,1.409-4.44,32.209,10.742,52.853c-5.73,1.333-11.077,3.197-16.007,5.579V208.98h26.122v24.158h15.673V78.367h-41.796V15.673
	h54.857V0h-70.531v193.306H182.209v15.673h122.777v113.035c-9.664,8.796-16.632,20.571-20.506,35.032
	c-6.105,22.786-1.177,57.184,13.184,92.018c0.745,1.808,1.528,3.633,2.34,5.465H169.148V339.592h116.203v-15.673H169.148V94.041
	h122.777V78.367h-138.45v359.474c-47.101-11.62-85.113-34.484-105.191-63.524l-12.892,8.914
	c22.768,32.932,65.583,58.5,118.083,70.718V512h201.144v-0.047c18.82-0.635,44.566-15.307,64.201-30.424
	c29.853-22.987,51.32-50.312,57.426-73.097c6.208-23.172,2.166-44.582-11.69-61.915l-12.243,9.785
	c10.772,13.476,13.73,29.649,8.794,48.073c-5.167,19.284-25.035,44.088-51.849,64.735c-23.535,18.122-44.196,26.862-55.071,27.217
	h-1.351c-1.047-0.039-1.986-0.165-2.806-0.385c-8.988-2.409-24.884-21.336-37.877-52.851
	c-12.898-31.287-17.702-62.703-12.535-81.987C306.531,335.305,324.383,321.263,352.684,319.328z M320.659,94.041h26.122v99.265
	h-26.122V94.041z M436.372,287.797c14.409-3.857,30.728,4.568,38.789,9.634c-5.024,9.492-15.252,24.044-28.794,27.672
	c-14.41,3.86-30.723-4.566-38.788-9.635C412.602,305.977,422.83,291.426,436.372,287.797z M340.964,261.46
	c9.54-0.351,27.831,0.521,38.362,11.054c10.533,10.532,11.406,28.829,11.054,38.361c-9.527,0.342-27.83-0.521-38.362-11.053
	C341.484,289.287,340.613,270.986,340.964,261.46z M169.148,496.327v-26.122h138.545c5.255,9.694,11.254,18.87,17.659,26.122
	H169.148z"/>
<g>
</g>
<g>
</g>
<g>
</g>
<g>
</g>
<g>
</g>
<g>
</g>
<g>
</g>
<g>
</g>
<g>
</g>
<g>
</g>
<g>
</g>
<g>
</g>
<g>
</g>
<g>
</g>
<g>
</g>
</svg>
