<?xml version="1.0" encoding="UTF-8" standalone="no"?>
<!DOCTYPE svg PUBLIC "-//W3C//DTD SVG 1.1//EN" "http://www.w3.org/Graphics/SVG/1.1/DTD/svg11.dtd">
<svg version="1.1" xmlns="http://www.w3.org/2000/svg" xmlns:xlink="http://www.w3.org/1999/xlink" preserveAspectRatio="xMidYMid meet" viewBox="0 0 640 640" width="640" height="640"><defs><path d="M187.74 396.65C189.49 396.65 203.48 396.65 205.23 396.65C201.38 383.96 183.92 384.09 187.74 396.65Z" id="csPLbSs1d"></path><path d="M187.74 396.65C189.49 396.65 203.48 396.65 205.23 396.65C201.38 383.96 183.92 384.09 187.74 396.65Z" id="bJFEbJHy"></path><path d="M187.74 396.65C189.49 396.65 203.48 396.65 205.23 396.65C201.38 383.96 183.92 384.09 187.74 396.65Z" id="k1Nvt3zPZ5"></path><path d="M187.74 396.65C189.49 396.65 203.48 396.65 205.23 396.65C201.38 383.96 183.92 384.09 187.74 396.65Z" id="a9x82ldI0"></path><path d="M183.6 356.46C183.97 358.32 184.31 360.18 184.63 361.97C184.92 363.57 184.03 365.18 182.62 365.44C180.73 365.8 179.82 364.54 179.57 363.14C179.26 361.39 178.92 359.57 178.56 357.75C178.25 356.16 179.12 354.59 180.52 354.23C181.91 353.87 183.29 354.87 183.6 356.46Z" id="a2cprMcqz8"></path><path d="M183.6 356.46C183.97 358.32 184.31 360.18 184.63 361.97C184.92 363.57 184.03 365.18 182.62 365.44C180.73 365.8 179.82 364.54 179.57 363.14C179.26 361.39 178.92 359.57 178.56 357.75C178.25 356.16 179.12 354.59 180.52 354.23C181.91 353.87 183.29 354.87 183.6 356.46Z" id="c12K07aIi5"></path><path d="M183.6 356.46C183.97 358.32 184.31 360.18 184.63 361.97C184.92 363.57 184.03 365.18 182.62 365.44C180.73 365.8 179.82 364.54 179.57 363.14C179.26 361.39 178.92 359.57 178.56 357.75C178.25 356.16 179.12 354.59 180.52 354.23C181.91 353.87 183.29 354.87 183.6 356.46Z" id="g159xwsBPJ"></path><path d="M183.6 356.46C183.97 358.32 184.31 360.18 184.63 361.97C184.92 363.57 184.03 365.18 182.62 365.44C180.73 365.8 179.82 364.54 179.57 363.14C179.26 361.39 178.92 359.57 178.56 357.75C178.25 356.16 179.12 354.59 180.52 354.23C181.91 353.87 183.29 354.87 183.6 356.46Z" id="f2jGBuFYeY"></path><path d="M404.27 6.07C396.26 25.09 356.2 120.17 284.09 291.31C285.79 292.07 299.35 298.15 301.05 298.91C373.16 127.77 413.22 32.7 421.23 13.68C421.23 13.68 421.23 13.68 421.23 13.68C422.69 10.18 422.05 5.98 419.29 3.12C415.69 -0.6 409.82 -0.6 406.22 3.12C405.37 4 404.73 5 404.29 6.07C404.28 6.07 404.28 6.07 404.27 6.07Z" id="a1oSale0lt"></path><path d="M404.27 6.07C396.26 25.09 356.2 120.17 284.09 291.31C285.79 292.07 299.35 298.15 301.05 298.91C373.16 127.77 413.22 32.7 421.23 13.68C421.23 13.68 421.23 13.68 421.23 13.68C422.69 10.18 422.05 5.98 419.29 3.12C415.69 -0.6 409.82 -0.6 406.22 3.12C405.37 4 404.73 5 404.29 6.07C404.28 6.07 404.28 6.07 404.27 6.07Z" id="b1Tq3FEK06"></path><path d="M404.27 6.07C396.26 25.09 356.2 120.17 284.09 291.31C285.79 292.07 299.35 298.15 301.05 298.91C373.16 127.77 413.22 32.7 421.23 13.68C421.23 13.68 421.23 13.68 421.23 13.68C422.69 10.18 422.05 5.98 419.29 3.12C415.69 -0.6 409.82 -0.6 406.22 3.12C405.37 4 404.73 5 404.29 6.07C404.28 6.07 404.28 6.07 404.27 6.07Z" id="c2zhadTp0X"></path><path d="M404.27 6.07C396.26 25.09 356.2 120.17 284.09 291.31C285.79 292.07 299.35 298.15 301.05 298.91C373.16 127.77 413.22 32.7 421.23 13.68C421.23 13.68 421.23 13.68 421.23 13.68C422.69 10.18 422.05 5.98 419.29 3.12C415.69 -0.6 409.82 -0.6 406.22 3.12C405.37 4 404.73 5 404.29 6.07C404.28 6.07 404.28 6.07 404.27 6.07Z" id="i3swnDPhK"></path><path d="M365.16 178.71C365.16 178.71 408.23 204.04 384.61 121.63C357.28 26.28 273.5 13.75 288.69 42.39C303.88 71.02 232.92 59.69 223.78 114.87C211.2 190.74 265.38 172.78 275.78 187.26C284.72 186.41 356.22 179.57 365.16 178.71Z" id="fDXR0U2FA"></path><path d="M365.16 178.71C365.16 178.71 408.23 204.04 384.61 121.63C357.28 26.28 273.5 13.75 288.69 42.39C303.88 71.02 232.92 59.69 223.78 114.87C211.2 190.74 265.38 172.78 275.78 187.26C284.72 186.41 356.22 179.57 365.16 178.71Z" id="f77t3rE8C1"></path><path d="M365.16 178.71C365.16 178.71 408.23 204.04 384.61 121.63C357.28 26.28 273.5 13.75 288.69 42.39C303.88 71.02 232.92 59.69 223.78 114.87C211.2 190.74 265.38 172.78 275.78 187.26C284.72 186.41 356.22 179.57 365.16 178.71Z" id="b3dOzNgUEn"></path><path d="M365.16 178.71C365.16 178.71 408.23 204.04 384.61 121.63C357.28 26.28 273.5 13.75 288.69 42.39C303.88 71.02 232.92 59.69 223.78 114.87C211.2 190.74 265.38 172.78 275.78 187.26C284.72 186.41 356.22 179.57 365.16 178.71Z" id="bLzL5Q6a1"></path><path d="M366.53 458.51L348.04 420.37L255.59 420.37L237.1 458.51L366.53 458.51Z" id="h2fY6H6uZ9"></path><path d="M366.53 458.51L348.04 420.37L255.59 420.37L237.1 458.51L366.53 458.51Z" id="dWgYXvvxH"></path><path d="M366.53 458.51L348.04 420.37L255.59 420.37L237.1 458.51L366.53 458.51Z" id="a4z1EfhFC"></path><path d="M366.53 458.51L348.04 420.37L255.59 420.37L237.1 458.51L366.53 458.51Z" id="a7cosGU8MM"></path><path d="M200.12 191.24C200.12 229.42 209.36 309.71 255.59 420.34C256.82 420.34 262.98 420.34 274.08 420.34C318.46 420.34 343.11 420.34 348.04 420.34C394.26 309.71 403.51 229.42 403.51 191.24C403.51 133.97 385.01 114.87 385.01 114.87C373.92 114.87 346.19 114.87 301.81 114.87C251.89 114.87 224.16 114.87 218.61 114.87C214.91 130.14 200.12 133.97 200.12 191.24Z" id="b2OVFqg4zv"></path><path d="M200.12 191.24C200.12 229.42 209.36 309.71 255.59 420.34C256.82 420.34 262.98 420.34 274.08 420.34C318.46 420.34 343.11 420.34 348.04 420.34C394.26 309.71 403.51 229.42 403.51 191.24C403.51 133.97 385.01 114.87 385.01 114.87C373.92 114.87 346.19 114.87 301.81 114.87C251.89 114.87 224.16 114.87 218.61 114.87C214.91 130.14 200.12 133.97 200.12 191.24Z" id="c44oVPGOUS"></path><path d="M200.12 191.24C200.12 229.42 209.36 309.71 255.59 420.34C256.82 420.34 262.98 420.34 274.08 420.34C318.46 420.34 343.11 420.34 348.04 420.34C394.26 309.71 403.51 229.42 403.51 191.24C403.51 133.97 385.01 114.87 385.01 114.87C373.92 114.87 346.19 114.87 301.81 114.87C251.89 114.87 224.16 114.87 218.61 114.87C214.91 130.14 200.12 133.97 200.12 191.24Z" id="c5IbcSgA8N"></path><path d="M200.12 191.24C200.12 229.42 209.36 309.71 255.59 420.34C256.82 420.34 262.98 420.34 274.08 420.34C318.46 420.34 343.11 420.34 348.04 420.34C394.26 309.71 403.51 229.42 403.51 191.24C403.51 133.97 385.01 114.87 385.01 114.87C373.92 114.87 346.19 114.87 301.81 114.87C251.89 114.87 224.16 114.87 218.61 114.87C214.91 130.14 200.12 133.97 200.12 191.24Z" id="c1WZO5RUH"></path><path d="M271.37 427.08C273.17 425.23 274.07 422.8 274.08 420.37C270.38 420.37 257.44 420.37 255.59 420.37C255.6 422.8 256.5 425.23 258.3 427.08C261.91 430.8 267.76 430.8 271.37 427.08Z" id="d6aFI1gSz"></path><path d="M271.37 427.08C273.17 425.23 274.07 422.8 274.08 420.37C270.38 420.37 257.44 420.37 255.59 420.37C255.6 422.8 256.5 425.23 258.3 427.08C261.91 430.8 267.76 430.8 271.37 427.08Z" id="aEu4WxAxb"></path><path d="M271.37 427.08C273.17 425.23 274.07 422.8 274.08 420.37C270.38 420.37 257.44 420.37 255.59 420.37C255.6 422.8 256.5 425.23 258.3 427.08C261.91 430.8 267.76 430.8 271.37 427.08Z" id="d3qJgl1rLT"></path><path d="M271.37 427.08C273.17 425.23 274.07 422.8 274.08 420.37C270.38 420.37 257.44 420.37 255.59 420.37C255.6 422.8 256.5 425.23 258.3 427.08C261.91 430.8 267.76 430.8 271.37 427.08Z" id="bEGdB7P5"></path><path d="M289.86 427.08C291.66 425.23 292.56 422.8 292.57 420.37C288.87 420.37 275.93 420.37 274.08 420.37C274.09 422.8 274.99 425.23 276.78 427.08C280.4 430.8 286.25 430.8 289.86 427.08Z" id="a2lXF9P9ZN"></path><path d="M289.86 427.08C291.66 425.23 292.56 422.8 292.57 420.37C288.87 420.37 275.93 420.37 274.08 420.37C274.09 422.8 274.99 425.23 276.78 427.08C280.4 430.8 286.25 430.8 289.86 427.08Z" id="j29WlSsy2"></path><path d="M289.86 427.08C291.66 425.23 292.56 422.8 292.57 420.37C288.87 420.37 275.93 420.37 274.08 420.37C274.09 422.8 274.99 425.23 276.78 427.08C280.4 430.8 286.25 430.8 289.86 427.08Z" id="d1GlFHocQx"></path><path d="M289.86 427.08C291.66 425.23 292.56 422.8 292.57 420.37C288.87 420.37 275.93 420.37 274.08 420.37C274.09 422.8 274.99 425.23 276.78 427.08C280.4 430.8 286.25 430.8 289.86 427.08Z" id="ark1c7fw9"></path><path d="M308.35 427.08C310.15 425.23 311.05 422.8 311.06 420.37C307.36 420.37 294.42 420.37 292.57 420.37C292.58 422.8 293.48 425.23 295.28 427.08C298.89 430.8 304.74 430.8 308.35 427.08Z" id="a160mf1Rn"></path><path d="M308.35 427.08C310.15 425.23 311.05 422.8 311.06 420.37C307.36 420.37 294.42 420.37 292.57 420.37C292.58 422.8 293.48 425.23 295.28 427.08C298.89 430.8 304.74 430.8 308.35 427.08Z" id="hMQeQqtCR"></path><path d="M308.35 427.08C310.15 425.23 311.05 422.8 311.06 420.37C307.36 420.37 294.42 420.37 292.57 420.37C292.58 422.8 293.48 425.23 295.28 427.08C298.89 430.8 304.74 430.8 308.35 427.08Z" id="acK01tbiT"></path><path d="M308.35 427.08C310.15 425.23 311.05 422.8 311.06 420.37C307.36 420.37 294.42 420.37 292.57 420.37C292.58 422.8 293.48 425.23 295.28 427.08C298.89 430.8 304.74 430.8 308.35 427.08Z" id="bI0eQYcB"></path><path d="M326.83 427.08C328.63 425.23 329.54 422.8 329.54 420.37C325.85 420.37 312.91 420.37 311.06 420.37C311.07 422.8 311.97 425.23 313.77 427.08C317.38 430.8 323.23 430.8 326.83 427.08Z" id="c1XqlN3mOA"></path><path d="M326.83 427.08C328.63 425.23 329.54 422.8 329.54 420.37C325.85 420.37 312.91 420.37 311.06 420.37C311.07 422.8 311.97 425.23 313.77 427.08C317.38 430.8 323.23 430.8 326.83 427.08Z" id="ahJOzqpD2"></path><path d="M326.83 427.08C328.63 425.23 329.54 422.8 329.54 420.37C325.85 420.37 312.91 420.37 311.06 420.37C311.07 422.8 311.97 425.23 313.77 427.08C317.38 430.8 323.23 430.8 326.83 427.08Z" id="aYs8nlqWj"></path><path d="M326.83 427.08C328.63 425.23 329.54 422.8 329.54 420.37C325.85 420.37 312.91 420.37 311.06 420.37C311.07 422.8 311.97 425.23 313.77 427.08C317.38 430.8 323.23 430.8 326.83 427.08Z" id="b1lUjkdRA"></path><path d="M345.33 427.08C347.12 425.23 348.03 422.8 348.03 420.37C344.33 420.37 331.39 420.37 329.54 420.37C329.56 422.8 330.45 425.23 332.25 427.08C335.87 430.8 341.72 430.8 345.33 427.08Z" id="bEHGegEBR"></path><path d="M345.33 427.08C347.12 425.23 348.03 422.8 348.03 420.37C344.33 420.37 331.39 420.37 329.54 420.37C329.56 422.8 330.45 425.23 332.25 427.08C335.87 430.8 341.72 430.8 345.33 427.08Z" id="acI1E14cT"></path><path d="M345.33 427.08C347.12 425.23 348.03 422.8 348.03 420.37C344.33 420.37 331.39 420.37 329.54 420.37C329.56 422.8 330.45 425.23 332.25 427.08C335.87 430.8 341.72 430.8 345.33 427.08Z" id="a2tIogJpNh"></path><path d="M345.33 427.08C347.12 425.23 348.03 422.8 348.03 420.37C344.33 420.37 331.39 420.37 329.54 420.37C329.56 422.8 330.45 425.23 332.25 427.08C335.87 430.8 341.72 430.8 345.33 427.08Z" id="aMTuVFZlW"></path><path d="M368.19 82.75C364.37 76.2 360.26 70.31 356 65.05C351.02 76.62 336.65 104.48 309.73 115.89C310.44 117.65 316.05 131.78 316.76 133.55C343.53 122.2 359.76 98.81 368.19 82.75Z" id="e3bjUjZN7t"></path><path d="M368.19 82.75C364.37 76.2 360.26 70.31 356 65.05C351.02 76.62 336.65 104.48 309.73 115.89C310.44 117.65 316.05 131.78 316.76 133.55C343.53 122.2 359.76 98.81 368.19 82.75Z" id="i6sE7OuxK"></path><path d="M368.19 82.75C364.37 76.2 360.26 70.31 356 65.05C351.02 76.62 336.65 104.48 309.73 115.89C310.44 117.65 316.05 131.78 316.76 133.55C343.53 122.2 359.76 98.81 368.19 82.75Z" id="f4DGtMpsgr"></path><path d="M368.19 82.75C364.37 76.2 360.26 70.31 356 65.05C351.02 76.62 336.65 104.48 309.73 115.89C310.44 117.65 316.05 131.78 316.76 133.55C343.53 122.2 359.76 98.81 368.19 82.75Z" id="a4MlvSLTR"></path><path d="M244.48 115.37C244.85 117.24 247.84 132.19 248.21 134.06C274.23 128.53 300.33 111.54 323.67 84.95C334.15 73.01 341.87 61.71 346.42 54.46C341.61 49.72 336.75 45.69 331.95 42.33C322.15 58.24 289.49 105.78 244.48 115.37Z" id="d1LPtnXIvn"></path><path d="M244.48 115.37C244.85 117.24 247.84 132.19 248.21 134.06C274.23 128.53 300.33 111.54 323.67 84.95C334.15 73.01 341.87 61.71 346.42 54.46C341.61 49.72 336.75 45.69 331.95 42.33C322.15 58.24 289.49 105.78 244.48 115.37Z" id="b1IfNGJvNQ"></path><path d="M244.48 115.37C244.85 117.24 247.84 132.19 248.21 134.06C274.23 128.53 300.33 111.54 323.67 84.95C334.15 73.01 341.87 61.71 346.42 54.46C341.61 49.72 336.75 45.69 331.95 42.33C322.15 58.24 289.49 105.78 244.48 115.37Z" id="a8d3PCcKsm"></path><path d="M244.48 115.37C244.85 117.24 247.84 132.19 248.21 134.06C274.23 128.53 300.33 111.54 323.67 84.95C334.15 73.01 341.87 61.71 346.42 54.46C341.61 49.72 336.75 45.69 331.95 42.33C322.15 58.24 289.49 105.78 244.48 115.37Z" id="d11Tw9h3AQ"></path><path d="M227.85 439.41C227.85 439.41 227.85 439.41 227.85 439.41C225.48 439.41 223.12 440.35 221.31 442.21C217.7 445.94 217.7 452 221.31 455.72C223.12 457.57 225.48 458.51 227.85 458.51C227.85 458.51 227.85 458.51 227.85 458.51C242.64 458.51 360.99 458.51 375.78 458.51C375.78 458.51 375.78 458.51 375.78 458.51C378.15 458.51 380.5 457.59 382.32 455.72C385.92 452 385.92 445.94 382.32 442.21C380.5 440.35 378.15 439.41 375.78 439.41C375.78 439.41 375.78 439.41 375.78 439.41C360.99 439.41 242.64 439.41 227.85 439.41Z" id="b2fwvznHIg"></path><path d="M227.85 439.41C227.85 439.41 227.85 439.41 227.85 439.41C225.48 439.41 223.12 440.35 221.31 442.21C217.7 445.94 217.7 452 221.31 455.72C223.12 457.57 225.48 458.51 227.85 458.51C227.85 458.51 227.85 458.51 227.85 458.51C242.64 458.51 360.99 458.51 375.78 458.51C375.78 458.51 375.78 458.51 375.78 458.51C378.15 458.51 380.5 457.59 382.32 455.72C385.92 452 385.92 445.94 382.32 442.21C380.5 440.35 378.15 439.41 375.78 439.41C375.78 439.41 375.78 439.41 375.78 439.41C360.99 439.41 242.64 439.41 227.85 439.41Z" id="a5mXe5ARF2"></path><path d="M227.85 439.41C227.85 439.41 227.85 439.41 227.85 439.41C225.48 439.41 223.12 440.35 221.31 442.21C217.7 445.94 217.7 452 221.31 455.72C223.12 457.57 225.48 458.51 227.85 458.51C227.85 458.51 227.85 458.51 227.85 458.51C242.64 458.51 360.99 458.51 375.78 458.51C375.78 458.51 375.78 458.51 375.78 458.51C378.15 458.51 380.5 457.59 382.32 455.72C385.92 452 385.92 445.94 382.32 442.21C380.5 440.35 378.15 439.41 375.78 439.41C375.78 439.41 375.78 439.41 375.78 439.41C360.99 439.41 242.64 439.41 227.85 439.41Z" id="d9cRqVyIi"></path><path d="M227.85 439.41C227.85 439.41 227.85 439.41 227.85 439.41C225.48 439.41 223.12 440.35 221.31 442.21C217.7 445.94 217.7 452 221.31 455.72C223.12 457.57 225.48 458.51 227.85 458.51C227.85 458.51 227.85 458.51 227.85 458.51C242.64 458.51 360.99 458.51 375.78 458.51C375.78 458.51 375.78 458.51 375.78 458.51C378.15 458.51 380.5 457.59 382.32 455.72C385.92 452 385.92 445.94 382.32 442.21C380.5 440.35 378.15 439.41 375.78 439.41C375.78 439.41 375.78 439.41 375.78 439.41C360.99 439.41 242.64 439.41 227.85 439.41Z" id="a76UuxVdd0"></path><path d="M301.81 114.87C251.89 114.87 224.16 114.87 218.61 114.87C218.61 114.87 208.7 125.11 203.39 153.05C242.76 153.05 380.55 153.05 400.24 153.05C394.93 125.11 388.06 122.51 385.01 114.87C379.47 114.87 351.73 114.87 301.81 114.87Z" id="f1havAYiwn"></path><path d="M301.81 114.87C251.89 114.87 224.16 114.87 218.61 114.87C218.61 114.87 208.7 125.11 203.39 153.05C242.76 153.05 380.55 153.05 400.24 153.05C394.93 125.11 388.06 122.51 385.01 114.87C379.47 114.87 351.73 114.87 301.81 114.87Z" id="a4KlHSMVb"></path><path d="M301.81 114.87C251.89 114.87 224.16 114.87 218.61 114.87C218.61 114.87 208.7 125.11 203.39 153.05C242.76 153.05 380.55 153.05 400.24 153.05C394.93 125.11 388.06 122.51 385.01 114.87C379.47 114.87 351.73 114.87 301.81 114.87Z" id="bx6tONt20"></path><path d="M301.81 114.87C251.89 114.87 224.16 114.87 218.61 114.87C218.61 114.87 208.7 125.11 203.39 153.05C242.76 153.05 380.55 153.05 400.24 153.05C394.93 125.11 388.06 122.51 385.01 114.87C379.47 114.87 351.73 114.87 301.81 114.87Z" id="b1jxCP4ZTf"></path><path d="M292.57 219.88C292.57 233.24 292.57 340.14 292.57 353.5C292.57 353.5 292.57 353.5 292.57 353.5C292.57 355.96 293.47 358.4 295.28 360.27C298.89 363.99 304.74 363.99 308.35 360.27C310.15 358.4 311.06 355.96 311.06 353.5C311.06 353.5 311.06 353.5 311.06 353.5C311.06 340.14 311.06 233.24 311.06 219.88C311.06 219.88 311.06 219.88 311.06 219.88C311.06 217.43 310.15 214.99 308.35 213.12C304.74 209.4 298.89 209.4 295.28 213.12C293.47 214.99 292.57 217.43 292.57 219.88C292.57 219.88 292.57 219.88 292.57 219.88Z" id="b2Usvtw97w"></path><path d="M292.57 219.88C292.57 233.24 292.57 340.14 292.57 353.5C292.57 353.5 292.57 353.5 292.57 353.5C292.57 355.96 293.47 358.4 295.28 360.27C298.89 363.99 304.74 363.99 308.35 360.27C310.15 358.4 311.06 355.96 311.06 353.5C311.06 353.5 311.06 353.5 311.06 353.5C311.06 340.14 311.06 233.24 311.06 219.88C311.06 219.88 311.06 219.88 311.06 219.88C311.06 217.43 310.15 214.99 308.35 213.12C304.74 209.4 298.89 209.4 295.28 213.12C293.47 214.99 292.57 217.43 292.57 219.88C292.57 219.88 292.57 219.88 292.57 219.88Z" id="c38EwqglX1"></path><path d="M292.57 219.88C292.57 233.24 292.57 340.14 292.57 353.5C292.57 353.5 292.57 353.5 292.57 353.5C292.57 355.96 293.47 358.4 295.28 360.27C298.89 363.99 304.74 363.99 308.35 360.27C310.15 358.4 311.06 355.96 311.06 353.5C311.06 353.5 311.06 353.5 311.06 353.5C311.06 340.14 311.06 233.24 311.06 219.88C311.06 219.88 311.06 219.88 311.06 219.88C311.06 217.43 310.15 214.99 308.35 213.12C304.74 209.4 298.89 209.4 295.28 213.12C293.47 214.99 292.57 217.43 292.57 219.88C292.57 219.88 292.57 219.88 292.57 219.88Z" id="h6m1g773k5"></path><path d="M292.57 219.88C292.57 233.24 292.57 340.14 292.57 353.5C292.57 353.5 292.57 353.5 292.57 353.5C292.57 355.96 293.47 358.4 295.28 360.27C298.89 363.99 304.74 363.99 308.35 360.27C310.15 358.4 311.06 355.96 311.06 353.5C311.06 353.5 311.06 353.5 311.06 353.5C311.06 340.14 311.06 233.24 311.06 219.88C311.06 219.88 311.06 219.88 311.06 219.88C311.06 217.43 310.15 214.99 308.35 213.12C304.74 209.4 298.89 209.4 295.28 213.12C293.47 214.99 292.57 217.43 292.57 219.88C292.57 219.88 292.57 219.88 292.57 219.88Z" id="aKpbQsIwB"></path><path d="M338.89 218.53C337.04 231.89 322.25 338.8 320.4 352.16C320.4 352.16 320.41 352.16 320.41 352.16C320.01 355.04 320.87 358.06 323.01 360.27C326.62 363.99 332.48 363.99 336.08 360.27C337.56 358.73 338.41 356.83 338.7 354.86C338.7 354.86 338.7 354.86 338.7 354.86C340.55 341.5 355.35 234.58 357.2 221.22C357.19 221.22 357.18 221.22 357.18 221.22C357.58 218.35 356.71 215.33 354.58 213.12C350.97 209.4 345.12 209.4 341.5 213.12C340.02 214.64 339.17 216.55 338.9 218.53C338.9 218.53 338.89 218.53 338.89 218.53Z" id="a5JkMcxBDk"></path><path d="M338.89 218.53C337.04 231.89 322.25 338.8 320.4 352.16C320.4 352.16 320.41 352.16 320.41 352.16C320.01 355.04 320.87 358.06 323.01 360.27C326.62 363.99 332.48 363.99 336.08 360.27C337.56 358.73 338.41 356.83 338.7 354.86C338.7 354.86 338.7 354.86 338.7 354.86C340.55 341.5 355.35 234.58 357.2 221.22C357.19 221.22 357.18 221.22 357.18 221.22C357.58 218.35 356.71 215.33 354.58 213.12C350.97 209.4 345.12 209.4 341.5 213.12C340.02 214.64 339.17 216.55 338.9 218.53C338.9 218.53 338.89 218.53 338.89 218.53Z" id="a1WeG6DHHp"></path><path d="M338.89 218.53C337.04 231.89 322.25 338.8 320.4 352.16C320.4 352.16 320.41 352.16 320.41 352.16C320.01 355.04 320.87 358.06 323.01 360.27C326.62 363.99 332.48 363.99 336.08 360.27C337.56 358.73 338.41 356.83 338.7 354.86C338.7 354.86 338.7 354.86 338.7 354.86C340.55 341.5 355.35 234.58 357.2 221.22C357.19 221.22 357.18 221.22 357.18 221.22C357.58 218.35 356.71 215.33 354.58 213.12C350.97 209.4 345.12 209.4 341.5 213.12C340.02 214.64 339.17 216.55 338.9 218.53C338.9 218.53 338.89 218.53 338.89 218.53Z" id="gzRDQ7uL"></path><path d="M338.89 218.53C337.04 231.89 322.25 338.8 320.4 352.16C320.4 352.16 320.41 352.16 320.41 352.16C320.01 355.04 320.87 358.06 323.01 360.27C326.62 363.99 332.48 363.99 336.08 360.27C337.56 358.73 338.41 356.83 338.7 354.86C338.7 354.86 338.7 354.86 338.7 354.86C340.55 341.5 355.35 234.58 357.2 221.22C357.19 221.22 357.18 221.22 357.18 221.22C357.58 218.35 356.71 215.33 354.58 213.12C350.97 209.4 345.12 209.4 341.5 213.12C340.02 214.64 339.17 216.55 338.9 218.53C338.9 218.53 338.89 218.53 338.89 218.53Z" id="cEZztjjXw"></path><path d="M262.12 213.12C258.51 209.4 252.66 209.4 249.05 213.12C246.92 215.33 246.05 218.35 246.45 221.22C246.45 221.22 246.44 221.22 246.43 221.23C248.28 234.59 263.08 341.5 264.93 354.86C264.93 354.86 264.93 354.86 264.93 354.86C265.21 356.83 266.07 358.73 267.54 360.27C271.15 363.99 277.01 363.99 280.62 360.27C282.76 358.06 283.62 355.04 283.22 352.16C283.22 352.16 283.23 352.16 283.23 352.16C283.23 352.16 283.23 352.16 283.23 352.16C281.38 338.8 266.59 231.88 264.74 218.52C264.73 218.53 264.73 218.53 264.73 218.53C264.46 216.55 263.6 214.64 262.12 213.12Z" id="h68pHkGV8F"></path><path d="M262.12 213.12C258.51 209.4 252.66 209.4 249.05 213.12C246.92 215.33 246.05 218.35 246.45 221.22C246.45 221.22 246.44 221.22 246.43 221.23C248.28 234.59 263.08 341.5 264.93 354.86C264.93 354.86 264.93 354.86 264.93 354.86C265.21 356.83 266.07 358.73 267.54 360.27C271.15 363.99 277.01 363.99 280.62 360.27C282.76 358.06 283.62 355.04 283.22 352.16C283.22 352.16 283.23 352.16 283.23 352.16C283.23 352.16 283.23 352.16 283.23 352.16C281.38 338.8 266.59 231.88 264.74 218.52C264.73 218.53 264.73 218.53 264.73 218.53C264.46 216.55 263.6 214.64 262.12 213.12Z" id="b1GP1GyI8"></path><path d="M262.12 213.12C258.51 209.4 252.66 209.4 249.05 213.12C246.92 215.33 246.05 218.35 246.45 221.22C246.45 221.22 246.44 221.22 246.43 221.23C248.28 234.59 263.08 341.5 264.93 354.86C264.93 354.86 264.93 354.86 264.93 354.86C265.21 356.83 266.07 358.73 267.54 360.27C271.15 363.99 277.01 363.99 280.62 360.27C282.76 358.06 283.62 355.04 283.22 352.16C283.22 352.16 283.23 352.16 283.23 352.16C283.23 352.16 283.23 352.16 283.23 352.16C281.38 338.8 266.59 231.88 264.74 218.52C264.73 218.53 264.73 218.53 264.73 218.53C264.46 216.55 263.6 214.64 262.12 213.12Z" id="eb4AlCj6X"></path><path d="M262.12 213.12C258.51 209.4 252.66 209.4 249.05 213.12C246.92 215.33 246.05 218.35 246.45 221.22C246.45 221.22 246.44 221.22 246.43 221.23C248.28 234.59 263.08 341.5 264.93 354.86C264.93 354.86 264.93 354.86 264.93 354.86C265.21 356.83 266.07 358.73 267.54 360.27C271.15 363.99 277.01 363.99 280.62 360.27C282.76 358.06 283.62 355.04 283.22 352.16C283.22 352.16 283.23 352.16 283.23 352.16C283.23 352.16 283.23 352.16 283.23 352.16C281.38 338.8 266.59 231.88 264.74 218.52C264.73 218.53 264.73 218.53 264.73 218.53C264.46 216.55 263.6 214.64 262.12 213.12Z" id="fUK8upFTw"></path><path d="M243.4 54.64C238.94 46.43 230.01 40.94 216.86 38.34C211.85 37.35 208.56 32.35 209.52 27.17C210.48 21.99 215.33 18.6 220.34 19.59C233.7 22.23 251.44 29.07 260.22 46.63C265.58 57.37 264.89 66.98 264.79 68.04C262.34 67.8 256.2 67.2 246.38 66.25C246.38 66.32 246.37 66.35 246.37 66.37C246.37 66.32 246.69 60.7 243.4 54.64Z" id="a4ieGGJYrc"></path><path d="M243.4 54.64C238.94 46.43 230.01 40.94 216.86 38.34C211.85 37.35 208.56 32.35 209.52 27.17C210.48 21.99 215.33 18.6 220.34 19.59C233.7 22.23 251.44 29.07 260.22 46.63C265.58 57.37 264.89 66.98 264.79 68.04C262.34 67.8 256.2 67.2 246.38 66.25C246.38 66.32 246.37 66.35 246.37 66.37C246.37 66.32 246.69 60.7 243.4 54.64Z" id="a10beSdP1x"></path><path d="M243.4 54.64C238.94 46.43 230.01 40.94 216.86 38.34C211.85 37.35 208.56 32.35 209.52 27.17C210.48 21.99 215.33 18.6 220.34 19.59C233.7 22.23 251.44 29.07 260.22 46.63C265.58 57.37 264.89 66.98 264.79 68.04C262.34 67.8 256.2 67.2 246.38 66.25C246.38 66.32 246.37 66.35 246.37 66.37C246.37 66.32 246.69 60.7 243.4 54.64Z" id="caYXh1ycV"></path><path d="M243.4 54.64C238.94 46.43 230.01 40.94 216.86 38.34C211.85 37.35 208.56 32.35 209.52 27.17C210.48 21.99 215.33 18.6 220.34 19.59C233.7 22.23 251.44 29.07 260.22 46.63C265.58 57.37 264.89 66.98 264.79 68.04C262.34 67.8 256.2 67.2 246.38 66.25C246.38 66.32 246.37 66.35 246.37 66.37C246.37 66.32 246.69 60.7 243.4 54.64Z" id="dmOd9c8K2"></path><path d="M255.59 95.78C270.91 95.78 283.32 82.96 283.32 67.14C283.32 51.33 270.91 38.51 255.59 38.51C240.27 38.51 227.85 51.33 227.85 67.14C227.85 82.96 240.27 95.78 255.59 95.78Z" id="i2hg5f2uNV"></path><path d="M255.59 95.78C270.91 95.78 283.32 82.96 283.32 67.14C283.32 51.33 270.91 38.51 255.59 38.51C240.27 38.51 227.85 51.33 227.85 67.14C227.85 82.96 240.27 95.78 255.59 95.78Z" id="aI927QWO2"></path><path d="M255.59 95.78C270.91 95.78 283.32 82.96 283.32 67.14C283.32 51.33 270.91 38.51 255.59 38.51C240.27 38.51 227.85 51.33 227.85 67.14C227.85 82.96 240.27 95.78 255.59 95.78Z" id="c1bZKElbHN"></path><path d="M255.59 95.78C270.91 95.78 283.32 82.96 283.32 67.14C283.32 51.33 270.91 38.51 255.59 38.51C240.27 38.51 227.85 51.33 227.85 67.14C227.85 82.96 240.27 95.78 255.59 95.78Z" id="b7cD3iFDV"></path><path d="M220.28 291.57C223.39 301.97 226.33 313.7 228.79 325.5C229.19 327.4 228.28 329.51 226.7 329.83C224.33 330.31 223.5 328.87 223.17 327.26C220.76 315.7 217.88 304.21 214.83 294.03C214.28 292.18 215.05 290.14 216.55 289.46C218.06 288.78 219.72 289.72 220.28 291.57Z" id="mzRLEjy2W"></path><path d="M220.28 291.57C223.39 301.97 226.33 313.7 228.79 325.5C229.19 327.4 228.28 329.51 226.7 329.83C224.33 330.31 223.5 328.87 223.17 327.26C220.76 315.7 217.88 304.21 214.83 294.03C214.28 292.18 215.05 290.14 216.55 289.46C218.06 288.78 219.72 289.72 220.28 291.57Z" id="a1FNYmF9UM"></path><path d="M189.26 390.77C189.8 390.1 190.55 389.72 191.31 389.72C192.08 389.72 192.82 390.1 193.36 390.77C193.9 391.43 194.21 392.35 194.21 393.28C194.21 394.22 193.9 395.14 193.36 395.81C192.82 396.47 192.08 396.85 191.31 396.85C190.55 396.85 189.8 396.47 189.26 395.81C188.72 395.14 188.41 394.22 188.41 393.28C188.41 392.35 188.72 391.43 189.26 390.77Z" id="c3Bo0AxZlF"></path><path d="M189.26 390.77C189.8 390.1 190.55 389.72 191.31 389.72C192.08 389.72 192.82 390.1 193.36 390.77C193.9 391.43 194.21 392.35 194.21 393.28C194.21 394.22 193.9 395.14 193.36 395.81C192.82 396.47 192.08 396.85 191.31 396.85C190.55 396.85 189.8 396.47 189.26 395.81C188.72 395.14 188.41 394.22 188.41 393.28C188.41 392.35 188.72 391.43 189.26 390.77Z" id="b1CcyzInLY"></path><path d="M189.26 390.77C189.8 390.1 190.55 389.72 191.31 389.72C192.08 389.72 192.82 390.1 193.36 390.77C193.9 391.43 194.21 392.35 194.21 393.28C194.21 394.22 193.9 395.14 193.36 395.81C192.82 396.47 192.08 396.85 191.31 396.85C190.55 396.85 189.8 396.47 189.26 395.81C188.72 395.14 188.41 394.22 188.41 393.28C188.41 392.35 188.72 391.43 189.26 390.77Z" id="bjcAdW5b"></path><path d="M189.26 390.77C189.8 390.1 190.55 389.72 191.31 389.72C192.08 389.72 192.82 390.1 193.36 390.77C193.9 391.43 194.21 392.35 194.21 393.28C194.21 394.22 193.9 395.14 193.36 395.81C192.82 396.47 192.08 396.85 191.31 396.85C190.55 396.85 189.8 396.47 189.26 395.81C188.72 395.14 188.41 394.22 188.41 393.28C188.41 392.35 188.72 391.43 189.26 390.77Z" id="aA9UcRZsC"></path><path d="M199.12 375.04C199.66 374.38 200.41 374 201.17 374C201.94 374 202.69 374.38 203.23 375.04C203.76 375.71 204.07 376.62 204.07 377.56C204.07 378.5 203.76 379.42 203.23 380.08C202.69 380.74 201.94 381.12 201.17 381.12C200.41 381.12 199.66 380.74 199.12 380.08C198.58 379.42 198.27 378.5 198.27 377.56C198.27 376.62 198.58 375.7 199.12 375.04Z" id="heomV1PVv"></path><path d="M199.12 375.04C199.66 374.38 200.41 374 201.17 374C201.94 374 202.69 374.38 203.23 375.04C203.76 375.71 204.07 376.62 204.07 377.56C204.07 378.5 203.76 379.42 203.23 380.08C202.69 380.74 201.94 381.12 201.17 381.12C200.41 381.12 199.66 380.74 199.12 380.08C198.58 379.42 198.27 378.5 198.27 377.56C198.27 376.62 198.58 375.7 199.12 375.04Z" id="e2rJ90eV5Z"></path><path d="M199.12 375.04C199.66 374.38 200.41 374 201.17 374C201.94 374 202.69 374.38 203.23 375.04C203.76 375.71 204.07 376.62 204.07 377.56C204.07 378.5 203.76 379.42 203.23 380.08C202.69 380.74 201.94 381.12 201.17 381.12C200.41 381.12 199.66 380.74 199.12 380.08C198.58 379.42 198.27 378.5 198.27 377.56C198.27 376.62 198.58 375.7 199.12 375.04Z" id="a4nLeHHlJC"></path><path d="M199.12 375.04C199.66 374.38 200.41 374 201.17 374C201.94 374 202.69 374.38 203.23 375.04C203.76 375.71 204.07 376.62 204.07 377.56C204.07 378.5 203.76 379.42 203.23 380.08C202.69 380.74 201.94 381.12 201.17 381.12C200.41 381.12 199.66 380.74 199.12 380.08C198.58 379.42 198.27 378.5 198.27 377.56C198.27 376.62 198.58 375.7 199.12 375.04Z" id="b4eZAoZsg"></path><path d="M212.47 375.04C213.01 374.38 213.75 374 214.52 374C215.28 374 216.03 374.38 216.57 375.04C217.11 375.71 217.42 376.62 217.42 377.56C217.42 378.5 217.11 379.42 216.57 380.08C216.03 380.74 215.28 381.12 214.52 381.12C213.76 381.12 213.01 380.74 212.47 380.08C211.93 379.42 211.62 378.5 211.62 377.56C211.62 376.62 211.93 375.7 212.47 375.04Z" id="bHsI7S5Xx"></path><path d="M212.47 375.04C213.01 374.38 213.75 374 214.52 374C215.28 374 216.03 374.38 216.57 375.04C217.11 375.71 217.42 376.62 217.42 377.56C217.42 378.5 217.11 379.42 216.57 380.08C216.03 380.74 215.28 381.12 214.52 381.12C213.76 381.12 213.01 380.74 212.47 380.08C211.93 379.42 211.62 378.5 211.62 377.56C211.62 376.62 211.93 375.7 212.47 375.04Z" id="i8qQVAR5my"></path><path d="M212.47 375.04C213.01 374.38 213.75 374 214.52 374C215.28 374 216.03 374.38 216.57 375.04C217.11 375.71 217.42 376.62 217.42 377.56C217.42 378.5 217.11 379.42 216.57 380.08C216.03 380.74 215.28 381.12 214.52 381.12C213.76 381.12 213.01 380.74 212.47 380.08C211.93 379.42 211.62 378.5 211.62 377.56C211.62 376.62 211.93 375.7 212.47 375.04Z" id="aHZSGRLP3"></path><path d="M212.47 375.04C213.01 374.38 213.75 374 214.52 374C215.28 374 216.03 374.38 216.57 375.04C217.11 375.71 217.42 376.62 217.42 377.56C217.42 378.5 217.11 379.42 216.57 380.08C216.03 380.74 215.28 381.12 214.52 381.12C213.76 381.12 213.01 380.74 212.47 380.08C211.93 379.42 211.62 378.5 211.62 377.56C211.62 376.62 211.93 375.7 212.47 375.04Z" id="b2nAbGwd1d"></path><path d="M186.36 367.92C186.9 367.26 187.65 366.88 188.41 366.88C189.17 366.88 189.92 367.26 190.46 367.92C191 368.59 191.31 369.5 191.31 370.44C191.31 371.38 191 372.29 190.46 372.96C189.92 373.62 189.17 374 188.41 374C187.65 374 186.9 373.62 186.36 372.96C185.82 372.29 185.51 371.38 185.51 370.44C185.51 369.5 185.82 368.58 186.36 367.92Z" id="c2PjPXaXlU"></path><path d="M186.36 367.92C186.9 367.26 187.65 366.88 188.41 366.88C189.17 366.88 189.92 367.26 190.46 367.92C191 368.59 191.31 369.5 191.31 370.44C191.31 371.38 191 372.29 190.46 372.96C189.92 373.62 189.17 374 188.41 374C187.65 374 186.9 373.62 186.36 372.96C185.82 372.29 185.51 371.38 185.51 370.44C185.51 369.5 185.82 368.58 186.36 367.92Z" id="czFUwcak7"></path><path d="M186.36 367.92C186.9 367.26 187.65 366.88 188.41 366.88C189.17 366.88 189.92 367.26 190.46 367.92C191 368.59 191.31 369.5 191.31 370.44C191.31 371.38 191 372.29 190.46 372.96C189.92 373.62 189.17 374 188.41 374C187.65 374 186.9 373.62 186.36 372.96C185.82 372.29 185.51 371.38 185.51 370.44C185.51 369.5 185.82 368.58 186.36 367.92Z" id="a1lUF25eqq"></path><path d="M186.36 367.92C186.9 367.26 187.65 366.88 188.41 366.88C189.17 366.88 189.92 367.26 190.46 367.92C191 368.59 191.31 369.5 191.31 370.44C191.31 371.38 191 372.29 190.46 372.96C189.92 373.62 189.17 374 188.41 374C187.65 374 186.9 373.62 186.36 372.96C185.82 372.29 185.51 371.38 185.51 370.44C185.51 369.5 185.82 368.58 186.36 367.92Z" id="b46exNYmi"></path><path d="M203.5 353.6C204.04 352.94 204.78 352.56 205.55 352.56C206.31 352.56 207.06 352.94 207.6 353.6C208.14 354.27 208.45 355.18 208.45 356.12C208.45 357.06 208.14 357.98 207.6 358.64C207.06 359.3 206.31 359.68 205.55 359.68C204.78 359.68 204.04 359.3 203.5 358.64C202.96 357.98 202.65 357.06 202.65 356.12C202.65 355.19 202.96 354.26 203.5 353.6Z" id="b581vNPxu"></path><path d="M203.5 353.6C204.04 352.94 204.78 352.56 205.55 352.56C206.31 352.56 207.06 352.94 207.6 353.6C208.14 354.27 208.45 355.18 208.45 356.12C208.45 357.06 208.14 357.98 207.6 358.64C207.06 359.3 206.31 359.68 205.55 359.68C204.78 359.68 204.04 359.3 203.5 358.64C202.96 357.98 202.65 357.06 202.65 356.12C202.65 355.19 202.96 354.26 203.5 353.6Z" id="b3mQ3I2LU"></path><path d="M203.5 353.6C204.04 352.94 204.78 352.56 205.55 352.56C206.31 352.56 207.06 352.94 207.6 353.6C208.14 354.27 208.45 355.18 208.45 356.12C208.45 357.06 208.14 357.98 207.6 358.64C207.06 359.3 206.31 359.68 205.55 359.68C204.78 359.68 204.04 359.3 203.5 358.64C202.96 357.98 202.65 357.06 202.65 356.12C202.65 355.19 202.96 354.26 203.5 353.6Z" id="iO2NUruMr"></path><path d="M203.5 353.6C204.04 352.94 204.78 352.56 205.55 352.56C206.31 352.56 207.06 352.94 207.6 353.6C208.14 354.27 208.45 355.18 208.45 356.12C208.45 357.06 208.14 357.98 207.6 358.64C207.06 359.3 206.31 359.68 205.55 359.68C204.78 359.68 204.04 359.3 203.5 358.64C202.96 357.98 202.65 357.06 202.65 356.12C202.65 355.19 202.96 354.26 203.5 353.6Z" id="b3WA2DBOt"></path><path d="M204.92 394.33C205.47 393.66 206.21 393.28 206.97 393.28C207.74 393.28 208.49 393.66 209.03 394.33C209.57 394.99 209.88 395.91 209.88 396.85C209.88 397.79 209.57 398.7 209.03 399.37C208.49 400.03 207.74 400.41 206.97 400.41C206.21 400.41 205.47 400.03 204.92 399.37C204.38 398.7 204.07 397.79 204.07 396.85C204.07 395.91 204.38 394.99 204.92 394.33Z" id="ewGCYwsQu"></path><path d="M204.92 394.33C205.47 393.66 206.21 393.28 206.97 393.28C207.74 393.28 208.49 393.66 209.03 394.33C209.57 394.99 209.88 395.91 209.88 396.85C209.88 397.79 209.57 398.7 209.03 399.37C208.49 400.03 207.74 400.41 206.97 400.41C206.21 400.41 205.47 400.03 204.92 399.37C204.38 398.7 204.07 397.79 204.07 396.85C204.07 395.91 204.38 394.99 204.92 394.33Z" id="a1GxMRmXrH"></path><path d="M204.92 394.33C205.47 393.66 206.21 393.28 206.97 393.28C207.74 393.28 208.49 393.66 209.03 394.33C209.57 394.99 209.88 395.91 209.88 396.85C209.88 397.79 209.57 398.7 209.03 399.37C208.49 400.03 207.74 400.41 206.97 400.41C206.21 400.41 205.47 400.03 204.92 399.37C204.38 398.7 204.07 397.79 204.07 396.85C204.07 395.91 204.38 394.99 204.92 394.33Z" id="b3aWucxbgz"></path><path d="M204.92 394.33C205.47 393.66 206.21 393.28 206.97 393.28C207.74 393.28 208.49 393.66 209.03 394.33C209.57 394.99 209.88 395.91 209.88 396.85C209.88 397.79 209.57 398.7 209.03 399.37C208.49 400.03 207.74 400.41 206.97 400.41C206.21 400.41 205.47 400.03 204.92 399.37C204.38 398.7 204.07 397.79 204.07 396.85C204.07 395.91 204.38 394.99 204.92 394.33Z" id="a5mD9uqlCM"></path><path d="M202.02 328.29C202.56 327.62 203.31 327.24 204.07 327.24C204.84 327.24 205.59 327.62 206.13 328.29C206.67 328.95 206.97 329.87 206.97 330.8C206.97 331.74 206.66 332.66 206.13 333.32C205.59 333.98 204.84 334.36 204.07 334.36C203.31 334.36 202.57 333.98 202.02 333.32C201.48 332.66 201.17 331.74 201.17 330.8C201.17 329.87 201.48 328.95 202.02 328.29Z" id="adgykI7xv"></path><path d="M202.02 328.29C202.56 327.62 203.31 327.24 204.07 327.24C204.84 327.24 205.59 327.62 206.13 328.29C206.67 328.95 206.97 329.87 206.97 330.8C206.97 331.74 206.66 332.66 206.13 333.32C205.59 333.98 204.84 334.36 204.07 334.36C203.31 334.36 202.57 333.98 202.02 333.32C201.48 332.66 201.17 331.74 201.17 330.8C201.17 329.87 201.48 328.95 202.02 328.29Z" id="guxfmuBz"></path><path d="M202.02 328.29C202.56 327.62 203.31 327.24 204.07 327.24C204.84 327.24 205.59 327.62 206.13 328.29C206.67 328.95 206.97 329.87 206.97 330.8C206.97 331.74 206.66 332.66 206.13 333.32C205.59 333.98 204.84 334.36 204.07 334.36C203.31 334.36 202.57 333.98 202.02 333.32C201.48 332.66 201.17 331.74 201.17 330.8C201.17 329.87 201.48 328.95 202.02 328.29Z" id="a1KfLJqgmq"></path><path d="M202.02 328.29C202.56 327.62 203.31 327.24 204.07 327.24C204.84 327.24 205.59 327.62 206.13 328.29C206.67 328.95 206.97 329.87 206.97 330.8C206.97 331.74 206.66 332.66 206.13 333.32C205.59 333.98 204.84 334.36 204.07 334.36C203.31 334.36 202.57 333.98 202.02 333.32C201.48 332.66 201.17 331.74 201.17 330.8C201.17 329.87 201.48 328.95 202.02 328.29Z" id="b1z9g8gGDI"></path><path d="M192.16 344.72C192.7 344.06 193.45 343.68 194.21 343.68C194.98 343.68 195.72 344.06 196.26 344.72C196.8 345.39 197.11 346.31 197.11 347.24C197.11 348.18 196.8 349.1 196.26 349.76C195.72 350.42 194.98 350.8 194.21 350.8C193.45 350.8 192.7 350.42 192.16 349.76C191.62 349.1 191.31 348.18 191.31 347.24C191.31 346.31 191.62 345.38 192.16 344.72Z" id="bNlLcxUN"></path><path d="M192.16 344.72C192.7 344.06 193.45 343.68 194.21 343.68C194.98 343.68 195.72 344.06 196.26 344.72C196.8 345.39 197.11 346.31 197.11 347.24C197.11 348.18 196.8 349.1 196.26 349.76C195.72 350.42 194.98 350.8 194.21 350.8C193.45 350.8 192.7 350.42 192.16 349.76C191.62 349.1 191.31 348.18 191.31 347.24C191.31 346.31 191.62 345.38 192.16 344.72Z" id="a6RDoh0gfX"></path><path d="M192.16 344.72C192.7 344.06 193.45 343.68 194.21 343.68C194.98 343.68 195.72 344.06 196.26 344.72C196.8 345.39 197.11 346.31 197.11 347.24C197.11 348.18 196.8 349.1 196.26 349.76C195.72 350.42 194.98 350.8 194.21 350.8C193.45 350.8 192.7 350.42 192.16 349.76C191.62 349.1 191.31 348.18 191.31 347.24C191.31 346.31 191.62 345.38 192.16 344.72Z" id="c13Q51rr7v"></path><path d="M192.16 344.72C192.7 344.06 193.45 343.68 194.21 343.68C194.98 343.68 195.72 344.06 196.26 344.72C196.8 345.39 197.11 346.31 197.11 347.24C197.11 348.18 196.8 349.1 196.26 349.76C195.72 350.42 194.98 350.8 194.21 350.8C193.45 350.8 192.7 350.42 192.16 349.76C191.62 349.1 191.31 348.18 191.31 347.24C191.31 346.31 191.62 345.38 192.16 344.72Z" id="a1mYIDtNp"></path><path d="M215.73 251.85C214.2 265.85 200.22 364.25 104.87 436.67C87.84 438.6 51.53 436.18 27.31 419.69C21.49 415.72 23.05 406.92 29.97 404.95C168.97 365.3 178.55 282.47 215.7 251.85C215.71 251.85 215.72 251.85 215.73 251.85Z" id="a15oQNTCxp"></path><path d="M215.73 251.85C214.2 265.85 200.22 364.25 104.87 436.67C87.84 438.6 51.53 436.18 27.31 419.69C21.49 415.72 23.05 406.92 29.97 404.95C168.97 365.3 178.55 282.47 215.7 251.85C215.71 251.85 215.72 251.85 215.73 251.85Z" id="a4nMHgFHhW"></path><path d="M177.8 363.09C179.1 361.44 178.78 359.1 177.09 357.88C175.4 356.66 172.99 357 171.69 358.66C171.56 358.82 164.76 367.36 151.13 377.46C138.53 386.8 117.33 399.45 87.9 406.62C85.83 407.12 84.55 409.15 85.04 411.14C85.52 413.14 87.59 414.35 89.67 413.85C120.53 406.33 142.79 393 156.02 383.15C170.45 372.4 177.51 363.47 177.8 363.09Z" id="c59n3oKwV"></path><path d="M177.8 363.09C179.1 361.44 178.78 359.1 177.09 357.88C175.4 356.66 172.99 357 171.69 358.66C171.56 358.82 164.76 367.36 151.13 377.46C138.53 386.8 117.33 399.45 87.9 406.62C85.83 407.12 84.55 409.15 85.04 411.14C85.52 413.14 87.59 414.35 89.67 413.85C120.53 406.33 142.79 393 156.02 383.15C170.45 372.4 177.51 363.47 177.8 363.09Z" id="bjRytNum6"></path><path d="M88.03 464.66C101.67 468.75 124.95 471.39 158.91 461.16C217.93 443.39 299.44 333.16 236.4 245.17C235.02 245.5 228.14 247.18 215.75 250.2C209.67 331.03 166.4 397.6 85.94 449.91C79.93 453.82 81.2 462.61 88.03 464.66Z" id="a5AmrLgjr"></path><path d="M88.03 464.66C101.67 468.75 124.95 471.39 158.91 461.16C217.93 443.39 299.44 333.16 236.4 245.17C235.02 245.5 228.14 247.18 215.75 250.2C209.67 331.03 166.4 397.6 85.94 449.91C79.93 453.82 81.2 462.61 88.03 464.66Z" id="b5DXVklnk"></path><path d="M203.74 389.14C214.92 372.58 223.36 353.49 228.81 332.42C238.07 296.64 235.55 267.87 235.44 266.66C235.25 264.61 233.38 263.13 231.26 263.35C229.14 263.57 227.58 265.4 227.76 267.45C227.76 267.45 227.76 267.45 227.76 267.45C227.79 267.73 230.27 296.36 221.28 330.96C209.3 377.03 183.75 411.27 145.34 432.73C143.48 433.76 142.82 436.05 143.86 437.82C144.72 439.29 146.47 439.96 148.1 439.56C148.44 439.48 148.78 439.35 149.1 439.17C171.34 426.75 189.72 409.91 203.74 389.14Z" id="f3MlSvDWHD"></path><path d="M203.74 389.14C214.92 372.58 223.36 353.49 228.81 332.42C238.07 296.64 235.55 267.87 235.44 266.66C235.25 264.61 233.38 263.13 231.26 263.35C229.14 263.57 227.58 265.4 227.76 267.45C227.76 267.45 227.76 267.45 227.76 267.45C227.79 267.73 230.27 296.36 221.28 330.96C209.3 377.03 183.75 411.27 145.34 432.73C143.48 433.76 142.82 436.05 143.86 437.82C144.72 439.29 146.47 439.96 148.1 439.56C148.44 439.48 148.78 439.35 149.1 439.17C171.34 426.75 189.72 409.91 203.74 389.14Z" id="a2aejbfFJ"></path><path d="M236.4 245.17C299.44 333.16 217.93 443.39 158.91 461.16C153.66 462.74 148.67 464.01 143.93 465.02C145.57 464.58 147.22 464.11 148.91 463.6C207.93 445.83 289.44 335.59 226.4 247.6C227.4 247.36 235.4 245.41 236.4 245.17Z" id="baiWZR0U9"></path><path d="M236.4 245.17C299.44 333.16 217.93 443.39 158.91 461.16C153.66 462.74 148.67 464.01 143.93 465.02C145.57 464.58 147.22 464.11 148.91 463.6C207.93 445.83 289.44 335.59 226.4 247.6C227.4 247.36 235.4 245.41 236.4 245.17Z" id="a1vgvBHzkL"></path><path d="M101.15 467.42C96.07 466.75 91.69 465.76 88.03 464.66C81.2 462.61 79.93 453.82 85.94 449.91C89.25 447.76 92.47 445.57 95.62 443.36C100.84 450.13 102.91 458.88 101.15 467.42Z" id="c2qkkSeSGi"></path><path d="M101.15 467.42C96.07 466.75 91.69 465.76 88.03 464.66C81.2 462.61 79.93 453.82 85.94 449.91C89.25 447.76 92.47 445.57 95.62 443.36C100.84 450.13 102.91 458.88 101.15 467.42Z" id="b2gelv1uAm"></path><path d="M215.73 251.85C214.2 265.85 200.22 364.25 104.87 436.67C102.04 436.99 98.68 437.19 94.93 437.22C164.3 384.34 190.43 317.73 200.07 280.22C210.97 263.31 212.57 257.52 215.7 251.85C215.71 251.85 215.72 251.85 215.73 251.85Z" id="a13kJaeyts"></path><path d="M215.73 251.85C214.2 265.85 200.22 364.25 104.87 436.67C102.04 436.99 98.68 437.19 94.93 437.22C164.3 384.34 190.43 317.73 200.07 280.22C210.97 263.31 212.57 257.52 215.7 251.85C215.71 251.85 215.72 251.85 215.73 251.85Z" id="a2cSFdscK"></path><path d="M230.63 221.49C231.01 223.07 232.94 230.96 236.4 245.17C234.34 245.67 217.82 249.7 215.75 250.2C212.29 235.99 210.37 228.1 209.98 226.52C208.88 221.99 211.82 217.35 216.52 216.21C217.23 216.03 219.72 215.43 220.08 215.34C224.78 214.19 229.53 216.96 230.63 221.49Z" id="g5l4oLU8B"></path><path d="M230.63 221.49C231.01 223.07 232.94 230.96 236.4 245.17C234.34 245.67 217.82 249.7 215.75 250.2C212.29 235.99 210.37 228.1 209.98 226.52C208.88 221.99 211.82 217.35 216.52 216.21C217.23 216.03 219.72 215.43 220.08 215.34C224.78 214.19 229.53 216.96 230.63 221.49Z" id="bzoLDpeqD"></path><path d="M220.08 215.34C224.78 214.19 229.53 216.96 230.63 221.49C231.02 223.07 232.94 230.96 236.4 245.17C235.4 245.41 227.4 247.36 226.4 247.6C222.94 233.4 221.02 225.51 220.63 223.93C219.79 220.5 216.87 218.08 213.45 217.61C214.35 216.97 215.38 216.48 216.52 216.21C216.88 216.12 219.72 215.43 220.08 215.34Z" id="e3CartQdrX"></path><path d="M220.08 215.34C224.78 214.19 229.53 216.96 230.63 221.49C231.02 223.07 232.94 230.96 236.4 245.17C235.4 245.41 227.4 247.36 226.4 247.6C222.94 233.4 221.02 225.51 220.63 223.93C219.79 220.5 216.87 218.08 213.45 217.61C214.35 216.97 215.38 216.48 216.52 216.21C216.88 216.12 219.72 215.43 220.08 215.34Z" id="d1kyU6Nq6f"></path><path d="M236.4 245.17C240.65 251.1 244.24 257.14 247.23 263.25C244.89 263.82 233.19 266.67 212.12 271.8C214.06 260.28 215.27 253.08 215.75 250.2C217.81 249.69 234.33 245.67 236.4 245.17Z" id="a10OYik03i"></path><path d="M236.4 245.17C240.65 251.1 244.24 257.14 247.23 263.25C244.89 263.82 233.19 266.67 212.12 271.8C214.06 260.28 215.27 253.08 215.75 250.2C217.81 249.69 234.33 245.67 236.4 245.17Z" id="jrTBFjUww"></path><path d="M236.4 245.17C236.41 245.19 236.43 245.21 236.45 245.24C236.94 245.93 237.43 246.63 237.91 247.33C238.05 247.53 238.19 247.73 238.32 247.94C238.68 248.46 239.03 248.99 239.38 249.51C239.52 249.72 239.65 249.94 239.79 250.15C240.13 250.67 240.47 251.2 240.81 251.73C240.93 251.92 241.04 252.11 241.16 252.3C241.51 252.86 241.85 253.42 242.19 253.98C242.28 254.14 242.37 254.3 242.47 254.45C242.83 255.05 243.18 255.65 243.52 256.26C243.59 256.38 243.66 256.5 243.73 256.62C244.1 257.27 244.46 257.91 244.81 258.56C244.85 258.64 244.9 258.72 244.94 258.81C245.32 259.5 245.68 260.19 246.04 260.89C246.07 260.93 246.09 260.97 246.11 261.02C246.49 261.76 246.86 262.5 247.23 263.24C247.23 263.24 247.23 263.24 247.23 263.25C246.56 263.41 243.23 264.22 237.23 265.68C237.23 265.68 237.23 265.68 237.23 265.68C232.84 257.59 229.23 251.56 226.4 247.6C227.4 247.36 235.4 245.41 236.4 245.17Z" id="bgYwCAswR"></path><path d="M236.4 245.17C236.41 245.19 236.43 245.21 236.45 245.24C236.94 245.93 237.43 246.63 237.91 247.33C238.05 247.53 238.19 247.73 238.32 247.94C238.68 248.46 239.03 248.99 239.38 249.51C239.52 249.72 239.65 249.94 239.79 250.15C240.13 250.67 240.47 251.2 240.81 251.73C240.93 251.92 241.04 252.11 241.16 252.3C241.51 252.86 241.85 253.42 242.19 253.98C242.28 254.14 242.37 254.3 242.47 254.45C242.83 255.05 243.18 255.65 243.52 256.26C243.59 256.38 243.66 256.5 243.73 256.62C244.1 257.27 244.46 257.91 244.81 258.56C244.85 258.64 244.9 258.72 244.94 258.81C245.32 259.5 245.68 260.19 246.04 260.89C246.07 260.93 246.09 260.97 246.11 261.02C246.49 261.76 246.86 262.5 247.23 263.24C247.23 263.24 247.23 263.24 247.23 263.25C246.56 263.41 243.23 264.22 237.23 265.68C237.23 265.68 237.23 265.68 237.23 265.68C232.84 257.59 229.23 251.56 226.4 247.6C227.4 247.36 235.4 245.41 236.4 245.17Z" id="c6LXfHiu5g"></path><path d="M37.95 425.76C33.76 423.76 30.23 421.68 27.31 419.69C21.49 415.72 23.05 406.92 29.97 404.95C33.69 403.89 37.34 402.76 40.93 401.6C43.52 410 42.2 418.64 37.95 425.76Z" id="arKvnyW77"></path><path d="M37.95 425.76C33.76 423.76 30.23 421.68 27.31 419.69C21.49 415.72 23.05 406.92 29.97 404.95C33.69 403.89 37.34 402.76 40.93 401.6C43.52 410 42.2 418.64 37.95 425.76Z" id="c2M6IP6DIK"></path><path d="M197.01 365.04C158.97 356.89 127.11 360.02 127.48 422.16C127.66 453.99 162.08 495.27 198.25 488.21C204.74 486.94 211.54 486.94 218.02 488.21C254.2 495.27 288.61 453.99 288.8 422.16C289.17 360.02 257.32 356.89 219.27 365.04C211.96 366.61 204.32 366.61 197.01 365.04Z" id="bY5OnXvlS"></path><path d="M141.63 403.22C141.63 386.32 155.91 372.58 173.46 372.58C175.42 372.58 177 373.95 177 375.64C177 377.34 175.42 378.71 173.46 378.71C159.81 378.71 148.7 389.7 148.7 403.22C148.7 404.91 147.12 406.28 145.16 406.28C143.21 406.28 141.63 404.91 141.63 403.22Z" id="a3QCpHKVmd"></path><path d="M204.36 373.67C203.88 360.71 198.13 344.43 183.41 337.63C181.68 336.83 181.03 334.98 181.95 333.49C182.87 331.99 185.01 331.43 186.74 332.22C204.12 340.25 210.89 358.8 211.43 373.48C211.49 375.17 209.96 376.58 208 376.64C207.96 376.64 207.92 376.64 207.89 376.64C205.99 376.64 204.42 375.33 204.36 373.67Z" id="a5pjEepTZ9"></path><path d="M191.83 382C190.45 380.8 190.45 378.86 191.83 377.66C193.21 376.47 195.45 376.47 196.83 377.66C199.7 380.15 203.52 381.52 207.57 381.52C211.62 381.52 215.44 380.15 218.31 377.66C219.69 376.47 221.92 376.47 223.31 377.66C224.69 378.86 224.69 380.8 223.31 382C219.1 385.64 213.51 387.65 207.57 387.65C201.63 387.65 196.04 385.64 191.83 382Z" id="mkA5fCi3E"></path><path d="M206.64 342.8C208.92 329.58 220.9 319.2 236.17 317.23C237.13 317.1 241.95 316.48 250.62 315.37C249.32 322.88 248.61 327.05 248.46 327.88C246.19 341.11 234.2 351.49 218.94 353.46C217.98 353.58 213.16 354.2 204.49 355.32C205.78 347.81 206.5 343.63 206.64 342.8Z" id="b1EwXZZavn"></path></defs><g><g><g><use xlink:href="#csPLbSs1d" opacity="1" fill="#f8933d" fill-opacity="1"></use><g><use xlink:href="#csPLbSs1d" opacity="1" fill-opacity="0" stroke="#000000" stroke-width="1" stroke-opacity="0"></use></g></g><g><use xlink:href="#bJFEbJHy" opacity="1" fill="#000000" fill-opacity="0"></use><g><use xlink:href="#bJFEbJHy" opacity="1" fill-opacity="0" stroke="#000000" stroke-width="1" stroke-opacity="0"></use></g></g><g><use xlink:href="#k1Nvt3zPZ5" opacity="1" fill="#000000" fill-opacity="0"></use><g><use xlink:href="#k1Nvt3zPZ5" opacity="1" fill-opacity="0" stroke="#000000" stroke-width="1" stroke-opacity="0"></use></g></g><g><use xlink:href="#a9x82ldI0" opacity="1" fill="#000000" fill-opacity="0"></use><g><use xlink:href="#a9x82ldI0" opacity="1" fill-opacity="0" stroke="#000000" stroke-width="1" stroke-opacity="0"></use></g></g><g><use xlink:href="#a2cprMcqz8" opacity="1" fill="#ff6243" fill-opacity="1"></use><g><use xlink:href="#a2cprMcqz8" opacity="1" fill-opacity="0" stroke="#000000" stroke-width="1" stroke-opacity="0"></use></g></g><g><use xlink:href="#c12K07aIi5" opacity="1" fill="#000000" fill-opacity="0"></use><g><use xlink:href="#c12K07aIi5" opacity="1" fill-opacity="0" stroke="#000000" stroke-width="1" stroke-opacity="0"></use></g></g><g><use xlink:href="#g159xwsBPJ" opacity="1" fill="#000000" fill-opacity="0"></use><g><use xlink:href="#g159xwsBPJ" opacity="1" fill-opacity="0" stroke="#000000" stroke-width="1" stroke-opacity="0"></use></g></g><g><use xlink:href="#f2jGBuFYeY" opacity="1" fill="#000000" fill-opacity="0"></use><g><use xlink:href="#f2jGBuFYeY" opacity="1" fill-opacity="0" stroke="#000000" stroke-width="1" stroke-opacity="0"></use></g></g><g><use xlink:href="#a1oSale0lt" opacity="1" fill="#ed5564" fill-opacity="1"></use><g><use xlink:href="#a1oSale0lt" opacity="1" fill-opacity="0" stroke="#000000" stroke-width="1" stroke-opacity="0"></use></g></g><g><use xlink:href="#b1Tq3FEK06" opacity="1" fill="#000000" fill-opacity="0"></use><g><use xlink:href="#b1Tq3FEK06" opacity="1" fill-opacity="0" stroke="#000000" stroke-width="1" stroke-opacity="0"></use></g></g><g><use xlink:href="#c2zhadTp0X" opacity="1" fill="#000000" fill-opacity="0"></use><g><use xlink:href="#c2zhadTp0X" opacity="1" fill-opacity="0" stroke="#000000" stroke-width="1" stroke-opacity="0"></use></g></g><g><use xlink:href="#i3swnDPhK" opacity="1" fill="#000000" fill-opacity="0"></use><g><use xlink:href="#i3swnDPhK" opacity="1" fill-opacity="0" stroke="#000000" stroke-width="1" stroke-opacity="0"></use></g></g><g><use xlink:href="#fDXR0U2FA" opacity="1" fill="#e6e9ed" fill-opacity="1"></use><g><use xlink:href="#fDXR0U2FA" opacity="1" fill-opacity="0" stroke="#000000" stroke-width="1" stroke-opacity="0"></use></g></g><g><use xlink:href="#f77t3rE8C1" opacity="1" fill="#000000" fill-opacity="0"></use><g><use xlink:href="#f77t3rE8C1" opacity="1" fill-opacity="0" stroke="#000000" stroke-width="1" stroke-opacity="0"></use></g></g><g><use xlink:href="#b3dOzNgUEn" opacity="1" fill="#000000" fill-opacity="0"></use><g><use xlink:href="#b3dOzNgUEn" opacity="1" fill-opacity="0" stroke="#000000" stroke-width="1" stroke-opacity="0"></use></g></g><g><use xlink:href="#bLzL5Q6a1" opacity="1" fill="#000000" fill-opacity="0"></use><g><use xlink:href="#bLzL5Q6a1" opacity="1" fill-opacity="0" stroke="#000000" stroke-width="1" stroke-opacity="0"></use></g></g><g><use xlink:href="#h2fY6H6uZ9" opacity="1" fill="#ccd1d9" fill-opacity="1"></use><g><use xlink:href="#h2fY6H6uZ9" opacity="1" fill-opacity="0" stroke="#000000" stroke-width="1" stroke-opacity="0"></use></g></g><g><use xlink:href="#dWgYXvvxH" opacity="1" fill="#000000" fill-opacity="0"></use><g><use xlink:href="#dWgYXvvxH" opacity="1" fill-opacity="0" stroke="#000000" stroke-width="1" stroke-opacity="0"></use></g></g><g><use xlink:href="#a4z1EfhFC" opacity="1" fill="#000000" fill-opacity="0"></use><g><use xlink:href="#a4z1EfhFC" opacity="1" fill-opacity="0" stroke="#000000" stroke-width="1" stroke-opacity="0"></use></g></g><g><use xlink:href="#a7cosGU8MM" opacity="1" fill="#000000" fill-opacity="0"></use><g><use xlink:href="#a7cosGU8MM" opacity="1" fill-opacity="0" stroke="#000000" stroke-width="1" stroke-opacity="0"></use></g></g><g><use xlink:href="#b2OVFqg4zv" opacity="1" fill="#7bc2d4" fill-opacity="1"></use><g><use xlink:href="#b2OVFqg4zv" opacity="1" fill-opacity="0" stroke="#000000" stroke-width="1" stroke-opacity="0"></use></g></g><g><use xlink:href="#c44oVPGOUS" opacity="1" fill="#000000" fill-opacity="0"></use><g><use xlink:href="#c44oVPGOUS" opacity="1" fill-opacity="0" stroke="#000000" stroke-width="1" stroke-opacity="0"></use></g></g><g><use xlink:href="#c5IbcSgA8N" opacity="1" fill="#000000" fill-opacity="0"></use><g><use xlink:href="#c5IbcSgA8N" opacity="1" fill-opacity="0" stroke="#000000" stroke-width="1" stroke-opacity="0"></use></g></g><g><use xlink:href="#c1WZO5RUH" opacity="1" fill="#000000" fill-opacity="0"></use><g><use xlink:href="#c1WZO5RUH" opacity="1" fill-opacity="0" stroke="#000000" stroke-width="1" stroke-opacity="0"></use></g></g><g><use xlink:href="#d6aFI1gSz" opacity="1" fill="#5697ee" fill-opacity="1"></use><g><use xlink:href="#d6aFI1gSz" opacity="1" fill-opacity="0" stroke="#000000" stroke-width="1" stroke-opacity="0"></use></g></g><g><use xlink:href="#aEu4WxAxb" opacity="1" fill="#000000" fill-opacity="0"></use><g><use xlink:href="#aEu4WxAxb" opacity="1" fill-opacity="0" stroke="#000000" stroke-width="1" stroke-opacity="0"></use></g></g><g><use xlink:href="#d3qJgl1rLT" opacity="1" fill="#000000" fill-opacity="0"></use><g><use xlink:href="#d3qJgl1rLT" opacity="1" fill-opacity="0" stroke="#000000" stroke-width="1" stroke-opacity="0"></use></g></g><g><use xlink:href="#bEGdB7P5" opacity="1" fill="#000000" fill-opacity="0"></use><g><use xlink:href="#bEGdB7P5" opacity="1" fill-opacity="0" stroke="#000000" stroke-width="1" stroke-opacity="0"></use></g></g><g><use xlink:href="#a2lXF9P9ZN" opacity="1" fill="#5697ee" fill-opacity="1"></use><g><use xlink:href="#a2lXF9P9ZN" opacity="1" fill-opacity="0" stroke="#000000" stroke-width="1" stroke-opacity="0"></use></g></g><g><use xlink:href="#j29WlSsy2" opacity="1" fill="#000000" fill-opacity="0"></use><g><use xlink:href="#j29WlSsy2" opacity="1" fill-opacity="0" stroke="#000000" stroke-width="1" stroke-opacity="0"></use></g></g><g><use xlink:href="#d1GlFHocQx" opacity="1" fill="#000000" fill-opacity="0"></use><g><use xlink:href="#d1GlFHocQx" opacity="1" fill-opacity="0" stroke="#000000" stroke-width="1" stroke-opacity="0"></use></g></g><g><use xlink:href="#ark1c7fw9" opacity="1" fill="#000000" fill-opacity="0"></use><g><use xlink:href="#ark1c7fw9" opacity="1" fill-opacity="0" stroke="#000000" stroke-width="1" stroke-opacity="0"></use></g></g><g><use xlink:href="#a160mf1Rn" opacity="1" fill="#5697ee" fill-opacity="1"></use><g><use xlink:href="#a160mf1Rn" opacity="1" fill-opacity="0" stroke="#000000" stroke-width="1" stroke-opacity="0"></use></g></g><g><use xlink:href="#hMQeQqtCR" opacity="1" fill="#000000" fill-opacity="0"></use><g><use xlink:href="#hMQeQqtCR" opacity="1" fill-opacity="0" stroke="#000000" stroke-width="1" stroke-opacity="0"></use></g></g><g><use xlink:href="#acK01tbiT" opacity="1" fill="#000000" fill-opacity="0"></use><g><use xlink:href="#acK01tbiT" opacity="1" fill-opacity="0" stroke="#000000" stroke-width="1" stroke-opacity="0"></use></g></g><g><use xlink:href="#bI0eQYcB" opacity="1" fill="#000000" fill-opacity="0"></use><g><use xlink:href="#bI0eQYcB" opacity="1" fill-opacity="0" stroke="#000000" stroke-width="1" stroke-opacity="0"></use></g></g><g><use xlink:href="#c1XqlN3mOA" opacity="1" fill="#5697ee" fill-opacity="1"></use><g><use xlink:href="#c1XqlN3mOA" opacity="1" fill-opacity="0" stroke="#000000" stroke-width="1" stroke-opacity="0"></use></g></g><g><use xlink:href="#ahJOzqpD2" opacity="1" fill="#000000" fill-opacity="0"></use><g><use xlink:href="#ahJOzqpD2" opacity="1" fill-opacity="0" stroke="#000000" stroke-width="1" stroke-opacity="0"></use></g></g><g><use xlink:href="#aYs8nlqWj" opacity="1" fill="#000000" fill-opacity="0"></use><g><use xlink:href="#aYs8nlqWj" opacity="1" fill-opacity="0" stroke="#000000" stroke-width="1" stroke-opacity="0"></use></g></g><g><use xlink:href="#b1lUjkdRA" opacity="1" fill="#000000" fill-opacity="0"></use><g><use xlink:href="#b1lUjkdRA" opacity="1" fill-opacity="0" stroke="#000000" stroke-width="1" stroke-opacity="0"></use></g></g><g><use xlink:href="#bEHGegEBR" opacity="1" fill="#5697ee" fill-opacity="1"></use><g><use xlink:href="#bEHGegEBR" opacity="1" fill-opacity="0" stroke="#000000" stroke-width="1" stroke-opacity="0"></use></g></g><g><use xlink:href="#acI1E14cT" opacity="1" fill="#000000" fill-opacity="0"></use><g><use xlink:href="#acI1E14cT" opacity="1" fill-opacity="0" stroke="#000000" stroke-width="1" stroke-opacity="0"></use></g></g><g><use xlink:href="#a2tIogJpNh" opacity="1" fill="#000000" fill-opacity="0"></use><g><use xlink:href="#a2tIogJpNh" opacity="1" fill-opacity="0" stroke="#000000" stroke-width="1" stroke-opacity="0"></use></g></g><g><use xlink:href="#aMTuVFZlW" opacity="1" fill="#000000" fill-opacity="0"></use><g><use xlink:href="#aMTuVFZlW" opacity="1" fill-opacity="0" stroke="#000000" stroke-width="1" stroke-opacity="0"></use></g></g><g><use xlink:href="#e3bjUjZN7t" opacity="1" fill="#f5f7fa" fill-opacity="1"></use><g><use xlink:href="#e3bjUjZN7t" opacity="1" fill-opacity="0" stroke="#000000" stroke-width="1" stroke-opacity="0"></use></g></g><g><use xlink:href="#i6sE7OuxK" opacity="1" fill="#000000" fill-opacity="0"></use><g><use xlink:href="#i6sE7OuxK" opacity="1" fill-opacity="0" stroke="#000000" stroke-width="1" stroke-opacity="0"></use></g></g><g><use xlink:href="#f4DGtMpsgr" opacity="1" fill="#000000" fill-opacity="0"></use><g><use xlink:href="#f4DGtMpsgr" opacity="1" fill-opacity="0" stroke="#000000" stroke-width="1" stroke-opacity="0"></use></g></g><g><use xlink:href="#a4MlvSLTR" opacity="1" fill="#000000" fill-opacity="0"></use><g><use xlink:href="#a4MlvSLTR" opacity="1" fill-opacity="0" stroke="#000000" stroke-width="1" stroke-opacity="0"></use></g></g><g><use xlink:href="#d1LPtnXIvn" opacity="1" fill="#f5f7fa" fill-opacity="1"></use><g><use xlink:href="#d1LPtnXIvn" opacity="1" fill-opacity="0" stroke="#000000" stroke-width="1" stroke-opacity="0"></use></g></g><g><use xlink:href="#b1IfNGJvNQ" opacity="1" fill="#000000" fill-opacity="0"></use><g><use xlink:href="#b1IfNGJvNQ" opacity="1" fill-opacity="0" stroke="#000000" stroke-width="1" stroke-opacity="0"></use></g></g><g><use xlink:href="#a8d3PCcKsm" opacity="1" fill="#000000" fill-opacity="0"></use><g><use xlink:href="#a8d3PCcKsm" opacity="1" fill-opacity="0" stroke="#000000" stroke-width="1" stroke-opacity="0"></use></g></g><g><use xlink:href="#d11Tw9h3AQ" opacity="1" fill="#000000" fill-opacity="0"></use><g><use xlink:href="#d11Tw9h3AQ" opacity="1" fill-opacity="0" stroke="#000000" stroke-width="1" stroke-opacity="0"></use></g></g><g><use xlink:href="#b2fwvznHIg" opacity="1" fill="#e6e9ed" fill-opacity="1"></use><g><use xlink:href="#b2fwvznHIg" opacity="1" fill-opacity="0" stroke="#000000" stroke-width="1" stroke-opacity="0"></use></g></g><g><use xlink:href="#a5mXe5ARF2" opacity="1" fill="#000000" fill-opacity="0"></use><g><use xlink:href="#a5mXe5ARF2" opacity="1" fill-opacity="0" stroke="#000000" stroke-width="1" stroke-opacity="0"></use></g></g><g><use xlink:href="#d9cRqVyIi" opacity="1" fill="#000000" fill-opacity="0"></use><g><use xlink:href="#d9cRqVyIi" opacity="1" fill-opacity="0" stroke="#000000" stroke-width="1" stroke-opacity="0"></use></g></g><g><use xlink:href="#a76UuxVdd0" opacity="1" fill="#000000" fill-opacity="0"></use><g><use xlink:href="#a76UuxVdd0" opacity="1" fill-opacity="0" stroke="#000000" stroke-width="1" stroke-opacity="0"></use></g></g><g><use xlink:href="#f1havAYiwn" opacity="1" fill="#5697ee" fill-opacity="1"></use><g><use xlink:href="#f1havAYiwn" opacity="1" fill-opacity="0" stroke="#000000" stroke-width="1" stroke-opacity="0"></use></g></g><g><use xlink:href="#a4KlHSMVb" opacity="1" fill="#000000" fill-opacity="0"></use><g><use xlink:href="#a4KlHSMVb" opacity="1" fill-opacity="0" stroke="#000000" stroke-width="1" stroke-opacity="0"></use></g></g><g><use xlink:href="#bx6tONt20" opacity="1" fill="#000000" fill-opacity="0"></use><g><use xlink:href="#bx6tONt20" opacity="1" fill-opacity="0" stroke="#000000" stroke-width="1" stroke-opacity="0"></use></g></g><g><use xlink:href="#b1jxCP4ZTf" opacity="1" fill="#000000" fill-opacity="0"></use><g><use xlink:href="#b1jxCP4ZTf" opacity="1" fill-opacity="0" stroke="#000000" stroke-width="1" stroke-opacity="0"></use></g></g><g><use xlink:href="#b2Usvtw97w" opacity="1" fill="#5697ee" fill-opacity="1"></use><g><use xlink:href="#b2Usvtw97w" opacity="1" fill-opacity="0" stroke="#000000" stroke-width="1" stroke-opacity="0"></use></g></g><g><use xlink:href="#c38EwqglX1" opacity="1" fill="#000000" fill-opacity="0"></use><g><use xlink:href="#c38EwqglX1" opacity="1" fill-opacity="0" stroke="#000000" stroke-width="1" stroke-opacity="0"></use></g></g><g><use xlink:href="#h6m1g773k5" opacity="1" fill="#000000" fill-opacity="0"></use><g><use xlink:href="#h6m1g773k5" opacity="1" fill-opacity="0" stroke="#000000" stroke-width="1" stroke-opacity="0"></use></g></g><g><use xlink:href="#aKpbQsIwB" opacity="1" fill="#000000" fill-opacity="0"></use><g><use xlink:href="#aKpbQsIwB" opacity="1" fill-opacity="0" stroke="#000000" stroke-width="1" stroke-opacity="0"></use></g></g><g><use xlink:href="#a5JkMcxBDk" opacity="1" fill="#5697ee" fill-opacity="1"></use><g><use xlink:href="#a5JkMcxBDk" opacity="1" fill-opacity="0" stroke="#000000" stroke-width="1" stroke-opacity="0"></use></g></g><g><use xlink:href="#a1WeG6DHHp" opacity="1" fill="#000000" fill-opacity="0"></use><g><use xlink:href="#a1WeG6DHHp" opacity="1" fill-opacity="0" stroke="#000000" stroke-width="1" stroke-opacity="0"></use></g></g><g><use xlink:href="#gzRDQ7uL" opacity="1" fill="#000000" fill-opacity="0"></use><g><use xlink:href="#gzRDQ7uL" opacity="1" fill-opacity="0" stroke="#000000" stroke-width="1" stroke-opacity="0"></use></g></g><g><use xlink:href="#cEZztjjXw" opacity="1" fill="#000000" fill-opacity="0"></use><g><use xlink:href="#cEZztjjXw" opacity="1" fill-opacity="0" stroke="#000000" stroke-width="1" stroke-opacity="0"></use></g></g><g><use xlink:href="#h68pHkGV8F" opacity="1" fill="#5697ee" fill-opacity="1"></use><g><use xlink:href="#h68pHkGV8F" opacity="1" fill-opacity="0" stroke="#000000" stroke-width="1" stroke-opacity="0"></use></g></g><g><use xlink:href="#b1GP1GyI8" opacity="1" fill="#000000" fill-opacity="0"></use><g><use xlink:href="#b1GP1GyI8" opacity="1" fill-opacity="0" stroke="#000000" stroke-width="1" stroke-opacity="0"></use></g></g><g><use xlink:href="#eb4AlCj6X" opacity="1" fill="#000000" fill-opacity="0"></use><g><use xlink:href="#eb4AlCj6X" opacity="1" fill-opacity="0" stroke="#000000" stroke-width="1" stroke-opacity="0"></use></g></g><g><use xlink:href="#fUK8upFTw" opacity="1" fill="#000000" fill-opacity="0"></use><g><use xlink:href="#fUK8upFTw" opacity="1" fill-opacity="0" stroke="#000000" stroke-width="1" stroke-opacity="0"></use></g></g><g><use xlink:href="#a4ieGGJYrc" opacity="1" fill="#434a54" fill-opacity="1"></use><g><use xlink:href="#a4ieGGJYrc" opacity="1" fill-opacity="0" stroke="#000000" stroke-width="1" stroke-opacity="0"></use></g></g><g><use xlink:href="#a10beSdP1x" opacity="1" fill="#000000" fill-opacity="0"></use><g><use xlink:href="#a10beSdP1x" opacity="1" fill-opacity="0" stroke="#000000" stroke-width="1" stroke-opacity="0"></use></g></g><g><use xlink:href="#caYXh1ycV" opacity="1" fill="#000000" fill-opacity="0"></use><g><use xlink:href="#caYXh1ycV" opacity="1" fill-opacity="0" stroke="#000000" stroke-width="1" stroke-opacity="0"></use></g></g><g><use xlink:href="#dmOd9c8K2" opacity="1" fill="#000000" fill-opacity="0"></use><g><use xlink:href="#dmOd9c8K2" opacity="1" fill-opacity="0" stroke="#000000" stroke-width="1" stroke-opacity="0"></use></g></g><g><use xlink:href="#i2hg5f2uNV" opacity="1" fill="#ed5564" fill-opacity="1"></use><g><use xlink:href="#i2hg5f2uNV" opacity="1" fill-opacity="0" stroke="#000000" stroke-width="1" stroke-opacity="0"></use></g></g><g><use xlink:href="#aI927QWO2" opacity="1" fill="#000000" fill-opacity="0"></use><g><use xlink:href="#aI927QWO2" opacity="1" fill-opacity="0" stroke="#000000" stroke-width="1" stroke-opacity="0"></use></g></g><g><use xlink:href="#c1bZKElbHN" opacity="1" fill="#000000" fill-opacity="0"></use><g><use xlink:href="#c1bZKElbHN" opacity="1" fill-opacity="0" stroke="#000000" stroke-width="1" stroke-opacity="0"></use></g></g><g><use xlink:href="#b7cD3iFDV" opacity="1" fill="#000000" fill-opacity="0"></use><g><use xlink:href="#b7cD3iFDV" opacity="1" fill-opacity="0" stroke="#000000" stroke-width="1" stroke-opacity="0"></use></g></g><g><use xlink:href="#mzRLEjy2W" opacity="1" fill="#ff6243" fill-opacity="1"></use><g><use xlink:href="#mzRLEjy2W" opacity="1" fill-opacity="0" stroke="#000000" stroke-width="1" stroke-opacity="0"></use></g></g><g><use xlink:href="#a1FNYmF9UM" opacity="1" fill="#000000" fill-opacity="0"></use><g><use xlink:href="#a1FNYmF9UM" opacity="1" fill-opacity="0" stroke="#000000" stroke-width="1" stroke-opacity="0"></use></g></g><g><use xlink:href="#c3Bo0AxZlF" opacity="1" fill="#2d2d30" fill-opacity="1"></use><g><use xlink:href="#c3Bo0AxZlF" opacity="1" fill-opacity="0" stroke="#000000" stroke-width="1" stroke-opacity="0"></use></g></g><g><use xlink:href="#b1CcyzInLY" opacity="1" fill="#000000" fill-opacity="0"></use><g><use xlink:href="#b1CcyzInLY" opacity="1" fill-opacity="0" stroke="#000000" stroke-width="1" stroke-opacity="0"></use></g></g><g><use xlink:href="#bjcAdW5b" opacity="1" fill="#000000" fill-opacity="0"></use><g><use xlink:href="#bjcAdW5b" opacity="1" fill-opacity="0" stroke="#000000" stroke-width="1" stroke-opacity="0"></use></g></g><g><use xlink:href="#aA9UcRZsC" opacity="1" fill="#000000" fill-opacity="0"></use><g><use xlink:href="#aA9UcRZsC" opacity="1" fill-opacity="0" stroke="#000000" stroke-width="1" stroke-opacity="0"></use></g></g><g><use xlink:href="#heomV1PVv" opacity="1" fill="#2d2d30" fill-opacity="1"></use><g><use xlink:href="#heomV1PVv" opacity="1" fill-opacity="0" stroke="#000000" stroke-width="1" stroke-opacity="0"></use></g></g><g><use xlink:href="#e2rJ90eV5Z" opacity="1" fill="#000000" fill-opacity="0"></use><g><use xlink:href="#e2rJ90eV5Z" opacity="1" fill-opacity="0" stroke="#000000" stroke-width="1" stroke-opacity="0"></use></g></g><g><use xlink:href="#a4nLeHHlJC" opacity="1" fill="#000000" fill-opacity="0"></use><g><use xlink:href="#a4nLeHHlJC" opacity="1" fill-opacity="0" stroke="#000000" stroke-width="1" stroke-opacity="0"></use></g></g><g><use xlink:href="#b4eZAoZsg" opacity="1" fill="#000000" fill-opacity="0"></use><g><use xlink:href="#b4eZAoZsg" opacity="1" fill-opacity="0" stroke="#000000" stroke-width="1" stroke-opacity="0"></use></g></g><g><use xlink:href="#bHsI7S5Xx" opacity="1" fill="#2d2d30" fill-opacity="1"></use><g><use xlink:href="#bHsI7S5Xx" opacity="1" fill-opacity="0" stroke="#000000" stroke-width="1" stroke-opacity="0"></use></g></g><g><use xlink:href="#i8qQVAR5my" opacity="1" fill="#000000" fill-opacity="0"></use><g><use xlink:href="#i8qQVAR5my" opacity="1" fill-opacity="0" stroke="#000000" stroke-width="1" stroke-opacity="0"></use></g></g><g><use xlink:href="#aHZSGRLP3" opacity="1" fill="#000000" fill-opacity="0"></use><g><use xlink:href="#aHZSGRLP3" opacity="1" fill-opacity="0" stroke="#000000" stroke-width="1" stroke-opacity="0"></use></g></g><g><use xlink:href="#b2nAbGwd1d" opacity="1" fill="#000000" fill-opacity="0"></use><g><use xlink:href="#b2nAbGwd1d" opacity="1" fill-opacity="0" stroke="#000000" stroke-width="1" stroke-opacity="0"></use></g></g><g><use xlink:href="#c2PjPXaXlU" opacity="1" fill="#2d2d30" fill-opacity="1"></use><g><use xlink:href="#c2PjPXaXlU" opacity="1" fill-opacity="0" stroke="#000000" stroke-width="1" stroke-opacity="0"></use></g></g><g><use xlink:href="#czFUwcak7" opacity="1" fill="#000000" fill-opacity="0"></use><g><use xlink:href="#czFUwcak7" opacity="1" fill-opacity="0" stroke="#000000" stroke-width="1" stroke-opacity="0"></use></g></g><g><use xlink:href="#a1lUF25eqq" opacity="1" fill="#000000" fill-opacity="0"></use><g><use xlink:href="#a1lUF25eqq" opacity="1" fill-opacity="0" stroke="#000000" stroke-width="1" stroke-opacity="0"></use></g></g><g><use xlink:href="#b46exNYmi" opacity="1" fill="#000000" fill-opacity="0"></use><g><use xlink:href="#b46exNYmi" opacity="1" fill-opacity="0" stroke="#000000" stroke-width="1" stroke-opacity="0"></use></g></g><g><use xlink:href="#b581vNPxu" opacity="1" fill="#2d2d30" fill-opacity="1"></use><g><use xlink:href="#b581vNPxu" opacity="1" fill-opacity="0" stroke="#000000" stroke-width="1" stroke-opacity="0"></use></g></g><g><use xlink:href="#b3mQ3I2LU" opacity="1" fill="#000000" fill-opacity="0"></use><g><use xlink:href="#b3mQ3I2LU" opacity="1" fill-opacity="0" stroke="#000000" stroke-width="1" stroke-opacity="0"></use></g></g><g><use xlink:href="#iO2NUruMr" opacity="1" fill="#000000" fill-opacity="0"></use><g><use xlink:href="#iO2NUruMr" opacity="1" fill-opacity="0" stroke="#000000" stroke-width="1" stroke-opacity="0"></use></g></g><g><use xlink:href="#b3WA2DBOt" opacity="1" fill="#000000" fill-opacity="0"></use><g><use xlink:href="#b3WA2DBOt" opacity="1" fill-opacity="0" stroke="#000000" stroke-width="1" stroke-opacity="0"></use></g></g><g><use xlink:href="#ewGCYwsQu" opacity="1" fill="#2d2d30" fill-opacity="1"></use><g><use xlink:href="#ewGCYwsQu" opacity="1" fill-opacity="0" stroke="#000000" stroke-width="1" stroke-opacity="0"></use></g></g><g><use xlink:href="#a1GxMRmXrH" opacity="1" fill="#000000" fill-opacity="0"></use><g><use xlink:href="#a1GxMRmXrH" opacity="1" fill-opacity="0" stroke="#000000" stroke-width="1" stroke-opacity="0"></use></g></g><g><use xlink:href="#b3aWucxbgz" opacity="1" fill="#000000" fill-opacity="0"></use><g><use xlink:href="#b3aWucxbgz" opacity="1" fill-opacity="0" stroke="#000000" stroke-width="1" stroke-opacity="0"></use></g></g><g><use xlink:href="#a5mD9uqlCM" opacity="1" fill="#000000" fill-opacity="0"></use><g><use xlink:href="#a5mD9uqlCM" opacity="1" fill-opacity="0" stroke="#000000" stroke-width="1" stroke-opacity="0"></use></g></g><g><use xlink:href="#adgykI7xv" opacity="1" fill="#2d2d30" fill-opacity="1"></use><g><use xlink:href="#adgykI7xv" opacity="1" fill-opacity="0" stroke="#000000" stroke-width="1" stroke-opacity="0"></use></g></g><g><use xlink:href="#guxfmuBz" opacity="1" fill="#000000" fill-opacity="0"></use><g><use xlink:href="#guxfmuBz" opacity="1" fill-opacity="0" stroke="#000000" stroke-width="1" stroke-opacity="0"></use></g></g><g><use xlink:href="#a1KfLJqgmq" opacity="1" fill="#000000" fill-opacity="0"></use><g><use xlink:href="#a1KfLJqgmq" opacity="1" fill-opacity="0" stroke="#000000" stroke-width="1" stroke-opacity="0"></use></g></g><g><use xlink:href="#b1z9g8gGDI" opacity="1" fill="#000000" fill-opacity="0"></use><g><use xlink:href="#b1z9g8gGDI" opacity="1" fill-opacity="0" stroke="#000000" stroke-width="1" stroke-opacity="0"></use></g></g><g><use xlink:href="#bNlLcxUN" opacity="1" fill="#2d2d30" fill-opacity="1"></use><g><use xlink:href="#bNlLcxUN" opacity="1" fill-opacity="0" stroke="#000000" stroke-width="1" stroke-opacity="0"></use></g></g><g><use xlink:href="#a6RDoh0gfX" opacity="1" fill="#000000" fill-opacity="0"></use><g><use xlink:href="#a6RDoh0gfX" opacity="1" fill-opacity="0" stroke="#000000" stroke-width="1" stroke-opacity="0"></use></g></g><g><use xlink:href="#c13Q51rr7v" opacity="1" fill="#000000" fill-opacity="0"></use><g><use xlink:href="#c13Q51rr7v" opacity="1" fill-opacity="0" stroke="#000000" stroke-width="1" stroke-opacity="0"></use></g></g><g><use xlink:href="#a1mYIDtNp" opacity="1" fill="#000000" fill-opacity="0"></use><g><use xlink:href="#a1mYIDtNp" opacity="1" fill-opacity="0" stroke="#000000" stroke-width="1" stroke-opacity="0"></use></g></g><g><use xlink:href="#a15oQNTCxp" opacity="1" fill="#e2c01a" fill-opacity="1"></use><g><use xlink:href="#a15oQNTCxp" opacity="1" fill-opacity="0" stroke="#000000" stroke-width="1" stroke-opacity="0"></use></g></g><g><use xlink:href="#a4nMHgFHhW" opacity="1" fill="#000000" fill-opacity="0"></use><g><use xlink:href="#a4nMHgFHhW" opacity="1" fill-opacity="0" stroke="#000000" stroke-width="1" stroke-opacity="0"></use></g></g><g><use xlink:href="#c59n3oKwV" opacity="1" fill="#d6b013" fill-opacity="1"></use><g><use xlink:href="#c59n3oKwV" opacity="1" fill-opacity="0" stroke="#000000" stroke-width="1" stroke-opacity="0"></use></g></g><g><use xlink:href="#bjRytNum6" opacity="1" fill="#000000" fill-opacity="0"></use><g><use xlink:href="#bjRytNum6" opacity="1" fill-opacity="0" stroke="#000000" stroke-width="1" stroke-opacity="0"></use></g></g><g><use xlink:href="#a5AmrLgjr" opacity="1" fill="#f2d422" fill-opacity="1"></use><g><use xlink:href="#a5AmrLgjr" opacity="1" fill-opacity="0" stroke="#000000" stroke-width="1" stroke-opacity="0"></use></g></g><g><use xlink:href="#b5DXVklnk" opacity="1" fill="#000000" fill-opacity="0"></use><g><use xlink:href="#b5DXVklnk" opacity="1" fill-opacity="0" stroke="#000000" stroke-width="1" stroke-opacity="0"></use></g></g><g><use xlink:href="#f3MlSvDWHD" opacity="1" fill="#e2c01a" fill-opacity="1"></use><g><use xlink:href="#f3MlSvDWHD" opacity="1" fill-opacity="0" stroke="#000000" stroke-width="1" stroke-opacity="0"></use></g></g><g><use xlink:href="#a2aejbfFJ" opacity="1" fill="#000000" fill-opacity="0"></use><g><use xlink:href="#a2aejbfFJ" opacity="1" fill-opacity="0" stroke="#000000" stroke-width="1" stroke-opacity="0"></use></g></g><g><use xlink:href="#baiWZR0U9" opacity="1" fill="#e2c01a" fill-opacity="1"></use><g><use xlink:href="#baiWZR0U9" opacity="1" fill-opacity="0" stroke="#000000" stroke-width="1" stroke-opacity="0"></use></g></g><g><use xlink:href="#a1vgvBHzkL" opacity="1" fill="#000000" fill-opacity="0"></use><g><use xlink:href="#a1vgvBHzkL" opacity="1" fill-opacity="0" stroke="#000000" stroke-width="1" stroke-opacity="0"></use></g></g><g><use xlink:href="#c2qkkSeSGi" opacity="1" fill="#585a60" fill-opacity="1"></use><g><use xlink:href="#c2qkkSeSGi" opacity="1" fill-opacity="0" stroke="#000000" stroke-width="1" stroke-opacity="0"></use></g></g><g><use xlink:href="#b2gelv1uAm" opacity="1" fill="#000000" fill-opacity="0"></use><g><use xlink:href="#b2gelv1uAm" opacity="1" fill-opacity="0" stroke="#000000" stroke-width="1" stroke-opacity="0"></use></g></g><g><use xlink:href="#a13kJaeyts" opacity="1" fill="#d6b013" fill-opacity="1"></use><g><use xlink:href="#a13kJaeyts" opacity="1" fill-opacity="0" stroke="#000000" stroke-width="1" stroke-opacity="0"></use></g></g><g><use xlink:href="#a2cSFdscK" opacity="1" fill="#000000" fill-opacity="0"></use><g><use xlink:href="#a2cSFdscK" opacity="1" fill-opacity="0" stroke="#000000" stroke-width="1" stroke-opacity="0"></use></g></g><g><use xlink:href="#g5l4oLU8B" opacity="1" fill="#e2c01a" fill-opacity="1"></use><g><use xlink:href="#g5l4oLU8B" opacity="1" fill-opacity="0" stroke="#000000" stroke-width="1" stroke-opacity="0"></use></g></g><g><use xlink:href="#bzoLDpeqD" opacity="1" fill="#000000" fill-opacity="0"></use><g><use xlink:href="#bzoLDpeqD" opacity="1" fill-opacity="0" stroke="#000000" stroke-width="1" stroke-opacity="0"></use></g></g><g><use xlink:href="#e3CartQdrX" opacity="1" fill="#d6b013" fill-opacity="1"></use><g><use xlink:href="#e3CartQdrX" opacity="1" fill-opacity="0" stroke="#000000" stroke-width="1" stroke-opacity="0"></use></g></g><g><use xlink:href="#d1kyU6Nq6f" opacity="1" fill="#000000" fill-opacity="0"></use><g><use xlink:href="#d1kyU6Nq6f" opacity="1" fill-opacity="0" stroke="#000000" stroke-width="1" stroke-opacity="0"></use></g></g><g><use xlink:href="#a10OYik03i" opacity="1" fill="#d6b013" fill-opacity="1"></use><g><use xlink:href="#a10OYik03i" opacity="1" fill-opacity="0" stroke="#000000" stroke-width="1" stroke-opacity="0"></use></g></g><g><use xlink:href="#jrTBFjUww" opacity="1" fill="#000000" fill-opacity="0"></use><g><use xlink:href="#jrTBFjUww" opacity="1" fill-opacity="0" stroke="#000000" stroke-width="1" stroke-opacity="0"></use></g></g><g><use xlink:href="#bgYwCAswR" opacity="1" fill="#cca70e" fill-opacity="1"></use><g><use xlink:href="#bgYwCAswR" opacity="1" fill-opacity="0" stroke="#000000" stroke-width="1" stroke-opacity="0"></use></g></g><g><use xlink:href="#c6LXfHiu5g" opacity="1" fill="#000000" fill-opacity="0"></use><g><use xlink:href="#c6LXfHiu5g" opacity="1" fill-opacity="0" stroke="#000000" stroke-width="1" stroke-opacity="0"></use></g></g><g><use xlink:href="#arKvnyW77" opacity="1" fill="#585a60" fill-opacity="1"></use><g><use xlink:href="#arKvnyW77" opacity="1" fill-opacity="0" stroke="#000000" stroke-width="1" stroke-opacity="0"></use></g></g><g><use xlink:href="#c2M6IP6DIK" opacity="1" fill="#000000" fill-opacity="0"></use><g><use xlink:href="#c2M6IP6DIK" opacity="1" fill-opacity="0" stroke="#000000" stroke-width="1" stroke-opacity="0"></use></g></g><g><use xlink:href="#bY5OnXvlS" opacity="1" fill="#d13834" fill-opacity="1"></use><g><use xlink:href="#bY5OnXvlS" opacity="1" fill-opacity="0" stroke="#000000" stroke-width="1" stroke-opacity="0"></use></g></g><g><use xlink:href="#a3QCpHKVmd" opacity="1" fill="#f75b57" fill-opacity="1"></use><g><use xlink:href="#a3QCpHKVmd" opacity="1" fill-opacity="0" stroke="#000000" stroke-width="1" stroke-opacity="0"></use></g></g><g><use xlink:href="#a5pjEepTZ9" opacity="1" fill="#4c312c" fill-opacity="1"></use><g><use xlink:href="#a5pjEepTZ9" opacity="1" fill-opacity="0" stroke="#000000" stroke-width="1" stroke-opacity="0"></use></g></g><g><use xlink:href="#mkA5fCi3E" opacity="1" fill="#994530" fill-opacity="1"></use><g><use xlink:href="#mkA5fCi3E" opacity="1" fill-opacity="0" stroke="#000000" stroke-width="1" stroke-opacity="0"></use></g></g><g><use xlink:href="#b1EwXZZavn" opacity="1" fill="#659c35" fill-opacity="1"></use><g><use xlink:href="#b1EwXZZavn" opacity="1" fill-opacity="0" stroke="#000000" stroke-width="1" stroke-opacity="0"></use></g></g></g></g></svg>