<?xml version="1.0" encoding="UTF-8" standalone="no"?>
<!DOCTYPE svg PUBLIC "-//W3C//DTD SVG 1.1//EN" "http://www.w3.org/Graphics/SVG/1.1/DTD/svg11.dtd">
<svg version="1.1" xmlns="http://www.w3.org/2000/svg" xmlns:xlink="http://www.w3.org/1999/xlink" preserveAspectRatio="xMidYMid meet" viewBox="0 0 640 640" width="1000" height="1000"><defs><path d="M371.15 105.76C371.15 270.23 324.5 416.32 319.2 432.4C319.2 436.58 319.2 469.98 319.2 474.15C319.2 479.41 314.61 483.68 308.94 483.68C295.22 483.68 185.49 483.68 171.77 483.68C166.1 483.68 161.51 479.41 161.51 474.15C161.51 469.98 161.51 436.58 161.51 432.4C156.2 416.32 109.56 270.23 109.56 105.76C109.56 100.5 114.15 96.24 119.81 96.24C168.03 96.24 336.78 96.24 360.9 96.24C366.56 96.24 371.15 100.5 371.15 105.76Z" id="b2AzyS4dIW"></path><path d="M371.15 105.76C371.15 270.23 324.5 416.32 319.2 432.4C319.2 436.58 319.2 469.98 319.2 474.15C319.2 479.41 314.61 483.68 308.94 483.68C295.22 483.68 185.49 483.68 171.77 483.68C166.1 483.68 161.51 479.41 161.51 474.15C161.51 469.98 161.51 436.58 161.51 432.4C156.2 416.32 109.56 270.23 109.56 105.76C109.56 100.5 114.15 96.24 119.81 96.24C168.03 96.24 336.78 96.24 360.9 96.24C366.56 96.24 371.15 100.5 371.15 105.76Z" id="cksF7VH2b"></path><path d="M129.47 105.76C129.47 100.5 134.06 96.24 139.72 96.24C137.74 96.24 121.8 96.24 119.81 96.24C114.15 96.24 109.56 100.5 109.56 105.76C109.56 270.23 156.2 416.32 161.51 432.4C161.51 436.58 161.51 469.98 161.51 474.15C161.51 479.41 166.1 483.68 171.77 483.68C173.75 483.68 189.68 483.68 191.68 483.68C186.01 483.68 181.42 479.41 181.42 474.15C181.42 465.8 181.42 436.58 181.42 432.4C176.12 416.32 129.47 270.23 129.47 105.76Z" id="h1RWRKpsm"></path><path d="M129.47 105.76C129.47 100.5 134.06 96.24 139.72 96.24C137.74 96.24 121.8 96.24 119.81 96.24C114.15 96.24 109.56 100.5 109.56 105.76C109.56 270.23 156.2 416.32 161.51 432.4C161.51 436.58 161.51 469.98 161.51 474.15C161.51 479.41 166.1 483.68 171.77 483.68C173.75 483.68 189.68 483.68 191.68 483.68C186.01 483.68 181.42 479.41 181.42 474.15C181.42 465.8 181.42 436.58 181.42 432.4C176.12 416.32 129.47 270.23 129.47 105.76Z" id="a12A633Axy"></path><path d="M161.48 432.4C177.25 432.4 303.39 432.4 319.16 432.4C323.27 419.95 352.14 329.59 364.98 213.12C328.56 219.28 276.93 222.27 235.54 202.3C190.16 180.42 142.62 186.12 113.66 193.33C125.19 319.24 157.14 419.26 161.48 432.4Z" id="a60D98jxZm"></path><path d="M161.48 432.4C177.25 432.4 303.39 432.4 319.16 432.4C323.27 419.95 352.14 329.59 364.98 213.12C328.56 219.28 276.93 222.27 235.54 202.3C190.16 180.42 142.62 186.12 113.66 193.33C125.19 319.24 157.14 419.26 161.48 432.4Z" id="d9S41AHDy"></path><path d="M181.42 432.4C177.04 419.12 144.46 317.14 133.25 189.38C126.1 190.49 119.51 191.87 113.69 193.32C125.22 319.23 157.17 419.25 161.51 432.4C163.51 432.4 179.44 432.4 181.42 432.4Z" id="a4Pe8pvFXV"></path><path d="M181.42 432.4C177.04 419.12 144.46 317.14 133.25 189.38C126.1 190.49 119.51 191.87 113.69 193.32C125.22 319.23 157.17 419.25 161.51 432.4C163.51 432.4 179.44 432.4 181.42 432.4Z" id="b1bT78oS0y"></path><path d="M336.7 22.88C337.33 19.2 340.99 16.65 344.97 17.09C351.77 17.86 406.2 23.98 413 24.75C417.09 25.21 420.01 28.67 419.52 32.47C419.02 36.27 415.3 38.98 411.21 38.52C407.14 38.06 386.85 35.78 350.31 31.67C311.78 255.34 290.38 379.59 286.1 404.45C285.45 408.23 281.61 410.81 277.54 410.2C273.47 409.6 270.7 406.04 271.35 402.26C277.89 364.32 330.16 60.82 336.7 22.88Z" id="fwnbfLDtl"></path><path d="M336.7 22.88C337.33 19.2 340.99 16.65 344.97 17.09C351.77 17.86 406.2 23.98 413 24.75C417.09 25.21 420.01 28.67 419.52 32.47C419.02 36.27 415.3 38.98 411.21 38.52C407.14 38.06 386.85 35.78 350.31 31.67C311.78 255.34 290.38 379.59 286.1 404.45C285.45 408.23 281.61 410.81 277.54 410.2C273.47 409.6 270.7 406.04 271.35 402.26C277.89 364.32 330.16 60.82 336.7 22.88Z" id="d2oaXYNxuG"></path><path d="M62.48 406.26C62.7 443.13 103.39 490.94 146.16 482.76C153.82 481.29 161.86 481.29 169.52 482.76C212.29 490.94 252.98 443.13 253.2 406.26C253.64 334.28 215.98 330.66 171 340.1C162.36 341.91 153.32 341.91 144.69 340.1C99.71 330.66 62.04 334.27 62.48 406.26Z" id="b1OjhZYfji"></path><path d="M62.48 406.26C62.7 443.13 103.39 490.94 146.16 482.76C153.82 481.29 161.86 481.29 169.52 482.76C212.29 490.94 252.98 443.13 253.2 406.26C253.64 334.28 215.98 330.66 171 340.1C162.36 341.91 153.32 341.91 144.69 340.1C99.71 330.66 62.04 334.27 62.48 406.26Z" id="e1pobRved"></path><path d="M116.85 348.83C119.15 348.83 121.03 350.42 121.03 352.38C121.03 354.34 119.15 355.93 116.85 355.93C100.7 355.93 87.57 368.67 87.57 384.32C87.57 386.27 85.7 387.86 83.38 387.86C81.08 387.86 79.2 386.27 79.2 384.32C79.2 364.75 96.09 348.83 116.85 348.83Z" id="d1dhIL1VYy"></path><path d="M116.85 348.83C119.15 348.83 121.03 350.42 121.03 352.38C121.03 354.34 119.15 355.93 116.85 355.93C100.7 355.93 87.57 368.67 87.57 384.32C87.57 386.27 85.7 387.86 83.38 387.86C81.08 387.86 79.2 386.27 79.2 384.32C79.2 364.75 96.09 348.83 116.85 348.83Z" id="h2GeDjlqlh"></path><path d="M128.6 308.35C126.57 307.43 125.79 305.28 126.88 303.55C127.97 301.82 130.49 301.16 132.54 302.08C153.09 311.39 161.09 332.87 161.72 349.87C161.8 351.83 159.99 353.47 157.68 353.53C157.63 353.53 157.59 353.53 157.54 353.53C155.3 353.53 153.44 352.02 153.37 350.09C152.8 335.08 146.01 316.23 128.6 308.35Z" id="b1kW5qrTf4"></path><path d="M128.6 308.35C126.57 307.43 125.79 305.28 126.88 303.55C127.97 301.82 130.49 301.16 132.54 302.08C153.09 311.39 161.09 332.87 161.72 349.87C161.8 351.83 159.99 353.47 157.68 353.53C157.63 353.53 157.59 353.53 157.54 353.53C155.3 353.53 153.44 352.02 153.37 350.09C152.8 335.08 146.01 316.23 128.6 308.35Z" id="f7QeguDFaH"></path><path d="M138.56 354.72C140.19 353.33 142.84 353.33 144.48 354.72C147.87 357.6 152.38 359.19 157.17 359.19C161.96 359.19 166.47 357.6 169.86 354.72C171.49 353.33 174.14 353.33 175.77 354.72C177.41 356.1 177.41 358.35 175.77 359.73C170.8 363.96 164.2 366.28 157.17 366.28C150.14 366.28 143.53 363.96 138.56 359.73C136.93 358.35 136.93 356.1 138.56 354.72Z" id="g2MUl2vlu5"></path><path d="M138.56 354.72C140.19 353.33 142.84 353.33 144.48 354.72C147.87 357.6 152.38 359.19 157.17 359.19C161.96 359.19 166.47 357.6 169.86 354.72C171.49 353.33 174.14 353.33 175.77 354.72C177.41 356.1 177.41 358.35 175.77 359.73C170.8 363.96 164.2 366.28 157.17 366.28C150.14 366.28 143.53 363.96 138.56 359.73C136.93 358.35 136.93 356.1 138.56 354.72Z" id="b5frPJdwL5"></path><path d="M190.98 284.72C192.12 284.58 197.81 283.85 208.06 282.56C206.53 291.26 205.69 296.1 205.51 297.06C202.82 312.37 188.66 324.39 170.61 326.68C169.47 326.82 163.77 327.54 153.52 328.83C155.05 320.14 155.9 315.3 156.07 314.34C158.77 299.02 172.93 287 190.98 284.72Z" id="hCSOXBh31"></path><path d="M190.98 284.72C192.12 284.58 197.81 283.85 208.06 282.56C206.53 291.26 205.69 296.1 205.51 297.06C202.82 312.37 188.66 324.39 170.61 326.68C169.47 326.82 163.77 327.54 153.52 328.83C155.05 320.14 155.9 315.3 156.07 314.34C158.77 299.02 172.93 287 190.98 284.72Z" id="bLLHUIPrw"></path></defs><g><g><g><use xlink:href="#b2AzyS4dIW" opacity="1" fill="#e0f7fc" fill-opacity="1"></use><g><use xlink:href="#b2AzyS4dIW" opacity="1" fill-opacity="0" stroke="#000000" stroke-width="1" stroke-opacity="0"></use></g></g><g><use xlink:href="#cksF7VH2b" opacity="1" fill="#000000" fill-opacity="0"></use><g><use xlink:href="#cksF7VH2b" opacity="1" fill-opacity="0" stroke="#000000" stroke-width="1" stroke-opacity="0"></use></g></g><g><use xlink:href="#h1RWRKpsm" opacity="1" fill="#beedf4" fill-opacity="1"></use><g><use xlink:href="#h1RWRKpsm" opacity="1" fill-opacity="0" stroke="#000000" stroke-width="1" stroke-opacity="0"></use></g></g><g><use xlink:href="#a12A633Axy" opacity="1" fill="#000000" fill-opacity="0"></use><g><use xlink:href="#a12A633Axy" opacity="1" fill-opacity="0" stroke="#000000" stroke-width="1" stroke-opacity="0"></use></g></g><g><use xlink:href="#a60D98jxZm" opacity="1" fill="#f2aa5c" fill-opacity="1"></use><g><use xlink:href="#a60D98jxZm" opacity="1" fill-opacity="0" stroke="#000000" stroke-width="1" stroke-opacity="0"></use></g></g><g><use xlink:href="#d9S41AHDy" opacity="1" fill="#000000" fill-opacity="0"></use><g><use xlink:href="#d9S41AHDy" opacity="1" fill-opacity="0" stroke="#000000" stroke-width="1" stroke-opacity="0"></use></g></g><g><use xlink:href="#a4Pe8pvFXV" opacity="1" fill="#e2984d" fill-opacity="1"></use><g><use xlink:href="#a4Pe8pvFXV" opacity="1" fill-opacity="0" stroke="#000000" stroke-width="1" stroke-opacity="0"></use></g></g><g><use xlink:href="#b1bT78oS0y" opacity="1" fill="#000000" fill-opacity="0"></use><g><use xlink:href="#b1bT78oS0y" opacity="1" fill-opacity="0" stroke="#000000" stroke-width="1" stroke-opacity="0"></use></g></g><g><use xlink:href="#fwnbfLDtl" opacity="1" fill="#ea473b" fill-opacity="1"></use><g><use xlink:href="#fwnbfLDtl" opacity="1" fill-opacity="0" stroke="#000000" stroke-width="1" stroke-opacity="0"></use></g></g><g><use xlink:href="#d2oaXYNxuG" opacity="1" fill="#000000" fill-opacity="0"></use><g><use xlink:href="#d2oaXYNxuG" opacity="1" fill-opacity="0" stroke="#000000" stroke-width="1" stroke-opacity="0"></use></g></g><g><use xlink:href="#b1OjhZYfji" opacity="1" fill="#d13834" fill-opacity="1"></use><g><use xlink:href="#b1OjhZYfji" opacity="1" fill-opacity="0" stroke="#000000" stroke-width="1" stroke-opacity="0"></use></g></g><g><use xlink:href="#e1pobRved" opacity="1" fill="#000000" fill-opacity="0"></use><g><use xlink:href="#e1pobRved" opacity="1" fill-opacity="0" stroke="#000000" stroke-width="1" stroke-opacity="0"></use></g></g><g><use xlink:href="#d1dhIL1VYy" opacity="1" fill="#f75b57" fill-opacity="1"></use><g><use xlink:href="#d1dhIL1VYy" opacity="1" fill-opacity="0" stroke="#000000" stroke-width="1" stroke-opacity="0"></use></g></g><g><use xlink:href="#h2GeDjlqlh" opacity="1" fill="#000000" fill-opacity="0"></use><g><use xlink:href="#h2GeDjlqlh" opacity="1" fill-opacity="0" stroke="#000000" stroke-width="1" stroke-opacity="0"></use></g></g><g><use xlink:href="#b1kW5qrTf4" opacity="1" fill="#4c312c" fill-opacity="1"></use><g><use xlink:href="#b1kW5qrTf4" opacity="1" fill-opacity="0" stroke="#000000" stroke-width="1" stroke-opacity="0"></use></g></g><g><use xlink:href="#f7QeguDFaH" opacity="1" fill="#000000" fill-opacity="0"></use><g><use xlink:href="#f7QeguDFaH" opacity="1" fill-opacity="0" stroke="#000000" stroke-width="1" stroke-opacity="0"></use></g></g><g><use xlink:href="#g2MUl2vlu5" opacity="1" fill="#994530" fill-opacity="1"></use><g><use xlink:href="#g2MUl2vlu5" opacity="1" fill-opacity="0" stroke="#000000" stroke-width="1" stroke-opacity="0"></use></g></g><g><use xlink:href="#b5frPJdwL5" opacity="1" fill="#000000" fill-opacity="0"></use><g><use xlink:href="#b5frPJdwL5" opacity="1" fill-opacity="0" stroke="#000000" stroke-width="1" stroke-opacity="0"></use></g></g><g><use xlink:href="#hCSOXBh31" opacity="1" fill="#659c35" fill-opacity="1"></use><g><use xlink:href="#hCSOXBh31" opacity="1" fill-opacity="0" stroke="#000000" stroke-width="1" stroke-opacity="0"></use></g></g><g><use xlink:href="#bLLHUIPrw" opacity="1" fill="#000000" fill-opacity="0"></use><g><use xlink:href="#bLLHUIPrw" opacity="1" fill-opacity="0" stroke="#000000" stroke-width="1" stroke-opacity="0"></use></g></g></g></g></svg>