<?xml version="1.0" encoding="UTF-8" standalone="no"?>
<!DOCTYPE svg PUBLIC "-//W3C//DTD SVG 1.1//EN" "http://www.w3.org/Graphics/SVG/1.1/DTD/svg11.dtd">
<svg version="1.1" xmlns="http://www.w3.org/2000/svg" xmlns:xlink="http://www.w3.org/1999/xlink" preserveAspectRatio="xMidYMid meet" viewBox="0 0 640 640" width="640" height="640"><defs><path d="M386.67 156.32C373.63 339.15 366.39 440.72 364.94 461.03C364.74 463.53 364.34 465.99 363.76 468.37C360.27 482.78 350.09 494.87 336.12 500.68C323.85 505.79 306.8 510.42 283.82 512C278.26 512 233.74 512 228.17 512C205.19 510.42 188.15 505.79 175.87 500.68C159.59 493.91 148.46 478.61 147.06 461.03C145.62 440.77 138.39 339.47 125.39 157.13L116.38 30.91L395.62 30.91L395.62 30.91L386.67 156.32Z" id="b2jJ4EyY8W"></path><path d="M386.67 156.32C373.63 339.15 366.39 440.72 364.94 461.03C364.74 463.53 364.34 465.99 363.76 468.37C363.48 468.5 363.21 468.62 362.92 468.74C350.64 473.84 333.6 478.48 310.62 480.05C305.05 480.05 260.53 480.05 254.97 480.05C231.99 478.48 214.94 473.84 202.67 468.74C186.39 461.97 175.26 446.66 173.85 429.08C172.41 408.82 165.19 307.52 152.18 125.18L145.45 30.91L395.62 30.91L395.62 30.91L386.67 156.32Z" id="a4tg9PXr8T"></path><path d="M383.99 43.27C362.44 54.19 313.25 61.81 256 61.81C198.75 61.81 149.56 54.19 128.01 43.27C120.53 39.48 116.38 35.31 116.38 30.91C116.38 13.84 178.9 0 256 0C333.1 0 395.62 13.84 395.62 30.91C395.62 35.31 391.47 39.48 383.99 43.27Z" id="e2kOO7mupQ"></path><path d="M364.94 461.03C364.63 464.85 363.87 468.57 362.69 472.12C358.46 484.87 348.86 495.39 336.12 500.68C323.85 505.79 306.8 510.42 283.82 512C278.26 512 233.74 512 228.17 512C205.19 510.42 188.15 505.79 175.87 500.68C159.59 493.91 148.46 478.61 147.06 461.03C144.89 430.64 127.56 187.52 125.39 157.13C125.42 156.95 125.44 156.86 125.44 156.86C125.44 149.3 136.91 142.37 155.97 137C179.93 130.25 215.88 125.95 256.07 125.95C327.46 125.95 385.47 139.5 386.67 156.32C382.33 217.26 367.11 430.56 364.94 461.03Z" id="d10rqCjKQy"></path><path d="M386.69 156.86C386.69 173.93 328.21 187.76 256.07 187.76C183.93 187.76 125.45 173.93 125.45 156.86C125.45 139.79 183.93 125.95 256.07 125.95C328.21 125.95 386.69 139.79 386.69 156.86Z" id="a2nztbxu14"></path><path d="M363.76 468.37C363.45 469.63 363.1 470.89 362.69 472.12C358.46 484.87 348.86 495.39 336.12 500.68C323.85 505.79 306.81 510.42 283.82 512C278.26 512 233.74 512 228.18 512C205.19 510.42 188.15 505.79 175.88 500.68C159.59 493.91 148.46 478.61 147.06 461.03C144.89 430.64 127.56 187.52 125.39 157.13C125.42 156.95 125.44 156.86 125.44 156.86C125.44 149.7 135.77 143.08 153.09 137.83C155.17 166.96 171.78 399.96 173.86 429.08C175.26 446.66 186.39 461.97 202.67 468.74C214.94 473.84 231.99 478.48 254.97 480.05C260.53 480.05 305.05 480.05 310.62 480.05C333.6 478.48 350.64 473.84 362.92 468.74C363.21 468.63 363.49 468.5 363.76 468.37Z" id="g2Qv2lkzdO"></path><path d="M136.98 144.14C136.77 144.25 136.55 144.37 136.35 144.47C136.08 144.63 135.81 144.77 135.55 144.91C135.24 145.09 134.94 145.26 134.65 145.44C134.32 145.64 133.99 145.83 133.69 146.03C131.88 147.17 130.36 148.35 129.13 149.54C129.02 149.65 128.89 149.77 128.79 149.88C128.44 150.24 128.11 150.6 127.82 150.96C127.65 151.18 127.48 151.39 127.33 151.6C127.17 151.82 127.03 152.04 126.89 152.24C126.75 152.46 126.62 152.67 126.51 152.89C126.39 153.11 126.28 153.32 126.18 153.55C126.1 153.73 126.03 153.91 125.95 154.09C125.85 154.36 125.76 154.65 125.7 154.93C125.64 155.13 125.59 155.32 125.56 155.52C125.52 155.75 125.49 155.96 125.47 156.18C125.47 156.18 125.47 156.21 125.47 156.21C125.45 156.43 125.44 156.64 125.44 156.86C125.44 164.4 136.87 171.32 155.86 176.69C155.68 174.09 154.75 161.14 153.09 137.83C145.22 140.53 139.86 142.63 136.98 144.14Z" id="b2bUexVMJJ"></path><path d="M256 61.81C198.75 61.81 149.56 54.19 128.01 43.27C149.56 32.36 198.75 24.73 256 24.73C313.25 24.73 362.44 32.36 383.99 43.27C362.44 54.19 313.25 61.81 256 61.81Z" id="a31vXakGmP"></path><path d="M243.43 148.29C243.28 148.3 243.18 148.31 243.15 148.31C243.04 148.31 242.94 148.34 242.86 148.37C242.79 148.4 242.72 148.45 242.71 148.5C242.71 148.51 242.69 148.55 242.67 148.62C242.47 149.26 241.78 152.2 245.49 153.84C248 154.94 251.85 155.16 254.54 155.16C255.85 155.16 256.88 155.1 257.35 155.08C257.5 155.07 257.58 155.06 257.61 155.06C257.72 155.05 257.83 155.02 257.9 154.99C257.98 154.96 258.03 154.91 258.05 154.87C258.05 154.85 258.07 154.81 258.09 154.75C258.28 154.12 258.99 151.17 255.27 149.53C251.56 147.9 244.86 148.2 243.43 148.29Z" id="b3SWKIt7UU"></path><path d="M257.61 155.06C257.58 155.06 257.5 155.07 257.35 155.08C256.88 155.1 255.85 155.16 254.54 155.16C251.85 155.16 248 154.94 245.49 153.84C241.78 152.2 242.47 149.26 242.67 148.62C242.69 148.55 242.71 148.51 242.71 148.5C242.72 148.45 242.79 148.4 242.86 148.37C243.87 148.81 248.88 151.02 257.9 154.99C257.78 155.03 257.69 155.05 257.61 155.06Z" id="dUttplwSj"></path><path d="M255.23 153.58C255.23 153.65 255.17 153.7 255.08 153.75C254.98 153.79 254.85 153.82 254.7 153.82C254.17 153.82 249.91 153.82 249.38 153.82C249.08 153.82 248.85 153.71 248.85 153.58C248.85 153.45 249.08 153.35 249.38 153.35C249.7 153.35 251.3 153.35 254.17 153.35C254.17 152.08 254.17 151.38 254.17 151.24C254.17 151.11 254.4 151.01 254.7 151.01C255 151.01 255.23 151.11 255.23 151.24C255.23 151.71 255.23 153.35 255.23 153.58Z" id="a1FVIEMWjo"></path><path d="M254.7 153.82C254.17 153.82 249.91 153.82 249.38 153.82C249.08 153.82 248.85 153.71 248.85 153.58C248.85 153.45 249.08 153.35 249.38 153.35C249.7 153.35 251.3 153.35 254.17 153.35L255.08 153.75C254.93 153.79 254.8 153.82 254.7 153.82Z" id="aLPCqLdev"></path><path d="M252.04 152.18C252.04 152.24 251.98 152.3 251.89 152.35C251.79 152.38 251.66 152.41 251.51 152.41C250.97 152.41 246.66 152.41 246.12 152.41C245.83 152.41 245.59 152.31 245.59 152.18C245.59 152.05 245.83 151.94 246.12 151.94C246.44 151.94 248.06 151.94 250.98 151.94C250.98 150.66 250.98 149.95 250.98 149.8C250.98 149.68 251.21 149.57 251.51 149.57C251.81 149.57 252.04 149.68 252.04 149.8C252.04 150.28 252.04 151.94 252.04 152.18Z" id="a1pADEhwIM"></path><path d="M251.51 152.41C250.97 152.41 246.66 152.41 246.12 152.41C245.83 152.41 245.59 152.31 245.59 152.18C245.59 152.05 245.83 151.94 246.12 151.94C246.44 151.94 248.06 151.94 250.98 151.94L251.89 152.35C251.74 152.39 251.61 152.41 251.51 152.41Z" id="b1jjnIWjYU"></path><path d="M248.85 150.77C248.85 150.84 248.79 150.89 248.7 150.94C248.6 150.98 248.47 151.01 248.32 151.01C248.02 151.01 245.59 151.01 245.29 151.01C244.99 151.01 244.76 150.9 244.76 150.77C244.76 150.64 244.99 150.54 245.29 150.54C245.45 150.54 246.29 150.54 247.79 150.54C247.79 149.88 247.79 149.51 247.79 149.44C247.79 149.31 248.02 149.2 248.32 149.2C248.62 149.2 248.85 149.31 248.85 149.44C248.85 149.71 248.85 150.64 248.85 150.77Z" id="a4tAKgb9mw"></path><path d="M248.32 151.01C248.02 151.01 245.59 151.01 245.29 151.01C244.99 151.01 244.76 150.9 244.76 150.77C244.76 150.64 244.99 150.54 245.29 150.54C245.45 150.54 246.29 150.54 247.79 150.54L248.7 150.94C248.55 150.99 248.42 151.01 248.32 151.01Z" id="cWINaiEkp"></path><path d="M259.73 156.13C256.68 154.78 259.41 155.98 242.67 148.62C242.67 148.61 242.71 148.51 242.71 148.5C242.72 148.45 242.78 148.4 242.86 148.37C242.94 148.33 243.04 148.31 243.15 148.31C243.17 148.31 243.41 148.29 243.43 148.29C260.15 155.66 257.44 154.46 260.48 155.8C260.69 155.89 260.69 156.04 260.48 156.13C260.28 156.22 259.94 156.22 259.73 156.13Z" id="aqxo8BEWA"></path><path d="M259.73 156.13C256.68 154.78 259.41 155.98 242.67 148.62C242.67 148.61 242.71 148.51 242.71 148.5C242.72 148.45 242.78 148.4 242.86 148.37C244.04 148.89 249.91 151.47 260.48 156.13C260.12 156.19 259.87 156.19 259.73 156.13Z" id="ee51g7rbB"></path><path d="M309.43 158.29C309.28 158.3 309.18 158.31 309.15 158.31C309.04 158.31 308.94 158.34 308.86 158.37C308.79 158.4 308.72 158.45 308.71 158.5C308.71 158.51 308.69 158.55 308.67 158.62C308.47 159.26 307.78 162.2 311.49 163.84C314 164.94 317.85 165.16 320.54 165.16C321.85 165.16 322.88 165.1 323.35 165.08C323.5 165.07 323.58 165.06 323.61 165.06C323.72 165.05 323.83 165.02 323.9 164.99C323.98 164.96 324.03 164.91 324.05 164.87C324.05 164.85 324.07 164.81 324.09 164.75C324.28 164.12 324.99 161.17 321.27 159.53C317.56 157.9 310.86 158.2 309.43 158.29Z" id="cBNG7GCBY"></path><path d="M323.61 165.06C323.58 165.06 323.5 165.07 323.35 165.08C322.88 165.1 321.85 165.16 320.54 165.16C317.85 165.16 314 164.94 311.49 163.84C307.78 162.2 308.47 159.26 308.67 158.62C308.69 158.55 308.71 158.51 308.71 158.5C308.72 158.45 308.79 158.4 308.86 158.37C309.87 158.81 314.88 161.02 323.9 164.99C323.78 165.03 323.69 165.05 323.61 165.06Z" id="dtozUpivo"></path><path d="M321.23 163.58C321.23 163.65 321.17 163.7 321.08 163.75C320.98 163.79 320.85 163.82 320.7 163.82C320.17 163.82 315.91 163.82 315.38 163.82C315.08 163.82 314.85 163.71 314.85 163.58C314.85 163.45 315.08 163.35 315.38 163.35C315.7 163.35 317.3 163.35 320.17 163.35C320.17 162.08 320.17 161.38 320.17 161.24C320.17 161.11 320.4 161.01 320.7 161.01C321 161.01 321.23 161.11 321.23 161.24C321.23 161.71 321.23 163.35 321.23 163.58Z" id="a9HhbZZ8D"></path><path d="M320.7 163.82C320.17 163.82 315.91 163.82 315.38 163.82C315.08 163.82 314.85 163.71 314.85 163.58C314.85 163.45 315.08 163.35 315.38 163.35C315.7 163.35 317.3 163.35 320.17 163.35L321.08 163.75C320.93 163.79 320.8 163.82 320.7 163.82Z" id="bXlQvKDbU"></path><path d="M318.04 162.18C318.04 162.24 317.98 162.3 317.89 162.35C317.79 162.38 317.66 162.41 317.51 162.41C316.97 162.41 312.66 162.41 312.12 162.41C311.83 162.41 311.59 162.31 311.59 162.18C311.59 162.05 311.83 161.94 312.12 161.94C312.44 161.94 314.06 161.94 316.98 161.94C316.98 160.66 316.98 159.95 316.98 159.8C316.98 159.68 317.21 159.57 317.51 159.57C317.81 159.57 318.04 159.68 318.04 159.8C318.04 160.28 318.04 161.94 318.04 162.18Z" id="eZVZ32fkz"></path><path d="M317.51 162.41C316.97 162.41 312.66 162.41 312.12 162.41C311.83 162.41 311.59 162.31 311.59 162.18C311.59 162.05 311.83 161.94 312.12 161.94C312.44 161.94 314.06 161.94 316.98 161.94L317.89 162.35C317.74 162.39 317.61 162.41 317.51 162.41Z" id="c1f3ehMbAv"></path><path d="M314.85 160.77C314.85 160.84 314.79 160.89 314.7 160.94C314.6 160.98 314.47 161.01 314.32 161.01C314.02 161.01 311.59 161.01 311.29 161.01C310.99 161.01 310.76 160.9 310.76 160.77C310.76 160.64 310.99 160.54 311.29 160.54C311.45 160.54 312.29 160.54 313.79 160.54C313.79 159.88 313.79 159.51 313.79 159.44C313.79 159.31 314.02 159.2 314.32 159.2C314.62 159.2 314.85 159.31 314.85 159.44C314.85 159.71 314.85 160.64 314.85 160.77Z" id="cqMpGykL1"></path><path d="M314.32 161.01C314.02 161.01 311.59 161.01 311.29 161.01C310.99 161.01 310.76 160.9 310.76 160.77C310.76 160.64 310.99 160.54 311.29 160.54C311.45 160.54 312.29 160.54 313.79 160.54L314.7 160.94C314.55 160.99 314.42 161.01 314.32 161.01Z" id="h1B9eExNmx"></path><path d="M325.73 166.13C322.68 164.78 325.41 165.98 308.67 158.62C308.67 158.61 308.71 158.51 308.71 158.5C308.72 158.45 308.78 158.4 308.86 158.37C308.94 158.33 309.04 158.31 309.15 158.31C309.17 158.31 309.41 158.29 309.43 158.29C326.15 165.66 323.44 164.46 326.48 165.8C326.69 165.89 326.69 166.04 326.48 166.13C326.28 166.22 325.94 166.22 325.73 166.13Z" id="eIZMpYiP"></path><path d="M325.73 166.13C322.68 164.78 325.41 165.98 308.67 158.62C308.67 158.61 308.71 158.51 308.71 158.5C308.72 158.45 308.78 158.4 308.86 158.37C310.04 158.89 315.91 161.47 326.48 166.13C326.12 166.19 325.87 166.19 325.73 166.13Z" id="cEWjAUifj"></path><path d="M186.43 149.29C186.28 149.3 186.18 149.31 186.15 149.31C186.04 149.31 185.94 149.34 185.86 149.37C185.79 149.4 185.72 149.45 185.71 149.5C185.71 149.51 185.69 149.55 185.67 149.62C185.47 150.26 184.78 153.2 188.49 154.84C191 155.94 194.85 156.16 197.54 156.16C198.85 156.16 199.88 156.1 200.35 156.08C200.5 156.07 200.58 156.06 200.61 156.06C200.72 156.05 200.83 156.02 200.9 155.99C200.98 155.96 201.03 155.91 201.05 155.87C201.05 155.85 201.07 155.81 201.09 155.75C201.28 155.12 201.99 152.17 198.27 150.53C194.56 148.9 187.86 149.2 186.43 149.29Z" id="di6wXg9l5"></path><path d="M200.61 156.06C200.58 156.06 200.5 156.07 200.35 156.08C199.88 156.1 198.85 156.16 197.54 156.16C194.85 156.16 191 155.94 188.49 154.84C184.78 153.2 185.47 150.26 185.67 149.62C185.69 149.55 185.71 149.51 185.71 149.5C185.72 149.45 185.79 149.4 185.86 149.37C186.87 149.81 191.88 152.02 200.9 155.99C200.78 156.03 200.69 156.05 200.61 156.06Z" id="axJ1XGtnf"></path><path d="M198.23 154.58C198.23 154.65 198.17 154.7 198.08 154.75C197.98 154.79 197.85 154.82 197.7 154.82C197.17 154.82 192.91 154.82 192.38 154.82C192.08 154.82 191.85 154.71 191.85 154.58C191.85 154.45 192.08 154.35 192.38 154.35C192.7 154.35 194.3 154.35 197.17 154.35C197.17 153.08 197.17 152.38 197.17 152.24C197.17 152.11 197.4 152.01 197.7 152.01C198 152.01 198.23 152.11 198.23 152.24C198.23 152.71 198.23 154.35 198.23 154.58Z" id="d1Nv3M9WjY"></path><path d="M197.7 154.82C197.17 154.82 192.91 154.82 192.38 154.82C192.08 154.82 191.85 154.71 191.85 154.58C191.85 154.45 192.08 154.35 192.38 154.35C192.7 154.35 194.3 154.35 197.17 154.35L198.08 154.75C197.93 154.79 197.8 154.82 197.7 154.82Z" id="h4Xz08w7bA"></path><path d="M195.04 153.18C195.04 153.24 194.98 153.3 194.89 153.35C194.79 153.38 194.66 153.41 194.51 153.41C193.97 153.41 189.66 153.41 189.12 153.41C188.83 153.41 188.59 153.31 188.59 153.18C188.59 153.05 188.83 152.94 189.12 152.94C189.44 152.94 191.06 152.94 193.98 152.94C193.98 151.66 193.98 150.95 193.98 150.8C193.98 150.68 194.21 150.57 194.51 150.57C194.81 150.57 195.04 150.68 195.04 150.8C195.04 151.28 195.04 152.94 195.04 153.18Z" id="b1AAD1Tm0y"></path><path d="M194.51 153.41C193.97 153.41 189.66 153.41 189.12 153.41C188.83 153.41 188.59 153.31 188.59 153.18C188.59 153.05 188.83 152.94 189.12 152.94C189.44 152.94 191.06 152.94 193.98 152.94L194.89 153.35C194.74 153.39 194.61 153.41 194.51 153.41Z" id="d7dkAaVwkr"></path><path d="M191.85 151.77C191.85 151.84 191.79 151.89 191.7 151.94C191.6 151.98 191.47 152.01 191.32 152.01C191.02 152.01 188.59 152.01 188.29 152.01C187.99 152.01 187.76 151.9 187.76 151.77C187.76 151.64 187.99 151.54 188.29 151.54C188.45 151.54 189.29 151.54 190.79 151.54C190.79 150.88 190.79 150.51 190.79 150.44C190.79 150.31 191.02 150.2 191.32 150.2C191.62 150.2 191.85 150.31 191.85 150.44C191.85 150.71 191.85 151.64 191.85 151.77Z" id="c4TqJd5TOY"></path><path d="M191.32 152.01C191.02 152.01 188.59 152.01 188.29 152.01C187.99 152.01 187.76 151.9 187.76 151.77C187.76 151.64 187.99 151.54 188.29 151.54C188.45 151.54 189.29 151.54 190.79 151.54L191.7 151.94C191.55 151.99 191.42 152.01 191.32 152.01Z" id="bE5IxNez3"></path><path d="M202.73 157.13C199.68 155.78 202.41 156.98 185.67 149.62C185.67 149.61 185.71 149.51 185.71 149.5C185.72 149.45 185.78 149.4 185.86 149.37C185.94 149.33 186.04 149.31 186.15 149.31C186.17 149.31 186.41 149.29 186.43 149.29C203.15 156.66 200.44 155.46 203.48 156.8C203.69 156.89 203.69 157.04 203.48 157.13C203.28 157.22 202.94 157.22 202.73 157.13Z" id="a2ncdBIat8"></path><path d="M202.73 157.13C199.68 155.78 202.41 156.98 185.67 149.62C185.67 149.61 185.71 149.51 185.71 149.5C185.72 149.45 185.78 149.4 185.86 149.37C187.04 149.89 192.91 152.47 203.48 157.13C203.12 157.19 202.87 157.19 202.73 157.13Z" id="cuFdjm3gO"></path><path d="M274.43 140.29C274.28 140.3 274.18 140.31 274.15 140.31C274.04 140.31 273.94 140.34 273.86 140.37C273.79 140.4 273.72 140.45 273.71 140.5C273.71 140.51 273.69 140.55 273.67 140.62C273.47 141.26 272.78 144.2 276.49 145.84C279 146.94 282.85 147.16 285.54 147.16C286.85 147.16 287.88 147.1 288.35 147.08C288.5 147.07 288.58 147.06 288.61 147.06C288.72 147.05 288.83 147.02 288.9 146.99C288.98 146.96 289.03 146.91 289.05 146.87C289.05 146.85 289.07 146.81 289.09 146.75C289.28 146.12 289.99 143.17 286.27 141.53C282.56 139.9 275.86 140.2 274.43 140.29Z" id="cUo7gBnAR"></path><path d="M288.61 147.06C288.58 147.06 288.5 147.07 288.35 147.08C287.88 147.1 286.85 147.16 285.54 147.16C282.85 147.16 279 146.94 276.49 145.84C272.78 144.2 273.47 141.26 273.67 140.62C273.69 140.55 273.71 140.51 273.71 140.5C273.72 140.45 273.79 140.4 273.86 140.37C274.87 140.81 279.88 143.02 288.9 146.99C288.78 147.03 288.69 147.05 288.61 147.06Z" id="c6nz3QYH5"></path><path d="M286.23 145.58C286.23 145.65 286.17 145.7 286.08 145.75C285.98 145.79 285.85 145.82 285.7 145.82C285.17 145.82 280.91 145.82 280.38 145.82C280.08 145.82 279.85 145.71 279.85 145.58C279.85 145.45 280.08 145.35 280.38 145.35C280.7 145.35 282.3 145.35 285.17 145.35C285.17 144.08 285.17 143.38 285.17 143.24C285.17 143.11 285.4 143.01 285.7 143.01C286 143.01 286.23 143.11 286.23 143.24C286.23 143.71 286.23 145.35 286.23 145.58Z" id="b3ENVroD6"></path><path d="M285.7 145.82C285.17 145.82 280.91 145.82 280.38 145.82C280.08 145.82 279.85 145.71 279.85 145.58C279.85 145.45 280.08 145.35 280.38 145.35C280.7 145.35 282.3 145.35 285.17 145.35L286.08 145.75C285.93 145.79 285.8 145.82 285.7 145.82Z" id="d4q2wZmNTj"></path><path d="M283.04 144.18C283.04 144.24 282.98 144.3 282.89 144.35C282.79 144.38 282.66 144.41 282.51 144.41C281.97 144.41 277.66 144.41 277.12 144.41C276.83 144.41 276.59 144.31 276.59 144.18C276.59 144.05 276.83 143.94 277.12 143.94C277.44 143.94 279.06 143.94 281.98 143.94C281.98 142.66 281.98 141.95 281.98 141.8C281.98 141.68 282.21 141.57 282.51 141.57C282.81 141.57 283.04 141.68 283.04 141.8C283.04 142.28 283.04 143.94 283.04 144.18Z" id="b4aGnIOEJx"></path><path d="M282.51 144.41C281.97 144.41 277.66 144.41 277.12 144.41C276.83 144.41 276.59 144.31 276.59 144.18C276.59 144.05 276.83 143.94 277.12 143.94C277.44 143.94 279.06 143.94 281.98 143.94L282.89 144.35C282.74 144.39 282.61 144.41 282.51 144.41Z" id="a7M6haX4Z"></path><path d="M279.85 142.77C279.85 142.84 279.79 142.89 279.7 142.94C279.6 142.98 279.47 143.01 279.32 143.01C279.02 143.01 276.59 143.01 276.29 143.01C275.99 143.01 275.76 142.9 275.76 142.77C275.76 142.64 275.99 142.54 276.29 142.54C276.45 142.54 277.29 142.54 278.79 142.54C278.79 141.88 278.79 141.51 278.79 141.44C278.79 141.31 279.02 141.2 279.32 141.2C279.62 141.2 279.85 141.31 279.85 141.44C279.85 141.71 279.85 142.64 279.85 142.77Z" id="ccTENgLE0"></path><path d="M279.32 143.01C279.02 143.01 276.59 143.01 276.29 143.01C275.99 143.01 275.76 142.9 275.76 142.77C275.76 142.64 275.99 142.54 276.29 142.54C276.45 142.54 277.29 142.54 278.79 142.54L279.7 142.94C279.55 142.99 279.42 143.01 279.32 143.01Z" id="d367nlv2YX"></path><path d="M290.73 148.13C287.68 146.78 290.41 147.98 273.67 140.62C273.67 140.61 273.71 140.51 273.71 140.5C273.72 140.45 273.78 140.4 273.86 140.37C273.94 140.33 274.04 140.31 274.15 140.31C274.17 140.31 274.41 140.29 274.43 140.29C291.15 147.66 288.44 146.46 291.48 147.8C291.69 147.89 291.69 148.04 291.48 148.13C291.28 148.22 290.94 148.22 290.73 148.13Z" id="b30ArHMEax"></path><path d="M290.73 148.13C287.68 146.78 290.41 147.98 273.67 140.62C273.67 140.61 273.71 140.51 273.71 140.5C273.72 140.45 273.78 140.4 273.86 140.37C275.04 140.89 280.91 143.47 291.48 148.13C291.12 148.19 290.87 148.19 290.73 148.13Z" id="b11KFwaegZ"></path><path d="M168 159.46C168 160.23 168.92 160.86 170.05 160.86C171.17 160.86 172.09 160.23 172.09 159.46C172.09 158.68 171.17 158.05 170.05 158.05C168.92 158.05 168 158.68 168 159.46Z" id="asdxO4R52"></path><path d="M231 169.46C231 170.23 231.92 170.86 233.05 170.86C234.17 170.86 235.09 170.23 235.09 169.46C235.09 168.68 234.17 168.05 233.05 168.05C231.92 168.05 231 168.68 231 169.46Z" id="b26NUyXh8Q"></path><path d="M336 153.46C336 154.23 336.92 154.86 338.05 154.86C339.17 154.86 340.09 154.23 340.09 153.46C340.09 152.68 339.17 152.05 338.05 152.05C336.92 152.05 336 152.68 336 153.46Z" id="b49TkX8UBp"></path></defs><g><g><path></path><path></path><g><use xlink:href="#b2jJ4EyY8W" opacity="1" fill="#b3d8f4" fill-opacity="1"></use><g><use xlink:href="#b2jJ4EyY8W" opacity="1" fill-opacity="0" stroke="#000000" stroke-width="1" stroke-opacity="0"></use></g></g><g><use xlink:href="#a4tg9PXr8T" opacity="1" fill="#d1e7f8" fill-opacity="1"></use><g><use xlink:href="#a4tg9PXr8T" opacity="1" fill-opacity="0" stroke="#000000" stroke-width="1" stroke-opacity="0"></use></g></g><g><use xlink:href="#e2kOO7mupQ" opacity="1" fill="#78b9eb" fill-opacity="1"></use><g><use xlink:href="#e2kOO7mupQ" opacity="1" fill-opacity="0" stroke="#000000" stroke-width="1" stroke-opacity="0"></use></g></g><g><use xlink:href="#d10rqCjKQy" opacity="1" fill="#f3f0eb" fill-opacity="1"></use><g><use xlink:href="#d10rqCjKQy" opacity="1" fill-opacity="0" stroke="#000000" stroke-width="1" stroke-opacity="0"></use></g></g><g><use xlink:href="#a2nztbxu14" opacity="1" fill="#dcd8d3" fill-opacity="1"></use><g><use xlink:href="#a2nztbxu14" opacity="1" fill-opacity="0" stroke="#000000" stroke-width="1" stroke-opacity="0"></use></g></g><g><use xlink:href="#g2Qv2lkzdO" opacity="1" fill="#f0eeea" fill-opacity="1"></use><g><use xlink:href="#g2Qv2lkzdO" opacity="1" fill-opacity="0" stroke="#000000" stroke-width="1" stroke-opacity="0"></use></g></g><g><use xlink:href="#b2bUexVMJJ" opacity="1" fill="#dcd8d3" fill-opacity="1"></use><g><use xlink:href="#b2bUexVMJJ" opacity="1" fill-opacity="0" stroke="#000000" stroke-width="1" stroke-opacity="0"></use></g></g><g><use xlink:href="#a31vXakGmP" opacity="1" fill="#96c8ef" fill-opacity="1"></use><g><use xlink:href="#a31vXakGmP" opacity="1" fill-opacity="0" stroke="#000000" stroke-width="1" stroke-opacity="0"></use></g></g><g><use xlink:href="#b3SWKIt7UU" opacity="1" fill="#7bcc29" fill-opacity="1"></use><g><use xlink:href="#b3SWKIt7UU" opacity="1" fill-opacity="0" stroke="#000000" stroke-width="1" stroke-opacity="0"></use></g></g><g><use xlink:href="#dUttplwSj" opacity="1" fill="#6eb825" fill-opacity="1"></use><g><use xlink:href="#dUttplwSj" opacity="1" fill-opacity="0" stroke="#000000" stroke-width="1" stroke-opacity="0"></use></g></g><g><use xlink:href="#a1FVIEMWjo" opacity="1" fill="#66bd21" fill-opacity="1"></use><g><use xlink:href="#a1FVIEMWjo" opacity="1" fill-opacity="0" stroke="#000000" stroke-width="1" stroke-opacity="0"></use></g></g><g><use xlink:href="#aLPCqLdev" opacity="1" fill="#5dad1d" fill-opacity="1"></use><g><use xlink:href="#aLPCqLdev" opacity="1" fill-opacity="0" stroke="#000000" stroke-width="1" stroke-opacity="0"></use></g></g><g><use xlink:href="#a1pADEhwIM" opacity="1" fill="#66bd21" fill-opacity="1"></use><g><use xlink:href="#a1pADEhwIM" opacity="1" fill-opacity="0" stroke="#000000" stroke-width="1" stroke-opacity="0"></use></g></g><g><use xlink:href="#b1jjnIWjYU" opacity="1" fill="#5dad1d" fill-opacity="1"></use><g><use xlink:href="#b1jjnIWjYU" opacity="1" fill-opacity="0" stroke="#000000" stroke-width="1" stroke-opacity="0"></use></g></g><g><use xlink:href="#a4tAKgb9mw" opacity="1" fill="#66bd21" fill-opacity="1"></use><g><use xlink:href="#a4tAKgb9mw" opacity="1" fill-opacity="0" stroke="#000000" stroke-width="1" stroke-opacity="0"></use></g></g><g><use xlink:href="#cWINaiEkp" opacity="1" fill="#5dad1d" fill-opacity="1"></use><g><use xlink:href="#cWINaiEkp" opacity="1" fill-opacity="0" stroke="#000000" stroke-width="1" stroke-opacity="0"></use></g></g><g><use xlink:href="#aqxo8BEWA" opacity="1" fill="#66bd21" fill-opacity="1"></use><g><use xlink:href="#aqxo8BEWA" opacity="1" fill-opacity="0" stroke="#000000" stroke-width="1" stroke-opacity="0"></use></g></g><g><use xlink:href="#ee51g7rbB" opacity="1" fill="#5dad1d" fill-opacity="1"></use><g><use xlink:href="#ee51g7rbB" opacity="1" fill-opacity="0" stroke="#000000" stroke-width="1" stroke-opacity="0"></use></g></g><g><use xlink:href="#cBNG7GCBY" opacity="1" fill="#7bcc29" fill-opacity="1"></use><g><use xlink:href="#cBNG7GCBY" opacity="1" fill-opacity="0" stroke="#000000" stroke-width="1" stroke-opacity="0"></use></g></g><g><use xlink:href="#dtozUpivo" opacity="1" fill="#6eb825" fill-opacity="1"></use><g><use xlink:href="#dtozUpivo" opacity="1" fill-opacity="0" stroke="#000000" stroke-width="1" stroke-opacity="0"></use></g></g><g><use xlink:href="#a9HhbZZ8D" opacity="1" fill="#66bd21" fill-opacity="1"></use><g><use xlink:href="#a9HhbZZ8D" opacity="1" fill-opacity="0" stroke="#000000" stroke-width="1" stroke-opacity="0"></use></g></g><g><use xlink:href="#bXlQvKDbU" opacity="1" fill="#5dad1d" fill-opacity="1"></use><g><use xlink:href="#bXlQvKDbU" opacity="1" fill-opacity="0" stroke="#000000" stroke-width="1" stroke-opacity="0"></use></g></g><g><use xlink:href="#eZVZ32fkz" opacity="1" fill="#66bd21" fill-opacity="1"></use><g><use xlink:href="#eZVZ32fkz" opacity="1" fill-opacity="0" stroke="#000000" stroke-width="1" stroke-opacity="0"></use></g></g><g><use xlink:href="#c1f3ehMbAv" opacity="1" fill="#5dad1d" fill-opacity="1"></use><g><use xlink:href="#c1f3ehMbAv" opacity="1" fill-opacity="0" stroke="#000000" stroke-width="1" stroke-opacity="0"></use></g></g><g><use xlink:href="#cqMpGykL1" opacity="1" fill="#66bd21" fill-opacity="1"></use><g><use xlink:href="#cqMpGykL1" opacity="1" fill-opacity="0" stroke="#000000" stroke-width="1" stroke-opacity="0"></use></g></g><g><use xlink:href="#h1B9eExNmx" opacity="1" fill="#5dad1d" fill-opacity="1"></use><g><use xlink:href="#h1B9eExNmx" opacity="1" fill-opacity="0" stroke="#000000" stroke-width="1" stroke-opacity="0"></use></g></g><g><use xlink:href="#eIZMpYiP" opacity="1" fill="#66bd21" fill-opacity="1"></use><g><use xlink:href="#eIZMpYiP" opacity="1" fill-opacity="0" stroke="#000000" stroke-width="1" stroke-opacity="0"></use></g></g><g><use xlink:href="#cEWjAUifj" opacity="1" fill="#5dad1d" fill-opacity="1"></use><g><use xlink:href="#cEWjAUifj" opacity="1" fill-opacity="0" stroke="#000000" stroke-width="1" stroke-opacity="0"></use></g></g><g><use xlink:href="#di6wXg9l5" opacity="1" fill="#7bcc29" fill-opacity="1"></use><g><use xlink:href="#di6wXg9l5" opacity="1" fill-opacity="0" stroke="#000000" stroke-width="1" stroke-opacity="0"></use></g></g><g><use xlink:href="#axJ1XGtnf" opacity="1" fill="#6eb825" fill-opacity="1"></use><g><use xlink:href="#axJ1XGtnf" opacity="1" fill-opacity="0" stroke="#000000" stroke-width="1" stroke-opacity="0"></use></g></g><g><use xlink:href="#d1Nv3M9WjY" opacity="1" fill="#66bd21" fill-opacity="1"></use><g><use xlink:href="#d1Nv3M9WjY" opacity="1" fill-opacity="0" stroke="#000000" stroke-width="1" stroke-opacity="0"></use></g></g><g><use xlink:href="#h4Xz08w7bA" opacity="1" fill="#5dad1d" fill-opacity="1"></use><g><use xlink:href="#h4Xz08w7bA" opacity="1" fill-opacity="0" stroke="#000000" stroke-width="1" stroke-opacity="0"></use></g></g><g><use xlink:href="#b1AAD1Tm0y" opacity="1" fill="#66bd21" fill-opacity="1"></use><g><use xlink:href="#b1AAD1Tm0y" opacity="1" fill-opacity="0" stroke="#000000" stroke-width="1" stroke-opacity="0"></use></g></g><g><use xlink:href="#d7dkAaVwkr" opacity="1" fill="#5dad1d" fill-opacity="1"></use><g><use xlink:href="#d7dkAaVwkr" opacity="1" fill-opacity="0" stroke="#000000" stroke-width="1" stroke-opacity="0"></use></g></g><g><use xlink:href="#c4TqJd5TOY" opacity="1" fill="#66bd21" fill-opacity="1"></use><g><use xlink:href="#c4TqJd5TOY" opacity="1" fill-opacity="0" stroke="#000000" stroke-width="1" stroke-opacity="0"></use></g></g><g><use xlink:href="#bE5IxNez3" opacity="1" fill="#5dad1d" fill-opacity="1"></use><g><use xlink:href="#bE5IxNez3" opacity="1" fill-opacity="0" stroke="#000000" stroke-width="1" stroke-opacity="0"></use></g></g><g><use xlink:href="#a2ncdBIat8" opacity="1" fill="#66bd21" fill-opacity="1"></use><g><use xlink:href="#a2ncdBIat8" opacity="1" fill-opacity="0" stroke="#000000" stroke-width="1" stroke-opacity="0"></use></g></g><g><use xlink:href="#cuFdjm3gO" opacity="1" fill="#5dad1d" fill-opacity="1"></use><g><use xlink:href="#cuFdjm3gO" opacity="1" fill-opacity="0" stroke="#000000" stroke-width="1" stroke-opacity="0"></use></g></g><g><use xlink:href="#cUo7gBnAR" opacity="1" fill="#7bcc29" fill-opacity="1"></use><g><use xlink:href="#cUo7gBnAR" opacity="1" fill-opacity="0" stroke="#000000" stroke-width="1" stroke-opacity="0"></use></g></g><g><use xlink:href="#c6nz3QYH5" opacity="1" fill="#6eb825" fill-opacity="1"></use><g><use xlink:href="#c6nz3QYH5" opacity="1" fill-opacity="0" stroke="#000000" stroke-width="1" stroke-opacity="0"></use></g></g><g><use xlink:href="#b3ENVroD6" opacity="1" fill="#66bd21" fill-opacity="1"></use><g><use xlink:href="#b3ENVroD6" opacity="1" fill-opacity="0" stroke="#000000" stroke-width="1" stroke-opacity="0"></use></g></g><g><use xlink:href="#d4q2wZmNTj" opacity="1" fill="#5dad1d" fill-opacity="1"></use><g><use xlink:href="#d4q2wZmNTj" opacity="1" fill-opacity="0" stroke="#000000" stroke-width="1" stroke-opacity="0"></use></g></g><g><use xlink:href="#b4aGnIOEJx" opacity="1" fill="#66bd21" fill-opacity="1"></use><g><use xlink:href="#b4aGnIOEJx" opacity="1" fill-opacity="0" stroke="#000000" stroke-width="1" stroke-opacity="0"></use></g></g><g><use xlink:href="#a7M6haX4Z" opacity="1" fill="#5dad1d" fill-opacity="1"></use><g><use xlink:href="#a7M6haX4Z" opacity="1" fill-opacity="0" stroke="#000000" stroke-width="1" stroke-opacity="0"></use></g></g><g><use xlink:href="#ccTENgLE0" opacity="1" fill="#66bd21" fill-opacity="1"></use><g><use xlink:href="#ccTENgLE0" opacity="1" fill-opacity="0" stroke="#000000" stroke-width="1" stroke-opacity="0"></use></g></g><g><use xlink:href="#d367nlv2YX" opacity="1" fill="#5dad1d" fill-opacity="1"></use><g><use xlink:href="#d367nlv2YX" opacity="1" fill-opacity="0" stroke="#000000" stroke-width="1" stroke-opacity="0"></use></g></g><g><use xlink:href="#b30ArHMEax" opacity="1" fill="#66bd21" fill-opacity="1"></use><g><use xlink:href="#b30ArHMEax" opacity="1" fill-opacity="0" stroke="#000000" stroke-width="1" stroke-opacity="0"></use></g></g><g><use xlink:href="#b11KFwaegZ" opacity="1" fill="#5dad1d" fill-opacity="1"></use><g><use xlink:href="#b11KFwaegZ" opacity="1" fill-opacity="0" stroke="#000000" stroke-width="1" stroke-opacity="0"></use></g></g><g><use xlink:href="#asdxO4R52" opacity="1" fill="#000000" fill-opacity="1"></use><g><use xlink:href="#asdxO4R52" opacity="1" fill-opacity="0" stroke="#000000" stroke-width="1" stroke-opacity="0"></use></g></g><g><use xlink:href="#b26NUyXh8Q" opacity="1" fill="#000000" fill-opacity="1"></use><g><use xlink:href="#b26NUyXh8Q" opacity="1" fill-opacity="0" stroke="#000000" stroke-width="1" stroke-opacity="0"></use></g></g><g><use xlink:href="#b49TkX8UBp" opacity="1" fill="#000000" fill-opacity="1"></use><g><use xlink:href="#b49TkX8UBp" opacity="1" fill-opacity="0" stroke="#000000" stroke-width="1" stroke-opacity="0"></use></g></g></g></g></svg>