<?xml version="1.0" encoding="iso-8859-1"?>
<!-- Generator: Adobe Illustrator 19.0.0, SVG Export Plug-In . SVG Version: 6.00 Build 0)  -->
<svg version="1.1" id="Capa_1" xmlns="http://www.w3.org/2000/svg" xmlns:xlink="http://www.w3.org/1999/xlink" x="0px" y="0px"
	 viewBox="0 0 512 512" style="enable-background:new 0 0 512 512;" xml:space="preserve">
<path style="fill:#FDBD40;" d="M0,264.828v141.241c19.5,0,35.31,15.81,35.31,35.31c0,19.5-15.81,35.31-35.31,35.31V512h512V264.828
	H0z"/>
<g>
	<polygon style="fill:#FCF05A;" points="512,264.828 0,264.828 256,0 	"/>
	<circle style="fill:#FCF05A;" cx="88.276" cy="353.103" r="44.138"/>
	<circle style="fill:#FCF05A;" cx="185.379" cy="459.034" r="17.655"/>
	<circle style="fill:#FCF05A;" cx="256" cy="388.414" r="26.483"/>
	<circle style="fill:#FCF05A;" cx="397.241" cy="459.034" r="26.483"/>
	<circle style="fill:#FCF05A;" cx="370.759" cy="344.276" r="35.31"/>
	<circle style="fill:#FCF05A;" cx="459.034" cy="388.414" r="17.655"/>
	<path style="fill:#FCF05A;" d="M70.621,485.517c-9.754,0-17.655-7.901-17.655-17.655s7.901-17.655,17.655-17.655
		s17.655,7.901,17.655,17.655S80.375,485.517,70.621,485.517z"/>
	<path style="fill:#FCF05A;" d="M211.862,344.276c-9.754,0-17.655-7.901-17.655-17.655c0-9.754,7.901-17.655,17.655-17.655
		c9.754,0,17.655,7.901,17.655,17.655C229.517,336.375,221.617,344.276,211.862,344.276z"/>
	<path style="fill:#FCF05A;" d="M291.31,485.517c-9.754,0-17.655-7.901-17.655-17.655s7.901-17.655,17.655-17.655
		c9.754,0,17.655,7.901,17.655,17.655S301.065,485.517,291.31,485.517z"/>
</g>
<g>
</g>
<g>
</g>
<g>
</g>
<g>
</g>
<g>
</g>
<g>
</g>
<g>
</g>
<g>
</g>
<g>
</g>
<g>
</g>
<g>
</g>
<g>
</g>
<g>
</g>
<g>
</g>
<g>
</g>
</svg>
