<?xml version="1.0"?>
<svg xmlns="http://www.w3.org/2000/svg" xmlns:xlink="http://www.w3.org/1999/xlink" version="1.1" id="Capa_1" x="0px" y="0px" viewBox="0 0 512 512" style="enable-background:new 0 0 512 512;" xml:space="preserve" width="512px" height="512px" class=""><g><path style="fill:#E4C404" d="M160.931,179.378c14.081,14.081,36.91,14.081,50.991,0c2.764-2.764,4.978-5.869,6.656-9.176  c2.871-1.252,5.564-3.044,7.913-5.394c10.058-10.058,10.058-26.364,0-36.422c-6.136-6.136-14.597-8.522-22.546-7.17  c-0.823-1.333-1.794-2.6-2.949-3.756c-8.047-8.047-21.092-8.046-29.138,0c-1.634,1.634-2.919,3.48-3.889,5.443  c-2.51,1.497-4.877,3.323-7.038,5.484c-3.131,3.131-5.561,6.695-7.3,10.499c-2.663,0.647-5.19,1.991-7.269,4.071  c-6.035,6.035-6.035,15.818,0,21.853c2.079,2.079,4.607,3.424,7.269,4.07C155.369,172.684,157.8,176.248,160.931,179.378z" data-original="#915729" class="" data-old_color="#D3B609"/><path style="fill:#E4C404" d="M205.855,120.965c-0.639,0.06-1.275,0.144-1.91,0.251c-0.823-1.333-1.794-2.6-2.949-3.756  c-8.047-8.047-21.092-8.047-29.138,0c-1.634,1.634-2.919,3.48-3.889,5.443c-2.51,1.497-4.878,3.323-7.038,5.484  c-3.131,3.131-5.561,6.695-7.3,10.499c-2.662,0.646-5.19,1.991-7.269,4.071c-0.012,0.012-0.025,0.025-0.037,0.037  c-2.061,2.076-2.384,5.363-0.856,7.858c1.899,3.101,4.308,5.977,7.234,8.505c13.536,11.696,34.007,11.549,47.402-0.308  c3.531-3.127,6.281-6.77,8.275-10.698c2.871-1.252,5.564-3.044,7.913-5.394c0.047-0.047,0.094-0.095,0.141-0.142  C224.838,134.28,217.78,119.844,205.855,120.965z" data-original="#AD712C" class="active-path" data-old_color="#C3D607"/><g>
	<circle style="fill:#E4C404" cx="192.015" cy="140.774" r="7.726" data-original="#915729" class="" data-old_color="#D3B609"/>
	<circle style="fill:#E4C404" cx="175.986" cy="158.257" r="7.726" data-original="#915729" class="" data-old_color="#D3B609"/>
</g><path style="fill:#F6D445;" d="M301.328,119.335c-35.751,0-65.909,24.407-74.685,57.434l69.534,48.332l81.492-16.558  c0.607-3.894,0.922-7.883,0.922-11.944C378.592,153.996,343.931,119.335,301.328,119.335z" data-original="#F6D445" class=""/><g>
	<path style="fill:#D9B43A;" d="M316.781,216c-4.268,0-7.726-3.458-7.726-7.726v-11.675c0-4.261-3.466-7.726-7.726-7.726   c-4.261,0-7.726,3.466-7.726,7.726v7.898c0,4.268-3.458,7.726-7.726,7.726s-7.726-3.458-7.726-7.726v-7.898   c0-12.78,10.399-23.179,23.179-23.179c12.78,0,23.179,10.399,23.179,23.179v11.675C324.507,212.542,321.049,216,316.781,216z" data-original="#D9B43A" class=""/>
	<path style="fill:#D9B43A;" d="M377.679,216.27c-0.396,0-0.795-0.03-1.198-0.094c-4.217-0.657-7.102-4.607-6.445-8.822   c0.55-3.533,0.829-7.15,0.829-10.754c0-38.343-31.194-69.537-69.537-69.537c-31.489,0-59.129,21.257-67.218,51.691   c-1.095,4.125-5.328,6.581-9.451,5.483c-4.125-1.095-6.58-5.327-5.483-9.451c9.885-37.197,43.667-63.176,82.152-63.176   c46.863,0,84.99,38.127,84.99,84.99c0,4.398-0.341,8.817-1.014,13.133C384.71,213.545,381.421,216.27,377.679,216.27z" data-original="#D9B43A" class=""/>
	<path style="fill:#D9B43A;" d="M346.961,212.574c-0.454,0-0.915-0.04-1.378-0.123c-4.199-0.756-6.991-4.774-6.236-8.974   c0.407-2.256,0.613-4.571,0.613-6.879c0-21.302-17.33-38.632-38.632-38.632c-17.796,0-33.627,12.58-37.641,29.912   c-0.963,4.157-5.116,6.75-9.271,5.783c-4.157-0.963-6.747-5.113-5.783-9.271c5.71-24.657,27.379-41.878,52.695-41.878   c29.822,0,54.085,24.263,54.085,54.085c0,3.223-0.287,6.459-0.856,9.617C353.884,209.952,350.628,212.574,346.961,212.574z" data-original="#D9B43A" class=""/>
</g><path style="fill:#E4C404" d="M329.309,202.358c0-19.913,16.143-36.056,36.056-36.056c3.91,0,7.67,0.63,11.195,1.781  c2.915-1.146,6.087-1.781,9.409-1.781c14.224,0,25.755,11.531,25.755,25.755c0,8.677-4.296,16.347-10.872,21.013  c0.36,1.525,0.57,3.107,0.57,4.742c0,11.379-9.224,20.604-20.604,20.604c-2.311,0-4.525-0.398-6.598-1.099  c-2.833,0.716-5.799,1.099-8.854,1.099c-4.428,0-8.666-0.801-12.585-2.261c-2.34,1.426-5.078,2.261-8.019,2.261  c-8.534,0-15.453-6.919-15.453-15.453c0-2.94,0.837-5.679,2.262-8.019C330.111,211.024,329.309,206.785,329.309,202.358z" data-original="#915729" class="" data-old_color="#D3B609"/><path style="fill:#E4C404" d="M386.044,166.301h-0.075c-3.322,0-6.493,0.636-9.409,1.781c-4.194-1.369-8.72-2.002-13.436-1.712  c-17.858,1.095-32.43,15.478-33.719,33.324c-0.389,5.392,0.415,10.551,2.165,15.249v0.001l3.986,2.218  c2.733,1.521,5.701,2.575,8.782,3.118l0,0c4.081,0.72,8.267,0.565,12.283-0.457l0.086-0.022c2.074,0.702,4.288,1.099,6.598,1.099  c11.379,0,20.604-9.224,20.604-20.604c0-1.635-0.21-3.217-0.57-4.742c6.576-4.666,10.871-12.335,10.871-21.013v-0.075  C394.21,169.976,390.535,166.301,386.044,166.301z" data-original="#AD712C" class="active-path" data-old_color="#C3D607"/><circle style="fill:#E4C404" cx="366.569" cy="188.791" r="7.726" data-original="#915729" class="" data-old_color="#D3B609"/><path style="fill:#F6D445;" d="M455.269,294.318c-8.88-50.768-53.281-89.477-106.553-89.477c-17.693,0-34.408,4.271-49.168,11.835  c-25.321-26.329-60.882-42.74-100.208-42.74c-70.457,0-128.846,52.665-137.865,120.697c-1.458,10.991,1.686,22.1,8.494,30.852  l26.353,33.884h319.871l30.172-38.42C454.134,311.055,456.028,298.658,455.269,294.318z" data-original="#F6D445" class=""/><g>
	<path style="fill:#D9B43A;" d="M461.019,284.356c-0.012-0.053-0.019-0.106-0.032-0.159c-13.166-51.273-59.333-87.083-112.27-87.083   c-16.684,0-32.708,3.47-47.722,10.297c-9.08-8.883-19.381-16.622-30.75-22.918c-21.601-11.96-46.119-18.284-70.904-18.284   c-32.132,0-62.669,10.235-88.306,29.596c-24.79,18.723-43.354,45.309-52.271,74.865c-2.659,8.812-4.49,17.94-5.442,27.146   c-0.024,0.238-0.049,0.542-0.073,0.912c-0.908,13.797,3.816,26.972,13.297,37.097c9.414,10.052,22.711,15.817,36.483,15.817   c4.268,0,7.726-3.458,7.726-7.726s-3.458-7.726-7.726-7.726c-9.654,0-18.605-3.882-25.203-10.927   c-6.528-6.972-9.781-16.035-9.158-25.513c0.01-0.15,0.02-0.278,0.027-0.36c0.851-8.218,2.488-16.377,4.866-24.256   c16.603-55.034,68.328-93.471,125.783-93.471c22.174,0,44.104,5.654,63.418,16.349c41.236,22.837,66.853,66.898,66.853,114.99   v30.915c0,4.268,3.458,7.726,7.726,7.726s7.726-3.458,7.726-7.726V313c0-2.244-0.068-4.476-0.168-6.702   c1.315-0.755,2.823-1.112,4.408-0.993c4.004,0.286,7.14,3.869,7.14,8.157c0,4.268,3.458,7.726,7.726,7.726   c4.268,0,7.726-3.458,7.726-7.726c0-12.356-9.441-22.709-21.49-23.57c-2.396-0.171-4.775,0.036-7.062,0.581   c-0.779-5.127-1.817-10.184-3.111-15.153c2.768-0.622,5.605-0.942,8.484-0.942c17.678,0,33.074,11.962,37.441,29.091   c2.593,10.167,11.807,17.267,22.409,17.267c7.23,0,13.92-3.279,18.354-8.996c4.405-5.68,5.91-12.919,4.128-19.861   c-9.655-37.6-43.511-63.859-82.331-63.859c-4.268,0-7.726,3.458-7.726,7.726c0,4.268,3.458,7.726,7.726,7.726   c31.763,0,59.464,21.485,67.364,52.25c0.586,2.283,0.087,4.669-1.37,6.547c-1.486,1.915-3.725,3.014-6.144,3.014   c-3.533,0-6.589-2.316-7.435-5.631c-6.113-23.98-27.667-40.727-52.415-40.727c-4.471,0-8.872,0.555-13.153,1.631   c-5.599-14.914-13.558-28.779-23.543-41.049c11.645-4.604,23.949-6.94,36.696-6.94c45.863,0,85.86,31.013,97.288,75.424   c0.004,0.015,0.005,0.03,0.009,0.044c2.98,11.602,0.47,23.694-6.886,33.176c-7.382,9.519-18.522,14.978-30.563,14.978   c-4.268,0-7.726,3.458-7.726,7.726s3.458,7.726,7.726,7.726c16.852,0,32.442-7.64,42.774-20.96   C461.608,317.443,465.129,300.568,461.019,284.356z" data-original="#D9B43A" class=""/>
	<path style="fill:#D9B43A;" d="M257.189,212.609c-17.53-10.137-37.534-15.495-57.849-15.495c-27.537,0-54.245,9.864-75.204,27.776   c-20.72,17.708-34.603,42.16-39.088,68.851c-1.13,6.722,0.751,13.565,5.158,18.777c4.418,5.222,10.875,8.219,17.713,8.219   c11.334,0,20.952-8.173,22.869-19.434c5.702-33.508,34.533-57.829,68.552-57.829c31.763,0,59.464,21.485,67.364,52.25   c0.586,2.283,0.087,4.669-1.37,6.547c-1.486,1.915-3.725,3.014-6.144,3.014c-3.532,0-6.589-2.316-7.435-5.631   c-6.113-23.98-27.667-40.727-52.415-40.727c-18.976,0-36.804,10.165-46.525,26.527c-4.345,7.312-4.428,16.089-0.221,23.482   c4.204,7.391,11.79,11.802,20.291,11.802c4.268,0,7.726-3.458,7.726-7.726s-3.458-7.726-7.726-7.726   c-4.142,0-6.178-2.791-6.861-3.991c-0.683-1.201-2.044-4.38,0.075-7.947c6.951-11.7,19.688-18.968,33.241-18.968   c17.678,0,33.074,11.962,37.441,29.091c2.592,10.166,11.807,17.267,22.408,17.267c7.23,0,13.92-3.279,18.354-8.996   c4.405-5.68,5.91-12.919,4.128-19.861c-9.655-37.6-43.511-63.859-82.331-63.859c-20.165,0-39.728,7.214-55.089,20.315   c-15.181,12.948-25.372,30.84-28.697,50.374c-0.649,3.81-3.86,6.575-7.636,6.575c-2.317,0-4.417-0.975-5.915-2.745   c-1.487-1.759-2.096-3.972-1.716-6.236c8.154-48.519,49.812-83.735,99.053-83.735c17.604,0,34.932,4.64,50.114,13.418   c30.512,17.644,49.467,51.027,49.467,87.12v30.809c0,4.268,3.458,7.726,7.726,7.726c4.268,0,7.726-3.458,7.726-7.726v-30.809   C314.373,271.514,292.462,233.004,257.189,212.609z" data-original="#D9B43A" class=""/>
</g><path style="fill:#E4C404" d="M251.015,338.341c0,19.913-16.143,36.056-36.056,36.056c-3.91,0-7.67-0.63-11.195-1.781  c-2.915,1.146-6.087,1.781-9.409,1.781c-14.224,0-25.755-11.531-25.755-25.755c0-8.677,4.296-16.347,10.872-21.013  c-0.36-1.525-0.57-3.107-0.57-4.742c0-11.379,9.224-20.604,20.604-20.604c2.311,0,4.525,0.398,6.598,1.099  c2.833-0.716,5.799-1.099,8.854-1.099c4.428,0,8.666,0.801,12.585,2.261c2.34-1.426,5.078-2.261,8.019-2.261  c8.534,0,15.453,6.919,15.453,15.453c0,2.94-0.837,5.679-2.262,8.019C250.213,329.676,251.015,333.914,251.015,338.341z" data-original="#915729" class="" data-old_color="#D3B609"/><path style="fill:#E4C404" d="M177.944,328.803c0.494-0.409,1.004-0.8,1.529-1.172c-0.361-1.525-0.571-3.107-0.571-4.742  c0-11.379,9.224-20.604,20.604-20.604c2.311,0,4.525,0.398,6.598,1.099c2.833-0.716,5.799-1.099,8.854-1.099  c4.428,0,8.666,0.801,12.585,2.261c2.34-1.426,5.078-2.261,8.019-2.261c0.018,0,0.035,0,0.053,0c2.926,0.01,5.479,2.106,6.163,4.951  c0.85,3.536,1.181,7.273,0.899,11.13c-1.301,17.842-15.88,32.214-33.736,33.3c-4.708,0.286-9.229-0.346-13.417-1.713  c-2.915,1.146-6.087,1.781-9.409,1.781c-0.067,0-0.133,0-0.2-0.001C173.936,351.642,168.719,336.443,177.944,328.803z" data-original="#AD712C" class="active-path" data-old_color="#C3D607"/><circle style="fill:#E4C404" cx="208.952" cy="331.986" r="7.726" data-original="#915729" class="" data-old_color="#D3B609"/><path style="fill:#D5D2BD;" d="M428.632,400.575H83.368c-8.196,0-16.057-3.256-21.853-9.052L29.36,359.367h453.28l-32.155,32.155  C444.689,397.318,436.828,400.575,428.632,400.575z" data-original="#D5D2BD"/><path style="fill:#E7E4CD" d="M496.547,374.82H15.453C6.919,374.82,0,367.901,0,359.367l0,0c0-8.534,6.919-15.453,15.453-15.453  h481.095c8.534,0,15.453,6.919,15.453,15.453l0,0C512,367.901,505.081,374.82,496.547,374.82z" data-original="#E7E4CD" class=""/></g> </svg>
