<?xml version="1.0" encoding="iso-8859-1"?>
<!-- Generator: Adobe Illustrator 19.0.0, SVG Export Plug-In . SVG Version: 6.00 Build 0)  -->
<svg version="1.1" id="Capa_1" xmlns="http://www.w3.org/2000/svg" xmlns:xlink="http://www.w3.org/1999/xlink" x="0px" y="0px"
	 viewBox="0 0 512.001 512.001" style="enable-background:new 0 0 512.001 512.001;" xml:space="preserve">
<g>
	<path style="fill:#2796AF;" d="M89.515,271.924c-2.758,0-5.425-1.479-6.818-4.079l-14.882-27.78
		c-5.981-11.164-7.257-23.99-3.592-36.114c3.665-12.124,11.833-22.095,22.997-28.076c23.05-12.346,51.844-3.642,64.191,19.405
		l14.882,27.781c2.015,3.761,0.599,8.444-3.162,10.459c-3.763,2.016-8.444,0.599-10.46-3.162l-14.882-27.78
		c-8.323-15.535-27.733-21.406-43.272-13.081c-7.526,4.032-13.032,10.754-15.503,18.927s-1.611,16.819,2.422,24.345l14.882,27.781
		c2.015,3.761,0.6,8.444-3.162,10.459C91.995,271.629,90.746,271.924,89.515,271.924z"/>
	<path style="fill:#2796AF;" d="M124.503,253.18c-2.758,0-5.425-1.479-6.818-4.079l-77.27-144.23
		c-2.015-3.762-0.6-8.444,3.162-10.459c3.763-2.014,8.445-0.6,10.46,3.161l77.27,144.23c2.015,3.762,0.6,8.444-3.162,10.459
		C126.984,252.885,125.734,253.18,124.503,253.18z"/>
</g>
<path style="fill:#E21717;" d="M357.731,418.506H154.269c-6.872,0-12.443-5.571-12.443-12.443V380.8h228.347v25.263
	C370.174,412.935,364.603,418.506,357.731,418.506z"/>
<path style="fill:#FCE68B;" d="M299.281,357.08H40.702c0-22.018,5.507-42.767,15.231-60.911c10.42-19.47,25.662-35.946,44.15-47.84
	c20.155-12.991,44.161-20.521,69.915-20.521s49.76,7.53,69.915,20.521C275.63,271.329,299.281,311.445,299.281,357.08z"/>
<g>
	<path style="fill:#FEC007;" d="M80.121,332.514c0,9.278-3.222,17.824-8.604,24.566H40.702c0-22.018,5.507-42.767,15.231-60.911
		C70.135,302.121,80.121,316.175,80.121,332.514z"/>
	<path style="fill:#FEC007;" d="M299.283,357.079H192.7c0-42.85,18.173-81.536,47.211-108.75
		C275.624,271.326,299.283,311.44,299.283,357.079z"/>
	<path style="fill:#FEC007;" d="M260.094,357.079H79.893c0-49.762,40.338-90.101,90.101-90.101c16.336,0,31.668,4.348,44.885,11.961
		C241.907,294.496,260.094,323.666,260.094,357.079z"/>
</g>
<g>
	<path style="fill:#FE9700;" d="M260.094,357.079H192.7c0-28.628,8.115-55.406,22.178-78.139
		C241.907,294.496,260.094,323.666,260.094,357.079z"/>
	<path style="fill:#FE9700;" d="M260.096,364.81H79.887c-4.268,0-7.726-3.459-7.726-7.726c0-53.944,43.886-97.83,97.83-97.83
		c53.945,0,97.831,43.886,97.831,97.83C267.822,361.351,264.363,364.81,260.096,364.81z M87.973,349.358H252.01
		c-3.908-41.812-39.201-74.651-82.019-74.651C127.174,274.707,91.881,307.545,87.973,349.358z"/>
	<path style="fill:#FE9700;" d="M219.134,357.079h-98.282c0-27.135,21.993-49.141,49.141-49.141c10.508,0,20.235,3.291,28.232,8.922
		C210.874,325.754,219.134,340.452,219.134,357.079z"/>
</g>
<path style="fill:#F26200;" d="M219.134,357.079H192.7c0-13.931,1.93-27.425,5.525-40.22
	C210.874,325.754,219.134,340.452,219.134,357.079z"/>
<path style="fill:#FB4239;" d="M239.912,248.328h-62.157c-9.586,0-17.356,7.77-17.356,17.344v14.168
	c0,9.278-7.735,16.75-17.105,16.305c-8.787-0.411-15.539-7.975-15.539-16.762v-13.711c0-9.575-7.77-17.344-17.344-17.344h-10.329
	c20.155-12.991,44.161-20.521,69.915-20.521S219.757,235.337,239.912,248.328z"/>
<path style="fill:#FCE68B;" d="M471.104,357.08h-258.58c0-42.55,20.567-80.301,52.296-103.861c2.297-1.703,4.65-3.336,7.061-4.89
	c20.167-12.991,44.161-20.532,69.926-20.532c30.633,0,58.775,10.66,80.93,28.462c1.634,1.303,3.222,2.651,4.788,4.045
	c10.032,8.889,18.67,19.31,25.548,30.896C464.522,310.485,471.104,333.017,471.104,357.08z"/>
<g>
	<path style="fill:#FEC007;" d="M471.104,357.08h-57.964c-4.879-10.009-3.176-22.543,4.833-34.906
		c6.319-9.758,16.43-19.355,28.45-27.034c2.194-1.405,4.411-2.719,6.65-3.942C464.522,310.485,471.104,333.017,471.104,357.08z"/>
	<path style="fill:#FEC007;" d="M251.709,357.084c0-49.763,40.341-90.104,90.104-90.104s90.104,40.341,90.104,90.104H251.709z"/>
</g>
<g>
	<path style="fill:#FE9700;" d="M431.918,364.81H251.709c-4.268,0-7.726-3.459-7.726-7.726c0-53.944,43.886-97.83,97.83-97.83
		c53.945,0,97.831,43.886,97.831,97.83C439.645,361.351,436.185,364.81,431.918,364.81z M259.796,349.358h164.037
		c-3.908-41.812-39.201-74.651-82.019-74.651C298.996,274.707,263.703,307.545,259.796,349.358z"/>
	<path style="fill:#FE9700;" d="M292.671,357.084c0-27.141,22.002-49.143,49.143-49.143s49.143,22.002,49.143,49.143H292.671z"/>
</g>
<path style="fill:#FB4239;" d="M427.525,260.303h-15.356c-8.786,0-15.905,7.118-15.905,15.916v17.71
	c0,6.433-5.222,11.654-11.654,11.654c-3.222,0-6.124-1.303-8.238-3.416c-2.102-2.102-3.405-5.027-3.405-8.238v-18.578
	c0-8.787-7.13-15.905-15.916-15.905c-4.388,0-8.375,1.782-11.254,4.662c-2.879,2.868-4.662,6.844-4.662,11.243v7.484
	c0,6.433-5.21,11.654-11.643,11.654h-3.325c-6.433,0-11.643-5.222-11.643-11.654v-7.792c0-8.524-6.73-15.539-15.254-15.905
	c-22.258-0.948-31.033-3.942-34.449-5.919c2.297-1.703,4.65-3.336,7.061-4.89c9.769-6.296,20.464-11.323,31.798-14.819
	c12.054-3.713,24.851-5.713,38.128-5.713c11.369,0,22.395,1.462,32.907,4.228c17.801,4.673,34.095,13.037,48.023,24.234
	C424.372,257.561,425.96,258.909,427.525,260.303z"/>
<path style="fill:#E21717;" d="M374.715,232.024c-6.216,13.608-19.961,23.092-35.877,23.092c-15.322,0-28.645-8.798-35.157-21.606
	c12.054-3.713,24.851-5.713,38.128-5.713C353.177,227.796,364.203,229.259,374.715,232.024z"/>
<circle style="fill:#FE6C2B;" cx="40.706" cy="332.51" r="22.28"/>
<ellipse transform="matrix(-0.5384 -0.8427 0.8427 -0.5384 442.4862 895.6664)" style="fill:#51F2B8;" cx="466.554" cy="326.642" rx="20.228" ry="44.45"/>
<path style="fill:#FB4239;" d="M469.13,389.469H42.87c-17.172,0-32.944-8.532-41.011-22.186l0,0
	c-5.558-9.408,2.012-20.76,13.845-20.76h480.592c11.832,0,19.403,11.352,13.845,20.76l0,0
	C502.074,380.936,486.302,389.469,469.13,389.469z"/>
<circle style="fill:#FE6C2B;" cx="338.84" cy="215.7" r="22.28"/>
<g>
</g>
<g>
</g>
<g>
</g>
<g>
</g>
<g>
</g>
<g>
</g>
<g>
</g>
<g>
</g>
<g>
</g>
<g>
</g>
<g>
</g>
<g>
</g>
<g>
</g>
<g>
</g>
<g>
</g>
</svg>
