<?xml version="1.0" encoding="UTF-8" standalone="no"?>
<!DOCTYPE svg PUBLIC "-//W3C//DTD SVG 1.1//EN" "http://www.w3.org/Graphics/SVG/1.1/DTD/svg11.dtd">
<svg version="1.1" xmlns="http://www.w3.org/2000/svg" xmlns:xlink="http://www.w3.org/1999/xlink" preserveAspectRatio="xMidYMid meet" viewBox="0 0 640 640" width="640" height="640"><defs><path d="M205.23 396.65C201.38 383.96 183.92 384.09 187.74 396.65C189.49 396.65 203.48 396.65 205.23 396.65Z" id="eG39zrlQm"></path><path d="M205.23 396.65C201.38 383.96 183.92 384.09 187.74 396.65C189.49 396.65 203.48 396.65 205.23 396.65Z" id="azQwAbNB5"></path><path d="M180.52 354.23C181.91 353.87 183.29 354.87 183.6 356.46C183.97 358.32 184.31 360.18 184.63 361.97C184.92 363.57 184.03 365.18 182.62 365.44C180.73 365.8 179.82 364.54 179.57 363.14C179.26 361.39 178.92 359.57 178.56 357.75C178.25 356.16 179.12 354.59 180.52 354.23Z" id="e8Kd0t3mM"></path><path d="M180.52 354.23C181.91 353.87 183.29 354.87 183.6 356.46C183.97 358.32 184.31 360.18 184.63 361.97C184.92 363.57 184.03 365.18 182.62 365.44C180.73 365.8 179.82 364.54 179.57 363.14C179.26 361.39 178.92 359.57 178.56 357.75C178.25 356.16 179.12 354.59 180.52 354.23Z" id="fhzMqbwhg"></path><path d="M404.29 6.07C404.28 6.07 404.28 6.07 404.27 6.07C396.26 25.09 356.2 120.17 284.09 291.31L301.05 298.91C373.16 127.77 413.22 32.7 421.23 13.68C421.23 13.68 421.23 13.68 421.23 13.68C422.69 10.18 422.05 5.98 419.29 3.12C415.69 -0.6 409.82 -0.6 406.22 3.12C405.37 4 404.73 5 404.29 6.07Z" id="cPnORdfoo"></path><path d="M404.29 6.07C404.28 6.07 404.28 6.07 404.27 6.07C396.26 25.09 356.2 120.17 284.09 291.31L301.05 298.91C373.16 127.77 413.22 32.7 421.23 13.68C421.23 13.68 421.23 13.68 421.23 13.68C422.69 10.18 422.05 5.98 419.29 3.12C415.69 -0.6 409.82 -0.6 406.22 3.12C405.37 4 404.73 5 404.29 6.07Z" id="hryMbQrJo"></path><path d="M275.78 187.26C284.72 186.41 356.22 179.57 365.16 178.71C365.16 178.71 408.23 204.04 384.61 121.63C357.28 26.28 273.5 13.75 288.69 42.39C303.88 71.02 232.92 59.69 223.78 114.87C211.2 190.74 265.38 172.78 275.78 187.26Z" id="dUY5s92uC"></path><path d="M275.78 187.26C284.72 186.41 356.22 179.57 365.16 178.71C365.16 178.71 408.23 204.04 384.61 121.63C357.28 26.28 273.5 13.75 288.69 42.39C303.88 71.02 232.92 59.69 223.78 114.87C211.2 190.74 265.38 172.78 275.78 187.26Z" id="a1bcjNOcOk"></path><path d="M237.1 458.51L366.53 458.51L348.04 420.37L255.59 420.37L237.1 458.51Z" id="cWKBQMkiv"></path><path d="M237.1 458.51L366.53 458.51L348.04 420.37L255.59 420.37L237.1 458.51Z" id="cw4XCwfiN"></path><path d="M218.61 114.87C218.61 114.87 200.12 133.97 200.12 191.24C200.12 229.42 209.36 309.71 255.59 420.34C256.82 420.34 262.98 420.34 274.08 420.34C318.46 420.34 343.11 420.34 348.04 420.34C394.26 309.71 403.51 229.42 403.51 191.24C403.51 133.97 385.01 114.87 385.01 114.87C373.92 114.87 346.19 114.87 301.81 114.87C251.89 114.87 224.16 114.87 218.61 114.87Z" id="can6ZnD0t"></path><path d="M218.61 114.87C218.61 114.87 200.12 133.97 200.12 191.24C200.12 229.42 209.36 309.71 255.59 420.34C256.82 420.34 262.98 420.34 274.08 420.34C318.46 420.34 343.11 420.34 348.04 420.34C394.26 309.71 403.51 229.42 403.51 191.24C403.51 133.97 385.01 114.87 385.01 114.87C373.92 114.87 346.19 114.87 301.81 114.87C251.89 114.87 224.16 114.87 218.61 114.87Z" id="a854vOZrpz"></path><path d="M258.3 427.08C261.91 430.8 267.76 430.8 271.37 427.08C273.17 425.23 274.07 422.8 274.08 420.37C270.38 420.37 257.44 420.37 255.59 420.37C255.6 422.8 256.5 425.23 258.3 427.08Z" id="i1sJL49tjo"></path><path d="M258.3 427.08C261.91 430.8 267.76 430.8 271.37 427.08C273.17 425.23 274.07 422.8 274.08 420.37C270.38 420.37 257.44 420.37 255.59 420.37C255.6 422.8 256.5 425.23 258.3 427.08Z" id="a1okK8LtF8"></path><path d="M276.78 427.08C280.4 430.8 286.25 430.8 289.86 427.08C291.66 425.23 292.56 422.8 292.57 420.37C288.87 420.37 275.93 420.37 274.08 420.37C274.09 422.8 274.99 425.23 276.78 427.08Z" id="arTHWKMUT"></path><path d="M276.78 427.08C280.4 430.8 286.25 430.8 289.86 427.08C291.66 425.23 292.56 422.8 292.57 420.37C288.87 420.37 275.93 420.37 274.08 420.37C274.09 422.8 274.99 425.23 276.78 427.08Z" id="bRbsrYZz"></path><path d="M295.28 427.08C298.89 430.8 304.74 430.8 308.35 427.08C310.15 425.23 311.05 422.8 311.06 420.37C307.36 420.37 294.42 420.37 292.57 420.37C292.58 422.8 293.48 425.23 295.28 427.08Z" id="d8DMPac0b"></path><path d="M295.28 427.08C298.89 430.8 304.74 430.8 308.35 427.08C310.15 425.23 311.05 422.8 311.06 420.37C307.36 420.37 294.42 420.37 292.57 420.37C292.58 422.8 293.48 425.23 295.28 427.08Z" id="aa0B1H8y"></path><path d="M313.77 427.08C317.38 430.8 323.23 430.8 326.83 427.08C328.63 425.23 329.54 422.8 329.54 420.37C325.85 420.37 312.91 420.37 311.06 420.37C311.07 422.8 311.97 425.23 313.77 427.08Z" id="gjPdXKfYp"></path><path d="M313.77 427.08C317.38 430.8 323.23 430.8 326.83 427.08C328.63 425.23 329.54 422.8 329.54 420.37C325.85 420.37 312.91 420.37 311.06 420.37C311.07 422.8 311.97 425.23 313.77 427.08Z" id="a2ChpE8IfH"></path><path d="M332.25 427.08C335.87 430.8 341.72 430.8 345.33 427.08C347.12 425.23 348.03 422.8 348.03 420.37C344.33 420.37 331.39 420.37 329.54 420.37C329.56 422.8 330.45 425.23 332.25 427.08Z" id="d1DcKQesJ"></path><path d="M332.25 427.08C335.87 430.8 341.72 430.8 345.33 427.08C347.12 425.23 348.03 422.8 348.03 420.37C344.33 420.37 331.39 420.37 329.54 420.37C329.56 422.8 330.45 425.23 332.25 427.08Z" id="bBm0TSZ7i"></path><path d="M316.76 133.55C343.53 122.2 359.76 98.81 368.19 82.75C364.37 76.2 360.26 70.31 356 65.05C351.02 76.62 336.65 104.48 309.73 115.89C310.44 117.65 316.05 131.78 316.76 133.55Z" id="azq2XKrB"></path><path d="M316.76 133.55C343.53 122.2 359.76 98.81 368.19 82.75C364.37 76.2 360.26 70.31 356 65.05C351.02 76.62 336.65 104.48 309.73 115.89C310.44 117.65 316.05 131.78 316.76 133.55Z" id="a105NgTxnv"></path><path d="M331.95 42.33C322.15 58.24 289.49 105.78 244.48 115.37C244.85 117.24 247.84 132.19 248.21 134.06C274.23 128.53 300.33 111.54 323.67 84.95C334.15 73.01 341.87 61.71 346.42 54.46C341.61 49.72 336.75 45.69 331.95 42.33Z" id="b3u0ge1CGt"></path><path d="M331.95 42.33C322.15 58.24 289.49 105.78 244.48 115.37C244.85 117.24 247.84 132.19 248.21 134.06C274.23 128.53 300.33 111.54 323.67 84.95C334.15 73.01 341.87 61.71 346.42 54.46C341.61 49.72 336.75 45.69 331.95 42.33Z" id="aZm2wPXTe"></path><path d="M375.78 439.41C360.99 439.41 242.64 439.41 227.85 439.41C227.85 439.41 227.85 439.41 227.85 439.41C225.48 439.41 223.12 440.35 221.31 442.21C217.7 445.94 217.7 452 221.31 455.72C223.12 457.57 225.48 458.51 227.85 458.51C227.85 458.51 227.85 458.51 227.85 458.51C242.64 458.51 360.99 458.51 375.78 458.51C375.78 458.51 375.78 458.51 375.78 458.51C378.15 458.51 380.5 457.59 382.32 455.72C385.92 452 385.92 445.94 382.32 442.21C380.5 440.35 378.15 439.41 375.78 439.41C375.78 439.41 375.78 439.41 375.78 439.41Z" id="i1jQG6hOPI"></path><path d="M375.78 439.41C360.99 439.41 242.64 439.41 227.85 439.41C227.85 439.41 227.85 439.41 227.85 439.41C225.48 439.41 223.12 440.35 221.31 442.21C217.7 445.94 217.7 452 221.31 455.72C223.12 457.57 225.48 458.51 227.85 458.51C227.85 458.51 227.85 458.51 227.85 458.51C242.64 458.51 360.99 458.51 375.78 458.51C375.78 458.51 375.78 458.51 375.78 458.51C378.15 458.51 380.5 457.59 382.32 455.72C385.92 452 385.92 445.94 382.32 442.21C380.5 440.35 378.15 439.41 375.78 439.41C375.78 439.41 375.78 439.41 375.78 439.41Z" id="d1rikZ51AO"></path><path d="M385.01 114.87C379.47 114.87 351.73 114.87 301.81 114.87C251.89 114.87 224.16 114.87 218.61 114.87C218.61 114.87 208.7 125.11 203.39 153.05C242.76 153.05 380.55 153.05 400.24 153.05C394.93 125.11 388.06 122.51 385.01 114.87Z" id="i1dRGscCV4"></path><path d="M385.01 114.87C379.47 114.87 351.73 114.87 301.81 114.87C251.89 114.87 224.16 114.87 218.61 114.87C218.61 114.87 208.7 125.11 203.39 153.05C242.76 153.05 380.55 153.05 400.24 153.05C394.93 125.11 388.06 122.51 385.01 114.87Z" id="j1rRCroM1X"></path><path d="M292.57 219.88C292.57 219.88 292.57 219.88 292.57 219.88C292.57 233.24 292.57 340.14 292.57 353.5C292.57 353.5 292.57 353.5 292.57 353.5C292.57 355.96 293.47 358.4 295.28 360.27C298.89 363.99 304.74 363.99 308.35 360.27C310.15 358.4 311.06 355.96 311.06 353.5C311.06 353.5 311.06 353.5 311.06 353.5C311.06 340.14 311.06 233.24 311.06 219.88C311.06 219.88 311.06 219.88 311.06 219.88C311.06 217.43 310.15 214.99 308.35 213.12C304.74 209.4 298.89 209.4 295.28 213.12C293.47 214.99 292.57 217.43 292.57 219.88Z" id="c2L0x1EwV2"></path><path d="M292.57 219.88C292.57 219.88 292.57 219.88 292.57 219.88C292.57 233.24 292.57 340.14 292.57 353.5C292.57 353.5 292.57 353.5 292.57 353.5C292.57 355.96 293.47 358.4 295.28 360.27C298.89 363.99 304.74 363.99 308.35 360.27C310.15 358.4 311.06 355.96 311.06 353.5C311.06 353.5 311.06 353.5 311.06 353.5C311.06 340.14 311.06 233.24 311.06 219.88C311.06 219.88 311.06 219.88 311.06 219.88C311.06 217.43 310.15 214.99 308.35 213.12C304.74 209.4 298.89 209.4 295.28 213.12C293.47 214.99 292.57 217.43 292.57 219.88Z" id="d85dtn6K7"></path><path d="M338.9 218.53C338.9 218.53 338.89 218.53 338.89 218.53C337.04 231.89 322.25 338.8 320.4 352.16C320.4 352.16 320.41 352.16 320.41 352.16C320.01 355.04 320.87 358.06 323.01 360.27C326.62 363.99 332.48 363.99 336.08 360.27C337.56 358.73 338.41 356.83 338.7 354.86C338.7 354.86 338.7 354.86 338.7 354.86C340.55 341.5 355.35 234.58 357.2 221.22C357.19 221.22 357.18 221.22 357.18 221.22C357.58 218.35 356.71 215.33 354.58 213.12C350.97 209.4 345.12 209.4 341.5 213.12C340.02 214.64 339.17 216.55 338.9 218.53Z" id="f3tomnhxhw"></path><path d="M338.9 218.53C338.9 218.53 338.89 218.53 338.89 218.53C337.04 231.89 322.25 338.8 320.4 352.16C320.4 352.16 320.41 352.16 320.41 352.16C320.01 355.04 320.87 358.06 323.01 360.27C326.62 363.99 332.48 363.99 336.08 360.27C337.56 358.73 338.41 356.83 338.7 354.86C338.7 354.86 338.7 354.86 338.7 354.86C340.55 341.5 355.35 234.58 357.2 221.22C357.19 221.22 357.18 221.22 357.18 221.22C357.58 218.35 356.71 215.33 354.58 213.12C350.97 209.4 345.12 209.4 341.5 213.12C340.02 214.64 339.17 216.55 338.9 218.53Z" id="bb8jdrHRP"></path><path d="M264.73 218.53C264.46 216.55 263.6 214.64 262.12 213.12C258.51 209.4 252.66 209.4 249.05 213.12C246.92 215.33 246.05 218.35 246.45 221.22C246.45 221.22 246.44 221.22 246.43 221.23C248.28 234.59 263.08 341.5 264.93 354.86C264.93 354.86 264.93 354.86 264.93 354.86C265.21 356.83 266.07 358.73 267.54 360.27C271.15 363.99 277.01 363.99 280.62 360.27C282.76 358.06 283.62 355.04 283.22 352.16C283.22 352.16 283.23 352.16 283.23 352.16C283.23 352.16 283.23 352.16 283.23 352.16L264.74 218.52C264.73 218.53 264.73 218.53 264.73 218.53Z" id="c53KC9L52"></path><path d="M264.73 218.53C264.46 216.55 263.6 214.64 262.12 213.12C258.51 209.4 252.66 209.4 249.05 213.12C246.92 215.33 246.05 218.35 246.45 221.22C246.45 221.22 246.44 221.22 246.43 221.23C248.28 234.59 263.08 341.5 264.93 354.86C264.93 354.86 264.93 354.86 264.93 354.86C265.21 356.83 266.07 358.73 267.54 360.27C271.15 363.99 277.01 363.99 280.62 360.27C282.76 358.06 283.62 355.04 283.22 352.16C283.22 352.16 283.23 352.16 283.23 352.16C283.23 352.16 283.23 352.16 283.23 352.16L264.74 218.52C264.73 218.53 264.73 218.53 264.73 218.53Z" id="eVNY5ibdr"></path><path d="M246.37 66.37C246.37 66.32 246.69 60.7 243.4 54.64C238.94 46.43 230.01 40.94 216.86 38.34C211.85 37.35 208.56 32.35 209.52 27.17C210.48 21.99 215.33 18.6 220.34 19.59C233.7 22.23 251.44 29.07 260.22 46.63C265.58 57.37 264.89 66.98 264.79 68.04C262.34 67.8 256.2 67.2 246.38 66.25C246.38 66.32 246.37 66.35 246.37 66.37Z" id="a2Oqg3a54"></path><path d="M246.37 66.37C246.37 66.32 246.69 60.7 243.4 54.64C238.94 46.43 230.01 40.94 216.86 38.34C211.85 37.35 208.56 32.35 209.52 27.17C210.48 21.99 215.33 18.6 220.34 19.59C233.7 22.23 251.44 29.07 260.22 46.63C265.58 57.37 264.89 66.98 264.79 68.04C262.34 67.8 256.2 67.2 246.38 66.25C246.38 66.32 246.37 66.35 246.37 66.37Z" id="a72mKKIj17"></path><path d="M227.85 67.14C227.85 82.96 240.27 95.78 255.59 95.78C270.91 95.78 283.32 82.96 283.32 67.14C283.32 51.33 270.91 38.51 255.59 38.51C240.27 38.51 227.85 51.33 227.85 67.14Z" id="a51QIkLCEo"></path><path d="M227.85 67.14C227.85 82.96 240.27 95.78 255.59 95.78C270.91 95.78 283.32 82.96 283.32 67.14C283.32 51.33 270.91 38.51 255.59 38.51C240.27 38.51 227.85 51.33 227.85 67.14Z" id="f3vjgQveq"></path><path d="M216.55 289.46C218.06 288.78 219.72 289.72 220.28 291.57C223.39 301.97 226.33 313.7 228.79 325.5C229.19 327.4 228.28 329.51 226.7 329.83C224.33 330.31 223.5 328.87 223.17 327.26C220.76 315.7 217.88 304.21 214.83 294.03C214.28 292.18 215.05 290.14 216.55 289.46Z" id="dd6N4TAVr"></path><path d="M188.41 393.28C188.41 392.35 188.72 391.43 189.26 390.77C189.8 390.1 190.55 389.72 191.31 389.72C192.08 389.72 192.82 390.1 193.36 390.77C193.9 391.43 194.21 392.35 194.21 393.28C194.21 394.22 193.9 395.14 193.36 395.81C192.82 396.47 192.08 396.85 191.31 396.85C190.55 396.85 189.8 396.47 189.26 395.81C188.72 395.14 188.41 394.22 188.41 393.28Z" id="dIUOxDlgK"></path><path d="M188.41 393.28C188.41 392.35 188.72 391.43 189.26 390.77C189.8 390.1 190.55 389.72 191.31 389.72C192.08 389.72 192.82 390.1 193.36 390.77C193.9 391.43 194.21 392.35 194.21 393.28C194.21 394.22 193.9 395.14 193.36 395.81C192.82 396.47 192.08 396.85 191.31 396.85C190.55 396.85 189.8 396.47 189.26 395.81C188.72 395.14 188.41 394.22 188.41 393.28Z" id="d2tBmkH8G5"></path><path d="M198.27 377.56C198.27 376.62 198.58 375.7 199.12 375.04C199.66 374.38 200.41 374 201.17 374C201.94 374 202.69 374.38 203.23 375.04C203.76 375.71 204.07 376.62 204.07 377.56C204.07 378.5 203.76 379.42 203.23 380.08C202.69 380.74 201.94 381.12 201.17 381.12C200.41 381.12 199.66 380.74 199.12 380.08C198.58 379.42 198.27 378.5 198.27 377.56Z" id="b2qT9ID8wJ"></path><path d="M198.27 377.56C198.27 376.62 198.58 375.7 199.12 375.04C199.66 374.38 200.41 374 201.17 374C201.94 374 202.69 374.38 203.23 375.04C203.76 375.71 204.07 376.62 204.07 377.56C204.07 378.5 203.76 379.42 203.23 380.08C202.69 380.74 201.94 381.12 201.17 381.12C200.41 381.12 199.66 380.74 199.12 380.08C198.58 379.42 198.27 378.5 198.27 377.56Z" id="c1HA9lqr2C"></path><path d="M211.62 377.56C211.62 376.62 211.93 375.7 212.47 375.04C213.01 374.38 213.75 374 214.52 374C215.28 374 216.03 374.38 216.57 375.04C217.11 375.71 217.42 376.62 217.42 377.56C217.42 378.5 217.11 379.42 216.57 380.08C216.03 380.74 215.28 381.12 214.52 381.12C213.76 381.12 213.01 380.74 212.47 380.08C211.93 379.42 211.62 378.5 211.62 377.56Z" id="dyWgMtbxn"></path><path d="M211.62 377.56C211.62 376.62 211.93 375.7 212.47 375.04C213.01 374.38 213.75 374 214.52 374C215.28 374 216.03 374.38 216.57 375.04C217.11 375.71 217.42 376.62 217.42 377.56C217.42 378.5 217.11 379.42 216.57 380.08C216.03 380.74 215.28 381.12 214.52 381.12C213.76 381.12 213.01 380.74 212.47 380.08C211.93 379.42 211.62 378.5 211.62 377.56Z" id="b5CgUpbJI"></path><path d="M185.51 370.44C185.51 369.5 185.82 368.58 186.36 367.92C186.9 367.26 187.65 366.88 188.41 366.88C189.17 366.88 189.92 367.26 190.46 367.92C191 368.59 191.31 369.5 191.31 370.44C191.31 371.38 191 372.29 190.46 372.96C189.92 373.62 189.17 374 188.41 374C187.65 374 186.9 373.62 186.36 372.96C185.82 372.29 185.51 371.38 185.51 370.44Z" id="c7bdECMKI"></path><path d="M185.51 370.44C185.51 369.5 185.82 368.58 186.36 367.92C186.9 367.26 187.65 366.88 188.41 366.88C189.17 366.88 189.92 367.26 190.46 367.92C191 368.59 191.31 369.5 191.31 370.44C191.31 371.38 191 372.29 190.46 372.96C189.92 373.62 189.17 374 188.41 374C187.65 374 186.9 373.62 186.36 372.96C185.82 372.29 185.51 371.38 185.51 370.44Z" id="eJTpXojN4"></path><path d="M202.65 356.12C202.65 355.19 202.96 354.26 203.5 353.6C204.04 352.94 204.78 352.56 205.55 352.56C206.31 352.56 207.06 352.94 207.6 353.6C208.14 354.27 208.45 355.18 208.45 356.12C208.45 357.06 208.14 357.98 207.6 358.64C207.06 359.3 206.31 359.68 205.55 359.68C204.78 359.68 204.04 359.3 203.5 358.64C202.96 357.98 202.65 357.06 202.65 356.12Z" id="a34enUywI2"></path><path d="M202.65 356.12C202.65 355.19 202.96 354.26 203.5 353.6C204.04 352.94 204.78 352.56 205.55 352.56C206.31 352.56 207.06 352.94 207.6 353.6C208.14 354.27 208.45 355.18 208.45 356.12C208.45 357.06 208.14 357.98 207.6 358.64C207.06 359.3 206.31 359.68 205.55 359.68C204.78 359.68 204.04 359.3 203.5 358.64C202.96 357.98 202.65 357.06 202.65 356.12Z" id="a2nDOI3R5M"></path><path d="M204.07 396.85C204.07 395.91 204.38 394.99 204.92 394.33C205.47 393.66 206.21 393.28 206.97 393.28C207.74 393.28 208.49 393.66 209.03 394.33C209.57 394.99 209.88 395.91 209.88 396.85C209.88 397.79 209.57 398.7 209.03 399.37C208.49 400.03 207.74 400.41 206.97 400.41C206.21 400.41 205.47 400.03 204.92 399.37C204.38 398.7 204.07 397.79 204.07 396.85Z" id="cYIkIeGjz"></path><path d="M204.07 396.85C204.07 395.91 204.38 394.99 204.92 394.33C205.47 393.66 206.21 393.28 206.97 393.28C207.74 393.28 208.49 393.66 209.03 394.33C209.57 394.99 209.88 395.91 209.88 396.85C209.88 397.79 209.57 398.7 209.03 399.37C208.49 400.03 207.74 400.41 206.97 400.41C206.21 400.41 205.47 400.03 204.92 399.37C204.38 398.7 204.07 397.79 204.07 396.85Z" id="a2Hb6AcAed"></path><path d="M201.17 330.8C201.17 329.87 201.48 328.95 202.02 328.29C202.56 327.62 203.31 327.24 204.07 327.24C204.84 327.24 205.59 327.62 206.13 328.29C206.67 328.95 206.97 329.87 206.97 330.8C206.97 331.74 206.66 332.66 206.13 333.32C205.59 333.98 204.84 334.36 204.07 334.36C203.31 334.36 202.57 333.98 202.02 333.32C201.48 332.66 201.17 331.74 201.17 330.8Z" id="a27STYKb05"></path><path d="M201.17 330.8C201.17 329.87 201.48 328.95 202.02 328.29C202.56 327.62 203.31 327.24 204.07 327.24C204.84 327.24 205.59 327.62 206.13 328.29C206.67 328.95 206.97 329.87 206.97 330.8C206.97 331.74 206.66 332.66 206.13 333.32C205.59 333.98 204.84 334.36 204.07 334.36C203.31 334.36 202.57 333.98 202.02 333.32C201.48 332.66 201.17 331.74 201.17 330.8Z" id="enqBL4mZM"></path><path d="M191.31 347.24C191.31 346.31 191.62 345.38 192.16 344.72C192.7 344.06 193.45 343.68 194.21 343.68C194.98 343.68 195.72 344.06 196.26 344.72C196.8 345.39 197.11 346.31 197.11 347.24C197.11 348.18 196.8 349.1 196.26 349.76C195.72 350.42 194.98 350.8 194.21 350.8C193.45 350.8 192.7 350.42 192.16 349.76C191.62 349.1 191.31 348.18 191.31 347.24Z" id="c6aTMhNN3j"></path><path d="M191.31 347.24C191.31 346.31 191.62 345.38 192.16 344.72C192.7 344.06 193.45 343.68 194.21 343.68C194.98 343.68 195.72 344.06 196.26 344.72C196.8 345.39 197.11 346.31 197.11 347.24C197.11 348.18 196.8 349.1 196.26 349.76C195.72 350.42 194.98 350.8 194.21 350.8C193.45 350.8 192.7 350.42 192.16 349.76C191.62 349.1 191.31 348.18 191.31 347.24Z" id="a116Mjzg6j"></path><path d="M196.87 294.47L143.36 294.47C143.36 295.41 143.36 295.94 143.36 296.04C143.36 304.49 137.77 312.36 128.67 316.13C95.75 329.73 72.97 359.03 72.97 393C72.97 439.94 116.46 478 170.11 478C223.76 478 267.25 439.94 267.25 393C267.25 359.03 244.47 329.73 211.56 316.13C202.46 312.36 196.87 304.49 196.87 296.04C196.87 295.83 196.87 295.31 196.87 294.47Z" id="b6XPudtWu6"></path><path d="M145.04 316.13C154.14 312.36 159.73 304.49 159.73 296.04C159.73 295.94 159.73 295.41 159.73 294.47L143.36 294.47C143.36 295.41 143.36 295.94 143.36 296.04C143.36 304.49 137.77 312.36 128.67 316.13C95.75 329.73 72.97 359.03 72.97 393C72.97 439.94 116.46 478 170.11 478C172.87 478 175.6 477.89 178.3 477.69C128.48 474.06 89.34 437.53 89.34 393C89.34 359.03 112.12 329.73 145.04 316.13Z" id="cNTXxvKH"></path><path d="M182.76 450C175.8 444.22 164.42 444.22 157.47 450C154.92 452.12 134.53 469.07 131.98 471.19C155.92 480.14 183.61 480.4 208.24 471.19C203.15 466.95 185.31 452.12 182.76 450Z" id="ampgE7llz"></path><path d="M135.12 437.61C128.16 431.83 116.78 431.83 109.82 437.61C108.51 438.71 97.96 447.47 96.64 448.57C106.25 458.28 118.33 466.05 132.01 471.17C133.46 469.96 140.7 463.94 153.74 453.1C142.57 443.81 136.36 438.64 135.12 437.61Z" id="b3ZiYsS776"></path><path d="M106.09 440.71C105.15 441.5 97.59 447.78 96.64 448.57C106.24 458.28 118.33 466.05 132.01 471.17C132.39 470.85 134.26 469.29 137.64 466.48C122.06 456.31 111.54 447.72 106.09 440.71Z" id="b1fR40M71"></path><path d="M205.11 437.61C203.87 438.64 197.66 443.81 186.48 453.1C199.52 463.94 206.77 469.96 208.22 471.17C221.9 466.05 233.98 458.28 243.58 448.57C242.7 447.84 238.31 444.18 230.4 437.61C218.18 433.75 209.75 433.75 205.11 437.61Z" id="aEJeXzHEW"></path><path d="M157.47 450C164.42 444.22 175.8 444.22 182.76 450C183.13 450.31 186.11 452.79 186.48 453.1C206.82 436.19 205.97 436.67 208.63 435.36C206.04 433.21 185.35 416 182.76 413.85C175.8 408.06 164.42 408.06 157.47 413.85C154.88 416 134.18 433.21 131.59 435.36C134.25 436.67 133.42 436.2 153.74 453.1C154.49 452.48 157.09 450.31 157.47 450Z" id="a8RflPV6O"></path><path d="M230.4 437.61C231.72 438.71 242.26 447.47 243.58 448.57C251.35 440.72 257.5 431.62 261.58 421.65C259.27 419.73 240.82 404.39 238.51 402.47C231.56 396.69 220.18 396.69 213.22 402.47C211.75 403.69 204.39 409.81 191.15 420.82L208.63 435.36C219.23 433.6 226.48 434.35 230.4 437.61Z" id="n2AXYG4MJH"></path><path d="M131.59 435.36C132.76 434.39 138.59 429.54 149.08 420.82C135.84 409.81 128.48 403.69 127.01 402.47C120.05 396.68 108.67 396.68 101.71 402.47C99.41 404.39 80.95 419.73 78.64 421.65C82.72 431.62 88.88 440.72 96.64 448.57C97.52 447.84 101.92 444.18 109.82 437.61C119.77 433.86 127.02 433.11 131.59 435.36Z" id="b335NdLsGE"></path><path d="M78.64 421.65C82.72 431.62 88.88 440.72 96.64 448.57C97.59 447.78 105.15 441.5 106.09 440.71C99.2 431.85 94.18 421.78 91.52 410.95C88.94 413.09 79.93 420.58 78.64 421.65Z" id="ccMk0Aqy9"></path><path d="M191.15 420.82C191.15 420.82 191.15 420.82 191.15 420.82C215.17 400.85 213.5 402.19 214.49 401.51C211.32 398.87 185.93 377.76 182.76 375.13C175.8 369.34 164.42 369.34 157.47 375.13C154.29 377.76 128.91 398.87 125.73 401.51C126.73 402.2 125.1 400.88 149.08 420.82C149.08 420.82 149.08 420.82 149.08 420.82C154.11 416.64 156.91 414.31 157.47 413.85C164.42 408.06 175.8 408.06 182.76 413.85C183.88 414.78 186.67 417.1 191.15 420.82Z" id="a1W1iy6hMX"></path><path d="M125.73 401.51C127.45 400.09 136.01 392.97 151.42 380.16C136.47 367.73 128.17 360.83 126.51 359.45C119.55 353.66 108.17 353.66 101.22 359.45C98.47 361.73 76.52 379.98 73.77 382.27C73.26 385.78 72.97 389.36 72.97 393C72.97 403.05 74.98 412.69 78.65 421.64C80.19 420.37 87.88 413.97 101.71 402.47C113.06 398.63 121.06 398.31 125.73 401.51Z" id="b1U7aZIV2C"></path><path d="M94.86 364.73C92.75 366.48 75.88 380.51 73.77 382.26C73.39 384.87 73.14 387.51 73.03 390.18C73 391.1 72.97 392.03 72.97 392.96C72.97 392.97 72.97 392.98 72.97 393C72.97 393 72.97 393.01 72.97 393.02C72.97 393.69 72.99 394.36 73 395.03C73.01 395.28 73.02 395.53 73.03 395.78C73.05 396.21 73.06 396.63 73.09 397.05C73.1 397.36 73.12 397.67 73.14 397.98C73.17 398.33 73.19 398.67 73.22 399.02C73.25 399.38 73.28 399.73 73.31 400.09C73.34 400.37 73.37 400.64 73.4 400.92C73.44 401.33 73.49 401.74 73.54 402.15C73.56 402.32 73.58 402.49 73.6 402.65C74.46 409.24 76.18 415.6 78.65 421.64C79.94 420.57 90.23 412.02 91.52 410.95C90.1 405.16 89.34 399.16 89.34 393C89.34 383.08 91.3 373.57 94.86 364.73Z" id="c4FF4yWFYl"></path><path d="M238.51 402.47C240.82 404.39 259.27 419.73 261.57 421.64C265.24 412.69 267.25 403.05 267.25 393C267.25 389.36 266.96 385.78 266.46 382.26C263.71 379.98 241.75 361.73 239.01 359.45C232.05 353.66 220.67 353.66 213.72 359.45C212.06 360.83 203.75 367.73 188.81 380.16L214.49 401.51C226.14 398.52 234.15 398.84 238.51 402.47Z" id="el3FlONdd"></path><path d="M157.47 375.13C164.42 369.34 175.8 369.34 182.76 375.13C183.16 375.46 185.18 377.14 188.81 380.16L212.34 360.59C194.59 345.83 184.73 337.63 182.76 335.99C175.8 330.21 164.42 330.21 157.47 335.99C155.49 337.63 145.63 345.83 127.88 360.59L151.42 380.16C155.05 377.14 157.06 375.46 157.47 375.13Z" id="a1PcGGjldr"></path><path d="M213.72 359.45C220.67 353.66 232.06 353.66 239.01 359.45C240.65 360.81 248.86 367.63 263.63 379.91C264.9 378.86 265.61 378.27 265.75 378.15C260.19 350.55 239.43 327.55 211.29 316.01C209.54 317.46 200.78 324.75 185.01 337.86L212.34 360.59C213.17 359.9 213.63 359.52 213.72 359.45Z" id="b10DPYAf1"></path><path d="M126.51 359.45C126.6 359.52 127.06 359.9 127.88 360.59L155.22 337.86C139.45 324.75 130.68 317.47 128.93 316.01C100.79 327.55 80.04 350.56 74.48 378.16C74.62 378.27 75.33 378.86 76.6 379.92L101.22 359.45C113.44 355.59 121.87 355.59 126.51 359.45Z" id="d2Kh2498xT"></path><path d="M134.92 320.99C134.32 320.49 129.53 316.51 128.93 316.01C128.91 316.02 128.88 316.03 128.86 316.04C128.79 316.07 128.73 316.1 128.67 316.13C127.64 316.55 126.63 316.99 125.63 317.44C125.61 317.45 125.6 317.45 125.59 317.46C124.64 317.89 123.69 318.33 122.76 318.79C122.66 318.84 122.55 318.9 122.44 318.95C121.59 319.37 120.75 319.8 119.91 320.24C119.79 320.31 119.66 320.37 119.54 320.44C118.68 320.9 117.83 321.37 116.98 321.85C116.91 321.89 116.84 321.93 116.77 321.97C114.92 323.04 113.12 324.16 111.36 325.33C111.26 325.4 111.15 325.47 111.05 325.54C110.33 326.02 109.61 326.52 108.91 327.02C108.65 327.2 108.39 327.39 108.13 327.58C107.59 327.97 107.05 328.37 106.52 328.77C106.21 329.01 105.9 329.25 105.59 329.49C105.12 329.85 104.67 330.22 104.22 330.58C103.87 330.86 103.53 331.14 103.19 331.42C102.79 331.75 102.4 332.09 102.01 332.43C101.64 332.74 101.27 333.06 100.9 333.38C100.61 333.64 100.32 333.92 100.02 334.18C98.4 335.66 96.84 337.19 95.34 338.77C95.21 338.91 95.07 339.05 94.94 339.19C94.44 339.73 93.94 340.28 93.45 340.83C93.33 340.96 93.22 341.09 93.1 341.22C92.59 341.8 92.08 342.39 91.59 342.99C91.53 343.06 91.47 343.13 91.4 343.21C82.98 353.39 77.07 365.27 74.48 378.16C74.62 378.27 75.33 378.86 76.6 379.92L94.86 364.73C109.28 342.32 122.63 327.74 134.92 320.99Z" id="fH32MyNt3"></path><path d="M211.73 233.92C210.85 256.41 200.17 284.64 172.83 296.43C169.63 297.81 168.42 301.03 170.12 303.62C171.84 306.21 175.8 307.19 179.02 305.81C211.3 291.89 223.87 259.72 224.87 234.26C224.98 231.32 222.14 228.87 218.51 228.78C218.43 228.77 218.36 228.77 218.29 228.77C214.76 228.77 211.85 231.04 211.73 233.92Z" id="a163LEmcIB"></path><path d="M172.46 280.35C168.99 254.66 150.69 234.48 127.38 230.65C125.91 230.41 118.56 229.2 105.32 227.03C107.29 241.63 108.39 249.74 108.61 251.36C112.08 277.06 130.38 297.24 153.69 301.07C155.16 301.31 162.51 302.52 175.75 304.69C173.78 290.09 172.68 281.98 172.46 280.35Z" id="h4SLV5eEx"></path></defs><g><g><g><use xlink:href="#eG39zrlQm" opacity="1" fill="#f8933d" fill-opacity="1"></use><g><use xlink:href="#eG39zrlQm" opacity="1" fill-opacity="0" stroke="#000000" stroke-width="1" stroke-opacity="0"></use></g></g><g><use xlink:href="#azQwAbNB5" opacity="1" fill="#000000" fill-opacity="0"></use><g><use xlink:href="#azQwAbNB5" opacity="1" fill-opacity="0" stroke="#000000" stroke-width="1" stroke-opacity="0"></use></g></g><g><use xlink:href="#e8Kd0t3mM" opacity="1" fill="#ff6243" fill-opacity="1"></use><g><use xlink:href="#e8Kd0t3mM" opacity="1" fill-opacity="0" stroke="#000000" stroke-width="1" stroke-opacity="0"></use></g></g><g><use xlink:href="#fhzMqbwhg" opacity="1" fill="#000000" fill-opacity="0"></use><g><use xlink:href="#fhzMqbwhg" opacity="1" fill-opacity="0" stroke="#000000" stroke-width="1" stroke-opacity="0"></use></g></g><g><use xlink:href="#cPnORdfoo" opacity="1" fill="#ed5564" fill-opacity="1"></use><g><use xlink:href="#cPnORdfoo" opacity="1" fill-opacity="0" stroke="#000000" stroke-width="1" stroke-opacity="0"></use></g></g><g><use xlink:href="#hryMbQrJo" opacity="1" fill="#000000" fill-opacity="0"></use><g><use xlink:href="#hryMbQrJo" opacity="1" fill-opacity="0" stroke="#000000" stroke-width="1" stroke-opacity="0"></use></g></g><g><use xlink:href="#dUY5s92uC" opacity="1" fill="#e6e9ed" fill-opacity="1"></use><g><use xlink:href="#dUY5s92uC" opacity="1" fill-opacity="0" stroke="#000000" stroke-width="1" stroke-opacity="0"></use></g></g><g><use xlink:href="#a1bcjNOcOk" opacity="1" fill="#000000" fill-opacity="0"></use><g><use xlink:href="#a1bcjNOcOk" opacity="1" fill-opacity="0" stroke="#000000" stroke-width="1" stroke-opacity="0"></use></g></g><g><use xlink:href="#cWKBQMkiv" opacity="1" fill="#ccd1d9" fill-opacity="1"></use><g><use xlink:href="#cWKBQMkiv" opacity="1" fill-opacity="0" stroke="#000000" stroke-width="1" stroke-opacity="0"></use></g></g><g><use xlink:href="#cw4XCwfiN" opacity="1" fill="#000000" fill-opacity="0"></use><g><use xlink:href="#cw4XCwfiN" opacity="1" fill-opacity="0" stroke="#000000" stroke-width="1" stroke-opacity="0"></use></g></g><g><use xlink:href="#can6ZnD0t" opacity="1" fill="#7bc2d4" fill-opacity="1"></use><g><use xlink:href="#can6ZnD0t" opacity="1" fill-opacity="0" stroke="#000000" stroke-width="1" stroke-opacity="0"></use></g></g><g><use xlink:href="#a854vOZrpz" opacity="1" fill="#000000" fill-opacity="0"></use><g><use xlink:href="#a854vOZrpz" opacity="1" fill-opacity="0" stroke="#000000" stroke-width="1" stroke-opacity="0"></use></g></g><g><use xlink:href="#i1sJL49tjo" opacity="1" fill="#5697ee" fill-opacity="1"></use><g><use xlink:href="#i1sJL49tjo" opacity="1" fill-opacity="0" stroke="#000000" stroke-width="1" stroke-opacity="0"></use></g></g><g><use xlink:href="#a1okK8LtF8" opacity="1" fill="#000000" fill-opacity="0"></use><g><use xlink:href="#a1okK8LtF8" opacity="1" fill-opacity="0" stroke="#000000" stroke-width="1" stroke-opacity="0"></use></g></g><g><use xlink:href="#arTHWKMUT" opacity="1" fill="#5697ee" fill-opacity="1"></use><g><use xlink:href="#arTHWKMUT" opacity="1" fill-opacity="0" stroke="#000000" stroke-width="1" stroke-opacity="0"></use></g></g><g><use xlink:href="#bRbsrYZz" opacity="1" fill="#000000" fill-opacity="0"></use><g><use xlink:href="#bRbsrYZz" opacity="1" fill-opacity="0" stroke="#000000" stroke-width="1" stroke-opacity="0"></use></g></g><g><use xlink:href="#d8DMPac0b" opacity="1" fill="#5697ee" fill-opacity="1"></use><g><use xlink:href="#d8DMPac0b" opacity="1" fill-opacity="0" stroke="#000000" stroke-width="1" stroke-opacity="0"></use></g></g><g><use xlink:href="#aa0B1H8y" opacity="1" fill="#000000" fill-opacity="0"></use><g><use xlink:href="#aa0B1H8y" opacity="1" fill-opacity="0" stroke="#000000" stroke-width="1" stroke-opacity="0"></use></g></g><g><use xlink:href="#gjPdXKfYp" opacity="1" fill="#5697ee" fill-opacity="1"></use><g><use xlink:href="#gjPdXKfYp" opacity="1" fill-opacity="0" stroke="#000000" stroke-width="1" stroke-opacity="0"></use></g></g><g><use xlink:href="#a2ChpE8IfH" opacity="1" fill="#000000" fill-opacity="0"></use><g><use xlink:href="#a2ChpE8IfH" opacity="1" fill-opacity="0" stroke="#000000" stroke-width="1" stroke-opacity="0"></use></g></g><g><use xlink:href="#d1DcKQesJ" opacity="1" fill="#5697ee" fill-opacity="1"></use><g><use xlink:href="#d1DcKQesJ" opacity="1" fill-opacity="0" stroke="#000000" stroke-width="1" stroke-opacity="0"></use></g></g><g><use xlink:href="#bBm0TSZ7i" opacity="1" fill="#000000" fill-opacity="0"></use><g><use xlink:href="#bBm0TSZ7i" opacity="1" fill-opacity="0" stroke="#000000" stroke-width="1" stroke-opacity="0"></use></g></g><g><use xlink:href="#azq2XKrB" opacity="1" fill="#f5f7fa" fill-opacity="1"></use><g><use xlink:href="#azq2XKrB" opacity="1" fill-opacity="0" stroke="#000000" stroke-width="1" stroke-opacity="0"></use></g></g><g><use xlink:href="#a105NgTxnv" opacity="1" fill="#000000" fill-opacity="0"></use><g><use xlink:href="#a105NgTxnv" opacity="1" fill-opacity="0" stroke="#000000" stroke-width="1" stroke-opacity="0"></use></g></g><g><use xlink:href="#b3u0ge1CGt" opacity="1" fill="#f5f7fa" fill-opacity="1"></use><g><use xlink:href="#b3u0ge1CGt" opacity="1" fill-opacity="0" stroke="#000000" stroke-width="1" stroke-opacity="0"></use></g></g><g><use xlink:href="#aZm2wPXTe" opacity="1" fill="#000000" fill-opacity="0"></use><g><use xlink:href="#aZm2wPXTe" opacity="1" fill-opacity="0" stroke="#000000" stroke-width="1" stroke-opacity="0"></use></g></g><g><use xlink:href="#i1jQG6hOPI" opacity="1" fill="#e6e9ed" fill-opacity="1"></use><g><use xlink:href="#i1jQG6hOPI" opacity="1" fill-opacity="0" stroke="#000000" stroke-width="1" stroke-opacity="0"></use></g></g><g><use xlink:href="#d1rikZ51AO" opacity="1" fill="#000000" fill-opacity="0"></use><g><use xlink:href="#d1rikZ51AO" opacity="1" fill-opacity="0" stroke="#000000" stroke-width="1" stroke-opacity="0"></use></g></g><g><use xlink:href="#i1dRGscCV4" opacity="1" fill="#5697ee" fill-opacity="1"></use><g><use xlink:href="#i1dRGscCV4" opacity="1" fill-opacity="0" stroke="#000000" stroke-width="1" stroke-opacity="0"></use></g></g><g><use xlink:href="#j1rRCroM1X" opacity="1" fill="#000000" fill-opacity="0"></use><g><use xlink:href="#j1rRCroM1X" opacity="1" fill-opacity="0" stroke="#000000" stroke-width="1" stroke-opacity="0"></use></g></g><g><use xlink:href="#c2L0x1EwV2" opacity="1" fill="#5697ee" fill-opacity="1"></use><g><use xlink:href="#c2L0x1EwV2" opacity="1" fill-opacity="0" stroke="#000000" stroke-width="1" stroke-opacity="0"></use></g></g><g><use xlink:href="#d85dtn6K7" opacity="1" fill="#000000" fill-opacity="0"></use><g><use xlink:href="#d85dtn6K7" opacity="1" fill-opacity="0" stroke="#000000" stroke-width="1" stroke-opacity="0"></use></g></g><g><use xlink:href="#f3tomnhxhw" opacity="1" fill="#5697ee" fill-opacity="1"></use><g><use xlink:href="#f3tomnhxhw" opacity="1" fill-opacity="0" stroke="#000000" stroke-width="1" stroke-opacity="0"></use></g></g><g><use xlink:href="#bb8jdrHRP" opacity="1" fill="#000000" fill-opacity="0"></use><g><use xlink:href="#bb8jdrHRP" opacity="1" fill-opacity="0" stroke="#000000" stroke-width="1" stroke-opacity="0"></use></g></g><g><use xlink:href="#c53KC9L52" opacity="1" fill="#5697ee" fill-opacity="1"></use><g><use xlink:href="#c53KC9L52" opacity="1" fill-opacity="0" stroke="#000000" stroke-width="1" stroke-opacity="0"></use></g></g><g><use xlink:href="#eVNY5ibdr" opacity="1" fill="#000000" fill-opacity="0"></use><g><use xlink:href="#eVNY5ibdr" opacity="1" fill-opacity="0" stroke="#000000" stroke-width="1" stroke-opacity="0"></use></g></g><g><use xlink:href="#a2Oqg3a54" opacity="1" fill="#434a54" fill-opacity="1"></use><g><use xlink:href="#a2Oqg3a54" opacity="1" fill-opacity="0" stroke="#000000" stroke-width="1" stroke-opacity="0"></use></g></g><g><use xlink:href="#a72mKKIj17" opacity="1" fill="#000000" fill-opacity="0"></use><g><use xlink:href="#a72mKKIj17" opacity="1" fill-opacity="0" stroke="#000000" stroke-width="1" stroke-opacity="0"></use></g></g><g><use xlink:href="#a51QIkLCEo" opacity="1" fill="#ed5564" fill-opacity="1"></use><g><use xlink:href="#a51QIkLCEo" opacity="1" fill-opacity="0" stroke="#000000" stroke-width="1" stroke-opacity="0"></use></g></g><g><use xlink:href="#f3vjgQveq" opacity="1" fill="#000000" fill-opacity="0"></use><g><use xlink:href="#f3vjgQveq" opacity="1" fill-opacity="0" stroke="#000000" stroke-width="1" stroke-opacity="0"></use></g></g><g><use xlink:href="#dd6N4TAVr" opacity="1" fill="#ff6243" fill-opacity="1"></use><g><use xlink:href="#dd6N4TAVr" opacity="1" fill-opacity="0" stroke="#000000" stroke-width="1" stroke-opacity="0"></use></g></g><g><use xlink:href="#dIUOxDlgK" opacity="1" fill="#2d2d30" fill-opacity="1"></use><g><use xlink:href="#dIUOxDlgK" opacity="1" fill-opacity="0" stroke="#000000" stroke-width="1" stroke-opacity="0"></use></g></g><g><use xlink:href="#d2tBmkH8G5" opacity="1" fill="#000000" fill-opacity="0"></use><g><use xlink:href="#d2tBmkH8G5" opacity="1" fill-opacity="0" stroke="#000000" stroke-width="1" stroke-opacity="0"></use></g></g><g><use xlink:href="#b2qT9ID8wJ" opacity="1" fill="#2d2d30" fill-opacity="1"></use><g><use xlink:href="#b2qT9ID8wJ" opacity="1" fill-opacity="0" stroke="#000000" stroke-width="1" stroke-opacity="0"></use></g></g><g><use xlink:href="#c1HA9lqr2C" opacity="1" fill="#000000" fill-opacity="0"></use><g><use xlink:href="#c1HA9lqr2C" opacity="1" fill-opacity="0" stroke="#000000" stroke-width="1" stroke-opacity="0"></use></g></g><g><use xlink:href="#dyWgMtbxn" opacity="1" fill="#2d2d30" fill-opacity="1"></use><g><use xlink:href="#dyWgMtbxn" opacity="1" fill-opacity="0" stroke="#000000" stroke-width="1" stroke-opacity="0"></use></g></g><g><use xlink:href="#b5CgUpbJI" opacity="1" fill="#000000" fill-opacity="0"></use><g><use xlink:href="#b5CgUpbJI" opacity="1" fill-opacity="0" stroke="#000000" stroke-width="1" stroke-opacity="0"></use></g></g><g><use xlink:href="#c7bdECMKI" opacity="1" fill="#2d2d30" fill-opacity="1"></use><g><use xlink:href="#c7bdECMKI" opacity="1" fill-opacity="0" stroke="#000000" stroke-width="1" stroke-opacity="0"></use></g></g><g><use xlink:href="#eJTpXojN4" opacity="1" fill="#000000" fill-opacity="0"></use><g><use xlink:href="#eJTpXojN4" opacity="1" fill-opacity="0" stroke="#000000" stroke-width="1" stroke-opacity="0"></use></g></g><g><use xlink:href="#a34enUywI2" opacity="1" fill="#2d2d30" fill-opacity="1"></use><g><use xlink:href="#a34enUywI2" opacity="1" fill-opacity="0" stroke="#000000" stroke-width="1" stroke-opacity="0"></use></g></g><g><use xlink:href="#a2nDOI3R5M" opacity="1" fill="#000000" fill-opacity="0"></use><g><use xlink:href="#a2nDOI3R5M" opacity="1" fill-opacity="0" stroke="#000000" stroke-width="1" stroke-opacity="0"></use></g></g><g><use xlink:href="#cYIkIeGjz" opacity="1" fill="#2d2d30" fill-opacity="1"></use><g><use xlink:href="#cYIkIeGjz" opacity="1" fill-opacity="0" stroke="#000000" stroke-width="1" stroke-opacity="0"></use></g></g><g><use xlink:href="#a2Hb6AcAed" opacity="1" fill="#000000" fill-opacity="0"></use><g><use xlink:href="#a2Hb6AcAed" opacity="1" fill-opacity="0" stroke="#000000" stroke-width="1" stroke-opacity="0"></use></g></g><g><use xlink:href="#a27STYKb05" opacity="1" fill="#2d2d30" fill-opacity="1"></use><g><use xlink:href="#a27STYKb05" opacity="1" fill-opacity="0" stroke="#000000" stroke-width="1" stroke-opacity="0"></use></g></g><g><use xlink:href="#enqBL4mZM" opacity="1" fill="#000000" fill-opacity="0"></use><g><use xlink:href="#enqBL4mZM" opacity="1" fill-opacity="0" stroke="#000000" stroke-width="1" stroke-opacity="0"></use></g></g><g><use xlink:href="#c6aTMhNN3j" opacity="1" fill="#2d2d30" fill-opacity="1"></use><g><use xlink:href="#c6aTMhNN3j" opacity="1" fill-opacity="0" stroke="#000000" stroke-width="1" stroke-opacity="0"></use></g></g><g><use xlink:href="#a116Mjzg6j" opacity="1" fill="#000000" fill-opacity="0"></use><g><use xlink:href="#a116Mjzg6j" opacity="1" fill-opacity="0" stroke="#000000" stroke-width="1" stroke-opacity="0"></use></g></g><g><use xlink:href="#b6XPudtWu6" opacity="1" fill="#6ed844" fill-opacity="1"></use><g><use xlink:href="#b6XPudtWu6" opacity="1" fill-opacity="0" stroke="#000000" stroke-width="1" stroke-opacity="0"></use></g></g><g><use xlink:href="#cNTXxvKH" opacity="1" fill="#65bd41" fill-opacity="1"></use><g><use xlink:href="#cNTXxvKH" opacity="1" fill-opacity="0" stroke="#000000" stroke-width="1" stroke-opacity="0"></use></g></g><g><use xlink:href="#ampgE7llz" opacity="1" fill="#4b932d" fill-opacity="1"></use><g><use xlink:href="#ampgE7llz" opacity="1" fill-opacity="0" stroke="#000000" stroke-width="1" stroke-opacity="0"></use></g></g><g><use xlink:href="#b3ZiYsS776" opacity="1" fill="#65bd41" fill-opacity="1"></use><g><use xlink:href="#b3ZiYsS776" opacity="1" fill-opacity="0" stroke="#000000" stroke-width="1" stroke-opacity="0"></use></g></g><g><use xlink:href="#b1fR40M71" opacity="1" fill="#4b932d" fill-opacity="1"></use><g><use xlink:href="#b1fR40M71" opacity="1" fill-opacity="0" stroke="#000000" stroke-width="1" stroke-opacity="0"></use></g></g><g><use xlink:href="#aEJeXzHEW" opacity="1" fill="#65bd41" fill-opacity="1"></use><g><use xlink:href="#aEJeXzHEW" opacity="1" fill-opacity="0" stroke="#000000" stroke-width="1" stroke-opacity="0"></use></g></g><g><use xlink:href="#a8RflPV6O" opacity="1" fill="#4b932d" fill-opacity="1"></use><g><use xlink:href="#a8RflPV6O" opacity="1" fill-opacity="0" stroke="#000000" stroke-width="1" stroke-opacity="0"></use></g></g><g><use xlink:href="#n2AXYG4MJH" opacity="1" fill="#6ed844" fill-opacity="1"></use><g><use xlink:href="#n2AXYG4MJH" opacity="1" fill-opacity="0" stroke="#000000" stroke-width="1" stroke-opacity="0"></use></g></g><g><use xlink:href="#b335NdLsGE" opacity="1" fill="#6ed844" fill-opacity="1"></use><g><use xlink:href="#b335NdLsGE" opacity="1" fill-opacity="0" stroke="#000000" stroke-width="1" stroke-opacity="0"></use></g></g><g><use xlink:href="#ccMk0Aqy9" opacity="1" fill="#65bd41" fill-opacity="1"></use><g><use xlink:href="#ccMk0Aqy9" opacity="1" fill-opacity="0" stroke="#000000" stroke-width="1" stroke-opacity="0"></use></g></g><g><use xlink:href="#a1W1iy6hMX" opacity="1" fill="#65bd41" fill-opacity="1"></use><g><use xlink:href="#a1W1iy6hMX" opacity="1" fill-opacity="0" stroke="#000000" stroke-width="1" stroke-opacity="0"></use></g></g><g><use xlink:href="#b1U7aZIV2C" opacity="1" fill="#4b932d" fill-opacity="1"></use><g><use xlink:href="#b1U7aZIV2C" opacity="1" fill-opacity="0" stroke="#000000" stroke-width="1" stroke-opacity="0"></use></g></g><g><use xlink:href="#c4FF4yWFYl" opacity="1" fill="#30aa44" fill-opacity="1"></use><g><use xlink:href="#c4FF4yWFYl" opacity="1" fill-opacity="0" stroke="#000000" stroke-width="1" stroke-opacity="0"></use></g></g><g><use xlink:href="#el3FlONdd" opacity="1" fill="#4b932d" fill-opacity="1"></use><g><use xlink:href="#el3FlONdd" opacity="1" fill-opacity="0" stroke="#000000" stroke-width="1" stroke-opacity="0"></use></g></g><g><use xlink:href="#a1PcGGjldr" opacity="1" fill="#30aa44" fill-opacity="1"></use><g><use xlink:href="#a1PcGGjldr" opacity="1" fill-opacity="0" stroke="#000000" stroke-width="1" stroke-opacity="0"></use></g></g><g><use xlink:href="#b10DPYAf1" opacity="1" fill="#65bd41" fill-opacity="1"></use><g><use xlink:href="#b10DPYAf1" opacity="1" fill-opacity="0" stroke="#000000" stroke-width="1" stroke-opacity="0"></use></g></g><g><use xlink:href="#d2Kh2498xT" opacity="1" fill="#65bd41" fill-opacity="1"></use><g><use xlink:href="#d2Kh2498xT" opacity="1" fill-opacity="0" stroke="#000000" stroke-width="1" stroke-opacity="0"></use></g></g><g><use xlink:href="#fH32MyNt3" opacity="1" fill="#4b932d" fill-opacity="1"></use><g><use xlink:href="#fH32MyNt3" opacity="1" fill-opacity="0" stroke="#000000" stroke-width="1" stroke-opacity="0"></use></g></g><g><use xlink:href="#a163LEmcIB" opacity="1" fill="#4c312c" fill-opacity="1"></use><g><use xlink:href="#a163LEmcIB" opacity="1" fill-opacity="0" stroke="#000000" stroke-width="1" stroke-opacity="0"></use></g></g><g><use xlink:href="#h4SLV5eEx" opacity="1" fill="#659c35" fill-opacity="1"></use><g><use xlink:href="#h4SLV5eEx" opacity="1" fill-opacity="0" stroke="#000000" stroke-width="1" stroke-opacity="0"></use></g></g></g></g></svg>