<?xml version="1.0" encoding="UTF-8" standalone="no"?>
<!DOCTYPE svg PUBLIC "-//W3C//DTD SVG 1.1//EN" "http://www.w3.org/Graphics/SVG/1.1/DTD/svg11.dtd">
<svg version="1.1" xmlns="http://www.w3.org/2000/svg" xmlns:xlink="http://www.w3.org/1999/xlink" preserveAspectRatio="xMidYMid meet" viewBox="0 0 640 640" width="640" height="640"><defs><path d="M205.23 396.65C201.38 383.96 183.92 384.09 187.74 396.65C189.49 396.65 203.48 396.65 205.23 396.65Z" id="ciozS8WFE"></path><path d="M205.23 396.65C201.38 383.96 183.92 384.09 187.74 396.65C189.49 396.65 203.48 396.65 205.23 396.65Z" id="k3j9ISK5MU"></path><path d="M404.29 6.07C404.28 6.07 404.28 6.07 404.27 6.07C396.26 25.09 356.2 120.17 284.09 291.31L301.05 298.91C373.16 127.77 413.22 32.7 421.23 13.68C421.23 13.68 421.23 13.68 421.23 13.68C422.69 10.18 422.05 5.98 419.29 3.12C415.69 -0.6 409.82 -0.6 406.22 3.12C405.37 4 404.73 5 404.29 6.07Z" id="b1GzjSO8l"></path><path d="M404.29 6.07C404.28 6.07 404.28 6.07 404.27 6.07C396.26 25.09 356.2 120.17 284.09 291.31L301.05 298.91C373.16 127.77 413.22 32.7 421.23 13.68C421.23 13.68 421.23 13.68 421.23 13.68C422.69 10.18 422.05 5.98 419.29 3.12C415.69 -0.6 409.82 -0.6 406.22 3.12C405.37 4 404.73 5 404.29 6.07Z" id="lmci0agpE"></path><path d="M275.78 187.26C284.72 186.41 356.22 179.57 365.16 178.71C365.16 178.71 408.23 204.04 384.61 121.63C357.28 26.28 273.5 13.75 288.69 42.39C303.88 71.02 232.92 59.69 223.78 114.87C211.2 190.74 265.38 172.78 275.78 187.26Z" id="g2gb8Vyc1V"></path><path d="M275.78 187.26C284.72 186.41 356.22 179.57 365.16 178.71C365.16 178.71 408.23 204.04 384.61 121.63C357.28 26.28 273.5 13.75 288.69 42.39C303.88 71.02 232.92 59.69 223.78 114.87C211.2 190.74 265.38 172.78 275.78 187.26Z" id="d1dVGWPgDx"></path><path d="M237.1 458.51L366.53 458.51L348.04 420.37L255.59 420.37L237.1 458.51Z" id="b2r9rkzM4f"></path><path d="M237.1 458.51L366.53 458.51L348.04 420.37L255.59 420.37L237.1 458.51Z" id="b5kTINJ4t"></path><path d="M218.61 114.87C218.61 114.87 200.12 133.97 200.12 191.24C200.12 229.42 209.36 309.71 255.59 420.34C256.82 420.34 262.98 420.34 274.08 420.34C318.46 420.34 343.11 420.34 348.04 420.34C394.26 309.71 403.51 229.42 403.51 191.24C403.51 133.97 385.01 114.87 385.01 114.87C373.92 114.87 346.19 114.87 301.81 114.87C251.89 114.87 224.16 114.87 218.61 114.87Z" id="ftdRdPHH1"></path><path d="M218.61 114.87C218.61 114.87 200.12 133.97 200.12 191.24C200.12 229.42 209.36 309.71 255.59 420.34C256.82 420.34 262.98 420.34 274.08 420.34C318.46 420.34 343.11 420.34 348.04 420.34C394.26 309.71 403.51 229.42 403.51 191.24C403.51 133.97 385.01 114.87 385.01 114.87C373.92 114.87 346.19 114.87 301.81 114.87C251.89 114.87 224.16 114.87 218.61 114.87Z" id="eG2pRH8ez"></path><path d="M258.3 427.08C261.91 430.8 267.76 430.8 271.37 427.08C273.17 425.23 274.07 422.8 274.08 420.37C270.38 420.37 257.44 420.37 255.59 420.37C255.6 422.8 256.5 425.23 258.3 427.08Z" id="dslL44cAn"></path><path d="M258.3 427.08C261.91 430.8 267.76 430.8 271.37 427.08C273.17 425.23 274.07 422.8 274.08 420.37C270.38 420.37 257.44 420.37 255.59 420.37C255.6 422.8 256.5 425.23 258.3 427.08Z" id="b5uOofPDr"></path><path d="M276.78 427.08C280.4 430.8 286.25 430.8 289.86 427.08C291.66 425.23 292.56 422.8 292.57 420.37C288.87 420.37 275.93 420.37 274.08 420.37C274.09 422.8 274.99 425.23 276.78 427.08Z" id="a48JNQ9xyP"></path><path d="M276.78 427.08C280.4 430.8 286.25 430.8 289.86 427.08C291.66 425.23 292.56 422.8 292.57 420.37C288.87 420.37 275.93 420.37 274.08 420.37C274.09 422.8 274.99 425.23 276.78 427.08Z" id="anOm1C2Z9"></path><path d="M295.28 427.08C298.89 430.8 304.74 430.8 308.35 427.08C310.15 425.23 311.05 422.8 311.06 420.37C307.36 420.37 294.42 420.37 292.57 420.37C292.58 422.8 293.48 425.23 295.28 427.08Z" id="dSzx5eFm"></path><path d="M295.28 427.08C298.89 430.8 304.74 430.8 308.35 427.08C310.15 425.23 311.05 422.8 311.06 420.37C307.36 420.37 294.42 420.37 292.57 420.37C292.58 422.8 293.48 425.23 295.28 427.08Z" id="b1HQHPza69"></path><path d="M313.77 427.08C317.38 430.8 323.23 430.8 326.83 427.08C328.63 425.23 329.54 422.8 329.54 420.37C325.85 420.37 312.91 420.37 311.06 420.37C311.07 422.8 311.97 425.23 313.77 427.08Z" id="a14weuVI14"></path><path d="M313.77 427.08C317.38 430.8 323.23 430.8 326.83 427.08C328.63 425.23 329.54 422.8 329.54 420.37C325.85 420.37 312.91 420.37 311.06 420.37C311.07 422.8 311.97 425.23 313.77 427.08Z" id="b1plD4GHKP"></path><path d="M332.25 427.08C335.87 430.8 341.72 430.8 345.33 427.08C347.12 425.23 348.03 422.8 348.03 420.37C344.33 420.37 331.39 420.37 329.54 420.37C329.56 422.8 330.45 425.23 332.25 427.08Z" id="a8X9l6wor"></path><path d="M332.25 427.08C335.87 430.8 341.72 430.8 345.33 427.08C347.12 425.23 348.03 422.8 348.03 420.37C344.33 420.37 331.39 420.37 329.54 420.37C329.56 422.8 330.45 425.23 332.25 427.08Z" id="a6f1OjRru0"></path><path d="M316.76 133.55C343.53 122.2 359.76 98.81 368.19 82.75C364.37 76.2 360.26 70.31 356 65.05C351.02 76.62 336.65 104.48 309.73 115.89C310.44 117.65 316.05 131.78 316.76 133.55Z" id="a242KpIG45"></path><path d="M316.76 133.55C343.53 122.2 359.76 98.81 368.19 82.75C364.37 76.2 360.26 70.31 356 65.05C351.02 76.62 336.65 104.48 309.73 115.89C310.44 117.65 316.05 131.78 316.76 133.55Z" id="a2WrcfHjzC"></path><path d="M331.95 42.33C322.15 58.24 289.49 105.78 244.48 115.37C244.85 117.24 247.84 132.19 248.21 134.06C274.23 128.53 300.33 111.54 323.67 84.95C334.15 73.01 341.87 61.71 346.42 54.46C341.61 49.72 336.75 45.69 331.95 42.33Z" id="d1C1BHVNGE"></path><path d="M331.95 42.33C322.15 58.24 289.49 105.78 244.48 115.37C244.85 117.24 247.84 132.19 248.21 134.06C274.23 128.53 300.33 111.54 323.67 84.95C334.15 73.01 341.87 61.71 346.42 54.46C341.61 49.72 336.75 45.69 331.95 42.33Z" id="a1xvoIs5l"></path><path d="M375.78 439.41C360.99 439.41 242.64 439.41 227.85 439.41C227.85 439.41 227.85 439.41 227.85 439.41C225.48 439.41 223.12 440.35 221.31 442.21C217.7 445.94 217.7 452 221.31 455.72C223.12 457.57 225.48 458.51 227.85 458.51C227.85 458.51 227.85 458.51 227.85 458.51C242.64 458.51 360.99 458.51 375.78 458.51C375.78 458.51 375.78 458.51 375.78 458.51C378.15 458.51 380.5 457.59 382.32 455.72C385.92 452 385.92 445.94 382.32 442.21C380.5 440.35 378.15 439.41 375.78 439.41C375.78 439.41 375.78 439.41 375.78 439.41Z" id="blJsevDZC"></path><path d="M375.78 439.41C360.99 439.41 242.64 439.41 227.85 439.41C227.85 439.41 227.85 439.41 227.85 439.41C225.48 439.41 223.12 440.35 221.31 442.21C217.7 445.94 217.7 452 221.31 455.72C223.12 457.57 225.48 458.51 227.85 458.51C227.85 458.51 227.85 458.51 227.85 458.51C242.64 458.51 360.99 458.51 375.78 458.51C375.78 458.51 375.78 458.51 375.78 458.51C378.15 458.51 380.5 457.59 382.32 455.72C385.92 452 385.92 445.94 382.32 442.21C380.5 440.35 378.15 439.41 375.78 439.41C375.78 439.41 375.78 439.41 375.78 439.41Z" id="aVeOyQyhl"></path><path d="M385.01 114.87C379.47 114.87 351.73 114.87 301.81 114.87C251.89 114.87 224.16 114.87 218.61 114.87C218.61 114.87 208.7 125.11 203.39 153.05C242.76 153.05 380.55 153.05 400.24 153.05C394.93 125.11 388.06 122.51 385.01 114.87Z" id="anr97LxFS"></path><path d="M385.01 114.87C379.47 114.87 351.73 114.87 301.81 114.87C251.89 114.87 224.16 114.87 218.61 114.87C218.61 114.87 208.7 125.11 203.39 153.05C242.76 153.05 380.55 153.05 400.24 153.05C394.93 125.11 388.06 122.51 385.01 114.87Z" id="a2IbWNnXK"></path><path d="M292.57 219.88C292.57 219.88 292.57 219.88 292.57 219.88C292.57 233.24 292.57 340.14 292.57 353.5C292.57 353.5 292.57 353.5 292.57 353.5C292.57 355.96 293.47 358.4 295.28 360.27C298.89 363.99 304.74 363.99 308.35 360.27C310.15 358.4 311.06 355.96 311.06 353.5C311.06 353.5 311.06 353.5 311.06 353.5C311.06 340.14 311.06 233.24 311.06 219.88C311.06 219.88 311.06 219.88 311.06 219.88C311.06 217.43 310.15 214.99 308.35 213.12C304.74 209.4 298.89 209.4 295.28 213.12C293.47 214.99 292.57 217.43 292.57 219.88Z" id="cmvQaV7AF"></path><path d="M292.57 219.88C292.57 219.88 292.57 219.88 292.57 219.88C292.57 233.24 292.57 340.14 292.57 353.5C292.57 353.5 292.57 353.5 292.57 353.5C292.57 355.96 293.47 358.4 295.28 360.27C298.89 363.99 304.74 363.99 308.35 360.27C310.15 358.4 311.06 355.96 311.06 353.5C311.06 353.5 311.06 353.5 311.06 353.5C311.06 340.14 311.06 233.24 311.06 219.88C311.06 219.88 311.06 219.88 311.06 219.88C311.06 217.43 310.15 214.99 308.35 213.12C304.74 209.4 298.89 209.4 295.28 213.12C293.47 214.99 292.57 217.43 292.57 219.88Z" id="a37DWsVfwL"></path><path d="M338.9 218.53C338.9 218.53 338.89 218.53 338.89 218.53C337.04 231.89 322.25 338.8 320.4 352.16C320.4 352.16 320.41 352.16 320.41 352.16C320.01 355.04 320.87 358.06 323.01 360.27C326.62 363.99 332.48 363.99 336.08 360.27C337.56 358.73 338.41 356.83 338.7 354.86C338.7 354.86 338.7 354.86 338.7 354.86C340.55 341.5 355.35 234.58 357.2 221.22C357.19 221.22 357.18 221.22 357.18 221.22C357.58 218.35 356.71 215.33 354.58 213.12C350.97 209.4 345.12 209.4 341.5 213.12C340.02 214.64 339.17 216.55 338.9 218.53Z" id="c385SIXT6"></path><path d="M338.9 218.53C338.9 218.53 338.89 218.53 338.89 218.53C337.04 231.89 322.25 338.8 320.4 352.16C320.4 352.16 320.41 352.16 320.41 352.16C320.01 355.04 320.87 358.06 323.01 360.27C326.62 363.99 332.48 363.99 336.08 360.27C337.56 358.73 338.41 356.83 338.7 354.86C338.7 354.86 338.7 354.86 338.7 354.86C340.55 341.5 355.35 234.58 357.2 221.22C357.19 221.22 357.18 221.22 357.18 221.22C357.58 218.35 356.71 215.33 354.58 213.12C350.97 209.4 345.12 209.4 341.5 213.12C340.02 214.64 339.17 216.55 338.9 218.53Z" id="a5sGAPAZSX"></path><path d="M264.73 218.53C264.46 216.55 263.6 214.64 262.12 213.12C258.51 209.4 252.66 209.4 249.05 213.12C246.92 215.33 246.05 218.35 246.45 221.22C246.45 221.22 246.44 221.22 246.43 221.23C248.28 234.59 263.08 341.5 264.93 354.86C264.93 354.86 264.93 354.86 264.93 354.86C265.21 356.83 266.07 358.73 267.54 360.27C271.15 363.99 277.01 363.99 280.62 360.27C282.76 358.06 283.62 355.04 283.22 352.16C283.22 352.16 283.23 352.16 283.23 352.16C283.23 352.16 283.23 352.16 283.23 352.16L264.74 218.52C264.73 218.53 264.73 218.53 264.73 218.53Z" id="agzVmTQ6v"></path><path d="M264.73 218.53C264.46 216.55 263.6 214.64 262.12 213.12C258.51 209.4 252.66 209.4 249.05 213.12C246.92 215.33 246.05 218.35 246.45 221.22C246.45 221.22 246.44 221.22 246.43 221.23C248.28 234.59 263.08 341.5 264.93 354.86C264.93 354.86 264.93 354.86 264.93 354.86C265.21 356.83 266.07 358.73 267.54 360.27C271.15 363.99 277.01 363.99 280.62 360.27C282.76 358.06 283.62 355.04 283.22 352.16C283.22 352.16 283.23 352.16 283.23 352.16C283.23 352.16 283.23 352.16 283.23 352.16L264.74 218.52C264.73 218.53 264.73 218.53 264.73 218.53Z" id="a16BDn6JNJ"></path><path d="M246.37 66.37C246.37 66.32 246.69 60.7 243.4 54.64C238.94 46.43 230.01 40.94 216.86 38.34C211.85 37.35 208.56 32.35 209.52 27.17C210.48 21.99 215.33 18.6 220.34 19.59C233.7 22.23 251.44 29.07 260.22 46.63C265.58 57.37 264.89 66.98 264.79 68.04C262.34 67.8 256.2 67.2 246.38 66.25C246.38 66.32 246.37 66.35 246.37 66.37Z" id="i5VNwmxR86"></path><path d="M246.37 66.37C246.37 66.32 246.69 60.7 243.4 54.64C238.94 46.43 230.01 40.94 216.86 38.34C211.85 37.35 208.56 32.35 209.52 27.17C210.48 21.99 215.33 18.6 220.34 19.59C233.7 22.23 251.44 29.07 260.22 46.63C265.58 57.37 264.89 66.98 264.79 68.04C262.34 67.8 256.2 67.2 246.38 66.25C246.38 66.32 246.37 66.35 246.37 66.37Z" id="c3cTQeMqWT"></path><path d="M227.85 67.14C227.85 82.96 240.27 95.78 255.59 95.78C270.91 95.78 283.32 82.96 283.32 67.14C283.32 51.33 270.91 38.51 255.59 38.51C240.27 38.51 227.85 51.33 227.85 67.14Z" id="baTUnJPv9"></path><path d="M227.85 67.14C227.85 82.96 240.27 95.78 255.59 95.78C270.91 95.78 283.32 82.96 283.32 67.14C283.32 51.33 270.91 38.51 255.59 38.51C240.27 38.51 227.85 51.33 227.85 67.14Z" id="f6VtCG5u5"></path><path d="M188.41 393.28C188.41 392.35 188.72 391.43 189.26 390.77C189.8 390.1 190.55 389.72 191.31 389.72C192.08 389.72 192.82 390.1 193.36 390.77C193.9 391.43 194.21 392.35 194.21 393.28C194.21 394.22 193.9 395.14 193.36 395.81C192.82 396.47 192.08 396.85 191.31 396.85C190.55 396.85 189.8 396.47 189.26 395.81C188.72 395.14 188.41 394.22 188.41 393.28Z" id="e6bmwQu3m1"></path><path d="M188.41 393.28C188.41 392.35 188.72 391.43 189.26 390.77C189.8 390.1 190.55 389.72 191.31 389.72C192.08 389.72 192.82 390.1 193.36 390.77C193.9 391.43 194.21 392.35 194.21 393.28C194.21 394.22 193.9 395.14 193.36 395.81C192.82 396.47 192.08 396.85 191.31 396.85C190.55 396.85 189.8 396.47 189.26 395.81C188.72 395.14 188.41 394.22 188.41 393.28Z" id="ahvVlV9QK"></path><path d="M211.62 377.56C211.62 376.62 211.93 375.7 212.47 375.04C213.01 374.38 213.75 374 214.52 374C215.28 374 216.03 374.38 216.57 375.04C217.11 375.71 217.42 376.62 217.42 377.56C217.42 378.5 217.11 379.42 216.57 380.08C216.03 380.74 215.28 381.12 214.52 381.12C213.76 381.12 213.01 380.74 212.47 380.08C211.93 379.42 211.62 378.5 211.62 377.56Z" id="b3A80OKg2H"></path><path d="M211.62 377.56C211.62 376.62 211.93 375.7 212.47 375.04C213.01 374.38 213.75 374 214.52 374C215.28 374 216.03 374.38 216.57 375.04C217.11 375.71 217.42 376.62 217.42 377.56C217.42 378.5 217.11 379.42 216.57 380.08C216.03 380.74 215.28 381.12 214.52 381.12C213.76 381.12 213.01 380.74 212.47 380.08C211.93 379.42 211.62 378.5 211.62 377.56Z" id="b4LuoeExM"></path><path d="M185.51 370.44C185.51 369.5 185.82 368.58 186.36 367.92C186.9 367.26 187.65 366.88 188.41 366.88C189.17 366.88 189.92 367.26 190.46 367.92C191 368.59 191.31 369.5 191.31 370.44C191.31 371.38 191 372.29 190.46 372.96C189.92 373.62 189.17 374 188.41 374C187.65 374 186.9 373.62 186.36 372.96C185.82 372.29 185.51 371.38 185.51 370.44Z" id="eUQp9tEXj"></path><path d="M185.51 370.44C185.51 369.5 185.82 368.58 186.36 367.92C186.9 367.26 187.65 366.88 188.41 366.88C189.17 366.88 189.92 367.26 190.46 367.92C191 368.59 191.31 369.5 191.31 370.44C191.31 371.38 191 372.29 190.46 372.96C189.92 373.62 189.17 374 188.41 374C187.65 374 186.9 373.62 186.36 372.96C185.82 372.29 185.51 371.38 185.51 370.44Z" id="b2MGiWD8rQ"></path><path d="M204.07 396.85C204.07 395.91 204.38 394.99 204.92 394.33C205.47 393.66 206.21 393.28 206.97 393.28C207.74 393.28 208.49 393.66 209.03 394.33C209.57 394.99 209.88 395.91 209.88 396.85C209.88 397.79 209.57 398.7 209.03 399.37C208.49 400.03 207.74 400.41 206.97 400.41C206.21 400.41 205.47 400.03 204.92 399.37C204.38 398.7 204.07 397.79 204.07 396.85Z" id="bLDSchdVa"></path><path d="M204.07 396.85C204.07 395.91 204.38 394.99 204.92 394.33C205.47 393.66 206.21 393.28 206.97 393.28C207.74 393.28 208.49 393.66 209.03 394.33C209.57 394.99 209.88 395.91 209.88 396.85C209.88 397.79 209.57 398.7 209.03 399.37C208.49 400.03 207.74 400.41 206.97 400.41C206.21 400.41 205.47 400.03 204.92 399.37C204.38 398.7 204.07 397.79 204.07 396.85Z" id="b1CNALACEg"></path><path d="M236.63 384.26C228.79 367.94 219.87 362.55 211.44 369.45C217.09 387.62 222.74 385.65 222.74 385.65C216.25 401.56 218.9 416.09 219.34 418.21C220.36 419.12 227.34 424.65 234.98 411.13C234.98 411.13 233.95 423.85 243.86 436.07C247 418.71 244.38 400.39 236.63 384.26Z" id="aUFqT75b"></path><path d="M219.34 418.21C218.9 416.09 216.25 401.56 222.74 385.65C222.74 385.65 218.13 387.2 213.07 374.1C210.53 376.37 208.05 379.93 205.69 384.86C196.33 404.33 195.13 450.2 200.04 460.41C205.35 471.75 226.98 468.13 236.34 448.66C238.76 443.62 240.48 438.33 241.57 432.92C234.15 421.76 234.98 411.13 234.98 411.13C227.34 424.64 220.36 419.12 219.34 418.21Z" id="agjDVGlSs"></path><path d="M199.24 461.67C198.86 460.86 198.87 459.55 199.26 458.75C199.65 457.96 200.28 457.97 200.66 458.79C201.47 460.5 203.24 461.18 205.55 460.64C210.8 459.42 218.02 452.07 221.01 441.91C221.29 440.94 221.9 440.63 222.37 441.23C222.84 441.82 222.99 443.1 222.7 444.07C219.27 455.74 211.42 463.43 205.77 464.75C205.17 464.89 204.6 464.96 204.06 464.96C201.91 464.96 200.26 463.84 199.24 461.67Z" id="c1ZYS8ftO"></path><path d="M198.93 461.03C197.63 458.38 197.12 453.68 197.45 447.44C198.09 435.69 201.78 419.35 207.39 412.2C207.86 411.6 208.47 411.91 208.75 412.88C209.04 413.85 208.89 415.13 208.43 415.72C203.54 421.95 200.02 436.97 199.43 447.89C199.17 452.69 199.49 456.4 200.32 458.07C200.71 458.87 200.72 460.17 200.34 460.99C200.14 461.41 199.88 461.61 199.62 461.61C199.37 461.61 199.12 461.42 198.93 461.03Z" id="b9lWsqgeM"></path><path d="M199.27 461.72C198.8 460.79 198.59 459.38 198.65 457.54C198.85 450.86 202.73 437.11 206.96 430.56C207.4 429.88 208.02 430.07 208.35 430.99C208.68 431.91 208.58 433.2 208.14 433.88C203.37 441.25 200.05 456.41 200.67 458.81C201.06 459.6 201.06 460.88 200.68 461.7C200.49 462.11 200.23 462.32 199.98 462.32C199.72 462.32 199.46 462.12 199.27 461.72Z" id="ctQzunKab"></path><path d="M202.63 383.26C194.79 366.94 185.87 361.55 177.44 368.45C183.09 386.62 188.74 384.65 188.74 384.65C182.25 400.56 184.9 415.09 185.34 417.21C186.36 418.12 193.34 423.65 200.98 410.13C200.98 410.13 199.95 422.85 209.86 435.07C213 417.71 210.38 399.39 202.63 383.26Z" id="cjo4Am9sk"></path><path d="M185.34 417.21C184.9 415.09 182.25 400.56 188.74 384.65C188.74 384.65 184.13 386.2 179.07 373.1C176.53 375.37 174.05 378.93 171.69 383.86C162.33 403.33 161.13 449.2 166.04 459.41C171.35 470.75 192.98 467.13 202.34 447.66C204.76 442.62 206.48 437.33 207.57 431.92C200.15 420.76 200.98 410.13 200.98 410.13C193.34 423.64 186.36 418.12 185.34 417.21Z" id="cdtal2hjY"></path><path d="M165.24 460.67C164.86 459.86 164.87 458.55 165.26 457.75C165.65 456.96 166.28 456.97 166.66 457.79C167.47 459.5 169.24 460.18 171.55 459.64C176.8 458.42 184.02 451.07 187.01 440.91C187.29 439.94 187.9 439.63 188.37 440.23C188.84 440.82 188.99 442.1 188.7 443.07C185.27 454.74 177.42 462.43 171.77 463.75C171.17 463.89 170.6 463.96 170.06 463.96C167.91 463.96 166.26 462.84 165.24 460.67Z" id="bPh8Mb6yo"></path><path d="M164.93 460.03C163.63 457.38 163.12 452.68 163.45 446.44C164.09 434.69 167.78 418.35 173.39 411.2C173.86 410.6 174.47 410.91 174.75 411.88C175.04 412.85 174.89 414.13 174.43 414.72C169.54 420.95 166.02 435.97 165.43 446.89C165.17 451.69 165.49 455.4 166.32 457.07C166.71 457.87 166.72 459.17 166.34 459.99C166.14 460.41 165.88 460.61 165.62 460.61C165.37 460.61 165.12 460.42 164.93 460.03Z" id="c2iAGtCtHz"></path><path d="M165.27 460.72C164.8 459.79 164.59 458.38 164.65 456.54C164.85 449.86 168.73 436.11 172.96 429.56C173.4 428.88 174.02 429.07 174.35 429.99C174.68 430.91 174.58 432.2 174.14 432.88C169.37 440.25 166.05 455.41 166.67 457.81C167.06 458.6 167.06 459.88 166.68 460.7C166.49 461.11 166.23 461.32 165.98 461.32C165.72 461.32 165.46 461.12 165.27 460.72Z" id="d1K7zP17sK"></path></defs><g><g><g><use xlink:href="#ciozS8WFE" opacity="1" fill="#f8933d" fill-opacity="1"></use><g><use xlink:href="#ciozS8WFE" opacity="1" fill-opacity="0" stroke="#000000" stroke-width="1" stroke-opacity="0"></use></g></g><g><use xlink:href="#k3j9ISK5MU" opacity="1" fill="#000000" fill-opacity="0"></use><g><use xlink:href="#k3j9ISK5MU" opacity="1" fill-opacity="0" stroke="#000000" stroke-width="1" stroke-opacity="0"></use></g></g><g><use xlink:href="#b1GzjSO8l" opacity="1" fill="#ed5564" fill-opacity="1"></use><g><use xlink:href="#b1GzjSO8l" opacity="1" fill-opacity="0" stroke="#000000" stroke-width="1" stroke-opacity="0"></use></g></g><g><use xlink:href="#lmci0agpE" opacity="1" fill="#000000" fill-opacity="0"></use><g><use xlink:href="#lmci0agpE" opacity="1" fill-opacity="0" stroke="#000000" stroke-width="1" stroke-opacity="0"></use></g></g><g><use xlink:href="#g2gb8Vyc1V" opacity="1" fill="#e6e9ed" fill-opacity="1"></use><g><use xlink:href="#g2gb8Vyc1V" opacity="1" fill-opacity="0" stroke="#000000" stroke-width="1" stroke-opacity="0"></use></g></g><g><use xlink:href="#d1dVGWPgDx" opacity="1" fill="#000000" fill-opacity="0"></use><g><use xlink:href="#d1dVGWPgDx" opacity="1" fill-opacity="0" stroke="#000000" stroke-width="1" stroke-opacity="0"></use></g></g><g><use xlink:href="#b2r9rkzM4f" opacity="1" fill="#ccd1d9" fill-opacity="1"></use><g><use xlink:href="#b2r9rkzM4f" opacity="1" fill-opacity="0" stroke="#000000" stroke-width="1" stroke-opacity="0"></use></g></g><g><use xlink:href="#b5kTINJ4t" opacity="1" fill="#000000" fill-opacity="0"></use><g><use xlink:href="#b5kTINJ4t" opacity="1" fill-opacity="0" stroke="#000000" stroke-width="1" stroke-opacity="0"></use></g></g><g><use xlink:href="#ftdRdPHH1" opacity="1" fill="#7bc2d4" fill-opacity="1"></use><g><use xlink:href="#ftdRdPHH1" opacity="1" fill-opacity="0" stroke="#000000" stroke-width="1" stroke-opacity="0"></use></g></g><g><use xlink:href="#eG2pRH8ez" opacity="1" fill="#000000" fill-opacity="0"></use><g><use xlink:href="#eG2pRH8ez" opacity="1" fill-opacity="0" stroke="#000000" stroke-width="1" stroke-opacity="0"></use></g></g><g><use xlink:href="#dslL44cAn" opacity="1" fill="#5697ee" fill-opacity="1"></use><g><use xlink:href="#dslL44cAn" opacity="1" fill-opacity="0" stroke="#000000" stroke-width="1" stroke-opacity="0"></use></g></g><g><use xlink:href="#b5uOofPDr" opacity="1" fill="#000000" fill-opacity="0"></use><g><use xlink:href="#b5uOofPDr" opacity="1" fill-opacity="0" stroke="#000000" stroke-width="1" stroke-opacity="0"></use></g></g><g><use xlink:href="#a48JNQ9xyP" opacity="1" fill="#5697ee" fill-opacity="1"></use><g><use xlink:href="#a48JNQ9xyP" opacity="1" fill-opacity="0" stroke="#000000" stroke-width="1" stroke-opacity="0"></use></g></g><g><use xlink:href="#anOm1C2Z9" opacity="1" fill="#000000" fill-opacity="0"></use><g><use xlink:href="#anOm1C2Z9" opacity="1" fill-opacity="0" stroke="#000000" stroke-width="1" stroke-opacity="0"></use></g></g><g><use xlink:href="#dSzx5eFm" opacity="1" fill="#5697ee" fill-opacity="1"></use><g><use xlink:href="#dSzx5eFm" opacity="1" fill-opacity="0" stroke="#000000" stroke-width="1" stroke-opacity="0"></use></g></g><g><use xlink:href="#b1HQHPza69" opacity="1" fill="#000000" fill-opacity="0"></use><g><use xlink:href="#b1HQHPza69" opacity="1" fill-opacity="0" stroke="#000000" stroke-width="1" stroke-opacity="0"></use></g></g><g><use xlink:href="#a14weuVI14" opacity="1" fill="#5697ee" fill-opacity="1"></use><g><use xlink:href="#a14weuVI14" opacity="1" fill-opacity="0" stroke="#000000" stroke-width="1" stroke-opacity="0"></use></g></g><g><use xlink:href="#b1plD4GHKP" opacity="1" fill="#000000" fill-opacity="0"></use><g><use xlink:href="#b1plD4GHKP" opacity="1" fill-opacity="0" stroke="#000000" stroke-width="1" stroke-opacity="0"></use></g></g><g><use xlink:href="#a8X9l6wor" opacity="1" fill="#5697ee" fill-opacity="1"></use><g><use xlink:href="#a8X9l6wor" opacity="1" fill-opacity="0" stroke="#000000" stroke-width="1" stroke-opacity="0"></use></g></g><g><use xlink:href="#a6f1OjRru0" opacity="1" fill="#000000" fill-opacity="0"></use><g><use xlink:href="#a6f1OjRru0" opacity="1" fill-opacity="0" stroke="#000000" stroke-width="1" stroke-opacity="0"></use></g></g><g><use xlink:href="#a242KpIG45" opacity="1" fill="#f5f7fa" fill-opacity="1"></use><g><use xlink:href="#a242KpIG45" opacity="1" fill-opacity="0" stroke="#000000" stroke-width="1" stroke-opacity="0"></use></g></g><g><use xlink:href="#a2WrcfHjzC" opacity="1" fill="#000000" fill-opacity="0"></use><g><use xlink:href="#a2WrcfHjzC" opacity="1" fill-opacity="0" stroke="#000000" stroke-width="1" stroke-opacity="0"></use></g></g><g><use xlink:href="#d1C1BHVNGE" opacity="1" fill="#f5f7fa" fill-opacity="1"></use><g><use xlink:href="#d1C1BHVNGE" opacity="1" fill-opacity="0" stroke="#000000" stroke-width="1" stroke-opacity="0"></use></g></g><g><use xlink:href="#a1xvoIs5l" opacity="1" fill="#000000" fill-opacity="0"></use><g><use xlink:href="#a1xvoIs5l" opacity="1" fill-opacity="0" stroke="#000000" stroke-width="1" stroke-opacity="0"></use></g></g><g><use xlink:href="#blJsevDZC" opacity="1" fill="#e6e9ed" fill-opacity="1"></use><g><use xlink:href="#blJsevDZC" opacity="1" fill-opacity="0" stroke="#000000" stroke-width="1" stroke-opacity="0"></use></g></g><g><use xlink:href="#aVeOyQyhl" opacity="1" fill="#000000" fill-opacity="0"></use><g><use xlink:href="#aVeOyQyhl" opacity="1" fill-opacity="0" stroke="#000000" stroke-width="1" stroke-opacity="0"></use></g></g><g><use xlink:href="#anr97LxFS" opacity="1" fill="#5697ee" fill-opacity="1"></use><g><use xlink:href="#anr97LxFS" opacity="1" fill-opacity="0" stroke="#000000" stroke-width="1" stroke-opacity="0"></use></g></g><g><use xlink:href="#a2IbWNnXK" opacity="1" fill="#000000" fill-opacity="0"></use><g><use xlink:href="#a2IbWNnXK" opacity="1" fill-opacity="0" stroke="#000000" stroke-width="1" stroke-opacity="0"></use></g></g><g><use xlink:href="#cmvQaV7AF" opacity="1" fill="#5697ee" fill-opacity="1"></use><g><use xlink:href="#cmvQaV7AF" opacity="1" fill-opacity="0" stroke="#000000" stroke-width="1" stroke-opacity="0"></use></g></g><g><use xlink:href="#a37DWsVfwL" opacity="1" fill="#000000" fill-opacity="0"></use><g><use xlink:href="#a37DWsVfwL" opacity="1" fill-opacity="0" stroke="#000000" stroke-width="1" stroke-opacity="0"></use></g></g><g><use xlink:href="#c385SIXT6" opacity="1" fill="#5697ee" fill-opacity="1"></use><g><use xlink:href="#c385SIXT6" opacity="1" fill-opacity="0" stroke="#000000" stroke-width="1" stroke-opacity="0"></use></g></g><g><use xlink:href="#a5sGAPAZSX" opacity="1" fill="#000000" fill-opacity="0"></use><g><use xlink:href="#a5sGAPAZSX" opacity="1" fill-opacity="0" stroke="#000000" stroke-width="1" stroke-opacity="0"></use></g></g><g><use xlink:href="#agzVmTQ6v" opacity="1" fill="#5697ee" fill-opacity="1"></use><g><use xlink:href="#agzVmTQ6v" opacity="1" fill-opacity="0" stroke="#000000" stroke-width="1" stroke-opacity="0"></use></g></g><g><use xlink:href="#a16BDn6JNJ" opacity="1" fill="#000000" fill-opacity="0"></use><g><use xlink:href="#a16BDn6JNJ" opacity="1" fill-opacity="0" stroke="#000000" stroke-width="1" stroke-opacity="0"></use></g></g><g><use xlink:href="#i5VNwmxR86" opacity="1" fill="#434a54" fill-opacity="1"></use><g><use xlink:href="#i5VNwmxR86" opacity="1" fill-opacity="0" stroke="#000000" stroke-width="1" stroke-opacity="0"></use></g></g><g><use xlink:href="#c3cTQeMqWT" opacity="1" fill="#000000" fill-opacity="0"></use><g><use xlink:href="#c3cTQeMqWT" opacity="1" fill-opacity="0" stroke="#000000" stroke-width="1" stroke-opacity="0"></use></g></g><g><use xlink:href="#baTUnJPv9" opacity="1" fill="#ed5564" fill-opacity="1"></use><g><use xlink:href="#baTUnJPv9" opacity="1" fill-opacity="0" stroke="#000000" stroke-width="1" stroke-opacity="0"></use></g></g><g><use xlink:href="#f6VtCG5u5" opacity="1" fill="#000000" fill-opacity="0"></use><g><use xlink:href="#f6VtCG5u5" opacity="1" fill-opacity="0" stroke="#000000" stroke-width="1" stroke-opacity="0"></use></g></g><g><use xlink:href="#e6bmwQu3m1" opacity="1" fill="#2d2d30" fill-opacity="1"></use><g><use xlink:href="#e6bmwQu3m1" opacity="1" fill-opacity="0" stroke="#000000" stroke-width="1" stroke-opacity="0"></use></g></g><g><use xlink:href="#ahvVlV9QK" opacity="1" fill="#000000" fill-opacity="0"></use><g><use xlink:href="#ahvVlV9QK" opacity="1" fill-opacity="0" stroke="#000000" stroke-width="1" stroke-opacity="0"></use></g></g><g><use xlink:href="#b3A80OKg2H" opacity="1" fill="#2d2d30" fill-opacity="1"></use><g><use xlink:href="#b3A80OKg2H" opacity="1" fill-opacity="0" stroke="#000000" stroke-width="1" stroke-opacity="0"></use></g></g><g><use xlink:href="#b4LuoeExM" opacity="1" fill="#000000" fill-opacity="0"></use><g><use xlink:href="#b4LuoeExM" opacity="1" fill-opacity="0" stroke="#000000" stroke-width="1" stroke-opacity="0"></use></g></g><g><use xlink:href="#eUQp9tEXj" opacity="1" fill="#2d2d30" fill-opacity="1"></use><g><use xlink:href="#eUQp9tEXj" opacity="1" fill-opacity="0" stroke="#000000" stroke-width="1" stroke-opacity="0"></use></g></g><g><use xlink:href="#b2MGiWD8rQ" opacity="1" fill="#000000" fill-opacity="0"></use><g><use xlink:href="#b2MGiWD8rQ" opacity="1" fill-opacity="0" stroke="#000000" stroke-width="1" stroke-opacity="0"></use></g></g><g><use xlink:href="#bLDSchdVa" opacity="1" fill="#2d2d30" fill-opacity="1"></use><g><use xlink:href="#bLDSchdVa" opacity="1" fill-opacity="0" stroke="#000000" stroke-width="1" stroke-opacity="0"></use></g></g><g><use xlink:href="#b1CNALACEg" opacity="1" fill="#000000" fill-opacity="0"></use><g><use xlink:href="#b1CNALACEg" opacity="1" fill-opacity="0" stroke="#000000" stroke-width="1" stroke-opacity="0"></use></g></g><g><use xlink:href="#aUFqT75b" opacity="1" fill="#71412a" fill-opacity="1"></use><g><use xlink:href="#aUFqT75b" opacity="1" fill-opacity="0" stroke="#000000" stroke-width="1" stroke-opacity="0"></use></g></g><g><use xlink:href="#agjDVGlSs" opacity="1" fill="#914d2b" fill-opacity="1"></use><g><use xlink:href="#agjDVGlSs" opacity="1" fill-opacity="0" stroke="#000000" stroke-width="1" stroke-opacity="0"></use></g></g><g><use xlink:href="#c1ZYS8ftO" opacity="1" fill="#af7e56" fill-opacity="1"></use><g><use xlink:href="#c1ZYS8ftO" opacity="1" fill-opacity="0" stroke="#000000" stroke-width="1" stroke-opacity="0"></use></g></g><g><use xlink:href="#b9lWsqgeM" opacity="1" fill="#af7e56" fill-opacity="1"></use><g><use xlink:href="#b9lWsqgeM" opacity="1" fill-opacity="0" stroke="#000000" stroke-width="1" stroke-opacity="0"></use></g></g><g><use xlink:href="#ctQzunKab" opacity="1" fill="#af7e56" fill-opacity="1"></use><g><use xlink:href="#ctQzunKab" opacity="1" fill-opacity="0" stroke="#000000" stroke-width="1" stroke-opacity="0"></use></g></g><g><use xlink:href="#cjo4Am9sk" opacity="1" fill="#71412a" fill-opacity="1"></use><g><use xlink:href="#cjo4Am9sk" opacity="1" fill-opacity="0" stroke="#000000" stroke-width="1" stroke-opacity="0"></use></g></g><g><use xlink:href="#cdtal2hjY" opacity="1" fill="#914d2b" fill-opacity="1"></use><g><use xlink:href="#cdtal2hjY" opacity="1" fill-opacity="0" stroke="#000000" stroke-width="1" stroke-opacity="0"></use></g></g><g><use xlink:href="#bPh8Mb6yo" opacity="1" fill="#af7e56" fill-opacity="1"></use><g><use xlink:href="#bPh8Mb6yo" opacity="1" fill-opacity="0" stroke="#000000" stroke-width="1" stroke-opacity="0"></use></g></g><g><use xlink:href="#c2iAGtCtHz" opacity="1" fill="#af7e56" fill-opacity="1"></use><g><use xlink:href="#c2iAGtCtHz" opacity="1" fill-opacity="0" stroke="#000000" stroke-width="1" stroke-opacity="0"></use></g></g><g><use xlink:href="#d1K7zP17sK" opacity="1" fill="#af7e56" fill-opacity="1"></use><g><use xlink:href="#d1K7zP17sK" opacity="1" fill-opacity="0" stroke="#000000" stroke-width="1" stroke-opacity="0"></use></g></g></g></g></svg>