<?xml version="1.0" encoding="UTF-8" standalone="no"?>
<!DOCTYPE svg PUBLIC "-//W3C//DTD SVG 1.1//EN" "http://www.w3.org/Graphics/SVG/1.1/DTD/svg11.dtd">
<svg version="1.1" xmlns="http://www.w3.org/2000/svg" xmlns:xlink="http://www.w3.org/1999/xlink" preserveAspectRatio="xMidYMid meet" viewBox="0 0 640 640" width="640" height="640"><defs><path d="M354.2 86.89C359.98 86.89 364.66 91.57 364.66 97.35C364.66 277.8 317.11 438.1 311.69 455.74C311.69 460.32 311.69 496.97 311.69 501.55C311.69 507.32 307.01 512 301.24 512C287.26 512 175.38 512 161.4 512C155.62 512 150.94 507.32 150.94 501.55C150.94 496.97 150.94 460.32 150.94 455.74C145.53 438.09 97.98 277.8 97.98 97.35C97.98 91.57 102.66 86.89 108.43 86.89C157.59 86.89 329.63 86.89 354.2 86.89Z" id="a32ijgfsnr"></path><path d="M171.24 455.74C165.83 438.09 118.28 277.8 118.28 97.35C118.28 91.57 122.96 86.89 128.73 86.89C126.7 86.89 110.46 86.89 108.43 86.89C102.66 86.89 97.98 91.57 97.98 97.35C97.98 277.8 145.53 438.1 150.94 455.74C150.94 460.32 150.94 496.97 150.94 501.55C150.94 507.32 155.62 512 161.4 512C163.43 512 179.67 512 181.7 512C175.92 512 171.24 507.32 171.24 501.55C171.24 492.39 171.24 460.32 171.24 455.74Z" id="b1Rp8aHVuC"></path><path d="M101.88 192.86C113.63 331.01 146.21 440.75 150.63 455.18C166.71 455.18 295.31 455.18 311.38 455.18C315.57 441.52 345.01 342.38 358.1 214.58C320.96 221.33 268.33 224.61 226.13 202.71C179.87 178.7 131.41 184.95 101.88 192.86Z" id="a39dkeyPCf"></path><path d="M150.63 455.74C152.66 455.74 168.9 455.74 170.93 455.74C166.46 441.17 133.25 329.27 121.82 189.09C114.53 190.31 107.82 191.83 101.88 193.41C113.63 331.57 146.21 441.32 150.63 455.74Z" id="deRIyXb2t"></path><path d="M262.92 422.67C269.58 381.04 322.88 48.03 329.54 6.41C330.18 2.37 333.91 -0.43 337.97 0.05C344.91 0.89 400.39 7.61 407.32 8.45C411.5 8.96 414.47 12.75 413.97 16.93C413.46 21.1 409.67 24.07 405.49 23.57C401.36 23.07 380.66 20.56 343.41 16.05C304.14 261.46 282.32 397.8 277.95 425.07C277.29 429.23 273.38 432.05 269.23 431.39C265.08 430.72 262.26 426.82 262.92 422.67Z" id="bpUMBqr70"></path><path d="M38.13 434.54C27.01 434.54 18 447.31 18 463.06C18 478.8 27.01 491.57 38.13 491.57C49.25 491.57 58.26 478.8 58.26 463.06C58.26 447.31 49.25 434.54 38.13 434.54Z" id="a1QZBSdoVn"></path><path d="M51.55 334.74C40.43 334.74 31.42 347.5 31.42 363.25C31.42 379 40.43 391.77 51.55 391.77C62.67 391.77 71.69 379 71.69 363.25C71.69 347.5 62.67 334.74 51.55 334.74Z" id="b9uBwZTNt"></path><path d="M52.84 443.62C56.19 448.71 58.26 455.53 58.26 463.06C58.26 466.55 57.8 469.89 56.98 472.99C60.66 478.56 65.88 482.07 71.69 482.07C82.81 482.07 91.82 469.3 91.82 453.55C91.82 437.8 82.81 425.04 71.69 425.04C63.04 425.04 55.68 432.77 52.84 443.62Z" id="bgeHPvXya"></path><path d="M64.36 427.07C64.73 424.89 64.97 422.63 64.97 420.28C64.97 404.53 55.96 391.77 44.84 391.77C33.72 391.77 24.71 404.53 24.71 420.28C24.71 426.86 26.29 432.89 28.93 437.71C31.69 435.7 34.81 434.54 38.13 434.54C44.61 434.54 50.36 438.89 54.04 445.62C53.66 444.93 53.25 444.26 52.84 443.62C54.83 436.03 59.05 430.04 64.36 427.07Z" id="e1qj4CK4DH"></path><path d="M85.62 433C89.43 438.18 91.82 445.47 91.82 453.55C91.82 455.72 91.63 457.82 91.31 459.85C94.92 464.77 99.83 467.81 105.24 467.81C116.36 467.81 125.37 455.04 125.37 439.29C125.37 423.54 116.36 410.78 105.24 410.78C95.65 410.78 87.64 420.28 85.62 433Z" id="dcCrBSabd"></path><path d="M98.45 400.36C98.45 384.61 89.44 371.85 78.32 371.85C75.2 371.85 72.25 372.88 69.61 374.69C67.63 380.51 64.3 385.22 60.19 388.02C59.13 391.16 58.46 394.61 58.26 398.26C62.33 403.48 64.9 410.99 64.9 419.38C64.9 420.08 64.84 420.76 64.8 421.45C65.74 422.66 66.77 423.73 67.86 424.67C69.08 424.35 70.33 424.13 71.61 424.13C75.47 424.13 79.06 425.69 82.12 428.36C83.91 427.87 85.58 426.97 87.17 425.86C89.13 420.2 92.35 415.63 96.34 412.85C97.66 409.07 98.45 404.87 98.45 400.36Z" id="e1EqwZxpA2"></path><path d="M104.62 365.29C103.22 373.38 99.42 380.11 94.31 383.84C94.31 383.84 94.3 383.84 94.3 383.84C96.94 388.65 98.53 394.7 98.53 401.27C98.53 404.76 98.04 408.07 97.21 411.14C97.54 411.64 97.89 412.1 98.24 412.57C100.42 411.42 102.78 410.78 105.24 410.78C110.55 410.78 115.37 413.71 118.96 418.47C126.62 414.43 132.08 404.02 132.08 391.77C132.08 376.02 123.07 363.25 111.95 363.25C109.35 363.25 106.9 364.02 104.62 365.29Z" id="eXnc5qcWp"></path><path d="M131.99 393.47C131.5 404.97 126.26 414.63 118.96 418.47C118.92 418.41 118.87 418.36 118.82 418.3C122.83 423.51 125.37 430.97 125.37 439.29C125.37 440 125.33 440.7 125.3 441.4C128.87 445.98 133.59 448.8 138.79 448.8C149.91 448.8 158.92 436.03 158.92 420.28C158.92 404.53 149.91 391.77 138.79 391.77C136.4 391.77 134.11 392.39 131.99 393.47Z" id="b5ZEaCacx"></path><path d="M141.79 344.75C140.27 356.28 133.87 365.35 125.73 367.5C125.59 368.53 125.51 369.59 125.44 370.65C129.51 375.87 132.08 383.38 132.08 391.77C132.08 392.46 132 393.12 131.97 393.8C132.05 393.65 136.42 391.77 138.79 391.77C144.1 391.77 148.92 394.7 152.52 399.46C160.17 395.42 165.64 385.01 165.64 372.76C165.64 357.01 156.62 344.24 145.5 344.24C144.23 344.24 143 344.43 141.79 344.75Z" id="b6GRn8G9MP"></path><path d="M83.43 299.59C84.5 303.08 85.11 306.92 85.11 310.97C85.11 315.02 84.5 318.87 83.43 322.36C84.31 325.24 85.56 327.83 87.03 330.12C92.14 330.81 96.68 334.21 99.95 339.28C100.59 339.37 101.23 339.49 101.88 339.49C101.88 323.74 110.9 310.97 122.02 310.97C122.02 295.22 113 282.46 101.88 282.46C93.62 282.46 86.53 289.51 83.43 299.59Z" id="g53eC3kaPN"></path><path d="M44.84 310.97C44.84 321.08 48.57 329.94 54.17 335C57.16 335.55 59.94 337.03 62.36 339.22C63.22 339.38 64.09 339.49 64.97 339.49C76.09 339.49 85.11 326.72 85.11 310.97C85.11 295.22 76.09 282.46 64.97 282.46C53.86 282.46 44.84 295.22 44.84 310.97Z" id="a1eKGpkBIr"></path><path d="M102.05 343.13C102.05 343.13 102.05 343.13 102.05 343.13C98.47 335.23 92.23 329.98 85.11 329.98C82.99 329.98 80.97 330.48 79.05 331.34C76.84 334.42 74.12 336.78 71.08 338.14C69.55 340.26 68.23 342.68 67.24 345.4C70.01 350.29 71.69 356.49 71.69 363.25C71.69 367.75 70.92 371.99 69.61 375.78C69.63 375.71 69.66 375.66 69.68 375.59C72.32 373.79 75.27 372.76 78.4 372.76C84.88 372.76 90.62 377.11 94.31 383.84C100.79 379.11 105.24 369.55 105.24 358.5C105.24 357.24 105.16 356 105.04 354.79C103.5 351.35 102.46 347.42 102.07 343.2C102.06 343.18 102.05 343.15 102.05 343.13Z" id="dc0fEh2ga"></path><path d="M101.88 339.49C101.88 349.46 105.5 358.22 110.98 363.32C111.3 363.3 111.62 363.25 111.95 363.25C116.03 363.25 119.82 364.98 122.99 367.93C133.65 367.21 142.15 354.77 142.15 339.49C142.15 323.74 133.14 310.97 122.02 310.97C110.9 310.97 101.88 323.74 101.88 339.49Z" id="m3HgaDHGKa"></path><path d="M165.64 296.72C187.89 296.72 205.9 322.22 205.9 353.75C183.64 353.75 165.64 328.24 165.64 296.72Z" id="a6i7zdvO6P"></path><path d="M132.08 310.97C156.13 310.97 175.7 276.86 175.7 234.93C176.37 234.93 181.74 234.93 182.41 234.93C182.41 282.1 159.83 320.48 132.08 320.48C132.08 318.58 132.08 311.92 132.08 310.97Z" id="cew4LrCR9"></path></defs><g><g><g><use xlink:href="#a32ijgfsnr" opacity="1" fill="#e0f7fc" fill-opacity="1"></use><g><use xlink:href="#a32ijgfsnr" opacity="1" fill-opacity="0" stroke="#000000" stroke-width="1" stroke-opacity="0"></use></g></g><g><use xlink:href="#b1Rp8aHVuC" opacity="1" fill="#beedf4" fill-opacity="1"></use><g><use xlink:href="#b1Rp8aHVuC" opacity="1" fill-opacity="0" stroke="#000000" stroke-width="1" stroke-opacity="0"></use></g></g><g><use xlink:href="#a39dkeyPCf" opacity="1" fill="#573e68" fill-opacity="0.67"></use><g><use xlink:href="#a39dkeyPCf" opacity="1" fill-opacity="0" stroke="#000000" stroke-width="1" stroke-opacity="0"></use></g></g><g><use xlink:href="#deRIyXb2t" opacity="1" fill="#583e68" fill-opacity="1"></use><g><use xlink:href="#deRIyXb2t" opacity="1" fill-opacity="0" stroke="#000000" stroke-width="1" stroke-opacity="0"></use></g></g><g><use xlink:href="#bpUMBqr70" opacity="1" fill="#ea473b" fill-opacity="1"></use><g><use xlink:href="#bpUMBqr70" opacity="1" fill-opacity="0" stroke="#000000" stroke-width="1" stroke-opacity="0"></use></g></g><g><use xlink:href="#a1QZBSdoVn" opacity="1" fill="#9777a8" fill-opacity="1"></use><g><use xlink:href="#a1QZBSdoVn" opacity="1" fill-opacity="0" stroke="#000000" stroke-width="1" stroke-opacity="0"></use></g></g><g><use xlink:href="#b9uBwZTNt" opacity="1" fill="#583e68" fill-opacity="1"></use><g><use xlink:href="#b9uBwZTNt" opacity="1" fill-opacity="0" stroke="#000000" stroke-width="1" stroke-opacity="0"></use></g></g><g><use xlink:href="#bgeHPvXya" opacity="1" fill="#583e68" fill-opacity="1"></use><g><use xlink:href="#bgeHPvXya" opacity="1" fill-opacity="0" stroke="#000000" stroke-width="1" stroke-opacity="0"></use></g></g><g><use xlink:href="#e1qj4CK4DH" opacity="1" fill="#6f58a8" fill-opacity="1"></use><g><use xlink:href="#e1qj4CK4DH" opacity="1" fill-opacity="0" stroke="#000000" stroke-width="1" stroke-opacity="0"></use></g></g><g><use xlink:href="#dcCrBSabd" opacity="1" fill="#6f58a8" fill-opacity="1"></use><g><use xlink:href="#dcCrBSabd" opacity="1" fill-opacity="0" stroke="#000000" stroke-width="1" stroke-opacity="0"></use></g></g><g><use xlink:href="#e1EqwZxpA2" opacity="1" fill="#9777a8" fill-opacity="1"></use><g><use xlink:href="#e1EqwZxpA2" opacity="1" fill-opacity="0" stroke="#000000" stroke-width="1" stroke-opacity="0"></use></g></g><g><use xlink:href="#eXnc5qcWp" opacity="1" fill="#583e68" fill-opacity="1"></use><g><use xlink:href="#eXnc5qcWp" opacity="1" fill-opacity="0" stroke="#000000" stroke-width="1" stroke-opacity="0"></use></g></g><g><use xlink:href="#b5ZEaCacx" opacity="1" fill="#9777a8" fill-opacity="1"></use><g><use xlink:href="#b5ZEaCacx" opacity="1" fill-opacity="0" stroke="#000000" stroke-width="1" stroke-opacity="0"></use></g></g><g><use xlink:href="#b6GRn8G9MP" opacity="1" fill="#583e68" fill-opacity="1"></use><g><use xlink:href="#b6GRn8G9MP" opacity="1" fill-opacity="0" stroke="#000000" stroke-width="1" stroke-opacity="0"></use></g></g><g><use xlink:href="#g53eC3kaPN" opacity="1" fill="#9777a8" fill-opacity="1"></use><g><use xlink:href="#g53eC3kaPN" opacity="1" fill-opacity="0" stroke="#000000" stroke-width="1" stroke-opacity="0"></use></g></g><g><use xlink:href="#a1eKGpkBIr" opacity="1" fill="#6f58a8" fill-opacity="1"></use><g><use xlink:href="#a1eKGpkBIr" opacity="1" fill-opacity="0" stroke="#000000" stroke-width="1" stroke-opacity="0"></use></g></g><g><use xlink:href="#dc0fEh2ga" opacity="1" fill="#6f58a8" fill-opacity="1"></use><g><use xlink:href="#dc0fEh2ga" opacity="1" fill-opacity="0" stroke="#000000" stroke-width="1" stroke-opacity="0"></use></g></g><g><use xlink:href="#m3HgaDHGKa" opacity="1" fill="#6f58a8" fill-opacity="1"></use><g><use xlink:href="#m3HgaDHGKa" opacity="1" fill-opacity="0" stroke="#000000" stroke-width="1" stroke-opacity="0"></use></g></g><g><use xlink:href="#a6i7zdvO6P" opacity="1" fill="#88c057" fill-opacity="1"></use><g><use xlink:href="#a6i7zdvO6P" opacity="1" fill-opacity="0" stroke="#000000" stroke-width="1" stroke-opacity="0"></use></g></g><g><use xlink:href="#cew4LrCR9" opacity="1" fill="#7a3726" fill-opacity="1"></use><g><use xlink:href="#cew4LrCR9" opacity="1" fill-opacity="0" stroke="#000000" stroke-width="1" stroke-opacity="0"></use></g></g></g></g></svg>