<?xml version="1.0" encoding="UTF-8" standalone="no"?>
<!DOCTYPE svg PUBLIC "-//W3C//DTD SVG 1.1//EN" "http://www.w3.org/Graphics/SVG/1.1/DTD/svg11.dtd">
<svg version="1.1" xmlns="http://www.w3.org/2000/svg" xmlns:xlink="http://www.w3.org/1999/xlink" preserveAspectRatio="xMidYMid meet" viewBox="0 0 640 640" width="640" height="640"><defs><path d="M205.23 396.65C201.38 383.96 183.92 384.09 187.74 396.65C189.49 396.65 203.48 396.65 205.23 396.65Z" id="eG39zrlQm"></path><path d="M205.23 396.65C201.38 383.96 183.92 384.09 187.74 396.65C189.49 396.65 203.48 396.65 205.23 396.65Z" id="azQwAbNB5"></path><path d="M180.52 354.23C181.91 353.87 183.29 354.87 183.6 356.46C183.97 358.32 184.31 360.18 184.63 361.97C184.92 363.57 184.03 365.18 182.62 365.44C180.73 365.8 179.82 364.54 179.57 363.14C179.26 361.39 178.92 359.57 178.56 357.75C178.25 356.16 179.12 354.59 180.52 354.23Z" id="e8Kd0t3mM"></path><path d="M180.52 354.23C181.91 353.87 183.29 354.87 183.6 356.46C183.97 358.32 184.31 360.18 184.63 361.97C184.92 363.57 184.03 365.18 182.62 365.44C180.73 365.8 179.82 364.54 179.57 363.14C179.26 361.39 178.92 359.57 178.56 357.75C178.25 356.16 179.12 354.59 180.52 354.23Z" id="fhzMqbwhg"></path><path d="M404.29 6.07C404.28 6.07 404.28 6.07 404.27 6.07C396.26 25.09 356.2 120.17 284.09 291.31L301.05 298.91C373.16 127.77 413.22 32.7 421.23 13.68C421.23 13.68 421.23 13.68 421.23 13.68C422.69 10.18 422.05 5.98 419.29 3.12C415.69 -0.6 409.82 -0.6 406.22 3.12C405.37 4 404.73 5 404.29 6.07Z" id="cPnORdfoo"></path><path d="M404.29 6.07C404.28 6.07 404.28 6.07 404.27 6.07C396.26 25.09 356.2 120.17 284.09 291.31L301.05 298.91C373.16 127.77 413.22 32.7 421.23 13.68C421.23 13.68 421.23 13.68 421.23 13.68C422.69 10.18 422.05 5.98 419.29 3.12C415.69 -0.6 409.82 -0.6 406.22 3.12C405.37 4 404.73 5 404.29 6.07Z" id="hryMbQrJo"></path><path d="M275.78 187.26C284.72 186.41 356.22 179.57 365.16 178.71C365.16 178.71 408.23 204.04 384.61 121.63C357.28 26.28 273.5 13.75 288.69 42.39C303.88 71.02 232.92 59.69 223.78 114.87C211.2 190.74 265.38 172.78 275.78 187.26Z" id="dUY5s92uC"></path><path d="M275.78 187.26C284.72 186.41 356.22 179.57 365.16 178.71C365.16 178.71 408.23 204.04 384.61 121.63C357.28 26.28 273.5 13.75 288.69 42.39C303.88 71.02 232.92 59.69 223.78 114.87C211.2 190.74 265.38 172.78 275.78 187.26Z" id="a1bcjNOcOk"></path><path d="M237.1 458.51L366.53 458.51L348.04 420.37L255.59 420.37L237.1 458.51Z" id="cWKBQMkiv"></path><path d="M237.1 458.51L366.53 458.51L348.04 420.37L255.59 420.37L237.1 458.51Z" id="cw4XCwfiN"></path><path d="M218.61 114.87C218.61 114.87 200.12 133.97 200.12 191.24C200.12 229.42 209.36 309.71 255.59 420.34C256.82 420.34 262.98 420.34 274.08 420.34C318.46 420.34 343.11 420.34 348.04 420.34C394.26 309.71 403.51 229.42 403.51 191.24C403.51 133.97 385.01 114.87 385.01 114.87C373.92 114.87 346.19 114.87 301.81 114.87C251.89 114.87 224.16 114.87 218.61 114.87Z" id="can6ZnD0t"></path><path d="M218.61 114.87C218.61 114.87 200.12 133.97 200.12 191.24C200.12 229.42 209.36 309.71 255.59 420.34C256.82 420.34 262.98 420.34 274.08 420.34C318.46 420.34 343.11 420.34 348.04 420.34C394.26 309.71 403.51 229.42 403.51 191.24C403.51 133.97 385.01 114.87 385.01 114.87C373.92 114.87 346.19 114.87 301.81 114.87C251.89 114.87 224.16 114.87 218.61 114.87Z" id="a854vOZrpz"></path><path d="M258.3 427.08C261.91 430.8 267.76 430.8 271.37 427.08C273.17 425.23 274.07 422.8 274.08 420.37C270.38 420.37 257.44 420.37 255.59 420.37C255.6 422.8 256.5 425.23 258.3 427.08Z" id="i1sJL49tjo"></path><path d="M258.3 427.08C261.91 430.8 267.76 430.8 271.37 427.08C273.17 425.23 274.07 422.8 274.08 420.37C270.38 420.37 257.44 420.37 255.59 420.37C255.6 422.8 256.5 425.23 258.3 427.08Z" id="a1okK8LtF8"></path><path d="M276.78 427.08C280.4 430.8 286.25 430.8 289.86 427.08C291.66 425.23 292.56 422.8 292.57 420.37C288.87 420.37 275.93 420.37 274.08 420.37C274.09 422.8 274.99 425.23 276.78 427.08Z" id="arTHWKMUT"></path><path d="M276.78 427.08C280.4 430.8 286.25 430.8 289.86 427.08C291.66 425.23 292.56 422.8 292.57 420.37C288.87 420.37 275.93 420.37 274.08 420.37C274.09 422.8 274.99 425.23 276.78 427.08Z" id="bRbsrYZz"></path><path d="M295.28 427.08C298.89 430.8 304.74 430.8 308.35 427.08C310.15 425.23 311.05 422.8 311.06 420.37C307.36 420.37 294.42 420.37 292.57 420.37C292.58 422.8 293.48 425.23 295.28 427.08Z" id="d8DMPac0b"></path><path d="M295.28 427.08C298.89 430.8 304.74 430.8 308.35 427.08C310.15 425.23 311.05 422.8 311.06 420.37C307.36 420.37 294.42 420.37 292.57 420.37C292.58 422.8 293.48 425.23 295.28 427.08Z" id="aa0B1H8y"></path><path d="M313.77 427.08C317.38 430.8 323.23 430.8 326.83 427.08C328.63 425.23 329.54 422.8 329.54 420.37C325.85 420.37 312.91 420.37 311.06 420.37C311.07 422.8 311.97 425.23 313.77 427.08Z" id="gjPdXKfYp"></path><path d="M313.77 427.08C317.38 430.8 323.23 430.8 326.83 427.08C328.63 425.23 329.54 422.8 329.54 420.37C325.85 420.37 312.91 420.37 311.06 420.37C311.07 422.8 311.97 425.23 313.77 427.08Z" id="a2ChpE8IfH"></path><path d="M332.25 427.08C335.87 430.8 341.72 430.8 345.33 427.08C347.12 425.23 348.03 422.8 348.03 420.37C344.33 420.37 331.39 420.37 329.54 420.37C329.56 422.8 330.45 425.23 332.25 427.08Z" id="d1DcKQesJ"></path><path d="M332.25 427.08C335.87 430.8 341.72 430.8 345.33 427.08C347.12 425.23 348.03 422.8 348.03 420.37C344.33 420.37 331.39 420.37 329.54 420.37C329.56 422.8 330.45 425.23 332.25 427.08Z" id="bBm0TSZ7i"></path><path d="M316.76 133.55C343.53 122.2 359.76 98.81 368.19 82.75C364.37 76.2 360.26 70.31 356 65.05C351.02 76.62 336.65 104.48 309.73 115.89C310.44 117.65 316.05 131.78 316.76 133.55Z" id="azq2XKrB"></path><path d="M316.76 133.55C343.53 122.2 359.76 98.81 368.19 82.75C364.37 76.2 360.26 70.31 356 65.05C351.02 76.62 336.65 104.48 309.73 115.89C310.44 117.65 316.05 131.78 316.76 133.55Z" id="a105NgTxnv"></path><path d="M331.95 42.33C322.15 58.24 289.49 105.78 244.48 115.37C244.85 117.24 247.84 132.19 248.21 134.06C274.23 128.53 300.33 111.54 323.67 84.95C334.15 73.01 341.87 61.71 346.42 54.46C341.61 49.72 336.75 45.69 331.95 42.33Z" id="b3u0ge1CGt"></path><path d="M331.95 42.33C322.15 58.24 289.49 105.78 244.48 115.37C244.85 117.24 247.84 132.19 248.21 134.06C274.23 128.53 300.33 111.54 323.67 84.95C334.15 73.01 341.87 61.71 346.42 54.46C341.61 49.72 336.75 45.69 331.95 42.33Z" id="aZm2wPXTe"></path><path d="M375.78 439.41C360.99 439.41 242.64 439.41 227.85 439.41C227.85 439.41 227.85 439.41 227.85 439.41C225.48 439.41 223.12 440.35 221.31 442.21C217.7 445.94 217.7 452 221.31 455.72C223.12 457.57 225.48 458.51 227.85 458.51C227.85 458.51 227.85 458.51 227.85 458.51C242.64 458.51 360.99 458.51 375.78 458.51C375.78 458.51 375.78 458.51 375.78 458.51C378.15 458.51 380.5 457.59 382.32 455.72C385.92 452 385.92 445.94 382.32 442.21C380.5 440.35 378.15 439.41 375.78 439.41C375.78 439.41 375.78 439.41 375.78 439.41Z" id="i1jQG6hOPI"></path><path d="M375.78 439.41C360.99 439.41 242.64 439.41 227.85 439.41C227.85 439.41 227.85 439.41 227.85 439.41C225.48 439.41 223.12 440.35 221.31 442.21C217.7 445.94 217.7 452 221.31 455.72C223.12 457.57 225.48 458.51 227.85 458.51C227.85 458.51 227.85 458.51 227.85 458.51C242.64 458.51 360.99 458.51 375.78 458.51C375.78 458.51 375.78 458.51 375.78 458.51C378.15 458.51 380.5 457.59 382.32 455.72C385.92 452 385.92 445.94 382.32 442.21C380.5 440.35 378.15 439.41 375.78 439.41C375.78 439.41 375.78 439.41 375.78 439.41Z" id="d1rikZ51AO"></path><path d="M385.01 114.87C379.47 114.87 351.73 114.87 301.81 114.87C251.89 114.87 224.16 114.87 218.61 114.87C218.61 114.87 208.7 125.11 203.39 153.05C242.76 153.05 380.55 153.05 400.24 153.05C394.93 125.11 388.06 122.51 385.01 114.87Z" id="i1dRGscCV4"></path><path d="M385.01 114.87C379.47 114.87 351.73 114.87 301.81 114.87C251.89 114.87 224.16 114.87 218.61 114.87C218.61 114.87 208.7 125.11 203.39 153.05C242.76 153.05 380.55 153.05 400.24 153.05C394.93 125.11 388.06 122.51 385.01 114.87Z" id="j1rRCroM1X"></path><path d="M292.57 219.88C292.57 219.88 292.57 219.88 292.57 219.88C292.57 233.24 292.57 340.14 292.57 353.5C292.57 353.5 292.57 353.5 292.57 353.5C292.57 355.96 293.47 358.4 295.28 360.27C298.89 363.99 304.74 363.99 308.35 360.27C310.15 358.4 311.06 355.96 311.06 353.5C311.06 353.5 311.06 353.5 311.06 353.5C311.06 340.14 311.06 233.24 311.06 219.88C311.06 219.88 311.06 219.88 311.06 219.88C311.06 217.43 310.15 214.99 308.35 213.12C304.74 209.4 298.89 209.4 295.28 213.12C293.47 214.99 292.57 217.43 292.57 219.88Z" id="c2L0x1EwV2"></path><path d="M292.57 219.88C292.57 219.88 292.57 219.88 292.57 219.88C292.57 233.24 292.57 340.14 292.57 353.5C292.57 353.5 292.57 353.5 292.57 353.5C292.57 355.96 293.47 358.4 295.28 360.27C298.89 363.99 304.74 363.99 308.35 360.27C310.15 358.4 311.06 355.96 311.06 353.5C311.06 353.5 311.06 353.5 311.06 353.5C311.06 340.14 311.06 233.24 311.06 219.88C311.06 219.88 311.06 219.88 311.06 219.88C311.06 217.43 310.15 214.99 308.35 213.12C304.74 209.4 298.89 209.4 295.28 213.12C293.47 214.99 292.57 217.43 292.57 219.88Z" id="d85dtn6K7"></path><path d="M338.9 218.53C338.9 218.53 338.89 218.53 338.89 218.53C337.04 231.89 322.25 338.8 320.4 352.16C320.4 352.16 320.41 352.16 320.41 352.16C320.01 355.04 320.87 358.06 323.01 360.27C326.62 363.99 332.48 363.99 336.08 360.27C337.56 358.73 338.41 356.83 338.7 354.86C338.7 354.86 338.7 354.86 338.7 354.86C340.55 341.5 355.35 234.58 357.2 221.22C357.19 221.22 357.18 221.22 357.18 221.22C357.58 218.35 356.71 215.33 354.58 213.12C350.97 209.4 345.12 209.4 341.5 213.12C340.02 214.64 339.17 216.55 338.9 218.53Z" id="f3tomnhxhw"></path><path d="M338.9 218.53C338.9 218.53 338.89 218.53 338.89 218.53C337.04 231.89 322.25 338.8 320.4 352.16C320.4 352.16 320.41 352.16 320.41 352.16C320.01 355.04 320.87 358.06 323.01 360.27C326.62 363.99 332.48 363.99 336.08 360.27C337.56 358.73 338.41 356.83 338.7 354.86C338.7 354.86 338.7 354.86 338.7 354.86C340.55 341.5 355.35 234.58 357.2 221.22C357.19 221.22 357.18 221.22 357.18 221.22C357.58 218.35 356.71 215.33 354.58 213.12C350.97 209.4 345.12 209.4 341.5 213.12C340.02 214.64 339.17 216.55 338.9 218.53Z" id="bb8jdrHRP"></path><path d="M264.73 218.53C264.46 216.55 263.6 214.64 262.12 213.12C258.51 209.4 252.66 209.4 249.05 213.12C246.92 215.33 246.05 218.35 246.45 221.22C246.45 221.22 246.44 221.22 246.43 221.23C248.28 234.59 263.08 341.5 264.93 354.86C264.93 354.86 264.93 354.86 264.93 354.86C265.21 356.83 266.07 358.73 267.54 360.27C271.15 363.99 277.01 363.99 280.62 360.27C282.76 358.06 283.62 355.04 283.22 352.16C283.22 352.16 283.23 352.16 283.23 352.16C283.23 352.16 283.23 352.16 283.23 352.16L264.74 218.52C264.73 218.53 264.73 218.53 264.73 218.53Z" id="c53KC9L52"></path><path d="M264.73 218.53C264.46 216.55 263.6 214.64 262.12 213.12C258.51 209.4 252.66 209.4 249.05 213.12C246.92 215.33 246.05 218.35 246.45 221.22C246.45 221.22 246.44 221.22 246.43 221.23C248.28 234.59 263.08 341.5 264.93 354.86C264.93 354.86 264.93 354.86 264.93 354.86C265.21 356.83 266.07 358.73 267.54 360.27C271.15 363.99 277.01 363.99 280.62 360.27C282.76 358.06 283.62 355.04 283.22 352.16C283.22 352.16 283.23 352.16 283.23 352.16C283.23 352.16 283.23 352.16 283.23 352.16L264.74 218.52C264.73 218.53 264.73 218.53 264.73 218.53Z" id="eVNY5ibdr"></path><path d="M246.37 66.37C246.37 66.32 246.69 60.7 243.4 54.64C238.94 46.43 230.01 40.94 216.86 38.34C211.85 37.35 208.56 32.35 209.52 27.17C210.48 21.99 215.33 18.6 220.34 19.59C233.7 22.23 251.44 29.07 260.22 46.63C265.58 57.37 264.89 66.98 264.79 68.04C262.34 67.8 256.2 67.2 246.38 66.25C246.38 66.32 246.37 66.35 246.37 66.37Z" id="a2Oqg3a54"></path><path d="M246.37 66.37C246.37 66.32 246.69 60.7 243.4 54.64C238.94 46.43 230.01 40.94 216.86 38.34C211.85 37.35 208.56 32.35 209.52 27.17C210.48 21.99 215.33 18.6 220.34 19.59C233.7 22.23 251.44 29.07 260.22 46.63C265.58 57.37 264.89 66.98 264.79 68.04C262.34 67.8 256.2 67.2 246.38 66.25C246.38 66.32 246.37 66.35 246.37 66.37Z" id="a72mKKIj17"></path><path d="M227.85 67.14C227.85 82.96 240.27 95.78 255.59 95.78C270.91 95.78 283.32 82.96 283.32 67.14C283.32 51.33 270.91 38.51 255.59 38.51C240.27 38.51 227.85 51.33 227.85 67.14Z" id="a51QIkLCEo"></path><path d="M227.85 67.14C227.85 82.96 240.27 95.78 255.59 95.78C270.91 95.78 283.32 82.96 283.32 67.14C283.32 51.33 270.91 38.51 255.59 38.51C240.27 38.51 227.85 51.33 227.85 67.14Z" id="f3vjgQveq"></path><path d="M216.55 289.46C218.06 288.78 219.72 289.72 220.28 291.57C223.39 301.97 226.33 313.7 228.79 325.5C229.19 327.4 228.28 329.51 226.7 329.83C224.33 330.31 223.5 328.87 223.17 327.26C220.76 315.7 217.88 304.21 214.83 294.03C214.28 292.18 215.05 290.14 216.55 289.46Z" id="dd6N4TAVr"></path><path d="M188.41 393.28C188.41 392.35 188.72 391.43 189.26 390.77C189.8 390.1 190.55 389.72 191.31 389.72C192.08 389.72 192.82 390.1 193.36 390.77C193.9 391.43 194.21 392.35 194.21 393.28C194.21 394.22 193.9 395.14 193.36 395.81C192.82 396.47 192.08 396.85 191.31 396.85C190.55 396.85 189.8 396.47 189.26 395.81C188.72 395.14 188.41 394.22 188.41 393.28Z" id="dIUOxDlgK"></path><path d="M188.41 393.28C188.41 392.35 188.72 391.43 189.26 390.77C189.8 390.1 190.55 389.72 191.31 389.72C192.08 389.72 192.82 390.1 193.36 390.77C193.9 391.43 194.21 392.35 194.21 393.28C194.21 394.22 193.9 395.14 193.36 395.81C192.82 396.47 192.08 396.85 191.31 396.85C190.55 396.85 189.8 396.47 189.26 395.81C188.72 395.14 188.41 394.22 188.41 393.28Z" id="d2tBmkH8G5"></path><path d="M198.27 377.56C198.27 376.62 198.58 375.7 199.12 375.04C199.66 374.38 200.41 374 201.17 374C201.94 374 202.69 374.38 203.23 375.04C203.76 375.71 204.07 376.62 204.07 377.56C204.07 378.5 203.76 379.42 203.23 380.08C202.69 380.74 201.94 381.12 201.17 381.12C200.41 381.12 199.66 380.74 199.12 380.08C198.58 379.42 198.27 378.5 198.27 377.56Z" id="b2qT9ID8wJ"></path><path d="M198.27 377.56C198.27 376.62 198.58 375.7 199.12 375.04C199.66 374.38 200.41 374 201.17 374C201.94 374 202.69 374.38 203.23 375.04C203.76 375.71 204.07 376.62 204.07 377.56C204.07 378.5 203.76 379.42 203.23 380.08C202.69 380.74 201.94 381.12 201.17 381.12C200.41 381.12 199.66 380.74 199.12 380.08C198.58 379.42 198.27 378.5 198.27 377.56Z" id="c1HA9lqr2C"></path><path d="M211.62 377.56C211.62 376.62 211.93 375.7 212.47 375.04C213.01 374.38 213.75 374 214.52 374C215.28 374 216.03 374.38 216.57 375.04C217.11 375.71 217.42 376.62 217.42 377.56C217.42 378.5 217.11 379.42 216.57 380.08C216.03 380.74 215.28 381.12 214.52 381.12C213.76 381.12 213.01 380.74 212.47 380.08C211.93 379.42 211.62 378.5 211.62 377.56Z" id="dyWgMtbxn"></path><path d="M211.62 377.56C211.62 376.62 211.93 375.7 212.47 375.04C213.01 374.38 213.75 374 214.52 374C215.28 374 216.03 374.38 216.57 375.04C217.11 375.71 217.42 376.62 217.42 377.56C217.42 378.5 217.11 379.42 216.57 380.08C216.03 380.74 215.28 381.12 214.52 381.12C213.76 381.12 213.01 380.74 212.47 380.08C211.93 379.42 211.62 378.5 211.62 377.56Z" id="b5CgUpbJI"></path><path d="M185.51 370.44C185.51 369.5 185.82 368.58 186.36 367.92C186.9 367.26 187.65 366.88 188.41 366.88C189.17 366.88 189.92 367.26 190.46 367.92C191 368.59 191.31 369.5 191.31 370.44C191.31 371.38 191 372.29 190.46 372.96C189.92 373.62 189.17 374 188.41 374C187.65 374 186.9 373.62 186.36 372.96C185.82 372.29 185.51 371.38 185.51 370.44Z" id="c7bdECMKI"></path><path d="M185.51 370.44C185.51 369.5 185.82 368.58 186.36 367.92C186.9 367.26 187.65 366.88 188.41 366.88C189.17 366.88 189.92 367.26 190.46 367.92C191 368.59 191.31 369.5 191.31 370.44C191.31 371.38 191 372.29 190.46 372.96C189.92 373.62 189.17 374 188.41 374C187.65 374 186.9 373.62 186.36 372.96C185.82 372.29 185.51 371.38 185.51 370.44Z" id="eJTpXojN4"></path><path d="M202.65 356.12C202.65 355.19 202.96 354.26 203.5 353.6C204.04 352.94 204.78 352.56 205.55 352.56C206.31 352.56 207.06 352.94 207.6 353.6C208.14 354.27 208.45 355.18 208.45 356.12C208.45 357.06 208.14 357.98 207.6 358.64C207.06 359.3 206.31 359.68 205.55 359.68C204.78 359.68 204.04 359.3 203.5 358.64C202.96 357.98 202.65 357.06 202.65 356.12Z" id="a34enUywI2"></path><path d="M202.65 356.12C202.65 355.19 202.96 354.26 203.5 353.6C204.04 352.94 204.78 352.56 205.55 352.56C206.31 352.56 207.06 352.94 207.6 353.6C208.14 354.27 208.45 355.18 208.45 356.12C208.45 357.06 208.14 357.98 207.6 358.64C207.06 359.3 206.31 359.68 205.55 359.68C204.78 359.68 204.04 359.3 203.5 358.64C202.96 357.98 202.65 357.06 202.65 356.12Z" id="a2nDOI3R5M"></path><path d="M204.07 396.85C204.07 395.91 204.38 394.99 204.92 394.33C205.47 393.66 206.21 393.28 206.97 393.28C207.74 393.28 208.49 393.66 209.03 394.33C209.57 394.99 209.88 395.91 209.88 396.85C209.88 397.79 209.57 398.7 209.03 399.37C208.49 400.03 207.74 400.41 206.97 400.41C206.21 400.41 205.47 400.03 204.92 399.37C204.38 398.7 204.07 397.79 204.07 396.85Z" id="cYIkIeGjz"></path><path d="M204.07 396.85C204.07 395.91 204.38 394.99 204.92 394.33C205.47 393.66 206.21 393.28 206.97 393.28C207.74 393.28 208.49 393.66 209.03 394.33C209.57 394.99 209.88 395.91 209.88 396.85C209.88 397.79 209.57 398.7 209.03 399.37C208.49 400.03 207.74 400.41 206.97 400.41C206.21 400.41 205.47 400.03 204.92 399.37C204.38 398.7 204.07 397.79 204.07 396.85Z" id="a2Hb6AcAed"></path><path d="M201.17 330.8C201.17 329.87 201.48 328.95 202.02 328.29C202.56 327.62 203.31 327.24 204.07 327.24C204.84 327.24 205.59 327.62 206.13 328.29C206.67 328.95 206.97 329.87 206.97 330.8C206.97 331.74 206.66 332.66 206.13 333.32C205.59 333.98 204.84 334.36 204.07 334.36C203.31 334.36 202.57 333.98 202.02 333.32C201.48 332.66 201.17 331.74 201.17 330.8Z" id="a27STYKb05"></path><path d="M201.17 330.8C201.17 329.87 201.48 328.95 202.02 328.29C202.56 327.62 203.31 327.24 204.07 327.24C204.84 327.24 205.59 327.62 206.13 328.29C206.67 328.95 206.97 329.87 206.97 330.8C206.97 331.74 206.66 332.66 206.13 333.32C205.59 333.98 204.84 334.36 204.07 334.36C203.31 334.36 202.57 333.98 202.02 333.32C201.48 332.66 201.17 331.74 201.17 330.8Z" id="enqBL4mZM"></path><path d="M191.31 347.24C191.31 346.31 191.62 345.38 192.16 344.72C192.7 344.06 193.45 343.68 194.21 343.68C194.98 343.68 195.72 344.06 196.26 344.72C196.8 345.39 197.11 346.31 197.11 347.24C197.11 348.18 196.8 349.1 196.26 349.76C195.72 350.42 194.98 350.8 194.21 350.8C193.45 350.8 192.7 350.42 192.16 349.76C191.62 349.1 191.31 348.18 191.31 347.24Z" id="c6aTMhNN3j"></path><path d="M191.31 347.24C191.31 346.31 191.62 345.38 192.16 344.72C192.7 344.06 193.45 343.68 194.21 343.68C194.98 343.68 195.72 344.06 196.26 344.72C196.8 345.39 197.11 346.31 197.11 347.24C197.11 348.18 196.8 349.1 196.26 349.76C195.72 350.42 194.98 350.8 194.21 350.8C193.45 350.8 192.7 350.42 192.16 349.76C191.62 349.1 191.31 348.18 191.31 347.24Z" id="a116Mjzg6j"></path><path d="M261.73 366.29L261.73 366.36C206.58 420.95 175.94 451.27 169.82 457.34C167.72 456.19 165.69 454.92 163.75 453.54C173.48 443.91 251.32 366.87 261.05 357.24C261.5 360.19 261.73 363.22 261.73 366.29" id="b1QRPrWE0m"></path><path d="M193.27 305.65L192.66 305.72L192.13 305.78L191.46 305.87L191 305.93L189.88 306.1L190.95 305.93L191 305.93L191.06 305.92L191.46 305.87L192.03 305.79L192.13 305.78L192.25 305.76L192.66 305.72L193.12 305.67L193.27 305.65L193.45 305.63L193.84 305.6L194.21 305.56L194.32 305.55L194.43 305.54L194.54 305.53L194.65 305.52L193.84 305.6L193.27 305.65Z" id="bVzAH3NGt"></path><path d="M250.62 405.1L250.63 404.83L250.63 404.56L250.63 404.29L250.63 404.01L250.63 402.76L251.81 403.93L250.62 405.1Z" id="hQLm6eIAA"></path><path d="M161.92 380.25L166.69 375.54L166.69 384.97L161.92 380.25Z" id="c6V2H9T3Me"></path><path d="M250.03 330.6C245.94 334.64 243.68 336.89 243.22 337.34C244.4 339.49 245.46 341.72 246.37 344.02C247.12 343.27 253.14 337.32 253.89 336.57C252.72 334.51 251.44 332.51 250.03 330.6" id="bDlXka6c9"></path><path d="M250.63 377.35L250.63 367.55L251.81 366.38L256.76 371.28L250.63 377.35Z" id="aagEThRQmm"></path><path d="M249.41 416.11L249.51 415.61L249.61 415.1L249.7 414.6L249.79 414.09L249.87 413.58L249.95 413.07L250.13 411.76L250.29 410.45L250.42 409.12L250.51 407.79L250.58 406.45L250.62 405.1L251.81 403.93L256.77 408.83L249.41 416.11Z" id="c4rltpNC9W"></path><path d="M261.72 366.38L261.73 366.39L261.73 376.2L256.76 371.28L251.81 366.38L250.62 365.2L250.59 364.08L250.54 362.96L250.47 361.84L250.38 360.73L250.27 359.63L250.13 358.53L249.98 357.44L249.81 356.35L249.62 355.28L249.41 354.2L256.77 361.48L261.72 366.38Z" id="a2tQvRdDzH"></path><path d="M261.71 403.93L261.73 403.95L261.73 404.02L261.72 405.04L261.7 406.06L261.65 407.07L261.6 408.08L261.52 409.09L261.43 410.09L261.32 411.09L261.19 412.08L261.05 413.07L256.77 408.83L251.81 403.93L250.63 402.76L250.63 392.96L256.76 399.03L261.71 403.93Z" id="b3hol251XE"></path><path d="M170.04 423.85L170.62 425.45L171.25 427.03L166.87 422.7L169.01 420.59L169.5 422.23L170.04 423.85Z" id="cBu1mI3H9"></path><path d="M167.29 412.49L161.93 417.8L166.88 422.7C168.15 421.43 168.86 420.73 169.01 420.59C168.31 418.14 167.76 415.63 167.37 413.07C167.34 412.88 167.31 412.69 167.29 412.49" id="aqOicfIjy"></path><path d="M209.12 464.32L209.04 464.33L208.75 464.37L208.47 464.41L208.3 464.43L208.29 464.43L208.24 464.44L208.19 464.45L208.3 464.43L208.34 464.43L208.39 464.42L208.39 464.42L208.4 464.42L208.46 464.41L208.59 464.39L208.65 464.38L208.82 464.36L208.99 464.34L209.12 464.32L209.32 464.29L209.15 464.31L209.12 464.32Z" id="a1vZrlepy4"></path><path d="M253.3 434.76L252.68 435.78L252.05 436.78L251.4 437.77L250.72 438.74L250.03 439.71L243.22 432.97L243.8 431.89L244.36 430.79L244.89 429.68L245.41 428.56L245.9 427.43L246.37 426.29L253.89 433.74L253.3 434.76Z" id="bdq8ipxt"></path><path d="M183.12 462.74L180.34 461.9L177.61 460.94L174.95 459.85L172.35 458.65L169.82 457.34L169.82 457.33L172.35 458.65L174.95 459.85L177.61 460.94L180.34 461.9L183.12 462.74L183.12 462.74L185.96 463.45L183.12 462.74Z" id="b8N4lJ0c6"></path><path d="M190.77 464.34L190.36 464.28L189.96 464.22L189.56 464.15L189.15 464.09L188.75 464.02L188.35 463.94L187.95 463.87L187.55 463.79L187.15 463.71L186.75 463.63L186.36 463.54L185.96 463.45L184.54 463.11L183.12 462.74L181.73 462.34L180.34 461.9L178.97 461.44L177.61 460.94L176.27 460.41L174.95 459.85L173.64 459.27L172.35 458.65L171.07 458.01L169.82 457.34L180.89 446.38L194.9 460.25L190.77 464.34Z" id="aX75BsVGI"></path><path d="M194.9 460.25C192.42 462.7 191.05 464.07 190.77 464.34C193.69 464.77 196.67 464.99 199.71 465C199.39 464.68 197.78 463.1 194.9 460.25" id="bjqZ4jtW"></path><path d="M200.4 465L200.21 465L200.01 465L200.21 465L200.4 465L200.6 465L200.79 464.99L200.6 465L200.4 465Z" id="b1jYNWLcQ0"></path><path d="M200.01 465C199.96 465 199.91 465 199.86 465C199.87 465 199.92 465 200.01 465L200.01 465" id="abxVH2rkL"></path><path d="M261.66 284.02C260.53 283.74 259.46 284.69 259.44 285.98C259.33 294.02 261.19 319.33 289.33 319.8C289.43 319.44 289.53 319.09 289.64 318.73C289.08 313.4 285.3 289.89 261.66 284.02Z" id="ahkLRq4G"></path><path d="M266.47 285.56C264.97 284.96 263.37 284.45 261.66 284.02C260.53 283.74 259.46 284.69 259.44 285.98C259.33 294.02 261.19 319.33 289.33 319.8C289.4 319.58 289.46 319.36 289.52 319.13C267.87 315.03 266.32 293.32 266.43 285.98C266.43 285.84 266.45 285.69 266.47 285.56Z" id="a1sbjhj1gX"></path><path d="M313.59 298.98C314.87 298.11 315.1 296.12 314.06 294.91C313.43 294.17 308.4 288.3 307.77 287.57C306.34 285.89 303.91 286.06 302.67 287.93C296.39 297.41 287.99 317.52 286.11 333.57C287.95 333.47 289.39 333.48 290.93 333.53C295.36 323.4 302.74 306.33 313.59 298.98Z" id="i2ezLtWvQh"></path><path d="M307.77 287.57C306.34 285.89 303.91 286.06 302.67 287.93C296.39 297.41 287.99 317.52 286.11 333.57C287.95 333.47 289.39 333.48 290.93 333.53C291.56 332.1 292.24 330.53 292.99 328.87C295.69 314.06 302.88 297.16 308.51 288.43C308.37 288.26 307.85 287.65 307.77 287.57Z" id="bAk03H8df"></path><path d="M285.45 464.78C269.05 461.34 254.26 450.04 245.33 433.22C245.32 433.21 245.28 433.13 245.27 433.12C244.34 431.34 243.48 429.54 242.71 427.71C242.7 427.7 242.65 427.57 242.64 427.55C242.41 426.99 242.18 426.44 241.97 425.89C241.96 425.86 241.87 425.64 241.86 425.61C241.65 425.07 241.45 424.52 241.25 423.95C241.24 423.94 241.2 423.81 241.19 423.8C240.51 421.89 239.91 419.94 239.4 417.98C239.39 417.95 239.33 417.72 239.32 417.69C239.19 417.16 239.05 416.59 238.92 416.02C238.91 415.99 238.85 415.72 238.84 415.68C232.3 387.04 243.71 358.13 262.37 344.24C262.37 344.25 262.34 344.27 262.33 344.27C264.52 342.54 267.05 340.84 268.85 339.8C268.85 339.8 268.85 339.8 268.85 339.8C274.27 336.62 279.84 334.49 285.45 333.31C285.45 333.31 285.45 333.31 285.45 333.31C286.06 333.19 287.03 333 287.21 332.97C287.21 332.97 287.21 332.97 287.21 332.97C289.16 332.63 291.13 332.4 293.05 332.28C289.24 332 284.67 332.2 280.23 332.97C280.23 332.97 280.23 332.97 280.23 332.97C280.05 333 279.08 333.18 278.47 333.31C278.47 333.31 278.47 333.31 278.47 333.31C272.86 334.49 267.29 336.62 261.87 339.8C261.87 339.8 261.87 339.8 261.87 339.8C260.07 340.84 257.54 342.55 255.35 344.27C255.36 344.27 255.39 344.25 255.39 344.24C236.73 358.13 225.32 387.04 231.86 415.68C231.86 415.72 231.93 415.99 231.93 416.02C232.07 416.59 232.2 417.16 232.34 417.69C232.35 417.72 232.41 417.95 232.42 417.98C232.93 419.94 233.53 421.89 234.21 423.8C234.21 423.81 234.26 423.94 234.26 423.95C234.46 424.52 234.67 425.07 234.88 425.61C234.89 425.64 234.98 425.87 234.99 425.89C235.2 426.44 235.42 426.99 235.66 427.55C235.67 427.57 235.72 427.7 235.73 427.71C236.5 429.54 237.35 431.34 238.29 433.12C238.29 433.13 238.34 433.21 238.34 433.22C247.28 450.04 262.07 461.34 278.47 464.78C278.47 464.78 278.47 464.78 278.47 464.78C282.73 465.67 287.13 466.06 291.67 465.88C292.11 465.86 292.54 465.83 292.97 465.8C290.42 465.64 287.91 465.29 285.45 464.78C285.45 464.78 285.45 464.78 285.45 464.78Z" id="c2i0NgfiY5"></path><path d="M348.76 346.61C347.12 346.42 345.46 346.32 343.78 346.32C317.46 346.32 296.13 370.3 296.13 399.87C296.13 429.45 317.46 453.42 343.78 453.42C345.46 453.42 347.12 453.32 348.76 453.13C324.78 450.33 306.09 427.56 306.09 399.87C306.09 372.19 324.78 349.41 348.76 346.61Z" id="aLnQEUnJH"></path><path d="M293.14 332.16L293.46 332.16L293.78 332.17L294.09 332.18L294.41 332.19L294.72 332.2L295.03 332.21L295.34 332.23L295.64 332.25L295.94 332.27L296.24 332.29L296.53 332.31L296.53 332.32L298.69 332.54L300.81 332.84L302.91 333.22L304.98 333.68L307.02 334.22L309.02 334.83L311 335.51L312.93 336.26L314.84 337.09L316.71 337.98L318.54 338.94L320.34 339.96L322.1 341.04L323.81 342.19L325.49 343.4L327.12 344.66L328.72 345.98L330.27 347.36L331.77 348.79L333.23 350.28L334.64 351.81L336.01 353.4L337.32 355.03L338.59 356.7L339.8 358.42L340.97 360.19L342.08 361.99L343.14 363.84L344.14 365.72L345.09 367.64L345.98 369.6L346.81 371.58L347.58 373.6L348.3 375.65L348.95 377.73L349.54 379.84L350.07 381.97L350.54 384.13L350.94 386.3L351.28 388.5L351.44 389.7L351.58 390.9L351.7 392.1L351.8 393.3L351.88 394.5L351.94 395.7L351.99 396.91L352.01 398.11L352.02 399.31L352 400.52L351.97 401.72L351.92 402.92L351.85 404.12L351.76 405.32L351.65 406.51L351.52 407.71L351.37 408.9L351.21 410.09L351.02 411.27L350.81 412.46L350.59 413.64L350.35 414.81L350.08 415.98L349.8 417.15L349.5 418.31L349.18 419.47L348.84 420.63L348.48 421.77L348.1 422.91L347.71 424.05L347.29 425.18L346.85 426.3L346.4 427.42L345.92 428.53L345.43 429.63L344.92 430.72L344.39 431.81L343.84 432.89L343.27 433.96L342.68 435.02L342.59 435.18L342.49 435.34L342.4 435.5L342.31 435.66L342.21 435.82L342.12 435.99L342.02 436.15L341.93 436.31L341.83 436.47L341.73 436.63L341.63 436.79L341.53 436.96L341.43 437.12L341.33 437.28L341.23 437.44L341.13 437.6L341.03 437.77L340.93 437.93L340.82 438.09L340.72 438.25L340.61 438.41L340.51 438.58L340.4 438.74L340.29 438.9L340.19 439.06L340.08 439.23L339.97 439.39L339.86 439.55L339.75 439.72L339.64 439.88L339.52 440.04L339.41 440.2L339.3 440.37L339.18 440.53L339.07 440.69L338.95 440.86L338.83 441.02L338.72 441.18L338.6 441.35L338.48 441.51L338.46 441.54L338.41 441.6L338.41 441.61L338.11 442L337.82 442.4L337.52 442.79L337.22 443.17L336.91 443.56L336.6 443.94L336.3 444.32L335.99 444.69L335.67 445.06L335.36 445.43L335.05 445.79L334.73 446.15L334.42 446.5L334.1 446.85L333.79 447.2L333.47 447.54L333.16 447.87L332.84 448.2L332.53 448.53L332.22 448.85L331.91 449.16L331.6 449.47L331.3 449.77L330.99 450.07L330.69 450.36L330.39 450.64L330.09 450.92L329.8 451.19L329.51 451.45L329.23 451.7L328.94 451.95L328.67 452.19L328.39 452.43L328.12 452.65L327.86 452.87L327.6 453.08L327.35 453.28L327.1 453.48L326.86 453.66L326.64 453.83L326.62 453.84L326.63 453.84L326.64 453.83L326.66 453.81L326.63 453.84L326.18 454.18L325.7 454.55L325.22 454.91L324.74 455.26L324.26 455.61L323.79 455.95L323.31 456.28L322.83 456.6L322.35 456.92L321.87 457.23L321.39 457.53L320.92 457.83L320.44 458.12L319.96 458.4L319.48 458.68L319 458.95L318.52 459.21L318.04 459.47L317.55 459.72L317.07 459.97L316.59 460.21L316.1 460.45L315.62 460.68L315.13 460.91L314.64 461.13L314.15 461.34L313.66 461.55L313.17 461.76L312.67 461.96L312.18 462.16L311.68 462.35L311.18 462.54L310.68 462.72L310.18 462.9L309.67 463.07L309.16 463.24L308.66 463.41L308.14 463.58L307.63 463.74L307.11 463.89L307.11 463.89L307.1 463.89L307.05 463.91L307.04 463.91L307.04 463.91L307.04 463.91L306.75 463.99L306.47 464.07L306.18 464.15L305.89 464.23L305.6 464.3L305.31 464.38L305.02 464.45L304.72 464.52L304.43 464.59L304.13 464.65L303.83 464.72L303.53 464.78L303.23 464.84L302.93 464.9L302.63 464.96L302.32 465.02L302.02 465.08L301.71 465.13L301.41 465.18L301.1 465.23L300.79 465.28L300.48 465.33L300.16 465.37L299.85 465.42L299.54 465.46L299.22 465.5L298.9 465.54L298.58 465.57L298.26 465.61L297.94 465.64L297.62 465.67L297.3 465.7L296.98 465.73L296.65 465.76L296.32 465.78L296 465.81L295.67 465.83L295.34 465.85L295.01 465.86L294.67 465.88L294.33 465.89L293.99 465.9L293.65 465.91L293.32 465.92L292.98 465.92L292.64 465.92L292.3 465.92L291.97 465.92L291.63 465.92L291.29 465.91L290.96 465.9L290.62 465.89L290.29 465.88L289.96 465.86L289.62 465.85L289.29 465.83L288.96 465.81L288.63 465.78L288.3 465.76L287.97 465.73L287.64 465.7L287.31 465.67L286.98 465.64L286.65 465.6L286.32 465.57L286 465.53L285.67 465.49L285.34 465.44L285.02 465.4L284.69 465.35L284.37 465.3L284.05 465.25L283.72 465.2L283.4 465.14L283.08 465.09L282.75 465.03L282.43 464.97L282.11 464.91L281.79 464.84L281.47 464.78L281.47 464.78L280.24 464.5L279.02 464.2L277.81 463.87L276.6 463.51L275.4 463.12L274.21 462.71L273.03 462.26L271.86 461.79L270.69 461.29L269.54 460.76L268.39 460.21L267.26 459.62L266.13 459.01L265.02 458.38L263.92 457.72L262.83 457.03L261.76 456.31L260.69 455.57L259.64 454.81L258.61 454.02L257.58 453.2L256.58 452.36L255.58 451.49L254.6 450.6L253.64 449.69L252.69 448.75L251.76 447.79L250.85 446.8L249.96 445.8L249.08 444.76L248.22 443.71L247.37 442.63L246.55 441.53L245.75 440.41L244.96 439.26L244.2 438.1L243.45 436.91L242.73 435.7L242.03 434.47L241.34 433.22L241.33 433.19L241.3 433.13L241.29 433.12L241.22 432.98L241.15 432.85L241.08 432.72L241.01 432.58L240.94 432.45L240.87 432.32L240.81 432.18L240.74 432.05L240.67 431.92L240.6 431.78L240.54 431.65L240.47 431.51L240.4 431.38L240.34 431.24L240.27 431.11L240.21 430.97L240.14 430.84L240.08 430.7L240.01 430.57L239.95 430.43L239.88 430.3L239.82 430.16L239.76 430.03L239.69 429.89L239.63 429.76L239.57 429.62L239.51 429.49L239.44 429.35L239.38 429.21L239.32 429.08L239.26 428.94L239.2 428.81L239.14 428.67L239.08 428.53L239.02 428.4L238.96 428.26L238.9 428.12L238.84 427.99L238.79 427.85L238.73 427.71L238.66 427.55L238.64 427.51L238.63 427.47L238.61 427.42L238.59 427.38L238.57 427.34L238.55 427.3L238.54 427.26L238.52 427.21L238.5 427.17L238.49 427.13L238.47 427.09L238.45 427.05L238.43 427.01L238.42 426.96L238.4 426.92L238.38 426.88L238.37 426.84L238.35 426.8L238.33 426.76L238.32 426.72L238.3 426.67L238.28 426.63L238.27 426.59L238.25 426.55L238.23 426.51L238.22 426.47L238.2 426.43L238.18 426.39L238.17 426.35L238.15 426.3L238.13 426.26L238.12 426.22L238.1 426.18L238.09 426.14L238.07 426.1L238.05 426.06L238.04 426.02L238.02 425.98L238.01 425.93L237.97 425.86L237.88 425.61L237.86 425.57L237.85 425.53L237.83 425.49L237.82 425.45L237.8 425.41L237.79 425.37L237.77 425.33L237.75 425.28L237.74 425.24L237.72 425.2L237.71 425.16L237.69 425.12L237.68 425.08L237.66 425.04L237.65 425L237.63 424.96L237.62 424.92L237.6 424.87L237.58 424.83L237.57 424.79L237.55 424.75L237.54 424.71L237.52 424.67L237.51 424.62L237.49 424.58L237.48 424.54L237.46 424.5L237.45 424.46L237.43 424.42L237.42 424.37L237.4 424.33L237.39 424.29L237.37 424.25L237.36 424.21L237.34 424.16L237.33 424.12L237.31 424.08L237.29 424.04L237.26 423.94L237.21 423.8L237.16 423.66L237.11 423.51L237.06 423.37L237.01 423.22L236.96 423.08L236.91 422.94L236.86 422.79L236.81 422.65L236.76 422.5L236.71 422.36L236.67 422.21L236.62 422.07L236.57 421.92L236.53 421.78L236.48 421.63L236.43 421.49L236.39 421.34L236.34 421.2L236.3 421.05L236.25 420.91L236.21 420.76L236.16 420.61L236.12 420.47L236.07 420.32L236.03 420.18L235.99 420.03L235.95 419.88L235.9 419.74L235.86 419.59L235.82 419.45L235.78 419.3L235.74 419.15L235.7 419.01L235.65 418.86L235.61 418.71L235.57 418.57L235.53 418.42L235.5 418.27L235.46 418.13L235.42 417.98L235.34 417.69L235.33 417.65L235.32 417.61L235.31 417.57L235.3 417.53L235.29 417.49L235.28 417.45L235.27 417.41L235.26 417.36L235.25 417.32L235.24 417.28L235.23 417.24L235.22 417.2L235.21 417.16L235.2 417.12L235.19 417.08L235.18 417.04L235.17 416.99L235.16 416.95L235.15 416.91L235.14 416.87L235.13 416.83L235.12 416.79L235.11 416.74L235.1 416.7L235.09 416.66L235.08 416.62L235.07 416.58L235.06 416.53L235.05 416.49L235.04 416.45L235.02 416.41L235.01 416.36L235 416.32L234.99 416.28L234.98 416.24L234.97 416.19L234.96 416.15L234.95 416.11L234.94 416.07L234.93 416.02L234.86 415.68L234.4 413.53L234.01 411.39L233.68 409.24L233.42 407.1L233.23 404.96L233.09 402.83L233.02 400.7L233 398.59L233.05 396.48L233.15 394.39L233.31 392.31L233.53 390.25L233.8 388.2L234.13 386.17L234.51 384.15L234.94 382.16L235.43 380.19L235.96 378.25L236.54 376.33L237.17 374.43L237.85 372.56L238.58 370.72L239.35 368.92L240.16 367.14L241.02 365.4L241.92 363.69L242.86 362.02L243.84 360.39L244.86 358.79L245.92 357.24L247.02 355.72L248.15 354.26L249.32 352.83L250.52 351.46L251.75 350.13L253.02 348.85L254.32 347.62L255.65 346.44L257 345.31L258.35 344.27L258.52 344.14L258.68 344.01L258.85 343.88L259.02 343.76L259.19 343.63L259.36 343.5L259.53 343.37L259.7 343.24L259.87 343.12L260.04 342.99L260.21 342.87L260.39 342.74L260.56 342.62L260.73 342.49L260.9 342.37L261.07 342.25L261.25 342.13L261.42 342.01L261.59 341.9L261.76 341.78L261.93 341.66L262.1 341.55L262.26 341.44L262.43 341.33L262.59 341.22L262.76 341.11L262.92 341L263.08 340.9L263.24 340.8L263.4 340.69L263.56 340.6L263.71 340.5L263.87 340.4L264.02 340.31L264.16 340.22L264.31 340.13L264.46 340.04L264.6 339.96L264.74 339.88L264.87 339.8L264.87 339.8L265.28 339.56L265.69 339.33L266.09 339.1L266.5 338.88L266.91 338.65L267.32 338.44L267.73 338.23L268.14 338.02L268.55 337.81L268.96 337.61L269.37 337.41L269.79 337.22L270.2 337.03L270.61 336.84L271.03 336.66L271.44 336.48L271.85 336.31L272.27 336.14L272.68 335.97L273.1 335.8L273.52 335.64L273.93 335.49L274.35 335.34L274.77 335.19L275.18 335.04L275.6 334.9L276.02 334.76L276.44 334.63L276.85 334.5L277.27 334.37L277.69 334.25L278.11 334.13L278.53 334.02L278.95 333.91L279.37 333.8L279.79 333.69L280.21 333.59L280.63 333.49L281.05 333.4L281.47 333.31L281.47 333.31L281.52 333.3L281.56 333.29L281.61 333.28L281.66 333.27L281.71 333.26L281.76 333.25L281.82 333.24L281.87 333.23L281.92 333.22L281.98 333.21L282.03 333.2L282.08 333.19L282.14 333.18L282.19 333.17L282.25 333.16L282.3 333.15L282.35 333.14L282.41 333.13L282.46 333.12L282.51 333.11L282.56 333.1L282.61 333.09L282.66 333.08L282.71 333.07L282.75 333.06L282.8 333.05L282.84 333.04L282.88 333.04L282.92 333.03L282.96 333.02L283 333.01L283.03 333.01L283.07 333L283.1 333L283.13 332.99L283.15 332.99L283.18 332.98L283.23 332.97L283.23 332.97L283.58 332.91L283.92 332.86L284.27 332.8L284.62 332.75L284.97 332.7L285.32 332.65L285.67 332.6L286.02 332.56L286.36 332.52L286.71 332.48L287.06 332.45L287.41 332.41L287.75 332.38L288.1 332.35L288.44 332.32L288.79 332.3L289.13 332.27L289.47 332.25L289.81 332.23L290.15 332.22L290.49 332.2L290.83 332.19L291.16 332.18L291.5 332.17L291.83 332.16L292.16 332.16L292.49 332.16L292.81 332.16L293.14 332.16ZM296.66 449.74L296.65 449.74L296.68 449.73L296.7 449.73L296.68 449.73L296.66 449.74Z" id="bykrKP6F0"></path><path d="M343.78 346.32C317.46 346.32 296.13 370.3 296.13 399.87C296.13 429.45 317.46 453.43 343.78 453.43C370.09 453.43 391.43 429.45 391.43 399.87C391.43 370.3 370.09 346.32 343.78 346.32Z" id="byNannQQO"></path><path d="M350.26 396.08C366.79 377.51 375.97 367.19 377.81 365.12C378.83 363.97 378.83 362.11 377.81 360.96C376.78 359.81 375.13 359.81 374.1 360.96C372.27 363.03 363.09 373.34 346.56 391.92C346.56 365.65 346.56 351.06 346.56 348.14C346.56 346.52 345.39 345.2 343.94 345.2C342.5 345.2 341.33 346.52 341.33 348.14C341.33 352.52 341.33 387.54 341.33 391.92C337.96 388.14 320.64 368.67 313.78 360.96C312.76 359.81 311.1 359.81 310.08 360.96C309.06 362.11 309.06 363.97 310.08 365.12C316.04 371.82 331.53 389.22 337.62 396.08C335.89 396.08 300.05 396.08 298.67 396.08C297.23 396.08 296.06 397.39 296.06 399.02C296.06 400.65 297.23 401.96 298.67 401.96C303.25 401.96 336.48 401.96 337.62 401.96C335 404.91 313.53 429.04 310.08 432.92C309.06 434.06 309.06 435.93 310.08 437.08C311.1 438.23 312.76 438.23 313.78 437.08C315.55 435.09 324.36 425.19 340.24 407.35L340.24 407.35C340.89 406.61 341.25 406.21 341.33 406.12C341.33 406.65 341.33 448.95 341.33 449.9C341.33 451.52 342.5 452.84 343.94 452.84C345.39 452.84 346.56 451.52 346.56 449.9C346.56 442.43 346.56 415.41 346.56 406.12C376.49 439.76 374.44 437.94 375.95 437.94C378.27 437.94 379.46 434.78 377.81 432.92C375.97 430.85 366.79 420.53 350.26 401.96C373.63 401.96 386.62 401.96 389.21 401.96C390.66 401.96 391.83 400.65 391.83 399.02C391.83 397.4 390.66 396.08 389.21 396.08C384.02 396.08 371.04 396.08 350.26 396.08Z" id="dnQwzcAf"></path><path d="M314.28 369.84C315.27 368.2 316.34 366.63 317.49 365.12C316.07 363.53 314.81 362.12 313.78 360.96C313.26 360.37 312.56 360.09 311.87 360.1C310.99 361 310.14 361.92 309.32 362.88C309.28 363.69 309.53 364.51 310.08 365.12C311.19 366.37 312.63 367.99 314.28 369.84Z" id="dqca6t1jW"></path><path d="M341.86 346.37C341.53 346.86 341.33 347.47 341.33 348.14C341.33 348.14 341.33 348.16 341.33 348.16C342.96 347.66 344.64 347.26 346.34 346.97C346.26 346.76 346.16 346.56 346.04 346.38C345.29 346.34 344.54 346.32 343.78 346.32C343.13 346.32 342.5 346.34 341.86 346.37Z" id="adATQVPu3"></path><path d="M341.92 451.76C342.4 452.42 343.13 452.84 343.94 452.84C344.36 452.84 344.74 452.73 345.09 452.54C344.02 452.32 342.96 452.06 341.92 451.76Z" id="anYrTyKaL"></path><path d="M316.8 433.69C315.68 432.15 314.64 430.55 313.68 428.87C312.01 430.75 310.73 432.19 310.08 432.92C309.06 434.06 309.06 435.93 310.08 437.08C311.1 438.23 312.76 438.23 313.78 437.08C314.39 436.4 316.49 434.03 316.8 433.69Z" id="iRj2jr8iR"></path><path d="M306.13 401.96C306.1 401.27 306.09 400.57 306.09 399.87C306.09 398.6 306.13 397.33 306.21 396.08C302.04 396.08 299.05 396.08 298.67 396.08C297.47 396.08 296.46 396.99 296.15 398.23C296.14 398.72 296.13 399.22 296.13 399.71C296.41 401 297.44 401.96 298.67 401.96C299.78 401.96 302.55 401.96 306.13 401.96Z" id="f3RXjBMtw3"></path><path d="M343.94 391.03C340.01 391.03 336.81 394.62 336.81 399.04C336.81 403.47 340.01 407.06 343.94 407.06C347.88 407.06 351.07 403.47 351.07 399.04C351.07 394.62 347.88 391.03 343.94 391.03Z" id="ezkOwaohe"></path><path d="M347.51 392.11C346.46 391.43 345.24 391.03 343.94 391.03C340.01 391.03 336.81 394.62 336.81 399.04C336.81 403.47 340.01 407.06 343.94 407.06C345.24 407.06 346.46 406.66 347.51 405.98C345.38 404.59 343.94 402.01 343.94 399.04C343.94 396.08 345.38 393.5 347.51 392.11Z" id="c6LMMT2we"></path><path d="M344.65 332.16L344.97 332.17L345.29 332.17L345.6 332.18L345.91 332.19L346.22 332.2L346.52 332.22L346.82 332.23L347.12 332.25L347.41 332.27L347.7 332.29L347.99 332.31L347.99 332.32L350.14 332.54L352.26 332.84L354.35 333.22L356.41 333.68L358.45 334.21L360.45 334.82L362.42 335.5L364.36 336.25L366.26 337.07L368.13 337.95L369.96 338.91L371.75 339.93L373.51 341.01L375.22 342.15L376.9 343.35L378.54 344.62L380.13 345.94L381.68 347.31L383.18 348.74L384.64 350.22L386.06 351.75L387.42 353.33L388.74 354.96L390.01 356.64L391.23 358.36L392.39 360.12L393.51 361.93L394.57 363.77L395.57 365.66L396.52 367.58L397.42 369.54L398.25 371.53L399.03 373.55L399.74 375.61L400.4 377.69L400.99 379.8L401.53 381.94L401.99 384.11L402.4 386.29L402.73 388.5L402.99 390.54L403.2 392.58L403.34 394.61L403.43 396.62L403.47 398.63L403.45 400.63L403.38 402.61L403.26 404.58L403.09 406.53L402.86 408.47L402.59 410.39L402.28 412.29L401.91 414.18L401.5 416.04L401.05 417.88L400.55 419.7L400.01 421.5L399.43 423.27L398.81 425.02L398.15 426.73L397.44 428.43L396.71 430.09L395.93 431.72L395.12 433.32L394.27 434.89L393.39 436.43L392.48 437.93L391.54 439.4L390.56 440.83L389.56 442.22L388.52 443.57L387.46 444.89L386.37 446.16L385.26 447.39L384.12 448.58L382.95 449.72L381.77 450.82L380.56 451.88L379.33 452.88L378.08 453.84L378.12 453.81L377.65 454.18L377.18 454.54L376.71 454.89L376.24 455.24L375.76 455.58L375.29 455.91L374.82 456.24L374.35 456.56L373.88 456.87L373.4 457.18L372.93 457.48L372.46 457.77L371.98 458.06L371.51 458.34L371.03 458.62L370.55 458.89L370.07 459.16L369.59 459.42L369.11 459.67L368.63 459.92L368.15 460.16L367.66 460.4L367.18 460.63L366.69 460.86L366.2 461.08L365.7 461.3L365.21 461.51L364.71 461.72L364.22 461.92L363.72 462.12L363.21 462.32L362.71 462.51L362.2 462.7L361.69 462.88L361.18 463.06L360.66 463.23L360.14 463.4L359.62 463.57L359.1 463.73L358.57 463.89L358.57 463.89L358.55 463.89L358.51 463.91L358.5 463.91L358.5 463.91L358.5 463.91L358.22 463.99L357.94 464.07L357.66 464.15L357.38 464.22L357.09 464.29L356.8 464.37L356.52 464.44L356.23 464.51L355.93 464.57L355.64 464.64L355.35 464.71L355.05 464.77L354.75 464.83L354.45 464.89L354.15 464.95L353.85 465.01L353.54 465.06L353.24 465.12L352.93 465.17L352.62 465.22L352.31 465.27L352 465.32L351.68 465.36L351.37 465.41L351.05 465.45L350.73 465.49L350.41 465.53L350.09 465.57L349.77 465.6L349.44 465.64L349.12 465.67L348.79 465.7L348.46 465.73L348.13 465.76L347.8 465.78L347.47 465.8L347.14 465.83L346.8 465.85L346.47 465.86L346.13 465.88L345.79 465.89L345.45 465.9L345.11 465.91L344.77 465.92L344.44 465.92L344.1 465.92L343.76 465.92L343.42 465.92L343.09 465.92L342.75 465.91L342.42 465.9L342.08 465.89L341.75 465.88L341.41 465.86L341.08 465.85L340.75 465.83L340.42 465.81L340.09 465.78L339.76 465.76L339.43 465.73L339.1 465.7L338.77 465.67L338.44 465.64L338.11 465.6L337.78 465.57L337.45 465.53L337.13 465.49L336.8 465.44L336.48 465.4L336.15 465.35L335.83 465.3L335.5 465.25L335.18 465.2L334.86 465.14L334.53 465.09L334.21 465.03L333.89 464.97L333.57 464.91L333.25 464.84L332.93 464.78L332.93 464.78L330.66 464.25L328.43 463.63L326.24 462.92L324.09 462.12L321.98 461.24L319.92 460.27L317.9 459.23L315.92 458.1L314 456.89L312.12 455.61L310.29 454.26L308.52 452.83L306.8 451.34L305.13 449.78L303.51 448.15L301.95 446.47L300.45 444.72L299.01 442.91L297.63 441.05L296.31 439.14L295.05 437.17L293.86 435.15L292.73 433.09L291.66 430.98L290.67 428.82L289.74 426.63L288.89 424.4L288.1 422.13L287.39 419.82L286.75 417.48L286.19 415.12L285.7 412.72L285.29 410.3L284.96 407.85L284.71 405.38L284.54 402.9L284.46 400.39L284.46 397.87L284.54 395.34L284.71 392.79L284.71 392.76L284.72 392.73L284.72 392.7L284.72 392.67L284.72 392.63L284.73 392.6L284.73 392.56L284.73 392.52L284.74 392.47L284.74 392.43L284.75 392.39L284.75 392.34L284.75 392.29L284.76 392.24L284.76 392.19L284.77 392.14L284.77 392.09L284.78 392.04L284.78 391.99L284.79 391.93L284.79 391.88L284.8 391.82L284.8 391.77L284.81 391.71L284.82 391.66L284.82 391.6L284.83 391.54L284.83 391.49L284.84 391.43L284.84 391.38L284.85 391.32L284.85 391.26L284.86 391.21L284.87 391.15L284.87 391.1L284.88 391.05L284.88 390.99L284.89 390.94L284.89 390.89L284.9 390.84L284.91 390.78L284.91 390.72L284.92 390.66L284.93 390.61L284.93 390.55L284.94 390.49L284.94 390.43L284.95 390.37L284.96 390.32L284.96 390.26L284.97 390.2L284.98 390.14L284.98 390.08L284.99 390.03L285 389.97L285.01 389.91L285.01 389.85L285.02 389.8L285.03 389.74L285.03 389.68L285.04 389.62L285.05 389.57L285.05 389.51L285.06 389.45L285.07 389.39L285.08 389.34L285.08 389.28L285.09 389.22L285.1 389.16L285.11 389.1L285.11 389.04L285.12 388.99L285.13 388.93L285.14 388.87L285.15 388.81L285.15 388.75L285.16 388.69L285.17 388.63L285.18 388.57L285.19 388.51L285.19 388.48L285.2 388.45L285.2 388.4L285.21 388.36L285.22 388.31L285.22 388.26L285.23 388.2L285.24 388.14L285.25 388.07L285.26 388L285.27 387.93L285.28 387.85L285.3 387.77L285.31 387.69L285.32 387.6L285.34 387.51L285.35 387.41L285.37 387.32L285.38 387.21L285.4 387.11L285.42 387L285.44 386.89L285.45 386.77L285.47 386.65L285.49 386.53L285.52 386.41L285.54 386.28L285.56 386.15L285.58 386.01L285.61 385.88L285.63 385.74L285.66 385.6L285.69 385.45L285.71 385.3L285.74 385.16L285.77 385L285.8 384.85L285.83 384.69L285.86 384.53L285.89 384.37L285.93 384.17L286.21 382.89L286.5 381.62L286.82 380.36L287.16 379.11L287.52 377.87L287.9 376.64L288.3 375.42L288.72 374.21L289.16 373.02L289.62 371.83L290.1 370.66L290.59 369.51L291.1 368.37L291.63 367.24L292.18 366.13L292.74 365.03L293.32 363.95L293.91 362.88L294.52 361.83L295.14 360.8L295.78 359.78L296.43 358.78L297.09 357.8L297.76 356.84L298.45 355.89L299.15 354.97L299.86 354.06L300.57 353.17L301.3 352.31L302.04 351.46L302.79 350.64L303.54 349.84L304.31 349.06L305.08 348.3L305.86 347.57L306.65 346.85L307.44 346.16L308.24 345.5L309.04 344.86L309.85 344.25L309.98 344.14L310.14 344.01L310.31 343.88L310.48 343.76L310.65 343.63L310.82 343.5L310.99 343.37L311.16 343.24L311.33 343.12L311.5 342.99L311.67 342.87L311.84 342.74L312.02 342.62L312.19 342.49L312.36 342.37L312.53 342.25L312.7 342.13L312.87 342.01L313.05 341.9L313.22 341.78L313.38 341.66L313.55 341.55L313.72 341.44L313.89 341.33L314.05 341.22L314.22 341.11L314.38 341L314.54 340.9L314.7 340.8L314.86 340.69L315.02 340.6L315.17 340.5L315.32 340.4L315.47 340.31L315.62 340.22L315.77 340.13L315.91 340.04L316.05 339.96L316.19 339.88L316.33 339.8L316.33 339.8L316.73 339.56L317.14 339.33L317.54 339.11L317.94 338.88L318.35 338.66L318.75 338.45L319.16 338.24L319.57 338.03L319.98 337.83L320.38 337.63L320.79 337.43L321.2 337.24L321.61 337.05L322.02 336.86L322.44 336.68L322.85 336.5L323.26 336.33L323.67 336.15L324.09 335.99L324.5 335.82L324.92 335.66L325.33 335.51L325.75 335.35L326.17 335.21L326.59 335.06L327.01 334.92L327.42 334.78L327.84 334.64L328.26 334.51L328.69 334.39L329.11 334.26L329.53 334.14L329.95 334.03L330.38 333.91L330.8 333.8L331.22 333.7L331.65 333.6L332.08 333.5L332.5 333.4L332.93 333.31L332.93 333.31L332.97 333.3L333.02 333.29L333.07 333.28L333.12 333.27L333.17 333.26L333.22 333.25L333.27 333.24L333.33 333.23L333.38 333.22L333.43 333.21L333.49 333.2L333.54 333.19L333.6 333.18L333.65 333.17L333.7 333.16L333.76 333.15L333.81 333.14L333.86 333.13L333.92 333.12L333.97 333.11L334.02 333.1L334.07 333.09L334.12 333.08L334.16 333.07L334.21 333.06L334.26 333.05L334.3 333.04L334.34 333.04L334.38 333.03L334.42 333.02L334.46 333.01L334.49 333.01L334.53 333L334.56 333L334.58 332.99L334.61 332.99L334.63 332.98L334.69 332.97L334.69 332.97L335.04 332.91L335.39 332.85L335.74 332.8L336.1 332.75L336.45 332.7L336.8 332.65L337.15 332.6L337.51 332.56L337.86 332.52L338.21 332.48L338.56 332.44L338.91 332.41L339.26 332.38L339.61 332.35L339.96 332.32L340.3 332.29L340.65 332.27L340.99 332.25L341.33 332.23L341.68 332.22L342.01 332.2L342.35 332.19L342.69 332.18L343.02 332.17L343.35 332.17L343.68 332.16L344.01 332.16L344.33 332.16L344.65 332.16ZM342.41 348.18L341.78 348.21L341.14 348.25L340.5 348.3L339.87 348.36L339.24 348.42L338.61 348.5L337.99 348.59L337.37 348.69L336.75 348.79L336.13 348.91L335.52 349.03L334.91 349.17L334.3 349.31L333.7 349.46L333.09 349.62L332.5 349.79L331.9 349.97L331.31 350.15L330.73 350.35L330.14 350.55L329.57 350.77L328.99 350.99L328.42 351.21L327.85 351.45L327.29 351.69L326.74 351.95L326.18 352.21L325.63 352.48L325.09 352.75L324.55 353.04L324.02 353.33L323.49 353.63L322.96 353.93L320.53 355.46L318.22 357.12L316.03 358.9L313.98 360.8L312.06 362.81L310.26 364.92L308.59 367.13L307.06 369.42L305.65 371.8L304.37 374.25L303.22 376.77L302.21 379.34L301.32 381.97L300.57 384.65L299.94 387.36L299.45 390.11L299.09 392.87L298.87 395.66L298.77 398.45L298.81 401.25L298.98 404.04L299.28 406.82L299.72 409.58L300.29 412.31L300.99 415.02L301.83 417.67L302.8 420.29L303.91 422.84L305.15 425.34L306.53 427.76L308.04 430.11L309.69 432.37L311.48 434.55L313.4 436.62L315.46 438.59L317.65 440.45L319.98 442.19L322.45 443.8L325.06 445.27L327.8 446.61L327.8 446.61L328.02 446.7L328.23 446.79L328.44 446.87L328.64 446.95L328.83 447.03L329.01 447.1L329.19 447.17L329.37 447.24L329.54 447.31L329.7 447.37L329.86 447.43L330.01 447.48L330.16 447.54L330.31 447.59L330.45 447.64L330.58 447.69L330.71 447.73L330.84 447.78L330.97 447.82L331.09 447.86L331.2 447.9L331.32 447.94L331.43 447.97L331.53 448.01L331.64 448.04L331.74 448.07L331.84 448.1L331.94 448.13L332.04 448.16L332.13 448.19L332.22 448.21L332.32 448.24L332.41 448.27L332.49 448.29L332.58 448.32L332.67 448.35L332.76 448.37L332.84 448.4L332.93 448.42L333.02 448.45L333.04 448.46L333.05 448.46L333.07 448.47L333.1 448.47L333.13 448.48L333.16 448.49L333.2 448.5L333.24 448.51L333.29 448.53L333.34 448.54L333.4 448.56L333.46 448.57L333.53 448.59L333.6 448.61L333.68 448.63L333.76 448.65L333.85 448.67L333.94 448.69L334.03 448.72L334.13 448.74L334.24 448.77L334.35 448.79L334.46 448.82L334.58 448.85L334.71 448.88L334.84 448.91L334.98 448.94L335.12 448.97L335.26 449L335.41 449.03L335.57 449.06L335.73 449.1L335.89 449.13L336.07 449.17L336.24 449.2L336.42 449.24L336.61 449.27L336.8 449.31L336.8 449.31L337.04 449.35L337.29 449.39L337.53 449.43L337.77 449.47L338.01 449.5L338.26 449.54L338.5 449.57L338.74 449.6L338.98 449.63L339.22 449.66L339.46 449.69L339.71 449.72L339.95 449.74L340.19 449.77L340.43 449.79L340.68 449.81L340.92 449.83L341.17 449.85L341.42 449.86L341.66 449.88L341.91 449.89L342.16 449.91L342.41 449.92L342.66 449.92L342.92 449.93L343.17 449.94L343.43 449.94L343.69 449.94L343.95 449.95L344.21 449.94L344.47 449.94L344.74 449.94L345 449.93L345.27 449.92L345.54 449.91L345.82 449.9L346.09 449.89L346.37 449.87L346.65 449.85L346.94 449.84L346.98 449.83L347.04 449.83L347.09 449.83L347.15 449.82L347.22 449.82L347.29 449.81L347.36 449.81L347.44 449.8L347.52 449.79L347.6 449.79L347.69 449.78L347.78 449.77L347.87 449.76L347.96 449.75L348.06 449.74L348.16 449.73L348.27 449.72L348.38 449.7L348.48 449.69L348.59 449.68L348.71 449.67L348.82 449.65L348.94 449.64L349.06 449.62L349.17 449.61L349.3 449.59L349.42 449.58L349.54 449.56L349.66 449.54L349.79 449.52L349.91 449.51L350.04 449.49L350.16 449.47L350.29 449.45L350.41 449.43L350.54 449.41L350.66 449.39L350.79 449.37L350.91 449.35L351.04 449.33L351.12 449.31L351.2 449.3L351.29 449.28L351.37 449.27L351.45 449.25L351.53 449.23L351.62 449.22L351.7 449.2L351.78 449.19L351.86 449.17L351.94 449.16L352.02 449.14L352.1 449.12L352.18 449.11L352.26 449.09L352.33 449.08L352.41 449.06L352.48 449.04L352.56 449.03L352.63 449.01L352.71 449L352.78 448.98L352.85 448.96L352.92 448.95L352.99 448.93L353.05 448.92L353.12 448.9L353.18 448.89L353.25 448.87L353.31 448.86L353.37 448.84L353.43 448.83L353.48 448.82L353.54 448.8L353.59 448.79L353.65 448.78L353.7 448.76L353.75 448.75L353.79 448.74L353.84 448.73L353.96 448.7L354.09 448.67L354.21 448.64L354.33 448.6L354.45 448.57L354.56 448.54L354.68 448.51L354.8 448.48L354.91 448.45L355.03 448.42L355.14 448.38L355.25 448.35L355.36 448.32L355.47 448.29L355.58 448.25L355.69 448.22L355.8 448.19L355.91 448.16L356.01 448.12L356.12 448.09L356.23 448.06L356.34 448.02L356.44 447.99L356.55 447.95L356.66 447.92L356.76 447.88L356.87 447.85L356.98 447.81L357.08 447.77L357.19 447.74L357.3 447.7L357.41 447.66L357.51 447.62L357.62 447.59L357.73 447.55L357.84 447.51L357.95 447.47L358.06 447.43L358.18 447.39L358.29 447.34L358.36 447.32L358.44 447.29L358.52 447.26L358.59 447.23L358.67 447.2L358.75 447.17L358.82 447.14L358.9 447.11L358.98 447.08L359.05 447.05L359.13 447.02L359.21 446.99L359.28 446.96L359.36 446.93L359.44 446.89L359.52 446.86L359.59 446.83L359.67 446.8L359.75 446.77L359.82 446.73L359.9 446.7L359.98 446.67L360.05 446.64L360.13 446.6L360.21 446.57L360.28 446.54L360.36 446.5L360.43 446.47L360.51 446.44L360.59 446.4L360.66 446.37L360.74 446.34L360.81 446.3L360.88 446.27L360.96 446.24L361.03 446.2L361.11 446.17L361.18 446.14L361.25 446.1L361.32 446.07L361.48 445.99L361.54 445.97L361.59 445.94L361.64 445.92L361.7 445.89L361.73 445.88L361.76 445.86L361.81 445.83L361.87 445.81L361.9 445.79L361.93 445.78L361.96 445.76L361.99 445.75L362.02 445.73L362.06 445.72L362.09 445.7L362.12 445.69L362.15 445.67L362.18 445.65L362.22 445.64L362.25 445.62L362.29 445.6L362.32 445.59L362.35 445.57L362.39 445.55L362.43 445.53L362.46 445.52L362.5 445.5L362.54 445.48L362.59 445.45L362.62 445.43L362.65 445.42L362.71 445.39L362.74 445.37L362.8 445.34L362.86 445.31L362.92 445.28L362.95 445.27L362.98 445.25L363.01 445.24L363.04 445.22L363.06 445.21L363.09 445.19L363.12 445.17L363.18 445.14L363.21 445.13L363.27 445.1L363.3 445.08L363.33 445.06L363.36 445.05L363.39 445.03L363.42 445.02L363.46 445L363.49 444.98L363.52 444.97L363.55 444.95L363.58 444.93L363.61 444.92L363.64 444.9L363.67 444.88L363.7 444.87L363.73 444.85L364.12 444.63L364.52 444.41L364.9 444.18L365.29 443.95L365.67 443.72L366.05 443.48L366.42 443.24L366.8 443L367.17 442.75L367.53 442.5L367.9 442.25L368.26 441.99L368.62 441.73L368.97 441.47L369.32 441.21L369.67 440.94L370.02 440.67L370.36 440.4L370.7 440.12L371.04 439.84L371.37 439.56L371.7 439.27L372.03 438.99L372.35 438.7L372.68 438.4L372.99 438.11L373.31 437.81L373.62 437.51L373.93 437.21L374.24 436.9L374.54 436.59L374.84 436.28L375.13 435.97L375.43 435.65L375.72 435.34L376 435.02L376.29 434.69L376.57 434.37L376.85 434.04L377.12 433.71L378.5 431.97L379.79 430.17L381.01 428.32L382.14 426.42L383.2 424.47L384.17 422.47L385.05 420.44L385.86 418.37L386.58 416.26L387.22 414.13L387.77 411.97L388.24 409.79L388.62 407.59L388.91 405.37L389.12 403.14L389.25 400.91L389.28 398.66L389.23 396.42L389.09 394.18L388.86 391.95L388.54 389.72L388.13 387.51L387.63 385.31L387.04 383.14L386.36 380.99L385.59 378.86L384.73 376.76L383.77 374.7L382.72 372.68L381.58 370.7L380.35 368.76L379.02 366.87L377.59 365.03L376.07 363.25L374.46 361.53L372.74 359.86L370.93 358.27L369.03 356.74L367.03 355.29L364.92 353.91L364.92 353.91L364.69 353.77L364.45 353.63L364.21 353.5L363.96 353.36L363.71 353.22L363.46 353.09L363.21 352.96L362.96 352.82L362.7 352.69L362.45 352.56L362.19 352.44L361.93 352.31L361.67 352.18L361.41 352.06L361.15 351.94L360.89 351.82L360.62 351.7L360.36 351.58L360.1 351.47L359.84 351.36L359.57 351.25L359.31 351.14L359.05 351.03L358.79 350.93L358.54 350.83L358.28 350.73L358.02 350.63L357.77 350.54L357.52 350.45L357.27 350.36L357.02 350.28L356.77 350.19L356.53 350.11L356.29 350.04L356.05 349.96L355.82 349.89L355.58 349.82L355.36 349.76L355.13 349.7L354.91 349.64L354.69 349.58L354.47 349.52L354.26 349.46L354.04 349.41L353.83 349.36L353.62 349.3L353.41 349.25L353.21 349.2L353 349.16L352.8 349.11L352.6 349.07L352.39 349.02L352.19 348.98L352 348.94L351.8 348.9L351.6 348.86L351.4 348.83L351.21 348.79L351.01 348.76L350.82 348.72L350.63 348.69L350.43 348.66L350.24 348.63L350.05 348.6L349.85 348.58L349.66 348.55L349.47 348.52L349.28 348.5L349.08 348.47L348.89 348.45L348.7 348.43L348.51 348.4L348.31 348.38L348.12 348.36L347.92 348.34L347.73 348.32L347.53 348.31L347.33 348.29L347.14 348.27L346.94 348.25L346.29 348.21L345.64 348.18L344.99 348.16L344.34 348.15L343.7 348.15L343.06 348.16L342.41 348.18ZM348.12 449.74L348.1 449.74L348.14 449.73L348.16 449.73L348.14 449.73L348.12 449.74ZM309.81 344.27L309.85 344.24L309.85 344.25L309.81 344.27Z" id="c14CTDkujH"></path><path d="M340.04 464.78C309.53 458.38 288.97 426.8 291.83 392.79C291.85 392.44 291.94 391.5 292.02 390.84C292.1 390.05 292.19 389.31 292.3 388.51C292.36 388.12 292.58 386.54 293.01 384.37C293.01 384.35 293.04 384.19 293.05 384.17C296.53 367.03 306.16 352.28 316.96 344.24C316.96 344.25 316.93 344.27 316.93 344.27C319.12 342.54 321.64 340.84 323.45 339.8C323.45 339.8 323.45 339.8 323.45 339.8C328.81 336.65 334.35 334.51 340.04 333.31C340.04 333.31 340.04 333.31 340.04 333.31C340.65 333.18 341.62 333 341.8 332.97C341.8 332.97 341.8 332.97 341.8 332.97C343.74 332.63 345.69 332.41 347.59 332.28C343.86 332.01 339.21 332.18 334.68 332.97C334.68 332.97 334.69 332.97 334.69 332.97C334.51 333 333.53 333.18 332.93 333.31C332.93 333.31 332.93 333.31 332.93 333.31C327.23 334.51 321.69 336.65 316.33 339.8C316.33 339.8 316.33 339.8 316.33 339.8C314.53 340.84 312 342.54 309.81 344.27C309.81 344.27 309.84 344.25 309.85 344.24C299.04 352.28 289.41 367.03 285.93 384.17C285.93 384.19 285.9 384.35 285.89 384.37C285.46 386.54 285.25 388.12 285.19 388.51C285.07 389.31 284.99 390.05 284.9 390.84C284.83 391.5 284.74 392.44 284.71 392.79C281.86 426.8 302.42 458.38 332.93 464.78C332.93 464.78 332.93 464.78 332.93 464.78C337.19 465.67 341.59 466.06 346.13 465.88C346.59 465.86 347.05 465.83 347.5 465.8C344.97 465.63 342.48 465.29 340.04 464.78C340.04 464.78 340.04 464.78 340.04 464.78Z" id="a7hOy7kdTD"></path><path d="M253.58 404.42C253.45 404.39 253.33 404.34 253.21 404.29C252.98 404.19 252.76 404.05 252.56 403.87C252.46 403.78 252.35 403.67 252.26 403.57C252.14 403.42 252.04 403.27 251.95 403.11C251.86 402.94 251.78 402.77 251.72 402.59C251.68 402.45 251.64 402.3 251.61 402.15C251.56 401.87 251.54 401.59 251.56 401.31C251.58 401.17 251.59 401.02 251.62 400.88C251.78 400.13 252.21 399.46 252.79 399.05C253.38 398.65 254.1 398.51 254.77 398.69C254.89 398.72 255.02 398.77 255.14 398.82C255.37 398.92 255.59 399.06 255.79 399.24C255.89 399.33 255.99 399.43 256.08 399.54C256.2 399.69 256.31 399.84 256.4 400C256.49 400.16 256.56 400.34 256.62 400.52C256.67 400.66 256.71 400.8 256.73 400.95C256.79 401.23 256.8 401.51 256.78 401.79C256.77 401.94 256.75 402.08 256.72 402.22C256.57 402.98 256.14 403.65 255.55 404.05C254.97 404.46 254.25 404.6 253.58 404.42Z" id="bwesGW2x9"></path><path d="M262.25 419.37C262.13 419.34 262.01 419.3 261.89 419.24C261.65 419.14 261.43 419 261.24 418.83C261.13 418.73 261.03 418.63 260.94 418.52C260.82 418.38 260.72 418.23 260.63 418.06C260.54 417.9 260.46 417.73 260.4 417.54C260.35 417.4 260.31 417.25 260.29 417.1C260.23 416.83 260.22 416.55 260.24 416.27C260.25 416.12 260.27 415.98 260.3 415.84C260.46 415.09 260.88 414.42 261.47 414.01C262.05 413.6 262.78 413.47 263.45 413.65C263.57 413.68 263.69 413.72 263.81 413.78C264.05 413.88 264.27 414.02 264.47 414.2C264.57 414.29 264.67 414.39 264.76 414.5C264.88 414.64 264.98 414.79 265.07 414.96C265.16 415.12 265.24 415.29 265.3 415.48C265.35 415.61 265.38 415.76 265.41 415.91C265.46 416.18 265.48 416.47 265.46 416.75C265.45 416.9 265.43 417.04 265.4 417.18C265.24 417.93 264.82 418.6 264.23 419.01C263.65 419.42 262.92 419.55 262.25 419.37Z" id="a3BdVnaflX"></path><path d="M270.49 434.64C270.36 434.61 270.24 434.56 270.12 434.51C269.89 434.41 269.67 434.27 269.47 434.09C269.37 434 269.26 433.9 269.17 433.79C269.05 433.65 268.95 433.49 268.86 433.33C268.77 433.17 268.69 432.99 268.63 432.81C268.58 432.67 268.55 432.52 268.52 432.37C268.47 432.1 268.45 431.81 268.47 431.54C268.48 431.39 268.5 431.25 268.53 431.11C268.69 430.35 269.12 429.69 269.7 429.28C270.29 428.87 271.01 428.73 271.68 428.91C271.8 428.94 271.93 428.99 272.05 429.04C272.28 429.15 272.5 429.29 272.7 429.46C272.8 429.56 272.9 429.66 272.99 429.77C273.11 429.91 273.22 430.06 273.31 430.22C273.4 430.39 273.47 430.56 273.53 430.75C273.58 430.88 273.62 431.03 273.64 431.17C273.7 431.45 273.71 431.74 273.69 432.02C273.68 432.16 273.66 432.31 273.63 432.45C273.48 433.2 273.05 433.87 272.46 434.28C271.88 434.68 271.16 434.82 270.49 434.64Z" id="a28Hgsfm26"></path><path d="M154.94 427.02C144.48 427.02 136 437.22 136 449.8C136 462.38 144.48 472.57 154.94 472.57C165.41 472.57 173.89 462.38 173.89 449.8C173.89 437.22 165.41 427.02 154.94 427.02Z" id="c1pnbzCmRW"></path><path d="M167.57 347.31C157.11 347.31 148.63 357.51 148.63 370.09C148.63 382.67 157.11 392.86 167.57 392.86C178.04 392.86 186.52 382.67 186.52 370.09C186.52 357.51 178.04 347.31 167.57 347.31Z" id="e1CnwzDI7G"></path><path d="M168.78 434.27C171.94 438.34 173.89 443.79 173.89 449.8C173.89 452.59 173.45 455.26 172.68 457.73C176.14 462.18 181.05 464.98 186.52 464.98C196.98 464.98 205.46 454.78 205.46 442.21C205.46 429.63 196.98 419.43 186.52 419.43C178.38 419.43 171.46 425.61 168.78 434.27Z" id="aM5OsrCqN"></path><path d="M179.62 421.06C179.98 419.32 180.2 417.51 180.2 415.64C180.2 403.06 171.72 392.86 161.26 392.86C150.8 392.86 142.31 403.06 142.31 415.64C142.31 420.89 143.81 425.71 146.29 429.56C148.89 427.95 151.82 427.02 154.94 427.02C161.04 427.02 166.45 430.5 169.91 435.87C169.55 435.32 169.17 434.79 168.78 434.27C170.66 428.22 174.63 423.43 179.62 421.06Z" id="g1mylOFNn6"></path><path d="M199.63 425.79C203.22 429.93 205.46 435.75 205.46 442.21C205.46 443.94 205.29 445.61 204.98 447.24C208.39 451.16 213 453.59 218.09 453.59C228.56 453.59 237.04 443.4 237.04 430.82C237.04 418.24 228.56 408.04 218.09 408.04C209.07 408.04 201.54 415.64 199.63 425.79Z" id="cr2baFP4N"></path><path d="M211.78 400.45C211.78 387.87 203.3 377.68 192.83 377.68C189.89 377.68 187.12 378.5 184.63 379.95C182.77 384.6 179.64 388.36 175.77 390.6C174.77 393.1 174.14 395.86 173.96 398.78C177.79 402.94 180.2 408.94 180.2 415.64C180.2 416.2 180.15 416.74 180.11 417.29C181 418.26 181.97 419.11 182.99 419.87C184.14 419.61 185.31 419.43 186.52 419.43C190.15 419.43 193.53 420.68 196.41 422.81C198.09 422.42 199.66 421.7 201.16 420.81C203 416.3 206.03 412.65 209.79 410.43C211.03 407.41 211.78 404.05 211.78 400.45Z" id="g1iuXdGC9H"></path><path d="M217.51 371.72C216.19 378.17 212.61 383.56 207.81 386.53C207.81 386.53 207.8 386.53 207.8 386.53C210.29 390.38 211.78 395.2 211.78 400.45C211.78 403.24 211.32 405.88 210.54 408.34C210.85 408.74 211.18 409.1 211.51 409.48C213.56 408.56 215.78 408.04 218.09 408.04C223.09 408.04 227.62 410.39 231.01 414.19C238.21 410.96 243.35 402.65 243.35 392.86C243.35 380.28 234.87 370.09 224.41 370.09C221.96 370.09 219.65 370.7 217.51 371.72Z" id="c1chDKDS8B"></path><path d="M243.26 394.22C242.81 403.41 237.87 411.12 231.01 414.19C230.97 414.14 230.92 414.1 230.87 414.05C234.65 418.22 237.04 424.17 237.04 430.82C237.04 431.38 237 431.94 236.97 432.5C240.33 436.16 244.77 438.41 249.67 438.41C260.13 438.41 268.61 428.22 268.61 415.64C268.61 403.06 260.13 392.86 249.67 392.86C247.42 392.86 245.27 393.36 243.26 394.22Z" id="a2FWGxRZJY"></path><path d="M252.49 355.31C251.06 364.52 245.03 371.76 237.37 373.48C237.24 374.31 237.16 375.15 237.11 376C240.93 380.17 243.35 386.17 243.35 392.86C243.35 393.41 243.28 393.94 243.24 394.48C243.32 394.37 247.43 392.86 249.67 392.86C254.66 392.86 259.2 395.2 262.58 399C269.79 395.78 274.93 387.46 274.93 377.68C274.93 365.1 266.45 354.91 255.98 354.91C254.79 354.91 253.62 355.05 252.49 355.31Z" id="c1wlsdEhaj"></path><path d="M197.57 319.25C198.58 322.03 199.15 325.1 199.15 328.34C199.15 331.57 198.58 334.64 197.57 337.43C198.4 339.73 199.57 341.8 200.96 343.63C205.77 344.18 210.03 346.9 213.12 350.95C213.72 351.01 214.32 351.11 214.94 351.11C214.94 338.53 223.42 328.34 233.88 328.34C233.88 315.76 225.4 305.56 214.94 305.56C207.16 305.56 200.49 311.19 197.57 319.25Z" id="avItlGqv5"></path><path d="M161.26 328.34C161.26 336.41 164.76 343.48 170.03 347.53C172.85 347.97 175.46 349.14 177.75 350.9C178.55 351.02 179.37 351.11 180.2 351.11C190.67 351.11 199.15 340.91 199.15 328.34C199.15 315.76 190.67 305.56 180.2 305.56C169.74 305.56 161.26 315.76 161.26 328.34Z" id="a1pvqzJPnv"></path><path d="M215.09 354.02C215.09 354.02 215.09 354.02 215.09 354.02C211.72 347.71 205.85 343.52 199.15 343.52C197.16 343.52 195.25 343.92 193.45 344.6C191.37 347.06 188.81 348.94 185.95 350.04C184.51 351.73 183.27 353.66 182.33 355.83C184.95 359.73 186.52 364.69 186.52 370.09C186.52 373.68 185.8 377.06 184.56 380.09C184.58 380.04 184.61 379.99 184.63 379.95C187.12 378.5 189.89 377.68 192.83 377.68C198.93 377.68 204.34 381.16 207.81 386.53C213.91 382.75 218.09 375.12 218.09 366.29C218.09 365.28 218.02 364.3 217.91 363.33C216.45 360.58 215.48 357.44 215.11 354.07C215.1 354.06 215.1 354.04 215.09 354.02Z" id="a4ehdPyTPL"></path><path d="M214.94 351.11C214.94 359.07 218.34 366.07 223.5 370.15C223.8 370.13 224.1 370.09 224.41 370.09C228.25 370.09 231.81 371.47 234.8 373.83C244.83 373.25 252.82 363.32 252.82 351.11C252.82 338.53 244.34 328.34 233.88 328.34C223.42 328.34 214.94 338.53 214.94 351.11Z" id="b8dilpeTi"></path><path d="M274.93 316.95C295.87 316.95 312.82 337.32 312.82 362.5C291.87 362.5 274.93 342.13 274.93 316.95Z" id="a31Bm1GE7q"></path><path d="M243.35 328.34C265.98 328.34 284.4 301.09 284.4 267.6C285.03 267.6 290.08 267.6 290.71 267.6C290.71 305.28 269.47 335.93 243.35 335.93C243.35 334.41 243.35 329.09 243.35 328.34Z" id="bayu36Eptg"></path><path d="M248.08 418.78C247.96 418.74 247.84 418.69 247.72 418.63C247.49 418.51 247.28 418.36 247.09 418.18C246.99 418.08 246.89 417.97 246.81 417.86C246.69 417.71 246.59 417.55 246.51 417.38C246.43 417.21 246.36 417.04 246.31 416.85C246.26 416.71 246.23 416.56 246.21 416.41C246.17 416.13 246.17 415.85 246.2 415.57C246.22 415.42 246.24 415.28 246.28 415.14C246.46 414.4 246.92 413.75 247.52 413.38C248.12 413 248.85 412.9 249.51 413.12C249.63 413.15 249.75 413.21 249.87 413.27C250.1 413.38 250.32 413.53 250.51 413.72C250.61 413.82 250.7 413.92 250.79 414.04C250.9 414.19 251 414.34 251.08 414.51C251.17 414.68 251.23 414.86 251.29 415.04C251.33 415.18 251.36 415.33 251.38 415.48C251.42 415.76 251.42 416.04 251.39 416.32C251.38 416.47 251.35 416.61 251.31 416.75C251.13 417.49 250.67 418.14 250.07 418.52C249.47 418.89 248.74 418.99 248.08 418.78Z" id="i1UTp5NhGp"></path><path d="M255.67 434.46C255.55 434.42 255.43 434.37 255.31 434.31C255.08 434.19 254.87 434.04 254.68 433.86C254.58 433.76 254.48 433.65 254.4 433.54C254.28 433.39 254.18 433.23 254.1 433.06C254.02 432.89 253.95 432.72 253.9 432.53C253.85 432.39 253.82 432.24 253.8 432.09C253.76 431.81 253.76 431.53 253.79 431.25C253.81 431.11 253.83 430.96 253.87 430.83C254.05 430.08 254.51 429.43 255.11 429.06C255.71 428.68 256.44 428.58 257.1 428.8C257.22 428.84 257.34 428.89 257.46 428.95C257.69 429.06 257.91 429.21 258.1 429.4C258.2 429.5 258.29 429.61 258.38 429.72C258.49 429.87 258.59 430.02 258.67 430.19C258.76 430.36 258.82 430.54 258.88 430.73C258.92 430.86 258.95 431.01 258.97 431.16C259.01 431.44 259.01 431.72 258.98 432C258.97 432.15 258.94 432.29 258.9 432.43C258.72 433.17 258.26 433.82 257.66 434.2C257.06 434.57 256.34 434.67 255.67 434.46Z" id="b1u3R28O2X"></path></defs><g><g><g><use xlink:href="#eG39zrlQm" opacity="1" fill="#f8933d" fill-opacity="1"></use><g><use xlink:href="#eG39zrlQm" opacity="1" fill-opacity="0" stroke="#000000" stroke-width="1" stroke-opacity="0"></use></g></g><g><use xlink:href="#azQwAbNB5" opacity="1" fill="#000000" fill-opacity="0"></use><g><use xlink:href="#azQwAbNB5" opacity="1" fill-opacity="0" stroke="#000000" stroke-width="1" stroke-opacity="0"></use></g></g><g><use xlink:href="#e8Kd0t3mM" opacity="1" fill="#ff6243" fill-opacity="1"></use><g><use xlink:href="#e8Kd0t3mM" opacity="1" fill-opacity="0" stroke="#000000" stroke-width="1" stroke-opacity="0"></use></g></g><g><use xlink:href="#fhzMqbwhg" opacity="1" fill="#000000" fill-opacity="0"></use><g><use xlink:href="#fhzMqbwhg" opacity="1" fill-opacity="0" stroke="#000000" stroke-width="1" stroke-opacity="0"></use></g></g><g><use xlink:href="#cPnORdfoo" opacity="1" fill="#ed5564" fill-opacity="1"></use><g><use xlink:href="#cPnORdfoo" opacity="1" fill-opacity="0" stroke="#000000" stroke-width="1" stroke-opacity="0"></use></g></g><g><use xlink:href="#hryMbQrJo" opacity="1" fill="#000000" fill-opacity="0"></use><g><use xlink:href="#hryMbQrJo" opacity="1" fill-opacity="0" stroke="#000000" stroke-width="1" stroke-opacity="0"></use></g></g><g><use xlink:href="#dUY5s92uC" opacity="1" fill="#e6e9ed" fill-opacity="1"></use><g><use xlink:href="#dUY5s92uC" opacity="1" fill-opacity="0" stroke="#000000" stroke-width="1" stroke-opacity="0"></use></g></g><g><use xlink:href="#a1bcjNOcOk" opacity="1" fill="#000000" fill-opacity="0"></use><g><use xlink:href="#a1bcjNOcOk" opacity="1" fill-opacity="0" stroke="#000000" stroke-width="1" stroke-opacity="0"></use></g></g><g><use xlink:href="#cWKBQMkiv" opacity="1" fill="#ccd1d9" fill-opacity="1"></use><g><use xlink:href="#cWKBQMkiv" opacity="1" fill-opacity="0" stroke="#000000" stroke-width="1" stroke-opacity="0"></use></g></g><g><use xlink:href="#cw4XCwfiN" opacity="1" fill="#000000" fill-opacity="0"></use><g><use xlink:href="#cw4XCwfiN" opacity="1" fill-opacity="0" stroke="#000000" stroke-width="1" stroke-opacity="0"></use></g></g><g><use xlink:href="#can6ZnD0t" opacity="1" fill="#7bc2d4" fill-opacity="1"></use><g><use xlink:href="#can6ZnD0t" opacity="1" fill-opacity="0" stroke="#000000" stroke-width="1" stroke-opacity="0"></use></g></g><g><use xlink:href="#a854vOZrpz" opacity="1" fill="#000000" fill-opacity="0"></use><g><use xlink:href="#a854vOZrpz" opacity="1" fill-opacity="0" stroke="#000000" stroke-width="1" stroke-opacity="0"></use></g></g><g><use xlink:href="#i1sJL49tjo" opacity="1" fill="#5697ee" fill-opacity="1"></use><g><use xlink:href="#i1sJL49tjo" opacity="1" fill-opacity="0" stroke="#000000" stroke-width="1" stroke-opacity="0"></use></g></g><g><use xlink:href="#a1okK8LtF8" opacity="1" fill="#000000" fill-opacity="0"></use><g><use xlink:href="#a1okK8LtF8" opacity="1" fill-opacity="0" stroke="#000000" stroke-width="1" stroke-opacity="0"></use></g></g><g><use xlink:href="#arTHWKMUT" opacity="1" fill="#5697ee" fill-opacity="1"></use><g><use xlink:href="#arTHWKMUT" opacity="1" fill-opacity="0" stroke="#000000" stroke-width="1" stroke-opacity="0"></use></g></g><g><use xlink:href="#bRbsrYZz" opacity="1" fill="#000000" fill-opacity="0"></use><g><use xlink:href="#bRbsrYZz" opacity="1" fill-opacity="0" stroke="#000000" stroke-width="1" stroke-opacity="0"></use></g></g><g><use xlink:href="#d8DMPac0b" opacity="1" fill="#5697ee" fill-opacity="1"></use><g><use xlink:href="#d8DMPac0b" opacity="1" fill-opacity="0" stroke="#000000" stroke-width="1" stroke-opacity="0"></use></g></g><g><use xlink:href="#aa0B1H8y" opacity="1" fill="#000000" fill-opacity="0"></use><g><use xlink:href="#aa0B1H8y" opacity="1" fill-opacity="0" stroke="#000000" stroke-width="1" stroke-opacity="0"></use></g></g><g><use xlink:href="#gjPdXKfYp" opacity="1" fill="#5697ee" fill-opacity="1"></use><g><use xlink:href="#gjPdXKfYp" opacity="1" fill-opacity="0" stroke="#000000" stroke-width="1" stroke-opacity="0"></use></g></g><g><use xlink:href="#a2ChpE8IfH" opacity="1" fill="#000000" fill-opacity="0"></use><g><use xlink:href="#a2ChpE8IfH" opacity="1" fill-opacity="0" stroke="#000000" stroke-width="1" stroke-opacity="0"></use></g></g><g><use xlink:href="#d1DcKQesJ" opacity="1" fill="#5697ee" fill-opacity="1"></use><g><use xlink:href="#d1DcKQesJ" opacity="1" fill-opacity="0" stroke="#000000" stroke-width="1" stroke-opacity="0"></use></g></g><g><use xlink:href="#bBm0TSZ7i" opacity="1" fill="#000000" fill-opacity="0"></use><g><use xlink:href="#bBm0TSZ7i" opacity="1" fill-opacity="0" stroke="#000000" stroke-width="1" stroke-opacity="0"></use></g></g><g><use xlink:href="#azq2XKrB" opacity="1" fill="#f5f7fa" fill-opacity="1"></use><g><use xlink:href="#azq2XKrB" opacity="1" fill-opacity="0" stroke="#000000" stroke-width="1" stroke-opacity="0"></use></g></g><g><use xlink:href="#a105NgTxnv" opacity="1" fill="#000000" fill-opacity="0"></use><g><use xlink:href="#a105NgTxnv" opacity="1" fill-opacity="0" stroke="#000000" stroke-width="1" stroke-opacity="0"></use></g></g><g><use xlink:href="#b3u0ge1CGt" opacity="1" fill="#f5f7fa" fill-opacity="1"></use><g><use xlink:href="#b3u0ge1CGt" opacity="1" fill-opacity="0" stroke="#000000" stroke-width="1" stroke-opacity="0"></use></g></g><g><use xlink:href="#aZm2wPXTe" opacity="1" fill="#000000" fill-opacity="0"></use><g><use xlink:href="#aZm2wPXTe" opacity="1" fill-opacity="0" stroke="#000000" stroke-width="1" stroke-opacity="0"></use></g></g><g><use xlink:href="#i1jQG6hOPI" opacity="1" fill="#e6e9ed" fill-opacity="1"></use><g><use xlink:href="#i1jQG6hOPI" opacity="1" fill-opacity="0" stroke="#000000" stroke-width="1" stroke-opacity="0"></use></g></g><g><use xlink:href="#d1rikZ51AO" opacity="1" fill="#000000" fill-opacity="0"></use><g><use xlink:href="#d1rikZ51AO" opacity="1" fill-opacity="0" stroke="#000000" stroke-width="1" stroke-opacity="0"></use></g></g><g><use xlink:href="#i1dRGscCV4" opacity="1" fill="#5697ee" fill-opacity="1"></use><g><use xlink:href="#i1dRGscCV4" opacity="1" fill-opacity="0" stroke="#000000" stroke-width="1" stroke-opacity="0"></use></g></g><g><use xlink:href="#j1rRCroM1X" opacity="1" fill="#000000" fill-opacity="0"></use><g><use xlink:href="#j1rRCroM1X" opacity="1" fill-opacity="0" stroke="#000000" stroke-width="1" stroke-opacity="0"></use></g></g><g><use xlink:href="#c2L0x1EwV2" opacity="1" fill="#5697ee" fill-opacity="1"></use><g><use xlink:href="#c2L0x1EwV2" opacity="1" fill-opacity="0" stroke="#000000" stroke-width="1" stroke-opacity="0"></use></g></g><g><use xlink:href="#d85dtn6K7" opacity="1" fill="#000000" fill-opacity="0"></use><g><use xlink:href="#d85dtn6K7" opacity="1" fill-opacity="0" stroke="#000000" stroke-width="1" stroke-opacity="0"></use></g></g><g><use xlink:href="#f3tomnhxhw" opacity="1" fill="#5697ee" fill-opacity="1"></use><g><use xlink:href="#f3tomnhxhw" opacity="1" fill-opacity="0" stroke="#000000" stroke-width="1" stroke-opacity="0"></use></g></g><g><use xlink:href="#bb8jdrHRP" opacity="1" fill="#000000" fill-opacity="0"></use><g><use xlink:href="#bb8jdrHRP" opacity="1" fill-opacity="0" stroke="#000000" stroke-width="1" stroke-opacity="0"></use></g></g><g><use xlink:href="#c53KC9L52" opacity="1" fill="#5697ee" fill-opacity="1"></use><g><use xlink:href="#c53KC9L52" opacity="1" fill-opacity="0" stroke="#000000" stroke-width="1" stroke-opacity="0"></use></g></g><g><use xlink:href="#eVNY5ibdr" opacity="1" fill="#000000" fill-opacity="0"></use><g><use xlink:href="#eVNY5ibdr" opacity="1" fill-opacity="0" stroke="#000000" stroke-width="1" stroke-opacity="0"></use></g></g><g><use xlink:href="#a2Oqg3a54" opacity="1" fill="#434a54" fill-opacity="1"></use><g><use xlink:href="#a2Oqg3a54" opacity="1" fill-opacity="0" stroke="#000000" stroke-width="1" stroke-opacity="0"></use></g></g><g><use xlink:href="#a72mKKIj17" opacity="1" fill="#000000" fill-opacity="0"></use><g><use xlink:href="#a72mKKIj17" opacity="1" fill-opacity="0" stroke="#000000" stroke-width="1" stroke-opacity="0"></use></g></g><g><use xlink:href="#a51QIkLCEo" opacity="1" fill="#ed5564" fill-opacity="1"></use><g><use xlink:href="#a51QIkLCEo" opacity="1" fill-opacity="0" stroke="#000000" stroke-width="1" stroke-opacity="0"></use></g></g><g><use xlink:href="#f3vjgQveq" opacity="1" fill="#000000" fill-opacity="0"></use><g><use xlink:href="#f3vjgQveq" opacity="1" fill-opacity="0" stroke="#000000" stroke-width="1" stroke-opacity="0"></use></g></g><g><use xlink:href="#dd6N4TAVr" opacity="1" fill="#ff6243" fill-opacity="1"></use><g><use xlink:href="#dd6N4TAVr" opacity="1" fill-opacity="0" stroke="#000000" stroke-width="1" stroke-opacity="0"></use></g></g><g><use xlink:href="#dIUOxDlgK" opacity="1" fill="#2d2d30" fill-opacity="1"></use><g><use xlink:href="#dIUOxDlgK" opacity="1" fill-opacity="0" stroke="#000000" stroke-width="1" stroke-opacity="0"></use></g></g><g><use xlink:href="#d2tBmkH8G5" opacity="1" fill="#000000" fill-opacity="0"></use><g><use xlink:href="#d2tBmkH8G5" opacity="1" fill-opacity="0" stroke="#000000" stroke-width="1" stroke-opacity="0"></use></g></g><g><use xlink:href="#b2qT9ID8wJ" opacity="1" fill="#2d2d30" fill-opacity="1"></use><g><use xlink:href="#b2qT9ID8wJ" opacity="1" fill-opacity="0" stroke="#000000" stroke-width="1" stroke-opacity="0"></use></g></g><g><use xlink:href="#c1HA9lqr2C" opacity="1" fill="#000000" fill-opacity="0"></use><g><use xlink:href="#c1HA9lqr2C" opacity="1" fill-opacity="0" stroke="#000000" stroke-width="1" stroke-opacity="0"></use></g></g><g><use xlink:href="#dyWgMtbxn" opacity="1" fill="#2d2d30" fill-opacity="1"></use><g><use xlink:href="#dyWgMtbxn" opacity="1" fill-opacity="0" stroke="#000000" stroke-width="1" stroke-opacity="0"></use></g></g><g><use xlink:href="#b5CgUpbJI" opacity="1" fill="#000000" fill-opacity="0"></use><g><use xlink:href="#b5CgUpbJI" opacity="1" fill-opacity="0" stroke="#000000" stroke-width="1" stroke-opacity="0"></use></g></g><g><use xlink:href="#c7bdECMKI" opacity="1" fill="#2d2d30" fill-opacity="1"></use><g><use xlink:href="#c7bdECMKI" opacity="1" fill-opacity="0" stroke="#000000" stroke-width="1" stroke-opacity="0"></use></g></g><g><use xlink:href="#eJTpXojN4" opacity="1" fill="#000000" fill-opacity="0"></use><g><use xlink:href="#eJTpXojN4" opacity="1" fill-opacity="0" stroke="#000000" stroke-width="1" stroke-opacity="0"></use></g></g><g><use xlink:href="#a34enUywI2" opacity="1" fill="#2d2d30" fill-opacity="1"></use><g><use xlink:href="#a34enUywI2" opacity="1" fill-opacity="0" stroke="#000000" stroke-width="1" stroke-opacity="0"></use></g></g><g><use xlink:href="#a2nDOI3R5M" opacity="1" fill="#000000" fill-opacity="0"></use><g><use xlink:href="#a2nDOI3R5M" opacity="1" fill-opacity="0" stroke="#000000" stroke-width="1" stroke-opacity="0"></use></g></g><g><use xlink:href="#cYIkIeGjz" opacity="1" fill="#2d2d30" fill-opacity="1"></use><g><use xlink:href="#cYIkIeGjz" opacity="1" fill-opacity="0" stroke="#000000" stroke-width="1" stroke-opacity="0"></use></g></g><g><use xlink:href="#a2Hb6AcAed" opacity="1" fill="#000000" fill-opacity="0"></use><g><use xlink:href="#a2Hb6AcAed" opacity="1" fill-opacity="0" stroke="#000000" stroke-width="1" stroke-opacity="0"></use></g></g><g><use xlink:href="#a27STYKb05" opacity="1" fill="#2d2d30" fill-opacity="1"></use><g><use xlink:href="#a27STYKb05" opacity="1" fill-opacity="0" stroke="#000000" stroke-width="1" stroke-opacity="0"></use></g></g><g><use xlink:href="#enqBL4mZM" opacity="1" fill="#000000" fill-opacity="0"></use><g><use xlink:href="#enqBL4mZM" opacity="1" fill-opacity="0" stroke="#000000" stroke-width="1" stroke-opacity="0"></use></g></g><g><use xlink:href="#c6aTMhNN3j" opacity="1" fill="#2d2d30" fill-opacity="1"></use><g><use xlink:href="#c6aTMhNN3j" opacity="1" fill-opacity="0" stroke="#000000" stroke-width="1" stroke-opacity="0"></use></g></g><g><use xlink:href="#a116Mjzg6j" opacity="1" fill="#000000" fill-opacity="0"></use><g><use xlink:href="#a116Mjzg6j" opacity="1" fill-opacity="0" stroke="#000000" stroke-width="1" stroke-opacity="0"></use></g></g><g><use xlink:href="#b1QRPrWE0m" opacity="1" fill="#e5c74a" fill-opacity="1"></use><g><use xlink:href="#b1QRPrWE0m" opacity="1" fill-opacity="0" stroke="#000000" stroke-width="1" stroke-opacity="0"></use></g></g><path></path><g><use xlink:href="#bVzAH3NGt" opacity="1" fill="#acda63" fill-opacity="1"></use><g><use xlink:href="#bVzAH3NGt" opacity="1" fill-opacity="0" stroke="#000000" stroke-width="1" stroke-opacity="0"></use></g></g><g><use xlink:href="#hQLm6eIAA" opacity="1" fill="#e9cd57" fill-opacity="1"></use><g><use xlink:href="#hQLm6eIAA" opacity="1" fill-opacity="0" stroke="#000000" stroke-width="1" stroke-opacity="0"></use></g></g><g><use xlink:href="#c6V2H9T3Me" opacity="1" fill="#d3b94e" fill-opacity="1"></use><g><use xlink:href="#c6V2H9T3Me" opacity="1" fill-opacity="0" stroke="#000000" stroke-width="1" stroke-opacity="0"></use></g></g><g><use xlink:href="#bDlXka6c9" opacity="1" fill="#d3b94e" fill-opacity="1"></use><g><use xlink:href="#bDlXka6c9" opacity="1" fill-opacity="0" stroke="#000000" stroke-width="1" stroke-opacity="0"></use></g></g><g><use xlink:href="#aagEThRQmm" opacity="1" fill="#d3b94e" fill-opacity="1"></use><g><use xlink:href="#aagEThRQmm" opacity="1" fill-opacity="0" stroke="#000000" stroke-width="1" stroke-opacity="0"></use></g></g><g><use xlink:href="#c4rltpNC9W" opacity="1" fill="#d3b94e" fill-opacity="1"></use><g><use xlink:href="#c4rltpNC9W" opacity="1" fill-opacity="0" stroke="#000000" stroke-width="1" stroke-opacity="0"></use></g></g><g><use xlink:href="#a2tQvRdDzH" opacity="1" fill="#d3b94e" fill-opacity="1"></use><g><use xlink:href="#a2tQvRdDzH" opacity="1" fill-opacity="0" stroke="#000000" stroke-width="1" stroke-opacity="0"></use></g></g><g><use xlink:href="#b3hol251XE" opacity="1" fill="#d3b94e" fill-opacity="1"></use><g><use xlink:href="#b3hol251XE" opacity="1" fill-opacity="0" stroke="#000000" stroke-width="1" stroke-opacity="0"></use></g></g><g><use xlink:href="#cBu1mI3H9" opacity="1" fill="#e9cd57" fill-opacity="1"></use><g><use xlink:href="#cBu1mI3H9" opacity="1" fill-opacity="0" stroke="#000000" stroke-width="1" stroke-opacity="0"></use></g></g><g><use xlink:href="#aqOicfIjy" opacity="1" fill="#d3b94e" fill-opacity="1"></use><g><use xlink:href="#aqOicfIjy" opacity="1" fill-opacity="0" stroke="#000000" stroke-width="1" stroke-opacity="0"></use></g></g><g><use xlink:href="#a1vZrlepy4" opacity="1" fill="#e9e9e9" fill-opacity="1"></use><g><use xlink:href="#a1vZrlepy4" opacity="1" fill-opacity="0" stroke="#000000" stroke-width="1" stroke-opacity="0"></use></g></g><path></path><g><use xlink:href="#bdq8ipxt" opacity="1" fill="#d3b94e" fill-opacity="1"></use><g><use xlink:href="#bdq8ipxt" opacity="1" fill-opacity="0" stroke="#000000" stroke-width="1" stroke-opacity="0"></use></g></g><g><use xlink:href="#b8N4lJ0c6" opacity="1" fill="#e9e9e9" fill-opacity="1"></use><g><use xlink:href="#b8N4lJ0c6" opacity="1" fill-opacity="0" stroke="#000000" stroke-width="1" stroke-opacity="0"></use></g></g><g><use xlink:href="#aX75BsVGI" opacity="1" fill="#e9cd57" fill-opacity="1"></use><g><use xlink:href="#aX75BsVGI" opacity="1" fill-opacity="0" stroke="#000000" stroke-width="1" stroke-opacity="0"></use></g></g><g><use xlink:href="#bjqZ4jtW" opacity="1" fill="#d3b94e" fill-opacity="1"></use><g><use xlink:href="#bjqZ4jtW" opacity="1" fill-opacity="0" stroke="#000000" stroke-width="1" stroke-opacity="0"></use></g></g><g><use xlink:href="#b1jYNWLcQ0" opacity="1" fill="#e9cd57" fill-opacity="1"></use><g><use xlink:href="#b1jYNWLcQ0" opacity="1" fill-opacity="0" stroke="#000000" stroke-width="1" stroke-opacity="0"></use></g></g><g><use xlink:href="#abxVH2rkL" opacity="1" fill="#d3b94e" fill-opacity="1"></use><g><use xlink:href="#abxVH2rkL" opacity="1" fill-opacity="0" stroke="#000000" stroke-width="1" stroke-opacity="0"></use></g></g><g><use xlink:href="#ahkLRq4G" opacity="1" fill="#d7f01f" fill-opacity="1"></use><g><use xlink:href="#ahkLRq4G" opacity="1" fill-opacity="0" stroke="#000000" stroke-width="1" stroke-opacity="0"></use></g></g><g><use xlink:href="#a1sbjhj1gX" opacity="1" fill="#b0c60e" fill-opacity="1"></use><g><use xlink:href="#a1sbjhj1gX" opacity="1" fill-opacity="0" stroke="#000000" stroke-width="1" stroke-opacity="0"></use></g></g><g><use xlink:href="#i2ezLtWvQh" opacity="1" fill="#93603e" fill-opacity="1"></use><g><use xlink:href="#i2ezLtWvQh" opacity="1" fill-opacity="0" stroke="#000000" stroke-width="1" stroke-opacity="0"></use></g></g><g><use xlink:href="#bAk03H8df" opacity="1" fill="#7f573c" fill-opacity="1"></use><g><use xlink:href="#bAk03H8df" opacity="1" fill-opacity="0" stroke="#000000" stroke-width="1" stroke-opacity="0"></use></g></g><g><use xlink:href="#c2i0NgfiY5" opacity="1" fill="#b0c60e" fill-opacity="1"></use><g><use xlink:href="#c2i0NgfiY5" opacity="1" fill-opacity="0" stroke="#000000" stroke-width="1" stroke-opacity="0"></use></g></g><g><use xlink:href="#aLnQEUnJH" opacity="1" fill="#9ab748" fill-opacity="1"></use><g><use xlink:href="#aLnQEUnJH" opacity="1" fill-opacity="0" stroke="#000000" stroke-width="1" stroke-opacity="0"></use></g></g><g><use xlink:href="#bykrKP6F0" opacity="1" fill="#95f01f" fill-opacity="1"></use><g><use xlink:href="#bykrKP6F0" opacity="1" fill-opacity="0" stroke="#000000" stroke-width="1" stroke-opacity="0"></use></g></g><g><use xlink:href="#byNannQQO" opacity="1" fill="#e0e022" fill-opacity="1"></use><g><use xlink:href="#byNannQQO" opacity="1" fill-opacity="0" stroke="#000000" stroke-width="1" stroke-opacity="0"></use></g></g><g><use xlink:href="#dnQwzcAf" opacity="1" fill="#d6ea7f" fill-opacity="1"></use><g><use xlink:href="#dnQwzcAf" opacity="1" fill-opacity="0" stroke="#000000" stroke-width="1" stroke-opacity="0"></use></g></g><g><use xlink:href="#dqca6t1jW" opacity="1" fill="#e0e022" fill-opacity="1"></use><g><use xlink:href="#dqca6t1jW" opacity="1" fill-opacity="0" stroke="#000000" stroke-width="1" stroke-opacity="0"></use></g></g><g><use xlink:href="#adATQVPu3" opacity="1" fill="#e0e022" fill-opacity="1"></use><g><use xlink:href="#adATQVPu3" opacity="1" fill-opacity="0" stroke="#000000" stroke-width="1" stroke-opacity="0"></use></g></g><g><use xlink:href="#anYrTyKaL" opacity="1" fill="#e0e022" fill-opacity="1"></use><g><use xlink:href="#anYrTyKaL" opacity="1" fill-opacity="0" stroke="#000000" stroke-width="1" stroke-opacity="0"></use></g></g><g><use xlink:href="#iRj2jr8iR" opacity="1" fill="#e0e022" fill-opacity="1"></use><g><use xlink:href="#iRj2jr8iR" opacity="1" fill-opacity="0" stroke="#000000" stroke-width="1" stroke-opacity="0"></use></g></g><g><use xlink:href="#f3RXjBMtw3" opacity="1" fill="#e0e022" fill-opacity="1"></use><g><use xlink:href="#f3RXjBMtw3" opacity="1" fill-opacity="0" stroke="#000000" stroke-width="1" stroke-opacity="0"></use></g></g><g><use xlink:href="#ezkOwaohe" opacity="1" fill="#9ab748" fill-opacity="1"></use><g><use xlink:href="#ezkOwaohe" opacity="1" fill-opacity="0" stroke="#000000" stroke-width="1" stroke-opacity="0"></use></g></g><g><use xlink:href="#c6LMMT2we" opacity="1" fill="#8ea53a" fill-opacity="1"></use><g><use xlink:href="#c6LMMT2we" opacity="1" fill-opacity="0" stroke="#000000" stroke-width="1" stroke-opacity="0"></use></g></g><g><use xlink:href="#c14CTDkujH" opacity="1" fill="#95f01f" fill-opacity="1"></use><g><use xlink:href="#c14CTDkujH" opacity="1" fill-opacity="0" stroke="#000000" stroke-width="1" stroke-opacity="0"></use></g></g><g><use xlink:href="#a7hOy7kdTD" opacity="1" fill="#b0c60e" fill-opacity="1"></use><g><use xlink:href="#a7hOy7kdTD" opacity="1" fill-opacity="0" stroke="#000000" stroke-width="1" stroke-opacity="0"></use></g></g><g><use xlink:href="#bwesGW2x9" opacity="1" fill="#1b8923" fill-opacity="1"></use><g><use xlink:href="#bwesGW2x9" opacity="1" fill-opacity="0" stroke="#000000" stroke-width="1" stroke-opacity="0"></use></g></g><g><use xlink:href="#a3BdVnaflX" opacity="1" fill="#1b8923" fill-opacity="1"></use><g><use xlink:href="#a3BdVnaflX" opacity="1" fill-opacity="0" stroke="#000000" stroke-width="1" stroke-opacity="0"></use></g></g><g><use xlink:href="#a28Hgsfm26" opacity="1" fill="#1b8923" fill-opacity="1"></use><g><use xlink:href="#a28Hgsfm26" opacity="1" fill-opacity="0" stroke="#000000" stroke-width="1" stroke-opacity="0"></use></g></g><g><use xlink:href="#c1pnbzCmRW" opacity="1" fill="#9777a8" fill-opacity="1"></use><g><use xlink:href="#c1pnbzCmRW" opacity="1" fill-opacity="0" stroke="#000000" stroke-width="1" stroke-opacity="0"></use></g></g><g><use xlink:href="#e1CnwzDI7G" opacity="1" fill="#583e68" fill-opacity="1"></use><g><use xlink:href="#e1CnwzDI7G" opacity="1" fill-opacity="0" stroke="#000000" stroke-width="1" stroke-opacity="0"></use></g></g><g><use xlink:href="#aM5OsrCqN" opacity="1" fill="#583e68" fill-opacity="1"></use><g><use xlink:href="#aM5OsrCqN" opacity="1" fill-opacity="0" stroke="#000000" stroke-width="1" stroke-opacity="0"></use></g></g><g><use xlink:href="#g1mylOFNn6" opacity="1" fill="#6f58a8" fill-opacity="1"></use><g><use xlink:href="#g1mylOFNn6" opacity="1" fill-opacity="0" stroke="#000000" stroke-width="1" stroke-opacity="0"></use></g></g><g><use xlink:href="#cr2baFP4N" opacity="1" fill="#6f58a8" fill-opacity="1"></use><g><use xlink:href="#cr2baFP4N" opacity="1" fill-opacity="0" stroke="#000000" stroke-width="1" stroke-opacity="0"></use></g></g><g><use xlink:href="#g1iuXdGC9H" opacity="1" fill="#9777a8" fill-opacity="1"></use><g><use xlink:href="#g1iuXdGC9H" opacity="1" fill-opacity="0" stroke="#000000" stroke-width="1" stroke-opacity="0"></use></g></g><g><use xlink:href="#c1chDKDS8B" opacity="1" fill="#583e68" fill-opacity="1"></use><g><use xlink:href="#c1chDKDS8B" opacity="1" fill-opacity="0" stroke="#000000" stroke-width="1" stroke-opacity="0"></use></g></g><g><use xlink:href="#a2FWGxRZJY" opacity="1" fill="#9777a8" fill-opacity="1"></use><g><use xlink:href="#a2FWGxRZJY" opacity="1" fill-opacity="0" stroke="#000000" stroke-width="1" stroke-opacity="0"></use></g></g><g><use xlink:href="#c1wlsdEhaj" opacity="1" fill="#583e68" fill-opacity="1"></use><g><use xlink:href="#c1wlsdEhaj" opacity="1" fill-opacity="0" stroke="#000000" stroke-width="1" stroke-opacity="0"></use></g></g><g><use xlink:href="#avItlGqv5" opacity="1" fill="#9777a8" fill-opacity="1"></use><g><use xlink:href="#avItlGqv5" opacity="1" fill-opacity="0" stroke="#000000" stroke-width="1" stroke-opacity="0"></use></g></g><g><use xlink:href="#a1pvqzJPnv" opacity="1" fill="#6f58a8" fill-opacity="1"></use><g><use xlink:href="#a1pvqzJPnv" opacity="1" fill-opacity="0" stroke="#000000" stroke-width="1" stroke-opacity="0"></use></g></g><g><use xlink:href="#a4ehdPyTPL" opacity="1" fill="#6f58a8" fill-opacity="1"></use><g><use xlink:href="#a4ehdPyTPL" opacity="1" fill-opacity="0" stroke="#000000" stroke-width="1" stroke-opacity="0"></use></g></g><g><use xlink:href="#b8dilpeTi" opacity="1" fill="#6f58a8" fill-opacity="1"></use><g><use xlink:href="#b8dilpeTi" opacity="1" fill-opacity="0" stroke="#000000" stroke-width="1" stroke-opacity="0"></use></g></g><g><use xlink:href="#a31Bm1GE7q" opacity="1" fill="#88c057" fill-opacity="1"></use><g><use xlink:href="#a31Bm1GE7q" opacity="1" fill-opacity="0" stroke="#000000" stroke-width="1" stroke-opacity="0"></use></g></g><g><use xlink:href="#bayu36Eptg" opacity="1" fill="#7a3726" fill-opacity="1"></use><g><use xlink:href="#bayu36Eptg" opacity="1" fill-opacity="0" stroke="#000000" stroke-width="1" stroke-opacity="0"></use></g></g><g><use xlink:href="#i1UTp5NhGp" opacity="1" fill="#1b8923" fill-opacity="1"></use><g><use xlink:href="#i1UTp5NhGp" opacity="1" fill-opacity="0" stroke="#000000" stroke-width="1" stroke-opacity="0"></use></g></g><g><use xlink:href="#b1u3R28O2X" opacity="1" fill="#1b8923" fill-opacity="1"></use><g><use xlink:href="#b1u3R28O2X" opacity="1" fill-opacity="0" stroke="#000000" stroke-width="1" stroke-opacity="0"></use></g></g></g></g></svg>