<?xml version="1.0" encoding="UTF-8" standalone="no"?>
<!DOCTYPE svg PUBLIC "-//W3C//DTD SVG 1.1//EN" "http://www.w3.org/Graphics/SVG/1.1/DTD/svg11.dtd">
<svg version="1.1" xmlns="http://www.w3.org/2000/svg" xmlns:xlink="http://www.w3.org/1999/xlink" preserveAspectRatio="xMidYMid meet" viewBox="0 0 640 640" width="640" height="640"><defs><path d="M205.23 396.65C201.38 383.96 183.92 384.09 187.74 396.65C189.49 396.65 203.48 396.65 205.23 396.65Z" id="eG39zrlQm"></path><path d="M205.23 396.65C201.38 383.96 183.92 384.09 187.74 396.65C189.49 396.65 203.48 396.65 205.23 396.65Z" id="azQwAbNB5"></path><path d="M180.52 354.23C181.91 353.87 183.29 354.87 183.6 356.46C183.97 358.32 184.31 360.18 184.63 361.97C184.92 363.57 184.03 365.18 182.62 365.44C180.73 365.8 179.82 364.54 179.57 363.14C179.26 361.39 178.92 359.57 178.56 357.75C178.25 356.16 179.12 354.59 180.52 354.23Z" id="e8Kd0t3mM"></path><path d="M180.52 354.23C181.91 353.87 183.29 354.87 183.6 356.46C183.97 358.32 184.31 360.18 184.63 361.97C184.92 363.57 184.03 365.18 182.62 365.44C180.73 365.8 179.82 364.54 179.57 363.14C179.26 361.39 178.92 359.57 178.56 357.75C178.25 356.16 179.12 354.59 180.52 354.23Z" id="fhzMqbwhg"></path><path d="M404.29 6.07C404.28 6.07 404.28 6.07 404.27 6.07C396.26 25.09 356.2 120.17 284.09 291.31L301.05 298.91C373.16 127.77 413.22 32.7 421.23 13.68C421.23 13.68 421.23 13.68 421.23 13.68C422.69 10.18 422.05 5.98 419.29 3.12C415.69 -0.6 409.82 -0.6 406.22 3.12C405.37 4 404.73 5 404.29 6.07Z" id="cPnORdfoo"></path><path d="M404.29 6.07C404.28 6.07 404.28 6.07 404.27 6.07C396.26 25.09 356.2 120.17 284.09 291.31L301.05 298.91C373.16 127.77 413.22 32.7 421.23 13.68C421.23 13.68 421.23 13.68 421.23 13.68C422.69 10.18 422.05 5.98 419.29 3.12C415.69 -0.6 409.82 -0.6 406.22 3.12C405.37 4 404.73 5 404.29 6.07Z" id="hryMbQrJo"></path><path d="M275.78 187.26C284.72 186.41 356.22 179.57 365.16 178.71C365.16 178.71 408.23 204.04 384.61 121.63C357.28 26.28 273.5 13.75 288.69 42.39C303.88 71.02 232.92 59.69 223.78 114.87C211.2 190.74 265.38 172.78 275.78 187.26Z" id="dUY5s92uC"></path><path d="M275.78 187.26C284.72 186.41 356.22 179.57 365.16 178.71C365.16 178.71 408.23 204.04 384.61 121.63C357.28 26.28 273.5 13.75 288.69 42.39C303.88 71.02 232.92 59.69 223.78 114.87C211.2 190.74 265.38 172.78 275.78 187.26Z" id="a1bcjNOcOk"></path><path d="M237.1 458.51L366.53 458.51L348.04 420.37L255.59 420.37L237.1 458.51Z" id="cWKBQMkiv"></path><path d="M237.1 458.51L366.53 458.51L348.04 420.37L255.59 420.37L237.1 458.51Z" id="cw4XCwfiN"></path><path d="M218.61 114.87C218.61 114.87 200.12 133.97 200.12 191.24C200.12 229.42 209.36 309.71 255.59 420.34C256.82 420.34 262.98 420.34 274.08 420.34C318.46 420.34 343.11 420.34 348.04 420.34C394.26 309.71 403.51 229.42 403.51 191.24C403.51 133.97 385.01 114.87 385.01 114.87C373.92 114.87 346.19 114.87 301.81 114.87C251.89 114.87 224.16 114.87 218.61 114.87Z" id="can6ZnD0t"></path><path d="M218.61 114.87C218.61 114.87 200.12 133.97 200.12 191.24C200.12 229.42 209.36 309.71 255.59 420.34C256.82 420.34 262.98 420.34 274.08 420.34C318.46 420.34 343.11 420.34 348.04 420.34C394.26 309.71 403.51 229.42 403.51 191.24C403.51 133.97 385.01 114.87 385.01 114.87C373.92 114.87 346.19 114.87 301.81 114.87C251.89 114.87 224.16 114.87 218.61 114.87Z" id="a854vOZrpz"></path><path d="M258.3 427.08C261.91 430.8 267.76 430.8 271.37 427.08C273.17 425.23 274.07 422.8 274.08 420.37C270.38 420.37 257.44 420.37 255.59 420.37C255.6 422.8 256.5 425.23 258.3 427.08Z" id="i1sJL49tjo"></path><path d="M258.3 427.08C261.91 430.8 267.76 430.8 271.37 427.08C273.17 425.23 274.07 422.8 274.08 420.37C270.38 420.37 257.44 420.37 255.59 420.37C255.6 422.8 256.5 425.23 258.3 427.08Z" id="a1okK8LtF8"></path><path d="M276.78 427.08C280.4 430.8 286.25 430.8 289.86 427.08C291.66 425.23 292.56 422.8 292.57 420.37C288.87 420.37 275.93 420.37 274.08 420.37C274.09 422.8 274.99 425.23 276.78 427.08Z" id="arTHWKMUT"></path><path d="M276.78 427.08C280.4 430.8 286.25 430.8 289.86 427.08C291.66 425.23 292.56 422.8 292.57 420.37C288.87 420.37 275.93 420.37 274.08 420.37C274.09 422.8 274.99 425.23 276.78 427.08Z" id="bRbsrYZz"></path><path d="M295.28 427.08C298.89 430.8 304.74 430.8 308.35 427.08C310.15 425.23 311.05 422.8 311.06 420.37C307.36 420.37 294.42 420.37 292.57 420.37C292.58 422.8 293.48 425.23 295.28 427.08Z" id="d8DMPac0b"></path><path d="M295.28 427.08C298.89 430.8 304.74 430.8 308.35 427.08C310.15 425.23 311.05 422.8 311.06 420.37C307.36 420.37 294.42 420.37 292.57 420.37C292.58 422.8 293.48 425.23 295.28 427.08Z" id="aa0B1H8y"></path><path d="M313.77 427.08C317.38 430.8 323.23 430.8 326.83 427.08C328.63 425.23 329.54 422.8 329.54 420.37C325.85 420.37 312.91 420.37 311.06 420.37C311.07 422.8 311.97 425.23 313.77 427.08Z" id="gjPdXKfYp"></path><path d="M313.77 427.08C317.38 430.8 323.23 430.8 326.83 427.08C328.63 425.23 329.54 422.8 329.54 420.37C325.85 420.37 312.91 420.37 311.06 420.37C311.07 422.8 311.97 425.23 313.77 427.08Z" id="a2ChpE8IfH"></path><path d="M332.25 427.08C335.87 430.8 341.72 430.8 345.33 427.08C347.12 425.23 348.03 422.8 348.03 420.37C344.33 420.37 331.39 420.37 329.54 420.37C329.56 422.8 330.45 425.23 332.25 427.08Z" id="d1DcKQesJ"></path><path d="M332.25 427.08C335.87 430.8 341.72 430.8 345.33 427.08C347.12 425.23 348.03 422.8 348.03 420.37C344.33 420.37 331.39 420.37 329.54 420.37C329.56 422.8 330.45 425.23 332.25 427.08Z" id="bBm0TSZ7i"></path><path d="M316.76 133.55C343.53 122.2 359.76 98.81 368.19 82.75C364.37 76.2 360.26 70.31 356 65.05C351.02 76.62 336.65 104.48 309.73 115.89C310.44 117.65 316.05 131.78 316.76 133.55Z" id="azq2XKrB"></path><path d="M316.76 133.55C343.53 122.2 359.76 98.81 368.19 82.75C364.37 76.2 360.26 70.31 356 65.05C351.02 76.62 336.65 104.48 309.73 115.89C310.44 117.65 316.05 131.78 316.76 133.55Z" id="a105NgTxnv"></path><path d="M331.95 42.33C322.15 58.24 289.49 105.78 244.48 115.37C244.85 117.24 247.84 132.19 248.21 134.06C274.23 128.53 300.33 111.54 323.67 84.95C334.15 73.01 341.87 61.71 346.42 54.46C341.61 49.72 336.75 45.69 331.95 42.33Z" id="b3u0ge1CGt"></path><path d="M331.95 42.33C322.15 58.24 289.49 105.78 244.48 115.37C244.85 117.24 247.84 132.19 248.21 134.06C274.23 128.53 300.33 111.54 323.67 84.95C334.15 73.01 341.87 61.71 346.42 54.46C341.61 49.72 336.75 45.69 331.95 42.33Z" id="aZm2wPXTe"></path><path d="M375.78 439.41C360.99 439.41 242.64 439.41 227.85 439.41C227.85 439.41 227.85 439.41 227.85 439.41C225.48 439.41 223.12 440.35 221.31 442.21C217.7 445.94 217.7 452 221.31 455.72C223.12 457.57 225.48 458.51 227.85 458.51C227.85 458.51 227.85 458.51 227.85 458.51C242.64 458.51 360.99 458.51 375.78 458.51C375.78 458.51 375.78 458.51 375.78 458.51C378.15 458.51 380.5 457.59 382.32 455.72C385.92 452 385.92 445.94 382.32 442.21C380.5 440.35 378.15 439.41 375.78 439.41C375.78 439.41 375.78 439.41 375.78 439.41Z" id="i1jQG6hOPI"></path><path d="M375.78 439.41C360.99 439.41 242.64 439.41 227.85 439.41C227.85 439.41 227.85 439.41 227.85 439.41C225.48 439.41 223.12 440.35 221.31 442.21C217.7 445.94 217.7 452 221.31 455.72C223.12 457.57 225.48 458.51 227.85 458.51C227.85 458.51 227.85 458.51 227.85 458.51C242.64 458.51 360.99 458.51 375.78 458.51C375.78 458.51 375.78 458.51 375.78 458.51C378.15 458.51 380.5 457.59 382.32 455.72C385.92 452 385.92 445.94 382.32 442.21C380.5 440.35 378.15 439.41 375.78 439.41C375.78 439.41 375.78 439.41 375.78 439.41Z" id="d1rikZ51AO"></path><path d="M385.01 114.87C379.47 114.87 351.73 114.87 301.81 114.87C251.89 114.87 224.16 114.87 218.61 114.87C218.61 114.87 208.7 125.11 203.39 153.05C242.76 153.05 380.55 153.05 400.24 153.05C394.93 125.11 388.06 122.51 385.01 114.87Z" id="i1dRGscCV4"></path><path d="M385.01 114.87C379.47 114.87 351.73 114.87 301.81 114.87C251.89 114.87 224.16 114.87 218.61 114.87C218.61 114.87 208.7 125.11 203.39 153.05C242.76 153.05 380.55 153.05 400.24 153.05C394.93 125.11 388.06 122.51 385.01 114.87Z" id="j1rRCroM1X"></path><path d="M292.57 219.88C292.57 219.88 292.57 219.88 292.57 219.88C292.57 233.24 292.57 340.14 292.57 353.5C292.57 353.5 292.57 353.5 292.57 353.5C292.57 355.96 293.47 358.4 295.28 360.27C298.89 363.99 304.74 363.99 308.35 360.27C310.15 358.4 311.06 355.96 311.06 353.5C311.06 353.5 311.06 353.5 311.06 353.5C311.06 340.14 311.06 233.24 311.06 219.88C311.06 219.88 311.06 219.88 311.06 219.88C311.06 217.43 310.15 214.99 308.35 213.12C304.74 209.4 298.89 209.4 295.28 213.12C293.47 214.99 292.57 217.43 292.57 219.88Z" id="c2L0x1EwV2"></path><path d="M292.57 219.88C292.57 219.88 292.57 219.88 292.57 219.88C292.57 233.24 292.57 340.14 292.57 353.5C292.57 353.5 292.57 353.5 292.57 353.5C292.57 355.96 293.47 358.4 295.28 360.27C298.89 363.99 304.74 363.99 308.35 360.27C310.15 358.4 311.06 355.96 311.06 353.5C311.06 353.5 311.06 353.5 311.06 353.5C311.06 340.14 311.06 233.24 311.06 219.88C311.06 219.88 311.06 219.88 311.06 219.88C311.06 217.43 310.15 214.99 308.35 213.12C304.74 209.4 298.89 209.4 295.28 213.12C293.47 214.99 292.57 217.43 292.57 219.88Z" id="d85dtn6K7"></path><path d="M338.9 218.53C338.9 218.53 338.89 218.53 338.89 218.53C337.04 231.89 322.25 338.8 320.4 352.16C320.4 352.16 320.41 352.16 320.41 352.16C320.01 355.04 320.87 358.06 323.01 360.27C326.62 363.99 332.48 363.99 336.08 360.27C337.56 358.73 338.41 356.83 338.7 354.86C338.7 354.86 338.7 354.86 338.7 354.86C340.55 341.5 355.35 234.58 357.2 221.22C357.19 221.22 357.18 221.22 357.18 221.22C357.58 218.35 356.71 215.33 354.58 213.12C350.97 209.4 345.12 209.4 341.5 213.12C340.02 214.64 339.17 216.55 338.9 218.53Z" id="f3tomnhxhw"></path><path d="M338.9 218.53C338.9 218.53 338.89 218.53 338.89 218.53C337.04 231.89 322.25 338.8 320.4 352.16C320.4 352.16 320.41 352.16 320.41 352.16C320.01 355.04 320.87 358.06 323.01 360.27C326.62 363.99 332.48 363.99 336.08 360.27C337.56 358.73 338.41 356.83 338.7 354.86C338.7 354.86 338.7 354.86 338.7 354.86C340.55 341.5 355.35 234.58 357.2 221.22C357.19 221.22 357.18 221.22 357.18 221.22C357.58 218.35 356.71 215.33 354.58 213.12C350.97 209.4 345.12 209.4 341.5 213.12C340.02 214.64 339.17 216.55 338.9 218.53Z" id="bb8jdrHRP"></path><path d="M264.73 218.53C264.46 216.55 263.6 214.64 262.12 213.12C258.51 209.4 252.66 209.4 249.05 213.12C246.92 215.33 246.05 218.35 246.45 221.22C246.45 221.22 246.44 221.22 246.43 221.23C248.28 234.59 263.08 341.5 264.93 354.86C264.93 354.86 264.93 354.86 264.93 354.86C265.21 356.83 266.07 358.73 267.54 360.27C271.15 363.99 277.01 363.99 280.62 360.27C282.76 358.06 283.62 355.04 283.22 352.16C283.22 352.16 283.23 352.16 283.23 352.16C283.23 352.16 283.23 352.16 283.23 352.16L264.74 218.52C264.73 218.53 264.73 218.53 264.73 218.53Z" id="c53KC9L52"></path><path d="M264.73 218.53C264.46 216.55 263.6 214.64 262.12 213.12C258.51 209.4 252.66 209.4 249.05 213.12C246.92 215.33 246.05 218.35 246.45 221.22C246.45 221.22 246.44 221.22 246.43 221.23C248.28 234.59 263.08 341.5 264.93 354.86C264.93 354.86 264.93 354.86 264.93 354.86C265.21 356.83 266.07 358.73 267.54 360.27C271.15 363.99 277.01 363.99 280.62 360.27C282.76 358.06 283.62 355.04 283.22 352.16C283.22 352.16 283.23 352.16 283.23 352.16C283.23 352.16 283.23 352.16 283.23 352.16L264.74 218.52C264.73 218.53 264.73 218.53 264.73 218.53Z" id="eVNY5ibdr"></path><path d="M246.37 66.37C246.37 66.32 246.69 60.7 243.4 54.64C238.94 46.43 230.01 40.94 216.86 38.34C211.85 37.35 208.56 32.35 209.52 27.17C210.48 21.99 215.33 18.6 220.34 19.59C233.7 22.23 251.44 29.07 260.22 46.63C265.58 57.37 264.89 66.98 264.79 68.04C262.34 67.8 256.2 67.2 246.38 66.25C246.38 66.32 246.37 66.35 246.37 66.37Z" id="a2Oqg3a54"></path><path d="M246.37 66.37C246.37 66.32 246.69 60.7 243.4 54.64C238.94 46.43 230.01 40.94 216.86 38.34C211.85 37.35 208.56 32.35 209.52 27.17C210.48 21.99 215.33 18.6 220.34 19.59C233.7 22.23 251.44 29.07 260.22 46.63C265.58 57.37 264.89 66.98 264.79 68.04C262.34 67.8 256.2 67.2 246.38 66.25C246.38 66.32 246.37 66.35 246.37 66.37Z" id="a72mKKIj17"></path><path d="M227.85 67.14C227.85 82.96 240.27 95.78 255.59 95.78C270.91 95.78 283.32 82.96 283.32 67.14C283.32 51.33 270.91 38.51 255.59 38.51C240.27 38.51 227.85 51.33 227.85 67.14Z" id="a51QIkLCEo"></path><path d="M227.85 67.14C227.85 82.96 240.27 95.78 255.59 95.78C270.91 95.78 283.32 82.96 283.32 67.14C283.32 51.33 270.91 38.51 255.59 38.51C240.27 38.51 227.85 51.33 227.85 67.14Z" id="f3vjgQveq"></path><path d="M216.55 289.46C218.06 288.78 219.72 289.72 220.28 291.57C223.39 301.97 226.33 313.7 228.79 325.5C229.19 327.4 228.28 329.51 226.7 329.83C224.33 330.31 223.5 328.87 223.17 327.26C220.76 315.7 217.88 304.21 214.83 294.03C214.28 292.18 215.05 290.14 216.55 289.46Z" id="dd6N4TAVr"></path><path d="M188.41 393.28C188.41 392.35 188.72 391.43 189.26 390.77C189.8 390.1 190.55 389.72 191.31 389.72C192.08 389.72 192.82 390.1 193.36 390.77C193.9 391.43 194.21 392.35 194.21 393.28C194.21 394.22 193.9 395.14 193.36 395.81C192.82 396.47 192.08 396.85 191.31 396.85C190.55 396.85 189.8 396.47 189.26 395.81C188.72 395.14 188.41 394.22 188.41 393.28Z" id="dIUOxDlgK"></path><path d="M188.41 393.28C188.41 392.35 188.72 391.43 189.26 390.77C189.8 390.1 190.55 389.72 191.31 389.72C192.08 389.72 192.82 390.1 193.36 390.77C193.9 391.43 194.21 392.35 194.21 393.28C194.21 394.22 193.9 395.14 193.36 395.81C192.82 396.47 192.08 396.85 191.31 396.85C190.55 396.85 189.8 396.47 189.26 395.81C188.72 395.14 188.41 394.22 188.41 393.28Z" id="d2tBmkH8G5"></path><path d="M198.27 377.56C198.27 376.62 198.58 375.7 199.12 375.04C199.66 374.38 200.41 374 201.17 374C201.94 374 202.69 374.38 203.23 375.04C203.76 375.71 204.07 376.62 204.07 377.56C204.07 378.5 203.76 379.42 203.23 380.08C202.69 380.74 201.94 381.12 201.17 381.12C200.41 381.12 199.66 380.74 199.12 380.08C198.58 379.42 198.27 378.5 198.27 377.56Z" id="b2qT9ID8wJ"></path><path d="M198.27 377.56C198.27 376.62 198.58 375.7 199.12 375.04C199.66 374.38 200.41 374 201.17 374C201.94 374 202.69 374.38 203.23 375.04C203.76 375.71 204.07 376.62 204.07 377.56C204.07 378.5 203.76 379.42 203.23 380.08C202.69 380.74 201.94 381.12 201.17 381.12C200.41 381.12 199.66 380.74 199.12 380.08C198.58 379.42 198.27 378.5 198.27 377.56Z" id="c1HA9lqr2C"></path><path d="M211.62 377.56C211.62 376.62 211.93 375.7 212.47 375.04C213.01 374.38 213.75 374 214.52 374C215.28 374 216.03 374.38 216.57 375.04C217.11 375.71 217.42 376.62 217.42 377.56C217.42 378.5 217.11 379.42 216.57 380.08C216.03 380.74 215.28 381.12 214.52 381.12C213.76 381.12 213.01 380.74 212.47 380.08C211.93 379.42 211.62 378.5 211.62 377.56Z" id="dyWgMtbxn"></path><path d="M211.62 377.56C211.62 376.62 211.93 375.7 212.47 375.04C213.01 374.38 213.75 374 214.52 374C215.28 374 216.03 374.38 216.57 375.04C217.11 375.71 217.42 376.62 217.42 377.56C217.42 378.5 217.11 379.42 216.57 380.08C216.03 380.74 215.28 381.12 214.52 381.12C213.76 381.12 213.01 380.74 212.47 380.08C211.93 379.42 211.62 378.5 211.62 377.56Z" id="b5CgUpbJI"></path><path d="M185.51 370.44C185.51 369.5 185.82 368.58 186.36 367.92C186.9 367.26 187.65 366.88 188.41 366.88C189.17 366.88 189.92 367.26 190.46 367.92C191 368.59 191.31 369.5 191.31 370.44C191.31 371.38 191 372.29 190.46 372.96C189.92 373.62 189.17 374 188.41 374C187.65 374 186.9 373.62 186.36 372.96C185.82 372.29 185.51 371.38 185.51 370.44Z" id="c7bdECMKI"></path><path d="M185.51 370.44C185.51 369.5 185.82 368.58 186.36 367.92C186.9 367.26 187.65 366.88 188.41 366.88C189.17 366.88 189.92 367.26 190.46 367.92C191 368.59 191.31 369.5 191.31 370.44C191.31 371.38 191 372.29 190.46 372.96C189.92 373.62 189.17 374 188.41 374C187.65 374 186.9 373.62 186.36 372.96C185.82 372.29 185.51 371.38 185.51 370.44Z" id="eJTpXojN4"></path><path d="M202.65 356.12C202.65 355.19 202.96 354.26 203.5 353.6C204.04 352.94 204.78 352.56 205.55 352.56C206.31 352.56 207.06 352.94 207.6 353.6C208.14 354.27 208.45 355.18 208.45 356.12C208.45 357.06 208.14 357.98 207.6 358.64C207.06 359.3 206.31 359.68 205.55 359.68C204.78 359.68 204.04 359.3 203.5 358.64C202.96 357.98 202.65 357.06 202.65 356.12Z" id="a34enUywI2"></path><path d="M202.65 356.12C202.65 355.19 202.96 354.26 203.5 353.6C204.04 352.94 204.78 352.56 205.55 352.56C206.31 352.56 207.06 352.94 207.6 353.6C208.14 354.27 208.45 355.18 208.45 356.12C208.45 357.06 208.14 357.98 207.6 358.64C207.06 359.3 206.31 359.68 205.55 359.68C204.78 359.68 204.04 359.3 203.5 358.64C202.96 357.98 202.65 357.06 202.65 356.12Z" id="a2nDOI3R5M"></path><path d="M204.07 396.85C204.07 395.91 204.38 394.99 204.92 394.33C205.47 393.66 206.21 393.28 206.97 393.28C207.74 393.28 208.49 393.66 209.03 394.33C209.57 394.99 209.88 395.91 209.88 396.85C209.88 397.79 209.57 398.7 209.03 399.37C208.49 400.03 207.74 400.41 206.97 400.41C206.21 400.41 205.47 400.03 204.92 399.37C204.38 398.7 204.07 397.79 204.07 396.85Z" id="cYIkIeGjz"></path><path d="M204.07 396.85C204.07 395.91 204.38 394.99 204.92 394.33C205.47 393.66 206.21 393.28 206.97 393.28C207.74 393.28 208.49 393.66 209.03 394.33C209.57 394.99 209.88 395.91 209.88 396.85C209.88 397.79 209.57 398.7 209.03 399.37C208.49 400.03 207.74 400.41 206.97 400.41C206.21 400.41 205.47 400.03 204.92 399.37C204.38 398.7 204.07 397.79 204.07 396.85Z" id="a2Hb6AcAed"></path><path d="M201.17 330.8C201.17 329.87 201.48 328.95 202.02 328.29C202.56 327.62 203.31 327.24 204.07 327.24C204.84 327.24 205.59 327.62 206.13 328.29C206.67 328.95 206.97 329.87 206.97 330.8C206.97 331.74 206.66 332.66 206.13 333.32C205.59 333.98 204.84 334.36 204.07 334.36C203.31 334.36 202.57 333.98 202.02 333.32C201.48 332.66 201.17 331.74 201.17 330.8Z" id="a27STYKb05"></path><path d="M201.17 330.8C201.17 329.87 201.48 328.95 202.02 328.29C202.56 327.62 203.31 327.24 204.07 327.24C204.84 327.24 205.59 327.62 206.13 328.29C206.67 328.95 206.97 329.87 206.97 330.8C206.97 331.74 206.66 332.66 206.13 333.32C205.59 333.98 204.84 334.36 204.07 334.36C203.31 334.36 202.57 333.98 202.02 333.32C201.48 332.66 201.17 331.74 201.17 330.8Z" id="enqBL4mZM"></path><path d="M191.31 347.24C191.31 346.31 191.62 345.38 192.16 344.72C192.7 344.06 193.45 343.68 194.21 343.68C194.98 343.68 195.72 344.06 196.26 344.72C196.8 345.39 197.11 346.31 197.11 347.24C197.11 348.18 196.8 349.1 196.26 349.76C195.72 350.42 194.98 350.8 194.21 350.8C193.45 350.8 192.7 350.42 192.16 349.76C191.62 349.1 191.31 348.18 191.31 347.24Z" id="c6aTMhNN3j"></path><path d="M191.31 347.24C191.31 346.31 191.62 345.38 192.16 344.72C192.7 344.06 193.45 343.68 194.21 343.68C194.98 343.68 195.72 344.06 196.26 344.72C196.8 345.39 197.11 346.31 197.11 347.24C197.11 348.18 196.8 349.1 196.26 349.76C195.72 350.42 194.98 350.8 194.21 350.8C193.45 350.8 192.7 350.42 192.16 349.76C191.62 349.1 191.31 348.18 191.31 347.24Z" id="a116Mjzg6j"></path><path d="M225.04 194.6L191.7 215L158.36 194.6L182.56 294.93L191.7 262.97L200.84 294.93L225.04 194.6" id="d1tc3HFY1A"></path><path d="M192.03 189.28L206.91 244.93L177.16 244.93L192.03 189.28Z" id="bmdT2xXZc"></path><path d="M225.84 220.17L191.7 240.24L157.56 220.17L181.06 313.75L191.7 277.98L202.34 313.75L225.84 220.17" id="csjhLhVrA"></path><path d="M192.03 235.55L206.91 265.07L177.16 265.07L192.03 235.55Z" id="a20PaQrtD"></path><path d="M233.4 246.47L191.7 261.84L150 246.47L178.7 318.13L191.7 290.74L204.7 318.13L233.4 246.47" id="cak9A0Fgo"></path><path d="M242.07 275.54L191.7 283.3L141.33 275.54L174.69 310.35L191.7 295.37L208.71 310.35L242.07 275.54" id="a5hFxQsKYD"></path><path d="M192.03 259.85L206.91 289.36L177.16 289.36L192.03 259.85Z" id="a7biAFyoOU"></path><path d="M256.41 360.85C256.41 385.42 256.41 399.07 256.41 401.8C256.41 435.16 232.28 462.77 200.9 467.33C197.95 467.77 194.93 467.99 191.86 468C191.85 468 191.72 468 191.7 468C188.47 468 185.3 467.76 182.19 467.28C174.34 466.11 166.94 463.48 160.28 459.68C158.08 458.43 155.96 457.06 153.93 455.56C148.28 451.4 143.31 446.32 139.23 440.55C137.75 438.47 136.4 436.31 135.18 434.06C131.45 427.23 128.87 419.67 127.7 411.63C127.22 408.42 126.98 405.14 126.98 401.8C126.98 397.7 126.98 364.95 126.98 360.85C126.98 324.35 155.87 294.74 191.54 294.65C191.55 294.65 191.68 294.65 191.7 294.65C194.83 294.65 197.9 294.88 200.91 295.33C201.01 295.34 201.11 295.36 201.21 295.37C209.06 296.54 216.46 299.17 223.12 302.97C225.32 304.22 227.44 305.59 229.47 307.09C232.31 309.18 234.98 311.51 237.46 314.04C239.9 316.54 242.15 319.23 244.17 322.11C245.65 324.18 246.99 326.35 248.21 328.59C251.95 335.42 254.53 342.98 255.7 351.03C256.17 354.23 256.41 357.52 256.41 360.85" id="achNfMdZh"></path><path d="M201.21 295.37L126.99 371.61L126.99 360.96L191.54 294.65C191.64 294.65 191.69 294.65 191.7 294.65C194.93 294.65 198.1 294.89 201.21 295.37" id="b5zd0leQO"></path><path d="M229.47 307.09C168.41 369.81 134.48 404.66 127.7 411.63C127.23 408.42 126.99 405.14 126.99 401.8C126.99 401.79 126.99 401.77 126.99 401.73C184.67 342.47 216.71 309.55 223.12 302.97C225.32 304.22 227.44 305.59 229.47 307.09" id="akdFcelUz"></path><path d="M248.21 328.59C182.82 395.76 146.49 433.08 139.23 440.54C137.75 438.47 136.41 436.31 135.19 434.06C146.08 422.87 233.27 333.3 244.17 322.11C245.65 324.18 246.99 326.35 248.21 328.59" id="d48NvysPF"></path><path d="M256.41 360.85L256.41 360.93C198.73 420.18 166.69 453.1 160.28 459.68C158.08 458.43 155.96 457.06 153.93 455.56C164.11 445.11 245.52 361.48 255.7 351.02C256.17 354.23 256.41 357.51 256.41 360.85" id="a1mCVF7Zej"></path><path d="M256.41 391.04L256.41 401.69L191.86 468C191.76 468 191.71 468 191.7 468C188.47 468 185.3 467.76 182.19 467.28C187.14 462.2 211.88 436.79 256.41 391.04" id="aa3c4fSeY"></path><path d="M182.19 295.37L256.41 371.61L256.41 360.96L191.86 294.65C191.76 294.65 191.71 294.65 191.7 294.65C188.47 294.65 185.3 294.89 182.19 295.37" id="aTdXgg4y3"></path><path d="M153.93 307.09C214.99 369.81 248.91 404.66 255.7 411.63C256.17 408.42 256.41 405.14 256.41 401.8C256.41 401.79 256.41 401.77 256.41 401.73C198.73 342.47 166.69 309.55 160.28 302.97C158.08 304.22 155.96 305.59 153.93 307.09" id="b2qk8zeTpr"></path><path d="M135.19 328.59C200.58 395.76 236.91 433.08 244.17 440.54C245.65 438.47 246.99 436.31 248.21 434.06C237.32 422.87 150.13 333.3 139.23 322.11C137.75 324.18 136.41 326.35 135.19 328.59" id="a1y1zCLPbl"></path><path d="M126.99 360.85L126.99 360.93C184.67 420.18 216.71 453.1 223.12 459.68C225.32 458.43 227.44 457.06 229.47 455.56C219.29 445.11 137.88 361.48 127.7 351.02C127.23 354.23 126.99 357.51 126.99 360.85" id="d6KdTjVNOf"></path><path d="M126.99 391.04L126.99 401.69L191.54 468C191.64 468 191.69 468 191.7 468C194.93 468 198.1 467.76 201.21 467.28C196.26 462.2 171.52 436.79 126.99 391.04" id="aKoB0PIz"></path><path d="M245.95 437.9L245.96 437.9L245.96 437.9L245.95 437.9Z" id="e12v7vYdB"></path><path d="M184.81 295.02L184.18 295.1L183.62 295.16L182.92 295.26L182.44 295.33L181.26 295.51L182.39 295.33L182.44 295.33L182.5 295.32L182.92 295.26L183.52 295.18L183.62 295.16L183.74 295.15L184.18 295.1L184.65 295.04L184.81 295.02L185 295L185.4 294.96L185.79 294.92L185.91 294.91L186.02 294.9L186.14 294.89L186.25 294.88L185.4 294.96L184.81 295.02Z" id="d1v2E8Sk97"></path><path d="M244.79 402.98L244.8 402.69L244.8 402.39L244.8 402.09L244.8 401.8L244.8 400.44L246.04 401.7L244.79 402.98Z" id="a6yzEL5jX"></path><path d="M137.36 360.95L132.18 355.63L146.84 340.56L152.02 345.89L137.36 360.95Z" id="a8yZzIGBZ"></path><path d="M152.02 376.01L157.01 370.89L157.01 381.13L152.02 376.01Z" id="otBE0ZgWF"></path><path d="M244.17 322.11C239.9 326.49 237.53 328.93 237.05 329.42C238.29 331.76 239.39 334.18 240.35 336.67C241.13 335.86 247.43 329.4 248.21 328.59C246.99 326.35 245.65 324.18 244.17 322.11" id="d3I96AYjgO"></path><path d="M244.8 372.85L244.8 362.22L246.04 360.95L251.21 366.27L244.8 372.85Z" id="a5inWTu03"></path><path d="M243.53 414.93L243.63 414.38L243.73 413.83L243.83 413.28L243.92 412.73L244.01 412.18L244.09 411.63L244.28 410.21L244.45 408.78L244.58 407.34L244.68 405.9L244.75 404.44L244.79 402.98L246.04 401.7L251.22 407.03L243.53 414.93Z" id="d3g0ml6v6U"></path><path d="M256.4 360.94L256.41 360.96L256.41 371.61L251.21 366.27L246.04 360.95L244.79 359.67L244.76 358.56L244.72 357.45L244.66 356.35L244.57 355.25L244.48 354.16L244.36 353.08L244.23 352L244.08 350.92L243.91 349.85L243.73 348.79L243.53 347.73L251.22 355.62L256.4 360.94Z" id="c1BsL5mR14"></path><path d="M256.4 401.71L256.41 401.73L256.41 401.8L256.41 402.8L256.38 403.8L256.35 404.79L256.3 405.78L256.23 406.76L256.16 407.74L256.06 408.72L255.96 409.69L255.83 410.66L255.7 411.63L251.22 407.03L246.04 401.7L244.8 400.44L244.8 389.8L251.21 396.38L256.4 401.71Z" id="h2hXsBkoe"></path><path d="M160.51 423.33L161.12 425.07L161.78 426.79L157.2 422.08L159.43 419.79L159.95 421.57L160.51 423.33Z" id="e3sowam1L"></path><path d="M127 360.94L126.99 360.96L126.99 371.61L132.18 366.27L127 360.94" id="a2fUFEulfR"></path><path d="M146.84 381.33L132.18 396.38L137.36 401.7L152.02 386.64L146.84 381.33" id="cPnYdcatE"></path><path d="M157.63 411L152.02 416.76L157.2 422.08C158.54 420.71 159.28 419.94 159.43 419.79C158.7 417.13 158.13 414.41 157.72 411.63C157.69 411.42 157.66 411.21 157.63 411" id="d2272g9SOF"></path><path d="M201.38 467.26L201.3 467.27L201 467.32L200.71 467.36L200.41 467.4L200.46 467.39L200.51 467.39L200.57 467.38L200.62 467.37L200.63 467.37L200.7 467.36L200.83 467.34L200.9 467.33L201.07 467.3L201.25 467.28L201.38 467.26L201.59 467.23L201.42 467.25L201.38 467.26Z" id="aOIgQstE"></path><path d="M247.68 435.02L247.14 435.97L246.57 436.9L246 437.83L245.4 438.74L244.79 439.65L244.17 440.54L237.05 433.23L237.57 432.22L238.08 431.21L238.57 430.18L239.04 429.14L239.49 428.1L239.93 427.04L240.35 425.98L248.21 434.06L247.68 435.02Z" id="ej1P0O8Gb"></path><path d="M229.17 455.78L228.87 455.99L228.58 456.21L228.28 456.42L227.98 456.63L227.72 456.81L227.46 456.98L227.2 457.16L226.95 457.33L226.69 457.5L226.66 457.51L226.64 457.53L226.62 457.54L226.6 457.56L226.56 457.58L226.56 457.58L226.55 457.59L225.87 458.03L225.19 458.45L224.51 458.87L223.82 459.28L223.12 459.68L218.58 455.02L219.76 454.1L220.91 453.17L222.04 452.2L223.16 451.21L224.24 450.19L229.47 455.56L229.17 455.78Z" id="d1b0KeqUut"></path><path d="M164.86 462.05L167.23 463.1L169.65 464.06L172.11 464.91L174.62 465.67L177.17 466.32L174.62 465.67L172.11 464.91L169.65 464.06L167.23 463.1L164.86 462.05L162.54 460.91L160.28 459.68L160.28 459.68L162.54 460.91L164.86 462.05Z" id="d2I0oSbIDb"></path><path d="M182.19 467.28L181.8 467.22L181.41 467.16L181.02 467.1L180.63 467.03L180.24 466.96L179.86 466.89L179.47 466.81L179.08 466.74L178.7 466.66L178.31 466.58L177.93 466.5L177.55 466.41L177.17 466.32L175.79 465.98L174.42 465.61L173.07 465.21L171.73 464.79L170.4 464.33L169.09 463.85L167.78 463.33L166.5 462.79L165.22 462.22L163.96 461.63L162.72 461L161.49 460.36L160.28 459.68L171.86 447.78L186.52 462.84L182.19 467.28Z" id="a3Q7H7zB7"></path><path d="M127 401.71L126.99 401.73C126.99 401.77 126.99 401.79 126.99 401.8C126.99 405.14 127.23 408.42 127.7 411.63C127.7 411.63 127.7 411.63 127.7 411.63L132.18 407.03L127 401.71" id="c11DBloX4J"></path><path d="M146.84 422.09C139.85 429.27 135.96 433.26 135.19 434.06C136.41 436.31 137.75 438.47 139.23 440.54C139.23 440.54 139.23 440.54 139.23 440.54L152.02 427.4L146.84 422.09" id="bqEJ6xS07"></path><path d="M166.68 442.46C159.03 450.32 154.78 454.69 153.93 455.56C155.96 457.06 158.08 458.43 160.28 459.68C160.28 459.68 160.28 459.68 160.28 459.68L171.86 447.78L166.68 442.46" id="b28HDKl0U"></path><path d="M186.52 462.84C183.92 465.51 182.48 466.99 182.19 467.28C185.24 467.75 188.37 467.99 191.54 468C191.2 467.66 189.53 465.94 186.52 462.84" id="f5hDdVLLpo"></path><path d="M192.27 468L192.06 468L191.86 468L192.06 468L192.27 468L192.47 468L192.67 467.99L192.47 468L192.27 468Z" id="a2HPzKnL7I"></path><path d="M191.86 468C191.81 468 191.75 468 191.7 468C191.71 468 191.76 468 191.86 468L191.86 468" id="exHLkwhbP"></path><path d="M126.99 391.04L126.99 401.69L127 401.71L132.18 407.03L146.84 422.09L152.02 427.41L166.68 442.47L171.86 447.78L186.52 462.84C189.53 465.94 191.2 467.66 191.54 468C191.59 468 191.65 468 191.7 468C191.7 468 191.7 468 191.7 468C191.75 468 191.81 468 191.86 468C192.13 468 192.4 468 192.67 467.99C192.72 467.99 192.76 467.99 192.81 467.99C192.81 467.99 192.81 467.99 192.81 467.99C195.38 467.95 197.92 467.75 200.41 467.4C200.48 467.39 200.55 467.38 200.62 467.37C200.62 467.37 200.62 467.37 200.62 467.37C200.62 467.37 200.63 467.37 200.63 467.37C200.82 467.34 201.01 467.31 201.2 467.28C200.79 466.86 197.46 463.44 197.05 463.01C194.72 462.03 192.47 460.92 190.3 459.68C188.1 458.43 185.98 457.06 183.95 455.56C178.29 451.4 173.32 446.32 169.25 440.54C167.77 438.47 166.43 436.31 165.2 434.06C163.92 431.72 162.78 429.29 161.78 426.79C161.47 426.47 159.95 424.9 157.2 422.08L152.02 416.77L137.36 401.7L132.18 396.39L126.99 391.04" id="a3YdMKFOYi"></path><path d="M351.37 380.45C329.71 382.22 325.85 397.7 321.4 407.53C326.44 406.09 351.6 398.85 396.9 385.84C377.6 381.35 362.42 379.55 351.37 380.45Z" id="avdNumzd5"></path><path d="M321.4 407.53C366.7 394.52 391.86 387.28 396.9 385.84C383.38 384.59 367.95 379.1 351.37 380.45" id="cRtcgWoap"></path><path d="M321.4 407.53C366.7 394.52 391.86 387.28 396.9 385.84C383.38 384.59 360.67 388.72 344.41 389.97" id="b1EtVzyjW"></path><path d="M361.18 414.58C341.88 424.57 330.39 413.5 321.4 407.53C326.44 406.09 351.6 398.85 396.9 385.84C382.93 399.89 371.02 409.47 361.18 414.58Z" id="b50HneizLk"></path><path d="M321.4 407.53C366.7 394.52 391.86 387.28 396.9 385.84C386.1 394.07 375.94 406.91 361.18 414.58" id="anoErToMW"></path><path d="M321.4 407.53C366.7 394.52 391.86 387.28 396.9 385.84C386.1 394.07 364.67 402.63 350.22 410.2" id="a3SyGCo6vM"></path><path d="M389.22 388.04L389.22 388.04L389.22 388.04L389.22 388.04L389.22 388.04" id="bkmC9L9JW"></path><path d="M197.48 441.44C216.83 435.88 371.65 391.38 391 385.82C391.96 385.54 392.79 385.99 393.06 386.94C393.33 387.89 392.87 388.7 391.91 388.98C372.56 394.54 217.74 439.04 198.38 444.6C197.74 444.78 196.6 444.43 196.33 443.48C196.06 442.53 196.52 441.71 197.48 441.44Z" id="aY8PE32vC"></path><path d="M280.59 367.95C267.14 383.79 275.06 396.9 278.84 406.42C281.27 402.05 293.46 380.19 315.4 340.84C299.09 350.77 287.49 359.81 280.59 367.95Z" id="dzT27S67j"></path><path d="M278.75 406.11C300.74 366.95 312.95 345.19 315.4 340.84C305.24 348.89 290.93 355.74 280.59 367.95" id="g3Ue9KieWo"></path><path d="M278.75 406.11C300.74 366.95 312.95 345.19 315.4 340.84C305.24 348.89 292.74 366.85 282.4 379.06" id="b1ChiNeUuM"></path><path d="M310.57 384.3C304.1 403.95 288.61 404.3 278.43 406.2C280.89 401.84 293.21 380.06 315.4 340.84C315.52 359.73 313.91 374.22 310.57 384.3Z" id="b4z1bdDZi"></path><path d="M278.75 406.11C300.74 366.95 312.95 345.19 315.4 340.84C313.87 353.59 315.58 369.18 310.57 384.3" id="kmec3vQvH"></path><path d="M278.75 406.11C300.74 366.95 312.95 345.19 315.4 340.84C313.87 353.59 305.06 373.57 300.06 388.69" id="a5UUV9tHyq"></path><path d="M226.74 395.05C216.08 407.36 222.23 417.9 225.36 425.21C227.29 421.79 236.91 404.65 254.23 373.81C241.45 381.59 232.29 388.67 226.74 395.05Z" id="eTsU3ELXa"></path><path d="M225.36 425.21C242.68 394.37 252.3 377.24 254.23 373.81C246.36 380.18 235.07 385.48 226.74 395.05" id="a8WrU64qR"></path><path d="M225.36 425.21C242.68 394.37 252.3 377.24 254.23 373.81C246.36 380.18 236.24 394.38 228.23 403.86" id="d2HFi9oCa9"></path><path d="M250.56 408.05C245.65 423.49 233.31 423.95 225.36 425.21C227.29 421.79 236.91 404.65 254.23 373.81C254.32 388.61 253.1 400.02 250.56 408.05Z" id="e1MvMM2Ipy"></path><path d="M225.27 424.9C242.65 394.25 252.3 377.22 254.23 373.81C252.93 383.76 254.37 396.01 250.56 408.05" id="fSFSc8irB"></path><path d="M225.27 424.9C242.65 394.25 252.3 377.22 254.23 373.81C252.93 383.76 246.1 399.75 242.2 411.48" id="d2YBWT9heB"></path><path d="M217.31 435.74C220.2 430.63 243.37 389.76 246.26 384.65C246.72 383.84 247.68 383.56 248.5 384.01C249.32 384.46 249.59 385.41 249.14 386.22C246.27 391.32 223.37 432.12 220.5 437.22C220.04 438.03 219.08 438.31 218.26 437.86C217.62 438.04 217.44 437.41 217.35 437.09C217.26 436.78 217.08 436.15 217.31 435.74Z" id="a3UBjBnZz"></path><path d="M268.26 421.44C271.18 416.29 294.52 375.09 297.44 369.95C297.9 369.13 298.86 368.85 299.68 369.3C300.5 369.75 300.78 370.7 300.32 371.51C297.43 376.65 274.34 417.77 271.45 422.91C271 423.73 270.04 424.01 269.22 423.56C268.8 423.33 268.39 423.11 268.3 422.79C268.21 422.48 268.03 421.85 268.26 421.44Z" id="ap4K3838s"></path><path d="M323.19 458.34C303.38 452.06 303.13 436.73 301.27 426.66C305.66 429.07 327.6 441.13 367.08 462.83C347.98 463.07 333.36 461.57 323.19 458.34Z" id="b1LGoFVz96"></path><path d="M301.37 426.98C340.79 448.49 362.7 460.44 367.08 462.83C354.2 461.4 338.44 463.19 323.19 458.34" id="i6ShQMk9Wi"></path><path d="M301.37 426.98C340.79 448.49 362.7 460.44 367.08 462.83C354.2 461.4 334.07 452.81 318.82 447.96" id="a1xUQkSlGN"></path><path d="M339.91 428.56C323.99 415.34 310.69 423.27 301.05 427.07C305.45 429.45 327.46 441.37 367.08 462.83C357.15 446.75 348.09 435.33 339.91 428.56Z" id="c1oCR07yhm"></path><path d="M301.37 426.98C340.79 448.49 362.7 460.44 367.08 462.83C359.01 452.83 352.18 438.71 339.91 428.56" id="a2RgXN00uk"></path><path d="M301.37 426.98C340.79 448.49 362.7 460.44 367.08 462.83C359.01 452.83 340.94 440.58 328.67 430.42" id="b4TyC4c3O2"></path><path d="M263.16 463.96C247.6 459.19 247.21 446.99 245.99 439.13C249.44 441.01 266.69 450.42 297.73 467.36C282.78 467.55 271.26 466.42 263.16 463.96Z" id="cQP6RulwR"></path><path d="M245.99 439.13C277.04 456.07 294.28 465.48 297.73 467.36C287.69 466.14 275.31 467.65 263.16 463.96" id="d2sPXFZK1R"></path><path d="M245.99 439.13C277.04 456.07 294.28 465.48 297.73 467.36C287.69 466.14 271.58 459.48 259.75 455.7" id="d1pJKEnlf"></path><path d="M276.45 440.29C264.09 429.82 253.39 435.97 245.99 439.13C249.44 441.01 266.69 450.42 297.73 467.36C289.96 454.77 282.87 445.75 276.45 440.29Z" id="a1zbp4bKa0"></path><path d="M246.08 439.44C277.13 456.38 294.38 465.8 297.83 467.68C291.44 459.93 286.16 448.79 276.54 440.61" id="b1ws5BX7O6"></path><path d="M246.08 439.44C277.13 456.38 294.38 465.8 297.83 467.68C291.44 459.93 277.16 450.01 267.63 442.14" id="c3sZTn8HSh"></path><path d="M232.93 432.27C233.39 431.46 234.35 431.18 235.17 431.63C240.31 434.43 281.38 456.84 286.51 459.64C287.33 460.09 287.61 461.04 287.15 461.85C286.69 462.67 285.73 462.94 284.91 462.5C279.77 459.69 238.7 437.29 233.57 434.49C233.16 434.26 233.07 433.95 232.98 433.63C232.89 433.31 232.71 432.68 232.93 432.27Z" id="e6re7gPac"></path><path d="M284.44 417.47C284.89 416.66 285.85 416.38 286.67 416.83C291.81 419.63 332.88 442.04 338.01 444.84C338.83 445.29 339.11 446.24 338.65 447.05C338.19 447.87 337.23 448.14 336.41 447.69C331.28 444.89 290.21 422.49 285.07 419.69C284.66 419.46 284.57 419.15 284.48 418.83C284.39 418.51 284.21 417.88 284.44 417.47Z" id="e1IAWgPeSs"></path></defs><g><g><g><use xlink:href="#eG39zrlQm" opacity="1" fill="#f8933d" fill-opacity="1"></use><g><use xlink:href="#eG39zrlQm" opacity="1" fill-opacity="0" stroke="#000000" stroke-width="1" stroke-opacity="0"></use></g></g><g><use xlink:href="#azQwAbNB5" opacity="1" fill="#000000" fill-opacity="0"></use><g><use xlink:href="#azQwAbNB5" opacity="1" fill-opacity="0" stroke="#000000" stroke-width="1" stroke-opacity="0"></use></g></g><g><use xlink:href="#e8Kd0t3mM" opacity="1" fill="#ff6243" fill-opacity="1"></use><g><use xlink:href="#e8Kd0t3mM" opacity="1" fill-opacity="0" stroke="#000000" stroke-width="1" stroke-opacity="0"></use></g></g><g><use xlink:href="#fhzMqbwhg" opacity="1" fill="#000000" fill-opacity="0"></use><g><use xlink:href="#fhzMqbwhg" opacity="1" fill-opacity="0" stroke="#000000" stroke-width="1" stroke-opacity="0"></use></g></g><g><use xlink:href="#cPnORdfoo" opacity="1" fill="#ed5564" fill-opacity="1"></use><g><use xlink:href="#cPnORdfoo" opacity="1" fill-opacity="0" stroke="#000000" stroke-width="1" stroke-opacity="0"></use></g></g><g><use xlink:href="#hryMbQrJo" opacity="1" fill="#000000" fill-opacity="0"></use><g><use xlink:href="#hryMbQrJo" opacity="1" fill-opacity="0" stroke="#000000" stroke-width="1" stroke-opacity="0"></use></g></g><g><use xlink:href="#dUY5s92uC" opacity="1" fill="#e6e9ed" fill-opacity="1"></use><g><use xlink:href="#dUY5s92uC" opacity="1" fill-opacity="0" stroke="#000000" stroke-width="1" stroke-opacity="0"></use></g></g><g><use xlink:href="#a1bcjNOcOk" opacity="1" fill="#000000" fill-opacity="0"></use><g><use xlink:href="#a1bcjNOcOk" opacity="1" fill-opacity="0" stroke="#000000" stroke-width="1" stroke-opacity="0"></use></g></g><g><use xlink:href="#cWKBQMkiv" opacity="1" fill="#ccd1d9" fill-opacity="1"></use><g><use xlink:href="#cWKBQMkiv" opacity="1" fill-opacity="0" stroke="#000000" stroke-width="1" stroke-opacity="0"></use></g></g><g><use xlink:href="#cw4XCwfiN" opacity="1" fill="#000000" fill-opacity="0"></use><g><use xlink:href="#cw4XCwfiN" opacity="1" fill-opacity="0" stroke="#000000" stroke-width="1" stroke-opacity="0"></use></g></g><g><use xlink:href="#can6ZnD0t" opacity="1" fill="#7bc2d4" fill-opacity="1"></use><g><use xlink:href="#can6ZnD0t" opacity="1" fill-opacity="0" stroke="#000000" stroke-width="1" stroke-opacity="0"></use></g></g><g><use xlink:href="#a854vOZrpz" opacity="1" fill="#000000" fill-opacity="0"></use><g><use xlink:href="#a854vOZrpz" opacity="1" fill-opacity="0" stroke="#000000" stroke-width="1" stroke-opacity="0"></use></g></g><g><use xlink:href="#i1sJL49tjo" opacity="1" fill="#5697ee" fill-opacity="1"></use><g><use xlink:href="#i1sJL49tjo" opacity="1" fill-opacity="0" stroke="#000000" stroke-width="1" stroke-opacity="0"></use></g></g><g><use xlink:href="#a1okK8LtF8" opacity="1" fill="#000000" fill-opacity="0"></use><g><use xlink:href="#a1okK8LtF8" opacity="1" fill-opacity="0" stroke="#000000" stroke-width="1" stroke-opacity="0"></use></g></g><g><use xlink:href="#arTHWKMUT" opacity="1" fill="#5697ee" fill-opacity="1"></use><g><use xlink:href="#arTHWKMUT" opacity="1" fill-opacity="0" stroke="#000000" stroke-width="1" stroke-opacity="0"></use></g></g><g><use xlink:href="#bRbsrYZz" opacity="1" fill="#000000" fill-opacity="0"></use><g><use xlink:href="#bRbsrYZz" opacity="1" fill-opacity="0" stroke="#000000" stroke-width="1" stroke-opacity="0"></use></g></g><g><use xlink:href="#d8DMPac0b" opacity="1" fill="#5697ee" fill-opacity="1"></use><g><use xlink:href="#d8DMPac0b" opacity="1" fill-opacity="0" stroke="#000000" stroke-width="1" stroke-opacity="0"></use></g></g><g><use xlink:href="#aa0B1H8y" opacity="1" fill="#000000" fill-opacity="0"></use><g><use xlink:href="#aa0B1H8y" opacity="1" fill-opacity="0" stroke="#000000" stroke-width="1" stroke-opacity="0"></use></g></g><g><use xlink:href="#gjPdXKfYp" opacity="1" fill="#5697ee" fill-opacity="1"></use><g><use xlink:href="#gjPdXKfYp" opacity="1" fill-opacity="0" stroke="#000000" stroke-width="1" stroke-opacity="0"></use></g></g><g><use xlink:href="#a2ChpE8IfH" opacity="1" fill="#000000" fill-opacity="0"></use><g><use xlink:href="#a2ChpE8IfH" opacity="1" fill-opacity="0" stroke="#000000" stroke-width="1" stroke-opacity="0"></use></g></g><g><use xlink:href="#d1DcKQesJ" opacity="1" fill="#5697ee" fill-opacity="1"></use><g><use xlink:href="#d1DcKQesJ" opacity="1" fill-opacity="0" stroke="#000000" stroke-width="1" stroke-opacity="0"></use></g></g><g><use xlink:href="#bBm0TSZ7i" opacity="1" fill="#000000" fill-opacity="0"></use><g><use xlink:href="#bBm0TSZ7i" opacity="1" fill-opacity="0" stroke="#000000" stroke-width="1" stroke-opacity="0"></use></g></g><g><use xlink:href="#azq2XKrB" opacity="1" fill="#f5f7fa" fill-opacity="1"></use><g><use xlink:href="#azq2XKrB" opacity="1" fill-opacity="0" stroke="#000000" stroke-width="1" stroke-opacity="0"></use></g></g><g><use xlink:href="#a105NgTxnv" opacity="1" fill="#000000" fill-opacity="0"></use><g><use xlink:href="#a105NgTxnv" opacity="1" fill-opacity="0" stroke="#000000" stroke-width="1" stroke-opacity="0"></use></g></g><g><use xlink:href="#b3u0ge1CGt" opacity="1" fill="#f5f7fa" fill-opacity="1"></use><g><use xlink:href="#b3u0ge1CGt" opacity="1" fill-opacity="0" stroke="#000000" stroke-width="1" stroke-opacity="0"></use></g></g><g><use xlink:href="#aZm2wPXTe" opacity="1" fill="#000000" fill-opacity="0"></use><g><use xlink:href="#aZm2wPXTe" opacity="1" fill-opacity="0" stroke="#000000" stroke-width="1" stroke-opacity="0"></use></g></g><g><use xlink:href="#i1jQG6hOPI" opacity="1" fill="#e6e9ed" fill-opacity="1"></use><g><use xlink:href="#i1jQG6hOPI" opacity="1" fill-opacity="0" stroke="#000000" stroke-width="1" stroke-opacity="0"></use></g></g><g><use xlink:href="#d1rikZ51AO" opacity="1" fill="#000000" fill-opacity="0"></use><g><use xlink:href="#d1rikZ51AO" opacity="1" fill-opacity="0" stroke="#000000" stroke-width="1" stroke-opacity="0"></use></g></g><g><use xlink:href="#i1dRGscCV4" opacity="1" fill="#5697ee" fill-opacity="1"></use><g><use xlink:href="#i1dRGscCV4" opacity="1" fill-opacity="0" stroke="#000000" stroke-width="1" stroke-opacity="0"></use></g></g><g><use xlink:href="#j1rRCroM1X" opacity="1" fill="#000000" fill-opacity="0"></use><g><use xlink:href="#j1rRCroM1X" opacity="1" fill-opacity="0" stroke="#000000" stroke-width="1" stroke-opacity="0"></use></g></g><g><use xlink:href="#c2L0x1EwV2" opacity="1" fill="#5697ee" fill-opacity="1"></use><g><use xlink:href="#c2L0x1EwV2" opacity="1" fill-opacity="0" stroke="#000000" stroke-width="1" stroke-opacity="0"></use></g></g><g><use xlink:href="#d85dtn6K7" opacity="1" fill="#000000" fill-opacity="0"></use><g><use xlink:href="#d85dtn6K7" opacity="1" fill-opacity="0" stroke="#000000" stroke-width="1" stroke-opacity="0"></use></g></g><g><use xlink:href="#f3tomnhxhw" opacity="1" fill="#5697ee" fill-opacity="1"></use><g><use xlink:href="#f3tomnhxhw" opacity="1" fill-opacity="0" stroke="#000000" stroke-width="1" stroke-opacity="0"></use></g></g><g><use xlink:href="#bb8jdrHRP" opacity="1" fill="#000000" fill-opacity="0"></use><g><use xlink:href="#bb8jdrHRP" opacity="1" fill-opacity="0" stroke="#000000" stroke-width="1" stroke-opacity="0"></use></g></g><g><use xlink:href="#c53KC9L52" opacity="1" fill="#5697ee" fill-opacity="1"></use><g><use xlink:href="#c53KC9L52" opacity="1" fill-opacity="0" stroke="#000000" stroke-width="1" stroke-opacity="0"></use></g></g><g><use xlink:href="#eVNY5ibdr" opacity="1" fill="#000000" fill-opacity="0"></use><g><use xlink:href="#eVNY5ibdr" opacity="1" fill-opacity="0" stroke="#000000" stroke-width="1" stroke-opacity="0"></use></g></g><g><use xlink:href="#a2Oqg3a54" opacity="1" fill="#434a54" fill-opacity="1"></use><g><use xlink:href="#a2Oqg3a54" opacity="1" fill-opacity="0" stroke="#000000" stroke-width="1" stroke-opacity="0"></use></g></g><g><use xlink:href="#a72mKKIj17" opacity="1" fill="#000000" fill-opacity="0"></use><g><use xlink:href="#a72mKKIj17" opacity="1" fill-opacity="0" stroke="#000000" stroke-width="1" stroke-opacity="0"></use></g></g><g><use xlink:href="#a51QIkLCEo" opacity="1" fill="#ed5564" fill-opacity="1"></use><g><use xlink:href="#a51QIkLCEo" opacity="1" fill-opacity="0" stroke="#000000" stroke-width="1" stroke-opacity="0"></use></g></g><g><use xlink:href="#f3vjgQveq" opacity="1" fill="#000000" fill-opacity="0"></use><g><use xlink:href="#f3vjgQveq" opacity="1" fill-opacity="0" stroke="#000000" stroke-width="1" stroke-opacity="0"></use></g></g><g><use xlink:href="#dd6N4TAVr" opacity="1" fill="#ff6243" fill-opacity="1"></use><g><use xlink:href="#dd6N4TAVr" opacity="1" fill-opacity="0" stroke="#000000" stroke-width="1" stroke-opacity="0"></use></g></g><g><use xlink:href="#dIUOxDlgK" opacity="1" fill="#2d2d30" fill-opacity="1"></use><g><use xlink:href="#dIUOxDlgK" opacity="1" fill-opacity="0" stroke="#000000" stroke-width="1" stroke-opacity="0"></use></g></g><g><use xlink:href="#d2tBmkH8G5" opacity="1" fill="#000000" fill-opacity="0"></use><g><use xlink:href="#d2tBmkH8G5" opacity="1" fill-opacity="0" stroke="#000000" stroke-width="1" stroke-opacity="0"></use></g></g><g><use xlink:href="#b2qT9ID8wJ" opacity="1" fill="#2d2d30" fill-opacity="1"></use><g><use xlink:href="#b2qT9ID8wJ" opacity="1" fill-opacity="0" stroke="#000000" stroke-width="1" stroke-opacity="0"></use></g></g><g><use xlink:href="#c1HA9lqr2C" opacity="1" fill="#000000" fill-opacity="0"></use><g><use xlink:href="#c1HA9lqr2C" opacity="1" fill-opacity="0" stroke="#000000" stroke-width="1" stroke-opacity="0"></use></g></g><g><use xlink:href="#dyWgMtbxn" opacity="1" fill="#2d2d30" fill-opacity="1"></use><g><use xlink:href="#dyWgMtbxn" opacity="1" fill-opacity="0" stroke="#000000" stroke-width="1" stroke-opacity="0"></use></g></g><g><use xlink:href="#b5CgUpbJI" opacity="1" fill="#000000" fill-opacity="0"></use><g><use xlink:href="#b5CgUpbJI" opacity="1" fill-opacity="0" stroke="#000000" stroke-width="1" stroke-opacity="0"></use></g></g><g><use xlink:href="#c7bdECMKI" opacity="1" fill="#2d2d30" fill-opacity="1"></use><g><use xlink:href="#c7bdECMKI" opacity="1" fill-opacity="0" stroke="#000000" stroke-width="1" stroke-opacity="0"></use></g></g><g><use xlink:href="#eJTpXojN4" opacity="1" fill="#000000" fill-opacity="0"></use><g><use xlink:href="#eJTpXojN4" opacity="1" fill-opacity="0" stroke="#000000" stroke-width="1" stroke-opacity="0"></use></g></g><g><use xlink:href="#a34enUywI2" opacity="1" fill="#2d2d30" fill-opacity="1"></use><g><use xlink:href="#a34enUywI2" opacity="1" fill-opacity="0" stroke="#000000" stroke-width="1" stroke-opacity="0"></use></g></g><g><use xlink:href="#a2nDOI3R5M" opacity="1" fill="#000000" fill-opacity="0"></use><g><use xlink:href="#a2nDOI3R5M" opacity="1" fill-opacity="0" stroke="#000000" stroke-width="1" stroke-opacity="0"></use></g></g><g><use xlink:href="#cYIkIeGjz" opacity="1" fill="#2d2d30" fill-opacity="1"></use><g><use xlink:href="#cYIkIeGjz" opacity="1" fill-opacity="0" stroke="#000000" stroke-width="1" stroke-opacity="0"></use></g></g><g><use xlink:href="#a2Hb6AcAed" opacity="1" fill="#000000" fill-opacity="0"></use><g><use xlink:href="#a2Hb6AcAed" opacity="1" fill-opacity="0" stroke="#000000" stroke-width="1" stroke-opacity="0"></use></g></g><g><use xlink:href="#a27STYKb05" opacity="1" fill="#2d2d30" fill-opacity="1"></use><g><use xlink:href="#a27STYKb05" opacity="1" fill-opacity="0" stroke="#000000" stroke-width="1" stroke-opacity="0"></use></g></g><g><use xlink:href="#enqBL4mZM" opacity="1" fill="#000000" fill-opacity="0"></use><g><use xlink:href="#enqBL4mZM" opacity="1" fill-opacity="0" stroke="#000000" stroke-width="1" stroke-opacity="0"></use></g></g><g><use xlink:href="#c6aTMhNN3j" opacity="1" fill="#2d2d30" fill-opacity="1"></use><g><use xlink:href="#c6aTMhNN3j" opacity="1" fill-opacity="0" stroke="#000000" stroke-width="1" stroke-opacity="0"></use></g></g><g><use xlink:href="#a116Mjzg6j" opacity="1" fill="#000000" fill-opacity="0"></use><g><use xlink:href="#a116Mjzg6j" opacity="1" fill-opacity="0" stroke="#000000" stroke-width="1" stroke-opacity="0"></use></g></g><g><use xlink:href="#d1tc3HFY1A" opacity="1" fill="#a9d856" fill-opacity="1"></use><g><use xlink:href="#d1tc3HFY1A" opacity="1" fill-opacity="0" stroke="#000000" stroke-width="1" stroke-opacity="0"></use></g></g><g><use xlink:href="#bmdT2xXZc" opacity="1" fill="#b7ed62" fill-opacity="1"></use><g><use xlink:href="#bmdT2xXZc" opacity="1" fill-opacity="0" stroke="#000000" stroke-width="1" stroke-opacity="0"></use></g></g><g><use xlink:href="#csjhLhVrA" opacity="1" fill="#b7ed62" fill-opacity="1"></use><g><use xlink:href="#csjhLhVrA" opacity="1" fill-opacity="0" stroke="#000000" stroke-width="1" stroke-opacity="0"></use></g></g><g><use xlink:href="#a20PaQrtD" opacity="1" fill="#a9d856" fill-opacity="1"></use><g><use xlink:href="#a20PaQrtD" opacity="1" fill-opacity="0" stroke="#000000" stroke-width="1" stroke-opacity="0"></use></g></g><g><use xlink:href="#cak9A0Fgo" opacity="1" fill="#a9d856" fill-opacity="1"></use><g><use xlink:href="#cak9A0Fgo" opacity="1" fill-opacity="0" stroke="#000000" stroke-width="1" stroke-opacity="0"></use></g></g><g><use xlink:href="#a5hFxQsKYD" opacity="1" fill="#b7ed62" fill-opacity="1"></use><g><use xlink:href="#a5hFxQsKYD" opacity="1" fill-opacity="0" stroke="#000000" stroke-width="1" stroke-opacity="0"></use></g></g><g><use xlink:href="#a7biAFyoOU" opacity="1" fill="#b7ed62" fill-opacity="1"></use><g><use xlink:href="#a7biAFyoOU" opacity="1" fill-opacity="0" stroke="#000000" stroke-width="1" stroke-opacity="0"></use></g></g><g><use xlink:href="#achNfMdZh" opacity="1" fill="#ffde55" fill-opacity="1"></use><g><use xlink:href="#achNfMdZh" opacity="1" fill-opacity="0" stroke="#000000" stroke-width="1" stroke-opacity="0"></use></g></g><g><use xlink:href="#b5zd0leQO" opacity="1" fill="#e5c74a" fill-opacity="1"></use><g><use xlink:href="#b5zd0leQO" opacity="1" fill-opacity="0" stroke="#000000" stroke-width="1" stroke-opacity="0"></use></g></g><g><use xlink:href="#akdFcelUz" opacity="1" fill="#e5c74a" fill-opacity="1"></use><g><use xlink:href="#akdFcelUz" opacity="1" fill-opacity="0" stroke="#000000" stroke-width="1" stroke-opacity="0"></use></g></g><g><use xlink:href="#d48NvysPF" opacity="1" fill="#e5c74a" fill-opacity="1"></use><g><use xlink:href="#d48NvysPF" opacity="1" fill-opacity="0" stroke="#000000" stroke-width="1" stroke-opacity="0"></use></g></g><g><use xlink:href="#a1mCVF7Zej" opacity="1" fill="#e5c74a" fill-opacity="1"></use><g><use xlink:href="#a1mCVF7Zej" opacity="1" fill-opacity="0" stroke="#000000" stroke-width="1" stroke-opacity="0"></use></g></g><g><use xlink:href="#aa3c4fSeY" opacity="1" fill="#e5c74a" fill-opacity="1"></use><g><use xlink:href="#aa3c4fSeY" opacity="1" fill-opacity="0" stroke="#000000" stroke-width="1" stroke-opacity="0"></use></g></g><g><use xlink:href="#aTdXgg4y3" opacity="1" fill="#e5c74a" fill-opacity="1"></use><g><use xlink:href="#aTdXgg4y3" opacity="1" fill-opacity="0" stroke="#000000" stroke-width="1" stroke-opacity="0"></use></g></g><g><use xlink:href="#b2qk8zeTpr" opacity="1" fill="#e5c74a" fill-opacity="1"></use><g><use xlink:href="#b2qk8zeTpr" opacity="1" fill-opacity="0" stroke="#000000" stroke-width="1" stroke-opacity="0"></use></g></g><g><use xlink:href="#a1y1zCLPbl" opacity="1" fill="#e5c74a" fill-opacity="1"></use><g><use xlink:href="#a1y1zCLPbl" opacity="1" fill-opacity="0" stroke="#000000" stroke-width="1" stroke-opacity="0"></use></g></g><g><use xlink:href="#d6KdTjVNOf" opacity="1" fill="#e5c74a" fill-opacity="1"></use><g><use xlink:href="#d6KdTjVNOf" opacity="1" fill-opacity="0" stroke="#000000" stroke-width="1" stroke-opacity="0"></use></g></g><g><use xlink:href="#aKoB0PIz" opacity="1" fill="#e5c74a" fill-opacity="1"></use><g><use xlink:href="#aKoB0PIz" opacity="1" fill-opacity="0" stroke="#000000" stroke-width="1" stroke-opacity="0"></use></g></g><g><use xlink:href="#e12v7vYdB" opacity="1" fill="#e9e9e9" fill-opacity="1"></use><g><use xlink:href="#e12v7vYdB" opacity="1" fill-opacity="0" stroke="#000000" stroke-width="1" stroke-opacity="0"></use></g></g><g><use xlink:href="#d1v2E8Sk97" opacity="1" fill="#acda63" fill-opacity="1"></use><g><use xlink:href="#d1v2E8Sk97" opacity="1" fill-opacity="0" stroke="#000000" stroke-width="1" stroke-opacity="0"></use></g></g><g><use xlink:href="#a6yzEL5jX" opacity="1" fill="#e9cd57" fill-opacity="1"></use><g><use xlink:href="#a6yzEL5jX" opacity="1" fill-opacity="0" stroke="#000000" stroke-width="1" stroke-opacity="0"></use></g></g><g><use xlink:href="#a8yZzIGBZ" opacity="1" fill="#d3b94e" fill-opacity="1"></use><g><use xlink:href="#a8yZzIGBZ" opacity="1" fill-opacity="0" stroke="#000000" stroke-width="1" stroke-opacity="0"></use></g></g><g><use xlink:href="#otBE0ZgWF" opacity="1" fill="#d3b94e" fill-opacity="1"></use><g><use xlink:href="#otBE0ZgWF" opacity="1" fill-opacity="0" stroke="#000000" stroke-width="1" stroke-opacity="0"></use></g></g><g><use xlink:href="#d3I96AYjgO" opacity="1" fill="#d3b94e" fill-opacity="1"></use><g><use xlink:href="#d3I96AYjgO" opacity="1" fill-opacity="0" stroke="#000000" stroke-width="1" stroke-opacity="0"></use></g></g><g><use xlink:href="#a5inWTu03" opacity="1" fill="#d3b94e" fill-opacity="1"></use><g><use xlink:href="#a5inWTu03" opacity="1" fill-opacity="0" stroke="#000000" stroke-width="1" stroke-opacity="0"></use></g></g><g><use xlink:href="#d3g0ml6v6U" opacity="1" fill="#d3b94e" fill-opacity="1"></use><g><use xlink:href="#d3g0ml6v6U" opacity="1" fill-opacity="0" stroke="#000000" stroke-width="1" stroke-opacity="0"></use></g></g><g><use xlink:href="#c1BsL5mR14" opacity="1" fill="#d3b94e" fill-opacity="1"></use><g><use xlink:href="#c1BsL5mR14" opacity="1" fill-opacity="0" stroke="#000000" stroke-width="1" stroke-opacity="0"></use></g></g><g><use xlink:href="#h2hXsBkoe" opacity="1" fill="#d3b94e" fill-opacity="1"></use><g><use xlink:href="#h2hXsBkoe" opacity="1" fill-opacity="0" stroke="#000000" stroke-width="1" stroke-opacity="0"></use></g></g><g><use xlink:href="#e3sowam1L" opacity="1" fill="#e9cd57" fill-opacity="1"></use><g><use xlink:href="#e3sowam1L" opacity="1" fill-opacity="0" stroke="#000000" stroke-width="1" stroke-opacity="0"></use></g></g><g><use xlink:href="#a2fUFEulfR" opacity="1" fill="#d3b94e" fill-opacity="1"></use><g><use xlink:href="#a2fUFEulfR" opacity="1" fill-opacity="0" stroke="#000000" stroke-width="1" stroke-opacity="0"></use></g></g><g><use xlink:href="#cPnYdcatE" opacity="1" fill="#d3b94e" fill-opacity="1"></use><g><use xlink:href="#cPnYdcatE" opacity="1" fill-opacity="0" stroke="#000000" stroke-width="1" stroke-opacity="0"></use></g></g><g><use xlink:href="#d2272g9SOF" opacity="1" fill="#d3b94e" fill-opacity="1"></use><g><use xlink:href="#d2272g9SOF" opacity="1" fill-opacity="0" stroke="#000000" stroke-width="1" stroke-opacity="0"></use></g></g><g><use xlink:href="#aOIgQstE" opacity="1" fill="#e9e9e9" fill-opacity="1"></use><g><use xlink:href="#aOIgQstE" opacity="1" fill-opacity="0" stroke="#000000" stroke-width="1" stroke-opacity="0"></use></g></g><path></path><g><use xlink:href="#ej1P0O8Gb" opacity="1" fill="#d3b94e" fill-opacity="1"></use><g><use xlink:href="#ej1P0O8Gb" opacity="1" fill-opacity="0" stroke="#000000" stroke-width="1" stroke-opacity="0"></use></g></g><g><use xlink:href="#d1b0KeqUut" opacity="1" fill="#d3b94e" fill-opacity="1"></use><g><use xlink:href="#d1b0KeqUut" opacity="1" fill-opacity="0" stroke="#000000" stroke-width="1" stroke-opacity="0"></use></g></g><g><use xlink:href="#d2I0oSbIDb" opacity="1" fill="#e9e9e9" fill-opacity="1"></use><g><use xlink:href="#d2I0oSbIDb" opacity="1" fill-opacity="0" stroke="#000000" stroke-width="1" stroke-opacity="0"></use></g></g><g><use xlink:href="#a3Q7H7zB7" opacity="1" fill="#e9cd57" fill-opacity="1"></use><g><use xlink:href="#a3Q7H7zB7" opacity="1" fill-opacity="0" stroke="#000000" stroke-width="1" stroke-opacity="0"></use></g></g><g><use xlink:href="#c11DBloX4J" opacity="1" fill="#d3b94e" fill-opacity="1"></use><g><use xlink:href="#c11DBloX4J" opacity="1" fill-opacity="0" stroke="#000000" stroke-width="1" stroke-opacity="0"></use></g></g><g><use xlink:href="#bqEJ6xS07" opacity="1" fill="#d3b94e" fill-opacity="1"></use><g><use xlink:href="#bqEJ6xS07" opacity="1" fill-opacity="0" stroke="#000000" stroke-width="1" stroke-opacity="0"></use></g></g><g><use xlink:href="#b28HDKl0U" opacity="1" fill="#d3b94e" fill-opacity="1"></use><g><use xlink:href="#b28HDKl0U" opacity="1" fill-opacity="0" stroke="#000000" stroke-width="1" stroke-opacity="0"></use></g></g><g><use xlink:href="#f5hDdVLLpo" opacity="1" fill="#d3b94e" fill-opacity="1"></use><g><use xlink:href="#f5hDdVLLpo" opacity="1" fill-opacity="0" stroke="#000000" stroke-width="1" stroke-opacity="0"></use></g></g><g><use xlink:href="#a2HPzKnL7I" opacity="1" fill="#e9cd57" fill-opacity="1"></use><g><use xlink:href="#a2HPzKnL7I" opacity="1" fill-opacity="0" stroke="#000000" stroke-width="1" stroke-opacity="0"></use></g></g><g><use xlink:href="#exHLkwhbP" opacity="1" fill="#d3b94e" fill-opacity="1"></use><g><use xlink:href="#exHLkwhbP" opacity="1" fill-opacity="0" stroke="#000000" stroke-width="1" stroke-opacity="0"></use></g></g><g><use xlink:href="#a3YdMKFOYi" opacity="1" fill="#d3b94e" fill-opacity="1"></use><g><use xlink:href="#a3YdMKFOYi" opacity="1" fill-opacity="0" stroke="#000000" stroke-width="1" stroke-opacity="0"></use></g></g><g><use xlink:href="#avdNumzd5" opacity="1" fill="#80bc2b" fill-opacity="1"></use><g><use xlink:href="#avdNumzd5" opacity="1" fill-opacity="0" stroke="#000000" stroke-width="1" stroke-opacity="0"></use></g></g><g><use xlink:href="#cRtcgWoap" opacity="1" fill="#68a519" fill-opacity="1"></use><g><use xlink:href="#cRtcgWoap" opacity="1" fill-opacity="0" stroke="#000000" stroke-width="1" stroke-opacity="0"></use></g></g><g><use xlink:href="#b1EtVzyjW" opacity="1" fill="#528c00" fill-opacity="1"></use><g><use xlink:href="#b1EtVzyjW" opacity="1" fill-opacity="0" stroke="#000000" stroke-width="1" stroke-opacity="0"></use></g></g><g><use xlink:href="#b50HneizLk" opacity="1" fill="#80bc2b" fill-opacity="1"></use><g><use xlink:href="#b50HneizLk" opacity="1" fill-opacity="0" stroke="#000000" stroke-width="1" stroke-opacity="0"></use></g></g><g><use xlink:href="#anoErToMW" opacity="1" fill="#68a519" fill-opacity="1"></use><g><use xlink:href="#anoErToMW" opacity="1" fill-opacity="0" stroke="#000000" stroke-width="1" stroke-opacity="0"></use></g></g><g><use xlink:href="#a3SyGCo6vM" opacity="1" fill="#528c00" fill-opacity="1"></use><g><use xlink:href="#a3SyGCo6vM" opacity="1" fill-opacity="0" stroke="#000000" stroke-width="1" stroke-opacity="0"></use></g></g><g><use xlink:href="#bkmC9L9JW" opacity="1" fill="#80bc2b" fill-opacity="1"></use><g><use xlink:href="#bkmC9L9JW" opacity="1" fill-opacity="0" stroke="#000000" stroke-width="1" stroke-opacity="0"></use></g></g><g><use xlink:href="#aY8PE32vC" opacity="1" fill="#02243e" fill-opacity="1"></use><g><use xlink:href="#aY8PE32vC" opacity="1" fill-opacity="0" stroke="#000000" stroke-width="1" stroke-opacity="0"></use></g></g><g><use xlink:href="#dzT27S67j" opacity="1" fill="#80bc2b" fill-opacity="1"></use><g><use xlink:href="#dzT27S67j" opacity="1" fill-opacity="0" stroke="#000000" stroke-width="1" stroke-opacity="0"></use></g></g><g><use xlink:href="#g3Ue9KieWo" opacity="1" fill="#68a519" fill-opacity="1"></use><g><use xlink:href="#g3Ue9KieWo" opacity="1" fill-opacity="0" stroke="#000000" stroke-width="1" stroke-opacity="0"></use></g></g><g><use xlink:href="#b1ChiNeUuM" opacity="1" fill="#528c00" fill-opacity="1"></use><g><use xlink:href="#b1ChiNeUuM" opacity="1" fill-opacity="0" stroke="#000000" stroke-width="1" stroke-opacity="0"></use></g></g><g><use xlink:href="#b4z1bdDZi" opacity="1" fill="#80bc2b" fill-opacity="1"></use><g><use xlink:href="#b4z1bdDZi" opacity="1" fill-opacity="0" stroke="#000000" stroke-width="1" stroke-opacity="0"></use></g></g><g><use xlink:href="#kmec3vQvH" opacity="1" fill="#68a519" fill-opacity="1"></use><g><use xlink:href="#kmec3vQvH" opacity="1" fill-opacity="0" stroke="#000000" stroke-width="1" stroke-opacity="0"></use></g></g><g><use xlink:href="#a5UUV9tHyq" opacity="1" fill="#528c00" fill-opacity="1"></use><g><use xlink:href="#a5UUV9tHyq" opacity="1" fill-opacity="0" stroke="#000000" stroke-width="1" stroke-opacity="0"></use></g></g><g><use xlink:href="#eTsU3ELXa" opacity="1" fill="#80bc2b" fill-opacity="1"></use><g><use xlink:href="#eTsU3ELXa" opacity="1" fill-opacity="0" stroke="#000000" stroke-width="1" stroke-opacity="0"></use></g></g><g><use xlink:href="#a8WrU64qR" opacity="1" fill="#68a519" fill-opacity="1"></use><g><use xlink:href="#a8WrU64qR" opacity="1" fill-opacity="0" stroke="#000000" stroke-width="1" stroke-opacity="0"></use></g></g><g><use xlink:href="#d2HFi9oCa9" opacity="1" fill="#528c00" fill-opacity="1"></use><g><use xlink:href="#d2HFi9oCa9" opacity="1" fill-opacity="0" stroke="#000000" stroke-width="1" stroke-opacity="0"></use></g></g><g><use xlink:href="#e1MvMM2Ipy" opacity="1" fill="#80bc2b" fill-opacity="1"></use><g><use xlink:href="#e1MvMM2Ipy" opacity="1" fill-opacity="0" stroke="#000000" stroke-width="1" stroke-opacity="0"></use></g></g><g><use xlink:href="#fSFSc8irB" opacity="1" fill="#68a519" fill-opacity="1"></use><g><use xlink:href="#fSFSc8irB" opacity="1" fill-opacity="0" stroke="#000000" stroke-width="1" stroke-opacity="0"></use></g></g><g><use xlink:href="#d2YBWT9heB" opacity="1" fill="#528c00" fill-opacity="1"></use><g><use xlink:href="#d2YBWT9heB" opacity="1" fill-opacity="0" stroke="#000000" stroke-width="1" stroke-opacity="0"></use></g></g><g><use xlink:href="#a3UBjBnZz" opacity="1" fill="#02243e" fill-opacity="1"></use><g><use xlink:href="#a3UBjBnZz" opacity="1" fill-opacity="0" stroke="#000000" stroke-width="1" stroke-opacity="0"></use></g></g><g><use xlink:href="#ap4K3838s" opacity="1" fill="#02243e" fill-opacity="1"></use><g><use xlink:href="#ap4K3838s" opacity="1" fill-opacity="0" stroke="#000000" stroke-width="1" stroke-opacity="0"></use></g></g><g><use xlink:href="#b1LGoFVz96" opacity="1" fill="#80bc2b" fill-opacity="1"></use><g><use xlink:href="#b1LGoFVz96" opacity="1" fill-opacity="0" stroke="#000000" stroke-width="1" stroke-opacity="0"></use></g></g><g><use xlink:href="#i6ShQMk9Wi" opacity="1" fill="#68a519" fill-opacity="1"></use><g><use xlink:href="#i6ShQMk9Wi" opacity="1" fill-opacity="0" stroke="#000000" stroke-width="1" stroke-opacity="0"></use></g></g><g><use xlink:href="#a1xUQkSlGN" opacity="1" fill="#528c00" fill-opacity="1"></use><g><use xlink:href="#a1xUQkSlGN" opacity="1" fill-opacity="0" stroke="#000000" stroke-width="1" stroke-opacity="0"></use></g></g><g><use xlink:href="#c1oCR07yhm" opacity="1" fill="#80bc2b" fill-opacity="1"></use><g><use xlink:href="#c1oCR07yhm" opacity="1" fill-opacity="0" stroke="#000000" stroke-width="1" stroke-opacity="0"></use></g></g><g><use xlink:href="#a2RgXN00uk" opacity="1" fill="#68a519" fill-opacity="1"></use><g><use xlink:href="#a2RgXN00uk" opacity="1" fill-opacity="0" stroke="#000000" stroke-width="1" stroke-opacity="0"></use></g></g><g><use xlink:href="#b4TyC4c3O2" opacity="1" fill="#528c00" fill-opacity="1"></use><g><use xlink:href="#b4TyC4c3O2" opacity="1" fill-opacity="0" stroke="#000000" stroke-width="1" stroke-opacity="0"></use></g></g><g><use xlink:href="#cQP6RulwR" opacity="1" fill="#80bc2b" fill-opacity="1"></use><g><use xlink:href="#cQP6RulwR" opacity="1" fill-opacity="0" stroke="#000000" stroke-width="1" stroke-opacity="0"></use></g></g><g><use xlink:href="#d2sPXFZK1R" opacity="1" fill="#68a519" fill-opacity="1"></use><g><use xlink:href="#d2sPXFZK1R" opacity="1" fill-opacity="0" stroke="#000000" stroke-width="1" stroke-opacity="0"></use></g></g><g><use xlink:href="#d1pJKEnlf" opacity="1" fill="#528c00" fill-opacity="1"></use><g><use xlink:href="#d1pJKEnlf" opacity="1" fill-opacity="0" stroke="#000000" stroke-width="1" stroke-opacity="0"></use></g></g><g><use xlink:href="#a1zbp4bKa0" opacity="1" fill="#80bc2b" fill-opacity="1"></use><g><use xlink:href="#a1zbp4bKa0" opacity="1" fill-opacity="0" stroke="#000000" stroke-width="1" stroke-opacity="0"></use></g></g><g><use xlink:href="#b1ws5BX7O6" opacity="1" fill="#68a519" fill-opacity="1"></use><g><use xlink:href="#b1ws5BX7O6" opacity="1" fill-opacity="0" stroke="#000000" stroke-width="1" stroke-opacity="0"></use></g></g><g><use xlink:href="#c3sZTn8HSh" opacity="1" fill="#528c00" fill-opacity="1"></use><g><use xlink:href="#c3sZTn8HSh" opacity="1" fill-opacity="0" stroke="#000000" stroke-width="1" stroke-opacity="0"></use></g></g><g><use xlink:href="#e6re7gPac" opacity="1" fill="#02243e" fill-opacity="1"></use><g><use xlink:href="#e6re7gPac" opacity="1" fill-opacity="0" stroke="#000000" stroke-width="1" stroke-opacity="0"></use></g></g><g><use xlink:href="#e1IAWgPeSs" opacity="1" fill="#02243e" fill-opacity="1"></use><g><use xlink:href="#e1IAWgPeSs" opacity="1" fill-opacity="0" stroke="#000000" stroke-width="1" stroke-opacity="0"></use></g></g></g></g></svg>