<?xml version="1.0" encoding="UTF-8" standalone="no"?>
<!DOCTYPE svg PUBLIC "-//W3C//DTD SVG 1.1//EN" "http://www.w3.org/Graphics/SVG/1.1/DTD/svg11.dtd">
<svg version="1.1" xmlns="http://www.w3.org/2000/svg" xmlns:xlink="http://www.w3.org/1999/xlink" preserveAspectRatio="xMidYMid meet" viewBox="0 0 640 640" width="640" height="640"><defs><path d="M354.2 86.89C359.98 86.89 364.66 91.57 364.66 97.35C364.66 277.8 317.11 438.09 311.69 455.74C311.69 460.32 311.69 496.97 311.69 501.55C311.69 507.32 307.01 512 301.24 512C287.26 512 175.38 512 161.4 512C155.62 512 150.94 507.32 150.94 501.55C150.94 496.97 150.94 460.32 150.94 455.74C145.53 438.09 97.98 277.8 97.98 97.35C97.98 91.57 102.66 86.89 108.43 86.89C157.59 86.89 329.63 86.89 354.2 86.89Z" id="l3xQzqDKV6"></path><path d="M171.24 455.74C165.83 438.09 118.28 277.8 118.28 97.35C118.28 91.57 122.96 86.89 128.73 86.89C126.7 86.89 110.46 86.89 108.43 86.89C102.66 86.89 97.98 91.57 97.98 97.35C97.98 277.8 145.53 438.09 150.94 455.74C150.94 460.32 150.94 496.97 150.94 501.55C150.94 507.32 155.62 512 161.4 512C163.43 512 179.67 512 181.7 512C175.92 512 171.24 507.32 171.24 501.55C171.24 492.38 171.24 460.32 171.24 455.74Z" id="aw6iUJGT"></path><path d="M102.16 193.42C113.91 331.57 146.48 441.32 150.91 455.74C166.98 455.74 295.58 455.74 311.66 455.74C315.85 442.08 345.28 342.94 358.37 215.15C321.24 221.89 268.61 225.17 226.41 203.27C180.15 179.27 131.69 185.52 102.16 193.42Z" id="aNbb1iIxZ"></path><path d="M150.94 455.74C152.97 455.74 169.21 455.74 171.24 455.74C166.77 441.17 133.56 329.27 122.13 189.09C114.84 190.31 108.13 191.83 102.19 193.41C113.94 331.57 146.52 441.32 150.94 455.74Z" id="e6UB7qMJoA"></path><path d="M262.92 422.67C269.58 381.04 322.88 48.03 329.54 6.41C330.18 2.37 333.91 -0.43 337.97 0.05C344.91 0.89 400.39 7.61 407.32 8.45C411.5 8.96 414.47 12.75 413.97 16.93C413.46 21.1 409.67 24.07 405.49 23.57C401.36 23.07 380.66 20.56 343.41 16.05C304.14 261.46 282.32 397.8 277.95 425.07C277.29 429.23 273.38 432.05 269.23 431.38C265.08 430.72 262.26 426.82 262.92 422.67Z" id="b5hB5xTc7"></path><path d="M72.7 245.46C70.68 245.05 68.75 246.45 68.72 248.36C68.51 260.26 71.87 297.72 122.5 298.42C122.68 297.89 122.86 297.36 123.04 296.84C122.04 288.95 115.23 254.15 72.7 245.46Z" id="c1VEze1WXN"></path><path d="M80.71 247.53C78.19 246.73 75.53 246.04 72.7 245.46C70.68 245.05 68.75 246.45 68.72 248.36C68.51 260.26 71.87 297.72 122.5 298.42C122.6 298.12 122.7 297.83 122.8 297.53C83.18 291.73 80.36 259.29 80.56 248.36C80.56 248.07 80.62 247.79 80.71 247.53Z" id="b2DQYPqnjD"></path><path d="M157.93 249.79C155.35 247.3 150.98 247.55 148.75 250.32C141.27 259.59 125.65 281.94 118.82 310.1C121.45 310.03 123.97 310.42 126.38 311.24C134.26 296.48 147.79 278.15 168.4 266.67C170.71 265.38 171.12 262.44 169.25 260.65C166.98 258.47 159.06 250.87 157.93 249.79Z" id="c3bx8hRNSp"></path><path d="M160.71 252.45C160.43 252.18 158.21 250.05 157.93 249.79C155.35 247.3 150.98 247.55 148.75 250.32C141.27 259.59 125.65 281.94 118.82 310.1C121.44 310.03 123.97 310.42 126.38 311.24C127.35 309.43 128.4 307.55 129.55 305.65C137.15 281.64 150.35 262.88 157.04 254.58C157.98 253.42 159.3 252.71 160.71 252.45Z" id="a50gksufeX"></path><path d="M142.56 328.47C141.04 327.74 140.04 326.37 139.8 324.81C136.98 306.92 110.65 303.06 102.03 319.36C101.13 321.06 99.46 322.32 97.46 322.71C62.49 329.49 32.84 361.21 26.46 402.57C20.1 443.81 38.84 481.83 70.2 497.46C72.17 498.45 73.49 500.24 73.9 502.28C77.45 519.66 103.01 522.91 111.49 507.05C112.43 505.3 114.13 504 116.19 503.6C151.12 496.79 180.72 465.08 187.1 423.76C193.52 382.17 174.4 343.85 142.56 328.47Z" id="boGvlI71h"></path><path d="M82.19 497.75C50.8 482.32 31.97 444.9 38.22 404.38C44.49 363.75 74.04 332.63 108.98 326.05C110.98 325.67 112.65 324.43 113.54 322.76C117.38 315.6 124.77 312.42 132.02 312.66C122.77 306.42 108.06 307.95 102.03 319.36C101.13 321.06 99.46 322.32 97.45 322.71C62.49 329.49 32.84 361.21 26.46 402.57C20.1 443.81 38.84 481.83 70.19 497.46C72.17 498.45 73.49 500.24 73.9 502.28C76.34 514.22 89.15 519.48 99.69 516.48C93.1 514.66 87.46 509.87 85.91 502.5C85.48 500.49 84.17 498.72 82.19 497.75Z" id="aC41GUFHk"></path><path d="M145.61 429.84C145.82 429.79 146.03 429.72 146.23 429.64C146.62 429.48 146.98 429.27 147.3 429.02C147.48 428.88 147.64 428.73 147.79 428.57C147.98 428.37 148.15 428.15 148.3 427.91C148.44 427.68 148.56 427.43 148.65 427.17C148.72 426.98 148.78 426.77 148.81 426.56C148.89 426.17 148.89 425.78 148.84 425.39C148.81 425.19 148.77 424.99 148.71 424.8C148.41 423.75 147.64 422.85 146.63 422.32C145.61 421.79 144.38 421.64 143.26 421.93C143.05 421.98 142.84 422.05 142.64 422.13C142.25 422.29 141.88 422.5 141.56 422.76C141.39 422.9 141.23 423.05 141.08 423.2C140.89 423.41 140.72 423.63 140.57 423.86C140.43 424.09 140.31 424.34 140.22 424.6C140.15 424.79 140.1 425 140.06 425.2C139.99 425.59 139.98 425.99 140.03 426.38C140.06 426.58 140.1 426.78 140.16 426.98C140.47 428.02 141.23 428.92 142.24 429.46C143.26 429.99 144.49 430.13 145.61 429.84Z" id="d2kBFsYlJZ"></path><path d="M131.8 451.22C132.01 451.17 132.22 451.1 132.42 451.02C132.81 450.86 133.17 450.65 133.49 450.4C133.66 450.26 133.83 450.11 133.98 449.95C134.17 449.75 134.34 449.53 134.48 449.29C134.63 449.06 134.74 448.81 134.84 448.55C134.91 448.36 134.96 448.15 135 447.94C135.07 447.55 135.08 447.16 135.03 446.77C135 446.57 134.96 446.37 134.9 446.18C134.59 445.14 133.83 444.23 132.81 443.7C131.8 443.17 130.57 443.02 129.44 443.31C129.23 443.36 129.03 443.43 128.83 443.52C128.44 443.67 128.07 443.88 127.75 444.14C127.58 444.28 127.41 444.43 127.27 444.58C127.07 444.79 126.91 445.01 126.76 445.24C126.62 445.47 126.5 445.72 126.41 445.98C126.34 446.17 126.29 446.38 126.25 446.58C126.17 446.97 126.17 447.37 126.22 447.76C126.24 447.97 126.28 448.16 126.34 448.36C126.65 449.4 127.42 450.31 128.43 450.84C129.44 451.37 130.68 451.51 131.8 451.22Z" id="b3nWieS1je"></path><path d="M118.76 473.01C118.97 472.96 119.18 472.89 119.38 472.81C119.76 472.65 120.13 472.44 120.45 472.19C120.62 472.05 120.79 471.9 120.93 471.74C121.13 471.53 121.3 471.31 121.44 471.08C121.58 470.85 121.7 470.6 121.79 470.34C121.87 470.14 121.92 469.93 121.96 469.72C122.03 469.34 122.04 468.94 121.99 468.56C121.96 468.36 121.92 468.16 121.86 467.96C121.55 466.92 120.79 466.02 119.77 465.48C118.76 464.95 117.53 464.81 116.4 465.1C116.19 465.15 115.99 465.22 115.79 465.3C115.4 465.46 115.03 465.67 114.71 465.93C114.53 466.06 114.37 466.21 114.23 466.37C114.03 466.57 113.86 466.79 113.72 467.03C113.58 467.26 113.46 467.51 113.37 467.77C113.3 467.96 113.24 468.16 113.2 468.37C113.13 468.76 113.12 469.16 113.18 469.55C113.2 469.75 113.24 469.95 113.3 470.14C113.61 471.19 114.38 472.09 115.39 472.62C116.4 473.16 117.64 473.3 118.76 473.01Z" id="b9UHLl7z3p"></path><path d="M155.78 449.51C155.98 449.45 156.19 449.38 156.38 449.29C156.76 449.11 157.11 448.89 157.42 448.62C157.59 448.47 157.75 448.32 157.89 448.15C158.07 447.94 158.23 447.71 158.36 447.47C158.49 447.23 158.59 446.98 158.67 446.72C158.74 446.52 158.78 446.31 158.81 446.1C158.86 445.71 158.85 445.31 158.78 444.93C158.74 444.73 158.69 444.53 158.62 444.34C158.26 443.31 157.45 442.44 156.41 441.96C155.37 441.47 154.13 441.38 153.02 441.72C152.82 441.78 152.61 441.85 152.42 441.95C152.04 442.12 151.68 442.35 151.37 442.62C151.21 442.76 151.05 442.92 150.92 443.08C150.73 443.29 150.57 443.52 150.44 443.76C150.31 444 150.21 444.25 150.13 444.51C150.07 444.71 150.02 444.91 150 445.12C149.94 445.51 149.95 445.91 150.03 446.3C150.06 446.5 150.11 446.7 150.18 446.89C150.54 447.92 151.35 448.79 152.39 449.27C153.43 449.76 154.67 449.85 155.78 449.51Z" id="lzrVt93h"></path><path d="M143.85 471.84C144.05 471.78 144.26 471.7 144.45 471.61C144.83 471.44 145.18 471.21 145.49 470.94C145.66 470.8 145.82 470.64 145.96 470.48C146.14 470.26 146.3 470.04 146.43 469.8C146.56 469.56 146.67 469.31 146.74 469.04C146.81 468.84 146.85 468.63 146.88 468.42C146.93 468.03 146.92 467.64 146.85 467.25C146.81 467.05 146.76 466.86 146.69 466.67C146.33 465.64 145.52 464.77 144.48 464.28C143.44 463.79 142.2 463.7 141.09 464.04C140.89 464.1 140.69 464.18 140.49 464.27C140.11 464.45 139.75 464.67 139.44 464.94C139.28 465.09 139.12 465.24 138.99 465.4C138.8 465.62 138.64 465.84 138.51 466.08C138.38 466.32 138.28 466.57 138.2 466.84C138.14 467.03 138.09 467.24 138.07 467.45C138.01 467.84 138.02 468.24 138.1 468.63C138.13 468.83 138.18 469.02 138.25 469.21C138.61 470.24 139.42 471.11 140.46 471.6C141.5 472.09 142.74 472.18 143.85 471.84Z" id="a2arQfnget"></path></defs><g><g><g><use xlink:href="#l3xQzqDKV6" opacity="1" fill="#e0f7fc" fill-opacity="1"></use><g><use xlink:href="#l3xQzqDKV6" opacity="1" fill-opacity="0" stroke="#000000" stroke-width="1" stroke-opacity="0"></use></g></g><g><use xlink:href="#aw6iUJGT" opacity="1" fill="#beedf4" fill-opacity="1"></use><g><use xlink:href="#aw6iUJGT" opacity="1" fill-opacity="0" stroke="#000000" stroke-width="1" stroke-opacity="0"></use></g></g><g><use xlink:href="#aNbb1iIxZ" opacity="1" fill="#e2f056" fill-opacity="1"></use><g><use xlink:href="#aNbb1iIxZ" opacity="1" fill-opacity="0" stroke="#000000" stroke-width="1" stroke-opacity="0"></use></g></g><g><use xlink:href="#e6UB7qMJoA" opacity="1" fill="#ecee58" fill-opacity="1"></use><g><use xlink:href="#e6UB7qMJoA" opacity="1" fill-opacity="0" stroke="#000000" stroke-width="1" stroke-opacity="0"></use></g></g><g><use xlink:href="#b5hB5xTc7" opacity="1" fill="#ea473b" fill-opacity="1"></use><g><use xlink:href="#b5hB5xTc7" opacity="1" fill-opacity="0" stroke="#000000" stroke-width="1" stroke-opacity="0"></use></g></g><g><use xlink:href="#c1VEze1WXN" opacity="1" fill="#3bbc56" fill-opacity="1"></use><g><use xlink:href="#c1VEze1WXN" opacity="1" fill-opacity="0" stroke="#000000" stroke-width="1" stroke-opacity="0"></use></g></g><g><use xlink:href="#b2DQYPqnjD" opacity="1" fill="#30aa44" fill-opacity="1"></use><g><use xlink:href="#b2DQYPqnjD" opacity="1" fill-opacity="0" stroke="#000000" stroke-width="1" stroke-opacity="0"></use></g></g><g><use xlink:href="#c3bx8hRNSp" opacity="1" fill="#93603e" fill-opacity="1"></use><g><use xlink:href="#c3bx8hRNSp" opacity="1" fill-opacity="0" stroke="#000000" stroke-width="1" stroke-opacity="0"></use></g></g><g><use xlink:href="#a50gksufeX" opacity="1" fill="#7f573c" fill-opacity="1"></use><g><use xlink:href="#a50gksufeX" opacity="1" fill-opacity="0" stroke="#000000" stroke-width="1" stroke-opacity="0"></use></g></g><g><use xlink:href="#boGvlI71h" opacity="1" fill="#f2d422" fill-opacity="1"></use><g><use xlink:href="#boGvlI71h" opacity="1" fill-opacity="0" stroke="#000000" stroke-width="1" stroke-opacity="0"></use></g></g><g><use xlink:href="#aC41GUFHk" opacity="1" fill="#e2c01a" fill-opacity="1"></use><g><use xlink:href="#aC41GUFHk" opacity="1" fill-opacity="0" stroke="#000000" stroke-width="1" stroke-opacity="0"></use></g></g><g><use xlink:href="#d2kBFsYlJZ" opacity="1" fill="#d6b013" fill-opacity="1"></use><g><use xlink:href="#d2kBFsYlJZ" opacity="1" fill-opacity="0" stroke="#000000" stroke-width="1" stroke-opacity="0"></use></g></g><g><use xlink:href="#b3nWieS1je" opacity="1" fill="#d6b013" fill-opacity="1"></use><g><use xlink:href="#b3nWieS1je" opacity="1" fill-opacity="0" stroke="#000000" stroke-width="1" stroke-opacity="0"></use></g></g><g><use xlink:href="#b9UHLl7z3p" opacity="1" fill="#d6b013" fill-opacity="1"></use><g><use xlink:href="#b9UHLl7z3p" opacity="1" fill-opacity="0" stroke="#000000" stroke-width="1" stroke-opacity="0"></use></g></g><g><use xlink:href="#lzrVt93h" opacity="1" fill="#d6b013" fill-opacity="1"></use><g><use xlink:href="#lzrVt93h" opacity="1" fill-opacity="0" stroke="#000000" stroke-width="1" stroke-opacity="0"></use></g></g><g><use xlink:href="#a2arQfnget" opacity="1" fill="#d6b013" fill-opacity="1"></use><g><use xlink:href="#a2arQfnget" opacity="1" fill-opacity="0" stroke="#000000" stroke-width="1" stroke-opacity="0"></use></g></g></g></g></svg>