<?xml version="1.0" encoding="UTF-8" standalone="no"?>
<!DOCTYPE svg PUBLIC "-//W3C//DTD SVG 1.1//EN" "http://www.w3.org/Graphics/SVG/1.1/DTD/svg11.dtd">
<svg version="1.1" xmlns="http://www.w3.org/2000/svg" xmlns:xlink="http://www.w3.org/1999/xlink" preserveAspectRatio="xMidYMid meet" viewBox="0 0 640 640" width="640" height="640"><defs><path d="M364.66 81.85C364.66 233.58 317.11 368.35 311.69 383.19C311.69 387.04 311.69 417.86 311.69 421.71C311.69 426.56 307.01 430.49 301.24 430.49C287.26 430.49 175.38 430.49 161.4 430.49C155.62 430.49 150.94 426.56 150.94 421.71C150.94 417.86 150.94 387.04 150.94 383.19C145.53 368.35 97.98 233.58 97.98 81.85C97.98 76.99 102.66 73.06 108.43 73.06C157.59 73.06 329.63 73.06 354.2 73.06C359.98 73.06 364.66 76.99 364.66 81.85Z" id="e56oHmQfb"></path><path d="M364.66 81.85C364.66 233.58 317.11 368.35 311.69 383.19C311.69 387.04 311.69 417.86 311.69 421.71C311.69 426.56 307.01 430.49 301.24 430.49C287.26 430.49 175.38 430.49 161.4 430.49C155.62 430.49 150.94 426.56 150.94 421.71C150.94 417.86 150.94 387.04 150.94 383.19C145.53 368.35 97.98 233.58 97.98 81.85C97.98 76.99 102.66 73.06 108.43 73.06C157.59 73.06 329.63 73.06 354.2 73.06C359.98 73.06 364.66 76.99 364.66 81.85Z" id="c4rFNkyPrs"></path><path d="M118.28 81.85C118.28 76.99 122.96 73.06 128.73 73.06C126.7 73.06 110.46 73.06 108.43 73.06C102.66 73.06 97.98 76.99 97.98 81.85C97.98 233.58 145.53 368.35 150.94 383.19C150.94 387.04 150.94 417.86 150.94 421.71C150.94 426.56 155.62 430.49 161.4 430.49C163.43 430.49 179.67 430.49 181.7 430.49C175.92 430.49 171.24 426.56 171.24 421.71C171.24 414 171.24 387.04 171.24 383.19C165.83 368.35 118.28 233.58 118.28 81.85Z" id="aopvSHfVH"></path><path d="M118.28 81.85C118.28 76.99 122.96 73.06 128.73 73.06C126.7 73.06 110.46 73.06 108.43 73.06C102.66 73.06 97.98 76.99 97.98 81.85C97.98 233.58 145.53 368.35 150.94 383.19C150.94 387.04 150.94 417.86 150.94 421.71C150.94 426.56 155.62 430.49 161.4 430.49C163.43 430.49 179.67 430.49 181.7 430.49C175.92 430.49 171.24 426.56 171.24 421.71C171.24 414 171.24 387.04 171.24 383.19C165.83 368.35 118.28 233.58 118.28 81.85Z" id="dhsMWLoVU"></path><path d="M150.91 383.19C166.98 383.19 295.58 383.19 311.66 383.19C315.85 371.7 345.28 288.35 358.37 180.9C321.24 186.57 268.61 189.32 226.41 170.91C180.15 150.73 131.69 155.99 102.16 162.63C113.91 278.79 146.48 371.06 150.91 383.19Z" id="d2TycUgQ8v"></path><path d="M150.96 384.38C167.03 384.38 295.63 384.38 311.71 384.38C315.9 372.9 345.33 289.54 358.42 182.09C321.29 187.76 268.66 190.52 226.46 172.11C180.2 151.93 131.74 157.18 102.21 163.82C113.96 279.98 146.53 372.26 150.96 384.38Z" id="a1Q7llHByQ"></path><path d="M171.24 383.19C166.77 370.94 133.56 276.85 122.13 158.99C114.84 160.01 108.13 161.29 102.19 162.62C113.94 278.79 146.52 371.06 150.94 383.19C152.97 383.19 169.21 383.19 171.24 383.19Z" id="a11ev7QBjw"></path><path d="M171.24 380.18C166.77 367.93 133.56 273.84 122.13 155.97C114.84 157 108.13 158.28 102.19 159.61C113.94 275.77 146.52 368.05 150.94 380.18C152.97 380.18 169.21 380.18 171.24 380.18Z" id="b4f3QER6uZ"></path><path d="M329.54 5.39C330.18 1.99 333.91 -0.36 337.97 0.04C344.91 0.75 400.39 6.4 407.32 7.1C411.5 7.53 414.47 10.72 413.97 14.23C413.46 17.74 409.67 20.24 405.49 19.82C401.36 19.4 380.66 17.29 343.41 13.49C304.14 219.84 282.32 334.47 277.95 357.4C277.29 360.9 273.38 363.27 269.23 362.71C265.08 362.15 262.26 358.87 262.92 355.38C269.58 320.38 322.88 40.38 329.54 5.39Z" id="cSbSCq1sK"></path><path d="M329.54 5.39C330.18 1.99 333.91 -0.36 337.97 0.04C344.91 0.75 400.39 6.4 407.32 7.1C411.5 7.53 414.47 10.72 413.97 14.23C413.46 17.74 409.67 20.24 405.49 19.82C401.36 19.4 380.66 17.29 343.41 13.49C304.14 219.84 282.32 334.47 277.95 357.4C277.29 360.9 273.38 363.27 269.23 362.71C265.08 362.15 262.26 358.87 262.92 355.38C269.58 320.38 322.88 40.38 329.54 5.39Z" id="a2254uL8sr"></path><path d="M68.72 208.82C68.51 218.83 71.87 250.32 122.5 250.91C122.68 250.47 122.86 250.02 123.04 249.58C122.04 242.95 115.23 213.69 72.7 206.38C70.68 206.04 68.75 207.22 68.72 208.82Z" id="a4WxQ641SY"></path><path d="M68.72 208.82C68.51 218.83 71.87 250.32 122.5 250.91C122.68 250.47 122.86 250.02 123.04 249.58C122.04 242.95 115.23 213.69 72.7 206.38C70.68 206.04 68.75 207.22 68.72 208.82Z" id="deaenPhWJ"></path><path d="M72.7 206.38C70.68 206.04 68.75 207.22 68.72 208.82C68.51 218.83 71.87 250.32 122.5 250.91C122.6 250.66 122.7 250.42 122.8 250.16C83.18 245.29 80.36 218.01 80.56 208.82C80.56 208.58 80.62 208.34 80.71 208.12C78.19 207.45 75.53 206.87 72.7 206.38Z" id="hFaRTz5TC"></path><path d="M72.7 206.38C70.68 206.04 68.75 207.22 68.72 208.82C68.51 218.83 71.87 250.32 122.5 250.91C122.6 250.66 122.7 250.42 122.8 250.16C83.18 245.29 80.36 218.01 80.56 208.82C80.56 208.58 80.62 208.34 80.71 208.12C78.19 207.45 75.53 206.87 72.7 206.38Z" id="bcnHOzFAE"></path><path d="M148.75 210.47C141.27 218.26 125.65 237.06 118.82 260.73C121.45 260.67 123.97 261 126.38 261.69C134.26 249.28 147.79 233.87 168.4 224.22C170.71 223.13 171.12 220.66 169.25 219.16C166.98 217.32 159.06 210.93 157.93 210.02C155.35 207.93 150.98 208.14 148.75 210.47Z" id="i3n00f6qGd"></path><path d="M148.75 210.47C141.27 218.26 125.65 237.06 118.82 260.73C121.45 260.67 123.97 261 126.38 261.69C134.26 249.28 147.79 233.87 168.4 224.22C170.71 223.13 171.12 220.66 169.25 219.16C166.98 217.32 159.06 210.93 157.93 210.02C155.35 207.93 150.98 208.14 148.75 210.47Z" id="fMhi06WQZ"></path><path d="M157.93 210.02C155.35 207.93 150.98 208.14 148.75 210.47C141.27 218.26 125.65 237.06 118.82 260.73C121.44 260.67 123.97 261 126.38 261.69C127.35 260.17 128.4 258.59 129.55 256.99C137.15 236.8 150.35 221.03 157.04 214.05C157.98 213.08 159.3 212.48 160.71 212.26C160.43 212.03 158.21 210.24 157.93 210.02Z" id="j5V9PYnqnE"></path><path d="M157.93 210.02C155.35 207.93 150.98 208.14 148.75 210.47C141.27 218.26 125.65 237.06 118.82 260.73C121.44 260.67 123.97 261 126.38 261.69C127.35 260.17 128.4 258.59 129.55 256.99C137.15 236.8 150.35 221.03 157.04 214.05C157.98 213.08 159.3 212.48 160.71 212.26C160.43 212.03 158.21 210.24 157.93 210.02Z" id="aEtMMtRB2"></path><path d="M139.8 273.1C136.98 258.06 110.65 254.81 102.03 268.52C101.13 269.95 99.46 271.01 97.46 271.34C62.49 277.04 32.84 303.71 26.46 338.48C20.1 373.16 38.84 405.13 70.2 418.27C72.17 419.1 73.49 420.6 73.9 422.32C77.45 436.93 103.01 439.67 111.49 426.33C112.43 424.86 114.13 423.77 116.19 423.43C151.12 417.7 180.72 391.04 187.1 356.3C193.52 321.33 174.4 289.11 142.56 276.18C141.04 275.57 140.04 274.41 139.8 273.1Z" id="a1ijARtIW"></path><path d="M139.8 273.1C136.98 258.06 110.65 254.81 102.03 268.52C101.13 269.95 99.46 271.01 97.46 271.34C62.49 277.04 32.84 303.71 26.46 338.48C20.1 373.16 38.84 405.13 70.2 418.27C72.17 419.1 73.49 420.6 73.9 422.32C77.45 436.93 103.01 439.67 111.49 426.33C112.43 424.86 114.13 423.77 116.19 423.43C151.12 417.7 180.72 391.04 187.1 356.3C193.52 321.33 174.4 289.11 142.56 276.18C141.04 275.57 140.04 274.41 139.8 273.1Z" id="gPubCbmJS"></path><path d="M38.22 340C44.49 305.84 74.04 279.68 108.98 274.14C110.98 273.82 112.65 272.78 113.54 271.38C117.38 265.36 124.77 262.68 132.02 262.89C122.77 257.64 108.06 258.93 102.03 268.52C101.13 269.95 99.46 271.01 97.45 271.34C62.49 277.04 32.84 303.71 26.46 338.48C20.1 373.16 38.84 405.13 70.19 418.27C72.17 419.1 73.49 420.6 73.9 422.32C76.34 432.36 89.15 436.78 99.69 434.26C93.1 432.73 87.46 428.7 85.91 422.5C85.48 420.81 84.17 419.33 82.19 418.51C50.8 405.54 31.97 374.07 38.22 340Z" id="a10fXrr46Z"></path><path d="M38.22 340C44.49 305.84 74.04 279.68 108.98 274.14C110.98 273.82 112.65 272.78 113.54 271.38C117.38 265.36 124.77 262.68 132.02 262.89C122.77 257.64 108.06 258.93 102.03 268.52C101.13 269.95 99.46 271.01 97.45 271.34C62.49 277.04 32.84 303.71 26.46 338.48C20.1 373.16 38.84 405.13 70.19 418.27C72.17 419.1 73.49 420.6 73.9 422.32C76.34 432.36 89.15 436.78 99.69 434.26C93.1 432.73 87.46 428.7 85.91 422.5C85.48 420.81 84.17 419.33 82.19 418.51C50.8 405.54 31.97 374.07 38.22 340Z" id="a1bEqqtMdf"></path><path d="M146.23 361.24C146.62 361.11 146.98 360.93 147.3 360.72C147.48 360.6 147.64 360.48 147.79 360.34C147.98 360.18 148.15 359.99 148.3 359.79C148.44 359.6 148.56 359.39 148.65 359.17C148.72 359.01 148.78 358.83 148.81 358.65C148.89 358.33 148.89 358 148.84 357.67C148.81 357.5 148.77 357.33 148.71 357.17C148.41 356.29 147.64 355.53 146.63 355.09C145.61 354.64 144.38 354.52 143.26 354.76C143.05 354.8 142.84 354.86 142.64 354.93C142.25 355.06 141.88 355.24 141.56 355.46C141.39 355.58 141.23 355.7 141.08 355.83C140.89 356.01 140.72 356.19 140.57 356.38C140.43 356.58 140.31 356.79 140.22 357.01C140.15 357.17 140.1 357.34 140.06 357.51C139.99 357.84 139.98 358.17 140.03 358.5C140.06 358.67 140.1 358.84 140.16 359.01C140.47 359.88 141.23 360.64 142.24 361.09C143.26 361.54 144.49 361.66 145.61 361.41C145.82 361.37 146.03 361.31 146.23 361.24Z" id="b2wLox7KYL"></path><path d="M146.23 361.24C146.62 361.11 146.98 360.93 147.3 360.72C147.48 360.6 147.64 360.48 147.79 360.34C147.98 360.18 148.15 359.99 148.3 359.79C148.44 359.6 148.56 359.39 148.65 359.17C148.72 359.01 148.78 358.83 148.81 358.65C148.89 358.33 148.89 358 148.84 357.67C148.81 357.5 148.77 357.33 148.71 357.17C148.41 356.29 147.64 355.53 146.63 355.09C145.61 354.64 144.38 354.52 143.26 354.76C143.05 354.8 142.84 354.86 142.64 354.93C142.25 355.06 141.88 355.24 141.56 355.46C141.39 355.58 141.23 355.7 141.08 355.83C140.89 356.01 140.72 356.19 140.57 356.38C140.43 356.58 140.31 356.79 140.22 357.01C140.15 357.17 140.1 357.34 140.06 357.51C139.99 357.84 139.98 358.17 140.03 358.5C140.06 358.67 140.1 358.84 140.16 359.01C140.47 359.88 141.23 360.64 142.24 361.09C143.26 361.54 144.49 361.66 145.61 361.41C145.82 361.37 146.03 361.31 146.23 361.24Z" id="a3Q5k2e2Vd"></path><path d="M132.42 379.22C132.81 379.09 133.17 378.91 133.49 378.7C133.66 378.58 133.83 378.45 133.98 378.32C134.17 378.15 134.34 377.97 134.48 377.77C134.63 377.57 134.74 377.36 134.84 377.14C134.91 376.98 134.96 376.81 135 376.63C135.07 376.3 135.08 375.97 135.03 375.65C135 375.48 134.96 375.31 134.9 375.15C134.59 374.28 133.83 373.51 132.81 373.07C131.8 372.62 130.57 372.49 129.44 372.74C129.23 372.78 129.03 372.84 128.83 372.91C128.44 373.04 128.07 373.22 127.75 373.44C127.58 373.55 127.41 373.68 127.27 373.81C127.07 373.98 126.91 374.17 126.76 374.36C126.62 374.55 126.5 374.76 126.41 374.98C126.34 375.14 126.29 375.32 126.25 375.49C126.17 375.81 126.17 376.15 126.22 376.48C126.24 376.66 126.28 376.82 126.34 376.98C126.65 377.86 127.42 378.62 128.43 379.07C129.44 379.51 130.68 379.63 131.8 379.39C132.01 379.35 132.22 379.29 132.42 379.22Z" id="aP9oLcHwX"></path><path d="M132.42 379.22C132.81 379.09 133.17 378.91 133.49 378.7C133.66 378.58 133.83 378.45 133.98 378.32C134.17 378.15 134.34 377.97 134.48 377.77C134.63 377.57 134.74 377.36 134.84 377.14C134.91 376.98 134.96 376.81 135 376.63C135.07 376.3 135.08 375.97 135.03 375.65C135 375.48 134.96 375.31 134.9 375.15C134.59 374.28 133.83 373.51 132.81 373.07C131.8 372.62 130.57 372.49 129.44 372.74C129.23 372.78 129.03 372.84 128.83 372.91C128.44 373.04 128.07 373.22 127.75 373.44C127.58 373.55 127.41 373.68 127.27 373.81C127.07 373.98 126.91 374.17 126.76 374.36C126.62 374.55 126.5 374.76 126.41 374.98C126.34 375.14 126.29 375.32 126.25 375.49C126.17 375.81 126.17 376.15 126.22 376.48C126.24 376.66 126.28 376.82 126.34 376.98C126.65 377.86 127.42 378.62 128.43 379.07C129.44 379.51 130.68 379.63 131.8 379.39C132.01 379.35 132.22 379.29 132.42 379.22Z" id="f14agIQAk4"></path><path d="M119.38 397.54C119.76 397.41 120.13 397.23 120.45 397.02C120.62 396.9 120.79 396.78 120.93 396.64C121.13 396.46 121.3 396.28 121.44 396.09C121.58 395.89 121.7 395.68 121.79 395.46C121.87 395.3 121.92 395.12 121.96 394.94C122.03 394.62 122.04 394.29 121.99 393.97C121.96 393.8 121.92 393.63 121.86 393.46C121.55 392.59 120.79 391.83 119.77 391.38C118.76 390.93 117.53 390.81 116.4 391.06C116.19 391.1 115.99 391.16 115.79 391.23C115.4 391.36 115.03 391.54 114.71 391.76C114.53 391.87 114.37 391.99 114.23 392.13C114.03 392.29 113.86 392.48 113.72 392.68C113.58 392.87 113.46 393.08 113.37 393.3C113.3 393.46 113.24 393.63 113.2 393.81C113.13 394.14 113.12 394.47 113.18 394.8C113.2 394.97 113.24 395.14 113.3 395.3C113.61 396.18 114.38 396.94 115.39 397.38C116.4 397.84 117.64 397.95 118.76 397.71C118.97 397.67 119.18 397.61 119.38 397.54Z" id="a2DdcZO9ke"></path><path d="M119.38 397.54C119.76 397.41 120.13 397.23 120.45 397.02C120.62 396.9 120.79 396.78 120.93 396.64C121.13 396.46 121.3 396.28 121.44 396.09C121.58 395.89 121.7 395.68 121.79 395.46C121.87 395.3 121.92 395.12 121.96 394.94C122.03 394.62 122.04 394.29 121.99 393.97C121.96 393.8 121.92 393.63 121.86 393.46C121.55 392.59 120.79 391.83 119.77 391.38C118.76 390.93 117.53 390.81 116.4 391.06C116.19 391.1 115.99 391.16 115.79 391.23C115.4 391.36 115.03 391.54 114.71 391.76C114.53 391.87 114.37 391.99 114.23 392.13C114.03 392.29 113.86 392.48 113.72 392.68C113.58 392.87 113.46 393.08 113.37 393.3C113.3 393.46 113.24 393.63 113.2 393.81C113.13 394.14 113.12 394.47 113.18 394.8C113.2 394.97 113.24 395.14 113.3 395.3C113.61 396.18 114.38 396.94 115.39 397.38C116.4 397.84 117.64 397.95 118.76 397.71C118.97 397.67 119.18 397.61 119.38 397.54Z" id="baxKlT9iV"></path><path d="M156.38 377.77C156.76 377.61 157.11 377.43 157.42 377.2C157.59 377.08 157.75 376.95 157.89 376.81C158.07 376.63 158.23 376.44 158.36 376.24C158.49 376.03 158.59 375.82 158.67 375.6C158.74 375.44 158.78 375.26 158.81 375.08C158.86 374.76 158.85 374.42 158.78 374.1C158.74 373.93 158.69 373.76 158.62 373.6C158.26 372.74 157.45 372.01 156.41 371.6C155.37 371.19 154.13 371.11 153.02 371.4C152.82 371.45 152.61 371.51 152.42 371.59C152.04 371.74 151.68 371.93 151.37 372.16C151.21 372.27 151.05 372.41 150.92 372.54C150.73 372.72 150.57 372.91 150.44 373.12C150.31 373.32 150.21 373.53 150.13 373.75C150.07 373.91 150.02 374.08 150 374.26C149.94 374.59 149.95 374.92 150.03 375.25C150.06 375.42 150.11 375.59 150.18 375.75C150.54 376.61 151.35 377.35 152.39 377.75C153.43 378.16 154.67 378.24 155.78 377.95C155.98 377.9 156.19 377.84 156.38 377.77Z" id="b36qBuirnj"></path><path d="M156.38 377.77C156.76 377.61 157.11 377.43 157.42 377.2C157.59 377.08 157.75 376.95 157.89 376.81C158.07 376.63 158.23 376.44 158.36 376.24C158.49 376.03 158.59 375.82 158.67 375.6C158.74 375.44 158.78 375.26 158.81 375.08C158.86 374.76 158.85 374.42 158.78 374.1C158.74 373.93 158.69 373.76 158.62 373.6C158.26 372.74 157.45 372.01 156.41 371.6C155.37 371.19 154.13 371.11 153.02 371.4C152.82 371.45 152.61 371.51 152.42 371.59C152.04 371.74 151.68 371.93 151.37 372.16C151.21 372.27 151.05 372.41 150.92 372.54C150.73 372.72 150.57 372.91 150.44 373.12C150.31 373.32 150.21 373.53 150.13 373.75C150.07 373.91 150.02 374.08 150 374.26C149.94 374.59 149.95 374.92 150.03 375.25C150.06 375.42 150.11 375.59 150.18 375.75C150.54 376.61 151.35 377.35 152.39 377.75C153.43 378.16 154.67 378.24 155.78 377.95C155.98 377.9 156.19 377.84 156.38 377.77Z" id="d3sLcwtL5R"></path><path d="M144.45 396.53C144.83 396.39 145.18 396.2 145.49 395.97C145.66 395.85 145.82 395.72 145.96 395.58C146.14 395.4 146.3 395.21 146.43 395.01C146.56 394.81 146.67 394.6 146.74 394.37C146.81 394.2 146.85 394.03 146.88 393.85C146.93 393.52 146.92 393.19 146.85 392.87C146.81 392.7 146.76 392.54 146.69 392.38C146.33 391.51 145.52 390.78 144.48 390.37C143.44 389.96 142.2 389.88 141.09 390.17C140.89 390.22 140.69 390.29 140.49 390.36C140.11 390.51 139.75 390.7 139.44 390.92C139.28 391.05 139.12 391.18 138.99 391.31C138.8 391.5 138.64 391.68 138.51 391.88C138.38 392.08 138.28 392.29 138.2 392.52C138.14 392.68 138.09 392.86 138.07 393.03C138.01 393.36 138.02 393.7 138.1 394.03C138.13 394.19 138.18 394.35 138.25 394.51C138.61 395.38 139.42 396.11 140.46 396.52C141.5 396.94 142.74 397.01 143.85 396.73C144.05 396.68 144.26 396.61 144.45 396.53Z" id="b3dvoJIzhT"></path><path d="M144.45 396.53C144.83 396.39 145.18 396.2 145.49 395.97C145.66 395.85 145.82 395.72 145.96 395.58C146.14 395.4 146.3 395.21 146.43 395.01C146.56 394.81 146.67 394.6 146.74 394.37C146.81 394.2 146.85 394.03 146.88 393.85C146.93 393.52 146.92 393.19 146.85 392.87C146.81 392.7 146.76 392.54 146.69 392.38C146.33 391.51 145.52 390.78 144.48 390.37C143.44 389.96 142.2 389.88 141.09 390.17C140.89 390.22 140.69 390.29 140.49 390.36C140.11 390.51 139.75 390.7 139.44 390.92C139.28 391.05 139.12 391.18 138.99 391.31C138.8 391.5 138.64 391.68 138.51 391.88C138.38 392.08 138.28 392.29 138.2 392.52C138.14 392.68 138.09 392.86 138.07 393.03C138.01 393.36 138.02 393.7 138.1 394.03C138.13 394.19 138.18 394.35 138.25 394.51C138.61 395.38 139.42 396.11 140.46 396.52C141.5 396.94 142.74 397.01 143.85 396.73C144.05 396.68 144.26 396.61 144.45 396.53Z" id="a67LaC9939"></path><path d="M193.92 375.7C180.21 378.83 179.3 389.31 177.45 396.15C180.53 394.75 195.94 387.73 223.68 375.1C210.84 373.91 200.92 374.11 193.92 375.7Z" id="ecwUbYCDx"></path><path d="M177.45 396.15C205.19 383.52 220.6 376.5 223.68 375.1C214.88 375.51 204.42 373.32 193.92 375.7" id="f16nrEOXa"></path><path d="M177.45 396.15C205.19 383.52 220.6 376.5 223.68 375.1C214.88 375.51 200.73 380.28 190.42 382.57" id="j5QUY3IOz"></path><path d="M203.69 397.15C192.32 405.44 183.82 399.24 177.45 396.15C180.53 394.75 195.94 387.73 223.68 375.1C216.15 385.56 209.48 392.92 203.69 397.15Z" id="a3cBrfWSR9"></path><path d="M177.45 396.15C205.19 383.52 220.6 376.5 223.68 375.1C217.59 381.47 212.38 390.8 203.69 397.15" id="agriXO6Nf"></path><path d="M177.45 396.15C205.19 383.52 220.6 376.5 223.68 375.1C217.59 381.47 204.71 389.01 196.21 395.28" id="cbUFAbihx"></path><path d="M218.98 377.24L218.98 377.24L218.98 377.24L218.98 377.24L218.98 377.24" id="aH28o4tIV"></path><path d="M101.38 429.59C113.24 424.19 208.05 381.02 219.9 375.62C220.49 375.36 221.06 375.58 221.33 376.17C221.6 376.77 221.39 377.34 220.8 377.61C208.95 383.01 114.14 426.18 102.29 431.57C101.9 431.75 101.13 431.62 100.86 431.03C100.59 430.43 100.8 429.86 101.38 429.59Z" id="d1UssoqGeF"></path><path d="M147.24 373.94C140.21 385.53 146.63 393.4 150.02 399.29C151.14 396.21 156.74 380.79 166.81 353.04C157.36 361.02 150.83 367.99 147.24 373.94Z" id="l2euprvjCy"></path><path d="M149.93 399.09C160.06 371.46 165.68 356.11 166.81 353.04C161.11 359.23 152.63 365.01 147.24 373.94" id="bIvnkLpc"></path><path d="M149.93 399.09C160.06 371.46 165.68 356.11 166.81 353.04C161.11 359.23 154.92 372.12 149.53 381.05" id="d2cEzy1NjS"></path><path d="M168.14 381.93C165.98 395.38 156.08 397.01 149.74 399.18C150.88 396.1 156.57 380.72 166.81 353.04C168.81 365.4 169.25 375.03 168.14 381.93Z" id="bFFc5ie7h"></path><path d="M149.93 399.09C160.06 371.46 165.68 356.11 166.81 353.04C167.13 361.53 169.81 371.58 168.14 381.93" id="a4zWfHcjiV"></path><path d="M149.93 399.09C160.06 371.46 165.68 356.11 166.81 353.04C167.13 361.53 163.51 375.4 161.84 385.76" id="d2UneRiYqa"></path><path d="M115.44 396.57C109.85 405.59 114.87 411.94 117.63 416.44C118.51 414.02 122.94 401.93 130.92 380.18C123.51 386.42 118.35 391.89 115.44 396.57Z" id="cbWz5BAnE"></path><path d="M117.63 416.44C125.6 394.68 130.03 382.59 130.92 380.18C126.52 385.06 119.81 389.55 115.44 396.57" id="a1VNQfSTdf"></path><path d="M117.63 416.44C125.6 394.68 130.03 382.59 130.92 380.18C126.52 385.06 121.47 395.27 117.29 402.2" id="bSvYtWYpL"></path><path d="M132.05 402.92C130.47 413.47 122.6 414.89 117.63 416.44C118.51 414.02 122.94 401.93 130.92 380.18C132.48 389.85 132.86 397.43 132.05 402.92Z" id="a2yCiib4Xx"></path><path d="M117.54 416.24C125.56 394.6 130.02 382.58 130.92 380.18C131.1 386.81 133.27 394.69 132.05 402.92" id="aIZP5yiNU"></path><path d="M117.54 416.24C125.56 394.6 130.02 382.58 130.92 380.18C131.1 386.81 128.34 397.89 127.03 405.92" id="c23bTqj5QQ"></path><path d="M113.53 424.06C114.87 420.45 125.57 391.6 126.91 387.99C127.12 387.42 127.71 387.15 128.28 387.37C128.85 387.59 129.12 388.19 128.91 388.76C127.59 392.36 117.05 421.14 115.73 424.73C115.52 425.31 114.93 425.58 114.36 425.36C113.97 425.54 113.79 425.14 113.69 424.94C113.6 424.74 113.42 424.35 113.53 424.06Z" id="bYLIX9kPb"></path><path d="M144.77 410.07C146.11 406.44 156.9 377.36 158.25 373.72C158.46 373.15 159.05 372.88 159.62 373.1C160.19 373.32 160.47 373.91 160.26 374.49C158.93 378.12 148.3 407.12 146.97 410.75C146.76 411.33 146.17 411.59 145.6 411.38C145.31 411.27 145.02 411.16 144.93 410.96C144.84 410.76 144.66 410.36 144.77 410.07Z" id="e2dCj15HlQ"></path><path d="M183.77 429.24C170.42 426.93 168.7 416.92 166.48 410.5C169.54 411.68 184.84 417.58 212.38 428.2C200.16 430.09 190.62 430.44 183.77 429.24Z" id="b9eUHVg4kx"></path><path d="M166.57 410.7C194.06 421.2 209.33 427.03 212.38 428.2C203.97 428.43 194.04 431.03 183.77 429.24" id="b9jFsrpqsW"></path><path d="M166.57 410.7C194.06 421.2 209.33 427.03 212.38 428.2C203.97 428.43 190.19 424.64 179.91 422.85" id="b49KVTQy6c"></path><path d="M191.47 408.23C179.91 401.03 172.18 407.42 166.38 410.78C169.44 411.95 184.78 417.75 212.38 428.2C204.38 418.58 197.4 411.92 191.47 408.23Z" id="ej1BCUJv"></path><path d="M166.57 410.7C194.06 421.2 209.33 427.03 212.38 428.2C206.19 422.39 200.37 413.77 191.47 408.23" id="aK8pEqi05"></path><path d="M166.57 410.7C194.06 421.2 209.33 427.03 212.38 428.2C206.19 422.39 193.35 416.01 184.44 410.47" id="asETOW7uN"></path><path d="M145.82 438.37C135.35 436.66 133.86 428.71 132.28 423.67C134.68 424.59 146.71 429.19 168.35 437.46C158.78 438.94 151.27 439.24 145.82 438.37Z" id="a11gKLknxg"></path><path d="M132.28 423.67C153.92 431.94 165.95 436.54 168.35 437.46C161.78 437.57 153.99 439.68 145.82 438.37" id="c65swkd2Ee"></path><path d="M132.28 423.67C153.92 431.94 165.95 436.54 168.35 437.46C161.78 437.57 150.77 434.68 142.79 433.27" id="ajS3EKdjB"></path><path d="M151.94 421.67C142.94 415.94 136.71 420.94 132.28 423.67C134.68 424.59 146.71 429.19 168.35 437.46C162.08 429.92 156.61 424.66 151.94 421.67Z" id="bHfB9kkq7"></path><path d="M132.37 423.87C154.01 432.14 166.04 436.74 168.44 437.66C163.56 433.17 159.04 426.35 152.03 421.87" id="a6quQYuV"></path><path d="M132.37 423.87C154.01 432.14 166.04 436.74 168.44 437.66C163.56 433.17 153.39 427.97 146.47 423.68" id="e5rxlFc0G9"></path><path d="M123.2 420.37C123.41 419.8 124 419.53 124.57 419.75C128.15 421.12 156.79 432.06 160.36 433.42C160.94 433.64 161.21 434.24 161 434.81C160.79 435.39 160.2 435.66 159.63 435.44C156.05 434.07 127.42 423.13 123.84 421.76C123.55 421.65 123.46 421.45 123.37 421.26C123.28 421.06 123.1 420.66 123.2 420.37Z" id="a4ednDflFz"></path><path d="M154.74 406.01C154.95 405.44 155.54 405.17 156.11 405.39C159.69 406.75 188.32 417.69 191.9 419.06C192.48 419.28 192.75 419.88 192.54 420.45C192.33 421.03 191.74 421.3 191.16 421.08C187.59 419.71 158.95 408.77 155.37 407.4C155.09 407.29 155 407.09 154.91 406.9C154.82 406.7 154.64 406.3 154.74 406.01Z" id="h6I20AxcJs"></path></defs><g><g><g><use xlink:href="#e56oHmQfb" opacity="1" fill="#e0f7fc" fill-opacity="1"></use><g><use xlink:href="#e56oHmQfb" opacity="1" fill-opacity="0" stroke="#000000" stroke-width="1" stroke-opacity="0"></use></g></g><g><use xlink:href="#c4rFNkyPrs" opacity="1" fill="#000000" fill-opacity="0"></use><g><use xlink:href="#c4rFNkyPrs" opacity="1" fill-opacity="0" stroke="#000000" stroke-width="1" stroke-opacity="0"></use></g></g><g><use xlink:href="#aopvSHfVH" opacity="1" fill="#beedf4" fill-opacity="1"></use><g><use xlink:href="#aopvSHfVH" opacity="1" fill-opacity="0" stroke="#000000" stroke-width="1" stroke-opacity="0"></use></g></g><g><use xlink:href="#dhsMWLoVU" opacity="1" fill="#000000" fill-opacity="0"></use><g><use xlink:href="#dhsMWLoVU" opacity="1" fill-opacity="0" stroke="#000000" stroke-width="1" stroke-opacity="0"></use></g></g><g><use xlink:href="#d2TycUgQ8v" opacity="1" fill="#c5e84b" fill-opacity="0.78"></use><g><use xlink:href="#d2TycUgQ8v" opacity="1" fill-opacity="0" stroke="#000000" stroke-width="1" stroke-opacity="0"></use></g></g><g><use xlink:href="#a1Q7llHByQ" opacity="1" fill="#000000" fill-opacity="0"></use><g><use xlink:href="#a1Q7llHByQ" opacity="1" fill-opacity="0" stroke="#000000" stroke-width="1" stroke-opacity="0"></use></g></g><g><use xlink:href="#a11ev7QBjw" opacity="1" fill="#c7ea56" fill-opacity="1"></use><g><use xlink:href="#a11ev7QBjw" opacity="1" fill-opacity="0" stroke="#000000" stroke-width="1" stroke-opacity="0"></use></g></g><g><use xlink:href="#b4f3QER6uZ" opacity="1" fill="#000000" fill-opacity="0"></use><g><use xlink:href="#b4f3QER6uZ" opacity="1" fill-opacity="0" stroke="#000000" stroke-width="1" stroke-opacity="0"></use></g></g><g><use xlink:href="#cSbSCq1sK" opacity="1" fill="#ea473b" fill-opacity="1"></use><g><use xlink:href="#cSbSCq1sK" opacity="1" fill-opacity="0" stroke="#000000" stroke-width="1" stroke-opacity="0"></use></g></g><g><use xlink:href="#a2254uL8sr" opacity="1" fill="#000000" fill-opacity="0"></use><g><use xlink:href="#a2254uL8sr" opacity="1" fill-opacity="0" stroke="#000000" stroke-width="1" stroke-opacity="0"></use></g></g><g><use xlink:href="#a4WxQ641SY" opacity="1" fill="#3bbc56" fill-opacity="1"></use><g><use xlink:href="#a4WxQ641SY" opacity="1" fill-opacity="0" stroke="#000000" stroke-width="1" stroke-opacity="0"></use></g></g><g><use xlink:href="#deaenPhWJ" opacity="1" fill="#000000" fill-opacity="0"></use><g><use xlink:href="#deaenPhWJ" opacity="1" fill-opacity="0" stroke="#000000" stroke-width="1" stroke-opacity="0"></use></g></g><g><use xlink:href="#hFaRTz5TC" opacity="1" fill="#30aa44" fill-opacity="1"></use><g><use xlink:href="#hFaRTz5TC" opacity="1" fill-opacity="0" stroke="#000000" stroke-width="1" stroke-opacity="0"></use></g></g><g><use xlink:href="#bcnHOzFAE" opacity="1" fill="#000000" fill-opacity="0"></use><g><use xlink:href="#bcnHOzFAE" opacity="1" fill-opacity="0" stroke="#000000" stroke-width="1" stroke-opacity="0"></use></g></g><g><use xlink:href="#i3n00f6qGd" opacity="1" fill="#93603e" fill-opacity="1"></use><g><use xlink:href="#i3n00f6qGd" opacity="1" fill-opacity="0" stroke="#000000" stroke-width="1" stroke-opacity="0"></use></g></g><g><use xlink:href="#fMhi06WQZ" opacity="1" fill="#000000" fill-opacity="0"></use><g><use xlink:href="#fMhi06WQZ" opacity="1" fill-opacity="0" stroke="#000000" stroke-width="1" stroke-opacity="0"></use></g></g><g><use xlink:href="#j5V9PYnqnE" opacity="1" fill="#7f573c" fill-opacity="1"></use><g><use xlink:href="#j5V9PYnqnE" opacity="1" fill-opacity="0" stroke="#000000" stroke-width="1" stroke-opacity="0"></use></g></g><g><use xlink:href="#aEtMMtRB2" opacity="1" fill="#000000" fill-opacity="0"></use><g><use xlink:href="#aEtMMtRB2" opacity="1" fill-opacity="0" stroke="#000000" stroke-width="1" stroke-opacity="0"></use></g></g><g><use xlink:href="#a1ijARtIW" opacity="1" fill="#f2d422" fill-opacity="1"></use><g><use xlink:href="#a1ijARtIW" opacity="1" fill-opacity="0" stroke="#000000" stroke-width="1" stroke-opacity="0"></use></g></g><g><use xlink:href="#gPubCbmJS" opacity="1" fill="#000000" fill-opacity="0"></use><g><use xlink:href="#gPubCbmJS" opacity="1" fill-opacity="0" stroke="#000000" stroke-width="1" stroke-opacity="0"></use></g></g><g><use xlink:href="#a10fXrr46Z" opacity="1" fill="#e2c01a" fill-opacity="1"></use><g><use xlink:href="#a10fXrr46Z" opacity="1" fill-opacity="0" stroke="#000000" stroke-width="1" stroke-opacity="0"></use></g></g><g><use xlink:href="#a1bEqqtMdf" opacity="1" fill="#000000" fill-opacity="0"></use><g><use xlink:href="#a1bEqqtMdf" opacity="1" fill-opacity="0" stroke="#000000" stroke-width="1" stroke-opacity="0"></use></g></g><g><use xlink:href="#b2wLox7KYL" opacity="1" fill="#d6b013" fill-opacity="1"></use><g><use xlink:href="#b2wLox7KYL" opacity="1" fill-opacity="0" stroke="#000000" stroke-width="1" stroke-opacity="0"></use></g></g><g><use xlink:href="#a3Q5k2e2Vd" opacity="1" fill="#000000" fill-opacity="0"></use><g><use xlink:href="#a3Q5k2e2Vd" opacity="1" fill-opacity="0" stroke="#000000" stroke-width="1" stroke-opacity="0"></use></g></g><g><use xlink:href="#aP9oLcHwX" opacity="1" fill="#d6b013" fill-opacity="1"></use><g><use xlink:href="#aP9oLcHwX" opacity="1" fill-opacity="0" stroke="#000000" stroke-width="1" stroke-opacity="0"></use></g></g><g><use xlink:href="#f14agIQAk4" opacity="1" fill="#000000" fill-opacity="0"></use><g><use xlink:href="#f14agIQAk4" opacity="1" fill-opacity="0" stroke="#000000" stroke-width="1" stroke-opacity="0"></use></g></g><g><use xlink:href="#a2DdcZO9ke" opacity="1" fill="#d6b013" fill-opacity="1"></use><g><use xlink:href="#a2DdcZO9ke" opacity="1" fill-opacity="0" stroke="#000000" stroke-width="1" stroke-opacity="0"></use></g></g><g><use xlink:href="#baxKlT9iV" opacity="1" fill="#000000" fill-opacity="0"></use><g><use xlink:href="#baxKlT9iV" opacity="1" fill-opacity="0" stroke="#000000" stroke-width="1" stroke-opacity="0"></use></g></g><g><use xlink:href="#b36qBuirnj" opacity="1" fill="#d6b013" fill-opacity="1"></use><g><use xlink:href="#b36qBuirnj" opacity="1" fill-opacity="0" stroke="#000000" stroke-width="1" stroke-opacity="0"></use></g></g><g><use xlink:href="#d3sLcwtL5R" opacity="1" fill="#000000" fill-opacity="0"></use><g><use xlink:href="#d3sLcwtL5R" opacity="1" fill-opacity="0" stroke="#000000" stroke-width="1" stroke-opacity="0"></use></g></g><g><use xlink:href="#b3dvoJIzhT" opacity="1" fill="#d6b013" fill-opacity="1"></use><g><use xlink:href="#b3dvoJIzhT" opacity="1" fill-opacity="0" stroke="#000000" stroke-width="1" stroke-opacity="0"></use></g></g><g><use xlink:href="#a67LaC9939" opacity="1" fill="#000000" fill-opacity="0"></use><g><use xlink:href="#a67LaC9939" opacity="1" fill-opacity="0" stroke="#000000" stroke-width="1" stroke-opacity="0"></use></g></g><g><use xlink:href="#ecwUbYCDx" opacity="1" fill="#80bc2b" fill-opacity="1"></use><g><use xlink:href="#ecwUbYCDx" opacity="1" fill-opacity="0" stroke="#000000" stroke-width="1" stroke-opacity="0"></use></g></g><g><use xlink:href="#f16nrEOXa" opacity="1" fill="#68a519" fill-opacity="1"></use><g><use xlink:href="#f16nrEOXa" opacity="1" fill-opacity="0" stroke="#000000" stroke-width="1" stroke-opacity="0"></use></g></g><g><use xlink:href="#j5QUY3IOz" opacity="1" fill="#528c00" fill-opacity="1"></use><g><use xlink:href="#j5QUY3IOz" opacity="1" fill-opacity="0" stroke="#000000" stroke-width="1" stroke-opacity="0"></use></g></g><g><use xlink:href="#a3cBrfWSR9" opacity="1" fill="#80bc2b" fill-opacity="1"></use><g><use xlink:href="#a3cBrfWSR9" opacity="1" fill-opacity="0" stroke="#000000" stroke-width="1" stroke-opacity="0"></use></g></g><g><use xlink:href="#agriXO6Nf" opacity="1" fill="#68a519" fill-opacity="1"></use><g><use xlink:href="#agriXO6Nf" opacity="1" fill-opacity="0" stroke="#000000" stroke-width="1" stroke-opacity="0"></use></g></g><g><use xlink:href="#cbUFAbihx" opacity="1" fill="#528c00" fill-opacity="1"></use><g><use xlink:href="#cbUFAbihx" opacity="1" fill-opacity="0" stroke="#000000" stroke-width="1" stroke-opacity="0"></use></g></g><g><use xlink:href="#aH28o4tIV" opacity="1" fill="#80bc2b" fill-opacity="1"></use><g><use xlink:href="#aH28o4tIV" opacity="1" fill-opacity="0" stroke="#000000" stroke-width="1" stroke-opacity="0"></use></g></g><g><use xlink:href="#d1UssoqGeF" opacity="1" fill="#02243e" fill-opacity="1"></use><g><use xlink:href="#d1UssoqGeF" opacity="1" fill-opacity="0" stroke="#000000" stroke-width="1" stroke-opacity="0"></use></g></g><g><use xlink:href="#l2euprvjCy" opacity="1" fill="#80bc2b" fill-opacity="1"></use><g><use xlink:href="#l2euprvjCy" opacity="1" fill-opacity="0" stroke="#000000" stroke-width="1" stroke-opacity="0"></use></g></g><g><use xlink:href="#bIvnkLpc" opacity="1" fill="#68a519" fill-opacity="1"></use><g><use xlink:href="#bIvnkLpc" opacity="1" fill-opacity="0" stroke="#000000" stroke-width="1" stroke-opacity="0"></use></g></g><g><use xlink:href="#d2cEzy1NjS" opacity="1" fill="#528c00" fill-opacity="1"></use><g><use xlink:href="#d2cEzy1NjS" opacity="1" fill-opacity="0" stroke="#000000" stroke-width="1" stroke-opacity="0"></use></g></g><g><use xlink:href="#bFFc5ie7h" opacity="1" fill="#80bc2b" fill-opacity="1"></use><g><use xlink:href="#bFFc5ie7h" opacity="1" fill-opacity="0" stroke="#000000" stroke-width="1" stroke-opacity="0"></use></g></g><g><use xlink:href="#a4zWfHcjiV" opacity="1" fill="#68a519" fill-opacity="1"></use><g><use xlink:href="#a4zWfHcjiV" opacity="1" fill-opacity="0" stroke="#000000" stroke-width="1" stroke-opacity="0"></use></g></g><g><use xlink:href="#d2UneRiYqa" opacity="1" fill="#528c00" fill-opacity="1"></use><g><use xlink:href="#d2UneRiYqa" opacity="1" fill-opacity="0" stroke="#000000" stroke-width="1" stroke-opacity="0"></use></g></g><g><use xlink:href="#cbWz5BAnE" opacity="1" fill="#80bc2b" fill-opacity="1"></use><g><use xlink:href="#cbWz5BAnE" opacity="1" fill-opacity="0" stroke="#000000" stroke-width="1" stroke-opacity="0"></use></g></g><g><use xlink:href="#a1VNQfSTdf" opacity="1" fill="#68a519" fill-opacity="1"></use><g><use xlink:href="#a1VNQfSTdf" opacity="1" fill-opacity="0" stroke="#000000" stroke-width="1" stroke-opacity="0"></use></g></g><g><use xlink:href="#bSvYtWYpL" opacity="1" fill="#528c00" fill-opacity="1"></use><g><use xlink:href="#bSvYtWYpL" opacity="1" fill-opacity="0" stroke="#000000" stroke-width="1" stroke-opacity="0"></use></g></g><g><use xlink:href="#a2yCiib4Xx" opacity="1" fill="#80bc2b" fill-opacity="1"></use><g><use xlink:href="#a2yCiib4Xx" opacity="1" fill-opacity="0" stroke="#000000" stroke-width="1" stroke-opacity="0"></use></g></g><g><use xlink:href="#aIZP5yiNU" opacity="1" fill="#68a519" fill-opacity="1"></use><g><use xlink:href="#aIZP5yiNU" opacity="1" fill-opacity="0" stroke="#000000" stroke-width="1" stroke-opacity="0"></use></g></g><g><use xlink:href="#c23bTqj5QQ" opacity="1" fill="#528c00" fill-opacity="1"></use><g><use xlink:href="#c23bTqj5QQ" opacity="1" fill-opacity="0" stroke="#000000" stroke-width="1" stroke-opacity="0"></use></g></g><g><use xlink:href="#bYLIX9kPb" opacity="1" fill="#02243e" fill-opacity="1"></use><g><use xlink:href="#bYLIX9kPb" opacity="1" fill-opacity="0" stroke="#000000" stroke-width="1" stroke-opacity="0"></use></g></g><g><use xlink:href="#e2dCj15HlQ" opacity="1" fill="#02243e" fill-opacity="1"></use><g><use xlink:href="#e2dCj15HlQ" opacity="1" fill-opacity="0" stroke="#000000" stroke-width="1" stroke-opacity="0"></use></g></g><g><use xlink:href="#b9eUHVg4kx" opacity="1" fill="#80bc2b" fill-opacity="1"></use><g><use xlink:href="#b9eUHVg4kx" opacity="1" fill-opacity="0" stroke="#000000" stroke-width="1" stroke-opacity="0"></use></g></g><g><use xlink:href="#b9jFsrpqsW" opacity="1" fill="#68a519" fill-opacity="1"></use><g><use xlink:href="#b9jFsrpqsW" opacity="1" fill-opacity="0" stroke="#000000" stroke-width="1" stroke-opacity="0"></use></g></g><g><use xlink:href="#b49KVTQy6c" opacity="1" fill="#528c00" fill-opacity="1"></use><g><use xlink:href="#b49KVTQy6c" opacity="1" fill-opacity="0" stroke="#000000" stroke-width="1" stroke-opacity="0"></use></g></g><g><use xlink:href="#ej1BCUJv" opacity="1" fill="#80bc2b" fill-opacity="1"></use><g><use xlink:href="#ej1BCUJv" opacity="1" fill-opacity="0" stroke="#000000" stroke-width="1" stroke-opacity="0"></use></g></g><g><use xlink:href="#aK8pEqi05" opacity="1" fill="#68a519" fill-opacity="1"></use><g><use xlink:href="#aK8pEqi05" opacity="1" fill-opacity="0" stroke="#000000" stroke-width="1" stroke-opacity="0"></use></g></g><g><use xlink:href="#asETOW7uN" opacity="1" fill="#528c00" fill-opacity="1"></use><g><use xlink:href="#asETOW7uN" opacity="1" fill-opacity="0" stroke="#000000" stroke-width="1" stroke-opacity="0"></use></g></g><g><use xlink:href="#a11gKLknxg" opacity="1" fill="#80bc2b" fill-opacity="1"></use><g><use xlink:href="#a11gKLknxg" opacity="1" fill-opacity="0" stroke="#000000" stroke-width="1" stroke-opacity="0"></use></g></g><g><use xlink:href="#c65swkd2Ee" opacity="1" fill="#68a519" fill-opacity="1"></use><g><use xlink:href="#c65swkd2Ee" opacity="1" fill-opacity="0" stroke="#000000" stroke-width="1" stroke-opacity="0"></use></g></g><g><use xlink:href="#ajS3EKdjB" opacity="1" fill="#528c00" fill-opacity="1"></use><g><use xlink:href="#ajS3EKdjB" opacity="1" fill-opacity="0" stroke="#000000" stroke-width="1" stroke-opacity="0"></use></g></g><g><use xlink:href="#bHfB9kkq7" opacity="1" fill="#80bc2b" fill-opacity="1"></use><g><use xlink:href="#bHfB9kkq7" opacity="1" fill-opacity="0" stroke="#000000" stroke-width="1" stroke-opacity="0"></use></g></g><g><use xlink:href="#a6quQYuV" opacity="1" fill="#68a519" fill-opacity="1"></use><g><use xlink:href="#a6quQYuV" opacity="1" fill-opacity="0" stroke="#000000" stroke-width="1" stroke-opacity="0"></use></g></g><g><use xlink:href="#e5rxlFc0G9" opacity="1" fill="#528c00" fill-opacity="1"></use><g><use xlink:href="#e5rxlFc0G9" opacity="1" fill-opacity="0" stroke="#000000" stroke-width="1" stroke-opacity="0"></use></g></g><g><use xlink:href="#a4ednDflFz" opacity="1" fill="#02243e" fill-opacity="1"></use><g><use xlink:href="#a4ednDflFz" opacity="1" fill-opacity="0" stroke="#000000" stroke-width="1" stroke-opacity="0"></use></g></g><g><use xlink:href="#h6I20AxcJs" opacity="1" fill="#02243e" fill-opacity="1"></use><g><use xlink:href="#h6I20AxcJs" opacity="1" fill-opacity="0" stroke="#000000" stroke-width="1" stroke-opacity="0"></use></g></g></g></g></svg>