<?xml version="1.0" encoding="UTF-8" standalone="no"?>
<!DOCTYPE svg PUBLIC "-//W3C//DTD SVG 1.1//EN" "http://www.w3.org/Graphics/SVG/1.1/DTD/svg11.dtd">
<svg version="1.1" xmlns="http://www.w3.org/2000/svg" xmlns:xlink="http://www.w3.org/1999/xlink" preserveAspectRatio="xMidYMid meet" viewBox="0 0 640 640" width="640" height="640"><defs><path d="M414.6 87.45C420.23 87.45 424.79 91.85 424.79 97.26C424.79 266.56 378.42 416.95 373.14 433.5C373.14 437.8 373.14 472.18 373.14 476.48C373.14 481.89 368.57 486.29 362.94 486.29C349.3 486.29 240.19 486.29 226.55 486.29C220.92 486.29 216.36 481.89 216.36 476.48C216.36 472.18 216.36 437.8 216.36 433.5C211.08 416.95 164.7 266.56 164.7 97.26C164.7 91.85 169.27 87.45 174.9 87.45C222.84 87.45 390.63 87.45 414.6 87.45Z" id="a1AAL3rYxZ"></path><path d="M236.16 433.5C230.88 416.95 184.5 266.56 184.5 97.26C184.5 91.85 189.07 87.45 194.7 87.45C192.72 87.45 176.88 87.45 174.9 87.45C169.27 87.45 164.7 91.85 164.7 97.26C164.7 266.56 211.08 416.95 216.36 433.5C216.36 437.8 216.36 472.18 216.36 476.48C216.36 481.89 220.92 486.29 226.55 486.29C228.53 486.29 244.37 486.29 246.35 486.29C240.72 486.29 236.16 481.89 236.16 476.48C236.16 467.88 236.16 437.8 236.16 433.5Z" id="cxWapzDlQ"></path><path d="M168.78 187.4C180.24 317.01 212.01 419.97 216.33 433.5C232 433.5 357.43 433.5 373.1 433.5C377.19 420.69 405.9 327.67 418.66 207.78C382.45 214.11 331.12 217.19 289.96 196.64C244.84 174.12 197.58 179.98 168.78 187.4Z" id="g10mSsJEG"></path><path d="M216.36 433.5C218.34 433.5 234.18 433.5 236.16 433.5C231.8 419.83 199.4 314.85 188.26 183.33C181.15 184.48 174.6 185.9 168.81 187.39C180.27 317.01 212.04 419.97 216.36 433.5Z" id="bjBLavudE"></path><path d="M325.57 402.47C332.07 363.42 384.04 51 390.54 11.94C391.17 8.15 394.81 5.53 398.76 5.98C405.53 6.77 459.64 13.08 466.41 13.86C470.48 14.34 473.38 17.9 472.88 21.81C472.39 25.73 468.69 28.52 464.62 28.04C460.58 27.57 440.4 25.22 404.07 20.99C365.77 251.23 344.49 379.15 340.23 404.73C339.58 408.63 335.77 411.28 331.73 410.65C327.68 410.03 324.92 406.37 325.57 402.47Z" id="g1IvuuGZX7"></path><path d="M181.51 267.94C178.33 264.12 178.38 257.99 181.61 254.23C209.99 221.3 202.81 194.57 202.49 193.45C201.06 188.43 203.3 182.91 207.53 181.15C211.78 179.4 216.4 181.93 217.94 186.91C218.43 188.48 229.46 225.89 193.12 268.06C191.52 269.91 189.44 270.84 187.36 270.84C185.24 270.84 183.12 269.87 181.51 267.94Z" id="czM2wvoho"></path><path d="M219.88 204.54C206.53 209.41 202.12 223.97 201.66 225.61C200.91 228.28 201.19 231.21 202.41 233.62C210.33 249.23 220.12 253.49 226.95 254.32C227.95 254.44 228.95 254.5 229.93 254.5C247.32 254.5 261.84 236.58 263.51 234.42C265.08 232.42 265.86 229.73 265.66 227.01C265.46 224.3 264.3 221.81 262.46 220.15C246.14 205.43 231.81 200.17 219.88 204.54Z" id="bgqMBF26A"></path><path d="M91.66 294.34C68.94 342.15 36.65 379.39 14 398.3C7.61 403.64 3.62 411.69 3.07 420.41C2.51 429.18 5.46 437.83 11.18 444.13C26.36 460.86 53.47 483.25 89.83 483.25C104.53 483.25 120.75 479.59 138.3 470.41C196.87 439.77 240.77 375.74 240.42 321.46C240.26 296.72 230.93 262.61 187.37 240.63C149.28 221.41 117.97 238.98 91.66 294.34Z" id="asTqFYnuM"></path><path d="M209.48 287.65C209.83 340.39 166.53 402.6 108.77 432.36C91.46 441.28 75.47 444.84 60.97 444.84C40.53 444.84 23.07 437.76 9.05 428.68C10.32 433.47 12.68 437.92 16.03 441.55C31 457.81 57.73 479.56 93.59 479.56C108.09 479.56 124.09 476 141.39 467.09C199.15 437.32 242.45 375.11 242.1 322.38C241.96 300.56 234.27 271.26 200.72 250.06C207.29 263.16 209.41 276.4 209.48 287.65Z" id="a124g8kHW5"></path></defs><g><g><g><use xlink:href="#a1AAL3rYxZ" opacity="1" fill="#e0f7fc" fill-opacity="1"></use><g><use xlink:href="#a1AAL3rYxZ" opacity="1" fill-opacity="0" stroke="#000000" stroke-width="1" stroke-opacity="0"></use></g></g><g><use xlink:href="#cxWapzDlQ" opacity="1" fill="#beedf4" fill-opacity="1"></use><g><use xlink:href="#cxWapzDlQ" opacity="1" fill-opacity="0" stroke="#000000" stroke-width="1" stroke-opacity="0"></use></g></g><g><use xlink:href="#g10mSsJEG" opacity="1" fill="#fbb03b" fill-opacity="0.88"></use><g><use xlink:href="#g10mSsJEG" opacity="1" fill-opacity="0" stroke="#000000" stroke-width="1" stroke-opacity="0"></use></g></g><g><use xlink:href="#bjBLavudE" opacity="1" fill="#fe9701" fill-opacity="1"></use><g><use xlink:href="#bjBLavudE" opacity="1" fill-opacity="0" stroke="#000000" stroke-width="1" stroke-opacity="0"></use></g></g><g><use xlink:href="#g1IvuuGZX7" opacity="1" fill="#ea473b" fill-opacity="1"></use><g><use xlink:href="#g1IvuuGZX7" opacity="1" fill-opacity="0" stroke="#000000" stroke-width="1" stroke-opacity="0"></use></g></g><g><use xlink:href="#czM2wvoho" opacity="1" fill="#5e4534" fill-opacity="1"></use><g><use xlink:href="#czM2wvoho" opacity="1" fill-opacity="0" stroke="#000000" stroke-width="1" stroke-opacity="0"></use></g></g><g><use xlink:href="#bgqMBF26A" opacity="1" fill="#39b54a" fill-opacity="1"></use><g><use xlink:href="#bgqMBF26A" opacity="1" fill-opacity="0" stroke="#000000" stroke-width="1" stroke-opacity="0"></use></g></g><g><use xlink:href="#asTqFYnuM" opacity="1" fill="#fbb03b" fill-opacity="1"></use><g><use xlink:href="#asTqFYnuM" opacity="1" fill-opacity="0" stroke="#000000" stroke-width="1" stroke-opacity="0"></use></g></g><g><use xlink:href="#a124g8kHW5" opacity="1" fill="#fe9700" fill-opacity="1"></use><g><use xlink:href="#a124g8kHW5" opacity="1" fill-opacity="0" stroke="#000000" stroke-width="1" stroke-opacity="0"></use></g></g></g></g></svg>