<?xml version="1.0" encoding="UTF-8" standalone="no"?>
<!DOCTYPE svg PUBLIC "-//W3C//DTD SVG 1.1//EN" "http://www.w3.org/Graphics/SVG/1.1/DTD/svg11.dtd">
<svg version="1.1" xmlns="http://www.w3.org/2000/svg" xmlns:xlink="http://www.w3.org/1999/xlink" preserveAspectRatio="xMidYMid meet" viewBox="0 0 640 640" width="640" height="640"><defs><path d="M667.12 231.22C667.12 264.82 667.12 283.49 667.12 287.23C667.12 287.23 667.12 287.23 667.12 287.23C559.37 287.23 499.51 287.23 487.54 287.23C487.54 287.23 487.54 287.23 487.54 287.23C487.54 253.62 487.54 234.95 487.54 231.22C487.54 231.22 487.54 231.22 487.54 231.22C595.29 231.22 655.15 231.22 667.12 231.22C667.12 231.22 667.12 231.22 667.12 231.22Z" id="c7pJv027Ob"></path><path d="M389.2 85.19C394.98 85.19 399.66 89.61 399.66 95.07C399.66 265.75 352.11 417.37 346.69 434.06C346.69 438.39 346.69 473.05 346.69 477.38C346.69 482.84 342.01 487.27 336.24 487.27C322.26 487.27 210.38 487.27 196.4 487.27C190.62 487.27 185.94 482.84 185.94 477.38C185.94 473.05 185.94 438.39 185.94 434.06C180.53 417.37 132.98 265.75 132.98 95.07C132.98 89.61 137.66 85.19 143.43 85.19C192.59 85.19 364.63 85.19 389.2 85.19Z" id="a1UKZEEC01"></path><path d="M206.24 434.06C200.83 417.37 153.28 265.75 153.28 95.07C153.28 89.61 157.96 85.19 163.73 85.19C161.7 85.19 145.46 85.19 143.43 85.19C137.66 85.19 132.98 89.61 132.98 95.07C132.98 265.75 180.53 417.37 185.94 434.06C185.94 438.39 185.94 473.05 185.94 477.38C185.94 482.84 190.62 487.27 196.4 487.27C198.43 487.27 214.67 487.27 216.7 487.27C210.92 487.27 206.24 482.84 206.24 477.38C206.24 468.72 206.24 438.39 206.24 434.06Z" id="i5BHsCJ4kD"></path><path d="M138.21 185.95C149.96 316.61 182.54 420.41 186.96 434.06C203.04 434.06 331.64 434.06 347.71 434.06C351.9 421.14 381.34 327.37 394.42 206.49C357.29 212.88 304.66 215.98 262.46 195.26C216.2 172.56 167.74 178.47 138.21 185.95Z" id="cn9XPFdXN"></path><path d="M185.94 434.06C187.97 434.06 204.21 434.06 206.24 434.06C201.77 420.27 168.56 314.44 157.13 181.85C149.84 183 143.13 184.44 137.19 185.94C148.94 316.61 181.52 420.41 185.94 434.06Z" id="dsPXESkON"></path><path d="M297.92 402.77C304.58 363.4 357.88 48.43 364.54 9.06C365.18 5.24 368.91 2.59 372.97 3.05C379.91 3.85 435.39 10.2 442.32 11C446.5 11.47 449.47 15.06 448.97 19.01C448.46 22.96 444.67 25.77 440.49 25.29C436.36 24.82 415.66 22.45 378.41 18.18C339.14 250.3 317.32 379.26 312.95 405.05C312.29 408.98 308.38 411.65 304.23 411.02C300.08 410.39 297.26 406.7 297.92 402.77Z" id="a4NLrjozz"></path><path d="M94.12 373.11C108.19 441.44 116.02 479.41 117.58 487C175.89 487 223.16 436.01 223.16 373.11C223.16 310.21 175.89 259.22 117.58 259.22C114.45 274.41 106.63 312.37 94.12 373.11Z" id="e12hHOQo7B"></path><path d="M117.58 272.97C66.31 272.97 24.75 317.81 24.75 373.11C24.75 428.42 66.31 473.25 117.58 473.25C168.85 473.25 210.41 428.42 210.41 373.11C210.41 317.81 168.85 272.97 117.58 272.97Z" id="afdx9QzmV"></path><path d="M197.67 373.11C197.67 325.4 161.81 286.72 117.58 286.72C117.58 298.24 117.58 355.83 117.58 459.5C170.97 433.72 197.67 404.92 197.67 373.11Z" id="aZLd8LtW"></path><path d="M122.6 286.72C75.6 286.72 37.49 324.65 37.49 371.43C37.49 418.21 75.6 456.14 122.6 456.14C162.12 456.14 194.17 418.21 194.17 371.43C194.17 324.65 162.12 286.72 122.6 286.72Z" id="bRoSnrD5n"></path><path d="M117.58 487C116.02 479.41 108.19 441.44 94.12 373.11C108.19 304.78 116.02 266.81 117.58 259.22C59.27 259.22 12 310.21 12 373.11C12 436.01 59.27 487 117.58 487Z" id="dDCvZCfdy"></path><path d="M100.29 284.87C96.65 292.73 86.27 300.08 83.8 311.43C81.79 320.64 87.81 332.03 86.78 342.9C85.86 352.61 77.69 362.5 77.69 373.11C77.69 383.72 85.86 393.61 86.78 403.32C87.81 414.19 81.79 425.58 83.8 434.79C86.27 446.14 96.65 453.49 100.29 461.35C106.16 473.99 109.85 487 117.58 487C117.58 471.81 117.58 395.89 117.58 259.22C109.97 267.89 104.21 276.44 100.29 284.87Z" id="b2yakzZfsp"></path></defs><g><g><g><use xlink:href="#c7pJv027Ob" opacity="1" fill="#000000" fill-opacity="0"></use><g><use xlink:href="#c7pJv027Ob" opacity="1" fill-opacity="0" stroke="#000000" stroke-width="1" stroke-opacity="0"></use></g></g><g><use xlink:href="#a1UKZEEC01" opacity="1" fill="#e0f7fc" fill-opacity="1"></use><g><use xlink:href="#a1UKZEEC01" opacity="1" fill-opacity="0" stroke="#000000" stroke-width="1" stroke-opacity="0"></use></g></g><g><use xlink:href="#i5BHsCJ4kD" opacity="1" fill="#beedf4" fill-opacity="1"></use><g><use xlink:href="#i5BHsCJ4kD" opacity="1" fill-opacity="0" stroke="#000000" stroke-width="1" stroke-opacity="0"></use></g></g><g><use xlink:href="#cn9XPFdXN" opacity="1" fill="#fbab56" fill-opacity="0.83"></use><g><use xlink:href="#cn9XPFdXN" opacity="1" fill-opacity="0" stroke="#000000" stroke-width="1" stroke-opacity="0"></use></g></g><g><use xlink:href="#dsPXESkON" opacity="1" fill="#fbab56" fill-opacity="1"></use><g><use xlink:href="#dsPXESkON" opacity="1" fill-opacity="0" stroke="#000000" stroke-width="1" stroke-opacity="0"></use></g></g><g><use xlink:href="#a4NLrjozz" opacity="1" fill="#ea473b" fill-opacity="1"></use><g><use xlink:href="#a4NLrjozz" opacity="1" fill-opacity="0" stroke="#000000" stroke-width="1" stroke-opacity="0"></use></g></g><g><use xlink:href="#e12hHOQo7B" opacity="1" fill="#dbdb6e" fill-opacity="1"></use><g><use xlink:href="#e12hHOQo7B" opacity="1" fill-opacity="0" stroke="#000000" stroke-width="1" stroke-opacity="0"></use></g></g><g><use xlink:href="#afdx9QzmV" opacity="1" fill="#ddbb63" fill-opacity="1"></use><g><use xlink:href="#afdx9QzmV" opacity="1" fill-opacity="0" stroke="#000000" stroke-width="1" stroke-opacity="0"></use></g></g><g><use xlink:href="#aZLd8LtW" opacity="1" fill="#f79209" fill-opacity="1"></use><g><use xlink:href="#aZLd8LtW" opacity="1" fill-opacity="0" stroke="#000000" stroke-width="1" stroke-opacity="0"></use></g></g><g><use xlink:href="#bRoSnrD5n" opacity="1" fill="#eb931a" fill-opacity="1"></use><g><use xlink:href="#bRoSnrD5n" opacity="1" fill-opacity="0" stroke="#000000" stroke-width="1" stroke-opacity="0"></use></g></g><g><use xlink:href="#dDCvZCfdy" opacity="1" fill="#cece55" fill-opacity="1"></use><g><use xlink:href="#dDCvZCfdy" opacity="1" fill-opacity="0" stroke="#000000" stroke-width="1" stroke-opacity="0"></use></g></g><g><use xlink:href="#b2yakzZfsp" opacity="1" fill="#c5c54c" fill-opacity="1"></use><g><use xlink:href="#b2yakzZfsp" opacity="1" fill-opacity="0" stroke="#000000" stroke-width="1" stroke-opacity="0"></use></g></g></g></g></svg>