<?xml version="1.0" encoding="UTF-8" standalone="no"?>
<!DOCTYPE svg PUBLIC "-//W3C//DTD SVG 1.1//EN" "http://www.w3.org/Graphics/SVG/1.1/DTD/svg11.dtd">
<svg version="1.1" xmlns="http://www.w3.org/2000/svg" xmlns:xlink="http://www.w3.org/1999/xlink" preserveAspectRatio="xMidYMid meet" viewBox="0 0 640 640" width="640" height="640"><defs><path d="M205.23 396.65C201.38 383.96 183.92 384.09 187.74 396.65C189.49 396.65 203.48 396.65 205.23 396.65Z" id="eG39zrlQm"></path><path d="M205.23 396.65C201.38 383.96 183.92 384.09 187.74 396.65C189.49 396.65 203.48 396.65 205.23 396.65Z" id="azQwAbNB5"></path><path d="M180.52 354.23C181.91 353.87 183.29 354.87 183.6 356.46C183.97 358.32 184.31 360.18 184.63 361.97C184.92 363.57 184.03 365.18 182.62 365.44C180.73 365.8 179.82 364.54 179.57 363.14C179.26 361.39 178.92 359.57 178.56 357.75C178.25 356.16 179.12 354.59 180.52 354.23Z" id="e8Kd0t3mM"></path><path d="M180.52 354.23C181.91 353.87 183.29 354.87 183.6 356.46C183.97 358.32 184.31 360.18 184.63 361.97C184.92 363.57 184.03 365.18 182.62 365.44C180.73 365.8 179.82 364.54 179.57 363.14C179.26 361.39 178.92 359.57 178.56 357.75C178.25 356.16 179.12 354.59 180.52 354.23Z" id="fhzMqbwhg"></path><path d="M404.29 6.07C404.28 6.07 404.28 6.07 404.27 6.07C396.26 25.09 356.2 120.17 284.09 291.31L301.05 298.91C373.16 127.77 413.22 32.7 421.23 13.68C421.23 13.68 421.23 13.68 421.23 13.68C422.69 10.18 422.05 5.98 419.29 3.12C415.69 -0.6 409.82 -0.6 406.22 3.12C405.37 4 404.73 5 404.29 6.07Z" id="cPnORdfoo"></path><path d="M404.29 6.07C404.28 6.07 404.28 6.07 404.27 6.07C396.26 25.09 356.2 120.17 284.09 291.31L301.05 298.91C373.16 127.77 413.22 32.7 421.23 13.68C421.23 13.68 421.23 13.68 421.23 13.68C422.69 10.18 422.05 5.98 419.29 3.12C415.69 -0.6 409.82 -0.6 406.22 3.12C405.37 4 404.73 5 404.29 6.07Z" id="hryMbQrJo"></path><path d="M275.78 187.26C284.72 186.41 356.22 179.57 365.16 178.71C365.16 178.71 408.23 204.04 384.61 121.63C357.28 26.28 273.5 13.75 288.69 42.39C303.88 71.02 232.92 59.69 223.78 114.87C211.2 190.74 265.38 172.78 275.78 187.26Z" id="dUY5s92uC"></path><path d="M275.78 187.26C284.72 186.41 356.22 179.57 365.16 178.71C365.16 178.71 408.23 204.04 384.61 121.63C357.28 26.28 273.5 13.75 288.69 42.39C303.88 71.02 232.92 59.69 223.78 114.87C211.2 190.74 265.38 172.78 275.78 187.26Z" id="a1bcjNOcOk"></path><path d="M237.1 458.51L366.53 458.51L348.04 420.37L255.59 420.37L237.1 458.51Z" id="cWKBQMkiv"></path><path d="M237.1 458.51L366.53 458.51L348.04 420.37L255.59 420.37L237.1 458.51Z" id="cw4XCwfiN"></path><path d="M218.61 114.87C218.61 114.87 200.12 133.97 200.12 191.24C200.12 229.42 209.36 309.71 255.59 420.34C256.82 420.34 262.98 420.34 274.08 420.34C318.46 420.34 343.11 420.34 348.04 420.34C394.26 309.71 403.51 229.42 403.51 191.24C403.51 133.97 385.01 114.87 385.01 114.87C373.92 114.87 346.19 114.87 301.81 114.87C251.89 114.87 224.16 114.87 218.61 114.87Z" id="can6ZnD0t"></path><path d="M218.61 114.87C218.61 114.87 200.12 133.97 200.12 191.24C200.12 229.42 209.36 309.71 255.59 420.34C256.82 420.34 262.98 420.34 274.08 420.34C318.46 420.34 343.11 420.34 348.04 420.34C394.26 309.71 403.51 229.42 403.51 191.24C403.51 133.97 385.01 114.87 385.01 114.87C373.92 114.87 346.19 114.87 301.81 114.87C251.89 114.87 224.16 114.87 218.61 114.87Z" id="a854vOZrpz"></path><path d="M258.3 427.08C261.91 430.8 267.76 430.8 271.37 427.08C273.17 425.23 274.07 422.8 274.08 420.37C270.38 420.37 257.44 420.37 255.59 420.37C255.6 422.8 256.5 425.23 258.3 427.08Z" id="i1sJL49tjo"></path><path d="M258.3 427.08C261.91 430.8 267.76 430.8 271.37 427.08C273.17 425.23 274.07 422.8 274.08 420.37C270.38 420.37 257.44 420.37 255.59 420.37C255.6 422.8 256.5 425.23 258.3 427.08Z" id="a1okK8LtF8"></path><path d="M276.78 427.08C280.4 430.8 286.25 430.8 289.86 427.08C291.66 425.23 292.56 422.8 292.57 420.37C288.87 420.37 275.93 420.37 274.08 420.37C274.09 422.8 274.99 425.23 276.78 427.08Z" id="arTHWKMUT"></path><path d="M276.78 427.08C280.4 430.8 286.25 430.8 289.86 427.08C291.66 425.23 292.56 422.8 292.57 420.37C288.87 420.37 275.93 420.37 274.08 420.37C274.09 422.8 274.99 425.23 276.78 427.08Z" id="bRbsrYZz"></path><path d="M295.28 427.08C298.89 430.8 304.74 430.8 308.35 427.08C310.15 425.23 311.05 422.8 311.06 420.37C307.36 420.37 294.42 420.37 292.57 420.37C292.58 422.8 293.48 425.23 295.28 427.08Z" id="d8DMPac0b"></path><path d="M295.28 427.08C298.89 430.8 304.74 430.8 308.35 427.08C310.15 425.23 311.05 422.8 311.06 420.37C307.36 420.37 294.42 420.37 292.57 420.37C292.58 422.8 293.48 425.23 295.28 427.08Z" id="aa0B1H8y"></path><path d="M313.77 427.08C317.38 430.8 323.23 430.8 326.83 427.08C328.63 425.23 329.54 422.8 329.54 420.37C325.85 420.37 312.91 420.37 311.06 420.37C311.07 422.8 311.97 425.23 313.77 427.08Z" id="gjPdXKfYp"></path><path d="M313.77 427.08C317.38 430.8 323.23 430.8 326.83 427.08C328.63 425.23 329.54 422.8 329.54 420.37C325.85 420.37 312.91 420.37 311.06 420.37C311.07 422.8 311.97 425.23 313.77 427.08Z" id="a2ChpE8IfH"></path><path d="M332.25 427.08C335.87 430.8 341.72 430.8 345.33 427.08C347.12 425.23 348.03 422.8 348.03 420.37C344.33 420.37 331.39 420.37 329.54 420.37C329.56 422.8 330.45 425.23 332.25 427.08Z" id="d1DcKQesJ"></path><path d="M332.25 427.08C335.87 430.8 341.72 430.8 345.33 427.08C347.12 425.23 348.03 422.8 348.03 420.37C344.33 420.37 331.39 420.37 329.54 420.37C329.56 422.8 330.45 425.23 332.25 427.08Z" id="bBm0TSZ7i"></path><path d="M316.76 133.55C343.53 122.2 359.76 98.81 368.19 82.75C364.37 76.2 360.26 70.31 356 65.05C351.02 76.62 336.65 104.48 309.73 115.89C310.44 117.65 316.05 131.78 316.76 133.55Z" id="azq2XKrB"></path><path d="M316.76 133.55C343.53 122.2 359.76 98.81 368.19 82.75C364.37 76.2 360.26 70.31 356 65.05C351.02 76.62 336.65 104.48 309.73 115.89C310.44 117.65 316.05 131.78 316.76 133.55Z" id="a105NgTxnv"></path><path d="M331.95 42.33C322.15 58.24 289.49 105.78 244.48 115.37C244.85 117.24 247.84 132.19 248.21 134.06C274.23 128.53 300.33 111.54 323.67 84.95C334.15 73.01 341.87 61.71 346.42 54.46C341.61 49.72 336.75 45.69 331.95 42.33Z" id="b3u0ge1CGt"></path><path d="M331.95 42.33C322.15 58.24 289.49 105.78 244.48 115.37C244.85 117.24 247.84 132.19 248.21 134.06C274.23 128.53 300.33 111.54 323.67 84.95C334.15 73.01 341.87 61.71 346.42 54.46C341.61 49.72 336.75 45.69 331.95 42.33Z" id="aZm2wPXTe"></path><path d="M375.78 439.41C360.99 439.41 242.64 439.41 227.85 439.41C227.85 439.41 227.85 439.41 227.85 439.41C225.48 439.41 223.12 440.35 221.31 442.21C217.7 445.94 217.7 452 221.31 455.72C223.12 457.57 225.48 458.51 227.85 458.51C227.85 458.51 227.85 458.51 227.85 458.51C242.64 458.51 360.99 458.51 375.78 458.51C375.78 458.51 375.78 458.51 375.78 458.51C378.15 458.51 380.5 457.59 382.32 455.72C385.92 452 385.92 445.94 382.32 442.21C380.5 440.35 378.15 439.41 375.78 439.41C375.78 439.41 375.78 439.41 375.78 439.41Z" id="i1jQG6hOPI"></path><path d="M375.78 439.41C360.99 439.41 242.64 439.41 227.85 439.41C227.85 439.41 227.85 439.41 227.85 439.41C225.48 439.41 223.12 440.35 221.31 442.21C217.7 445.94 217.7 452 221.31 455.72C223.12 457.57 225.48 458.51 227.85 458.51C227.85 458.51 227.85 458.51 227.85 458.51C242.64 458.51 360.99 458.51 375.78 458.51C375.78 458.51 375.78 458.51 375.78 458.51C378.15 458.51 380.5 457.59 382.32 455.72C385.92 452 385.92 445.94 382.32 442.21C380.5 440.35 378.15 439.41 375.78 439.41C375.78 439.41 375.78 439.41 375.78 439.41Z" id="d1rikZ51AO"></path><path d="M385.01 114.87C379.47 114.87 351.73 114.87 301.81 114.87C251.89 114.87 224.16 114.87 218.61 114.87C218.61 114.87 208.7 125.11 203.39 153.05C242.76 153.05 380.55 153.05 400.24 153.05C394.93 125.11 388.06 122.51 385.01 114.87Z" id="i1dRGscCV4"></path><path d="M385.01 114.87C379.47 114.87 351.73 114.87 301.81 114.87C251.89 114.87 224.16 114.87 218.61 114.87C218.61 114.87 208.7 125.11 203.39 153.05C242.76 153.05 380.55 153.05 400.24 153.05C394.93 125.11 388.06 122.51 385.01 114.87Z" id="j1rRCroM1X"></path><path d="M292.57 219.88C292.57 219.88 292.57 219.88 292.57 219.88C292.57 233.24 292.57 340.14 292.57 353.5C292.57 353.5 292.57 353.5 292.57 353.5C292.57 355.96 293.47 358.4 295.28 360.27C298.89 363.99 304.74 363.99 308.35 360.27C310.15 358.4 311.06 355.96 311.06 353.5C311.06 353.5 311.06 353.5 311.06 353.5C311.06 340.14 311.06 233.24 311.06 219.88C311.06 219.88 311.06 219.88 311.06 219.88C311.06 217.43 310.15 214.99 308.35 213.12C304.74 209.4 298.89 209.4 295.28 213.12C293.47 214.99 292.57 217.43 292.57 219.88Z" id="c2L0x1EwV2"></path><path d="M292.57 219.88C292.57 219.88 292.57 219.88 292.57 219.88C292.57 233.24 292.57 340.14 292.57 353.5C292.57 353.5 292.57 353.5 292.57 353.5C292.57 355.96 293.47 358.4 295.28 360.27C298.89 363.99 304.74 363.99 308.35 360.27C310.15 358.4 311.06 355.96 311.06 353.5C311.06 353.5 311.06 353.5 311.06 353.5C311.06 340.14 311.06 233.24 311.06 219.88C311.06 219.88 311.06 219.88 311.06 219.88C311.06 217.43 310.15 214.99 308.35 213.12C304.74 209.4 298.89 209.4 295.28 213.12C293.47 214.99 292.57 217.43 292.57 219.88Z" id="d85dtn6K7"></path><path d="M338.9 218.53C338.9 218.53 338.89 218.53 338.89 218.53C337.04 231.89 322.25 338.8 320.4 352.16C320.4 352.16 320.41 352.16 320.41 352.16C320.01 355.04 320.87 358.06 323.01 360.27C326.62 363.99 332.48 363.99 336.08 360.27C337.56 358.73 338.41 356.83 338.7 354.86C338.7 354.86 338.7 354.86 338.7 354.86C340.55 341.5 355.35 234.58 357.2 221.22C357.19 221.22 357.18 221.22 357.18 221.22C357.58 218.35 356.71 215.33 354.58 213.12C350.97 209.4 345.12 209.4 341.5 213.12C340.02 214.64 339.17 216.55 338.9 218.53Z" id="f3tomnhxhw"></path><path d="M338.9 218.53C338.9 218.53 338.89 218.53 338.89 218.53C337.04 231.89 322.25 338.8 320.4 352.16C320.4 352.16 320.41 352.16 320.41 352.16C320.01 355.04 320.87 358.06 323.01 360.27C326.62 363.99 332.48 363.99 336.08 360.27C337.56 358.73 338.41 356.83 338.7 354.86C338.7 354.86 338.7 354.86 338.7 354.86C340.55 341.5 355.35 234.58 357.2 221.22C357.19 221.22 357.18 221.22 357.18 221.22C357.58 218.35 356.71 215.33 354.58 213.12C350.97 209.4 345.12 209.4 341.5 213.12C340.02 214.64 339.17 216.55 338.9 218.53Z" id="bb8jdrHRP"></path><path d="M264.73 218.53C264.46 216.55 263.6 214.64 262.12 213.12C258.51 209.4 252.66 209.4 249.05 213.12C246.92 215.33 246.05 218.35 246.45 221.22C246.45 221.22 246.44 221.22 246.43 221.23C248.28 234.59 263.08 341.5 264.93 354.86C264.93 354.86 264.93 354.86 264.93 354.86C265.21 356.83 266.07 358.73 267.54 360.27C271.15 363.99 277.01 363.99 280.62 360.27C282.76 358.06 283.62 355.04 283.22 352.16C283.22 352.16 283.23 352.16 283.23 352.16C283.23 352.16 283.23 352.16 283.23 352.16L264.74 218.52C264.73 218.53 264.73 218.53 264.73 218.53Z" id="c53KC9L52"></path><path d="M264.73 218.53C264.46 216.55 263.6 214.64 262.12 213.12C258.51 209.4 252.66 209.4 249.05 213.12C246.92 215.33 246.05 218.35 246.45 221.22C246.45 221.22 246.44 221.22 246.43 221.23C248.28 234.59 263.08 341.5 264.93 354.86C264.93 354.86 264.93 354.86 264.93 354.86C265.21 356.83 266.07 358.73 267.54 360.27C271.15 363.99 277.01 363.99 280.62 360.27C282.76 358.06 283.62 355.04 283.22 352.16C283.22 352.16 283.23 352.16 283.23 352.16C283.23 352.16 283.23 352.16 283.23 352.16L264.74 218.52C264.73 218.53 264.73 218.53 264.73 218.53Z" id="eVNY5ibdr"></path><path d="M246.37 66.37C246.37 66.32 246.69 60.7 243.4 54.64C238.94 46.43 230.01 40.94 216.86 38.34C211.85 37.35 208.56 32.35 209.52 27.17C210.48 21.99 215.33 18.6 220.34 19.59C233.7 22.23 251.44 29.07 260.22 46.63C265.58 57.37 264.89 66.98 264.79 68.04C262.34 67.8 256.2 67.2 246.38 66.25C246.38 66.32 246.37 66.35 246.37 66.37Z" id="a2Oqg3a54"></path><path d="M246.37 66.37C246.37 66.32 246.69 60.7 243.4 54.64C238.94 46.43 230.01 40.94 216.86 38.34C211.85 37.35 208.56 32.35 209.52 27.17C210.48 21.99 215.33 18.6 220.34 19.59C233.7 22.23 251.44 29.07 260.22 46.63C265.58 57.37 264.89 66.98 264.79 68.04C262.34 67.8 256.2 67.2 246.38 66.25C246.38 66.32 246.37 66.35 246.37 66.37Z" id="a72mKKIj17"></path><path d="M227.85 67.14C227.85 82.96 240.27 95.78 255.59 95.78C270.91 95.78 283.32 82.96 283.32 67.14C283.32 51.33 270.91 38.51 255.59 38.51C240.27 38.51 227.85 51.33 227.85 67.14Z" id="a51QIkLCEo"></path><path d="M227.85 67.14C227.85 82.96 240.27 95.78 255.59 95.78C270.91 95.78 283.32 82.96 283.32 67.14C283.32 51.33 270.91 38.51 255.59 38.51C240.27 38.51 227.85 51.33 227.85 67.14Z" id="f3vjgQveq"></path><path d="M216.55 289.46C218.06 288.78 219.72 289.72 220.28 291.57C223.39 301.97 226.33 313.7 228.79 325.5C229.19 327.4 228.28 329.51 226.7 329.83C224.33 330.31 223.5 328.87 223.17 327.26C220.76 315.7 217.88 304.21 214.83 294.03C214.28 292.18 215.05 290.14 216.55 289.46Z" id="dd6N4TAVr"></path><path d="M188.41 393.28C188.41 392.35 188.72 391.43 189.26 390.77C189.8 390.1 190.55 389.72 191.31 389.72C192.08 389.72 192.82 390.1 193.36 390.77C193.9 391.43 194.21 392.35 194.21 393.28C194.21 394.22 193.9 395.14 193.36 395.81C192.82 396.47 192.08 396.85 191.31 396.85C190.55 396.85 189.8 396.47 189.26 395.81C188.72 395.14 188.41 394.22 188.41 393.28Z" id="dIUOxDlgK"></path><path d="M188.41 393.28C188.41 392.35 188.72 391.43 189.26 390.77C189.8 390.1 190.55 389.72 191.31 389.72C192.08 389.72 192.82 390.1 193.36 390.77C193.9 391.43 194.21 392.35 194.21 393.28C194.21 394.22 193.9 395.14 193.36 395.81C192.82 396.47 192.08 396.85 191.31 396.85C190.55 396.85 189.8 396.47 189.26 395.81C188.72 395.14 188.41 394.22 188.41 393.28Z" id="d2tBmkH8G5"></path><path d="M198.27 377.56C198.27 376.62 198.58 375.7 199.12 375.04C199.66 374.38 200.41 374 201.17 374C201.94 374 202.69 374.38 203.23 375.04C203.76 375.71 204.07 376.62 204.07 377.56C204.07 378.5 203.76 379.42 203.23 380.08C202.69 380.74 201.94 381.12 201.17 381.12C200.41 381.12 199.66 380.74 199.12 380.08C198.58 379.42 198.27 378.5 198.27 377.56Z" id="b2qT9ID8wJ"></path><path d="M198.27 377.56C198.27 376.62 198.58 375.7 199.12 375.04C199.66 374.38 200.41 374 201.17 374C201.94 374 202.69 374.38 203.23 375.04C203.76 375.71 204.07 376.62 204.07 377.56C204.07 378.5 203.76 379.42 203.23 380.08C202.69 380.74 201.94 381.12 201.17 381.12C200.41 381.12 199.66 380.74 199.12 380.08C198.58 379.42 198.27 378.5 198.27 377.56Z" id="c1HA9lqr2C"></path><path d="M211.62 377.56C211.62 376.62 211.93 375.7 212.47 375.04C213.01 374.38 213.75 374 214.52 374C215.28 374 216.03 374.38 216.57 375.04C217.11 375.71 217.42 376.62 217.42 377.56C217.42 378.5 217.11 379.42 216.57 380.08C216.03 380.74 215.28 381.12 214.52 381.12C213.76 381.12 213.01 380.74 212.47 380.08C211.93 379.42 211.62 378.5 211.62 377.56Z" id="dyWgMtbxn"></path><path d="M211.62 377.56C211.62 376.62 211.93 375.7 212.47 375.04C213.01 374.38 213.75 374 214.52 374C215.28 374 216.03 374.38 216.57 375.04C217.11 375.71 217.42 376.62 217.42 377.56C217.42 378.5 217.11 379.42 216.57 380.08C216.03 380.74 215.28 381.12 214.52 381.12C213.76 381.12 213.01 380.74 212.47 380.08C211.93 379.42 211.62 378.5 211.62 377.56Z" id="b5CgUpbJI"></path><path d="M185.51 370.44C185.51 369.5 185.82 368.58 186.36 367.92C186.9 367.26 187.65 366.88 188.41 366.88C189.17 366.88 189.92 367.26 190.46 367.92C191 368.59 191.31 369.5 191.31 370.44C191.31 371.38 191 372.29 190.46 372.96C189.92 373.62 189.17 374 188.41 374C187.65 374 186.9 373.62 186.36 372.96C185.82 372.29 185.51 371.38 185.51 370.44Z" id="c7bdECMKI"></path><path d="M185.51 370.44C185.51 369.5 185.82 368.58 186.36 367.92C186.9 367.26 187.65 366.88 188.41 366.88C189.17 366.88 189.92 367.26 190.46 367.92C191 368.59 191.31 369.5 191.31 370.44C191.31 371.38 191 372.29 190.46 372.96C189.92 373.62 189.17 374 188.41 374C187.65 374 186.9 373.62 186.36 372.96C185.82 372.29 185.51 371.38 185.51 370.44Z" id="eJTpXojN4"></path><path d="M202.65 356.12C202.65 355.19 202.96 354.26 203.5 353.6C204.04 352.94 204.78 352.56 205.55 352.56C206.31 352.56 207.06 352.94 207.6 353.6C208.14 354.27 208.45 355.18 208.45 356.12C208.45 357.06 208.14 357.98 207.6 358.64C207.06 359.3 206.31 359.68 205.55 359.68C204.78 359.68 204.04 359.3 203.5 358.64C202.96 357.98 202.65 357.06 202.65 356.12Z" id="a34enUywI2"></path><path d="M202.65 356.12C202.65 355.19 202.96 354.26 203.5 353.6C204.04 352.94 204.78 352.56 205.55 352.56C206.31 352.56 207.06 352.94 207.6 353.6C208.14 354.27 208.45 355.18 208.45 356.12C208.45 357.06 208.14 357.98 207.6 358.64C207.06 359.3 206.31 359.68 205.55 359.68C204.78 359.68 204.04 359.3 203.5 358.64C202.96 357.98 202.65 357.06 202.65 356.12Z" id="a2nDOI3R5M"></path><path d="M204.07 396.85C204.07 395.91 204.38 394.99 204.92 394.33C205.47 393.66 206.21 393.28 206.97 393.28C207.74 393.28 208.49 393.66 209.03 394.33C209.57 394.99 209.88 395.91 209.88 396.85C209.88 397.79 209.57 398.7 209.03 399.37C208.49 400.03 207.74 400.41 206.97 400.41C206.21 400.41 205.47 400.03 204.92 399.37C204.38 398.7 204.07 397.79 204.07 396.85Z" id="cYIkIeGjz"></path><path d="M204.07 396.85C204.07 395.91 204.38 394.99 204.92 394.33C205.47 393.66 206.21 393.28 206.97 393.28C207.74 393.28 208.49 393.66 209.03 394.33C209.57 394.99 209.88 395.91 209.88 396.85C209.88 397.79 209.57 398.7 209.03 399.37C208.49 400.03 207.74 400.41 206.97 400.41C206.21 400.41 205.47 400.03 204.92 399.37C204.38 398.7 204.07 397.79 204.07 396.85Z" id="a2Hb6AcAed"></path><path d="M201.17 330.8C201.17 329.87 201.48 328.95 202.02 328.29C202.56 327.62 203.31 327.24 204.07 327.24C204.84 327.24 205.59 327.62 206.13 328.29C206.67 328.95 206.97 329.87 206.97 330.8C206.97 331.74 206.66 332.66 206.13 333.32C205.59 333.98 204.84 334.36 204.07 334.36C203.31 334.36 202.57 333.98 202.02 333.32C201.48 332.66 201.17 331.74 201.17 330.8Z" id="a27STYKb05"></path><path d="M201.17 330.8C201.17 329.87 201.48 328.95 202.02 328.29C202.56 327.62 203.31 327.24 204.07 327.24C204.84 327.24 205.59 327.62 206.13 328.29C206.67 328.95 206.97 329.87 206.97 330.8C206.97 331.74 206.66 332.66 206.13 333.32C205.59 333.98 204.84 334.36 204.07 334.36C203.31 334.36 202.57 333.98 202.02 333.32C201.48 332.66 201.17 331.74 201.17 330.8Z" id="enqBL4mZM"></path><path d="M191.31 347.24C191.31 346.31 191.62 345.38 192.16 344.72C192.7 344.06 193.45 343.68 194.21 343.68C194.98 343.68 195.72 344.06 196.26 344.72C196.8 345.39 197.11 346.31 197.11 347.24C197.11 348.18 196.8 349.1 196.26 349.76C195.72 350.42 194.98 350.8 194.21 350.8C193.45 350.8 192.7 350.42 192.16 349.76C191.62 349.1 191.31 348.18 191.31 347.24Z" id="c6aTMhNN3j"></path><path d="M191.31 347.24C191.31 346.31 191.62 345.38 192.16 344.72C192.7 344.06 193.45 343.68 194.21 343.68C194.98 343.68 195.72 344.06 196.26 344.72C196.8 345.39 197.11 346.31 197.11 347.24C197.11 348.18 196.8 349.1 196.26 349.76C195.72 350.42 194.98 350.8 194.21 350.8C193.45 350.8 192.7 350.42 192.16 349.76C191.62 349.1 191.31 348.18 191.31 347.24Z" id="a116Mjzg6j"></path><path d="M258.18 269.95C259.91 270.74 260.43 272.81 259.24 274.23C251.86 283.04 225.67 308.57 188.33 281.58C188.54 281.1 188.74 280.61 188.94 280.13C194.67 274.92 221.69 253.19 258.18 269.95Z" id="a1g5HGNUo"></path><path d="M255.45 268.76C245.55 278.55 223.75 293.52 194.23 275.89C191.79 277.64 190 279.17 188.94 280.13C188.74 280.61 188.54 281.1 188.33 281.58C225.67 308.57 251.86 283.04 259.24 274.23C260.43 272.81 259.91 270.74 258.18 269.95C257.26 269.53 256.35 269.14 255.45 268.76Z" id="aDlNqZqZ7"></path><path d="M90.96 382.08C90.96 429.46 132.57 466.35 180.01 460.36C227.44 466.35 269.05 429.47 269.05 382.08C269.05 334.7 227.44 297.82 180.01 303.8C132.57 297.82 90.96 334.69 90.96 382.08Z" id="d3oVpIWSGX"></path><path d="M174.88 303.33C129.62 300.51 90.96 336.41 90.96 382.08C90.96 427.75 129.61 463.66 174.87 460.84C134.07 458.24 100.97 424.34 100.97 382.08C100.97 339.82 134.07 305.92 174.88 303.33Z" id="g1N52q1ryP"></path><path d="M216.91 246.42C218.69 245.22 218.82 242.79 217.18 241.42C215.98 240.42 206.38 232.41 205.18 231.41C203.26 229.81 200.26 230.15 198.82 232.14C191.6 242.12 173.36 271.73 177.05 311.96C177.22 313.84 180.15 313.91 180.4 312.04C182.79 294.04 190.74 263.98 216.91 246.42Z" id="a70n554f5"></path><path d="M209.92 235.36C209.44 234.97 205.66 231.81 205.18 231.41C203.26 229.81 200.26 230.15 198.82 232.14C191.6 242.12 173.36 271.73 177.05 311.96C177.22 313.84 180.15 313.91 180.4 312.04C181.25 305.62 182.82 297.66 185.66 289.29C189.51 263.3 201.22 244.61 206.66 237.09C207.43 236.02 208.66 235.44 209.92 235.36Z" id="c6ooCodIkd"></path><path d="M231.76 365.32C231.9 365.2 232.02 365.07 232.13 364.93C232.34 364.67 232.51 364.37 232.64 364.06C232.7 363.89 232.76 363.72 232.79 363.54C232.84 363.32 232.87 363.09 232.87 362.86C232.87 362.64 232.84 362.41 232.79 362.18C232.76 362.01 232.7 361.83 232.63 361.66C232.51 361.35 232.34 361.06 232.13 360.79C232.02 360.65 231.9 360.52 231.76 360.4C231.07 359.75 230.1 359.38 229.11 359.38C228.13 359.38 227.15 359.75 226.46 360.4C226.33 360.52 226.21 360.65 226.1 360.79C225.88 361.06 225.71 361.36 225.58 361.67C225.52 361.84 225.47 362.01 225.43 362.18C225.38 362.41 225.36 362.64 225.36 362.86C225.36 363.09 225.38 363.32 225.43 363.54C225.47 363.71 225.52 363.89 225.58 364.05C225.71 364.37 225.88 364.66 226.1 364.93C226.21 365.07 226.33 365.2 226.46 365.32C227.15 365.97 228.12 366.34 229.11 366.34C230.1 366.34 231.07 365.97 231.76 365.32Z" id="b6VjYZz87k"></path><path d="M231.26 386.43C231.39 386.32 231.51 386.18 231.63 386.05C231.84 385.78 232.01 385.49 232.13 385.17C232.2 385 232.25 384.83 232.29 384.66C232.34 384.43 232.36 384.2 232.36 383.97C232.36 383.75 232.34 383.52 232.29 383.29C232.25 383.12 232.2 382.94 232.13 382.77C232.01 382.46 231.84 382.17 231.63 381.9C231.51 381.76 231.39 381.63 231.26 381.51C230.57 380.86 229.6 380.49 228.61 380.49C227.62 380.49 226.65 380.86 225.96 381.51C225.83 381.63 225.71 381.76 225.59 381.9C225.38 382.17 225.21 382.47 225.08 382.78C225.02 382.95 224.97 383.12 224.93 383.29C224.88 383.52 224.86 383.75 224.86 383.97C224.86 384.2 224.88 384.43 224.93 384.66C224.97 384.83 225.02 385 225.08 385.16C225.2 385.48 225.38 385.78 225.59 386.05C225.71 386.18 225.83 386.32 225.96 386.43C226.65 387.08 227.62 387.45 228.61 387.45C229.6 387.45 230.57 387.08 231.26 386.43Z" id="bIhwaLnW"></path><path d="M231.51 407.54C231.65 407.43 231.77 407.3 231.88 407.16C232.09 406.89 232.26 406.6 232.38 406.28C232.45 406.12 232.5 405.94 232.54 405.77C232.59 405.54 232.62 405.31 232.62 405.09C232.62 404.86 232.59 404.63 232.54 404.4C232.5 404.23 232.45 404.05 232.38 403.88C232.26 403.57 232.09 403.28 231.88 403.01C231.77 402.88 231.65 402.74 231.51 402.63C230.82 401.98 229.85 401.61 228.86 401.61C227.87 401.61 226.9 401.98 226.21 402.63C226.08 402.74 225.96 402.88 225.84 403.01C225.63 403.28 225.46 403.58 225.33 403.89C225.27 404.06 225.22 404.23 225.18 404.4C225.13 404.63 225.11 404.86 225.11 405.09C225.11 405.31 225.13 405.54 225.18 405.77C225.22 405.94 225.27 406.11 225.33 406.28C225.45 406.59 225.63 406.89 225.84 407.16C225.96 407.3 226.08 407.43 226.21 407.55C226.9 408.19 227.87 408.57 228.86 408.57C229.85 408.57 230.82 408.19 231.51 407.54Z" id="a5lxXc4589"></path><path d="M248.13 375.89C248.25 375.77 248.36 375.63 248.47 375.49C248.67 375.21 248.83 374.91 248.93 374.6C248.99 374.42 249.04 374.25 249.06 374.07C249.1 373.84 249.11 373.62 249.1 373.39C249.09 373.16 249.06 372.94 248.99 372.71C248.95 372.54 248.89 372.37 248.81 372.2C248.67 371.89 248.49 371.61 248.26 371.35C248.14 371.22 248.02 371.09 247.88 370.98C247.15 370.36 246.16 370.03 245.18 370.08C244.19 370.12 243.24 370.53 242.58 371.21C242.45 371.33 242.34 371.47 242.24 371.61C242.03 371.89 241.88 372.19 241.77 372.51C241.71 372.68 241.67 372.86 241.64 373.03C241.6 373.26 241.59 373.49 241.6 373.71C241.61 373.94 241.65 374.17 241.71 374.39C241.75 374.56 241.82 374.73 241.89 374.89C242.03 375.2 242.22 375.49 242.44 375.75C242.56 375.88 242.69 376.01 242.83 376.12C243.55 376.74 244.54 377.07 245.53 377.03C246.51 376.98 247.46 376.57 248.13 375.89Z" id="lU4SofuKg"></path><path d="M249.44 396.97C249.56 396.85 249.68 396.71 249.78 396.57C249.98 396.29 250.14 395.99 250.24 395.67C250.3 395.5 250.35 395.32 250.37 395.15C250.41 394.92 250.43 394.69 250.41 394.47C250.4 394.24 250.37 394.01 250.31 393.79C250.26 393.62 250.2 393.44 250.12 393.28C249.99 392.97 249.8 392.69 249.57 392.43C249.45 392.3 249.33 392.17 249.19 392.06C248.46 391.44 247.47 391.11 246.49 391.15C245.5 391.2 244.55 391.61 243.89 392.29C243.76 392.41 243.65 392.55 243.55 392.69C243.35 392.97 243.19 393.27 243.08 393.59C243.03 393.76 242.98 393.94 242.95 394.11C242.92 394.34 242.9 394.56 242.91 394.79C242.93 395.02 242.96 395.24 243.02 395.47C243.07 395.64 243.13 395.81 243.2 395.97C243.34 396.28 243.53 396.57 243.76 396.83C243.87 396.96 244 397.09 244.14 397.2C244.86 397.82 245.85 398.15 246.84 398.1C247.82 398.06 248.78 397.65 249.44 396.97Z" id="m12KjhQYfz"></path><path d="M314.81 313.14C268.39 303.29 229.51 307.07 229.96 382.2C230.19 420.68 272.19 470.58 316.32 462.04C324.24 460.51 332.53 460.51 340.45 462.04C384.58 470.58 426.58 420.68 426.81 382.2C427.26 307.07 388.39 303.29 341.97 313.14C333.05 315.04 323.72 315.04 314.81 313.14Z" id="cysIaTHIS"></path><path d="M247.23 359.3C247.23 338.88 264.65 322.26 286.07 322.26C288.46 322.26 290.39 323.92 290.39 325.96C290.39 328.01 288.46 329.67 286.07 329.67C269.42 329.67 255.86 342.96 255.86 359.3C255.86 361.34 253.93 363 251.54 363C249.16 363 247.23 361.34 247.23 359.3Z" id="a42qyTSkC"></path><path d="M323.77 323.58C323.19 307.91 316.17 288.23 298.21 280.01C296.11 279.05 295.31 276.81 296.43 275C297.56 273.19 300.16 272.51 302.28 273.47C323.48 283.18 331.74 305.6 332.4 323.35C332.47 325.39 330.61 327.1 328.22 327.16C328.17 327.17 328.12 327.17 328.08 327.17C325.76 327.17 323.84 325.59 323.77 323.58Z" id="aqjXbIZSZ"></path><path d="M308.49 333.64C306.8 332.2 306.8 329.85 308.49 328.4C310.17 326.96 312.9 326.96 314.59 328.4C318.09 331.41 322.75 333.07 327.69 333.07C332.63 333.07 337.29 331.41 340.79 328.4C342.48 326.96 345.21 326.96 346.89 328.4C348.58 329.85 348.58 332.19 346.89 333.64C341.76 338.05 334.94 340.48 327.69 340.48C320.44 340.48 313.62 338.05 308.49 333.64Z" id="a1k9iGDaOk"></path><path d="M326.56 286.26C329.34 270.28 343.96 257.73 362.58 255.35C363.76 255.2 369.64 254.45 380.21 253.09C378.64 262.17 377.76 267.22 377.59 268.23C374.81 284.21 360.19 296.76 341.56 299.14C340.39 299.29 334.51 300.04 323.93 301.39C325.51 292.31 326.39 287.27 326.56 286.26Z" id="b3inHrVKGj"></path></defs><g><g><g><use xlink:href="#eG39zrlQm" opacity="1" fill="#f8933d" fill-opacity="1"></use><g><use xlink:href="#eG39zrlQm" opacity="1" fill-opacity="0" stroke="#000000" stroke-width="1" stroke-opacity="0"></use></g></g><g><use xlink:href="#azQwAbNB5" opacity="1" fill="#000000" fill-opacity="0"></use><g><use xlink:href="#azQwAbNB5" opacity="1" fill-opacity="0" stroke="#000000" stroke-width="1" stroke-opacity="0"></use></g></g><g><use xlink:href="#e8Kd0t3mM" opacity="1" fill="#ff6243" fill-opacity="1"></use><g><use xlink:href="#e8Kd0t3mM" opacity="1" fill-opacity="0" stroke="#000000" stroke-width="1" stroke-opacity="0"></use></g></g><g><use xlink:href="#fhzMqbwhg" opacity="1" fill="#000000" fill-opacity="0"></use><g><use xlink:href="#fhzMqbwhg" opacity="1" fill-opacity="0" stroke="#000000" stroke-width="1" stroke-opacity="0"></use></g></g><g><use xlink:href="#cPnORdfoo" opacity="1" fill="#ed5564" fill-opacity="1"></use><g><use xlink:href="#cPnORdfoo" opacity="1" fill-opacity="0" stroke="#000000" stroke-width="1" stroke-opacity="0"></use></g></g><g><use xlink:href="#hryMbQrJo" opacity="1" fill="#000000" fill-opacity="0"></use><g><use xlink:href="#hryMbQrJo" opacity="1" fill-opacity="0" stroke="#000000" stroke-width="1" stroke-opacity="0"></use></g></g><g><use xlink:href="#dUY5s92uC" opacity="1" fill="#e6e9ed" fill-opacity="1"></use><g><use xlink:href="#dUY5s92uC" opacity="1" fill-opacity="0" stroke="#000000" stroke-width="1" stroke-opacity="0"></use></g></g><g><use xlink:href="#a1bcjNOcOk" opacity="1" fill="#000000" fill-opacity="0"></use><g><use xlink:href="#a1bcjNOcOk" opacity="1" fill-opacity="0" stroke="#000000" stroke-width="1" stroke-opacity="0"></use></g></g><g><use xlink:href="#cWKBQMkiv" opacity="1" fill="#ccd1d9" fill-opacity="1"></use><g><use xlink:href="#cWKBQMkiv" opacity="1" fill-opacity="0" stroke="#000000" stroke-width="1" stroke-opacity="0"></use></g></g><g><use xlink:href="#cw4XCwfiN" opacity="1" fill="#000000" fill-opacity="0"></use><g><use xlink:href="#cw4XCwfiN" opacity="1" fill-opacity="0" stroke="#000000" stroke-width="1" stroke-opacity="0"></use></g></g><g><use xlink:href="#can6ZnD0t" opacity="1" fill="#7bc2d4" fill-opacity="1"></use><g><use xlink:href="#can6ZnD0t" opacity="1" fill-opacity="0" stroke="#000000" stroke-width="1" stroke-opacity="0"></use></g></g><g><use xlink:href="#a854vOZrpz" opacity="1" fill="#000000" fill-opacity="0"></use><g><use xlink:href="#a854vOZrpz" opacity="1" fill-opacity="0" stroke="#000000" stroke-width="1" stroke-opacity="0"></use></g></g><g><use xlink:href="#i1sJL49tjo" opacity="1" fill="#5697ee" fill-opacity="1"></use><g><use xlink:href="#i1sJL49tjo" opacity="1" fill-opacity="0" stroke="#000000" stroke-width="1" stroke-opacity="0"></use></g></g><g><use xlink:href="#a1okK8LtF8" opacity="1" fill="#000000" fill-opacity="0"></use><g><use xlink:href="#a1okK8LtF8" opacity="1" fill-opacity="0" stroke="#000000" stroke-width="1" stroke-opacity="0"></use></g></g><g><use xlink:href="#arTHWKMUT" opacity="1" fill="#5697ee" fill-opacity="1"></use><g><use xlink:href="#arTHWKMUT" opacity="1" fill-opacity="0" stroke="#000000" stroke-width="1" stroke-opacity="0"></use></g></g><g><use xlink:href="#bRbsrYZz" opacity="1" fill="#000000" fill-opacity="0"></use><g><use xlink:href="#bRbsrYZz" opacity="1" fill-opacity="0" stroke="#000000" stroke-width="1" stroke-opacity="0"></use></g></g><g><use xlink:href="#d8DMPac0b" opacity="1" fill="#5697ee" fill-opacity="1"></use><g><use xlink:href="#d8DMPac0b" opacity="1" fill-opacity="0" stroke="#000000" stroke-width="1" stroke-opacity="0"></use></g></g><g><use xlink:href="#aa0B1H8y" opacity="1" fill="#000000" fill-opacity="0"></use><g><use xlink:href="#aa0B1H8y" opacity="1" fill-opacity="0" stroke="#000000" stroke-width="1" stroke-opacity="0"></use></g></g><g><use xlink:href="#gjPdXKfYp" opacity="1" fill="#5697ee" fill-opacity="1"></use><g><use xlink:href="#gjPdXKfYp" opacity="1" fill-opacity="0" stroke="#000000" stroke-width="1" stroke-opacity="0"></use></g></g><g><use xlink:href="#a2ChpE8IfH" opacity="1" fill="#000000" fill-opacity="0"></use><g><use xlink:href="#a2ChpE8IfH" opacity="1" fill-opacity="0" stroke="#000000" stroke-width="1" stroke-opacity="0"></use></g></g><g><use xlink:href="#d1DcKQesJ" opacity="1" fill="#5697ee" fill-opacity="1"></use><g><use xlink:href="#d1DcKQesJ" opacity="1" fill-opacity="0" stroke="#000000" stroke-width="1" stroke-opacity="0"></use></g></g><g><use xlink:href="#bBm0TSZ7i" opacity="1" fill="#000000" fill-opacity="0"></use><g><use xlink:href="#bBm0TSZ7i" opacity="1" fill-opacity="0" stroke="#000000" stroke-width="1" stroke-opacity="0"></use></g></g><g><use xlink:href="#azq2XKrB" opacity="1" fill="#f5f7fa" fill-opacity="1"></use><g><use xlink:href="#azq2XKrB" opacity="1" fill-opacity="0" stroke="#000000" stroke-width="1" stroke-opacity="0"></use></g></g><g><use xlink:href="#a105NgTxnv" opacity="1" fill="#000000" fill-opacity="0"></use><g><use xlink:href="#a105NgTxnv" opacity="1" fill-opacity="0" stroke="#000000" stroke-width="1" stroke-opacity="0"></use></g></g><g><use xlink:href="#b3u0ge1CGt" opacity="1" fill="#f5f7fa" fill-opacity="1"></use><g><use xlink:href="#b3u0ge1CGt" opacity="1" fill-opacity="0" stroke="#000000" stroke-width="1" stroke-opacity="0"></use></g></g><g><use xlink:href="#aZm2wPXTe" opacity="1" fill="#000000" fill-opacity="0"></use><g><use xlink:href="#aZm2wPXTe" opacity="1" fill-opacity="0" stroke="#000000" stroke-width="1" stroke-opacity="0"></use></g></g><g><use xlink:href="#i1jQG6hOPI" opacity="1" fill="#e6e9ed" fill-opacity="1"></use><g><use xlink:href="#i1jQG6hOPI" opacity="1" fill-opacity="0" stroke="#000000" stroke-width="1" stroke-opacity="0"></use></g></g><g><use xlink:href="#d1rikZ51AO" opacity="1" fill="#000000" fill-opacity="0"></use><g><use xlink:href="#d1rikZ51AO" opacity="1" fill-opacity="0" stroke="#000000" stroke-width="1" stroke-opacity="0"></use></g></g><g><use xlink:href="#i1dRGscCV4" opacity="1" fill="#5697ee" fill-opacity="1"></use><g><use xlink:href="#i1dRGscCV4" opacity="1" fill-opacity="0" stroke="#000000" stroke-width="1" stroke-opacity="0"></use></g></g><g><use xlink:href="#j1rRCroM1X" opacity="1" fill="#000000" fill-opacity="0"></use><g><use xlink:href="#j1rRCroM1X" opacity="1" fill-opacity="0" stroke="#000000" stroke-width="1" stroke-opacity="0"></use></g></g><g><use xlink:href="#c2L0x1EwV2" opacity="1" fill="#5697ee" fill-opacity="1"></use><g><use xlink:href="#c2L0x1EwV2" opacity="1" fill-opacity="0" stroke="#000000" stroke-width="1" stroke-opacity="0"></use></g></g><g><use xlink:href="#d85dtn6K7" opacity="1" fill="#000000" fill-opacity="0"></use><g><use xlink:href="#d85dtn6K7" opacity="1" fill-opacity="0" stroke="#000000" stroke-width="1" stroke-opacity="0"></use></g></g><g><use xlink:href="#f3tomnhxhw" opacity="1" fill="#5697ee" fill-opacity="1"></use><g><use xlink:href="#f3tomnhxhw" opacity="1" fill-opacity="0" stroke="#000000" stroke-width="1" stroke-opacity="0"></use></g></g><g><use xlink:href="#bb8jdrHRP" opacity="1" fill="#000000" fill-opacity="0"></use><g><use xlink:href="#bb8jdrHRP" opacity="1" fill-opacity="0" stroke="#000000" stroke-width="1" stroke-opacity="0"></use></g></g><g><use xlink:href="#c53KC9L52" opacity="1" fill="#5697ee" fill-opacity="1"></use><g><use xlink:href="#c53KC9L52" opacity="1" fill-opacity="0" stroke="#000000" stroke-width="1" stroke-opacity="0"></use></g></g><g><use xlink:href="#eVNY5ibdr" opacity="1" fill="#000000" fill-opacity="0"></use><g><use xlink:href="#eVNY5ibdr" opacity="1" fill-opacity="0" stroke="#000000" stroke-width="1" stroke-opacity="0"></use></g></g><g><use xlink:href="#a2Oqg3a54" opacity="1" fill="#434a54" fill-opacity="1"></use><g><use xlink:href="#a2Oqg3a54" opacity="1" fill-opacity="0" stroke="#000000" stroke-width="1" stroke-opacity="0"></use></g></g><g><use xlink:href="#a72mKKIj17" opacity="1" fill="#000000" fill-opacity="0"></use><g><use xlink:href="#a72mKKIj17" opacity="1" fill-opacity="0" stroke="#000000" stroke-width="1" stroke-opacity="0"></use></g></g><g><use xlink:href="#a51QIkLCEo" opacity="1" fill="#ed5564" fill-opacity="1"></use><g><use xlink:href="#a51QIkLCEo" opacity="1" fill-opacity="0" stroke="#000000" stroke-width="1" stroke-opacity="0"></use></g></g><g><use xlink:href="#f3vjgQveq" opacity="1" fill="#000000" fill-opacity="0"></use><g><use xlink:href="#f3vjgQveq" opacity="1" fill-opacity="0" stroke="#000000" stroke-width="1" stroke-opacity="0"></use></g></g><g><use xlink:href="#dd6N4TAVr" opacity="1" fill="#ff6243" fill-opacity="1"></use><g><use xlink:href="#dd6N4TAVr" opacity="1" fill-opacity="0" stroke="#000000" stroke-width="1" stroke-opacity="0"></use></g></g><g><use xlink:href="#dIUOxDlgK" opacity="1" fill="#2d2d30" fill-opacity="1"></use><g><use xlink:href="#dIUOxDlgK" opacity="1" fill-opacity="0" stroke="#000000" stroke-width="1" stroke-opacity="0"></use></g></g><g><use xlink:href="#d2tBmkH8G5" opacity="1" fill="#000000" fill-opacity="0"></use><g><use xlink:href="#d2tBmkH8G5" opacity="1" fill-opacity="0" stroke="#000000" stroke-width="1" stroke-opacity="0"></use></g></g><g><use xlink:href="#b2qT9ID8wJ" opacity="1" fill="#2d2d30" fill-opacity="1"></use><g><use xlink:href="#b2qT9ID8wJ" opacity="1" fill-opacity="0" stroke="#000000" stroke-width="1" stroke-opacity="0"></use></g></g><g><use xlink:href="#c1HA9lqr2C" opacity="1" fill="#000000" fill-opacity="0"></use><g><use xlink:href="#c1HA9lqr2C" opacity="1" fill-opacity="0" stroke="#000000" stroke-width="1" stroke-opacity="0"></use></g></g><g><use xlink:href="#dyWgMtbxn" opacity="1" fill="#2d2d30" fill-opacity="1"></use><g><use xlink:href="#dyWgMtbxn" opacity="1" fill-opacity="0" stroke="#000000" stroke-width="1" stroke-opacity="0"></use></g></g><g><use xlink:href="#b5CgUpbJI" opacity="1" fill="#000000" fill-opacity="0"></use><g><use xlink:href="#b5CgUpbJI" opacity="1" fill-opacity="0" stroke="#000000" stroke-width="1" stroke-opacity="0"></use></g></g><g><use xlink:href="#c7bdECMKI" opacity="1" fill="#2d2d30" fill-opacity="1"></use><g><use xlink:href="#c7bdECMKI" opacity="1" fill-opacity="0" stroke="#000000" stroke-width="1" stroke-opacity="0"></use></g></g><g><use xlink:href="#eJTpXojN4" opacity="1" fill="#000000" fill-opacity="0"></use><g><use xlink:href="#eJTpXojN4" opacity="1" fill-opacity="0" stroke="#000000" stroke-width="1" stroke-opacity="0"></use></g></g><g><use xlink:href="#a34enUywI2" opacity="1" fill="#2d2d30" fill-opacity="1"></use><g><use xlink:href="#a34enUywI2" opacity="1" fill-opacity="0" stroke="#000000" stroke-width="1" stroke-opacity="0"></use></g></g><g><use xlink:href="#a2nDOI3R5M" opacity="1" fill="#000000" fill-opacity="0"></use><g><use xlink:href="#a2nDOI3R5M" opacity="1" fill-opacity="0" stroke="#000000" stroke-width="1" stroke-opacity="0"></use></g></g><g><use xlink:href="#cYIkIeGjz" opacity="1" fill="#2d2d30" fill-opacity="1"></use><g><use xlink:href="#cYIkIeGjz" opacity="1" fill-opacity="0" stroke="#000000" stroke-width="1" stroke-opacity="0"></use></g></g><g><use xlink:href="#a2Hb6AcAed" opacity="1" fill="#000000" fill-opacity="0"></use><g><use xlink:href="#a2Hb6AcAed" opacity="1" fill-opacity="0" stroke="#000000" stroke-width="1" stroke-opacity="0"></use></g></g><g><use xlink:href="#a27STYKb05" opacity="1" fill="#2d2d30" fill-opacity="1"></use><g><use xlink:href="#a27STYKb05" opacity="1" fill-opacity="0" stroke="#000000" stroke-width="1" stroke-opacity="0"></use></g></g><g><use xlink:href="#enqBL4mZM" opacity="1" fill="#000000" fill-opacity="0"></use><g><use xlink:href="#enqBL4mZM" opacity="1" fill-opacity="0" stroke="#000000" stroke-width="1" stroke-opacity="0"></use></g></g><g><use xlink:href="#c6aTMhNN3j" opacity="1" fill="#2d2d30" fill-opacity="1"></use><g><use xlink:href="#c6aTMhNN3j" opacity="1" fill-opacity="0" stroke="#000000" stroke-width="1" stroke-opacity="0"></use></g></g><g><use xlink:href="#a116Mjzg6j" opacity="1" fill="#000000" fill-opacity="0"></use><g><use xlink:href="#a116Mjzg6j" opacity="1" fill-opacity="0" stroke="#000000" stroke-width="1" stroke-opacity="0"></use></g></g><g><use xlink:href="#a1g5HGNUo" opacity="1" fill="#3bbc56" fill-opacity="1"></use><g><use xlink:href="#a1g5HGNUo" opacity="1" fill-opacity="0" stroke="#000000" stroke-width="1" stroke-opacity="0"></use></g></g><g><use xlink:href="#aDlNqZqZ7" opacity="1" fill="#30aa44" fill-opacity="1"></use><g><use xlink:href="#aDlNqZqZ7" opacity="1" fill-opacity="0" stroke="#000000" stroke-width="1" stroke-opacity="0"></use></g></g><g><use xlink:href="#d3oVpIWSGX" opacity="1" fill="#ffa92c" fill-opacity="1"></use><g><use xlink:href="#d3oVpIWSGX" opacity="1" fill-opacity="0" stroke="#000000" stroke-width="1" stroke-opacity="0"></use></g></g><g><use xlink:href="#g1N52q1ryP" opacity="1" fill="#f7991e" fill-opacity="1"></use><g><use xlink:href="#g1N52q1ryP" opacity="1" fill-opacity="0" stroke="#000000" stroke-width="1" stroke-opacity="0"></use></g></g><g><use xlink:href="#a70n554f5" opacity="1" fill="#93603e" fill-opacity="1"></use><g><use xlink:href="#a70n554f5" opacity="1" fill-opacity="0" stroke="#000000" stroke-width="1" stroke-opacity="0"></use></g></g><g><use xlink:href="#c6ooCodIkd" opacity="1" fill="#7f573c" fill-opacity="1"></use><g><use xlink:href="#c6ooCodIkd" opacity="1" fill-opacity="0" stroke="#000000" stroke-width="1" stroke-opacity="0"></use></g></g><g><use xlink:href="#b6VjYZz87k" opacity="1" fill="#ea8b18" fill-opacity="1"></use><g><use xlink:href="#b6VjYZz87k" opacity="1" fill-opacity="0" stroke="#000000" stroke-width="1" stroke-opacity="0"></use></g></g><g><use xlink:href="#bIhwaLnW" opacity="1" fill="#ea8b18" fill-opacity="1"></use><g><use xlink:href="#bIhwaLnW" opacity="1" fill-opacity="0" stroke="#000000" stroke-width="1" stroke-opacity="0"></use></g></g><g><use xlink:href="#a5lxXc4589" opacity="1" fill="#ea8b18" fill-opacity="1"></use><g><use xlink:href="#a5lxXc4589" opacity="1" fill-opacity="0" stroke="#000000" stroke-width="1" stroke-opacity="0"></use></g></g><g><use xlink:href="#lU4SofuKg" opacity="1" fill="#ea8b18" fill-opacity="1"></use><g><use xlink:href="#lU4SofuKg" opacity="1" fill-opacity="0" stroke="#000000" stroke-width="1" stroke-opacity="0"></use></g></g><g><use xlink:href="#m12KjhQYfz" opacity="1" fill="#ea8b18" fill-opacity="1"></use><g><use xlink:href="#m12KjhQYfz" opacity="1" fill-opacity="0" stroke="#000000" stroke-width="1" stroke-opacity="0"></use></g></g><g><use xlink:href="#cysIaTHIS" opacity="1" fill="#d13834" fill-opacity="1"></use><g><use xlink:href="#cysIaTHIS" opacity="1" fill-opacity="0" stroke="#000000" stroke-width="1" stroke-opacity="0"></use></g></g><g><use xlink:href="#a42qyTSkC" opacity="1" fill="#f75b57" fill-opacity="1"></use><g><use xlink:href="#a42qyTSkC" opacity="1" fill-opacity="0" stroke="#000000" stroke-width="1" stroke-opacity="0"></use></g></g><g><use xlink:href="#aqjXbIZSZ" opacity="1" fill="#4c312c" fill-opacity="1"></use><g><use xlink:href="#aqjXbIZSZ" opacity="1" fill-opacity="0" stroke="#000000" stroke-width="1" stroke-opacity="0"></use></g></g><g><use xlink:href="#a1k9iGDaOk" opacity="1" fill="#994530" fill-opacity="1"></use><g><use xlink:href="#a1k9iGDaOk" opacity="1" fill-opacity="0" stroke="#000000" stroke-width="1" stroke-opacity="0"></use></g></g><g><use xlink:href="#b3inHrVKGj" opacity="1" fill="#659c35" fill-opacity="1"></use><g><use xlink:href="#b3inHrVKGj" opacity="1" fill-opacity="0" stroke="#000000" stroke-width="1" stroke-opacity="0"></use></g></g></g></g></svg>