<?xml version="1.0" encoding="UTF-8" standalone="no"?>
<!DOCTYPE svg PUBLIC "-//W3C//DTD SVG 1.1//EN" "http://www.w3.org/Graphics/SVG/1.1/DTD/svg11.dtd">
<svg version="1.1" xmlns="http://www.w3.org/2000/svg" xmlns:xlink="http://www.w3.org/1999/xlink" preserveAspectRatio="xMidYMid meet" viewBox="0 0 640 640" width="640" height="640"><defs><path d="M410.74 94.76C415.98 94.76 420.23 98.83 420.23 103.86C420.23 261.05 377.09 400.68 372.18 416.05C372.18 420.04 372.18 451.96 372.18 455.95C372.18 460.97 367.93 465.05 362.7 465.05C350.01 465.05 248.52 465.05 235.84 465.05C230.6 465.05 226.36 460.98 226.36 455.95C226.36 451.96 226.36 420.04 226.36 416.05C221.45 400.68 178.31 261.05 178.31 103.86C178.31 98.83 182.56 94.76 187.79 94.76C232.38 94.76 388.45 94.76 410.74 94.76Z" id="a2ka7QjUWs"></path><path d="M244.77 416.05C239.86 400.68 196.72 261.05 196.72 103.86C196.72 98.83 200.97 94.76 206.21 94.76C204.36 94.76 189.63 94.76 187.79 94.76C182.56 94.76 178.31 98.83 178.31 103.86C178.31 261.05 221.45 400.68 226.36 416.05C226.36 420.04 226.36 451.96 226.36 455.95C226.36 460.97 230.6 465.05 235.84 465.05C237.68 465.05 252.41 465.05 254.25 465.05C249.02 465.05 244.77 460.98 244.77 455.95C244.77 447.97 244.77 420.04 244.77 416.05Z" id="eQ9x2RIiP"></path><path d="M182.1 187.55C192.76 307.89 222.31 403.48 226.32 416.05C240.91 416.05 357.57 416.05 372.15 416.05C375.95 404.15 402.65 317.79 414.52 206.47C380.84 212.35 333.09 215.21 294.81 196.13C252.85 175.22 208.89 180.66 182.1 187.55Z" id="c2K1WfwIeF"></path><path d="M226.36 416.05C228.2 416.05 242.93 416.05 244.77 416.05C240.71 403.35 210.58 305.89 200.22 183.78C193.6 184.84 187.52 186.16 182.13 187.54C192.79 307.88 222.34 403.48 226.36 416.05Z" id="bgkdj8O1a"></path><path d="M327.93 387.24C333.98 350.98 382.32 60.91 388.37 24.65C388.95 21.13 392.33 18.69 396.01 19.11C402.31 19.85 452.64 25.7 458.93 26.43C462.71 26.87 465.41 30.18 464.95 33.81C464.5 37.45 461.06 40.03 457.27 39.6C453.51 39.16 434.74 36.98 400.95 33.05C365.32 246.82 345.53 365.58 341.57 389.33C340.97 392.95 337.42 395.41 333.66 394.83C329.9 394.25 327.33 390.85 327.93 387.24Z" id="cMVPqIcIa"></path><path d="M39.96 403.32C39.96 452.83 85.27 491.38 136.94 485.12C188.59 491.38 233.91 452.84 233.91 403.32C233.91 353.81 188.6 315.26 136.94 321.52C85.28 315.26 39.96 353.8 39.96 403.32Z" id="a1Suv18uIR"></path><path d="M234.28 311.78C221.35 324.68 192.9 344.41 154.38 321.18C151.19 323.48 148.86 325.49 147.48 326.76C147.22 327.4 146.96 328.04 146.68 328.68C195.41 364.25 229.59 330.59 239.23 318.99C240.78 317.12 240.1 314.39 237.84 313.34C236.64 312.79 235.46 312.27 234.28 311.78Z" id="d1UJNCNXtv"></path><path d="M232.94 309.35C235.2 310.4 235.88 313.13 234.33 315C224.69 326.61 190.51 360.26 141.78 324.69C142.06 324.05 142.32 323.41 142.58 322.77C150.05 315.9 185.32 287.27 232.94 309.35Z" id="e2f4JgkJJ"></path><path d="M127.99 323.22C80.51 320.32 39.96 357.34 39.96 404.43C39.96 451.51 80.5 488.53 127.99 485.63C85.18 482.95 50.46 447.99 50.46 404.43C50.46 360.85 85.19 325.9 127.99 323.22Z" id="e4pdpe7srN"></path><path d="M193.58 238.31C195.91 236.72 196.08 233.53 193.94 231.72C192.37 230.4 179.85 219.85 178.28 218.53C175.78 216.42 171.85 216.86 169.98 219.48C160.56 232.64 136.75 271.68 141.57 324.71C141.79 327.18 145.62 327.27 145.94 324.81C149.06 301.08 159.44 261.46 193.58 238.31Z" id="a5ttRCdjv"></path><path d="M182.1 225.3C181.48 224.78 176.54 220.61 175.92 220.09C173.42 217.98 169.5 218.42 167.62 221.04C158.2 234.2 134.39 273.24 139.21 326.27C139.43 328.74 143.26 328.83 143.58 326.37C144.7 317.91 146.74 307.42 150.45 296.38C155.47 262.12 170.75 237.49 177.86 227.57C178.86 226.16 180.45 225.39 182.1 225.3Z" id="b17OOA9Nl"></path><path d="M191.94 391.46C192.11 391.3 192.26 391.13 192.41 390.95C192.69 390.6 192.91 390.21 193.07 389.8C193.16 389.58 193.23 389.34 193.28 389.12C193.34 388.82 193.37 388.52 193.37 388.22C193.37 387.92 193.34 387.62 193.28 387.32C193.23 387.09 193.16 386.86 193.07 386.64C192.91 386.22 192.69 385.84 192.41 385.49C192.26 385.31 192.11 385.13 191.94 384.98C191.03 384.12 189.76 383.63 188.47 383.63C187.19 383.63 185.92 384.12 185.01 384.98C184.84 385.13 184.68 385.31 184.54 385.49C184.26 385.84 184.03 386.23 183.87 386.65C183.79 386.87 183.72 387.1 183.67 387.32C183.61 387.62 183.57 387.92 183.57 388.22C183.57 388.52 183.61 388.82 183.67 389.12C183.72 389.34 183.79 389.57 183.87 389.79C184.03 390.2 184.26 390.59 184.54 390.95C184.68 391.13 184.84 391.3 185.01 391.46C185.92 392.32 187.19 392.81 188.47 392.81C189.76 392.81 191.03 392.32 191.94 391.46Z" id="eMKzI1Cz9"></path><path d="M191.28 419.29C191.45 419.13 191.61 418.96 191.76 418.78C192.03 418.43 192.26 418.04 192.42 417.63C192.5 417.4 192.58 417.17 192.62 416.95C192.69 416.65 192.72 416.35 192.72 416.05C192.72 415.75 192.69 415.45 192.62 415.15C192.58 414.92 192.5 414.69 192.42 414.46C192.26 414.05 192.03 413.67 191.76 413.32C191.61 413.13 191.45 412.96 191.28 412.81C190.37 411.95 189.11 411.46 187.82 411.46C186.53 411.46 185.27 411.95 184.36 412.81C184.19 412.96 184.03 413.13 183.88 413.32C183.6 413.67 183.38 414.06 183.22 414.48C183.13 414.7 183.06 414.92 183.02 415.15C182.95 415.45 182.92 415.75 182.92 416.05C182.92 416.35 182.95 416.65 183.02 416.95C183.06 417.17 183.13 417.4 183.22 417.62C183.37 418.03 183.6 418.42 183.88 418.78C184.03 418.96 184.19 419.13 184.36 419.29C185.27 420.15 186.53 420.63 187.82 420.63C189.11 420.63 190.37 420.15 191.28 419.29Z" id="a364H2ipi"></path><path d="M191.61 447.12C191.78 446.96 191.94 446.79 192.08 446.61C192.36 446.26 192.59 445.87 192.75 445.46C192.83 445.23 192.9 445 192.95 444.78C193.01 444.48 193.05 444.18 193.05 443.88C193.05 443.58 193.01 443.28 192.95 442.98C192.9 442.75 192.83 442.52 192.74 442.29C192.59 441.88 192.36 441.5 192.08 441.15C191.94 440.96 191.78 440.79 191.61 440.63C190.7 439.78 189.43 439.29 188.15 439.29C186.86 439.29 185.59 439.78 184.68 440.63C184.51 440.79 184.36 440.96 184.21 441.15C183.93 441.5 183.7 441.89 183.54 442.31C183.46 442.53 183.39 442.75 183.34 442.98C183.28 443.28 183.25 443.58 183.25 443.88C183.25 444.18 183.28 444.48 183.34 444.78C183.39 445 183.46 445.23 183.54 445.45C183.7 445.86 183.93 446.25 184.21 446.61C184.36 446.79 184.51 446.96 184.68 447.12C185.59 447.97 186.86 448.46 188.15 448.46C189.43 448.46 190.7 447.97 191.61 447.12Z" id="bWm3zjfgg"></path><path d="M213.29 405.39C213.45 405.23 213.6 405.05 213.74 404.86C214 404.5 214.2 404.1 214.34 403.69C214.42 403.46 214.48 403.23 214.51 403C214.56 402.69 214.58 402.39 214.56 402.09C214.55 401.79 214.5 401.5 214.42 401.2C214.36 400.97 214.28 400.75 214.18 400.53C214.01 400.12 213.76 399.75 213.46 399.41C213.31 399.23 213.15 399.07 212.97 398.92C212.02 398.1 210.73 397.67 209.44 397.73C208.16 397.78 206.91 398.33 206.05 399.22C205.89 399.38 205.74 399.56 205.6 399.75C205.34 400.12 205.13 400.52 204.99 400.94C204.92 401.16 204.86 401.39 204.83 401.62C204.78 401.92 204.76 402.22 204.78 402.52C204.79 402.82 204.84 403.12 204.92 403.42C204.97 403.64 205.06 403.86 205.15 404.08C205.33 404.48 205.58 404.87 205.88 405.21C206.03 405.38 206.19 405.55 206.37 405.7C207.32 406.51 208.61 406.95 209.9 406.89C211.18 406.83 212.42 406.29 213.29 405.39Z" id="a5AAfaeW8"></path><path d="M215 433.18C215.17 433.02 215.31 432.84 215.45 432.65C215.71 432.28 215.92 431.89 216.05 431.47C216.13 431.24 216.19 431.01 216.22 430.78C216.27 430.48 216.29 430.18 216.28 429.88C216.26 429.58 216.21 429.28 216.13 428.98C216.08 428.76 215.99 428.53 215.9 428.31C215.72 427.91 215.47 427.53 215.18 427.19C215.02 427.02 214.86 426.85 214.68 426.7C213.73 425.89 212.44 425.45 211.15 425.51C209.87 425.57 208.63 426.11 207.76 427.01C207.6 427.17 207.45 427.35 207.31 427.54C207.05 427.9 206.84 428.3 206.71 428.72C206.63 428.95 206.57 429.18 206.54 429.4C206.49 429.71 206.47 430.01 206.49 430.31C206.5 430.61 206.55 430.9 206.63 431.2C206.69 431.42 206.77 431.64 206.86 431.86C207.04 432.27 207.29 432.65 207.59 432.99C207.74 433.17 207.91 433.33 208.08 433.48C209.03 434.3 210.32 434.73 211.61 434.67C212.89 434.62 214.14 434.07 215 433.18Z" id="a3HzayGUq"></path></defs><g><g><g><use xlink:href="#a2ka7QjUWs" opacity="1" fill="#e0f7fc" fill-opacity="1"></use><g><use xlink:href="#a2ka7QjUWs" opacity="1" fill-opacity="0" stroke="#000000" stroke-width="1" stroke-opacity="0"></use></g></g><g><use xlink:href="#eQ9x2RIiP" opacity="1" fill="#beedf4" fill-opacity="1"></use><g><use xlink:href="#eQ9x2RIiP" opacity="1" fill-opacity="0" stroke="#000000" stroke-width="1" stroke-opacity="0"></use></g></g><g><use xlink:href="#c2K1WfwIeF" opacity="1" fill="#ffa92c" fill-opacity="0.92"></use><g><use xlink:href="#c2K1WfwIeF" opacity="1" fill-opacity="0" stroke="#000000" stroke-width="1" stroke-opacity="0"></use></g></g><g><use xlink:href="#bgkdj8O1a" opacity="1" fill="#fe9701" fill-opacity="1"></use><g><use xlink:href="#bgkdj8O1a" opacity="1" fill-opacity="0" stroke="#000000" stroke-width="1" stroke-opacity="0"></use></g></g><g><use xlink:href="#cMVPqIcIa" opacity="1" fill="#ea473b" fill-opacity="1"></use><g><use xlink:href="#cMVPqIcIa" opacity="1" fill-opacity="0" stroke="#000000" stroke-width="1" stroke-opacity="0"></use></g></g><g><use xlink:href="#a1Suv18uIR" opacity="1" fill="#ffa92c" fill-opacity="1"></use><g><use xlink:href="#a1Suv18uIR" opacity="1" fill-opacity="0" stroke="#000000" stroke-width="1" stroke-opacity="0"></use></g></g><g><use xlink:href="#d1UJNCNXtv" opacity="1" fill="#30aa44" fill-opacity="1"></use><g><use xlink:href="#d1UJNCNXtv" opacity="1" fill-opacity="0" stroke="#000000" stroke-width="1" stroke-opacity="0"></use></g></g><g><use xlink:href="#e2f4JgkJJ" opacity="1" fill="#3bbc56" fill-opacity="1"></use><g><use xlink:href="#e2f4JgkJJ" opacity="1" fill-opacity="0" stroke="#000000" stroke-width="1" stroke-opacity="0"></use></g></g><g><use xlink:href="#e4pdpe7srN" opacity="1" fill="#f7991e" fill-opacity="1"></use><g><use xlink:href="#e4pdpe7srN" opacity="1" fill-opacity="0" stroke="#000000" stroke-width="1" stroke-opacity="0"></use></g></g><g><use xlink:href="#a5ttRCdjv" opacity="1" fill="#93603e" fill-opacity="1"></use><g><use xlink:href="#a5ttRCdjv" opacity="1" fill-opacity="0" stroke="#000000" stroke-width="1" stroke-opacity="0"></use></g></g><g><use xlink:href="#b17OOA9Nl" opacity="1" fill="#7f573c" fill-opacity="1"></use><g><use xlink:href="#b17OOA9Nl" opacity="1" fill-opacity="0" stroke="#000000" stroke-width="1" stroke-opacity="0"></use></g></g><g><use xlink:href="#eMKzI1Cz9" opacity="1" fill="#ea8b18" fill-opacity="1"></use><g><use xlink:href="#eMKzI1Cz9" opacity="1" fill-opacity="0" stroke="#000000" stroke-width="1" stroke-opacity="0"></use></g></g><g><use xlink:href="#a364H2ipi" opacity="1" fill="#ea8b18" fill-opacity="1"></use><g><use xlink:href="#a364H2ipi" opacity="1" fill-opacity="0" stroke="#000000" stroke-width="1" stroke-opacity="0"></use></g></g><g><use xlink:href="#bWm3zjfgg" opacity="1" fill="#ea8b18" fill-opacity="1"></use><g><use xlink:href="#bWm3zjfgg" opacity="1" fill-opacity="0" stroke="#000000" stroke-width="1" stroke-opacity="0"></use></g></g><g><use xlink:href="#a5AAfaeW8" opacity="1" fill="#ea8b18" fill-opacity="1"></use><g><use xlink:href="#a5AAfaeW8" opacity="1" fill-opacity="0" stroke="#000000" stroke-width="1" stroke-opacity="0"></use></g></g><g><use xlink:href="#a3HzayGUq" opacity="1" fill="#ea8b18" fill-opacity="1"></use><g><use xlink:href="#a3HzayGUq" opacity="1" fill-opacity="0" stroke="#000000" stroke-width="1" stroke-opacity="0"></use></g></g></g></g></svg>