<?xml version="1.0" encoding="UTF-8" standalone="no"?>
<!DOCTYPE svg PUBLIC "-//W3C//DTD SVG 1.1//EN" "http://www.w3.org/Graphics/SVG/1.1/DTD/svg11.dtd">
<svg version="1.1" xmlns="http://www.w3.org/2000/svg" xmlns:xlink="http://www.w3.org/1999/xlink" preserveAspectRatio="xMidYMid meet" viewBox="0 0 640 640" width="640" height="640"><defs><path d="M187.74 396.65C189.49 396.65 203.48 396.65 205.23 396.65C201.38 383.96 183.92 384.09 187.74 396.65Z" id="aqrvc8mhs"></path><path d="M178.56 357.75C178.25 356.16 179.12 354.59 180.52 354.23C181.91 353.87 183.29 354.87 183.6 356.46C183.97 358.32 184.31 360.18 184.63 361.97C184.92 363.57 184.03 365.18 182.62 365.44C180.73 365.8 179.82 364.54 179.57 363.14C179.26 361.39 178.92 359.57 178.56 357.75Z" id="acOv2xZlv"></path><path d="M406.22 3.12C405.37 4 404.73 5 404.29 6.07C404.28 6.07 404.28 6.07 404.27 6.07L284.09 291.31L301.05 298.91L421.23 13.68C421.23 13.68 421.23 13.68 421.23 13.68C422.69 10.18 422.05 5.98 419.29 3.12C415.69 -0.6 409.82 -0.6 406.22 3.12Z" id="bdHrVHQh2"></path><path d="M223.78 114.87C211.2 190.74 275.78 187.26 275.78 187.26C284.72 186.41 356.22 179.57 365.16 178.71C365.16 178.71 408.23 204.04 384.61 121.63C357.28 26.28 273.5 13.75 288.69 42.39C303.88 71.02 232.92 59.69 223.78 114.87Z" id="a3N3DHbCk"></path><path d="M255.59 420.37L237.1 458.51L366.53 458.51L348.04 420.37L255.59 420.37Z" id="ewP2t2xCR"></path><path d="M301.81 114.87C251.89 114.87 224.16 114.87 218.61 114.87C218.61 114.87 200.12 133.97 200.12 191.24C200.12 229.42 209.36 309.71 255.59 420.34C256.82 420.34 262.98 420.34 274.08 420.34C318.46 420.34 343.11 420.34 348.04 420.34C394.26 309.71 403.51 229.42 403.51 191.24C403.51 133.97 385.01 114.87 385.01 114.87C373.92 114.87 346.19 114.87 301.81 114.87Z" id="aquR5O1T"></path><path d="M255.59 420.37C255.6 422.8 256.5 425.23 258.3 427.08C261.91 430.8 267.76 430.8 271.37 427.08C273.17 425.23 274.07 422.8 274.08 420.37C270.38 420.37 257.44 420.37 255.59 420.37Z" id="cc5HrsaO6"></path><path d="M274.08 420.37C274.09 422.8 274.99 425.23 276.78 427.08C280.4 430.8 286.25 430.8 289.86 427.08C291.66 425.23 292.56 422.8 292.57 420.37C288.87 420.37 275.93 420.37 274.08 420.37Z" id="b1SueRN9Nn"></path><path d="M292.57 420.37C292.58 422.8 293.48 425.23 295.28 427.08C298.89 430.8 304.74 430.8 308.35 427.08C310.15 425.23 311.05 422.8 311.06 420.37C307.36 420.37 294.42 420.37 292.57 420.37Z" id="dnEZAbMlc"></path><path d="M311.06 420.37C311.07 422.8 311.97 425.23 313.77 427.08C317.38 430.8 323.23 430.8 326.83 427.08C328.63 425.23 329.54 422.8 329.54 420.37C325.85 420.37 312.91 420.37 311.06 420.37Z" id="g2CNiaNZTO"></path><path d="M329.54 420.37C329.56 422.8 330.45 425.23 332.25 427.08C335.87 430.8 341.72 430.8 345.33 427.08C347.12 425.23 348.03 422.8 348.03 420.37C344.33 420.37 331.39 420.37 329.54 420.37Z" id="c1bHHbwNJt"></path><path d="M309.73 115.89C310.44 117.65 316.05 131.78 316.76 133.55C343.53 122.2 359.76 98.81 368.19 82.75C364.37 76.2 360.26 70.31 356 65.05C351.02 76.62 336.65 104.48 309.73 115.89Z" id="anV8oEYHw"></path><path d="M346.42 54.46C341.61 49.72 336.75 45.69 331.95 42.33C322.15 58.24 289.49 105.78 244.48 115.37C244.85 117.24 247.84 132.19 248.21 134.06C274.23 128.53 300.33 111.54 323.67 84.95C334.15 73.01 341.87 61.71 346.42 54.46Z" id="a6g7fgHOkf"></path><path d="M375.78 439.41C375.78 439.41 375.78 439.41 375.78 439.41L227.85 439.41C227.85 439.41 227.85 439.41 227.85 439.41C225.48 439.41 223.12 440.35 221.31 442.21C217.7 445.94 217.7 452 221.31 455.72C223.12 457.57 225.48 458.51 227.85 458.51C227.85 458.51 227.85 458.51 227.85 458.51L375.78 458.51C375.78 458.51 375.78 458.51 375.78 458.51C378.15 458.51 380.5 457.59 382.32 455.72C385.92 452 385.92 445.94 382.32 442.21C380.5 440.35 378.15 439.41 375.78 439.41Z" id="b2rVuH9ILZ"></path><path d="M400.24 153.05C394.93 125.11 385.01 114.87 385.01 114.87C379.47 114.87 351.73 114.87 301.81 114.87C251.89 114.87 224.16 114.87 218.61 114.87C218.61 114.87 208.7 125.11 203.39 153.05C242.76 153.05 380.55 153.05 400.24 153.05Z" id="a2r3loo2ao"></path><path d="M295.28 213.12C293.47 214.99 292.57 217.43 292.57 219.88C292.57 219.88 292.57 219.88 292.57 219.88L292.57 353.5C292.57 353.5 292.57 353.5 292.57 353.5C292.57 355.96 293.47 358.4 295.28 360.27C298.89 363.99 304.74 363.99 308.35 360.27C310.15 358.4 311.06 355.96 311.06 353.5C311.06 353.5 311.06 353.5 311.06 353.5L311.06 219.88C311.06 219.88 311.06 219.88 311.06 219.88C311.06 217.43 310.15 214.99 308.35 213.12C304.74 209.4 298.89 209.4 295.28 213.12Z" id="bJpqrdIet"></path><path d="M341.5 213.12C340.02 214.64 339.17 216.55 338.9 218.53C338.9 218.53 338.89 218.53 338.89 218.53L320.4 352.16C320.4 352.16 320.41 352.16 320.41 352.16C320.01 355.04 320.87 358.06 323.01 360.27C326.62 363.99 332.48 363.99 336.08 360.27C337.56 358.73 338.41 356.83 338.7 354.86C338.7 354.86 338.7 354.86 338.7 354.86L357.2 221.22C357.19 221.22 357.18 221.22 357.18 221.22C357.58 218.35 356.71 215.33 354.58 213.12C350.97 209.4 345.12 209.4 341.5 213.12Z" id="c2rgHA3Osj"></path><path d="M264.74 218.52C264.73 218.52 264.73 218.53 264.73 218.53C264.46 216.55 263.6 214.64 262.12 213.12C258.51 209.4 252.66 209.4 249.05 213.12C246.92 215.33 246.05 218.35 246.45 221.22C246.45 221.22 246.44 221.22 246.43 221.23L264.93 354.86C264.93 354.86 264.93 354.86 264.93 354.86C265.21 356.83 266.07 358.73 267.54 360.27C271.15 363.99 277.01 363.99 280.62 360.27C282.76 358.06 283.62 355.04 283.22 352.16C283.22 352.16 283.23 352.16 283.23 352.16L283.23 352.16L264.74 218.52Z" id="b6asnPcAkd"></path><path d="M246.38 66.25C246.38 66.32 246.37 66.37 246.37 66.37C246.37 66.32 246.69 60.7 243.4 54.64C238.94 46.43 230.01 40.94 216.86 38.34C211.85 37.35 208.56 32.35 209.52 27.17C210.48 21.99 215.33 18.6 220.34 19.59C233.7 22.23 251.44 29.07 260.22 46.63C265.58 57.37 264.89 66.98 264.79 68.04C262.34 67.8 256.2 67.2 246.38 66.25Z" id="b7K2DSi0I"></path><path d="M255.59 38.51C240.27 38.51 227.85 51.33 227.85 67.14C227.85 82.96 240.27 95.78 255.59 95.78C270.91 95.78 283.32 82.96 283.32 67.14C283.32 51.33 270.91 38.51 255.59 38.51Z" id="be2cHC2LH"></path><path d="M121.15 373.98C121.15 411.79 156.41 453 199.9 453C199.9 437.49 199.9 359.92 199.9 220.31L199.9 220.31C147.4 297.55 121.15 348.77 121.15 373.98Z" id="a5v4P0Kwv"></path><path d="M149.58 278.05C139.7 311.02 132.54 351.37 132.54 373.98C132.54 393.94 138.28 414.7 148.42 431.82C162.23 444.56 180.22 453 199.9 453C199.9 429.73 199.9 243.58 199.9 220.31C183.62 220.31 168.49 236.54 155.94 258.84C153.77 264.75 151.65 271.15 149.58 278.05Z" id="b4vgKDkCss"></path><path d="M199.9 453C169.11 453 144.14 411.79 144.14 373.98C144.14 336.17 169.11 220.31 199.9 220.31C230.7 220.31 255.67 336.17 255.67 373.98C255.67 411.79 230.7 453 199.9 453Z" id="cRHjeO660"></path><path d="M215.36 229.83C210.45 223.83 205.27 220.31 199.9 220.31C169.11 220.31 144.14 336.17 144.14 373.98C144.14 411.79 169.11 453 199.9 453C205.27 453 210.45 451.75 215.36 449.48C192.08 438.75 175.06 405.21 175.06 373.98C175.06 342.75 192.08 258.3 215.36 229.83Z" id="c17bmOEWcJ"></path><path d="M169.42 418.61C160.86 405.85 155.74 389.16 155.74 373.98C155.74 357.29 161.58 320.53 171.36 287.88C184 245.7 195.56 234.56 199.9 234.56C204.25 234.56 215.81 245.7 228.44 287.88C238.22 320.53 244.06 357.29 244.06 373.98C244.06 389.17 238.95 405.85 230.38 418.61C225.33 426.13 214.65 438.75 199.9 438.75C185.16 438.75 174.48 426.13 169.42 418.61Z" id="d1iFN5Hr0I"></path><path d="M171.36 287.88C161.59 320.53 155.74 357.29 155.74 373.98C155.74 389.17 160.86 405.85 169.42 418.61C174.48 426.13 185.16 438.75 199.9 438.75C200.07 438.75 200.24 438.74 200.4 438.74C185.14 423.42 175.05 398.02 175.05 373.98C175.05 346.14 188.59 276.02 208.01 240.95C204.44 236.28 201.61 234.56 199.9 234.56C195.56 234.56 184 245.7 171.36 287.88Z" id="a2PrwYWZXK"></path><path d="M214.83 294.03C214.28 292.18 215.05 290.14 216.55 289.46C218.06 288.78 219.72 289.72 220.28 291.57C223.39 301.97 226.33 313.7 228.79 325.5C229.19 327.4 228.28 329.51 226.7 329.83C224.33 330.31 223.5 328.87 223.17 327.26C220.76 315.7 217.88 304.21 214.83 294.03Z" id="e4MnjVQAse"></path><path d="M199.9 413.57C187.23 413.57 176.96 400.96 176.96 385.4C176.96 369.84 187.23 305.93 199.9 305.93C212.58 305.93 222.85 369.84 222.85 385.4C222.85 400.96 212.58 413.57 199.9 413.57Z" id="d2YcJgbjQK"></path><path d="M189.26 395.81C188.72 395.14 188.41 394.22 188.41 393.28C188.41 392.35 188.72 391.43 189.26 390.77C189.8 390.1 190.55 389.72 191.31 389.72C192.08 389.72 192.82 390.1 193.36 390.77C193.9 391.43 194.21 392.35 194.21 393.28C194.21 394.22 193.9 395.14 193.36 395.81C192.82 396.47 192.08 396.85 191.31 396.85C190.55 396.85 189.8 396.47 189.26 395.81Z" id="c1ZVCmsvU"></path><path d="M199.12 380.08C198.58 379.42 198.27 378.5 198.27 377.56C198.27 376.62 198.58 375.7 199.12 375.04C199.66 374.38 200.41 374 201.17 374C201.94 374 202.69 374.38 203.23 375.04C203.76 375.71 204.07 376.62 204.07 377.56C204.07 378.5 203.76 379.42 203.23 380.08C202.69 380.74 201.94 381.12 201.17 381.12C200.41 381.12 199.66 380.74 199.12 380.08Z" id="d4mhOUESSF"></path><path d="M212.47 380.08C211.93 379.42 211.62 378.5 211.62 377.56C211.62 376.62 211.93 375.7 212.47 375.04C213.01 374.38 213.75 374 214.52 374C215.28 374 216.03 374.38 216.57 375.04C217.11 375.71 217.42 376.62 217.42 377.56C217.42 378.5 217.11 379.42 216.57 380.08C216.03 380.74 215.28 381.12 214.52 381.12C213.76 381.12 213.01 380.74 212.47 380.08Z" id="g99YrmLNs"></path><path d="M186.36 372.96C185.82 372.29 185.51 371.38 185.51 370.44C185.51 369.5 185.82 368.58 186.36 367.92C186.9 367.26 187.65 366.88 188.41 366.88C189.17 366.88 189.92 367.26 190.46 367.92C191 368.59 191.31 369.5 191.31 370.44C191.31 371.38 191 372.29 190.46 372.96C189.92 373.62 189.17 374 188.41 374C187.65 374 186.9 373.62 186.36 372.96Z" id="b18ECWsh8Q"></path><path d="M203.5 358.64C202.96 357.98 202.65 357.06 202.65 356.12C202.65 355.19 202.96 354.26 203.5 353.6C204.04 352.94 204.78 352.56 205.55 352.56C206.31 352.56 207.06 352.94 207.6 353.6C208.14 354.27 208.45 355.18 208.45 356.12C208.45 357.06 208.14 357.98 207.6 358.64C207.06 359.3 206.31 359.68 205.55 359.68C204.78 359.68 204.04 359.3 203.5 358.64Z" id="i1j1NY34FE"></path><path d="M204.92 399.37C204.38 398.7 204.07 397.79 204.07 396.85C204.07 395.91 204.38 394.99 204.92 394.33C205.47 393.66 206.21 393.28 206.97 393.28C207.74 393.28 208.49 393.66 209.03 394.33C209.57 394.99 209.88 395.91 209.88 396.85C209.88 397.79 209.57 398.7 209.03 399.37C208.49 400.03 207.74 400.41 206.97 400.41C206.21 400.41 205.47 400.03 204.92 399.37Z" id="b7JBkVOWpQ"></path><path d="M202.02 333.32C201.48 332.66 201.17 331.74 201.17 330.8C201.17 329.87 201.48 328.95 202.02 328.29C202.56 327.62 203.31 327.24 204.07 327.24C204.84 327.24 205.59 327.62 206.13 328.29C206.67 328.95 206.97 329.87 206.97 330.8C206.97 331.74 206.66 332.66 206.13 333.32C205.59 333.98 204.84 334.36 204.07 334.36C203.31 334.36 202.57 333.98 202.02 333.32Z" id="f5iNdbBNQC"></path><path d="M192.16 349.76C191.62 349.1 191.31 348.18 191.31 347.24C191.31 346.31 191.62 345.38 192.16 344.72C192.7 344.06 193.45 343.68 194.21 343.68C194.98 343.68 195.72 344.06 196.26 344.72C196.8 345.39 197.11 346.31 197.11 347.24C197.11 348.18 196.8 349.1 196.26 349.76C195.72 350.42 194.98 350.8 194.21 350.8C193.45 350.8 192.7 350.42 192.16 349.76Z" id="b1A4szXm87"></path></defs><g><g><path></path><g><use xlink:href="#aqrvc8mhs" opacity="1" fill="#f8933d" fill-opacity="1"></use><g><use xlink:href="#aqrvc8mhs" opacity="1" fill-opacity="0" stroke="#000000" stroke-width="1" stroke-opacity="0"></use></g></g><g><use xlink:href="#acOv2xZlv" opacity="1" fill="#ff6243" fill-opacity="1"></use><g><use xlink:href="#acOv2xZlv" opacity="1" fill-opacity="0" stroke="#000000" stroke-width="1" stroke-opacity="0"></use></g></g><g><use xlink:href="#bdHrVHQh2" opacity="1" fill="#ed5564" fill-opacity="1"></use><g><use xlink:href="#bdHrVHQh2" opacity="1" fill-opacity="0" stroke="#000000" stroke-width="1" stroke-opacity="0"></use></g></g><g><use xlink:href="#a3N3DHbCk" opacity="1" fill="#e6e9ed" fill-opacity="1"></use><g><use xlink:href="#a3N3DHbCk" opacity="1" fill-opacity="0" stroke="#000000" stroke-width="1" stroke-opacity="0"></use></g></g><g><use xlink:href="#ewP2t2xCR" opacity="1" fill="#ccd1d9" fill-opacity="1"></use><g><use xlink:href="#ewP2t2xCR" opacity="1" fill-opacity="0" stroke="#000000" stroke-width="1" stroke-opacity="0"></use></g></g><g><use xlink:href="#aquR5O1T" opacity="1" fill="#7bc2d4" fill-opacity="1"></use><g><use xlink:href="#aquR5O1T" opacity="1" fill-opacity="0" stroke="#000000" stroke-width="1" stroke-opacity="0"></use></g></g><g><use xlink:href="#cc5HrsaO6" opacity="1" fill="#5697ee" fill-opacity="1"></use><g><use xlink:href="#cc5HrsaO6" opacity="1" fill-opacity="0" stroke="#000000" stroke-width="1" stroke-opacity="0"></use></g></g><g><use xlink:href="#b1SueRN9Nn" opacity="1" fill="#5697ee" fill-opacity="1"></use><g><use xlink:href="#b1SueRN9Nn" opacity="1" fill-opacity="0" stroke="#000000" stroke-width="1" stroke-opacity="0"></use></g></g><g><use xlink:href="#dnEZAbMlc" opacity="1" fill="#5697ee" fill-opacity="1"></use><g><use xlink:href="#dnEZAbMlc" opacity="1" fill-opacity="0" stroke="#000000" stroke-width="1" stroke-opacity="0"></use></g></g><g><use xlink:href="#g2CNiaNZTO" opacity="1" fill="#5697ee" fill-opacity="1"></use><g><use xlink:href="#g2CNiaNZTO" opacity="1" fill-opacity="0" stroke="#000000" stroke-width="1" stroke-opacity="0"></use></g></g><g><use xlink:href="#c1bHHbwNJt" opacity="1" fill="#5697ee" fill-opacity="1"></use><g><use xlink:href="#c1bHHbwNJt" opacity="1" fill-opacity="0" stroke="#000000" stroke-width="1" stroke-opacity="0"></use></g></g><g><use xlink:href="#anV8oEYHw" opacity="1" fill="#f5f7fa" fill-opacity="1"></use><g><use xlink:href="#anV8oEYHw" opacity="1" fill-opacity="0" stroke="#000000" stroke-width="1" stroke-opacity="0"></use></g></g><g><use xlink:href="#a6g7fgHOkf" opacity="1" fill="#f5f7fa" fill-opacity="1"></use><g><use xlink:href="#a6g7fgHOkf" opacity="1" fill-opacity="0" stroke="#000000" stroke-width="1" stroke-opacity="0"></use></g></g><g><use xlink:href="#b2rVuH9ILZ" opacity="1" fill="#e6e9ed" fill-opacity="1"></use><g><use xlink:href="#b2rVuH9ILZ" opacity="1" fill-opacity="0" stroke="#000000" stroke-width="1" stroke-opacity="0"></use></g></g><g><use xlink:href="#a2r3loo2ao" opacity="1" fill="#5697ee" fill-opacity="1"></use><g><use xlink:href="#a2r3loo2ao" opacity="1" fill-opacity="0" stroke="#000000" stroke-width="1" stroke-opacity="0"></use></g></g><g><use xlink:href="#bJpqrdIet" opacity="1" fill="#5697ee" fill-opacity="1"></use><g><use xlink:href="#bJpqrdIet" opacity="1" fill-opacity="0" stroke="#000000" stroke-width="1" stroke-opacity="0"></use></g></g><g><use xlink:href="#c2rgHA3Osj" opacity="1" fill="#5697ee" fill-opacity="1"></use><g><use xlink:href="#c2rgHA3Osj" opacity="1" fill-opacity="0" stroke="#000000" stroke-width="1" stroke-opacity="0"></use></g></g><g><use xlink:href="#b6asnPcAkd" opacity="1" fill="#5697ee" fill-opacity="1"></use><g><use xlink:href="#b6asnPcAkd" opacity="1" fill-opacity="0" stroke="#000000" stroke-width="1" stroke-opacity="0"></use></g></g><g><use xlink:href="#b7K2DSi0I" opacity="1" fill="#434a54" fill-opacity="1"></use><g><use xlink:href="#b7K2DSi0I" opacity="1" fill-opacity="0" stroke="#000000" stroke-width="1" stroke-opacity="0"></use></g></g><g><use xlink:href="#be2cHC2LH" opacity="1" fill="#ed5564" fill-opacity="1"></use><g><use xlink:href="#be2cHC2LH" opacity="1" fill-opacity="0" stroke="#000000" stroke-width="1" stroke-opacity="0"></use></g></g><g><use xlink:href="#a5v4P0Kwv" opacity="1" fill="#5eac24" fill-opacity="1"></use><g><use xlink:href="#a5v4P0Kwv" opacity="1" fill-opacity="0" stroke="#000000" stroke-width="1" stroke-opacity="0"></use></g></g><g><use xlink:href="#b4vgKDkCss" opacity="1" fill="#4e901e" fill-opacity="1"></use><g><use xlink:href="#b4vgKDkCss" opacity="1" fill-opacity="0" stroke="#000000" stroke-width="1" stroke-opacity="0"></use></g></g><g><use xlink:href="#cRHjeO660" opacity="1" fill="#ffe477" fill-opacity="1"></use><g><use xlink:href="#cRHjeO660" opacity="1" fill-opacity="0" stroke="#000000" stroke-width="1" stroke-opacity="0"></use></g></g><g><use xlink:href="#c17bmOEWcJ" opacity="1" fill="#ffda44" fill-opacity="1"></use><g><use xlink:href="#c17bmOEWcJ" opacity="1" fill-opacity="0" stroke="#000000" stroke-width="1" stroke-opacity="0"></use></g></g><g><use xlink:href="#d1iFN5Hr0I" opacity="1" fill="#ff7956" fill-opacity="1"></use><g><use xlink:href="#d1iFN5Hr0I" opacity="1" fill-opacity="0" stroke="#000000" stroke-width="1" stroke-opacity="0"></use></g></g><g><use xlink:href="#a2PrwYWZXK" opacity="1" fill="#ff6243" fill-opacity="1"></use><g><use xlink:href="#a2PrwYWZXK" opacity="1" fill-opacity="0" stroke="#000000" stroke-width="1" stroke-opacity="0"></use></g></g><g><use xlink:href="#e4MnjVQAse" opacity="1" fill="#ff6243" fill-opacity="1"></use><g><use xlink:href="#e4MnjVQAse" opacity="1" fill-opacity="0" stroke="#000000" stroke-width="1" stroke-opacity="0"></use></g></g><g><use xlink:href="#d2YcJgbjQK" opacity="1" fill="#3e3d42" fill-opacity="1"></use><g><use xlink:href="#d2YcJgbjQK" opacity="1" fill-opacity="0" stroke="#000000" stroke-width="1" stroke-opacity="0"></use></g></g><g><use xlink:href="#c1ZVCmsvU" opacity="1" fill="#2d2d30" fill-opacity="1"></use><g><use xlink:href="#c1ZVCmsvU" opacity="1" fill-opacity="0" stroke="#000000" stroke-width="1" stroke-opacity="0"></use></g></g><g><use xlink:href="#d4mhOUESSF" opacity="1" fill="#2d2d30" fill-opacity="1"></use><g><use xlink:href="#d4mhOUESSF" opacity="1" fill-opacity="0" stroke="#000000" stroke-width="1" stroke-opacity="0"></use></g></g><g><use xlink:href="#g99YrmLNs" opacity="1" fill="#2d2d30" fill-opacity="1"></use><g><use xlink:href="#g99YrmLNs" opacity="1" fill-opacity="0" stroke="#000000" stroke-width="1" stroke-opacity="0"></use></g></g><g><use xlink:href="#b18ECWsh8Q" opacity="1" fill="#2d2d30" fill-opacity="1"></use><g><use xlink:href="#b18ECWsh8Q" opacity="1" fill-opacity="0" stroke="#000000" stroke-width="1" stroke-opacity="0"></use></g></g><g><use xlink:href="#i1j1NY34FE" opacity="1" fill="#2d2d30" fill-opacity="1"></use><g><use xlink:href="#i1j1NY34FE" opacity="1" fill-opacity="0" stroke="#000000" stroke-width="1" stroke-opacity="0"></use></g></g><g><use xlink:href="#b7JBkVOWpQ" opacity="1" fill="#2d2d30" fill-opacity="1"></use><g><use xlink:href="#b7JBkVOWpQ" opacity="1" fill-opacity="0" stroke="#000000" stroke-width="1" stroke-opacity="0"></use></g></g><g><use xlink:href="#f5iNdbBNQC" opacity="1" fill="#2d2d30" fill-opacity="1"></use><g><use xlink:href="#f5iNdbBNQC" opacity="1" fill-opacity="0" stroke="#000000" stroke-width="1" stroke-opacity="0"></use></g></g><g><use xlink:href="#b1A4szXm87" opacity="1" fill="#2d2d30" fill-opacity="1"></use><g><use xlink:href="#b1A4szXm87" opacity="1" fill-opacity="0" stroke="#000000" stroke-width="1" stroke-opacity="0"></use></g></g></g></g></svg>