<?xml version="1.0" encoding="UTF-8" standalone="no"?>
<!DOCTYPE svg PUBLIC "-//W3C//DTD SVG 1.1//EN" "http://www.w3.org/Graphics/SVG/1.1/DTD/svg11.dtd">
<svg version="1.1" xmlns="http://www.w3.org/2000/svg" xmlns:xlink="http://www.w3.org/1999/xlink" preserveAspectRatio="xMidYMid meet" viewBox="0 0 640 640" width="640" height="640"><defs><path d="M362.48 75.63C367.45 75.63 371.48 79.7 371.48 84.72C371.48 241.78 330.51 381.29 325.84 396.65C325.84 400.64 325.84 432.53 325.84 436.51C325.84 441.54 321.81 445.61 316.83 445.61C304.78 445.61 208.38 445.61 196.33 445.61C191.35 445.61 187.32 441.54 187.32 436.51C187.32 432.53 187.32 400.64 187.32 396.65C182.65 381.29 141.68 241.78 141.68 84.72C141.68 79.7 145.71 75.63 150.68 75.63C193.04 75.63 341.3 75.63 362.48 75.63Z" id="elYCqXlGl"></path><path d="M204.81 396.65C200.15 381.29 159.17 241.78 159.17 84.72C159.17 79.7 163.2 75.63 168.18 75.63C166.43 75.63 152.43 75.63 150.68 75.63C145.71 75.63 141.68 79.7 141.68 84.72C141.68 241.78 182.65 381.29 187.32 396.65C187.32 400.64 187.32 432.53 187.32 436.51C187.32 441.54 191.35 445.61 196.33 445.61C198.08 445.61 212.07 445.61 213.82 445.61C208.84 445.61 204.81 441.54 204.81 436.51C204.81 428.54 204.81 400.64 204.81 396.65Z" id="budXc4sXB"></path><path d="M145.31 168.34C155.44 288.58 183.51 384.1 187.32 396.65C201.17 396.65 311.99 396.65 325.84 396.65C329.45 384.76 354.82 298.47 366.1 187.25C334.1 193.12 288.74 195.98 252.38 176.92C212.52 156.02 170.75 161.46 145.31 168.34Z" id="c21okavbv"></path><path d="M187.74 396.65C189.49 396.65 203.48 396.65 205.23 396.65C201.38 383.96 172.75 286.58 162.91 164.57C156.62 165.64 150.84 166.95 145.73 168.34C155.85 288.58 183.92 384.09 187.74 396.65Z" id="i2bxx2as6E"></path><path d="M283.81 367.86C289.55 331.63 335.48 41.81 341.22 5.58C341.78 2.06 344.99 -0.37 348.48 0.05C354.46 0.78 402.27 6.63 408.25 7.36C411.85 7.8 414.41 11.1 413.97 14.73C413.54 18.36 410.27 20.95 406.67 20.51C403.11 20.08 385.27 17.89 353.18 13.97C319.33 227.56 300.53 346.22 296.77 369.96C296.19 373.57 292.82 376.03 289.25 375.45C285.68 374.87 283.24 371.48 283.81 367.86Z" id="d9ElRgKg3B"></path><path d="M85.88 387.67C85.88 418.93 117.28 453 156.01 453C156.01 440.17 156.01 376.05 156.01 260.62L156.01 260.62C109.26 324.48 85.88 366.83 85.88 387.67Z" id="c2pRvHg1ZT"></path><path d="M111.2 308.36C102.4 335.62 96.02 368.98 96.02 387.67C96.02 404.17 101.13 421.33 110.16 435.49C122.46 446.02 138.48 453 156.01 453C156.01 433.76 156.01 279.86 156.01 260.62C141.51 260.62 128.04 274.04 116.86 292.48C114.92 297.36 113.04 302.66 111.2 308.36Z" id="e7qm5qoVPA"></path><path d="M156.01 453C128.58 453 106.35 418.93 106.35 387.67C106.35 356.41 128.58 260.62 156.01 260.62C183.43 260.62 205.67 356.41 205.67 387.67C205.67 418.93 183.43 453 156.01 453Z" id="aKTAKMwU5"></path><path d="M169.77 268.49C165.4 263.53 160.79 260.62 156.01 260.62C128.58 260.62 106.35 356.41 106.35 387.67C106.35 418.93 128.58 453 156.01 453C160.79 453 165.4 451.96 169.77 450.09C149.05 441.22 133.88 413.49 133.88 387.67C133.88 361.85 149.05 292.03 169.77 268.49Z" id="a2x7V7Y7y"></path><path d="M128.87 424.57C121.24 414.02 116.68 400.22 116.68 387.67C116.68 373.87 121.89 343.47 130.59 316.49C141.84 281.61 152.14 272.4 156.01 272.4C159.88 272.4 170.17 281.61 181.42 316.49C190.13 343.47 195.33 373.87 195.33 387.67C195.33 400.22 190.78 414.02 183.15 424.57C178.65 430.79 169.14 441.22 156.01 441.22C142.88 441.22 133.37 430.79 128.87 424.57Z" id="j2jwm3N6wJ"></path><path d="M130.59 316.49C121.89 343.47 116.68 373.87 116.68 387.67C116.68 400.22 121.24 414.02 128.87 424.57C133.37 430.79 142.88 441.22 156.01 441.22C156.16 441.22 156.31 441.21 156.46 441.21C142.87 428.54 133.88 407.54 133.88 387.67C133.88 364.66 145.93 306.68 163.23 277.68C160.05 273.83 157.53 272.4 156.01 272.4C152.14 272.4 141.84 281.61 130.59 316.49Z" id="a6gWCZ9ld"></path><path d="M169.3 321.57C168.81 320.04 169.5 318.35 170.83 317.79C172.17 317.23 173.66 318.01 174.15 319.54C176.93 328.13 179.55 337.83 181.73 347.58C182.09 349.16 181.28 350.9 179.87 351.17C177.76 351.56 177.03 350.37 176.73 349.04C174.58 339.48 172.02 329.98 169.3 321.57Z" id="a2rBItzqM"></path><path d="M178.56 357.75C178.25 356.16 179.12 354.59 180.52 354.23C181.91 353.87 183.29 354.87 183.6 356.46C183.97 358.32 184.31 360.18 184.63 361.97C184.92 363.57 184.03 365.18 182.62 365.44C180.73 365.8 179.82 364.54 179.57 363.14C179.26 361.39 178.92 359.57 178.56 357.75Z" id="acOv2xZlv"></path><path d="M156.01 420.4C144.72 420.4 135.57 409.97 135.57 397.11C135.57 384.24 144.72 331.41 156.01 331.41C167.29 331.41 176.44 384.24 176.44 397.11C176.44 409.97 167.29 420.4 156.01 420.4Z" id="b3wxN0qZM"></path><path d="M146.53 405.71C146.05 405.16 145.77 404.41 145.77 403.63C145.77 402.86 146.05 402.09 146.53 401.55C147.01 401 147.68 400.68 148.36 400.68C149.04 400.68 149.7 401 150.19 401.55C150.66 402.1 150.94 402.86 150.94 403.63C150.94 404.41 150.66 405.16 150.19 405.71C149.7 406.26 149.04 406.57 148.36 406.57C147.68 406.57 147.01 406.26 146.53 405.71Z" id="c1AeP0cqg9"></path><path d="M155.31 392.71C154.83 392.16 154.56 391.41 154.56 390.63C154.56 389.86 154.83 389.09 155.31 388.55C155.8 388 156.46 387.68 157.14 387.68C157.82 387.68 158.49 388 158.97 388.55C159.45 389.1 159.72 389.86 159.72 390.63C159.72 391.41 159.45 392.16 158.97 392.71C158.49 393.26 157.82 393.57 157.14 393.57C156.46 393.57 155.8 393.26 155.31 392.71Z" id="c66JbIcpT"></path><path d="M167.2 392.71C166.72 392.16 166.44 391.41 166.44 390.63C166.44 389.86 166.72 389.09 167.2 388.55C167.68 388 168.34 387.68 169.02 387.68C169.7 387.68 170.37 388 170.85 388.55C171.33 389.1 171.61 389.86 171.61 390.63C171.61 391.41 171.33 392.16 170.85 392.71C170.37 393.26 169.7 393.57 169.02 393.57C168.34 393.57 167.68 393.26 167.2 392.71Z" id="bZSDv47z3"></path><path d="M143.95 386.82C143.47 386.27 143.19 385.52 143.19 384.74C143.19 383.97 143.47 383.2 143.95 382.66C144.43 382.11 145.09 381.8 145.77 381.8C146.45 381.8 147.12 382.11 147.6 382.66C148.08 383.21 148.36 383.97 148.36 384.74C148.36 385.52 148.08 386.28 147.6 386.82C147.12 387.37 146.46 387.68 145.77 387.68C145.09 387.68 144.43 387.37 143.95 386.82Z" id="a2sLLkaaV5"></path><path d="M159.21 374.99C158.73 374.44 158.45 373.68 158.45 372.9C158.45 372.13 158.73 371.37 159.21 370.82C159.69 370.27 160.36 369.96 161.04 369.96C161.72 369.96 162.38 370.27 162.86 370.82C163.34 371.37 163.62 372.13 163.62 372.9C163.62 373.68 163.34 374.44 162.86 374.99C162.38 375.53 161.72 375.85 161.04 375.85C160.36 375.85 159.69 375.53 159.21 374.99Z" id="amjOlSRvm"></path><path d="M160.48 408.66C160 408.11 159.72 407.35 159.72 406.57C159.72 405.8 160 405.04 160.48 404.49C160.96 403.94 161.63 403.63 162.31 403.63C162.99 403.63 163.65 403.94 164.13 404.49C164.61 405.04 164.89 405.8 164.89 406.57C164.89 407.35 164.61 408.11 164.13 408.66C163.65 409.2 162.99 409.52 162.31 409.52C161.63 409.52 160.96 409.2 160.48 408.66Z" id="ck9PhWMjw"></path><path d="M157.9 354.06C157.41 353.51 157.14 352.75 157.14 351.97C157.14 351.2 157.41 350.44 157.9 349.89C158.38 349.34 159.04 349.03 159.72 349.03C160.4 349.03 161.07 349.34 161.55 349.89C162.03 350.44 162.31 351.2 162.31 351.97C162.31 352.75 162.03 353.51 161.55 354.06C161.07 354.6 160.4 354.92 159.72 354.92C159.04 354.92 158.38 354.6 157.9 354.06Z" id="aFYjUyRBt"></path><path d="M149.11 367.65C148.63 367.1 148.36 366.34 148.36 365.56C148.36 364.79 148.63 364.03 149.11 363.48C149.6 362.93 150.26 362.62 150.94 362.62C151.62 362.62 152.29 362.93 152.77 363.48C153.25 364.03 153.52 364.79 153.52 365.56C153.52 366.34 153.25 367.1 152.77 367.65C152.29 368.19 151.62 368.51 150.94 368.51C150.26 368.51 149.6 368.19 149.11 367.65Z" id="c2D58AHxpB"></path></defs><g><g><path></path><g><use xlink:href="#elYCqXlGl" opacity="1" fill="#e0f7fc" fill-opacity="1"></use><g><use xlink:href="#elYCqXlGl" opacity="1" fill-opacity="0" stroke="#000000" stroke-width="1" stroke-opacity="0"></use></g></g><g><use xlink:href="#budXc4sXB" opacity="1" fill="#beedf4" fill-opacity="1"></use><g><use xlink:href="#budXc4sXB" opacity="1" fill-opacity="0" stroke="#000000" stroke-width="1" stroke-opacity="0"></use></g></g><g><use xlink:href="#c21okavbv" opacity="1" fill="#fb8628" fill-opacity="0.78"></use><g><use xlink:href="#c21okavbv" opacity="1" fill-opacity="0" stroke="#000000" stroke-width="1" stroke-opacity="0"></use></g></g><g><use xlink:href="#i2bxx2as6E" opacity="1" fill="#f8933d" fill-opacity="1"></use><g><use xlink:href="#i2bxx2as6E" opacity="1" fill-opacity="0" stroke="#000000" stroke-width="1" stroke-opacity="0"></use></g></g><g><use xlink:href="#d9ElRgKg3B" opacity="1" fill="#ea473b" fill-opacity="1"></use><g><use xlink:href="#d9ElRgKg3B" opacity="1" fill-opacity="0" stroke="#000000" stroke-width="1" stroke-opacity="0"></use></g></g><g><use xlink:href="#c2pRvHg1ZT" opacity="1" fill="#5eac24" fill-opacity="1"></use><g><use xlink:href="#c2pRvHg1ZT" opacity="1" fill-opacity="0" stroke="#000000" stroke-width="1" stroke-opacity="0"></use></g></g><g><use xlink:href="#e7qm5qoVPA" opacity="1" fill="#4e901e" fill-opacity="1"></use><g><use xlink:href="#e7qm5qoVPA" opacity="1" fill-opacity="0" stroke="#000000" stroke-width="1" stroke-opacity="0"></use></g></g><g><use xlink:href="#aKTAKMwU5" opacity="1" fill="#ffe477" fill-opacity="1"></use><g><use xlink:href="#aKTAKMwU5" opacity="1" fill-opacity="0" stroke="#000000" stroke-width="1" stroke-opacity="0"></use></g></g><g><use xlink:href="#a2x7V7Y7y" opacity="1" fill="#ffda44" fill-opacity="1"></use><g><use xlink:href="#a2x7V7Y7y" opacity="1" fill-opacity="0" stroke="#000000" stroke-width="1" stroke-opacity="0"></use></g></g><g><use xlink:href="#j2jwm3N6wJ" opacity="1" fill="#ff7956" fill-opacity="1"></use><g><use xlink:href="#j2jwm3N6wJ" opacity="1" fill-opacity="0" stroke="#000000" stroke-width="1" stroke-opacity="0"></use></g></g><g><use xlink:href="#a6gWCZ9ld" opacity="1" fill="#ff6243" fill-opacity="1"></use><g><use xlink:href="#a6gWCZ9ld" opacity="1" fill-opacity="0" stroke="#000000" stroke-width="1" stroke-opacity="0"></use></g></g><g><use xlink:href="#a2rBItzqM" opacity="1" fill="#ff6243" fill-opacity="1"></use><g><use xlink:href="#a2rBItzqM" opacity="1" fill-opacity="0" stroke="#000000" stroke-width="1" stroke-opacity="0"></use></g></g><g><use xlink:href="#acOv2xZlv" opacity="1" fill="#ff6243" fill-opacity="1"></use><g><use xlink:href="#acOv2xZlv" opacity="1" fill-opacity="0" stroke="#000000" stroke-width="1" stroke-opacity="0"></use></g></g><g><use xlink:href="#b3wxN0qZM" opacity="1" fill="#3e3d42" fill-opacity="1"></use><g><use xlink:href="#b3wxN0qZM" opacity="1" fill-opacity="0" stroke="#000000" stroke-width="1" stroke-opacity="0"></use></g></g><g><use xlink:href="#c1AeP0cqg9" opacity="1" fill="#2d2d30" fill-opacity="1"></use><g><use xlink:href="#c1AeP0cqg9" opacity="1" fill-opacity="0" stroke="#000000" stroke-width="1" stroke-opacity="0"></use></g></g><g><use xlink:href="#c66JbIcpT" opacity="1" fill="#2d2d30" fill-opacity="1"></use><g><use xlink:href="#c66JbIcpT" opacity="1" fill-opacity="0" stroke="#000000" stroke-width="1" stroke-opacity="0"></use></g></g><g><use xlink:href="#bZSDv47z3" opacity="1" fill="#2d2d30" fill-opacity="1"></use><g><use xlink:href="#bZSDv47z3" opacity="1" fill-opacity="0" stroke="#000000" stroke-width="1" stroke-opacity="0"></use></g></g><g><use xlink:href="#a2sLLkaaV5" opacity="1" fill="#2d2d30" fill-opacity="1"></use><g><use xlink:href="#a2sLLkaaV5" opacity="1" fill-opacity="0" stroke="#000000" stroke-width="1" stroke-opacity="0"></use></g></g><g><use xlink:href="#amjOlSRvm" opacity="1" fill="#2d2d30" fill-opacity="1"></use><g><use xlink:href="#amjOlSRvm" opacity="1" fill-opacity="0" stroke="#000000" stroke-width="1" stroke-opacity="0"></use></g></g><g><use xlink:href="#ck9PhWMjw" opacity="1" fill="#2d2d30" fill-opacity="1"></use><g><use xlink:href="#ck9PhWMjw" opacity="1" fill-opacity="0" stroke="#000000" stroke-width="1" stroke-opacity="0"></use></g></g><g><use xlink:href="#aFYjUyRBt" opacity="1" fill="#2d2d30" fill-opacity="1"></use><g><use xlink:href="#aFYjUyRBt" opacity="1" fill-opacity="0" stroke="#000000" stroke-width="1" stroke-opacity="0"></use></g></g><g><use xlink:href="#c2D58AHxpB" opacity="1" fill="#2d2d30" fill-opacity="1"></use><g><use xlink:href="#c2D58AHxpB" opacity="1" fill-opacity="0" stroke="#000000" stroke-width="1" stroke-opacity="0"></use></g></g></g></g></svg>