<?xml version="1.0" encoding="UTF-8" standalone="no"?>
<!DOCTYPE svg PUBLIC "-//W3C//DTD SVG 1.1//EN" "http://www.w3.org/Graphics/SVG/1.1/DTD/svg11.dtd">
<svg version="1.1" xmlns="http://www.w3.org/2000/svg" xmlns:xlink="http://www.w3.org/1999/xlink" preserveAspectRatio="xMidYMid meet" viewBox="0 0 640 640" width="640" height="640"><defs><path d="M667.12 231.22C667.12 264.82 667.12 283.49 667.12 287.23C667.12 287.23 667.12 287.23 667.12 287.23C559.37 287.23 499.51 287.23 487.54 287.23C487.54 287.23 487.54 287.23 487.54 287.23C487.54 253.62 487.54 234.95 487.54 231.22C487.54 231.22 487.54 231.22 487.54 231.22C595.29 231.22 655.15 231.22 667.12 231.22C667.12 231.22 667.12 231.22 667.12 231.22Z" id="c7pJv027Ob"></path><path d="M389.2 85.19C394.98 85.19 399.66 89.61 399.66 95.07C399.66 265.75 352.11 417.37 346.69 434.06C346.69 438.39 346.69 473.05 346.69 477.38C346.69 482.84 342.01 487.27 336.24 487.27C322.26 487.27 210.38 487.27 196.4 487.27C190.62 487.27 185.94 482.84 185.94 477.38C185.94 473.05 185.94 438.39 185.94 434.06C180.53 417.37 132.98 265.75 132.98 95.07C132.98 89.61 137.66 85.19 143.43 85.19C192.59 85.19 364.63 85.19 389.2 85.19Z" id="a1UKZEEC01"></path><path d="M206.24 434.06C200.83 417.37 153.28 265.75 153.28 95.07C153.28 89.61 157.96 85.19 163.73 85.19C161.7 85.19 145.46 85.19 143.43 85.19C137.66 85.19 132.98 89.61 132.98 95.07C132.98 265.75 180.53 417.37 185.94 434.06C185.94 438.39 185.94 473.05 185.94 477.38C185.94 482.84 190.62 487.27 196.4 487.27C198.43 487.27 214.67 487.27 216.7 487.27C210.92 487.27 206.24 482.84 206.24 477.38C206.24 468.72 206.24 438.39 206.24 434.06Z" id="i5BHsCJ4kD"></path><path d="M138.21 185.95C149.96 316.61 182.54 420.41 186.96 434.06C203.04 434.06 331.64 434.06 347.71 434.06C351.9 421.14 381.34 327.37 394.42 206.49C357.29 212.88 304.66 215.98 262.46 195.26C216.2 172.56 167.74 178.47 138.21 185.95Z" id="b3zGMWSlND"></path><path d="M185.94 434.04C187.97 434.04 204.21 434.04 206.24 434.04C201.77 420.26 168.55 314.42 157.13 181.83C149.83 182.99 143.13 184.42 137.19 185.92C148.94 316.59 181.52 420.4 185.94 434.04Z" id="h4sdJvWagr"></path><path d="M297.92 402.77C304.58 363.4 357.88 48.43 364.54 9.06C365.18 5.24 368.91 2.59 372.97 3.05C379.91 3.85 435.39 10.2 442.32 11C446.5 11.47 449.47 15.06 448.97 19.01C448.46 22.96 444.67 25.77 440.49 25.29C436.36 24.82 415.66 22.45 378.41 18.18C339.14 250.3 317.32 379.26 312.95 405.05C312.29 408.98 308.38 411.65 304.23 411.02C300.08 410.39 297.26 406.7 297.92 402.77Z" id="a4NLrjozz"></path><path d="M171.71 242.53L132.65 256L100.15 231.22L109.99 329.41L124.94 300.99L129.61 332.51L171.71 242.53" id="a1aS4jTJrt"></path><path d="M137.14 231.95L144.16 286.66L112.23 281.61L137.14 231.95Z" id="h1kW4npFAn"></path><path d="M168.46 266.65L128.59 279.68L95.18 255.06L105.35 346.81L122.53 315.07L128.2 350.42L168.46 266.65" id="e1EhkihuxX"></path><path d="M129.71 275.33L140.92 305.54L109 300.49L129.71 275.33Z" id="b1vmP78ab"></path><path d="M172.35 292.6L125.12 299.93L82.84 278.44L102.11 350.52L120.47 327.03L130.03 354.93L172.35 292.6" id="j2ERyfWGrE"></path><path d="M176.98 321.33L121.67 320.06L68.85 304.24L99.06 342.54L119.73 331.38L135.58 348.31L176.98 321.33" id="aleSE21AM"></path><path d="M125.8 298.12L137.02 328.33L105.09 323.28L125.8 298.12Z" id="a2ptSs4lZG"></path><path d="M178.66 403.78C174.71 426.82 172.52 439.62 172.08 442.18C166.71 473.47 136.37 495.26 101.95 494.21C98.72 494.12 95.44 493.82 92.15 493.31C92.13 493.3 91.99 493.28 91.97 493.28C88.51 492.73 85.14 491.97 81.88 490.99C73.64 488.56 66.12 484.84 59.58 480.14C57.43 478.6 55.37 476.95 53.44 475.2C48.03 470.34 43.51 464.73 40.06 458.62C38.82 456.43 37.72 454.17 36.77 451.86C33.86 444.82 32.3 437.29 32.34 429.55C32.35 426.46 32.62 423.34 33.15 420.21C33.81 416.37 39.08 385.65 39.74 381.81C45.61 347.57 81.38 324.71 119.67 330.68C119.69 330.68 119.83 330.7 119.84 330.71C123.2 331.24 126.46 331.97 129.62 332.9C129.73 332.93 129.83 332.96 129.94 332.99C138.17 335.43 145.69 339.15 152.24 343.84C154.39 345.39 156.44 347.03 158.38 348.79C161.1 351.22 163.59 353.86 165.84 356.66C168.06 359.41 170.04 362.32 171.75 365.36C173 367.56 174.1 369.81 175.05 372.12C177.96 379.16 179.52 386.7 179.48 394.44C179.47 397.52 179.2 400.65 178.66 403.78" id="abbwRSCpW"></path><path d="M129.93 332.99L38.01 391.89L39.72 381.91L119.67 330.68C119.78 330.69 119.83 330.7 119.85 330.71C123.31 331.25 126.68 332.02 129.93 332.99" id="aVwO1Cak0"></path><path d="M158.38 348.78C82.76 397.24 40.74 424.16 32.34 429.55C32.35 426.46 32.62 423.34 33.16 420.21C33.16 420.2 33.16 420.18 33.17 420.14C104.61 374.36 144.3 348.93 152.24 343.84C154.39 345.39 156.45 347.03 158.38 348.78" id="c44M7LutT8"></path><path d="M175.05 372.13C94.06 424.02 49.07 452.86 40.07 458.62C38.82 456.43 37.72 454.17 36.77 451.86C50.27 443.21 158.25 374.01 171.75 365.36C173 367.56 174.1 369.81 175.05 372.13" id="aprQPVJsm"></path><path d="M178.66 403.77L178.65 403.84C107.21 449.62 67.52 475.06 59.58 480.14C57.43 478.6 55.37 476.95 53.44 475.2C66.04 467.12 166.87 402.51 179.48 394.44C179.47 397.52 179.2 400.64 178.66 403.77" id="a1MmAYObb1"></path><path d="M173.81 432.09L172.1 442.07L92.14 493.31C92.04 493.29 91.98 493.28 91.97 493.28C88.51 492.73 85.14 491.97 81.88 490.99C88.01 487.07 118.65 467.43 173.81 432.09" id="bJnyyGapD"></path><path d="M109.53 329.76L176.93 413.86L178.64 403.88L120.02 330.73C119.91 330.72 119.86 330.71 119.85 330.71C116.38 330.16 112.93 329.84 109.53 329.76" id="apCVBgpGg"></path><path d="M77.31 335.96C132.76 405.15 163.57 443.58 169.73 451.27C170.76 448.34 171.54 445.31 172.08 442.18C172.08 442.17 172.08 442.15 172.09 442.11C119.7 376.75 90.6 340.44 84.78 333.17C82.22 333.97 79.73 334.9 77.31 335.96" id="bto5xGfUo"></path><path d="M53.73 352.94C113.12 427.04 146.11 468.2 152.71 476.43C154.62 474.74 156.42 472.94 158.09 471.04C148.19 458.69 69.01 359.9 59.11 347.55C57.19 349.24 55.4 351.04 53.73 352.94" id="a2jlURZdIF"></path><path d="M39.74 381.81L39.73 381.88C92.11 447.24 121.22 483.55 127.04 490.81C129.6 490.01 132.09 489.08 134.51 488.02C125.27 476.49 51.33 384.24 42.09 372.71C41.06 375.64 40.28 378.68 39.74 381.81" id="aoouLvCwD"></path><path d="M34.89 410.12L33.17 420.11L91.8 493.25C91.9 493.27 91.96 493.28 91.97 493.28C95.44 493.83 98.89 494.14 102.29 494.22C97.8 488.61 75.33 460.58 34.89 410.12" id="d1XngbDALH"></path><path d="M155.05 474.25L155.05 474.25L155.05 474.26L155.05 474.25Z" id="a2r3GHNM2Y"></path><path d="M109.79 329.77L109.86 329.77L110.32 329.78L110.98 329.81L111.09 329.81L111.23 329.82L111.7 329.85L112.22 329.87L112.39 329.89L112.59 329.9L113.03 329.93L113.46 329.96L113.59 329.97L113.71 329.98L113.84 329.99L113.96 330L113.03 329.93L112.39 329.89L111.7 329.85L111.09 329.81L110.32 329.78L109.79 329.77L108.51 329.74L109.74 329.76L109.79 329.77Z" id="g3jXVhZg6"></path><path d="M159.42 441.31L159.47 441.04L159.52 440.76L159.57 440.48L159.62 440.2L159.84 438.93L160.96 440.32L159.42 441.31Z" id="a1sUBEQty1"></path><path d="M50.86 383.66L46.15 377.79L64.31 366.15L69.02 372.02L50.86 383.66Z" id="a8PpAiIWj"></path><path d="M64.18 400.27L70.35 396.31L68.7 405.92L64.18 400.27Z" id="e1p57XJ2bN"></path><path d="M171.75 365.36C166.46 368.75 163.52 370.63 162.94 371.01C163.89 373.41 164.68 375.87 165.31 378.37C166.28 377.75 174.07 372.75 175.05 372.13C174.1 369.81 173 367.56 171.75 365.36" id="iNkszTqmG"></path><path d="M164.27 413.06L165.98 403.08L167.51 402.1L172.21 407.97L164.27 413.06Z" id="dQXcEvPz"></path><path d="M156.13 452.3L156.33 451.81L156.53 451.31L156.72 450.81L156.91 450.31L157.09 449.81L157.27 449.3L157.71 448L158.11 446.69L158.48 445.37L158.83 444.03L159.14 442.68L159.42 441.31L160.96 440.32L165.66 446.2L156.13 452.3Z" id="a4raLLe1z7"></path><path d="M178.63 403.86L178.64 403.88L176.93 413.86L172.21 407.97L167.51 402.1L166.38 400.69L166.53 399.65L166.66 398.6L166.77 397.56L166.85 396.52L166.92 395.48L166.98 394.44L167.01 393.4L167.02 392.37L167.01 391.33L166.99 390.31L166.94 389.28L173.93 397.99L178.63 403.86Z" id="b7Z6wW71x"></path><path d="M172.07 442.09L172.09 442.11L172.08 442.18L171.91 443.11L171.73 444.04L171.53 444.97L171.31 445.89L171.09 446.8L170.84 447.71L170.59 448.61L170.32 449.5L170.03 450.39L169.73 451.27L165.66 446.2L160.96 440.32L159.84 438.93L161.55 428.95L167.37 436.22L172.07 442.09Z" id="bBJrqNVV7"></path><path d="M65.68 446.09L66.06 447.83L66.49 449.55L62.33 444.36L65.09 442.59L65.36 444.35L65.68 446.09Z" id="a1hWUMddcH"></path><path d="M39.74 381.9L39.72 381.91L38.01 391.89L44.45 387.77L39.74 381.9" id="e3fWar9XW3"></path><path d="M57.76 404.38L39.61 416.01L44.31 421.88L62.47 410.25L57.76 404.38" id="c8eRGVKun"></path><path d="M64.57 434.04L57.63 438.49L62.33 444.36C63.98 443.3 64.9 442.71 65.09 442.59C64.73 439.97 64.55 437.32 64.57 434.64C64.57 434.44 64.57 434.24 64.57 434.04" id="eWdtDLEgs"></path><path d="M101.59 494.2L101.65 494.2L101.65 494.2L101.66 494.2L101.74 494.2L101.88 494.21L101.95 494.21L102.14 494.22L102.34 494.22L102.48 494.23L102.72 494.23L102.53 494.23L102.48 494.23L102.39 494.22L102.07 494.22L101.74 494.21L101.54 494.2L101.53 494.2L101.48 494.2L101.42 494.19L101.54 494.2L101.59 494.2Z" id="c4QOT3rmW"></path><path d="M157.37 471.85L156.63 472.64L155.87 473.43L155.1 474.2L154.32 474.96L153.52 475.7L152.71 476.43L146.24 468.37L146.96 467.51L147.67 466.64L148.36 465.76L149.03 464.87L149.68 463.97L150.32 463.05L150.94 462.13L158.09 471.04L157.37 471.85Z" id="bcN8HuFzy"></path><path d="M134.16 488.17L133.8 488.33L133.45 488.48L133.09 488.62L132.74 488.77L132.43 488.89L132.13 489.01L131.83 489.13L131.52 489.25L131.21 489.37L131.19 489.38L131.11 489.41L131.08 489.42L131.08 489.42L131.06 489.43L131.05 489.43L130.26 489.72L129.46 490.01L128.66 490.28L127.85 490.55L127.04 490.81L122.91 485.66L124.32 485.01L125.71 484.32L127.08 483.61L128.44 482.87L129.77 482.1L134.51 488.02L134.16 488.17Z" id="a25qiipcL"></path><path d="M68.94 485.84L66.5 484.53L64.12 483.15L61.82 481.68L59.58 480.14L59.58 480.14L61.82 481.68L64.12 483.15L66.5 484.53L68.94 485.84L71.44 487.06L74.01 488.19L74.01 488.19L71.44 487.06L68.94 485.84Z" id="b2ouqbpl3b"></path><path d="M81.88 490.99L81.47 490.87L81.06 490.75L80.66 490.62L80.25 490.49L79.84 490.36L79.44 490.23L79.04 490.09L78.63 489.95L78.23 489.81L77.83 489.67L77.44 489.53L77.04 489.38L76.64 489.24L75.22 488.69L73.81 488.11L72.42 487.5L71.05 486.88L69.7 486.22L68.37 485.54L67.05 484.84L65.76 484.12L64.48 483.37L63.23 482.59L61.99 481.8L60.78 480.98L59.58 480.14L73.93 470.95L87.24 487.56L81.88 490.99Z" id="a4WmghsZYF"></path><path d="M33.19 420.13L33.17 420.14C33.16 420.18 33.16 420.2 33.16 420.21C32.62 423.34 32.35 426.46 32.34 429.55C32.34 429.55 32.34 429.55 32.34 429.55L37.89 425.99L33.19 420.13" id="b273dehYW"></path><path d="M51.21 442.61C42.54 448.16 37.73 451.24 36.77 451.86C37.72 454.17 38.82 456.43 40.07 458.62C40.07 458.62 40.07 458.62 40.07 458.62L55.91 448.47L51.21 442.61" id="b21ZOBE94k"></path><path d="M69.22 465.08C59.75 471.15 54.49 474.53 53.44 475.2C55.37 476.95 57.43 478.6 59.58 480.14C59.58 480.14 59.58 480.14 59.58 480.14L73.93 470.95L69.22 465.08" id="b5zRk3hTQK"></path><path d="M87.24 487.56C84.03 489.62 82.24 490.76 81.88 490.99C85.08 491.95 88.39 492.7 91.8 493.25C91.5 492.87 89.98 490.97 87.24 487.56" id="b2Sg4ziUa8"></path><path d="M92.58 493.37L92.8 493.4L93.02 493.44L92.8 493.4L92.58 493.37L92.36 493.34L92.14 493.3L92.36 493.34L92.58 493.37Z" id="ivgh09JFf"></path><path d="M92.14 493.31C92.09 493.3 92.03 493.29 91.97 493.28C91.98 493.28 92.04 493.29 92.14 493.31L92.14 493.31" id="c1gEyNJFdy"></path><path d="M34.89 410.12L33.17 420.11L33.19 420.13L37.89 425.99L51.21 442.61L55.91 448.47L69.22 465.08L73.93 470.95L87.24 487.56C89.98 490.97 91.5 492.87 91.8 493.25C91.86 493.26 91.91 493.27 91.97 493.28C91.97 493.28 91.97 493.28 91.97 493.28C92.03 493.29 92.09 493.3 92.14 493.31C92.43 493.35 92.73 493.39 93.02 493.44C93.07 493.44 93.11 493.45 93.16 493.46C93.16 493.46 93.16 493.46 93.16 493.46C95.93 493.85 98.69 494.1 101.42 494.2C101.49 494.2 101.57 494.2 101.64 494.2C101.65 494.2 101.65 494.2 101.65 494.2C101.65 494.2 101.66 494.2 101.66 494.2C101.87 494.21 102.08 494.22 102.29 494.22C101.91 493.75 98.89 489.98 98.51 489.51C96.18 488.2 93.94 486.77 91.8 485.24C89.65 483.69 87.59 482.05 85.66 480.3C80.25 475.43 75.74 469.83 72.29 463.72C71.04 461.52 69.94 459.27 68.99 456.95C67.99 454.54 67.15 452.07 66.48 449.55C66.21 449.2 64.82 447.47 62.32 444.36L57.62 438.49L44.31 421.88L39.6 416.01L34.89 410.12" id="a1q1GmLapi"></path></defs><g><g><g><use xlink:href="#c7pJv027Ob" opacity="1" fill="#000000" fill-opacity="0"></use><g><use xlink:href="#c7pJv027Ob" opacity="1" fill-opacity="0" stroke="#000000" stroke-width="1" stroke-opacity="0"></use></g></g><g><use xlink:href="#a1UKZEEC01" opacity="1" fill="#e0f7fc" fill-opacity="1"></use><g><use xlink:href="#a1UKZEEC01" opacity="1" fill-opacity="0" stroke="#000000" stroke-width="1" stroke-opacity="0"></use></g></g><g><use xlink:href="#i5BHsCJ4kD" opacity="1" fill="#beedf4" fill-opacity="1"></use><g><use xlink:href="#i5BHsCJ4kD" opacity="1" fill-opacity="0" stroke="#000000" stroke-width="1" stroke-opacity="0"></use></g></g><g><use xlink:href="#b3zGMWSlND" opacity="1" fill="#ffde55" fill-opacity="0.88"></use><g><use xlink:href="#b3zGMWSlND" opacity="1" fill-opacity="0" stroke="#000000" stroke-width="1" stroke-opacity="0"></use></g></g><g><use xlink:href="#h4sdJvWagr" opacity="1" fill="#ffde55" fill-opacity="1"></use><g><use xlink:href="#h4sdJvWagr" opacity="1" fill-opacity="0" stroke="#000000" stroke-width="1" stroke-opacity="0"></use></g></g><g><use xlink:href="#a4NLrjozz" opacity="1" fill="#ea473b" fill-opacity="1"></use><g><use xlink:href="#a4NLrjozz" opacity="1" fill-opacity="0" stroke="#000000" stroke-width="1" stroke-opacity="0"></use></g></g><g><use xlink:href="#a1aS4jTJrt" opacity="1" fill="#a9d856" fill-opacity="1"></use><g><use xlink:href="#a1aS4jTJrt" opacity="1" fill-opacity="0" stroke="#000000" stroke-width="1" stroke-opacity="0"></use></g></g><g><use xlink:href="#h1kW4npFAn" opacity="1" fill="#b7ed62" fill-opacity="1"></use><g><use xlink:href="#h1kW4npFAn" opacity="1" fill-opacity="0" stroke="#000000" stroke-width="1" stroke-opacity="0"></use></g></g><g><use xlink:href="#e1EhkihuxX" opacity="1" fill="#b7ed62" fill-opacity="1"></use><g><use xlink:href="#e1EhkihuxX" opacity="1" fill-opacity="0" stroke="#000000" stroke-width="1" stroke-opacity="0"></use></g></g><g><use xlink:href="#b1vmP78ab" opacity="1" fill="#a9d856" fill-opacity="1"></use><g><use xlink:href="#b1vmP78ab" opacity="1" fill-opacity="0" stroke="#000000" stroke-width="1" stroke-opacity="0"></use></g></g><g><use xlink:href="#j2ERyfWGrE" opacity="1" fill="#a9d856" fill-opacity="1"></use><g><use xlink:href="#j2ERyfWGrE" opacity="1" fill-opacity="0" stroke="#000000" stroke-width="1" stroke-opacity="0"></use></g></g><g><use xlink:href="#aleSE21AM" opacity="1" fill="#b7ed62" fill-opacity="1"></use><g><use xlink:href="#aleSE21AM" opacity="1" fill-opacity="0" stroke="#000000" stroke-width="1" stroke-opacity="0"></use></g></g><g><use xlink:href="#a2ptSs4lZG" opacity="1" fill="#b7ed62" fill-opacity="1"></use><g><use xlink:href="#a2ptSs4lZG" opacity="1" fill-opacity="0" stroke="#000000" stroke-width="1" stroke-opacity="0"></use></g></g><g><use xlink:href="#abbwRSCpW" opacity="1" fill="#ffde55" fill-opacity="1"></use><g><use xlink:href="#abbwRSCpW" opacity="1" fill-opacity="0" stroke="#000000" stroke-width="1" stroke-opacity="0"></use></g></g><g><use xlink:href="#aVwO1Cak0" opacity="1" fill="#e5c74a" fill-opacity="1"></use><g><use xlink:href="#aVwO1Cak0" opacity="1" fill-opacity="0" stroke="#000000" stroke-width="1" stroke-opacity="0"></use></g></g><g><use xlink:href="#c44M7LutT8" opacity="1" fill="#e5c74a" fill-opacity="1"></use><g><use xlink:href="#c44M7LutT8" opacity="1" fill-opacity="0" stroke="#000000" stroke-width="1" stroke-opacity="0"></use></g></g><g><use xlink:href="#aprQPVJsm" opacity="1" fill="#e5c74a" fill-opacity="1"></use><g><use xlink:href="#aprQPVJsm" opacity="1" fill-opacity="0" stroke="#000000" stroke-width="1" stroke-opacity="0"></use></g></g><g><use xlink:href="#a1MmAYObb1" opacity="1" fill="#e5c74a" fill-opacity="1"></use><g><use xlink:href="#a1MmAYObb1" opacity="1" fill-opacity="0" stroke="#000000" stroke-width="1" stroke-opacity="0"></use></g></g><g><use xlink:href="#bJnyyGapD" opacity="1" fill="#e5c74a" fill-opacity="1"></use><g><use xlink:href="#bJnyyGapD" opacity="1" fill-opacity="0" stroke="#000000" stroke-width="1" stroke-opacity="0"></use></g></g><g><use xlink:href="#apCVBgpGg" opacity="1" fill="#e5c74a" fill-opacity="1"></use><g><use xlink:href="#apCVBgpGg" opacity="1" fill-opacity="0" stroke="#000000" stroke-width="1" stroke-opacity="0"></use></g></g><g><use xlink:href="#bto5xGfUo" opacity="1" fill="#e5c74a" fill-opacity="1"></use><g><use xlink:href="#bto5xGfUo" opacity="1" fill-opacity="0" stroke="#000000" stroke-width="1" stroke-opacity="0"></use></g></g><g><use xlink:href="#a2jlURZdIF" opacity="1" fill="#e5c74a" fill-opacity="1"></use><g><use xlink:href="#a2jlURZdIF" opacity="1" fill-opacity="0" stroke="#000000" stroke-width="1" stroke-opacity="0"></use></g></g><g><use xlink:href="#aoouLvCwD" opacity="1" fill="#e5c74a" fill-opacity="1"></use><g><use xlink:href="#aoouLvCwD" opacity="1" fill-opacity="0" stroke="#000000" stroke-width="1" stroke-opacity="0"></use></g></g><g><use xlink:href="#d1XngbDALH" opacity="1" fill="#e5c74a" fill-opacity="1"></use><g><use xlink:href="#d1XngbDALH" opacity="1" fill-opacity="0" stroke="#000000" stroke-width="1" stroke-opacity="0"></use></g></g><g><use xlink:href="#a2r3GHNM2Y" opacity="1" fill="#e9e9e9" fill-opacity="1"></use><g><use xlink:href="#a2r3GHNM2Y" opacity="1" fill-opacity="0" stroke="#000000" stroke-width="1" stroke-opacity="0"></use></g></g><g><use xlink:href="#g3jXVhZg6" opacity="1" fill="#acda63" fill-opacity="1"></use><g><use xlink:href="#g3jXVhZg6" opacity="1" fill-opacity="0" stroke="#000000" stroke-width="1" stroke-opacity="0"></use></g></g><g><use xlink:href="#a1sUBEQty1" opacity="1" fill="#e9cd57" fill-opacity="1"></use><g><use xlink:href="#a1sUBEQty1" opacity="1" fill-opacity="0" stroke="#000000" stroke-width="1" stroke-opacity="0"></use></g></g><g><use xlink:href="#a8PpAiIWj" opacity="1" fill="#d3b94e" fill-opacity="1"></use><g><use xlink:href="#a8PpAiIWj" opacity="1" fill-opacity="0" stroke="#000000" stroke-width="1" stroke-opacity="0"></use></g></g><g><use xlink:href="#e1p57XJ2bN" opacity="1" fill="#d3b94e" fill-opacity="1"></use><g><use xlink:href="#e1p57XJ2bN" opacity="1" fill-opacity="0" stroke="#000000" stroke-width="1" stroke-opacity="0"></use></g></g><g><use xlink:href="#iNkszTqmG" opacity="1" fill="#d3b94e" fill-opacity="1"></use><g><use xlink:href="#iNkszTqmG" opacity="1" fill-opacity="0" stroke="#000000" stroke-width="1" stroke-opacity="0"></use></g></g><g><use xlink:href="#dQXcEvPz" opacity="1" fill="#d3b94e" fill-opacity="1"></use><g><use xlink:href="#dQXcEvPz" opacity="1" fill-opacity="0" stroke="#000000" stroke-width="1" stroke-opacity="0"></use></g></g><g><use xlink:href="#a4raLLe1z7" opacity="1" fill="#d3b94e" fill-opacity="1"></use><g><use xlink:href="#a4raLLe1z7" opacity="1" fill-opacity="0" stroke="#000000" stroke-width="1" stroke-opacity="0"></use></g></g><g><use xlink:href="#b7Z6wW71x" opacity="1" fill="#d3b94e" fill-opacity="1"></use><g><use xlink:href="#b7Z6wW71x" opacity="1" fill-opacity="0" stroke="#000000" stroke-width="1" stroke-opacity="0"></use></g></g><g><use xlink:href="#bBJrqNVV7" opacity="1" fill="#d3b94e" fill-opacity="1"></use><g><use xlink:href="#bBJrqNVV7" opacity="1" fill-opacity="0" stroke="#000000" stroke-width="1" stroke-opacity="0"></use></g></g><g><use xlink:href="#a1hWUMddcH" opacity="1" fill="#e9cd57" fill-opacity="1"></use><g><use xlink:href="#a1hWUMddcH" opacity="1" fill-opacity="0" stroke="#000000" stroke-width="1" stroke-opacity="0"></use></g></g><g><use xlink:href="#e3fWar9XW3" opacity="1" fill="#d3b94e" fill-opacity="1"></use><g><use xlink:href="#e3fWar9XW3" opacity="1" fill-opacity="0" stroke="#000000" stroke-width="1" stroke-opacity="0"></use></g></g><g><use xlink:href="#c8eRGVKun" opacity="1" fill="#d3b94e" fill-opacity="1"></use><g><use xlink:href="#c8eRGVKun" opacity="1" fill-opacity="0" stroke="#000000" stroke-width="1" stroke-opacity="0"></use></g></g><g><use xlink:href="#eWdtDLEgs" opacity="1" fill="#d3b94e" fill-opacity="1"></use><g><use xlink:href="#eWdtDLEgs" opacity="1" fill-opacity="0" stroke="#000000" stroke-width="1" stroke-opacity="0"></use></g></g><g><use xlink:href="#c4QOT3rmW" opacity="1" fill="#e9e9e9" fill-opacity="1"></use><g><use xlink:href="#c4QOT3rmW" opacity="1" fill-opacity="0" stroke="#000000" stroke-width="1" stroke-opacity="0"></use></g></g><path></path><g><use xlink:href="#bcN8HuFzy" opacity="1" fill="#d3b94e" fill-opacity="1"></use><g><use xlink:href="#bcN8HuFzy" opacity="1" fill-opacity="0" stroke="#000000" stroke-width="1" stroke-opacity="0"></use></g></g><g><use xlink:href="#a25qiipcL" opacity="1" fill="#d3b94e" fill-opacity="1"></use><g><use xlink:href="#a25qiipcL" opacity="1" fill-opacity="0" stroke="#000000" stroke-width="1" stroke-opacity="0"></use></g></g><g><use xlink:href="#b2ouqbpl3b" opacity="1" fill="#e9e9e9" fill-opacity="1"></use><g><use xlink:href="#b2ouqbpl3b" opacity="1" fill-opacity="0" stroke="#000000" stroke-width="1" stroke-opacity="0"></use></g></g><g><use xlink:href="#a4WmghsZYF" opacity="1" fill="#e9cd57" fill-opacity="1"></use><g><use xlink:href="#a4WmghsZYF" opacity="1" fill-opacity="0" stroke="#000000" stroke-width="1" stroke-opacity="0"></use></g></g><g><use xlink:href="#b273dehYW" opacity="1" fill="#d3b94e" fill-opacity="1"></use><g><use xlink:href="#b273dehYW" opacity="1" fill-opacity="0" stroke="#000000" stroke-width="1" stroke-opacity="0"></use></g></g><g><use xlink:href="#b21ZOBE94k" opacity="1" fill="#d3b94e" fill-opacity="1"></use><g><use xlink:href="#b21ZOBE94k" opacity="1" fill-opacity="0" stroke="#000000" stroke-width="1" stroke-opacity="0"></use></g></g><g><use xlink:href="#b5zRk3hTQK" opacity="1" fill="#d3b94e" fill-opacity="1"></use><g><use xlink:href="#b5zRk3hTQK" opacity="1" fill-opacity="0" stroke="#000000" stroke-width="1" stroke-opacity="0"></use></g></g><g><use xlink:href="#b2Sg4ziUa8" opacity="1" fill="#d3b94e" fill-opacity="1"></use><g><use xlink:href="#b2Sg4ziUa8" opacity="1" fill-opacity="0" stroke="#000000" stroke-width="1" stroke-opacity="0"></use></g></g><g><use xlink:href="#ivgh09JFf" opacity="1" fill="#e9cd57" fill-opacity="1"></use><g><use xlink:href="#ivgh09JFf" opacity="1" fill-opacity="0" stroke="#000000" stroke-width="1" stroke-opacity="0"></use></g></g><g><use xlink:href="#c1gEyNJFdy" opacity="1" fill="#d3b94e" fill-opacity="1"></use><g><use xlink:href="#c1gEyNJFdy" opacity="1" fill-opacity="0" stroke="#000000" stroke-width="1" stroke-opacity="0"></use></g></g><g><use xlink:href="#a1q1GmLapi" opacity="1" fill="#d3b94e" fill-opacity="1"></use><g><use xlink:href="#a1q1GmLapi" opacity="1" fill-opacity="0" stroke="#000000" stroke-width="1" stroke-opacity="0"></use></g></g></g></g></svg>