<?xml version="1.0" encoding="UTF-8" standalone="no"?>
<!DOCTYPE svg PUBLIC "-//W3C//DTD SVG 1.1//EN" "http://www.w3.org/Graphics/SVG/1.1/DTD/svg11.dtd">
<svg version="1.1" xmlns="http://www.w3.org/2000/svg" xmlns:xlink="http://www.w3.org/1999/xlink" preserveAspectRatio="xMidYMid meet" viewBox="0 0 640 640" width="640" height="640"><defs><path d="M632.12 231.22C632.12 264.82 632.12 283.49 632.12 287.23C632.12 287.23 632.12 287.23 632.12 287.23C524.37 287.23 464.51 287.23 452.54 287.23C452.54 287.23 452.54 287.23 452.54 287.23C452.54 253.62 452.54 234.95 452.54 231.22C452.54 231.22 452.54 231.22 452.54 231.22C560.29 231.22 620.15 231.22 632.12 231.22C632.12 231.22 632.12 231.22 632.12 231.22Z" id="a25FoXi5ek"></path><path d="M354.2 85.19C359.98 85.19 364.66 89.61 364.66 95.07C364.66 265.75 317.11 417.37 311.69 434.06C311.69 438.39 311.69 473.05 311.69 477.38C311.69 482.84 307.01 487.27 301.24 487.27C287.26 487.27 175.38 487.27 161.4 487.27C155.62 487.27 150.94 482.84 150.94 477.38C150.94 473.05 150.94 438.39 150.94 434.06C145.53 417.37 97.98 265.75 97.98 95.07C97.98 89.61 102.66 85.19 108.43 85.19C157.59 85.19 329.63 85.19 354.2 85.19Z" id="dKQL4kg15"></path><path d="M171.24 434.06C165.83 417.37 118.28 265.75 118.28 95.07C118.28 89.61 122.96 85.19 128.73 85.19C126.7 85.19 110.46 85.19 108.43 85.19C102.66 85.19 97.98 89.61 97.98 95.07C97.98 265.75 145.53 417.37 150.94 434.06C150.94 438.39 150.94 473.05 150.94 477.38C150.94 482.84 155.62 487.27 161.4 487.27C163.43 487.27 179.67 487.27 181.7 487.27C175.92 487.27 171.24 482.84 171.24 477.38C171.24 468.72 171.24 438.39 171.24 434.06Z" id="f33MQy1zds"></path><path d="M102.19 185.95C113.95 316.61 146.52 420.41 150.94 434.06C167.02 434.06 295.62 434.06 311.69 434.06C315.88 421.14 345.32 327.37 358.41 206.49C321.27 212.88 268.64 215.98 226.44 195.26C180.18 172.56 131.72 178.47 102.19 185.95Z" id="d4BSgK7EfE"></path><path d="M150.94 434.06C152.97 434.06 169.21 434.06 171.24 434.06C166.77 420.27 133.56 314.44 122.13 181.85C114.84 183 108.13 184.44 102.19 185.94C113.94 316.61 146.52 420.41 150.94 434.06Z" id="b2tP3q7iL"></path><path d="M262.92 402.77C269.58 363.4 322.88 48.43 329.54 9.06C330.18 5.24 333.91 2.59 337.97 3.05C344.91 3.85 400.39 10.2 407.32 11C411.5 11.47 414.47 15.06 413.97 19.01C413.46 22.96 409.67 25.77 405.49 25.29C401.36 24.82 380.66 22.45 343.41 18.18C304.14 250.3 282.32 379.26 277.95 405.05C277.29 408.98 273.38 411.65 269.23 411.02C265.08 410.39 262.26 406.7 262.92 402.77Z" id="b1wbLVqRio"></path><path d="M79.52 261.46C79.04 261.39 75.13 260.81 74.64 260.74C72.57 260.43 70.62 261.75 70.29 263.68C69.96 265.61 71.37 267.42 73.44 267.72C73.65 267.76 74.68 267.91 76.55 268.19C82.38 277.54 85.62 282.74 86.27 283.78C86.98 284.91 88.25 285.54 89.56 285.54C90.21 285.54 90.86 285.39 91.46 285.06C93.28 284.08 93.9 281.92 92.84 280.23C92.13 279.09 88.59 273.41 82.21 263.18C81.17 262.15 80.28 261.57 79.52 261.46Z" id="bipXVczAF"></path><path d="M136.4 260.79C135.92 260.89 132.09 261.73 131.61 261.83C130.47 262.08 129.51 262.81 129.02 263.8C128.19 265.47 121.58 278.85 120.75 280.53C119.88 282.3 120.71 284.4 122.62 285.22C123.13 285.44 123.67 285.54 124.2 285.54C125.64 285.54 127.01 284.78 127.66 283.48C128.16 282.47 130.65 277.42 135.15 268.33C136.94 267.94 137.93 267.72 138.13 267.68C140.17 267.23 141.44 265.33 140.97 263.43C140.49 261.53 138.46 260.35 136.4 260.79Z" id="e370zX1ZJB"></path><path d="M103.57 259.22C101.47 259.22 99.77 260.81 99.77 262.76C99.77 264.17 100.68 265.37 101.96 265.94C102.04 267.57 102.62 280.67 102.69 282.31C102.78 284.21 104.46 285.7 106.49 285.7C106.54 285.7 106.59 285.7 106.64 285.7C108.74 285.62 110.37 283.97 110.28 282.02C110.21 280.39 109.63 267.42 109.56 265.8C110.72 265.19 111.54 264.08 111.54 262.76C111.54 260.81 109.83 259.22 107.74 259.22C106.9 259.22 103.99 259.22 103.57 259.22Z" id="eUkfdfHiA"></path><path d="M205.44 368.91C205.44 368.89 205.44 368.88 205.44 368.86C204.44 344.77 187.47 323.49 162.19 314.63C160.78 314.14 153.76 311.67 141.12 307.24C145.11 293.66 147.33 286.11 147.77 284.6C148.4 282.47 147.92 280.19 146.48 278.44C145.04 276.69 142.81 275.66 140.44 275.66C133.97 275.66 82.2 275.66 75.73 275.66C73.36 275.66 71.13 276.69 69.69 278.44C68.25 280.19 67.78 282.47 68.4 284.6C68.84 286.11 71.06 293.66 75.05 307.24C62.41 311.67 55.39 314.14 53.98 314.63C28.7 323.49 11.72 344.77 10.73 368.91C10.6 372.96 9.5 405.4 9.37 409.46C8.41 432.61 21.12 453.72 41.73 463.25C53.22 468.55 85.8 479.81 92.5 482.11C97.12 485.37 102.6 487 108.08 487C113.56 487 119.05 485.37 123.67 482.11C130.37 479.81 162.95 468.55 174.44 463.25C195.05 453.73 207.76 432.61 206.81 409.5C206.53 401.39 205.57 372.97 205.44 368.91Z" id="gmBvZ20dL"></path><path d="M205.44 368.91C205.44 368.89 205.44 368.88 205.44 368.86C204.44 344.77 187.47 323.49 162.19 314.63C160.78 314.14 153.76 311.67 141.12 307.24C145.11 293.66 147.33 286.11 147.77 284.6C148.4 282.47 147.92 280.19 146.48 278.44C145.04 276.69 142.81 275.66 140.44 275.66C138 275.66 118.51 275.66 116.07 275.66C118.44 275.66 120.67 276.69 122.11 278.44C123.54 280.19 124.02 282.47 123.4 284.6C122.95 286.11 120.73 293.66 116.74 307.24C129.38 311.67 136.41 314.14 137.81 314.63C163.09 323.49 180.07 344.77 181.06 368.86C181.06 368.88 181.06 368.89 181.06 368.91C181.2 372.97 182.29 405.45 182.43 409.5C183.38 432.61 170.68 453.73 150.06 463.25C138.57 468.55 105.99 479.81 99.29 482.11C98.21 482.88 97.07 483.53 95.9 484.12C99.71 486.03 103.89 487 108.08 487C113.56 487 119.05 485.37 123.67 482.11C130.37 479.81 162.95 468.55 174.44 463.25C195.05 453.73 207.76 432.61 206.81 409.5C206.53 401.39 205.57 372.97 205.44 368.91Z" id="f5CC3Dojq"></path></defs><g><g><g><use xlink:href="#a25FoXi5ek" opacity="1" fill="#000000" fill-opacity="0"></use><g><use xlink:href="#a25FoXi5ek" opacity="1" fill-opacity="0" stroke="#000000" stroke-width="1" stroke-opacity="0"></use></g></g><g><use xlink:href="#dKQL4kg15" opacity="1" fill="#e0f7fc" fill-opacity="1"></use><g><use xlink:href="#dKQL4kg15" opacity="1" fill-opacity="0" stroke="#000000" stroke-width="1" stroke-opacity="0"></use></g></g><g><use xlink:href="#f33MQy1zds" opacity="1" fill="#beedf4" fill-opacity="1"></use><g><use xlink:href="#f33MQy1zds" opacity="1" fill-opacity="0" stroke="#000000" stroke-width="1" stroke-opacity="0"></use></g></g><g><use xlink:href="#d4BSgK7EfE" opacity="1" fill="#fb6556" fill-opacity="1"></use><g><use xlink:href="#d4BSgK7EfE" opacity="1" fill-opacity="0" stroke="#000000" stroke-width="1" stroke-opacity="0"></use></g></g><g><use xlink:href="#b2tP3q7iL" opacity="1" fill="#f0532c" fill-opacity="1"></use><g><use xlink:href="#b2tP3q7iL" opacity="1" fill-opacity="0" stroke="#000000" stroke-width="1" stroke-opacity="0"></use></g></g><g><use xlink:href="#b1wbLVqRio" opacity="1" fill="#ea473b" fill-opacity="1"></use><g><use xlink:href="#b1wbLVqRio" opacity="1" fill-opacity="0" stroke="#000000" stroke-width="1" stroke-opacity="0"></use></g></g><g><use xlink:href="#bipXVczAF" opacity="1" fill="#1a6d0d" fill-opacity="1"></use><g><use xlink:href="#bipXVczAF" opacity="1" fill-opacity="0" stroke="#000000" stroke-width="1" stroke-opacity="0"></use></g></g><g><use xlink:href="#e370zX1ZJB" opacity="1" fill="#1a6d0d" fill-opacity="1"></use><g><use xlink:href="#e370zX1ZJB" opacity="1" fill-opacity="0" stroke="#000000" stroke-width="1" stroke-opacity="0"></use></g></g><g><use xlink:href="#eUkfdfHiA" opacity="1" fill="#1a6d0d" fill-opacity="1"></use><g><use xlink:href="#eUkfdfHiA" opacity="1" fill-opacity="0" stroke="#000000" stroke-width="1" stroke-opacity="0"></use></g></g><g><use xlink:href="#gmBvZ20dL" opacity="1" fill="#da1108" fill-opacity="1"></use><g><use xlink:href="#gmBvZ20dL" opacity="1" fill-opacity="0" stroke="#000000" stroke-width="1" stroke-opacity="0"></use></g></g><g><use xlink:href="#f5CC3Dojq" opacity="1" fill="#e11709" fill-opacity="1"></use><g><use xlink:href="#f5CC3Dojq" opacity="1" fill-opacity="0" stroke="#000000" stroke-width="1" stroke-opacity="0"></use></g></g></g></g></svg>