<?xml version="1.0" encoding="UTF-8" standalone="no"?>
<!DOCTYPE svg PUBLIC "-//W3C//DTD SVG 1.1//EN" "http://www.w3.org/Graphics/SVG/1.1/DTD/svg11.dtd">
<svg version="1.1" xmlns="http://www.w3.org/2000/svg" xmlns:xlink="http://www.w3.org/1999/xlink" preserveAspectRatio="xMidYMid meet" viewBox="0 0 640 640" width="640" height="640"><defs><path d="M326.89 77.33C332.21 77.33 336.53 81.49 336.53 86.63C336.53 247.05 292.65 389.56 287.65 405.25C287.65 409.32 287.65 441.9 287.65 445.97C287.65 451.1 283.34 455.27 278.01 455.27C265.1 455.27 161.85 455.27 148.95 455.27C143.62 455.27 139.3 451.1 139.3 445.97C139.3 441.9 139.3 409.32 139.3 405.25C134.31 389.56 90.42 247.05 90.42 86.63C90.42 81.49 94.74 77.33 100.07 77.33C145.43 77.33 304.2 77.33 326.89 77.33Z" id="bYwAnqlaZ"></path><path d="M158.03 405.25C153.04 389.56 109.16 247.05 109.16 86.63C109.16 81.49 113.47 77.33 118.8 77.33C116.93 77.33 101.94 77.33 100.07 77.33C94.74 77.33 90.42 81.49 90.42 86.63C90.42 247.05 134.31 389.56 139.3 405.25C139.3 409.32 139.3 441.9 139.3 445.97C139.3 451.1 143.62 455.27 148.95 455.27C150.82 455.27 165.81 455.27 167.68 455.27C162.35 455.27 158.03 451.1 158.03 445.97C158.03 437.83 158.03 409.32 158.03 405.25Z" id="a44ARRVsTs"></path><path d="M94.28 172.04C105.12 294.86 135.19 392.43 139.27 405.25C154.1 405.25 272.79 405.25 287.62 405.25C291.49 393.1 318.65 304.97 330.73 191.35C296.46 197.35 247.89 200.27 208.94 180.8C166.25 159.46 121.53 165.01 94.28 172.04Z" id="d2VGmLD8jb"></path><path d="M139.3 405.25C141.17 405.25 156.16 405.25 158.03 405.25C153.91 392.29 123.26 292.82 112.71 168.19C105.98 169.28 99.79 170.62 94.31 172.03C105.15 294.86 135.22 392.43 139.3 405.25Z" id="j4Buv9I0O9"></path><path d="M242.64 375.85C248.79 338.84 297.97 42.79 304.12 5.78C304.72 2.19 308.16 -0.3 311.9 0.13C318.3 0.88 369.51 6.85 375.91 7.6C379.76 8.05 382.5 11.42 382.04 15.13C381.57 18.84 378.07 21.48 374.22 21.04C370.4 20.59 351.3 18.36 316.93 14.35C280.68 232.53 260.54 353.74 256.52 377.98C255.9 381.68 252.29 384.19 248.47 383.6C244.64 383.01 242.03 379.54 242.64 375.85Z" id="darvuGnsT"></path><path d="M38.78 263.95C37.41 263.65 36.09 264.66 36.07 266.04C35.92 274.61 38.21 301.58 72.69 302.09C72.81 301.71 72.93 301.33 73.06 300.95C72.37 295.27 67.74 270.2 38.78 263.95Z" id="aU2w7uyDw"></path><path d="M44.68 265.59C42.84 264.95 40.88 264.4 38.78 263.95C37.41 263.65 36.09 264.66 36.07 266.04C35.92 274.61 38.21 301.59 72.69 302.09C72.76 301.85 72.84 301.61 72.92 301.38C46.39 297 44.49 273.86 44.62 266.04C44.63 265.88 44.65 265.73 44.68 265.59Z" id="atZyn3mZ"></path><path d="M102.4 279.89C103.97 278.96 104.25 276.84 102.98 275.55C102.21 274.77 96.05 268.51 95.28 267.73C93.52 265.94 90.54 266.12 89.03 268.11C81.33 278.22 71.04 299.65 68.74 316.77C70.99 316.67 72.76 316.67 74.64 316.73C80.07 305.92 89.11 287.73 102.4 279.89Z" id="b1wHv7PU6"></path><path d="M95.28 267.73C93.52 265.94 90.54 266.12 89.03 268.11C81.33 278.22 71.03 299.65 68.74 316.77C70.99 316.66 72.76 316.67 74.64 316.73C75.41 315.2 76.25 313.53 77.16 311.76C80.47 295.97 89.28 277.96 96.18 268.65C96 268.46 95.37 267.82 95.28 267.73Z" id="h1vsfIkd4I"></path><path d="M73.67 315.26L74.06 315.27L74.46 315.28L74.84 315.28L75.23 315.3L75.61 315.31L75.99 315.32L76.37 315.34L76.74 315.36L77.11 315.38L77.47 315.4L77.83 315.43L77.83 315.43L80.47 315.67L83.07 315.99L85.64 316.4L88.18 316.89L90.67 317.46L93.13 318.11L95.55 318.84L97.92 319.64L100.26 320.52L102.55 321.47L104.79 322.49L106.99 323.58L109.15 324.74L111.25 325.96L113.3 327.24L115.31 328.59L117.26 330L119.15 331.47L121 333L122.78 334.58L124.51 336.22L126.19 337.9L127.8 339.64L129.35 341.43L130.84 343.27L132.26 345.15L133.63 347.07L134.92 349.04L136.15 351.04L137.31 353.09L138.4 355.18L139.42 357.29L140.37 359.45L141.25 361.63L142.05 363.85L142.77 366.09L143.42 368.37L143.99 370.66L144.48 372.99L144.89 375.33L145.09 376.61L145.26 377.88L145.41 379.16L145.53 380.44L145.63 381.72L145.71 383.01L145.76 384.29L145.8 385.57L145.8 386.85L145.79 388.14L145.75 389.42L145.68 390.7L145.59 391.98L145.48 393.25L145.35 394.53L145.19 395.8L145.01 397.07L144.81 398.34L144.58 399.61L144.33 400.87L144.05 402.12L143.75 403.38L143.43 404.63L143.09 405.87L142.72 407.11L142.33 408.35L141.91 409.57L141.47 410.8L141.01 412.01L140.52 413.23L140.01 414.43L139.48 415.63L138.92 416.82L138.34 418L137.73 419.17L137.11 420.34L136.45 421.5L135.78 422.65L135.08 423.79L134.36 424.92L134.25 425.09L134.13 425.26L134.02 425.43L133.9 425.6L133.79 425.78L133.67 425.95L133.56 426.12L133.44 426.29L133.32 426.47L133.2 426.64L133.08 426.81L132.96 426.98L132.84 427.16L132.71 427.33L132.59 427.5L132.47 427.67L132.34 427.85L132.21 428.02L132.09 428.19L131.96 428.37L131.83 428.54L131.7 428.71L131.57 428.89L131.44 429.06L131.31 429.23L131.18 429.4L131.04 429.58L130.91 429.75L130.77 429.92L130.63 430.1L130.5 430.27L130.36 430.45L130.22 430.62L130.08 430.79L129.94 430.97L129.79 431.14L129.65 431.31L129.51 431.49L129.36 431.66L129.22 431.84L129.2 431.85L129.13 431.94L129.13 431.94L128.77 432.36L128.41 432.78L128.04 433.2L127.67 433.61L127.3 434.02L126.92 434.43L126.54 434.83L126.16 435.23L125.78 435.63L125.4 436.02L125.01 436.4L124.63 436.78L124.24 437.16L123.86 437.53L123.47 437.9L123.08 438.27L122.7 438.62L122.31 438.97L121.93 439.32L121.55 439.66L121.17 439.99L120.79 440.32L120.42 440.64L120.04 440.96L119.67 441.27L119.31 441.57L118.95 441.87L118.59 442.15L118.23 442.43L117.88 442.71L117.54 442.97L117.2 443.23L116.86 443.48L116.53 443.72L116.21 443.95L115.89 444.18L115.58 444.39L115.28 444.6L114.98 444.79L114.7 444.98L114.15 445.35L113.56 445.74L112.98 446.13L112.39 446.5L111.8 446.87L111.22 447.23L110.63 447.58L110.04 447.93L109.46 448.26L108.87 448.59L108.29 448.92L107.7 449.23L107.11 449.54L106.53 449.84L105.94 450.14L105.35 450.43L104.76 450.71L104.17 450.99L103.58 451.26L102.99 451.52L102.4 451.78L101.81 452.03L101.21 452.28L100.61 452.52L100.02 452.75L99.42 452.98L98.81 453.21L98.21 453.42L97.61 453.64L97 453.85L96.39 454.05L95.78 454.25L95.16 454.45L94.55 454.64L93.93 454.83L93.31 455.01L92.68 455.19L92.05 455.36L91.42 455.53L90.79 455.7L90.79 455.7L90.75 455.71L90.72 455.71L90.7 455.72L90.35 455.81L90 455.89L89.65 455.98L89.29 456.06L88.94 456.14L88.58 456.22L88.22 456.29L87.86 456.37L87.5 456.44L87.14 456.51L86.77 456.58L86.41 456.65L86.04 456.71L85.67 456.78L85.3 456.84L84.93 456.9L84.55 456.96L84.18 457.02L83.8 457.07L83.42 457.13L83.04 457.18L82.66 457.23L82.28 457.28L81.89 457.32L81.51 457.37L81.12 457.41L80.73 457.45L80.34 457.49L79.95 457.53L79.56 457.56L79.17 457.6L78.77 457.63L78.37 457.66L77.97 457.69L77.57 457.71L77.17 457.74L76.77 457.76L76.37 457.78L75.96 457.8L75.55 457.82L75.14 457.83L74.72 457.84L74.3 457.85L73.89 457.86L73.48 457.86L73.06 457.87L72.65 457.86L72.24 457.86L71.82 457.86L71.41 457.85L71 457.84L70.59 457.83L70.18 457.82L69.78 457.8L69.37 457.78L68.96 457.76L68.55 457.74L68.15 457.72L67.74 457.69L67.34 457.66L66.93 457.63L66.53 457.6L66.13 457.56L65.73 457.52L65.32 457.48L64.92 457.44L64.52 457.4L64.12 457.35L63.73 457.3L63.33 457.25L62.93 457.2L62.53 457.15L62.14 457.09L61.74 457.03L61.35 456.97L60.95 456.91L60.56 456.85L60.16 456.78L59.77 456.71L59.38 456.64L59.38 456.64L57.88 456.35L56.38 456.03L54.89 455.68L53.42 455.29L51.95 454.88L50.49 454.43L49.04 453.96L47.6 453.46L46.17 452.92L44.76 452.36L43.36 451.77L41.97 451.15L40.59 450.5L39.23 449.82L37.88 449.11L36.55 448.38L35.23 447.62L33.93 446.83L32.64 446.01L31.37 445.17L30.12 444.3L28.88 443.4L27.66 442.48L26.47 441.53L25.29 440.56L24.13 439.56L22.99 438.53L21.87 437.48L20.77 436.41L19.69 435.31L18.64 434.18L17.61 433.03L16.6 431.86L15.61 430.66L14.65 429.44L13.72 428.2L12.8 426.94L11.92 425.65L11.06 424.34L10.22 423L10.2 422.96L10.17 422.92L10.15 422.89L10.07 422.75L9.98 422.61L9.9 422.47L9.81 422.32L9.73 422.18L9.65 422.04L9.56 421.9L9.48 421.75L9.4 421.61L9.31 421.47L9.23 421.32L9.15 421.18L9.07 421.04L8.99 420.89L8.91 420.75L8.83 420.61L8.75 420.46L8.67 420.32L8.59 420.18L8.51 420.03L8.43 419.89L8.36 419.74L8.28 419.6L8.2 419.45L8.12 419.31L8.05 419.16L7.97 419.02L7.9 418.88L7.82 418.73L7.75 418.59L7.67 418.44L7.6 418.3L7.52 418.15L7.45 418L7.38 417.86L7.3 417.71L7.23 417.57L7.16 417.42L7.09 417.28L7.02 417.13L6.93 416.96L6.91 416.91L6.89 416.87L6.87 416.82L6.85 416.78L6.83 416.73L6.81 416.69L6.78 416.64L6.76 416.6L6.74 416.55L6.72 416.51L6.7 416.47L6.68 416.42L6.66 416.38L6.64 416.33L6.62 416.29L6.59 416.24L6.57 416.2L6.55 416.16L6.53 416.11L6.51 416.07L6.49 416.02L6.47 415.98L6.45 415.94L6.43 415.89L6.41 415.85L6.39 415.8L6.37 415.76L6.35 415.72L6.33 415.67L6.31 415.63L6.29 415.58L6.27 415.54L6.25 415.5L6.23 415.45L6.21 415.41L6.19 415.37L6.17 415.32L6.15 415.28L6.13 415.23L6.11 415.18L5.98 414.89L5.96 414.84L5.94 414.8L5.92 414.76L5.9 414.71L5.88 414.67L5.86 414.63L5.84 414.58L5.83 414.54L5.81 414.5L5.79 414.45L5.77 414.41L5.75 414.37L5.73 414.32L5.71 414.28L5.69 414.24L5.67 414.19L5.65 414.15L5.64 414.1L5.62 414.06L5.6 414.02L5.58 413.97L5.56 413.93L5.54 413.88L5.52 413.84L5.5 413.79L5.48 413.75L5.47 413.7L5.45 413.66L5.43 413.62L5.41 413.57L5.39 413.53L5.37 413.48L5.35 413.44L5.34 413.39L5.32 413.35L5.3 413.3L5.28 413.26L5.26 413.21L5.24 413.17L5.22 413.12L5.16 412.96L5.09 412.8L5.03 412.65L4.97 412.5L4.91 412.34L4.85 412.19L4.79 412.04L4.73 411.88L4.67 411.73L4.61 411.58L4.55 411.42L4.49 411.27L4.43 411.11L4.38 410.96L4.32 410.8L4.26 410.65L4.21 410.49L4.15 410.34L4.09 410.18L4.04 410.03L3.98 409.87L3.93 409.72L3.87 409.56L3.82 409.41L3.77 409.25L3.71 409.1L3.66 408.94L3.61 408.78L3.56 408.63L3.5 408.47L3.45 408.32L3.4 408.16L3.35 408L3.3 407.85L3.25 407.69L3.2 407.54L3.15 407.38L3.11 407.22L3.06 407.07L3.01 406.91L2.96 406.75L2.87 406.44L2.86 406.4L2.85 406.36L2.83 406.31L2.82 406.27L2.81 406.23L2.79 406.19L2.78 406.14L2.77 406.1L2.76 406.06L2.74 406.01L2.73 405.97L2.72 405.92L2.71 405.88L2.69 405.84L2.68 405.79L2.67 405.75L2.66 405.7L2.64 405.66L2.63 405.61L2.62 405.57L2.61 405.53L2.59 405.48L2.58 405.44L2.57 405.39L2.56 405.35L2.54 405.3L2.53 405.26L2.52 405.21L2.51 405.17L2.49 405.12L2.48 405.08L2.47 405.03L2.46 404.99L2.44 404.94L2.43 404.9L2.42 404.85L2.41 404.81L2.39 404.76L2.38 404.72L2.37 404.67L2.27 404.31L1.71 402.01L1.24 399.73L0.84 397.44L0.52 395.15L0.28 392.87L0.11 390.6L0.02 388.34L0 386.08L0.06 383.84L0.19 381.61L0.38 379.39L0.65 377.19L0.98 375L1.38 372.84L1.85 370.69L2.38 368.57L2.97 366.47L3.63 364.4L4.34 362.35L5.11 360.33L5.95 358.34L6.83 356.38L7.78 354.45L8.78 352.56L9.83 350.7L10.93 348.88L12.08 347.1L13.28 345.36L14.53 343.66L15.83 342L17.17 340.39L18.56 338.82L19.99 337.3L21.46 335.84L22.97 334.42L24.53 333.05L26.12 331.74L27.74 330.49L29.41 329.29L31.1 328.15L31.06 328.18L31.26 328.04L31.46 327.9L31.67 327.76L31.87 327.63L32.08 327.49L32.29 327.35L32.5 327.22L32.71 327.08L32.92 326.95L33.13 326.81L33.34 326.68L33.55 326.55L33.76 326.41L33.97 326.28L34.18 326.15L34.39 326.02L34.6 325.9L34.81 325.77L35.02 325.64L35.23 325.52L35.44 325.4L35.64 325.28L35.85 325.16L36.05 325.04L36.26 324.92L36.46 324.81L36.66 324.69L36.85 324.58L37.05 324.47L37.24 324.36L37.43 324.26L37.62 324.15L37.81 324.05L38 323.95L38.18 323.86L38.36 323.76L38.53 323.67L38.71 323.58L38.88 323.49L39.05 323.41L39.05 323.41L39.54 323.15L40.04 322.91L40.54 322.66L41.04 322.42L41.54 322.19L42.04 321.96L42.55 321.73L43.05 321.51L43.55 321.29L44.06 321.07L44.56 320.86L45.06 320.66L45.57 320.45L46.08 320.26L46.58 320.06L47.09 319.87L47.6 319.69L48.11 319.5L48.61 319.32L49.12 319.15L49.63 318.98L50.14 318.81L50.65 318.65L51.16 318.49L51.68 318.34L52.19 318.19L52.7 318.04L53.21 317.9L53.72 317.76L54.24 317.63L54.75 317.49L55.26 317.37L55.78 317.25L56.29 317.13L56.81 317.01L57.32 316.9L57.83 316.79L58.35 316.69L58.86 316.59L59.38 316.49L59.38 316.49L59.44 316.48L59.49 316.47L59.55 316.46L59.61 316.45L59.68 316.44L59.74 316.43L59.8 316.42L59.87 316.41L59.93 316.4L60 316.38L60.06 316.37L60.13 316.36L60.2 316.35L60.26 316.34L60.33 316.33L60.39 316.32L60.46 316.31L60.52 316.3L60.59 316.28L60.65 316.27L60.71 316.26L60.77 316.25L60.83 316.24L60.89 316.23L60.95 316.23L61.01 316.22L61.06 316.21L61.11 316.2L61.16 316.19L61.21 316.18L61.25 316.18L61.3 316.17L61.34 316.16L61.37 316.16L61.41 316.15L61.44 316.15L61.47 316.14L61.53 316.13L61.53 316.13L61.96 316.07L62.38 316.01L62.81 315.95L63.24 315.89L63.67 315.84L64.09 315.79L64.52 315.74L64.95 315.69L65.37 315.65L65.8 315.61L66.23 315.57L66.65 315.53L67.08 315.5L67.5 315.47L67.92 315.44L68.34 315.41L68.76 315.39L69.18 315.36L69.6 315.34L70.02 315.32L70.43 315.31L70.84 315.3L71.25 315.28L71.66 315.28L72.07 315.27L72.47 315.26L72.87 315.26L73.27 315.26L73.67 315.26ZM114.7 444.98L114.74 444.95L114.69 444.98L114.7 444.98ZM77.99 440.61L77.97 440.61L77.95 440.61L77.97 440.61L78.01 440.6L78.03 440.6L78.01 440.6L77.99 440.61Z" id="fcnn4uB"></path><path d="M67.93 456.64C47.84 452.98 29.72 440.93 18.77 423C18.77 422.99 18.71 422.9 18.71 422.89C17.56 421 16.52 419.07 15.57 417.13C15.56 417.11 15.5 416.98 15.49 416.96C15.2 416.35 14.93 415.77 14.67 415.19C14.65 415.16 14.54 414.92 14.53 414.89C14.28 414.31 14.02 413.72 13.78 413.12C13.77 413.11 13.72 412.97 13.71 412.96C12.88 410.92 12.14 408.84 11.51 406.75C11.51 406.72 11.43 406.47 11.42 406.44C11.25 405.88 11.09 405.27 10.92 404.67C10.91 404.63 10.84 404.34 10.83 404.3C2.82 373.77 16.8 342.95 39.66 328.15C39.65 328.15 39.62 328.17 39.61 328.18C42.29 326.34 45.39 324.52 47.6 323.41C47.6 323.41 47.6 323.41 47.6 323.41C54.23 320.02 61.06 317.75 67.93 316.49C67.93 316.49 67.93 316.49 67.93 316.49C68.67 316.36 69.86 316.16 70.08 316.13C70.08 316.13 70.08 316.13 70.08 316.13C72.47 315.77 74.88 315.53 77.24 315.39C72.57 315.1 66.98 315.3 61.53 316.13C61.53 316.13 61.53 316.13 61.53 316.13C61.31 316.16 60.12 316.36 59.38 316.49C59.38 316.49 59.38 316.49 59.38 316.49C52.51 317.75 45.68 320.02 39.05 323.41C39.05 323.41 39.05 323.41 39.05 323.41C36.83 324.52 33.74 326.34 31.06 328.18C31.06 328.17 31.1 328.15 31.1 328.15C8.25 342.95 -5.73 373.77 2.27 404.31C2.28 404.34 2.36 404.63 2.37 404.67C2.53 405.27 2.7 405.88 2.87 406.44C2.88 406.47 2.95 406.72 2.96 406.75C3.59 408.84 4.32 410.92 5.16 412.96C5.16 412.97 5.22 413.11 5.22 413.12C5.47 413.72 5.72 414.32 5.98 414.89C5.99 414.92 6.1 415.16 6.11 415.19C6.37 415.77 6.64 416.35 6.93 416.96C6.94 416.98 7.01 417.11 7.02 417.13C7.96 419.08 9.01 421 10.15 422.89C10.16 422.9 10.21 422.99 10.22 423C21.17 440.93 39.28 452.98 59.38 456.64C59.38 456.64 59.38 456.64 59.38 456.64C64.6 457.59 69.99 458.02 75.55 457.82C76.09 457.8 76.62 457.77 77.15 457.74C74.02 457.56 70.95 457.19 67.93 456.64C67.93 456.64 67.93 456.64 67.93 456.64Z" id="b1QYvgMxsE"></path><path d="M139.38 330.36C107.14 330.36 81.01 355.92 81.01 387.45C81.01 418.98 107.14 444.54 139.38 444.54C171.62 444.54 197.75 418.98 197.75 387.45C197.75 355.92 171.62 330.36 139.38 330.36Z" id="hqLyD1VJd"></path><path d="M145.48 330.67C143.48 330.47 141.44 330.36 139.38 330.36C107.15 330.36 81.01 355.92 81.01 387.45C81.01 418.98 107.15 444.54 139.38 444.54C141.44 444.54 143.48 444.43 145.48 444.23C116.11 441.25 93.21 416.96 93.21 387.45C93.21 357.94 116.11 333.65 145.48 330.67Z" id="hbCoXdQT2"></path><path d="M147.33 383.4C167.57 363.61 178.82 352.61 181.07 350.41C182.32 349.18 182.32 347.2 181.07 345.97C179.82 344.75 177.79 344.75 176.53 345.97C174.28 348.17 163.04 359.17 142.79 378.97C142.79 350.97 142.79 335.41 142.79 332.3C142.79 330.57 141.36 329.17 139.59 329.17C137.81 329.17 136.38 330.57 136.38 332.3C136.38 336.97 136.38 374.3 136.38 378.97C132.26 374.94 111.04 354.19 102.64 345.97C101.39 344.75 99.36 344.75 98.1 345.97C96.85 347.2 96.85 349.18 98.1 350.41C105.4 357.55 124.37 376.1 131.84 383.4C129.72 383.4 85.82 383.41 84.13 383.41C82.36 383.41 80.92 384.81 80.92 386.54C80.92 388.27 82.36 389.68 84.13 389.68C89.73 389.68 130.45 389.68 131.84 389.68C128.63 392.82 102.33 418.54 98.1 422.68C96.85 423.9 96.85 425.89 98.1 427.11C99.36 428.34 101.39 428.34 102.64 427.11C104.8 425 115.6 414.44 135.04 395.42L135.04 395.42C135.84 394.64 136.29 394.2 136.38 394.11C136.38 394.67 136.38 439.77 136.38 440.78C136.38 442.51 137.81 443.92 139.59 443.92C141.36 443.92 142.79 442.51 142.79 440.78C142.79 432.82 142.79 404.01 142.79 394.12C179.46 429.97 176.95 428.03 178.8 428.03C181.63 428.03 183.1 424.66 181.07 422.68C178.82 420.48 167.57 409.48 147.33 389.68C175.96 389.68 191.86 389.68 195.04 389.68C196.81 389.68 198.25 388.27 198.25 386.54C198.25 384.81 196.82 383.4 195.04 383.4C188.68 383.4 172.78 383.4 147.33 383.4Z" id="aB0jKECtm"></path><path d="M103.25 355.44C104.46 353.69 105.77 352.01 107.17 350.41C105.44 348.71 103.9 347.2 102.64 345.97C101.99 345.34 101.14 345.04 100.29 345.06C99.22 346.01 98.17 346.99 97.17 348.02C97.13 348.88 97.43 349.75 98.1 350.41C99.46 351.74 101.23 353.46 103.25 355.44Z" id="anak2qFER"></path><path d="M137.03 330.41C136.62 330.94 136.38 331.59 136.38 332.3C136.38 332.3 136.38 332.32 136.38 332.32C138.39 331.79 140.44 331.37 142.52 331.05C142.43 330.83 142.3 330.62 142.15 330.43C141.24 330.39 140.31 330.36 139.38 330.36C138.6 330.36 137.81 330.38 137.03 330.41Z" id="cqjf1NLEB"></path><path d="M137.1 442.76C137.69 443.47 138.58 443.92 139.59 443.92C140.09 443.92 140.57 443.8 140.99 443.6C139.68 443.36 138.38 443.08 137.1 442.76Z" id="aiineQHoP"></path><path d="M106.33 423.5C104.96 421.86 103.69 420.15 102.51 418.37C100.46 420.37 98.9 421.9 98.1 422.68C96.85 423.9 96.85 425.89 98.1 427.11C99.36 428.34 101.39 428.34 102.64 427.11C103.38 426.39 105.96 423.86 106.33 423.5Z" id="abjCXWAnx"></path><path d="M93.26 389.68C93.23 388.94 93.21 388.2 93.21 387.45C93.21 386.09 93.26 384.74 93.36 383.4C88.25 383.4 84.59 383.4 84.13 383.4C82.66 383.4 81.42 384.38 81.04 385.7C81.03 386.22 81.02 386.75 81.01 387.28C81.35 388.66 82.62 389.68 84.13 389.68C85.48 389.68 88.87 389.68 93.26 389.68Z" id="ajLLUjHPR"></path><path d="M139.59 378.03C134.76 378.03 130.85 381.85 130.85 386.57C130.85 391.28 134.76 395.11 139.59 395.11C144.41 395.11 148.32 391.28 148.32 386.57C148.32 381.85 144.41 378.03 139.59 378.03Z" id="a3pFHlifa2"></path><path d="M143.95 379.18C142.67 378.45 141.18 378.03 139.59 378.03C134.76 378.03 130.85 381.85 130.85 386.57C130.85 391.28 134.76 395.11 139.59 395.11C141.18 395.11 142.67 394.69 143.95 393.96C141.34 392.48 139.59 389.73 139.59 386.57C139.59 383.41 141.35 380.65 143.95 379.18Z" id="b1NDvquKxN"></path><path d="M140.45 315.27L140.85 315.27L141.23 315.28L141.62 315.29L142 315.3L142.37 315.31L142.75 315.33L143.11 315.34L143.48 315.36L143.84 315.38L144.19 315.41L144.54 315.43L144.54 315.43L147.17 315.67L149.77 315.99L152.33 316.4L154.86 316.88L157.35 317.45L159.81 318.1L162.22 318.82L164.59 319.62L166.92 320.5L169.21 321.44L171.45 322.46L173.65 323.54L175.8 324.7L177.91 325.92L179.96 327.2L181.96 328.54L183.92 329.95L185.81 331.42L187.66 332.94L189.45 334.52L191.18 336.15L192.85 337.84L194.47 339.57L196.02 341.36L197.51 343.19L198.94 345.07L200.3 347L201.6 348.97L202.83 350.98L204 353.02L205.09 355.11L206.11 357.23L207.07 359.39L207.94 361.58L208.75 363.8L209.48 366.06L210.13 368.34L210.7 370.64L211.19 372.97L211.61 375.33L211.92 377.51L212.17 379.68L212.35 381.84L212.46 383.99L212.51 386.13L212.48 388.25L212.4 390.37L212.25 392.47L212.04 394.55L211.77 396.61L211.44 398.66L211.05 400.69L210.6 402.7L210.1 404.69L209.54 406.65L208.93 408.59L208.27 410.5L207.56 412.39L206.8 414.25L205.99 416.09L205.13 417.89L204.22 419.66L203.27 421.4L202.28 423.11L201.24 424.78L200.16 426.42L199.05 428.02L197.89 429.59L196.69 431.11L195.46 432.59L194.2 434.04L192.9 435.44L191.56 436.8L190.2 438.11L188.8 439.38L187.38 440.6L185.92 441.77L184.44 442.89L182.94 443.96L181.41 444.98L181.46 444.95L180.88 445.34L180.3 445.73L179.72 446.1L179.14 446.47L178.57 446.84L177.99 447.19L177.41 447.54L176.83 447.88L176.26 448.21L175.68 448.54L175.1 448.86L174.52 449.18L173.93 449.48L173.35 449.79L172.77 450.08L172.18 450.37L171.6 450.65L171.01 450.93L170.42 451.2L169.83 451.46L169.24 451.72L168.64 451.97L168.05 452.22L167.45 452.47L166.85 452.7L166.24 452.93L165.64 453.16L165.03 453.38L164.42 453.6L163.81 453.81L163.19 454.02L162.57 454.22L161.95 454.42L161.33 454.62L160.7 454.81L160.07 454.99L159.43 455.18L158.79 455.35L158.15 455.53L157.5 455.7L157.5 455.7L157.46 455.71L157.43 455.71L157.42 455.72L157.08 455.81L156.73 455.89L156.39 455.97L156.04 456.05L155.69 456.13L155.34 456.2L154.99 456.28L154.63 456.35L154.27 456.43L153.92 456.5L153.55 456.57L153.19 456.63L152.83 456.7L152.46 456.76L152.09 456.83L151.72 456.89L151.34 456.95L150.97 457L150.59 457.06L150.21 457.11L149.83 457.17L149.45 457.22L149.07 457.27L148.68 457.31L148.29 457.36L147.9 457.4L147.51 457.44L147.12 457.48L146.72 457.52L146.32 457.56L145.93 457.59L145.53 457.63L145.12 457.66L144.72 457.69L144.32 457.71L143.91 457.74L143.5 457.76L143.09 457.78L142.68 457.8L142.27 457.82L141.85 457.83L141.43 457.84L141.02 457.85L140.6 457.86L140.19 457.86L139.77 457.87L139.36 457.86L138.95 457.86L138.54 457.86L138.13 457.85L137.72 457.84L137.31 457.83L136.9 457.82L136.49 457.8L136.08 457.78L135.67 457.76L135.27 457.74L134.86 457.72L134.46 457.69L134.05 457.66L133.65 457.63L133.24 457.6L132.84 457.56L132.44 457.52L132.04 457.48L131.64 457.44L131.24 457.4L130.84 457.35L130.44 457.3L130.04 457.25L129.64 457.2L129.25 457.15L128.85 457.09L128.45 457.03L128.06 456.97L127.66 456.91L127.27 456.85L126.88 456.78L126.48 456.71L126.09 456.64L126.09 456.64L123.31 456.08L120.58 455.42L117.89 454.66L115.26 453.81L112.68 452.87L110.15 451.84L107.68 450.72L105.26 449.52L102.9 448.24L100.6 446.87L98.36 445.43L96.19 443.91L94.08 442.32L92.03 440.65L90.06 438.92L88.15 437.12L86.31 435.26L84.54 433.34L82.85 431.35L81.23 429.31L79.69 427.21L78.23 425.06L76.84 422.86L75.54 420.61L74.32 418.32L73.19 415.98L72.14 413.6L71.18 411.18L70.3 408.72L69.52 406.23L68.83 403.7L68.24 401.15L67.73 398.57L67.33 395.96L67.02 393.33L66.82 390.67L66.71 388L66.71 385.32L66.81 382.61L67.02 379.9L67.03 379.87L67.03 379.84L67.03 379.81L67.04 379.77L67.04 379.73L67.04 379.69L67.05 379.65L67.05 379.61L67.06 379.56L67.06 379.52L67.07 379.47L67.07 379.42L67.08 379.37L67.08 379.32L67.09 379.26L67.09 379.21L67.1 379.16L67.11 379.1L67.11 379.04L67.12 378.99L67.12 378.93L67.13 378.87L67.14 378.81L67.14 378.75L67.15 378.69L67.16 378.63L67.17 378.57L67.17 378.51L67.18 378.45L67.19 378.39L67.19 378.33L67.2 378.27L67.21 378.22L67.21 378.16L67.22 378.1L67.23 378.04L67.23 377.99L67.24 377.93L67.25 377.88L67.25 377.82L67.26 377.76L67.27 377.7L67.28 377.63L67.29 377.57L67.29 377.51L67.3 377.45L67.31 377.39L67.32 377.32L67.33 377.26L67.33 377.2L67.34 377.14L67.35 377.08L67.36 377.02L67.37 376.95L67.38 376.89L67.38 376.83L67.39 376.77L67.4 376.71L67.41 376.65L67.42 376.59L67.43 376.52L67.44 376.46L67.44 376.4L67.45 376.34L67.46 376.28L67.47 376.22L67.48 376.16L67.49 376.09L67.5 376.03L67.51 375.97L67.52 375.91L67.53 375.85L67.54 375.78L67.55 375.72L67.56 375.66L67.57 375.59L67.58 375.53L67.59 375.47L67.6 375.4L67.61 375.34L67.61 375.31L67.62 375.27L67.63 375.23L67.64 375.13L67.65 375.07L67.66 375.01L67.67 374.94L67.69 374.87L67.7 374.8L67.71 374.72L67.73 374.64L67.74 374.55L67.76 374.46L67.77 374.37L67.79 374.27L67.81 374.17L67.83 374.06L67.85 373.95L67.87 373.84L67.89 373.73L67.91 373.61L67.93 373.48L67.96 373.36L67.98 373.23L68.01 373.09L68.04 372.96L68.06 372.82L68.09 372.68L68.12 372.53L68.15 372.38L68.18 372.23L68.22 372.08L68.25 371.92L68.28 371.76L68.32 371.6L68.36 371.43L68.39 371.27L68.43 371.1L68.47 370.93L68.52 370.71L68.85 369.35L69.22 367.99L69.6 366.65L70.02 365.31L70.46 363.99L70.93 362.68L71.42 361.38L71.93 360.09L72.47 358.82L73.04 357.56L73.62 356.31L74.23 355.08L74.86 353.86L75.5 352.66L76.17 351.48L76.86 350.31L77.57 349.15L78.3 348.01L79.04 346.89L79.8 345.79L80.58 344.71L81.38 343.64L82.19 342.6L83.01 341.57L83.85 340.56L84.71 339.58L85.58 338.61L86.46 337.67L87.35 336.75L88.25 335.85L89.17 334.97L90.1 334.11L91.03 333.28L91.98 332.47L92.93 331.69L93.89 330.93L94.86 330.2L95.84 329.49L96.83 328.8L97.82 328.15L97.77 328.18L97.97 328.04L98.18 327.9L98.38 327.76L98.59 327.63L98.79 327.49L99 327.35L99.21 327.22L99.42 327.08L99.63 326.95L99.84 326.81L100.05 326.68L100.26 326.55L100.47 326.41L100.68 326.28L100.89 326.15L101.11 326.02L101.32 325.9L101.53 325.77L101.73 325.64L101.94 325.52L102.15 325.4L102.36 325.28L102.56 325.16L102.76 325.04L102.97 324.92L103.17 324.81L103.37 324.69L103.57 324.58L103.76 324.47L103.96 324.36L104.15 324.26L104.34 324.15L104.52 324.05L104.71 323.95L104.89 323.86L105.07 323.76L105.25 323.67L105.42 323.58L105.59 323.49L105.76 323.41L105.76 323.41L106.25 323.16L106.75 322.91L107.24 322.67L107.74 322.43L108.23 322.2L108.73 321.97L109.23 321.74L109.72 321.52L110.22 321.31L110.72 321.09L111.23 320.88L111.73 320.68L112.23 320.47L112.73 320.28L113.24 320.08L113.74 319.89L114.25 319.71L114.76 319.52L115.26 319.35L115.77 319.17L116.28 319L116.79 318.83L117.3 318.67L117.81 318.51L118.32 318.36L118.84 318.21L119.35 318.06L119.86 317.91L120.38 317.77L120.89 317.64L121.41 317.51L121.93 317.38L122.45 317.25L122.96 317.13L123.48 317.02L124 316.91L124.53 316.8L125.05 316.69L125.57 316.59L126.09 316.49L126.09 316.49L126.15 316.48L126.21 316.47L126.27 316.46L126.33 316.45L126.39 316.44L126.45 316.43L126.52 316.42L126.58 316.41L126.65 316.4L126.71 316.38L126.78 316.37L126.84 316.36L126.91 316.35L126.98 316.34L127.04 316.33L127.11 316.32L127.17 316.31L127.24 316.3L127.3 316.28L127.36 316.27L127.43 316.26L127.49 316.25L127.55 316.24L127.61 316.23L127.66 316.23L127.72 316.22L127.77 316.21L127.82 316.2L127.87 316.19L127.92 316.18L127.97 316.18L128.01 316.17L128.05 316.16L128.09 316.16L128.12 316.15L128.15 316.15L128.18 316.14L128.24 316.13L128.24 316.13L128.68 316.07L129.11 316.01L129.54 315.95L129.97 315.89L130.4 315.84L130.84 315.79L131.27 315.74L131.7 315.69L132.13 315.65L132.56 315.61L132.99 315.57L133.42 315.53L133.85 315.5L134.28 315.46L134.7 315.44L135.13 315.41L135.55 315.38L135.97 315.36L136.39 315.34L136.81 315.32L137.22 315.31L137.64 315.3L138.05 315.29L138.45 315.28L138.86 315.27L139.26 315.27L139.66 315.27L140.06 315.27L140.45 315.27ZM137.71 332.34L136.93 332.37L136.15 332.42L135.37 332.47L134.6 332.53L133.83 332.6L133.06 332.69L132.29 332.78L131.53 332.88L130.77 333L130.02 333.12L129.26 333.25L128.52 333.4L127.77 333.55L127.03 333.71L126.3 333.88L125.56 334.06L124.84 334.25L124.11 334.45L123.4 334.66L122.68 334.87L121.97 335.1L121.27 335.33L120.57 335.58L119.88 335.83L119.19 336.09L118.51 336.36L117.83 336.64L117.16 336.92L116.49 337.22L115.83 337.52L115.18 337.83L114.53 338.15L113.89 338.48L110.9 340.1L108.07 341.87L105.4 343.77L102.88 345.8L100.52 347.94L98.32 350.19L96.28 352.54L94.4 354.99L92.67 357.52L91.11 360.13L89.7 362.82L88.46 365.57L87.37 368.37L86.45 371.22L85.69 374.11L85.08 377.04L84.64 379.99L84.36 382.96L84.25 385.94L84.29 388.92L84.5 391.89L84.87 394.86L85.41 397.8L86.11 400.71L86.97 403.59L88 406.43L89.19 409.21L90.54 411.94L92.07 414.6L93.75 417.18L95.61 419.68L97.63 422.1L99.81 424.42L102.17 426.63L104.69 428.73L107.38 430.71L110.23 432.56L113.26 434.28L116.45 435.85L119.81 437.27L119.81 437.27L120.08 437.37L120.34 437.46L120.59 437.55L120.83 437.64L121.07 437.72L121.3 437.8L121.52 437.88L121.73 437.95L121.94 438.02L122.14 438.08L122.33 438.15L122.52 438.21L122.7 438.27L122.88 438.32L123.05 438.37L123.22 438.43L123.38 438.47L123.54 438.52L123.69 438.57L123.83 438.61L123.98 438.65L124.12 438.69L124.25 438.73L124.38 438.76L124.51 438.8L124.64 438.83L124.76 438.86L124.88 438.9L125 438.93L125.11 438.96L125.23 438.99L125.34 439.01L125.45 439.04L125.56 439.07L125.67 439.1L125.78 439.13L125.88 439.15L125.99 439.18L126.09 439.21L126.2 439.24L126.2 439.24L126.22 439.24L126.24 439.25L126.27 439.25L126.3 439.26L126.33 439.27L126.38 439.28L126.42 439.29L126.48 439.31L126.54 439.32L126.6 439.33L126.67 439.35L126.75 439.37L126.83 439.39L126.92 439.41L127.01 439.43L127.11 439.45L127.22 439.47L127.33 439.5L127.44 439.52L127.57 439.55L127.7 439.58L127.83 439.6L127.97 439.63L128.12 439.66L128.27 439.69L128.43 439.72L128.6 439.76L128.77 439.79L128.95 439.82L129.13 439.86L129.33 439.89L129.52 439.93L129.73 439.96L129.93 440L130.15 440.04L130.37 440.08L130.6 440.12L130.84 440.15L130.84 440.16L131.13 440.2L131.43 440.24L131.73 440.28L132.03 440.32L132.32 440.36L132.62 440.39L132.91 440.43L133.21 440.46L133.5 440.5L133.8 440.53L134.1 440.56L134.39 440.59L134.69 440.61L134.99 440.64L135.29 440.66L135.59 440.69L135.89 440.71L136.19 440.73L136.49 440.74L136.79 440.76L137.1 440.78L137.4 440.79L137.71 440.8L138.02 440.81L138.33 440.82L138.64 440.82L138.95 440.83L139.27 440.83L139.59 440.83L139.91 440.83L140.23 440.83L140.56 440.82L140.88 440.82L141.21 440.81L141.55 440.8L141.88 440.78L142.22 440.77L142.56 440.75L142.91 440.73L143.25 440.71L143.31 440.71L143.37 440.71L143.44 440.7L143.52 440.7L143.6 440.7L143.68 440.69L143.77 440.68L143.86 440.68L143.96 440.67L144.06 440.66L144.17 440.65L144.28 440.64L144.39 440.63L144.51 440.62L144.63 440.61L144.76 440.6L144.88 440.59L145.01 440.57L145.15 440.56L145.28 440.55L145.42 440.53L145.56 440.52L145.7 440.5L145.85 440.49L145.99 440.47L146.14 440.45L146.29 440.44L146.44 440.42L146.59 440.4L146.74 440.38L146.9 440.36L147.05 440.34L147.2 440.32L147.36 440.3L147.51 440.28L147.67 440.26L147.82 440.24L147.97 440.22L148.12 440.19L148.28 440.17L148.38 440.16L148.48 440.14L148.58 440.12L148.68 440.11L148.78 440.09L148.89 440.07L148.99 440.06L149.09 440.04L149.19 440.02L149.28 440.01L149.38 439.99L149.48 439.97L149.58 439.95L149.67 439.94L149.77 439.92L149.86 439.9L149.96 439.89L150.05 439.87L150.14 439.85L150.23 439.84L150.32 439.82L150.41 439.8L150.49 439.79L150.58 439.77L150.66 439.75L150.74 439.74L150.83 439.72L150.9 439.7L150.98 439.69L151.06 439.67L151.13 439.66L151.2 439.64L151.27 439.63L151.34 439.61L151.41 439.6L151.47 439.59L151.53 439.57L151.59 439.56L151.65 439.55L151.71 439.53L151.86 439.5L152.01 439.47L152.16 439.43L152.31 439.4L152.45 439.37L152.6 439.33L152.74 439.3L152.88 439.27L153.02 439.23L153.16 439.2L153.3 439.17L153.44 439.13L153.57 439.1L153.71 439.06L153.84 439.03L153.98 438.99L154.11 438.96L154.24 438.92L154.37 438.89L154.51 438.85L154.64 438.82L154.77 438.78L154.9 438.74L155.03 438.71L155.16 438.67L155.29 438.63L155.42 438.59L155.55 438.55L155.68 438.52L155.81 438.48L155.95 438.44L156.08 438.4L156.21 438.36L156.34 438.31L156.48 438.27L156.61 438.23L156.75 438.19L156.88 438.15L157.02 438.1L157.16 438.06L157.25 438.03L157.35 438L157.44 437.97L157.53 437.94L157.63 437.9L157.72 437.87L157.81 437.84L157.91 437.81L158 437.78L158.1 437.74L158.19 437.71L158.28 437.68L158.38 437.64L158.47 437.61L158.57 437.58L158.66 437.54L158.76 437.51L158.85 437.48L158.95 437.44L159.04 437.41L159.13 437.37L159.23 437.34L159.32 437.3L159.42 437.27L159.51 437.23L159.6 437.2L159.7 437.16L159.79 437.13L159.88 437.09L159.97 437.06L160.07 437.02L160.16 436.99L160.25 436.95L160.34 436.91L160.43 436.88L160.52 436.84L160.61 436.81L160.7 436.77L160.79 436.73L160.88 436.7L160.94 436.67L161.04 436.63L161.1 436.6L161.14 436.59L161.2 436.56L161.27 436.54L161.3 436.52L161.34 436.51L161.37 436.49L161.41 436.48L161.44 436.46L161.48 436.45L161.51 436.43L161.55 436.42L161.59 436.4L161.62 436.39L161.66 436.37L161.7 436.36L161.74 436.34L161.77 436.32L161.81 436.31L161.85 436.29L161.89 436.27L161.93 436.26L161.97 436.24L162.01 436.22L162.06 436.2L162.1 436.19L162.14 436.17L162.18 436.15L162.23 436.13L162.27 436.11L162.32 436.09L162.36 436.07L162.43 436.04L162.51 436.01L162.58 435.97L162.61 435.96L162.65 435.94L162.68 435.93L162.72 435.91L162.76 435.89L162.79 435.88L162.87 435.84L162.9 435.83L162.94 435.81L162.97 435.79L163.01 435.78L163.05 435.76L163.08 435.74L163.12 435.73L163.16 435.71L163.19 435.69L163.23 435.68L163.27 435.66L163.3 435.64L163.34 435.63L163.38 435.61L163.41 435.59L163.45 435.58L163.49 435.56L163.53 435.54L163.56 435.52L163.6 435.51L163.64 435.49L163.68 435.47L163.71 435.45L163.75 435.44L163.79 435.42L163.83 435.4L164.31 435.16L164.79 434.93L165.26 434.69L165.73 434.44L166.2 434.19L166.67 433.94L167.13 433.68L167.58 433.42L168.04 433.16L168.49 432.9L168.93 432.63L169.37 432.35L169.81 432.08L170.25 431.8L170.68 431.52L171.11 431.23L171.53 430.94L171.95 430.65L172.37 430.36L172.78 430.06L173.19 429.76L173.59 429.45L173.99 429.15L174.39 428.84L174.78 428.53L175.17 428.21L175.56 427.89L175.94 427.57L176.32 427.25L176.69 426.92L177.07 426.6L177.43 426.26L177.8 425.93L178.15 425.59L178.51 425.26L178.86 424.91L179.21 424.57L179.55 424.23L179.89 423.88L180.23 423.53L181.91 421.67L183.5 419.75L184.99 417.78L186.38 415.75L187.67 413.67L188.86 411.54L189.95 409.37L190.93 407.17L191.82 404.92L192.6 402.65L193.27 400.35L193.85 398.02L194.31 395.67L194.68 393.31L194.93 390.94L195.08 388.55L195.13 386.16L195.06 383.77L194.89 381.38L194.61 379L194.22 376.63L193.72 374.27L193.11 371.93L192.39 369.61L191.55 367.32L190.61 365.05L189.55 362.82L188.38 360.62L187.09 358.46L185.7 356.35L184.18 354.28L182.55 352.27L180.81 350.31L178.94 348.41L176.96 346.57L174.87 344.8L172.65 343.1L170.32 341.47L167.86 339.92L165.29 338.45L165.29 338.45L165 338.31L164.7 338.16L164.41 338.01L164.11 337.87L163.81 337.72L163.5 337.58L163.19 337.43L162.88 337.29L162.57 337.15L162.25 337.02L161.94 336.88L161.62 336.74L161.3 336.61L160.98 336.48L160.66 336.35L160.34 336.22L160.02 336.1L159.7 335.97L159.38 335.85L159.06 335.73L158.73 335.61L158.42 335.5L158.1 335.39L157.78 335.28L157.46 335.17L157.15 335.06L156.83 334.96L156.52 334.86L156.21 334.76L155.91 334.67L155.6 334.58L155.3 334.49L155 334.4L154.71 334.32L154.42 334.24L154.13 334.17L153.85 334.1L153.57 334.03L153.29 333.96L153.02 333.9L152.75 333.84L152.49 333.77L152.22 333.71L151.96 333.65L151.7 333.6L151.44 333.54L151.19 333.49L150.94 333.44L150.68 333.38L150.43 333.34L150.19 333.29L149.94 333.24L149.69 333.2L149.45 333.15L149.21 333.11L148.97 333.07L148.72 333.03L148.49 333L148.25 332.96L148.01 332.92L147.77 332.89L147.53 332.86L147.3 332.83L147.06 332.79L146.83 332.77L146.59 332.74L146.35 332.71L146.12 332.68L145.88 332.66L145.65 332.63L145.41 332.61L145.17 332.58L144.94 332.56L144.7 332.54L144.46 332.52L144.22 332.5L143.98 332.48L143.74 332.46L143.5 332.44L143.25 332.42L142.46 332.38L141.66 332.34L140.87 332.32L140.07 332.31L139.29 332.31L138.5 332.32L137.71 332.34ZM144.7 440.61L144.68 440.61L144.66 440.61L144.68 440.61L144.72 440.6L144.75 440.6L144.72 440.6L144.7 440.61Z" id="c1gJAPnCb0"></path><path d="M134.81 456.64C97.43 449.82 72.25 416.15 75.74 379.9C75.78 379.53 75.88 378.53 75.97 377.82C76.08 376.98 76.19 376.19 76.32 375.34C76.4 374.92 76.66 373.23 77.19 370.93C77.19 370.9 77.23 370.74 77.24 370.71C81.5 352.44 93.3 336.72 106.53 328.15C106.53 328.15 106.49 328.17 106.49 328.18C109.17 326.34 112.27 324.52 114.48 323.41C114.48 323.41 114.48 323.41 114.48 323.41C121.04 320.06 127.83 317.77 134.81 316.49C134.81 316.49 134.81 316.49 134.81 316.49C135.55 316.36 136.74 316.16 136.96 316.13C136.96 316.13 136.96 316.13 136.96 316.13C139.33 315.77 141.73 315.53 144.05 315.4C139.48 315.1 133.79 315.29 128.24 316.13C128.24 316.13 128.24 316.13 128.24 316.13C128.02 316.16 126.83 316.36 126.09 316.49C126.09 316.49 126.09 316.49 126.09 316.49C119.11 317.77 112.32 320.06 105.76 323.41C105.76 323.41 105.76 323.41 105.76 323.41C103.55 324.52 100.45 326.34 97.77 328.18C97.78 328.17 97.81 328.15 97.82 328.15C84.58 336.72 72.78 352.44 68.52 370.71C68.51 370.74 68.47 370.9 68.47 370.93C67.94 373.23 67.68 374.92 67.61 375.34C67.47 376.19 67.36 376.98 67.25 377.82C67.17 378.53 67.06 379.53 67.02 379.9C63.53 416.15 88.72 449.82 126.09 456.64C126.09 456.64 126.09 456.64 126.09 456.64C131.31 457.59 136.7 458.01 142.26 457.82C142.83 457.8 143.39 457.76 143.94 457.73C140.84 457.55 137.8 457.19 134.81 456.64C134.81 456.64 134.81 456.64 134.81 456.64Z" id="bOYQhg0"></path><path d="M31.3 441.17C31.13 441.13 30.97 441.08 30.81 441.02C30.5 440.89 30.21 440.72 29.95 440.52C29.81 440.4 29.67 440.28 29.55 440.15C29.39 439.98 29.26 439.79 29.14 439.6C29.02 439.4 28.92 439.19 28.84 438.97C28.77 438.81 28.72 438.63 28.68 438.45C28.62 438.12 28.6 437.78 28.63 437.45C28.64 437.27 28.66 437.1 28.71 436.93C28.91 436.03 29.48 435.23 30.25 434.74C31.03 434.25 31.99 434.09 32.88 434.3C33.04 434.34 33.21 434.39 33.37 434.46C33.68 434.58 33.97 434.75 34.23 434.96C34.37 435.07 34.5 435.2 34.62 435.32C34.78 435.5 34.92 435.68 35.04 435.87C35.16 436.07 35.26 436.28 35.34 436.5C35.4 436.66 35.45 436.84 35.49 437.01C35.56 437.34 35.58 437.69 35.55 438.02C35.54 438.2 35.51 438.37 35.47 438.54C35.27 439.44 34.7 440.24 33.92 440.73C33.15 441.22 32.19 441.38 31.3 441.17Z" id="e5N5vsqH1"></path><path d="M39.51 408.24C39.36 408.21 39.21 408.16 39.06 408.1C38.78 407.99 38.51 407.84 38.27 407.66C38.14 407.56 38.01 407.45 37.9 407.33C37.76 407.18 37.63 407.02 37.52 406.84C37.41 406.67 37.32 406.48 37.24 406.29C37.18 406.14 37.14 405.98 37.1 405.82C37.04 405.53 37.02 405.23 37.05 404.93C37.06 404.78 37.08 404.62 37.12 404.47C37.31 403.67 37.83 402.96 38.55 402.52C39.27 402.09 40.15 401.94 40.97 402.13C41.12 402.17 41.28 402.21 41.42 402.27C41.71 402.38 41.98 402.53 42.22 402.72C42.35 402.82 42.47 402.93 42.58 403.04C42.73 403.2 42.86 403.36 42.97 403.53C43.08 403.71 43.17 403.89 43.24 404.09C43.3 404.23 43.35 404.39 43.38 404.54C43.45 404.84 43.46 405.14 43.44 405.44C43.42 405.6 43.4 405.75 43.36 405.9C43.17 406.7 42.65 407.42 41.94 407.85C41.22 408.29 40.33 408.43 39.51 408.24Z" id="c2OIxG0lYs"></path><path d="M49.6 424.51C49.45 424.48 49.3 424.43 49.15 424.38C48.86 424.27 48.59 424.12 48.35 423.93C48.22 423.83 48.1 423.72 47.99 423.61C47.84 423.45 47.71 423.29 47.6 423.12C47.49 422.94 47.4 422.76 47.33 422.56C47.27 422.41 47.22 422.26 47.19 422.1C47.12 421.8 47.11 421.5 47.13 421.21C47.15 421.05 47.17 420.9 47.21 420.75C47.4 419.94 47.92 419.23 48.64 418.8C49.35 418.36 50.24 418.22 51.06 418.41C51.21 418.44 51.36 418.49 51.51 418.55C51.8 418.66 52.07 418.81 52.31 419C52.44 419.09 52.56 419.2 52.67 419.32C52.81 419.47 52.94 419.63 53.05 419.81C53.16 419.98 53.26 420.17 53.33 420.36C53.39 420.51 53.43 420.66 53.47 420.82C53.53 421.11 53.55 421.42 53.52 421.72C53.51 421.87 53.49 422.03 53.45 422.18C53.26 422.98 52.74 423.69 52.02 424.13C51.3 424.56 50.42 424.7 49.6 424.51Z" id="g3kLIVOVTm"></path><path d="M24.19 408.39C24.03 408.34 23.87 408.28 23.71 408.21C23.41 408.07 23.12 407.89 22.87 407.67C22.74 407.55 22.61 407.42 22.5 407.28C22.35 407.11 22.21 406.92 22.1 406.71C21.99 406.51 21.9 406.3 21.83 406.08C21.78 405.91 21.74 405.73 21.71 405.55C21.65 405.21 21.65 404.87 21.69 404.54C21.71 404.37 21.75 404.2 21.8 404.03C22.04 403.14 22.65 402.37 23.44 401.91C24.24 401.46 25.21 401.35 26.09 401.6C26.25 401.65 26.41 401.71 26.57 401.78C26.87 401.92 27.16 402.1 27.41 402.32C27.54 402.44 27.67 402.57 27.78 402.7C27.93 402.88 28.06 403.07 28.17 403.27C28.28 403.48 28.37 403.69 28.44 403.91C28.5 404.08 28.54 404.26 28.57 404.43C28.62 404.77 28.63 405.11 28.58 405.45C28.56 405.62 28.53 405.79 28.48 405.96C28.23 406.85 27.63 407.62 26.83 408.07C26.04 408.53 25.07 408.64 24.19 408.39Z" id="a1UDhmky0n"></path><path d="M31.45 424.32C31.3 424.28 31.15 424.23 31.01 424.16C30.73 424.04 30.47 423.88 30.24 423.68C30.11 423.58 29.99 423.46 29.89 423.34C29.75 423.18 29.63 423.01 29.52 422.83C29.42 422.65 29.34 422.46 29.27 422.26C29.22 422.11 29.18 421.95 29.16 421.79C29.11 421.5 29.11 421.2 29.15 420.9C29.17 420.75 29.2 420.59 29.24 420.45C29.47 419.65 30.03 418.97 30.76 418.56C31.5 418.16 32.39 418.06 33.2 418.29C33.35 418.33 33.5 418.38 33.64 418.44C33.92 418.57 34.19 418.73 34.42 418.93C34.54 419.03 34.66 419.15 34.76 419.27C34.9 419.43 35.02 419.59 35.13 419.77C35.23 419.95 35.31 420.14 35.38 420.34C35.43 420.49 35.46 420.65 35.49 420.8C35.54 421.1 35.54 421.41 35.5 421.7C35.48 421.86 35.45 422.01 35.41 422.16C35.18 422.95 34.62 423.64 33.89 424.04C33.15 424.44 32.26 424.55 31.45 424.32Z" id="a2mvfqcNB"></path></defs><g><g><path></path><g><use xlink:href="#bYwAnqlaZ" opacity="1" fill="#e0f7fc" fill-opacity="1"></use><g><use xlink:href="#bYwAnqlaZ" opacity="1" fill-opacity="0" stroke="#000000" stroke-width="1" stroke-opacity="0"></use></g></g><g><use xlink:href="#a44ARRVsTs" opacity="1" fill="#beedf4" fill-opacity="1"></use><g><use xlink:href="#a44ARRVsTs" opacity="1" fill-opacity="0" stroke="#000000" stroke-width="1" stroke-opacity="0"></use></g></g><g><use xlink:href="#d2VGmLD8jb" opacity="1" fill="#e2f056" fill-opacity="1"></use><g><use xlink:href="#d2VGmLD8jb" opacity="1" fill-opacity="0" stroke="#000000" stroke-width="1" stroke-opacity="0"></use></g></g><g><use xlink:href="#j4Buv9I0O9" opacity="1" fill="#ecee58" fill-opacity="1"></use><g><use xlink:href="#j4Buv9I0O9" opacity="1" fill-opacity="0" stroke="#000000" stroke-width="1" stroke-opacity="0"></use></g></g><g><use xlink:href="#darvuGnsT" opacity="1" fill="#ea473b" fill-opacity="1"></use><g><use xlink:href="#darvuGnsT" opacity="1" fill-opacity="0" stroke="#000000" stroke-width="1" stroke-opacity="0"></use></g></g><g><use xlink:href="#aU2w7uyDw" opacity="1" fill="#d7f01f" fill-opacity="1"></use><g><use xlink:href="#aU2w7uyDw" opacity="1" fill-opacity="0" stroke="#000000" stroke-width="1" stroke-opacity="0"></use></g></g><g><use xlink:href="#atZyn3mZ" opacity="1" fill="#b0c60e" fill-opacity="1"></use><g><use xlink:href="#atZyn3mZ" opacity="1" fill-opacity="0" stroke="#000000" stroke-width="1" stroke-opacity="0"></use></g></g><g><use xlink:href="#b1wHv7PU6" opacity="1" fill="#93603e" fill-opacity="1"></use><g><use xlink:href="#b1wHv7PU6" opacity="1" fill-opacity="0" stroke="#000000" stroke-width="1" stroke-opacity="0"></use></g></g><g><use xlink:href="#h1vsfIkd4I" opacity="1" fill="#7f573c" fill-opacity="1"></use><g><use xlink:href="#h1vsfIkd4I" opacity="1" fill-opacity="0" stroke="#000000" stroke-width="1" stroke-opacity="0"></use></g></g><g><use xlink:href="#fcnn4uB" opacity="1" fill="#d7f01f" fill-opacity="1"></use><g><use xlink:href="#fcnn4uB" opacity="1" fill-opacity="0" stroke="#000000" stroke-width="1" stroke-opacity="0"></use></g></g><g><use xlink:href="#b1QYvgMxsE" opacity="1" fill="#b0c60e" fill-opacity="1"></use><g><use xlink:href="#b1QYvgMxsE" opacity="1" fill-opacity="0" stroke="#000000" stroke-width="1" stroke-opacity="0"></use></g></g><g><use xlink:href="#hqLyD1VJd" opacity="1" fill="#e0e022" fill-opacity="1"></use><g><use xlink:href="#hqLyD1VJd" opacity="1" fill-opacity="0" stroke="#000000" stroke-width="1" stroke-opacity="0"></use></g></g><g><use xlink:href="#hbCoXdQT2" opacity="1" fill="#9ab748" fill-opacity="1"></use><g><use xlink:href="#hbCoXdQT2" opacity="1" fill-opacity="0" stroke="#000000" stroke-width="1" stroke-opacity="0"></use></g></g><g><use xlink:href="#aB0jKECtm" opacity="1" fill="#d6ea7f" fill-opacity="1"></use><g><use xlink:href="#aB0jKECtm" opacity="1" fill-opacity="0" stroke="#000000" stroke-width="1" stroke-opacity="0"></use></g></g><g><use xlink:href="#anak2qFER" opacity="1" fill="#e0e022" fill-opacity="1"></use><g><use xlink:href="#anak2qFER" opacity="1" fill-opacity="0" stroke="#000000" stroke-width="1" stroke-opacity="0"></use></g></g><g><use xlink:href="#cqjf1NLEB" opacity="1" fill="#e0e022" fill-opacity="1"></use><g><use xlink:href="#cqjf1NLEB" opacity="1" fill-opacity="0" stroke="#000000" stroke-width="1" stroke-opacity="0"></use></g></g><g><use xlink:href="#aiineQHoP" opacity="1" fill="#e0e022" fill-opacity="1"></use><g><use xlink:href="#aiineQHoP" opacity="1" fill-opacity="0" stroke="#000000" stroke-width="1" stroke-opacity="0"></use></g></g><g><use xlink:href="#abjCXWAnx" opacity="1" fill="#e0e022" fill-opacity="1"></use><g><use xlink:href="#abjCXWAnx" opacity="1" fill-opacity="0" stroke="#000000" stroke-width="1" stroke-opacity="0"></use></g></g><g><use xlink:href="#ajLLUjHPR" opacity="1" fill="#e0e022" fill-opacity="1"></use><g><use xlink:href="#ajLLUjHPR" opacity="1" fill-opacity="0" stroke="#000000" stroke-width="1" stroke-opacity="0"></use></g></g><g><use xlink:href="#a3pFHlifa2" opacity="1" fill="#9ab748" fill-opacity="1"></use><g><use xlink:href="#a3pFHlifa2" opacity="1" fill-opacity="0" stroke="#000000" stroke-width="1" stroke-opacity="0"></use></g></g><g><use xlink:href="#b1NDvquKxN" opacity="1" fill="#8ea53a" fill-opacity="1"></use><g><use xlink:href="#b1NDvquKxN" opacity="1" fill-opacity="0" stroke="#000000" stroke-width="1" stroke-opacity="0"></use></g></g><g><use xlink:href="#c1gJAPnCb0" opacity="1" fill="#d7f01f" fill-opacity="1"></use><g><use xlink:href="#c1gJAPnCb0" opacity="1" fill-opacity="0" stroke="#000000" stroke-width="1" stroke-opacity="0"></use></g></g><g><use xlink:href="#bOYQhg0" opacity="1" fill="#b0c60e" fill-opacity="1"></use><g><use xlink:href="#bOYQhg0" opacity="1" fill-opacity="0" stroke="#000000" stroke-width="1" stroke-opacity="0"></use></g></g><g><use xlink:href="#e5N5vsqH1" opacity="1" fill="#1b8923" fill-opacity="1"></use><g><use xlink:href="#e5N5vsqH1" opacity="1" fill-opacity="0" stroke="#000000" stroke-width="1" stroke-opacity="0"></use></g></g><g><use xlink:href="#c2OIxG0lYs" opacity="1" fill="#1b8923" fill-opacity="1"></use><g><use xlink:href="#c2OIxG0lYs" opacity="1" fill-opacity="0" stroke="#000000" stroke-width="1" stroke-opacity="0"></use></g></g><g><use xlink:href="#g3kLIVOVTm" opacity="1" fill="#1b8923" fill-opacity="1"></use><g><use xlink:href="#g3kLIVOVTm" opacity="1" fill-opacity="0" stroke="#000000" stroke-width="1" stroke-opacity="0"></use></g></g><g><use xlink:href="#a1UDhmky0n" opacity="1" fill="#1b8923" fill-opacity="1"></use><g><use xlink:href="#a1UDhmky0n" opacity="1" fill-opacity="0" stroke="#000000" stroke-width="1" stroke-opacity="0"></use></g></g><g><use xlink:href="#a2mvfqcNB" opacity="1" fill="#1b8923" fill-opacity="1"></use><g><use xlink:href="#a2mvfqcNB" opacity="1" fill-opacity="0" stroke="#000000" stroke-width="1" stroke-opacity="0"></use></g></g></g></g></svg>