<?xml version="1.0" encoding="UTF-8" standalone="no"?>
<!DOCTYPE svg PUBLIC "-//W3C//DTD SVG 1.1//EN" "http://www.w3.org/Graphics/SVG/1.1/DTD/svg11.dtd">
<svg version="1.1" xmlns="http://www.w3.org/2000/svg" xmlns:xlink="http://www.w3.org/1999/xlink" preserveAspectRatio="xMidYMid meet" viewBox="0 0 640 640" width="640" height="640"><defs><path d="M547.43 372.06C547.43 426.3 547.43 456.43 547.43 462.46C547.43 462.46 547.43 462.46 547.43 462.46C394.76 462.46 309.94 462.46 292.97 462.46C292.97 462.46 292.97 462.46 292.97 462.46C292.97 408.22 292.97 378.09 292.97 372.06C292.97 372.06 292.97 372.06 292.97 372.06C445.65 372.06 530.47 372.06 547.43 372.06C547.43 372.06 547.43 372.06 547.43 372.06Z" id="a2c8wy5xGL"></path><path d="M547.43 372.06C547.43 426.3 547.43 456.43 547.43 462.46C547.43 462.46 547.43 462.46 547.43 462.46C394.76 462.46 309.94 462.46 292.97 462.46C292.97 462.46 292.97 462.46 292.97 462.46C292.97 408.22 292.97 378.09 292.97 372.06C292.97 372.06 292.97 372.06 292.97 372.06C445.65 372.06 530.47 372.06 547.43 372.06C547.43 372.06 547.43 372.06 547.43 372.06Z" id="d88TGcV2f"></path><path d="M322.79 372.06C322.79 426.3 322.79 456.43 322.79 462.46C322.79 462.46 322.79 462.46 322.79 462.46C188.01 462.46 113.13 462.46 98.16 462.46C98.16 462.46 98.16 462.46 98.16 462.46C98.16 408.22 98.16 378.09 98.16 372.06C98.16 372.06 98.16 372.06 98.16 372.06C232.94 372.06 307.82 372.06 322.79 372.06C322.79 372.06 322.79 372.06 322.79 372.06Z" id="b1ImKkSRg"></path><path d="M322.79 372.06C322.79 428.85 322.79 460.39 322.79 466.71C322.79 466.71 322.79 466.71 322.79 466.71C188.01 466.71 113.13 466.71 98.16 466.71C98.16 466.71 98.16 466.71 98.16 466.71C98.16 409.92 98.16 378.37 98.16 372.06C98.16 372.06 98.16 372.06 98.16 372.06C232.94 372.06 307.82 372.06 322.79 372.06C322.79 372.06 322.79 372.06 322.79 372.06Z" id="i10uYhA9W5"></path><path d="M547.43 272.27C547.43 300.9 547.43 316.82 547.43 320C547.43 320 547.43 320 547.43 320C409.43 320 332.76 320 317.43 320C317.43 320 317.43 320 317.43 320C317.43 291.36 317.43 275.45 317.43 272.27C317.43 272.27 317.43 272.27 317.43 272.27C455.43 272.27 532.1 272.27 547.43 272.27C547.43 272.27 547.43 272.27 547.43 272.27Z" id="ahvsvEyHA"></path><path d="M321.76 274.03C321.76 302.67 321.76 318.58 321.76 321.76C321.76 321.76 321.76 321.76 321.76 321.76C258.94 321.76 224.04 321.76 217.06 321.76C217.06 321.76 217.06 321.76 217.06 321.76C217.06 293.13 217.06 277.21 217.06 274.03C217.06 274.03 217.06 274.03 217.06 274.03C279.88 274.03 314.78 274.03 321.76 274.03C321.76 274.03 321.76 274.03 321.76 274.03Z" id="dRZd0FThv"></path><path d="M632.12 231.22C632.12 264.82 632.12 283.49 632.12 287.23C632.12 287.23 632.12 287.23 632.12 287.23C524.37 287.23 464.51 287.23 452.54 287.23C452.54 287.23 452.54 287.23 452.54 287.23C452.54 253.62 452.54 234.95 452.54 231.22C452.54 231.22 452.54 231.22 452.54 231.22C560.29 231.22 620.15 231.22 632.12 231.22C632.12 231.22 632.12 231.22 632.12 231.22Z" id="a25FoXi5ek"></path><path d="M254.46 274.03C254.46 302.67 254.46 318.58 254.46 321.76C254.46 321.76 254.46 321.76 254.46 321.76C164.6 321.76 114.68 321.76 104.7 321.76C104.7 321.76 104.7 321.76 104.7 321.76C104.7 293.13 104.7 277.21 104.7 274.03C104.7 274.03 104.7 274.03 104.7 274.03C194.55 274.03 244.47 274.03 254.46 274.03C254.46 274.03 254.46 274.03 254.46 274.03Z" id="bVJGjUouB"></path><path d="M323.45 495C431.4 495 491.37 495 503.36 495C544.47 495 577.91 472.47 577.91 444.78C577.91 443.44 577.91 436.74 577.91 424.69C560.95 424.69 476.13 424.69 323.45 424.69L263.82 459.85C299.6 480.94 319.47 492.66 323.45 495Z" id="e2dVZuONJn"></path><path d="M323.45 495C431.4 495 491.37 495 503.36 495C544.47 495 577.91 472.47 577.91 444.78C577.91 443.44 577.91 436.74 577.91 424.69C560.95 424.69 476.13 424.69 323.45 424.69L263.82 459.85C299.6 480.94 319.47 492.66 323.45 495Z" id="ahcpDV70a"></path><path d="M143.55 495C155.54 495 215.51 495 323.45 495C323.45 490.31 323.45 466.88 323.45 424.69C170.78 424.69 85.96 424.69 69 424.69C69 436.74 69 443.44 69 444.78C69 472.47 102.44 495 143.55 495Z" id="e5luyl1i9E"></path><path d="M143.55 495C155.54 495 215.51 495 323.45 495C323.45 490.98 323.45 470.9 323.45 434.74C170.78 434.74 85.96 434.74 69 434.74C69 445.07 69 450.81 69 451.96C69 475.69 102.44 495 143.55 495Z" id="d1QViTAavR"></path><path d="M260.36 350.13C296.14 368.21 316.02 378.25 319.99 380.26C445.84 380.26 515.75 380.26 529.72 380.26C554.39 380.26 574.45 366.74 574.45 350.13C574.45 333.51 554.39 320 529.72 320C501.77 320 431.85 320 319.99 320C312.04 324.02 292.17 334.06 260.36 350.13Z" id="c6PeTTcXyM"></path><path d="M260.36 350.13C296.14 368.21 316.02 378.25 319.99 380.26C445.84 380.26 515.75 380.26 529.72 380.26C554.39 380.26 574.45 366.74 574.45 350.13C574.45 333.51 554.39 320 529.72 320C501.77 320 431.85 320 319.99 320C312.04 324.02 292.17 334.06 260.36 350.13Z" id="may0dinCB"></path><path d="M110.27 380.26C124.25 380.26 194.16 380.26 319.99 380.26C319.99 376.24 319.99 356.16 319.99 320C194.16 320 124.26 320 110.27 320C80.45 329.01 65.54 339.05 65.54 350.13C65.54 366.74 85.61 380.26 110.27 380.26Z" id="d4WL7xaFy"></path><path d="M110.27 380.26C124.25 380.26 194.16 380.26 319.99 380.26C319.99 376.24 319.99 356.16 319.99 320C194.16 320 124.26 320 110.27 320C80.45 329.01 65.54 339.05 65.54 350.13C65.54 366.74 85.61 380.26 110.27 380.26Z" id="bcwjzhqpx"></path><path d="M69 274.03C85.96 274.03 170.78 274.03 323.45 274.03L323.45 173.59C251.29 173.59 211.2 173.59 203.18 173.59C113.73 195.87 69 220.7 69 248.1C69 249.82 69 258.47 69 274.03Z" id="b3WRVQ616"></path><path d="M69 280.23C85.96 280.23 170.78 280.23 323.45 280.23L323.45 177.17C251.29 177.17 211.2 177.17 203.18 177.17C113.73 200.03 69 225.51 69 253.62C69 255.39 69 264.26 69 280.23Z" id="bk6ufIhYt"></path><path d="M323.45 173.59C323.45 180.29 323.45 213.77 323.45 274.03L577.91 274.03C577.91 258.47 577.91 249.82 577.91 248.09C537.78 198.43 493.05 173.59 443.72 173.59C435.71 173.59 395.62 173.59 323.45 173.59Z" id="bd1hUXOPo"></path><path d="M323.45 173.59C323.45 180.29 323.45 213.77 323.45 274.03L577.91 274.03C577.91 258.47 577.91 249.82 577.91 248.09C537.78 198.43 493.05 173.59 443.72 173.59C435.71 173.59 395.62 173.59 323.45 173.59Z" id="e1Bq5IunTn"></path><path d="M219.09 193.01C219.09 205.06 219.09 211.76 219.09 213.1C219.09 213.1 219.09 213.1 219.09 213.1C201.2 213.1 191.26 213.1 189.27 213.1C189.27 213.1 189.27 213.1 189.27 213.1C189.27 201.04 189.27 194.35 189.27 193.01C189.27 193.01 189.27 193.01 189.27 193.01C207.16 193.01 217.1 193.01 219.09 193.01C219.09 193.01 219.09 193.01 219.09 193.01Z" id="aOzIhI5NY"></path><path d="M219.09 193.01C219.09 205.06 219.09 211.76 219.09 213.1C219.09 213.1 219.09 213.1 219.09 213.1C201.2 213.1 191.26 213.1 189.27 213.1C189.27 213.1 189.27 213.1 189.27 213.1C189.27 201.04 189.27 194.35 189.27 193.01C189.27 193.01 189.27 193.01 189.27 193.01C207.16 193.01 217.1 193.01 219.09 193.01C219.09 193.01 219.09 193.01 219.09 193.01Z" id="a2aO4tulZ2"></path><path d="M278.73 213.1C278.73 225.15 278.73 231.85 278.73 233.19C278.73 233.19 278.73 233.19 278.73 233.19C260.83 233.19 250.89 233.19 248.91 233.19C248.91 233.19 248.91 233.19 248.91 233.19C248.91 221.13 248.91 214.44 248.91 213.1C248.91 213.1 248.91 213.1 248.91 213.1C266.8 213.1 276.74 213.1 278.73 213.1C278.73 213.1 278.73 213.1 278.73 213.1Z" id="a15EZXDcXp"></path><path d="M278.73 213.1C278.73 225.15 278.73 231.85 278.73 233.19C278.73 233.19 278.73 233.19 278.73 233.19C260.83 233.19 250.89 233.19 248.91 233.19C248.91 233.19 248.91 233.19 248.91 233.19C248.91 221.13 248.91 214.44 248.91 213.1C248.91 213.1 248.91 213.1 248.91 213.1C266.8 213.1 276.74 213.1 278.73 213.1C278.73 213.1 278.73 213.1 278.73 213.1Z" id="l1vBjLsgUB"></path><path d="M338.36 193.01C338.36 205.06 338.36 211.76 338.36 213.1C338.36 213.1 338.36 213.1 338.36 213.1C320.47 213.1 310.53 213.1 308.54 213.1C308.54 213.1 308.54 213.1 308.54 213.1C308.54 201.04 308.54 194.35 308.54 193.01C308.54 193.01 308.54 193.01 308.54 193.01C326.44 193.01 336.38 193.01 338.36 193.01C338.36 193.01 338.36 193.01 338.36 193.01Z" id="e38kp7CYca"></path><path d="M338.36 193.01C338.36 205.06 338.36 211.76 338.36 213.1C338.36 213.1 338.36 213.1 338.36 213.1C320.47 213.1 310.53 213.1 308.54 213.1C308.54 213.1 308.54 213.1 308.54 213.1C308.54 201.04 308.54 194.35 308.54 193.01C308.54 193.01 308.54 193.01 308.54 193.01C326.44 193.01 336.38 193.01 338.36 193.01C338.36 193.01 338.36 193.01 338.36 193.01Z" id="c2nH9qiMeD"></path><path d="M457.64 193.01C457.64 205.06 457.64 211.76 457.64 213.1C457.64 213.1 457.64 213.1 457.64 213.1C439.75 213.1 429.81 213.1 427.82 213.1C427.82 213.1 427.82 213.1 427.82 213.1C427.82 201.04 427.82 194.35 427.82 193.01C427.82 193.01 427.82 193.01 427.82 193.01C445.71 193.01 455.65 193.01 457.64 193.01C457.64 193.01 457.64 193.01 457.64 193.01Z" id="b1jshR0yxU"></path><path d="M457.64 193.01C457.64 205.06 457.64 211.76 457.64 213.1C457.64 213.1 457.64 213.1 457.64 213.1C439.75 213.1 429.81 213.1 427.82 213.1C427.82 213.1 427.82 213.1 427.82 213.1C427.82 201.04 427.82 194.35 427.82 193.01C427.82 193.01 427.82 193.01 427.82 193.01C445.71 193.01 455.65 193.01 457.64 193.01C457.64 193.01 457.64 193.01 457.64 193.01Z" id="e5aA6lAJKY"></path><path d="M398 213.1C398 225.15 398 231.85 398 233.19C398 233.19 398 233.19 398 233.19C380.11 233.19 370.17 233.19 368.18 233.19C368.18 233.19 368.18 233.19 368.18 233.19C368.18 221.13 368.18 214.44 368.18 213.1C368.18 213.1 368.18 213.1 368.18 213.1C386.07 213.1 396.01 213.1 398 213.1C398 213.1 398 213.1 398 213.1Z" id="a1JjGj3FnP"></path><path d="M398 213.1C398 225.15 398 231.85 398 233.19C398 233.19 398 233.19 398 233.19C380.11 233.19 370.17 233.19 368.18 233.19C368.18 233.19 368.18 233.19 368.18 233.19C368.18 221.13 368.18 214.44 368.18 213.1C368.18 213.1 368.18 213.1 368.18 213.1C386.07 213.1 396.01 213.1 398 213.1C398 213.1 398 213.1 398 213.1Z" id="daaFOEfjPr"></path></defs><g><g><g><use xlink:href="#a2c8wy5xGL" opacity="1" fill="#ff4b37" fill-opacity="1"></use><g><use xlink:href="#a2c8wy5xGL" opacity="1" fill-opacity="0" stroke="#000000" stroke-width="1" stroke-opacity="0"></use></g></g><g><use xlink:href="#d88TGcV2f" opacity="1" fill="#000000" fill-opacity="0"></use><g><use xlink:href="#d88TGcV2f" opacity="1" fill-opacity="0" stroke="#000000" stroke-width="1" stroke-opacity="0"></use></g></g><g><use xlink:href="#b1ImKkSRg" opacity="1" fill="#ff6e37" fill-opacity="1"></use><g><use xlink:href="#b1ImKkSRg" opacity="1" fill-opacity="0" stroke="#000000" stroke-width="1" stroke-opacity="0"></use></g></g><g><use xlink:href="#i10uYhA9W5" opacity="1" fill="#000000" fill-opacity="0"></use><g><use xlink:href="#i10uYhA9W5" opacity="1" fill-opacity="0" stroke="#000000" stroke-width="1" stroke-opacity="0"></use></g></g><g><use xlink:href="#ahvsvEyHA" opacity="1" fill="#4fa811" fill-opacity="1"></use><g><use xlink:href="#ahvsvEyHA" opacity="1" fill-opacity="0" stroke="#000000" stroke-width="1" stroke-opacity="0"></use></g></g><g><use xlink:href="#dRZd0FThv" opacity="1" fill="#88d652" fill-opacity="1"></use><g><use xlink:href="#dRZd0FThv" opacity="1" fill-opacity="0" stroke="#000000" stroke-width="1" stroke-opacity="0"></use></g></g><g><use xlink:href="#a25FoXi5ek" opacity="1" fill="#000000" fill-opacity="0"></use><g><use xlink:href="#a25FoXi5ek" opacity="1" fill-opacity="0" stroke="#000000" stroke-width="1" stroke-opacity="0"></use></g></g><g><use xlink:href="#bVJGjUouB" opacity="1" fill="#88d652" fill-opacity="1"></use><g><use xlink:href="#bVJGjUouB" opacity="1" fill-opacity="0" stroke="#000000" stroke-width="1" stroke-opacity="0"></use></g></g><g><use xlink:href="#e2dVZuONJn" opacity="1" fill="#ff9037" fill-opacity="1"></use><g><use xlink:href="#e2dVZuONJn" opacity="1" fill-opacity="0" stroke="#000000" stroke-width="1" stroke-opacity="0"></use></g></g><g><use xlink:href="#ahcpDV70a" opacity="1" fill="#000000" fill-opacity="0"></use><g><use xlink:href="#ahcpDV70a" opacity="1" fill-opacity="0" stroke="#000000" stroke-width="1" stroke-opacity="0"></use></g></g><g><use xlink:href="#e5luyl1i9E" opacity="1" fill="#ff9037" fill-opacity="1"></use><g><use xlink:href="#e5luyl1i9E" opacity="1" fill-opacity="0" stroke="#000000" stroke-width="1" stroke-opacity="0"></use></g></g><g><use xlink:href="#d1QViTAavR" opacity="1" fill="#000000" fill-opacity="0"></use><g><use xlink:href="#d1QViTAavR" opacity="1" fill-opacity="0" stroke="#000000" stroke-width="1" stroke-opacity="0"></use></g></g><g><use xlink:href="#c6PeTTcXyM" opacity="1" fill="#751f17" fill-opacity="1"></use><g><use xlink:href="#c6PeTTcXyM" opacity="1" fill-opacity="0" stroke="#000000" stroke-width="1" stroke-opacity="0"></use></g></g><g><use xlink:href="#may0dinCB" opacity="1" fill="#000000" fill-opacity="0"></use><g><use xlink:href="#may0dinCB" opacity="1" fill-opacity="0" stroke="#000000" stroke-width="1" stroke-opacity="0"></use></g></g><g><use xlink:href="#d4WL7xaFy" opacity="1" fill="#8a3931" fill-opacity="1"></use><g><use xlink:href="#d4WL7xaFy" opacity="1" fill-opacity="0" stroke="#000000" stroke-width="1" stroke-opacity="0"></use></g></g><g><use xlink:href="#bcwjzhqpx" opacity="1" fill="#000000" fill-opacity="0"></use><g><use xlink:href="#bcwjzhqpx" opacity="1" fill-opacity="0" stroke="#000000" stroke-width="1" stroke-opacity="0"></use></g></g><g><use xlink:href="#b3WRVQ616" opacity="1" fill="#ff9037" fill-opacity="1"></use><g><use xlink:href="#b3WRVQ616" opacity="1" fill-opacity="0" stroke="#000000" stroke-width="1" stroke-opacity="0"></use></g></g><g><use xlink:href="#bk6ufIhYt" opacity="1" fill="#000000" fill-opacity="0"></use><g><use xlink:href="#bk6ufIhYt" opacity="1" fill-opacity="0" stroke="#000000" stroke-width="1" stroke-opacity="0"></use></g></g><g><use xlink:href="#bd1hUXOPo" opacity="1" fill="#ff9037" fill-opacity="1"></use><g><use xlink:href="#bd1hUXOPo" opacity="1" fill-opacity="0" stroke="#000000" stroke-width="1" stroke-opacity="0"></use></g></g><g><use xlink:href="#e1Bq5IunTn" opacity="1" fill="#000000" fill-opacity="0"></use><g><use xlink:href="#e1Bq5IunTn" opacity="1" fill-opacity="0" stroke="#000000" stroke-width="1" stroke-opacity="0"></use></g></g><g><use xlink:href="#aOzIhI5NY" opacity="1" fill="#ffffff" fill-opacity="1"></use><g><use xlink:href="#aOzIhI5NY" opacity="1" fill-opacity="0" stroke="#000000" stroke-width="1" stroke-opacity="0"></use></g></g><g><use xlink:href="#a2aO4tulZ2" opacity="1" fill="#000000" fill-opacity="0"></use><g><use xlink:href="#a2aO4tulZ2" opacity="1" fill-opacity="0" stroke="#000000" stroke-width="1" stroke-opacity="0"></use></g></g><g><use xlink:href="#a15EZXDcXp" opacity="1" fill="#ffffff" fill-opacity="1"></use><g><use xlink:href="#a15EZXDcXp" opacity="1" fill-opacity="0" stroke="#000000" stroke-width="1" stroke-opacity="0"></use></g></g><g><use xlink:href="#l1vBjLsgUB" opacity="1" fill="#000000" fill-opacity="0"></use><g><use xlink:href="#l1vBjLsgUB" opacity="1" fill-opacity="0" stroke="#000000" stroke-width="1" stroke-opacity="0"></use></g></g><g><use xlink:href="#e38kp7CYca" opacity="1" fill="#fff0bc" fill-opacity="1"></use><g><use xlink:href="#e38kp7CYca" opacity="1" fill-opacity="0" stroke="#000000" stroke-width="1" stroke-opacity="0"></use></g></g><g><use xlink:href="#c2nH9qiMeD" opacity="1" fill="#000000" fill-opacity="0"></use><g><use xlink:href="#c2nH9qiMeD" opacity="1" fill-opacity="0" stroke="#000000" stroke-width="1" stroke-opacity="0"></use></g></g><g><use xlink:href="#b1jshR0yxU" opacity="1" fill="#fff0bc" fill-opacity="1"></use><g><use xlink:href="#b1jshR0yxU" opacity="1" fill-opacity="0" stroke="#000000" stroke-width="1" stroke-opacity="0"></use></g></g><g><use xlink:href="#e5aA6lAJKY" opacity="1" fill="#000000" fill-opacity="0"></use><g><use xlink:href="#e5aA6lAJKY" opacity="1" fill-opacity="0" stroke="#000000" stroke-width="1" stroke-opacity="0"></use></g></g><g><use xlink:href="#a1JjGj3FnP" opacity="1" fill="#fff0bc" fill-opacity="1"></use><g><use xlink:href="#a1JjGj3FnP" opacity="1" fill-opacity="0" stroke="#000000" stroke-width="1" stroke-opacity="0"></use></g></g><g><use xlink:href="#daaFOEfjPr" opacity="1" fill="#000000" fill-opacity="0"></use><g><use xlink:href="#daaFOEfjPr" opacity="1" fill-opacity="0" stroke="#000000" stroke-width="1" stroke-opacity="0"></use></g></g></g></g></svg>