<?xml version="1.0" encoding="UTF-8" standalone="no"?>
<!DOCTYPE svg PUBLIC "-//W3C//DTD SVG 1.1//EN" "http://www.w3.org/Graphics/SVG/1.1/DTD/svg11.dtd">
<svg version="1.1" xmlns="http://www.w3.org/2000/svg" xmlns:xlink="http://www.w3.org/1999/xlink" preserveAspectRatio="xMidYMid meet" viewBox="0 0 640 640" width="640" height="640"><defs><path d="M548.09 304.16L293.63 284.08L293.63 344.34L548.09 344.34L548.09 304.16Z" id="m5kKL0gcT"></path><path d="M98.82 304.16L98.82 344.34L323.45 344.34L323.45 284.08L98.82 304.16Z" id="b1oltbEP4r"></path><path d="M548.09 344.34C548.09 344.34 548.09 344.34 548.09 344.34C548.09 398.58 548.09 428.71 548.09 434.74C548.09 434.74 548.09 434.74 548.09 434.74C395.42 434.74 310.6 434.74 293.63 434.74C293.63 434.74 293.63 434.74 293.63 434.74C293.63 380.5 293.63 350.37 293.63 344.34C293.63 344.34 293.63 344.34 293.63 344.34C446.31 344.34 531.13 344.34 548.09 344.34Z" id="a2PlGqzXtI"></path><path d="M323.45 344.34C323.45 344.34 323.45 344.34 323.45 344.34C323.45 398.58 323.45 428.71 323.45 434.74C323.45 434.74 323.45 434.74 323.45 434.74C188.67 434.74 113.79 434.74 98.82 434.74C98.82 434.74 98.82 434.74 98.82 434.74C98.82 380.5 98.82 350.37 98.82 344.34C98.82 344.34 98.82 344.34 98.82 344.34C233.6 344.34 308.48 344.34 323.45 344.34Z" id="b427Fv5xZn"></path><path d="M548.09 263.99C548.09 263.99 548.09 263.99 548.09 263.99C548.09 288.09 548.09 301.48 548.09 304.16C548.09 304.16 548.09 304.16 548.09 304.16C440.34 304.16 380.48 304.16 368.51 304.16C368.51 304.16 368.51 304.16 368.51 304.16C368.51 280.06 368.51 266.67 368.51 263.99C368.51 263.99 368.51 263.99 368.51 263.99C476.26 263.99 536.12 263.99 548.09 263.99Z" id="cabcJfXjB"></path><path d="M398.33 263.99C398.33 263.99 398.33 263.99 398.33 263.99C398.33 288.09 398.33 301.48 398.33 304.16C398.33 304.16 398.33 304.16 398.33 304.16C335.51 304.16 300.61 304.16 293.63 304.16C293.63 304.16 293.63 304.16 293.63 304.16C293.63 280.06 293.63 266.67 293.63 263.99C293.63 263.99 293.63 263.99 293.63 263.99C356.45 263.99 391.35 263.99 398.33 263.99Z" id="a591EDtAVR"></path><path d="M323.45 263.99C323.45 263.99 323.45 263.99 323.45 263.99C323.45 288.09 323.45 301.48 323.45 304.16C323.45 304.16 323.45 304.16 323.45 304.16C260.64 304.16 225.74 304.16 218.76 304.16C218.76 304.16 218.76 304.16 218.76 304.16C218.76 280.06 218.76 266.67 218.76 263.99C218.76 263.99 218.76 263.99 218.76 263.99C281.58 263.99 316.47 263.99 323.45 263.99Z" id="dWKHpJD2g"></path><path d="M248.58 263.99C248.58 263.99 248.58 263.99 248.58 263.99C248.58 288.09 248.58 301.48 248.58 304.16C248.58 304.16 248.58 304.16 248.58 304.16C158.72 304.16 108.8 304.16 98.82 304.16C98.82 304.16 98.82 304.16 98.82 304.16C98.82 280.06 98.82 266.67 98.82 263.99C98.82 263.99 98.82 263.99 98.82 263.99C188.67 263.99 238.59 263.99 248.58 263.99Z" id="amU28ZtTc"></path><path d="M263.82 459.85L323.45 495C431.4 495 491.37 495 503.36 495C544.47 495 577.91 472.47 577.91 444.78C577.91 443.44 577.91 436.74 577.91 424.69L323.45 424.69L263.82 459.85Z" id="d3dfkAqi48"></path><path d="M69 444.78C69 472.47 102.44 495 143.55 495C155.54 495 215.51 495 323.45 495L323.45 424.69L69 424.69C69 436.74 69 443.44 69 444.78Z" id="dcDbwu4wN"></path><path d="M323.45 334.3L263.82 364.43L323.45 394.56C449.29 394.56 519.2 394.56 533.18 394.56C557.84 394.56 577.91 381.04 577.91 364.43C577.91 347.81 557.84 334.3 533.18 334.3C505.22 334.3 435.31 334.3 323.45 334.3Z" id="a6qkFjp9z"></path><path d="M69 364.43C69 381.04 89.07 394.56 113.73 394.56C127.71 394.56 197.62 394.56 323.45 394.56L323.45 334.3L113.73 334.3C83.91 343.31 69 353.35 69 364.43Z" id="c1rHmmr1jT"></path><path d="M69 247.42C69 249.19 69 258.06 69 274.03L323.45 274.03L323.45 170.97L203.18 170.97C113.73 193.83 69 219.31 69 247.42Z" id="abVNscJtP"></path><path d="M443.72 173.59C435.71 173.59 395.62 173.59 323.45 173.59L323.45 274.03L577.91 274.03L577.91 248.09C537.78 198.43 493.05 173.59 443.72 173.59Z" id="d8Lf3rRua"></path><path d="M219.09 193.01C219.09 193.01 219.09 193.01 219.09 193.01C219.09 205.06 219.09 211.76 219.09 213.1C219.09 213.1 219.09 213.1 219.09 213.1C201.2 213.1 191.26 213.1 189.27 213.1C189.27 213.1 189.27 213.1 189.27 213.1C189.27 201.04 189.27 194.35 189.27 193.01C189.27 193.01 189.27 193.01 189.27 193.01C207.16 193.01 217.1 193.01 219.09 193.01Z" id="bCTVSbnHM"></path><path d="M278.73 213.1C278.73 213.1 278.73 213.1 278.73 213.1C278.73 225.15 278.73 231.85 278.73 233.19C278.73 233.19 278.73 233.19 278.73 233.19C260.83 233.19 250.89 233.19 248.91 233.19C248.91 233.19 248.91 233.19 248.91 233.19C248.91 221.13 248.91 214.44 248.91 213.1C248.91 213.1 248.91 213.1 248.91 213.1C266.8 213.1 276.74 213.1 278.73 213.1Z" id="a4HvREGhmm"></path><path d="M338.36 193.01C338.36 193.01 338.36 193.01 338.36 193.01C338.36 205.06 338.36 211.76 338.36 213.1C338.36 213.1 338.36 213.1 338.36 213.1C320.47 213.1 310.53 213.1 308.54 213.1C308.54 213.1 308.54 213.1 308.54 213.1C308.54 201.04 308.54 194.35 308.54 193.01C308.54 193.01 308.54 193.01 308.54 193.01C326.44 193.01 336.38 193.01 338.36 193.01Z" id="c1bV22TQh3"></path><path d="M457.64 193.01C457.64 193.01 457.64 193.01 457.64 193.01C457.64 205.06 457.64 211.76 457.64 213.1C457.64 213.1 457.64 213.1 457.64 213.1C439.75 213.1 429.81 213.1 427.82 213.1C427.82 213.1 427.82 213.1 427.82 213.1C427.82 201.04 427.82 194.35 427.82 193.01C427.82 193.01 427.82 193.01 427.82 193.01C445.71 193.01 455.65 193.01 457.64 193.01Z" id="a3LFXRYaLH"></path><path d="M398 213.1C398 213.1 398 213.1 398 213.1C398 225.15 398 231.85 398 233.19C398 233.19 398 233.19 398 233.19C380.11 233.19 370.17 233.19 368.18 233.19C368.18 233.19 368.18 233.19 368.18 233.19C368.18 221.13 368.18 214.44 368.18 213.1C368.18 213.1 368.18 213.1 368.18 213.1C386.07 213.1 396.01 213.1 398 213.1Z" id="j3gwdwSy36"></path><path d="M293.63 374.47L323.45 424.69L492.43 324.25L323.45 324.25L293.63 374.47Z" id="at0EQLuAP"></path><path d="M323.45 424.69L323.45 324.25L154.48 324.25L323.45 424.69Z" id="b2U7nGoHHz"></path></defs><g><g><g><use xlink:href="#m5kKL0gcT" opacity="1" fill="#ffd237" fill-opacity="1"></use><g><use xlink:href="#m5kKL0gcT" opacity="1" fill-opacity="0" stroke="#000000" stroke-width="1" stroke-opacity="0"></use></g></g><g><use xlink:href="#b1oltbEP4r" opacity="1" fill="#ffe17a" fill-opacity="1"></use><g><use xlink:href="#b1oltbEP4r" opacity="1" fill-opacity="0" stroke="#000000" stroke-width="1" stroke-opacity="0"></use></g></g><g><use xlink:href="#a2PlGqzXtI" opacity="1" fill="#ff4b37" fill-opacity="1"></use><g><use xlink:href="#a2PlGqzXtI" opacity="1" fill-opacity="0" stroke="#000000" stroke-width="1" stroke-opacity="0"></use></g></g><g><use xlink:href="#b427Fv5xZn" opacity="1" fill="#ff6e37" fill-opacity="1"></use><g><use xlink:href="#b427Fv5xZn" opacity="1" fill-opacity="0" stroke="#000000" stroke-width="1" stroke-opacity="0"></use></g></g><g><use xlink:href="#cabcJfXjB" opacity="1" fill="#4fa811" fill-opacity="1"></use><g><use xlink:href="#cabcJfXjB" opacity="1" fill-opacity="0" stroke="#000000" stroke-width="1" stroke-opacity="0"></use></g></g><g><use xlink:href="#a591EDtAVR" opacity="1" fill="#88d652" fill-opacity="1"></use><g><use xlink:href="#a591EDtAVR" opacity="1" fill-opacity="0" stroke="#000000" stroke-width="1" stroke-opacity="0"></use></g></g><g><use xlink:href="#dWKHpJD2g" opacity="1" fill="#a5ed73" fill-opacity="1"></use><g><use xlink:href="#dWKHpJD2g" opacity="1" fill-opacity="0" stroke="#000000" stroke-width="1" stroke-opacity="0"></use></g></g><g><use xlink:href="#amU28ZtTc" opacity="1" fill="#88d652" fill-opacity="1"></use><g><use xlink:href="#amU28ZtTc" opacity="1" fill-opacity="0" stroke="#000000" stroke-width="1" stroke-opacity="0"></use></g></g><g><use xlink:href="#d3dfkAqi48" opacity="1" fill="#ff9037" fill-opacity="1"></use><g><use xlink:href="#d3dfkAqi48" opacity="1" fill-opacity="0" stroke="#000000" stroke-width="1" stroke-opacity="0"></use></g></g><g><use xlink:href="#dcDbwu4wN" opacity="1" fill="#ff9037" fill-opacity="1"></use><g><use xlink:href="#dcDbwu4wN" opacity="1" fill-opacity="0" stroke="#000000" stroke-width="1" stroke-opacity="0"></use></g></g><g><use xlink:href="#a6qkFjp9z" opacity="1" fill="#751f17" fill-opacity="1"></use><g><use xlink:href="#a6qkFjp9z" opacity="1" fill-opacity="0" stroke="#000000" stroke-width="1" stroke-opacity="0"></use></g></g><g><use xlink:href="#c1rHmmr1jT" opacity="1" fill="#8a3931" fill-opacity="1"></use><g><use xlink:href="#c1rHmmr1jT" opacity="1" fill-opacity="0" stroke="#000000" stroke-width="1" stroke-opacity="0"></use></g></g><g><use xlink:href="#abVNscJtP" opacity="1" fill="#ff9037" fill-opacity="1"></use><g><use xlink:href="#abVNscJtP" opacity="1" fill-opacity="0" stroke="#000000" stroke-width="1" stroke-opacity="0"></use></g></g><g><use xlink:href="#d8Lf3rRua" opacity="1" fill="#ff9037" fill-opacity="1"></use><g><use xlink:href="#d8Lf3rRua" opacity="1" fill-opacity="0" stroke="#000000" stroke-width="1" stroke-opacity="0"></use></g></g><g><use xlink:href="#bCTVSbnHM" opacity="1" fill="#ffffff" fill-opacity="1"></use><g><use xlink:href="#bCTVSbnHM" opacity="1" fill-opacity="0" stroke="#000000" stroke-width="1" stroke-opacity="0"></use></g></g><g><use xlink:href="#a4HvREGhmm" opacity="1" fill="#ffffff" fill-opacity="1"></use><g><use xlink:href="#a4HvREGhmm" opacity="1" fill-opacity="0" stroke="#000000" stroke-width="1" stroke-opacity="0"></use></g></g><g><use xlink:href="#c1bV22TQh3" opacity="1" fill="#fff0bc" fill-opacity="1"></use><g><use xlink:href="#c1bV22TQh3" opacity="1" fill-opacity="0" stroke="#000000" stroke-width="1" stroke-opacity="0"></use></g></g><g><use xlink:href="#a3LFXRYaLH" opacity="1" fill="#fff0bc" fill-opacity="1"></use><g><use xlink:href="#a3LFXRYaLH" opacity="1" fill-opacity="0" stroke="#000000" stroke-width="1" stroke-opacity="0"></use></g></g><g><use xlink:href="#j3gwdwSy36" opacity="1" fill="#fff0bc" fill-opacity="1"></use><g><use xlink:href="#j3gwdwSy36" opacity="1" fill-opacity="0" stroke="#000000" stroke-width="1" stroke-opacity="0"></use></g></g><g><use xlink:href="#at0EQLuAP" opacity="1" fill="#ffd237" fill-opacity="1"></use><g><use xlink:href="#at0EQLuAP" opacity="1" fill-opacity="0" stroke="#000000" stroke-width="1" stroke-opacity="0"></use></g></g><g><use xlink:href="#b2U7nGoHHz" opacity="1" fill="#ffe17a" fill-opacity="1"></use><g><use xlink:href="#b2U7nGoHHz" opacity="1" fill-opacity="0" stroke="#000000" stroke-width="1" stroke-opacity="0"></use></g></g></g></g></svg>