<?xml version="1.0" encoding="UTF-8" standalone="no"?>
<!DOCTYPE svg PUBLIC "-//W3C//DTD SVG 1.1//EN" "http://www.w3.org/Graphics/SVG/1.1/DTD/svg11.dtd">
<svg version="1.1" xmlns="http://www.w3.org/2000/svg" xmlns:xlink="http://www.w3.org/1999/xlink" preserveAspectRatio="xMidYMid meet" viewBox="0 0 640 640" width="640" height="640"><defs><path d="M378.44 71.93C384.21 71.93 388.89 76.61 388.89 82.38C388.89 262.83 341.34 423.13 335.93 440.77C335.93 445.36 335.93 482 335.93 486.58C335.93 492.35 331.25 497.03 325.47 497.03C311.49 497.03 199.61 497.03 185.63 497.03C179.86 497.03 175.18 492.35 175.18 486.58C175.18 482 175.18 445.36 175.18 440.77C169.76 423.13 122.21 262.83 122.21 82.38C122.21 76.61 126.89 71.93 132.66 71.93C181.82 71.93 353.86 71.93 378.44 71.93Z" id="f8LIZbyQem"></path><path d="M195.47 440.77C190.06 423.13 142.51 262.83 142.51 82.38C142.51 76.61 147.19 71.93 152.96 71.93C150.93 71.93 134.69 71.93 132.66 71.93C126.89 71.93 122.21 76.61 122.21 82.38C122.21 262.83 169.76 423.13 175.18 440.77C175.18 445.36 175.18 482 175.18 486.58C175.18 492.35 179.86 497.03 185.63 497.03C187.66 497.03 203.9 497.03 205.93 497.03C200.15 497.03 195.47 492.35 195.47 486.58C195.47 477.42 195.47 445.36 195.47 440.77Z" id="a5HajyQg"></path><path d="M126.39 178.46C138.14 316.61 170.72 426.35 175.14 440.77C191.22 440.77 319.82 440.77 335.89 440.77C340.08 427.11 369.52 327.97 382.6 200.18C345.47 206.93 292.84 210.21 250.64 188.31C204.38 164.3 155.92 170.55 126.39 178.46Z" id="e5jhWVeuB"></path><path d="M175.18 440.77C177.21 440.77 193.45 440.77 195.47 440.77C191 426.2 157.79 314.31 146.36 174.12C139.07 175.35 132.36 176.86 126.43 178.45C138.18 316.6 170.75 426.35 175.18 440.77Z" id="agkwL6UU9"></path><path d="M282.95 423.67C289.61 382.04 342.91 49.03 349.57 7.41C350.22 3.37 353.94 0.57 358 1.05C364.94 1.89 420.42 8.61 427.35 9.45C431.53 9.96 434.5 13.75 434 17.93C433.49 22.1 429.7 25.07 425.52 24.57C421.39 24.07 400.69 21.56 363.44 17.05C324.17 262.46 302.35 398.8 297.98 426.07C297.32 430.23 293.41 433.05 289.26 432.39C285.11 431.72 282.29 427.82 282.95 423.67Z" id="bBoaPpSHS"></path><path d="M109.23 462.67C113.76 451.34 136.36 394.68 177.04 292.7L244.84 462.67C179.4 499.94 134.2 499.94 109.23 462.67Z" id="aG4uyae8Z"></path><path d="M272.64 464.14C244.19 487.4 179.12 497.7 142.2 492.9C175.35 494.44 209.13 484.85 234.45 464.14C242.09 464.14 268.82 464.14 272.64 464.14Z" id="hLZj2J8Ri"></path><path d="M272.64 464.14L242.32 464.14L229.48 431.94L259.8 431.94L272.64 464.14Z" id="c29vzI5yQ2"></path><path d="M263.99 432.61L233.68 432.61L178.72 294.83L209.04 294.83L263.99 432.61Z" id="d65ftSus"></path><path d="M106.71 464.14C108 460.92 118.27 435.16 119.56 431.94C149.91 477.26 199.13 477.26 229.48 431.94C230.34 434.09 234.62 444.82 242.32 464.14C176.88 501.41 131.68 501.41 106.71 464.14Z" id="eMJi6Moto"></path><path d="M36 464.13C40.52 452.8 63.12 396.15 103.8 294.16L171.61 464.13C106.17 501.41 60.96 501.41 36 464.13Z" id="czCxIkwb7"></path><path d="M201.92 464.14C173.48 487.4 108.4 497.71 71.48 492.9C104.63 494.44 138.41 484.85 163.74 464.14C171.37 464.14 198.1 464.14 201.92 464.14Z" id="a2GDDEpwX"></path><path d="M201.92 464.14L171.61 464.14L158.77 431.94L189.08 431.94L201.92 464.14Z" id="aAChg8RE0"></path><path d="M188.27 433.31L157.96 433.31L103 295.53L133.32 295.53L188.27 433.31Z" id="bSyDUgYw"></path><path d="M36 464.14C37.28 460.92 47.56 435.16 48.84 431.94C79.2 477.26 128.41 477.26 158.77 431.94C159.62 434.09 163.9 444.82 171.61 464.14C106.17 501.41 60.96 501.41 36 464.14Z" id="avNHZEDV"></path><path d="M92.76 359.31C94.03 357.62 95.95 357.36 97.41 358.66C98.76 359.87 99.51 362.25 99.28 364.58C99 367.43 97.31 369.6 95.38 369.6C91.83 369.6 90.11 362.83 92.76 359.31Z" id="c1peaCTa8O"></path><path d="M117.41 381.5C118.68 379.69 120.65 379.37 122.16 380.71C123.57 381.98 124.32 384.5 123.99 386.92C123.63 389.63 121.99 391.66 120.13 391.66C116.64 391.66 114.89 385.09 117.41 381.5Z" id="a1XcJoekT"></path><path d="M195.27 418.31C194.65 415.92 195.16 413.12 196.52 411.55C199.17 408.47 203.12 411.63 202.88 416.63C202.73 419.66 200.98 422.08 198.94 422.08C197.33 422.08 195.85 420.55 195.27 418.31Z" id="bqMGBs4Or"></path><path d="M220.52 372.98C223.15 369.33 227.56 372.71 227.11 378.03C226.86 380.94 225.17 383.19 223.19 383.19C219.68 383.19 217.94 376.53 220.52 372.98Z" id="a1scZ6YyRV"></path><path d="M180.9 360.65C180.25 358.19 180.83 355.31 182.25 353.76C185.17 350.58 189.29 354.76 188.4 359.98C187.96 362.56 186.36 364.42 184.58 364.42C182.95 364.42 181.48 362.9 180.9 360.65Z" id="bVcv4pjat"></path><path d="M146.9 367.58C148.2 365.82 150.17 365.57 151.65 366.97C153.02 368.25 153.73 370.72 153.41 373.09C153.05 375.81 151.41 377.83 149.55 377.83C146.02 377.83 144.28 371.11 146.9 367.58Z" id="b52PZvjdp"></path><path d="M94.25 434.11C93.69 431.75 94.21 429.06 95.52 427.51C98.33 424.19 102.53 428.02 101.83 433.28C101.47 436 99.82 438.02 97.96 438.02C96.32 438.02 94.8 436.42 94.25 434.11Z" id="a39xFUE97f"></path></defs><g><g><g><use xlink:href="#f8LIZbyQem" opacity="1" fill="#e0f7fc" fill-opacity="1"></use><g><use xlink:href="#f8LIZbyQem" opacity="1" fill-opacity="0" stroke="#000000" stroke-width="1" stroke-opacity="0"></use></g></g><g><use xlink:href="#a5HajyQg" opacity="1" fill="#beedf4" fill-opacity="1"></use><g><use xlink:href="#a5HajyQg" opacity="1" fill-opacity="0" stroke="#000000" stroke-width="1" stroke-opacity="0"></use></g></g><g><use xlink:href="#e5jhWVeuB" opacity="1" fill="#f97d7d" fill-opacity="0.9"></use><g><use xlink:href="#e5jhWVeuB" opacity="1" fill-opacity="0" stroke="#000000" stroke-width="1" stroke-opacity="0"></use></g></g><g><use xlink:href="#agkwL6UU9" opacity="1" fill="#f94848" fill-opacity="0.84"></use><g><use xlink:href="#agkwL6UU9" opacity="1" fill-opacity="0" stroke="#000000" stroke-width="1" stroke-opacity="0"></use></g></g><g><use xlink:href="#bBoaPpSHS" opacity="1" fill="#ea473b" fill-opacity="1"></use><g><use xlink:href="#bBoaPpSHS" opacity="1" fill-opacity="0" stroke="#000000" stroke-width="1" stroke-opacity="0"></use></g></g><g><use xlink:href="#aG4uyae8Z" opacity="1" fill="#f94848" fill-opacity="1"></use><g><use xlink:href="#aG4uyae8Z" opacity="1" fill-opacity="0" stroke="#000000" stroke-width="1" stroke-opacity="0"></use></g></g><g><use xlink:href="#hLZj2J8Ri" opacity="1" fill="#23b75f" fill-opacity="1"></use><g><use xlink:href="#hLZj2J8Ri" opacity="1" fill-opacity="0" stroke="#000000" stroke-width="1" stroke-opacity="0"></use></g></g><g><use xlink:href="#c29vzI5yQ2" opacity="1" fill="#c7f492" fill-opacity="1"></use><g><use xlink:href="#c29vzI5yQ2" opacity="1" fill-opacity="0" stroke="#000000" stroke-width="1" stroke-opacity="0"></use></g></g><g><use xlink:href="#d65ftSus" opacity="1" fill="#f97d7d" fill-opacity="1"></use><g><use xlink:href="#d65ftSus" opacity="1" fill-opacity="0" stroke="#000000" stroke-width="1" stroke-opacity="0"></use></g></g><g><use xlink:href="#eMJi6Moto" opacity="1" fill="#a3e261" fill-opacity="1"></use><g><use xlink:href="#eMJi6Moto" opacity="1" fill-opacity="0" stroke="#000000" stroke-width="1" stroke-opacity="0"></use></g></g><g><use xlink:href="#czCxIkwb7" opacity="1" fill="#f94848" fill-opacity="1"></use><g><use xlink:href="#czCxIkwb7" opacity="1" fill-opacity="0" stroke="#000000" stroke-width="1" stroke-opacity="0"></use></g></g><g><use xlink:href="#a2GDDEpwX" opacity="1" fill="#23b75f" fill-opacity="1"></use><g><use xlink:href="#a2GDDEpwX" opacity="1" fill-opacity="0" stroke="#000000" stroke-width="1" stroke-opacity="0"></use></g></g><g><use xlink:href="#aAChg8RE0" opacity="1" fill="#c7f492" fill-opacity="1"></use><g><use xlink:href="#aAChg8RE0" opacity="1" fill-opacity="0" stroke="#000000" stroke-width="1" stroke-opacity="0"></use></g></g><g><use xlink:href="#bSyDUgYw" opacity="1" fill="#f97d7d" fill-opacity="1"></use><g><use xlink:href="#bSyDUgYw" opacity="1" fill-opacity="0" stroke="#000000" stroke-width="1" stroke-opacity="0"></use></g></g><g><use xlink:href="#avNHZEDV" opacity="1" fill="#a3e261" fill-opacity="1"></use><g><use xlink:href="#avNHZEDV" opacity="1" fill-opacity="0" stroke="#000000" stroke-width="1" stroke-opacity="0"></use></g></g><g><use xlink:href="#c1peaCTa8O" opacity="1" fill="#4d4d4d" fill-opacity="1"></use><g><use xlink:href="#c1peaCTa8O" opacity="1" fill-opacity="0" stroke="#000000" stroke-width="1" stroke-opacity="0"></use></g></g><g><use xlink:href="#a1XcJoekT" opacity="1" fill="#4d4d4d" fill-opacity="1"></use><g><use xlink:href="#a1XcJoekT" opacity="1" fill-opacity="0" stroke="#000000" stroke-width="1" stroke-opacity="0"></use></g></g><g><use xlink:href="#bqMGBs4Or" opacity="1" fill="#4d4d4d" fill-opacity="1"></use><g><use xlink:href="#bqMGBs4Or" opacity="1" fill-opacity="0" stroke="#000000" stroke-width="1" stroke-opacity="0"></use></g></g><g><use xlink:href="#a1scZ6YyRV" opacity="1" fill="#4d4d4d" fill-opacity="1"></use><g><use xlink:href="#a1scZ6YyRV" opacity="1" fill-opacity="0" stroke="#000000" stroke-width="1" stroke-opacity="0"></use></g></g><g><use xlink:href="#bVcv4pjat" opacity="1" fill="#4d4d4d" fill-opacity="1"></use><g><use xlink:href="#bVcv4pjat" opacity="1" fill-opacity="0" stroke="#000000" stroke-width="1" stroke-opacity="0"></use></g></g><g><use xlink:href="#b52PZvjdp" opacity="1" fill="#4d4d4d" fill-opacity="1"></use><g><use xlink:href="#b52PZvjdp" opacity="1" fill-opacity="0" stroke="#000000" stroke-width="1" stroke-opacity="0"></use></g></g><g><use xlink:href="#a39xFUE97f" opacity="1" fill="#4d4d4d" fill-opacity="1"></use><g><use xlink:href="#a39xFUE97f" opacity="1" fill-opacity="0" stroke="#000000" stroke-width="1" stroke-opacity="0"></use></g></g></g></g></svg>