<?xml version="1.0" encoding="iso-8859-1"?>
<!-- Generator: Adobe Illustrator 19.0.0, SVG Export Plug-In . SVG Version: 6.00 Build 0)  -->
<svg version="1.1" id="Capa_1" xmlns="http://www.w3.org/2000/svg" xmlns:xlink="http://www.w3.org/1999/xlink" x="0px" y="0px"
	 viewBox="0 0 512 512" style="enable-background:new 0 0 512 512;" xml:space="preserve">
<path style="fill:#08BFF7;" d="M408.625,66.358l-0.667-0.758V15.176c0-8.382-6.509-15.176-14.89-15.176H234.954
	c-8.381,0-14.995,6.794-14.995,15.176V65.6l-57,91.2V512h72.037h114.615H466.96V156.8L408.625,66.358z"/>
<polygon style="fill:#06D0FF;" points="162.54,512 162.54,156.8 349.61,156.8 349.61,512 234.995,512 "/>
<path style="fill:#FFFFFF;" d="M260.961,342.4h40.805c3.293,0,5.963-2.67,5.963-5.963v-68.074c0-3.293-2.67-5.963-5.963-5.963
	H200.931v80h60.356"/>
<path style="fill:#06D0FF;" d="M408.244,65.6H219.778V15.176C219.778,6.795,226.572,0,234.954,0h158.114
	c8.381,0,15.176,6.795,15.176,15.176V65.6z"/>
<rect x="349.609" y="156.8" style="fill:#2A8EF2;" width="117.27" height="355.2"/>
<polygon style="fill:#06D0FF;" points="466.877,156.8 349.61,156.8 408.244,65.6 408.727,66.358 "/>
<g>
	<polygon style="fill:#08BFF7;" points="162.54,156.8 219.778,65.6 408.244,65.6 349.61,156.8 	"/>
	<path style="fill:#08BFF7;" d="M408.683,470.649c-4.546,0-8.231-3.684-8.231-8.231V262.4c0-4.546,3.685-8.231,8.231-8.231
		s8.231,3.684,8.231,8.231v200.018C416.913,466.964,413.228,470.649,408.683,470.649z"/>
</g>
<path style="fill:#D9F4F4;" d="M169.535,512H76.436c-17.34,0-31.396-14.057-31.396-31.396V248.908c0-2.582,2.093-4.675,4.675-4.675
	h146.542c2.582,0,4.675,2.093,4.675,4.675v231.695C200.931,497.943,186.875,512,169.535,512z"/>
<path style="fill:#B5E6EA;" d="M196.256,244.233h-35.117c2.582,0,4.675,2.093,4.675,4.675v231.695
	c0,17.34-14.056,31.396-31.396,31.396h35.117c17.34,0,31.396-14.056,31.396-31.396V248.908
	C200.931,246.326,198.838,244.233,196.256,244.233z"/>
<path style="fill:#FFFFFF;" d="M82.268,501.637h81.434c15.167,0,27.463-13.066,27.463-29.184V313.249H54.805v159.204
	C54.805,488.571,67.101,501.637,82.268,501.637z"/>
<path style="fill:#F7F7F7;" d="M165.814,480.604c0,8.091-3.063,15.467-8.09,21.033h5.978c15.167,0,27.463-13.066,27.463-29.184
	V313.249h-25.351V480.604z"/>
<g>
</g>
<g>
</g>
<g>
</g>
<g>
</g>
<g>
</g>
<g>
</g>
<g>
</g>
<g>
</g>
<g>
</g>
<g>
</g>
<g>
</g>
<g>
</g>
<g>
</g>
<g>
</g>
<g>
</g>
</svg>
