<?xml version="1.0" encoding="iso-8859-1"?>
<!-- Generator: Adobe Illustrator 19.0.0, SVG Export Plug-In . SVG Version: 6.00 Build 0)  -->
<svg version="1.1" id="Layer_1" xmlns="http://www.w3.org/2000/svg" xmlns:xlink="http://www.w3.org/1999/xlink" x="0px" y="0px"
	 viewBox="0 0 512 512" style="enable-background:new 0 0 512 512;" xml:space="preserve">
<path style="fill:#90F0FF;" d="M288.681,8.17c-27.03,0-49.021,21.991-49.021,49.021v87.149h32.681V57.191
	c0-9.01,7.33-16.34,16.34-16.34h81.702V8.17H288.681z"/>
<polygon style="fill:#CB5956;" points="302.098,349.729 315.915,503.83 348.596,503.83 357.853,324.856 "/>
<polygon style="fill:#FF5A52;" points="161.58,468.577 163.404,503.83 315.915,503.83 323.886,349.729 "/>
<path style="fill:#FF9944;" d="M364.294,200.309l-55.819,26.128l13.771,154.993c14.275-17.061,26.297-36.07,35.607-56.574
	L364.294,200.309z"/>
<path style="fill:#FFBD3D;" d="M155.977,360.244l5.604,108.333c64.352-7.633,121.145-39.915,160.665-87.148l8.017-154.993
	L155.977,360.244z"/>
<path style="fill:#CB5956;" d="M365.499,177.021h-54.468l17.237,87.962c15.045-19.465,27.262-41.226,36.026-64.674L365.499,177.021z
	"/>
<path style="fill:#FF5A52;" d="M146.5,177.021l9.477,183.223c70.031-6.7,131.546-42.545,172.291-95.262l4.55-87.962H146.5V177.021z"
	/>
<polygon style="fill:#FFD686;" points="370.383,122.553 337.702,122.553 322.127,155.234 348.596,187.915 381.276,187.915 "/>
<polygon style="fill:#FFE2AA;" points="141.617,122.553 130.723,187.915 348.596,187.915 337.702,122.553 "/>
<path d="M389.335,186.572l-10.894-65.362c-0.657-3.94-4.066-6.827-8.059-6.827H280.51V57.191c0-4.506,3.665-8.17,8.17-8.17h81.702
	c4.513,0,8.17-3.657,8.17-8.17V8.17c0-4.513-3.657-8.17-8.17-8.17h-81.702c-31.535,0-57.191,25.657-57.191,57.191v57.191h-89.872
	c-3.994,0-7.402,2.887-8.059,6.827l-10.894,65.362c-0.394,2.369,0.273,4.792,1.826,6.624c1.551,1.832,3.831,2.889,6.233,2.889h8.582
	l15.94,308.167c0.224,4.342,3.812,7.748,8.159,7.748h185.191c4.348,0,7.935-3.405,8.159-7.748l15.682-303.203
	c0.002-0.032,0.003-0.064,0.004-0.096l0.252-4.868h8.583c2.402,0,4.682-1.057,6.234-2.889
	C389.062,191.364,389.731,188.94,389.335,186.572z M247.83,57.191c0-22.526,18.325-40.851,40.851-40.851h73.532v16.34h-73.532
	c-13.515,0-24.511,10.996-24.511,24.511v57.191h-16.34V57.191z M148.539,130.723h214.923l8.17,49.021H140.368L148.539,130.723z
	 M356.332,196.085l-0.142,2.733c-21.652,56.993-65.564,104.756-120.66,131.158c-4.069,1.95-5.788,6.83-3.837,10.899
	c1.404,2.93,4.328,4.642,7.374,4.642c1.184,0,2.387-0.258,3.525-0.804c29.626-14.198,55.945-33.716,78.226-58.012
	c12.775-13.931,23.854-29.046,33.165-45.191l-4.28,82.757c-33.515,72.443-101.961,123.962-180.357,136.265l-4.802-92.847
	c15.51-1.967,30.846-5.349,45.691-10.101c4.298-1.376,6.667-5.974,5.29-10.273c-1.377-4.299-5.977-6.669-10.272-5.289
	c-13.507,4.324-27.452,7.425-41.558,9.288l-8.029-155.225H356.332z M171.162,495.66l-0.968-18.724
	c41.178-6.163,80.456-22.419,114.033-47.27c25.193-18.644,46.73-41.798,63.541-68.031l-6.932,134.024H171.162z"/>
<g>
</g>
<g>
</g>
<g>
</g>
<g>
</g>
<g>
</g>
<g>
</g>
<g>
</g>
<g>
</g>
<g>
</g>
<g>
</g>
<g>
</g>
<g>
</g>
<g>
</g>
<g>
</g>
<g>
</g>
</svg>
