<?xml version="1.0" encoding="UTF-8" standalone="no"?>
<!DOCTYPE svg PUBLIC "-//W3C//DTD SVG 1.1//EN" "http://www.w3.org/Graphics/SVG/1.1/DTD/svg11.dtd">
<svg version="1.1" xmlns="http://www.w3.org/2000/svg" xmlns:xlink="http://www.w3.org/1999/xlink" preserveAspectRatio="xMidYMid meet" viewBox="0 0 640 640" width="640" height="640"><defs><path d="M378.4 361.52L378.82 361.53L379.23 361.55L379.65 361.58L380.06 361.62L380.48 361.66L380.89 361.71L381.31 361.76L381.72 361.83L382.13 361.89L382.54 361.97L382.95 362.05L383.36 362.14L383.77 362.24L384.18 362.34L384.58 362.45L441.31 378.36L459.81 388.11L504.88 388.11L504.88 372.14L552 372.14L552 451.98L504.88 451.98L504.88 437.18L478.63 441.33L389.14 441.23L320.18 430.14L286.95 417.17L286.26 416.89L285.58 416.59L284.93 416.27L284.3 415.93L283.69 415.57L283.1 415.2L282.53 414.81L281.99 414.41L281.47 413.99L280.97 413.56L280.49 413.12L280.04 412.66L279.61 412.19L279.2 411.71L278.82 411.22L278.46 410.72L278.13 410.21L277.82 409.69L277.54 409.16L277.28 408.63L277.05 408.08L276.84 407.53L276.67 406.98L276.51 406.42L276.39 405.85L276.29 405.28L276.22 404.71L276.17 404.13L276.16 403.55L276.17 402.97L276.21 402.38L276.28 401.8L276.38 401.21L276.51 400.63L276.66 400.05L276.85 399.47L277.07 398.89L277.31 398.31L277.59 397.74L277.9 397.17L278.07 396.88L278.25 396.6L278.43 396.32L278.62 396.04L278.82 395.77L279.02 395.5L279.23 395.23L279.45 394.97L279.68 394.71L279.91 394.45L280.15 394.2L280.39 393.96L280.64 393.71L280.9 393.47L281.16 393.24L281.43 393.01L281.7 392.78L281.98 392.56L282.27 392.35L282.56 392.13L282.85 391.93L283.15 391.73L283.46 391.53L283.77 391.34L284.09 391.15L284.41 390.97L284.74 390.79L285.07 390.62L285.4 390.45L285.74 390.29L286.09 390.13L286.44 389.98L286.79 389.84L287.15 389.7L287.51 389.56L287.87 389.44L288.24 389.31L288.61 389.2L288.99 389.09L289.37 388.99L289.75 388.89L290.14 388.8L290.52 388.71L290.91 388.63L291.3 388.56L291.69 388.49L292.08 388.43L292.47 388.38L292.86 388.33L293.26 388.29L293.65 388.26L294.05 388.23L294.44 388.21L294.84 388.2L295.23 388.19L295.63 388.19L296.03 388.2L296.42 388.21L296.82 388.23L297.21 388.25L297.6 388.28L298 388.32L298.39 388.36L298.78 388.41L299.17 388.47L299.56 388.53L299.94 388.6L300.33 388.67L300.71 388.75L301.09 388.84L301.47 388.94L301.85 389.04L302.22 389.14L302.59 389.25L302.96 389.37L303.33 389.5L303.69 389.63L304.05 389.77L304.41 389.91L304.76 390.06L319.53 396.44L317.49 391.66L317.35 391.32L317.22 390.98L317.11 390.64L317 390.3L316.9 389.96L316.82 389.61L316.75 389.26L316.68 388.92L316.63 388.57L316.58 388.22L316.55 387.87L316.53 387.52L316.52 387.17L316.52 386.82L316.53 386.48L316.55 386.13L316.57 385.78L316.61 385.43L316.66 385.09L316.72 384.74L316.8 384.4L316.88 384.06L316.97 383.72L317.07 383.38L317.18 383.04L317.3 382.71L317.43 382.37L317.57 382.04L317.72 381.71L317.88 381.39L318.05 381.06L318.23 380.74L318.42 380.43L318.62 380.11L318.83 379.8L319.05 379.5L319.28 379.19L319.52 378.89L319.77 378.6L320.03 378.3L320.3 378.02L320.57 377.74L320.85 377.46L321.14 377.19L321.44 376.93L321.75 376.68L322.06 376.43L322.38 376.18L322.7 375.95L323.04 375.71L323.38 375.49L323.72 375.27L324.07 375.06L324.43 374.86L324.79 374.66L325.16 374.47L325.54 374.29L325.92 374.11L326.3 373.94L326.69 373.78L327.08 373.62L327.48 373.47L327.88 373.33L328.29 373.2L328.7 373.07L329.12 372.96L329.53 372.85L329.96 372.74L330.38 372.65L330.81 372.56L331.24 372.48L331.67 372.41L332.11 372.35L332.55 372.29L332.99 372.25L333.44 372.21L333.88 372.18L334.33 372.16L334.78 372.14L335.23 372.14L335.8 372.15L336.37 372.17L336.94 372.2L337.51 372.25L338.07 372.31L338.62 372.38L339.17 372.47L339.72 372.57L340.26 372.68L340.79 372.8L341.32 372.93L341.84 373.08L342.35 373.24L342.86 373.41L343.36 373.59L343.85 373.79L344.33 373.99L344.81 374.21L345.27 374.43L345.73 374.67L346.18 374.92L346.62 375.18L347.05 375.45L347.47 375.72L347.88 376.01L348.28 376.31L348.67 376.62L349.05 376.94L349.41 377.26L349.77 377.6L350.11 377.95L350.44 378.3L350.76 378.66L351.07 379.03L351.36 379.41L351.64 379.8L351.9 380.2L352.15 380.6L352.39 381.01L352.61 381.43L361.32 398.66L382.51 398.6L367.94 392.48L367.29 392.2L366.66 391.9L366.05 391.58L365.45 391.25L364.87 390.91L364.31 390.55L363.77 390.17L363.25 389.79L362.74 389.39L362.26 388.97L361.79 388.55L361.35 388.11L360.92 387.67L360.51 387.21L360.13 386.74L359.76 386.27L359.42 385.78L359.09 385.29L358.79 384.78L358.51 384.27L358.25 383.76L358.01 383.23L357.8 382.7L357.6 382.17L357.43 381.62L357.29 381.08L357.16 380.53L357.07 379.97L356.99 379.42L356.94 378.86L356.91 378.29L356.91 377.73L356.93 377.16L356.98 376.59L357.05 376.03L357.14 375.46L357.27 374.89L357.42 374.32L357.59 373.76L357.8 373.19L357.92 372.87L358.06 372.55L358.2 372.23L358.36 371.92L358.51 371.61L358.68 371.3L358.85 371L359.03 370.7L359.22 370.4L359.42 370.11L359.62 369.82L359.83 369.53L360.05 369.25L360.27 368.97L360.5 368.7L360.74 368.43L360.98 368.16L361.23 367.9L361.49 367.64L361.75 367.39L362.02 367.14L362.3 366.9L362.58 366.66L362.87 366.42L363.16 366.19L363.46 365.96L363.77 365.74L364.08 365.52L364.4 365.31L364.73 365.1L365.06 364.9L365.4 364.7L365.74 364.51L366.09 364.32L366.44 364.14L366.8 363.96L367.16 363.79L367.53 363.62L367.91 363.46L368.29 363.3L368.67 363.15L369.06 363.01L369.45 362.87L369.84 362.74L370.23 362.61L370.63 362.5L371.03 362.38L371.43 362.28L371.83 362.18L372.23 362.09L372.63 362.01L373.04 361.93L373.45 361.86L373.85 361.79L374.26 361.73L374.67 361.68L375.09 361.64L375.5 361.6L375.91 361.57L376.33 361.54L376.74 361.52L377.16 361.51L377.57 361.51L377.99 361.51L378.4 361.52ZM518.35 441.33L538.54 441.33L538.54 382.78L518.35 382.78L518.35 441.33ZM377.36 372.16L377.22 372.17L377.07 372.18L376.92 372.19L376.78 372.2L376.63 372.22L376.49 372.24L376.34 372.26L376.2 372.28L376.06 372.3L375.91 372.33L375.77 372.36L375.63 372.39L375.49 372.43L375.35 372.46L375.21 372.5L375.07 372.55L374.93 372.59L374.79 372.64L374.65 372.68L374.52 372.74L374.38 372.79L374.25 372.84L374.11 372.9L373.98 372.96L373.86 373.02L373.73 373.08L373.6 373.15L373.48 373.21L373.36 373.28L373.24 373.35L373.12 373.42L373.01 373.5L372.9 373.57L372.79 373.65L372.68 373.73L372.57 373.81L372.47 373.89L372.37 373.97L372.27 374.06L372.17 374.14L372.07 374.23L371.98 374.32L371.89 374.41L371.8 374.5L371.72 374.6L371.63 374.69L371.55 374.79L371.47 374.89L371.4 374.99L371.32 375.09L371.25 375.19L371.18 375.3L371.12 375.4L371.05 375.51L370.99 375.61L370.93 375.72L370.88 375.83L370.82 375.94L370.77 376.05L370.72 376.17L370.68 376.28L370.61 376.48L370.55 376.68L370.49 376.88L370.45 377.08L370.42 377.28L370.39 377.48L370.38 377.68L370.37 377.88L370.37 378.08L370.38 378.28L370.4 378.47L370.43 378.67L370.46 378.87L370.5 379.06L370.56 379.25L370.62 379.44L370.68 379.63L370.76 379.82L370.84 380L370.94 380.19L371.03 380.37L371.14 380.54L371.26 380.72L371.38 380.89L371.51 381.06L371.64 381.22L371.79 381.38L371.94 381.54L372.09 381.69L372.26 381.84L372.43 381.99L372.61 382.13L372.79 382.27L372.98 382.4L373.18 382.53L373.38 382.65L373.59 382.76L373.81 382.88L374.03 382.98L374.26 383.08L411.88 398.9L385.32 409.4L321.44 409.4L298.32 399.41L298.21 399.36L298.1 399.32L297.99 399.27L297.88 399.23L297.76 399.19L297.65 399.16L297.54 399.12L297.42 399.09L297.31 399.06L297.19 399.03L297.08 399L296.96 398.98L296.85 398.95L296.73 398.93L296.61 398.91L296.49 398.89L296.38 398.88L296.26 398.87L296.14 398.85L296.02 398.84L295.9 398.84L295.78 398.83L295.66 398.83L295.54 398.83L295.42 398.83L295.3 398.83L295.18 398.83L295.07 398.84L294.95 398.85L294.83 398.86L294.71 398.87L294.59 398.89L294.47 398.9L294.35 398.92L294.23 398.94L294.11 398.97L294 398.99L293.88 399.02L293.76 399.05L293.64 399.08L293.53 399.11L293.41 399.14L293.3 399.18L293.18 399.21L293.07 399.25L292.96 399.29L292.85 399.33L292.75 399.38L292.64 399.42L292.53 399.47L292.43 399.52L292.33 399.57L292.23 399.62L292.13 399.67L292.03 399.73L291.94 399.79L291.84 399.84L291.75 399.9L291.66 399.96L291.57 400.03L291.48 400.09L291.4 400.15L291.31 400.22L291.23 400.29L291.15 400.36L291.07 400.43L290.99 400.5L290.92 400.58L290.85 400.65L290.77 400.73L290.7 400.8L290.64 400.88L290.57 400.96L290.51 401.04L290.44 401.13L290.38 401.21L290.33 401.3L290.27 401.38L290.22 401.47L290.16 401.56L290.07 401.73L289.99 401.9L289.91 402.08L289.85 402.25L289.79 402.43L289.74 402.61L289.7 402.79L289.67 402.96L289.65 403.14L289.64 403.32L289.64 403.49L289.64 403.67L289.65 403.85L289.68 404.02L289.71 404.19L289.74 404.37L289.79 404.54L289.84 404.71L289.91 404.87L289.98 405.04L290.06 405.2L290.14 405.36L290.23 405.52L290.34 405.67L290.44 405.82L290.56 405.97L290.68 406.12L290.81 406.26L290.95 406.4L291.1 406.53L291.25 406.67L291.41 406.79L291.57 406.91L291.74 407.03L291.92 407.14L292.11 407.25L292.3 407.35L292.5 407.45L292.7 407.54L292.91 407.63L325.34 420.28L391.13 430.69L477.29 430.69L504.89 426.32L504.89 398.75L455.73 398.75L434.55 387.59L380.13 372.49L379.99 372.45L379.84 372.41L379.7 372.38L379.55 372.35L379.41 372.32L379.26 372.29L379.12 372.27L378.97 372.25L378.83 372.23L378.68 372.21L378.53 372.2L378.39 372.18L378.24 372.17L378.09 372.17L377.95 372.16L377.8 372.16L377.65 372.16L377.51 372.16L377.36 372.16ZM332.64 383.38L331.73 383.86L330.96 384.52L330.68 384.85L330.45 385.2L330.26 385.57L330.12 385.94L330.03 386.32L329.98 386.71L329.98 387.1L330.02 387.49L330.11 387.88L330.25 388.26L334.71 398.73L346.84 398.69L340.11 385.39L339.56 384.61L338.82 383.97L337.93 383.48L336.92 383.14L335.84 382.95L334.74 382.93L333.66 383.07L332.64 383.38Z" id="j3ITXVGPvM"></path><path d="M322.32 243.43L323.46 243.61L324.58 243.85L325.68 244.15L326.76 244.52L327.82 244.95L328.86 245.44L329.88 245.98L330.87 246.59L331.84 247.25L332.77 247.96L333.69 248.73L334.57 249.54L335.42 250.41L336.24 251.32L337.02 252.28L337.77 253.28L338.49 254.32L339.17 255.4L339.81 256.53L340.41 257.69L340.97 258.89L341.49 260.12L341.96 261.38L342.39 262.68L342.78 264L343.11 265.35L343.4 266.73L343.64 268.13L343.83 269.56L343.96 271.01L344.05 272.48L344.07 273.96L344.05 275.45L343.96 276.92L343.83 278.36L343.64 279.79L343.4 281.19L343.11 282.57L342.78 283.92L342.39 285.25L341.96 286.54L341.49 287.81L340.97 289.04L340.41 290.23L339.81 291.4L339.17 292.52L338.49 293.6L337.77 294.65L337.02 295.65L336.24 296.6L335.42 297.52L334.57 298.38L333.69 299.2L332.77 299.96L331.84 300.67L330.87 301.33L329.88 301.94L328.86 302.49L327.82 302.98L326.76 303.41L325.68 303.77L324.58 304.08L323.46 304.32L322.32 304.49L321.17 304.59L320 304.63L318.83 304.59L317.68 304.49L316.55 304.32L315.43 304.08L314.32 303.77L313.24 303.41L312.18 302.98L311.14 302.49L310.12 301.94L309.13 301.33L308.17 300.67L307.23 299.96L306.31 299.2L305.43 298.38L304.58 297.52L303.76 296.6L302.98 295.65L302.23 294.65L301.51 293.6L300.83 292.52L300.19 291.4L299.59 290.23L299.03 289.04L298.51 287.81L298.04 286.54L297.61 285.25L297.22 283.92L296.89 282.57L296.6 281.19L296.36 279.79L296.17 278.36L296.04 276.92L295.95 275.45L295.93 273.96L295.95 272.48L296.04 271.01L296.17 269.56L296.36 268.13L296.6 266.73L296.89 265.35L297.22 264L297.61 262.68L298.04 261.38L298.51 260.12L299.03 258.89L299.59 257.69L300.19 256.53L300.83 255.4L301.51 254.32L302.23 253.28L302.98 252.28L303.76 251.32L304.58 250.41L305.43 249.54L306.31 248.73L307.23 247.96L308.17 247.25L309.13 246.59L310.12 245.98L311.14 245.44L312.18 244.95L313.24 244.52L314.32 244.15L315.43 243.85L316.55 243.61L317.68 243.43L318.83 243.33L320 243.29L321.17 243.33L322.32 243.43ZM319.45 252.78L319.37 252.79L319.29 252.81L319.21 252.83L319.13 252.86L319.05 252.89L318.98 252.93L318.91 252.97L318.84 253.02L318.77 253.07L318.71 253.13L318.65 253.2L318.59 253.26L318.54 253.34L318.49 253.41L318.44 253.49L318.4 253.57L318.36 253.66L318.32 253.75L318.29 253.84L318.26 253.93L318.24 254.03L318.22 254.13L318.21 254.23L318.2 254.33L318.2 254.44L318.2 257.63L318.2 257.66L318.2 257.69L318.2 257.71L318.19 257.74L318.18 257.76L318.17 257.78L318.16 257.8L318.15 257.82L318.14 257.84L318.13 257.86L318.12 257.88L318.1 257.89L318.09 257.91L318.07 257.92L318.06 257.93L318.05 257.94L318.03 257.95L318.02 257.96L318 257.97L317.99 257.98L317.97 257.99L317.96 257.99L317.95 258L317.94 258L317.93 258.01L317.92 258.01L317.51 258.14L317.12 258.3L316.74 258.47L316.37 258.66L316.02 258.87L315.68 259.1L315.35 259.34L315.04 259.6L314.74 259.88L314.45 260.17L314.19 260.48L313.93 260.8L313.69 261.14L313.47 261.49L313.26 261.85L313.07 262.23L312.9 262.62L312.74 263.02L312.6 263.43L312.48 263.85L312.38 264.29L312.29 264.73L312.22 265.19L312.17 265.65L312.14 266.12L312.14 266.6L312.15 267.19L312.19 267.76L312.27 268.3L312.36 268.82L312.49 269.31L312.64 269.79L312.81 270.24L313.01 270.67L313.22 271.09L313.46 271.48L313.72 271.86L313.99 272.22L314.29 272.57L314.6 272.9L314.92 273.22L315.26 273.52L315.61 273.81L315.97 274.08L316.35 274.35L316.73 274.6L317.12 274.85L317.52 275.09L317.93 275.31L318.34 275.53L318.76 275.75L319.18 275.95L319.51 276.12L319.83 276.29L320.13 276.46L320.41 276.63L320.68 276.8L320.94 276.98L321.18 277.15L321.41 277.33L321.62 277.51L321.82 277.69L322.01 277.87L322.18 278.06L322.34 278.25L322.49 278.44L322.62 278.63L322.74 278.83L322.85 279.04L322.95 279.24L323.03 279.46L323.1 279.67L323.16 279.89L323.21 280.12L323.25 280.35L323.28 280.58L323.3 280.83L323.3 281.07L323.29 281.34L323.27 281.61L323.23 281.86L323.18 282.11L323.12 282.35L323.04 282.59L322.95 282.81L322.85 283.03L322.73 283.24L322.61 283.44L322.47 283.63L322.31 283.8L322.15 283.97L321.98 284.13L321.8 284.28L321.6 284.42L321.4 284.54L321.19 284.65L320.97 284.75L320.74 284.84L320.5 284.92L320.25 284.98L320 285.03L319.74 285.07L319.47 285.09L319.19 285.1L318.95 285.09L318.7 285.07L318.45 285.03L318.2 284.99L317.94 284.93L317.68 284.87L317.43 284.8L317.18 284.72L316.93 284.63L316.68 284.54L316.44 284.45L316.2 284.36L315.98 284.26L315.76 284.16L315.55 284.07L315.36 283.97L315.18 283.88L315.01 283.8L314.85 283.72L314.72 283.64L314.6 283.58L314.49 283.52L314.41 283.48L314.35 283.44L314.31 283.42L314.3 283.41L314.28 283.4L314.26 283.39L314.23 283.37L314.21 283.36L314.19 283.35L314.17 283.34L314.15 283.33L314.13 283.33L314.11 283.32L314.09 283.31L314.06 283.3L314.04 283.29L314.02 283.29L314 283.28L313.98 283.28L313.96 283.27L313.93 283.27L313.91 283.26L313.89 283.26L313.87 283.26L313.85 283.25L313.82 283.25L313.8 283.25L313.78 283.25L313.76 283.25L313.73 283.25L313.67 283.25L313.61 283.25L313.55 283.26L313.49 283.28L313.44 283.29L313.38 283.31L313.32 283.33L313.27 283.36L313.21 283.39L313.16 283.42L313.11 283.45L313.06 283.49L313.01 283.53L312.97 283.57L312.92 283.62L312.88 283.67L312.84 283.72L312.8 283.78L312.76 283.83L312.72 283.89L312.69 283.95L312.66 284.02L312.63 284.08L312.6 284.15L312.57 284.22L312.55 284.29L311.94 286.41L311.91 286.5L311.9 286.59L311.88 286.68L311.87 286.77L311.87 286.85L311.87 286.93L311.87 287.02L311.88 287.09L311.89 287.17L311.91 287.25L311.92 287.32L311.94 287.39L311.97 287.46L312 287.53L312.02 287.59L312.06 287.66L312.09 287.72L312.13 287.77L312.17 287.83L312.21 287.88L312.25 287.93L312.3 287.98L312.34 288.02L312.39 288.06L312.44 288.1L312.49 288.13L312.69 288.26L312.91 288.39L313.14 288.51L313.38 288.62L313.62 288.74L313.87 288.84L314.13 288.95L314.39 289.05L314.65 289.14L314.91 289.23L315.17 289.31L315.42 289.39L315.67 289.47L315.91 289.54L316.15 289.6L316.37 289.66L316.58 289.72L316.78 289.77L316.96 289.81L317.13 289.85L317.27 289.88L317.4 289.91L317.51 289.93L317.59 289.95L317.65 289.96L317.68 289.97L317.68 289.97L317.69 289.97L317.7 289.97L317.71 289.98L317.71 289.98L317.73 289.99L317.74 289.99L317.75 290L317.76 290.01L317.77 290.02L317.79 290.03L317.8 290.04L317.81 290.05L317.83 290.06L317.84 290.08L317.85 290.09L317.86 290.11L317.87 290.12L317.88 290.14L317.89 290.16L317.9 290.18L317.91 290.2L317.91 290.23L317.92 290.25L317.92 290.28L317.92 290.3L317.92 293.49L317.92 293.59L317.93 293.69L317.94 293.79L317.96 293.89L317.98 293.99L318.01 294.09L318.04 294.18L318.08 294.27L318.12 294.35L318.16 294.43L318.21 294.51L318.26 294.59L318.31 294.66L318.37 294.73L318.43 294.79L318.49 294.85L318.56 294.9L318.63 294.95L318.7 295L318.77 295.03L318.85 295.07L318.93 295.1L319.01 295.12L319.09 295.13L319.17 295.14L319.26 295.15L320.45 295.15L320.53 295.14L320.62 295.13L320.7 295.12L320.78 295.1L320.86 295.07L320.93 295.03L321.01 295L321.08 294.95L321.15 294.9L321.21 294.85L321.28 294.79L321.34 294.73L321.39 294.66L321.45 294.59L321.5 294.51L321.55 294.43L321.59 294.35L321.63 294.27L321.67 294.18L321.7 294.09L321.72 293.99L321.75 293.89L321.76 293.79L321.78 293.69L321.78 293.59L321.79 293.49L321.79 290.14L321.79 290.1L321.79 290.07L321.79 290.04L321.8 290.01L321.8 289.99L321.81 289.96L321.82 289.94L321.83 289.92L321.84 289.9L321.85 289.89L321.86 289.87L321.87 289.86L321.88 289.85L321.89 289.84L321.91 289.83L321.92 289.82L321.93 289.81L321.94 289.81L321.95 289.8L321.96 289.8L321.97 289.79L321.98 289.79L321.99 289.79L322.01 289.78L322.44 289.65L322.85 289.49L323.26 289.31L323.65 289.12L324.03 288.9L324.39 288.66L324.73 288.41L325.07 288.13L325.38 287.84L325.68 287.53L325.97 287.21L326.24 286.87L326.49 286.51L326.73 286.14L326.95 285.76L327.15 285.36L327.33 284.95L327.49 284.52L327.64 284.08L327.77 283.64L327.88 283.18L327.97 282.71L328.04 282.22L328.09 281.73L328.12 281.24L328.13 280.73L328.12 280.21L328.1 279.7L328.05 279.21L327.99 278.73L327.91 278.27L327.81 277.82L327.69 277.38L327.55 276.95L327.39 276.53L327.21 276.13L327.01 275.73L326.8 275.35L326.56 274.97L326.3 274.61L326.02 274.25L325.72 273.91L325.39 273.57L325.05 273.24L324.68 272.92L324.3 272.61L323.89 272.31L323.45 272.01L323 271.72L322.52 271.43L322.02 271.15L321.49 270.88L321.09 270.68L320.72 270.48L320.36 270.28L320.03 270.09L319.72 269.91L319.42 269.72L319.15 269.55L318.89 269.37L318.66 269.19L318.44 269.02L318.24 268.85L318.05 268.68L317.88 268.51L317.73 268.33L317.59 268.16L317.47 267.98L317.36 267.81L317.26 267.62L317.18 267.44L317.11 267.25L317.05 267.06L317.01 266.86L316.97 266.66L316.95 266.45L316.93 266.23L316.93 266.01L316.93 265.82L316.94 265.64L316.97 265.45L317 265.26L317.04 265.08L317.09 264.89L317.15 264.71L317.22 264.53L317.3 264.36L317.39 264.18L317.49 264.02L317.6 263.85L317.73 263.7L317.86 263.55L318.01 263.41L318.17 263.28L318.35 263.15L318.53 263.04L318.73 262.94L318.95 262.85L319.17 262.77L319.41 262.7L319.67 262.65L319.93 262.61L320.22 262.59L320.52 262.58L320.78 262.58L321.05 262.6L321.3 262.62L321.55 262.65L321.8 262.69L322.04 262.74L322.27 262.79L322.49 262.84L322.7 262.9L322.91 262.97L323.1 263.03L323.29 263.1L323.47 263.17L323.63 263.24L323.79 263.3L323.93 263.37L324.07 263.43L324.19 263.49L324.3 263.55L324.39 263.6L324.47 263.65L324.54 263.69L324.6 263.72L324.64 263.74L324.66 263.76L324.67 263.77L324.69 263.78L324.72 263.79L324.74 263.81L324.76 263.82L324.78 263.83L324.81 263.85L324.83 263.86L324.85 263.87L324.88 263.88L324.9 263.89L324.92 263.9L324.95 263.91L324.97 263.91L324.99 263.92L325.02 263.93L325.04 263.93L325.07 263.94L325.09 263.94L325.11 263.95L325.14 263.95L325.16 263.96L325.19 263.96L325.21 263.96L325.23 263.96L325.26 263.96L325.28 263.96L325.34 263.96L325.4 263.96L325.46 263.95L325.51 263.94L325.57 263.92L325.63 263.9L325.68 263.88L325.73 263.86L325.79 263.83L325.84 263.8L325.89 263.76L325.93 263.73L325.98 263.69L326.03 263.65L326.07 263.6L326.11 263.56L326.15 263.51L326.19 263.45L326.23 263.4L326.27 263.34L326.3 263.28L326.33 263.22L326.36 263.16L326.39 263.09L326.41 263.03L326.44 262.96L327.08 260.86L327.1 260.77L327.12 260.69L327.14 260.6L327.15 260.52L327.15 260.43L327.15 260.35L327.15 260.27L327.14 260.19L327.13 260.12L327.12 260.04L327.1 259.97L327.08 259.9L327.05 259.83L327.03 259.76L327 259.7L326.96 259.64L326.93 259.58L326.89 259.52L326.85 259.47L326.81 259.42L326.77 259.37L326.72 259.33L326.68 259.29L326.63 259.25L326.58 259.22L326.53 259.19L326.36 259.1L326.18 259.01L325.98 258.92L325.78 258.84L325.58 258.75L325.36 258.67L325.15 258.59L324.93 258.52L324.71 258.44L324.49 258.37L324.28 258.31L324.06 258.24L323.86 258.18L323.65 258.12L323.46 258.07L323.27 258.02L323.1 257.98L322.94 257.93L322.79 257.9L322.65 257.86L322.54 257.84L322.44 257.81L322.36 257.79L322.29 257.78L322.26 257.77L322.24 257.77L322.23 257.77L322.23 257.76L322.22 257.76L322.21 257.76L322.2 257.76L322.19 257.75L322.18 257.75L322.17 257.74L322.16 257.74L322.15 257.73L322.14 257.72L322.13 257.72L322.12 257.71L322.11 257.7L322.1 257.69L322.09 257.67L322.08 257.66L322.07 257.65L322.07 257.63L322.06 257.61L322.05 257.59L322.05 257.57L322.04 257.55L322.04 257.53L322.04 257.5L322.04 257.48L322.03 254.44L322.03 254.33L322.02 254.23L322 254.13L321.99 254.03L321.96 253.93L321.94 253.84L321.91 253.75L321.87 253.66L321.83 253.57L321.79 253.49L321.74 253.41L321.69 253.34L321.64 253.26L321.58 253.2L321.52 253.13L321.45 253.07L321.39 253.02L321.32 252.97L321.25 252.93L321.17 252.89L321.1 252.86L321.02 252.83L320.94 252.81L320.86 252.79L320.77 252.78L320.69 252.78L319.54 252.78L319.45 252.78Z" id="c4KwTYnDl8"></path><path d="M346.77 170.03L347.12 170.07L347.45 170.12L347.77 170.18L348.08 170.26L348.37 170.35L348.64 170.46L348.9 170.58L349.15 170.71L349.38 170.85L349.6 171.01L349.81 171.17L349.99 171.35L350.17 171.54L350.33 171.74L350.47 171.95L350.6 172.17L350.71 172.4L350.81 172.64L350.89 172.89L350.95 173.14L351 173.41L351.04 173.68L351.05 173.97L351.06 174.26L351.04 174.56L351.01 174.86L350.96 175.17L350.9 175.49L350.82 175.82L350.72 176.15L350.6 176.49L350.47 176.83L350.32 177.18L350.16 177.53L349.97 177.88L349.77 178.25L349.55 178.61L349.32 178.98L335.77 199.43L335.69 199.53L335.62 199.64L335.55 199.74L335.49 199.84L335.44 199.93L335.4 200.03L335.36 200.12L335.33 200.21L335.31 200.3L335.29 200.39L335.28 200.47L335.28 200.56L335.28 200.64L335.28 200.72L335.29 200.79L335.31 200.87L335.33 200.94L335.35 201.01L335.38 201.08L335.41 201.14L335.44 201.21L335.48 201.27L335.52 201.33L335.56 201.39L335.6 201.44L335.65 201.5L335.69 201.55L335.74 201.6L335.79 201.65L335.84 201.69L335.89 201.74L335.94 201.78L335.99 201.82L336.04 201.86L336.09 201.9L336.13 201.93L336.18 201.97L336.22 202L336.27 202.03L336.31 202.05L338.05 203.28L339.76 204.62L341.45 206.07L343.12 207.62L344.75 209.27L346.36 211.01L347.93 212.84L349.48 214.75L350.99 216.75L352.47 218.82L353.92 220.97L355.33 223.18L356.71 225.47L358.05 227.81L359.35 230.21L360.62 232.66L361.84 235.16L363.02 237.7L364.16 240.28L365.26 242.9L366.32 245.56L367.33 248.24L368.29 250.94L369.21 253.66L370.08 256.4L370.9 259.15L371.67 261.91L372.39 264.67L373.05 267.42L373.67 270.18L374.23 272.92L374.74 275.65L375.19 278.37L375.58 281.06L375.92 283.72L376.2 286.36L376.41 288.96L376.57 291.52L376.66 294.04L376.7 296.52L376.65 299.46L376.51 302.31L376.28 305.06L375.95 307.71L375.54 310.27L375.05 312.74L374.47 315.11L373.8 317.4L373.06 319.59L372.24 321.7L371.34 323.72L370.37 325.66L369.32 327.51L368.2 329.28L367.01 330.97L365.76 332.58L364.43 334.1L363.05 335.55L361.6 336.92L360.09 338.22L358.52 339.44L356.9 340.58L355.22 341.66L353.48 342.66L351.7 343.6L349.86 344.46L347.98 345.26L346.05 345.99L344.08 346.65L342.07 347.25L340.01 347.79L337.92 348.27L335.79 348.68L333.62 349.04L331.43 349.34L329.2 349.58L326.94 349.77L324.65 349.9L322.34 349.97L320 350L317.66 349.97L315.35 349.9L313.06 349.77L310.8 349.58L308.57 349.34L306.38 349.04L304.21 348.68L302.08 348.27L299.99 347.79L297.93 347.25L295.92 346.65L293.95 345.99L292.02 345.26L290.14 344.46L288.3 343.6L286.52 342.66L284.78 341.66L283.1 340.58L281.48 339.44L279.91 338.22L278.4 336.92L276.95 335.55L275.57 334.1L274.24 332.58L272.99 330.97L271.8 329.28L270.68 327.51L269.63 325.66L268.66 323.72L267.76 321.7L266.94 319.59L266.2 317.4L265.53 315.11L264.95 312.74L264.46 310.27L264.05 307.71L263.72 305.06L263.49 302.31L263.35 299.46L263.3 296.52L263.34 294.06L263.43 291.56L263.58 289.01L263.8 286.43L264.07 283.81L264.4 281.17L264.79 278.5L265.24 275.8L265.74 273.09L266.29 270.37L266.9 267.63L267.56 264.89L268.27 262.15L269.03 259.41L269.84 256.68L270.7 253.96L271.6 251.26L272.55 248.57L273.55 245.9L274.59 243.27L275.68 240.66L276.8 238.09L277.97 235.55L279.18 233.07L280.43 230.62L281.71 228.23L283.04 225.89L284.4 223.62L285.79 221.4L287.23 219.26L288.69 217.18L290.19 215.18L291.71 213.26L293.27 211.42L294.86 209.67L296.48 208.02L298.12 206.45L299.79 204.99L301.49 203.63L303.21 202.38L303.27 202.34L303.32 202.31L303.38 202.27L303.45 202.23L303.51 202.19L303.58 202.15L303.65 202.1L303.72 202.06L303.79 202.01L303.86 201.97L303.93 201.92L304.01 201.87L304.08 201.82L304.15 201.76L304.22 201.71L304.29 201.66L304.35 201.6L304.42 201.54L304.48 201.48L304.54 201.42L304.59 201.36L304.65 201.3L304.69 201.23L304.74 201.17L304.78 201.1L304.81 201.03L304.84 200.96L304.86 200.89L304.88 200.81L304.89 200.74L304.89 200.66L304.88 200.59L304.87 200.51L304.85 200.42L304.82 200.34L304.79 200.26L304.74 200.17L304.68 200.08L304.62 199.99L304.54 199.9L290.68 178.98L290.45 178.61L290.23 178.25L290.03 177.88L289.84 177.53L289.68 177.18L289.53 176.83L289.4 176.49L289.28 176.15L289.18 175.82L289.1 175.49L289.04 175.17L288.99 174.86L288.96 174.56L288.94 174.26L288.95 173.97L288.96 173.68L289 173.41L289.05 173.14L289.11 172.89L289.19 172.64L289.29 172.4L289.4 172.17L289.53 171.95L289.67 171.74L289.83 171.54L290.01 171.35L290.19 171.17L290.4 171.01L290.62 170.85L290.85 170.71L291.1 170.58L291.36 170.46L291.63 170.35L291.92 170.26L292.23 170.18L292.55 170.12L292.88 170.07L293.23 170.03L293.59 170.01L293.96 170L346.04 170L346.41 170.01L346.77 170.03ZM317.43 234.17L316.17 234.34L314.92 234.56L313.68 234.85L312.47 235.2L311.27 235.61L310.09 236.08L308.94 236.6L307.8 237.18L306.69 237.81L305.6 238.5L304.53 239.23L303.49 240.02L302.48 240.86L301.49 241.74L300.53 242.68L299.61 243.65L298.71 244.67L297.84 245.73L297.01 246.84L296.21 247.98L295.44 249.17L294.71 250.39L294.01 251.64L293.36 252.93L292.74 254.26L292.16 255.62L291.62 257L291.13 258.42L290.67 259.87L290.26 261.34L289.89 262.84L289.57 264.37L289.3 265.92L289.07 267.49L288.89 269.08L288.77 270.69L288.69 272.32L288.66 273.96L288.69 275.61L288.77 277.24L288.89 278.85L289.07 280.44L289.3 282.01L289.57 283.55L289.89 285.08L290.26 286.58L290.67 288.05L291.13 289.5L291.62 290.92L292.16 292.31L292.74 293.66L293.36 294.99L294.01 296.28L294.71 297.54L295.44 298.76L296.21 299.94L297.01 301.09L297.84 302.19L298.71 303.25L299.61 304.27L300.53 305.25L301.49 306.18L302.48 307.06L303.49 307.9L304.53 308.69L305.6 309.43L306.69 310.11L307.8 310.74L308.94 311.32L310.09 311.85L311.27 312.31L312.47 312.72L313.68 313.07L314.92 313.36L316.17 313.59L317.43 313.75L318.71 313.85L320 313.88L321.29 313.85L322.57 313.75L323.83 313.59L325.08 313.36L326.32 313.07L327.53 312.72L328.73 312.31L329.9 311.85L331.06 311.32L332.2 310.74L333.31 310.11L334.4 309.43L335.47 308.69L336.51 307.9L337.52 307.06L338.51 306.18L339.47 305.25L340.39 304.27L341.29 303.25L342.16 302.19L342.99 301.09L343.79 299.94L344.56 298.76L345.29 297.54L345.98 296.28L346.64 294.99L347.26 293.66L347.84 292.31L348.38 290.92L348.87 289.5L349.33 288.05L349.74 286.58L350.11 285.08L350.43 283.55L350.7 282.01L350.93 280.44L351.1 278.85L351.23 277.24L351.31 275.61L351.34 273.96L351.31 272.32L351.23 270.69L351.1 269.08L350.93 267.49L350.7 265.92L350.43 264.37L350.11 262.84L349.74 261.34L349.33 259.87L348.87 258.42L348.38 257L347.84 255.62L347.26 254.26L346.64 252.93L345.98 251.64L345.29 250.39L344.56 249.17L343.79 247.98L342.99 246.84L342.16 245.73L341.29 244.67L340.39 243.65L339.46 242.67L338.51 241.74L337.52 240.86L336.51 240.02L335.47 239.23L334.4 238.5L333.31 237.81L332.2 237.18L331.06 236.6L329.9 236.08L328.73 235.61L327.53 235.2L326.32 234.85L325.08 234.56L323.83 234.34L322.57 234.17L321.29 234.07L320 234.04L318.71 234.07L317.43 234.17Z" id="d3l9CI6VE6"></path></defs><g><g><path></path><path></path><g><use xlink:href="#j3ITXVGPvM" opacity="1" fill="#475eaa" fill-opacity="1"></use><g><use xlink:href="#j3ITXVGPvM" opacity="1" fill-opacity="0" stroke="#000000" stroke-width="1" stroke-opacity="0"></use></g></g><g><use xlink:href="#c4KwTYnDl8" opacity="1" fill="#000000" fill-opacity="1"></use><g><use xlink:href="#c4KwTYnDl8" opacity="1" fill-opacity="0" stroke="#000000" stroke-width="1" stroke-opacity="0"></use></g></g><g><use xlink:href="#d3l9CI6VE6" opacity="1" fill="#fccb28" fill-opacity="1"></use><g><use xlink:href="#d3l9CI6VE6" opacity="1" fill-opacity="0" stroke="#000000" stroke-width="1" stroke-opacity="0"></use></g></g></g></g></svg>