<?xml version="1.0" encoding="UTF-8" standalone="no"?>
<!DOCTYPE svg PUBLIC "-//W3C//DTD SVG 1.1//EN" "http://www.w3.org/Graphics/SVG/1.1/DTD/svg11.dtd">
<svg version="1.1" xmlns="http://www.w3.org/2000/svg" xmlns:xlink="http://www.w3.org/1999/xlink" preserveAspectRatio="xMidYMid meet" viewBox="0 0 640 640" width="640" height="640"><defs><path d="M139.25 327.84C135.28 309.33 103.46 161.27 99.48 142.76C97.04 133.02 103.54 124.09 113.28 121.66C123.02 119.22 131.95 125.72 134.38 135.46C138.36 153.97 170.18 302.03 174.16 320.53C175.78 330.27 170.1 339.2 160.36 341.64C158.74 341.64 157.92 341.64 156.3 341.64C148.18 341.64 140.88 335.96 139.25 327.84Z" id="d33uLBAYOM"></path><path d="M289.42 341.64C279.68 339.2 274 330.27 275.62 320.53C279.6 302.03 311.42 153.97 315.4 135.46C317.83 125.72 326.76 120.03 336.5 121.66C346.25 124.09 351.93 133.02 350.3 142.76C346.33 161.27 314.51 309.33 310.53 327.84C308.91 335.96 301.6 341.64 293.48 341.64C291.86 341.64 291.05 341.64 289.42 341.64Z" id="a4DXc0xc3w"></path><path d="M209.87 320.53C209.87 302.03 209.87 153.97 209.87 135.46C209.87 125.72 216.37 125.72 226.11 125.72C235.85 125.72 242.34 125.72 242.34 135.46C242.34 153.97 242.34 302.03 242.34 320.53C242.34 330.27 235.85 338.39 226.11 338.39C216.37 338.39 209.87 330.27 209.87 320.53Z" id="bgJauqi2g"></path><path d="M421.78 120.05L422.2 120.06L422.63 120.08L423.05 120.11L423.47 120.15L423.89 120.19L424.31 120.24L424.73 120.29L425.15 120.35L425.56 120.42L425.97 120.5L426.38 120.58L426.79 120.67L427.19 120.76L427.59 120.87L427.98 120.98L428.37 121.1L428.76 121.22L429.14 121.35L429.52 121.49L429.9 121.64L430.26 121.8L430.63 121.96L430.98 122.14L431.34 122.32L431.68 122.5L432.02 122.7L432.36 122.9L432.68 123.12L433 123.34L433.31 123.57L433.62 123.81L433.92 124.05L434.21 124.31L434.49 124.57L434.77 124.84L435.03 125.13L435.29 125.42L435.54 125.72L435.7 125.96L435.85 126.22L436 126.47L436.14 126.74L436.28 127.01L436.42 127.29L436.55 127.57L436.67 127.86L436.79 128.16L436.91 128.46L437.01 128.76L437.12 129.08L437.22 129.4L437.31 129.72L437.4 130.05L437.48 130.39L437.56 130.74L437.64 131.09L437.7 131.44L437.77 131.8L437.83 132.17L437.88 132.55L437.93 132.93L437.97 133.31L438.01 133.71L438.04 134.11L438.07 134.51L438.09 134.92L438.11 135.34L438.12 135.76L438.13 136.19L438.13 136.63L438.13 137.07L438.12 137.52L438.11 137.97L438.09 138.43L438.07 138.89L438.04 139.37L438.01 139.84L437.97 140.33L398.2 270.21L398.14 270.39L398.08 270.57L398.03 270.75L397.97 270.94L397.93 271.12L397.88 271.3L397.83 271.48L397.79 271.67L397.74 271.85L397.7 272.03L397.66 272.21L397.62 272.4L397.58 272.58L397.54 272.76L397.5 272.94L397.46 273.13L397.41 273.31L397.37 273.49L397.33 273.68L397.28 273.86L397.24 274.04L397.19 274.22L397.14 274.41L397.09 274.59L397.03 274.77L396.97 274.95L396.91 275.14L396.85 275.32L396.78 275.5L396.71 275.68L396.64 275.87L396.56 276.05L396.48 276.23L396.39 276.42L396.3 276.6L396.2 276.78L396.1 276.96L395.99 277.15L395.88 277.33L395.76 277.51L377.9 334.33L377.71 334.88L377.51 335.42L377.29 335.95L377.05 336.47L376.8 336.99L376.54 337.5L376.26 338L375.97 338.49L375.67 338.97L375.35 339.44L375.02 339.91L374.68 340.36L374.33 340.8L373.96 341.23L373.58 341.65L373.19 342.06L372.79 342.46L372.37 342.84L371.95 343.21L371.51 343.57L371.06 343.91L370.61 344.24L370.14 344.55L369.66 344.85L369.18 345.14L368.68 345.41L368.17 345.66L367.66 345.9L367.13 346.12L366.6 346.32L366.06 346.5L365.51 346.67L364.96 346.82L364.39 346.95L363.82 347.06L363.24 347.15L362.65 347.23L362.06 347.28L361.46 347.31L360.86 347.32L88.93 347.32L88.32 347.31L87.72 347.28L87.13 347.23L86.54 347.15L85.96 347.06L85.39 346.95L84.83 346.82L84.27 346.67L83.72 346.5L83.18 346.32L82.65 346.12L82.12 345.9L81.61 345.66L81.1 345.41L80.61 345.14L80.12 344.85L79.64 344.55L79.18 344.24L78.72 343.91L78.27 343.57L77.84 343.21L77.41 342.84L77 342.46L76.59 342.06L76.2 341.65L75.82 341.23L75.46 340.8L75.1 340.36L74.76 339.91L74.43 339.44L74.11 338.97L73.81 338.49L73.52 338L73.24 337.5L72.98 336.99L72.73 336.47L72.5 335.95L72.28 335.42L72.07 334.88L71.88 334.33L11.81 141.14L11.69 140.72L11.59 140.29L11.49 139.87L11.4 139.46L11.32 139.05L11.25 138.64L11.18 138.23L11.13 137.82L11.09 137.42L11.05 137.02L11.02 136.62L11.01 136.22L11 135.83L11 135.44L11.01 135.05L11.03 134.66L11.06 134.27L11.1 133.89L11.15 133.51L11.2 133.12L11.27 132.74L11.34 132.37L11.43 131.99L11.52 131.61L11.62 131.24L11.73 130.87L11.85 130.49L11.98 130.12L12.12 129.75L12.27 129.38L12.43 129.01L12.59 128.65L12.77 128.28L12.95 127.91L13.14 127.54L13.35 127.18L13.56 126.81L13.78 126.45L14.01 126.08L14.25 125.72L14.55 125.42L14.86 125.13L15.17 124.84L15.49 124.57L15.81 124.31L16.13 124.05L16.45 123.81L16.78 123.57L17.11 123.34L17.44 123.12L17.78 122.9L18.12 122.7L18.46 122.5L18.81 122.32L19.16 122.14L19.51 121.96L19.86 121.8L20.22 121.64L20.58 121.49L20.94 121.35L21.31 121.22L21.68 121.1L22.05 120.98L22.43 120.87L22.81 120.76L23.19 120.67L23.58 120.58L23.96 120.5L24.35 120.42L24.75 120.35L25.15 120.29L25.55 120.24L25.95 120.19L26.36 120.15L26.77 120.11L27.18 120.08L27.59 120.06L28.01 120.05L28.43 120.04L28.86 120.03L420.92 120.03L421.35 120.04L421.78 120.05ZM101.91 314.85L347.87 314.85L355.99 282.38L94.61 282.38L101.91 314.85ZM83.24 249.91L366.54 249.91L376.28 217.44L73.5 217.44L83.24 249.91ZM62.14 184.97L387.64 184.97L397.38 152.5L52.4 152.5L62.14 184.97Z" id="ae7VvMVs9"></path><path d="M421.78 128.16L422.2 128.18L422.63 128.2L423.05 128.23L423.47 128.26L423.89 128.31L424.31 128.35L424.73 128.41L425.15 128.47L425.56 128.54L425.97 128.61L426.38 128.69L426.79 128.78L427.19 128.88L427.59 128.98L427.98 129.09L428.37 129.21L428.76 129.34L429.14 129.47L429.52 129.61L429.9 129.76L430.26 129.92L430.63 130.08L430.98 130.25L431.34 130.43L431.68 130.62L432.02 130.82L432.36 131.02L432.68 131.23L433 131.46L433.31 131.68L433.62 131.92L433.92 132.17L434.21 132.42L434.49 132.69L434.77 132.96L435.03 133.24L435.29 133.53L435.54 133.83L435.66 133.95L435.77 134.07L435.89 134.19L436 134.3L436.11 134.41L436.21 134.52L436.32 134.63L436.42 134.73L436.52 134.83L436.61 134.94L436.71 135.04L436.8 135.14L436.89 135.24L436.98 135.35L437.06 135.45L437.15 135.55L437.23 135.65L437.31 135.75L437.39 135.86L437.46 135.97L437.54 136.07L437.61 136.18L437.69 136.29L437.76 136.41L437.83 136.52L437.9 136.64L437.96 136.76L438.03 136.89L438.1 137.01L438.16 137.14L438.23 137.28L438.29 137.42L438.35 137.56L438.41 137.71L438.48 137.86L438.54 138.02L438.6 138.18L438.66 138.35L438.72 138.53L438.78 138.7L438.78 140.33L398.2 270.21L398.14 270.39L398.08 270.57L398.03 270.75L397.97 270.94L397.93 271.12L397.88 271.3L397.83 271.48L397.79 271.67L397.74 271.85L397.7 272.03L397.66 272.21L397.62 272.4L397.58 272.58L397.54 272.76L397.5 272.94L397.46 273.13L397.41 273.31L397.37 273.49L397.33 273.68L397.28 273.86L397.24 274.04L397.19 274.22L397.14 274.41L397.09 274.59L397.03 274.77L396.97 274.95L396.91 275.14L396.85 275.32L396.78 275.5L396.71 275.68L396.64 275.87L396.56 276.05L396.48 276.23L396.39 276.42L396.3 276.6L396.2 276.78L396.1 276.96L395.99 277.15L395.88 277.33L395.76 277.51L377.9 334.33L377.71 334.88L377.51 335.42L377.29 335.95L377.05 336.47L376.8 336.99L376.54 337.5L376.26 338L375.97 338.49L375.67 338.97L375.35 339.44L375.02 339.91L374.68 340.36L374.33 340.8L373.96 341.23L373.58 341.65L373.19 342.06L372.79 342.46L372.37 342.84L371.95 343.21L371.51 343.57L371.06 343.91L370.61 344.24L370.14 344.55L369.66 344.85L369.18 345.14L368.68 345.41L368.17 345.66L367.66 345.9L367.13 346.12L366.6 346.32L366.06 346.5L365.51 346.67L364.96 346.82L364.39 346.95L363.82 347.06L363.24 347.15L362.65 347.23L362.06 347.28L361.46 347.31L360.86 347.32L88.93 347.32L88.32 347.31L87.72 347.28L87.13 347.23L86.54 347.15L85.96 347.06L85.39 346.95L84.83 346.82L84.27 346.67L83.72 346.5L83.18 346.32L82.65 346.12L82.12 345.9L81.61 345.66L81.1 345.41L80.61 345.14L80.12 344.85L79.64 344.55L79.18 344.24L78.72 343.91L78.27 343.57L77.84 343.21L77.41 342.84L77 342.46L76.59 342.06L76.2 341.65L75.82 341.23L75.46 340.8L75.1 340.36L74.76 339.91L74.43 339.44L74.11 338.97L73.81 338.49L73.52 338L73.24 337.5L72.98 336.99L72.73 336.47L72.5 335.95L72.28 335.42L72.07 334.88L71.88 334.33L11 140.33L11 139.52L11.06 139.34L11.12 139.16L11.18 138.98L11.24 138.81L11.31 138.64L11.37 138.47L11.43 138.31L11.49 138.15L11.56 137.99L11.62 137.83L11.69 137.67L11.75 137.52L11.82 137.37L11.89 137.22L11.96 137.08L12.03 136.93L12.1 136.79L12.17 136.65L12.24 136.51L12.32 136.37L12.4 136.23L12.47 136.1L12.55 135.97L12.64 135.83L12.72 135.7L12.81 135.57L12.89 135.45L12.98 135.32L13.07 135.19L13.17 135.06L13.27 134.94L13.36 134.81L13.46 134.69L13.57 134.57L13.67 134.44L13.78 134.32L13.9 134.2L14.01 134.08L14.13 133.96L14.25 133.83L14.55 133.53L14.86 133.24L15.17 132.96L15.49 132.69L15.81 132.42L16.13 132.17L16.45 131.92L16.78 131.68L17.11 131.46L17.44 131.23L17.78 131.02L18.12 130.82L18.46 130.62L18.81 130.43L19.16 130.25L19.51 130.08L19.86 129.92L20.22 129.76L20.58 129.61L20.94 129.47L21.31 129.34L21.68 129.21L22.05 129.09L22.43 128.98L22.81 128.88L23.19 128.78L23.58 128.69L23.96 128.61L24.35 128.54L24.75 128.47L25.15 128.41L25.55 128.35L25.95 128.31L26.36 128.26L26.77 128.23L27.18 128.2L27.59 128.18L28.01 128.16L28.43 128.16L28.86 128.15L420.92 128.15L421.35 128.16L421.78 128.16ZM96.23 290.5L94.61 290.5L101.91 322.97L347.87 322.97L355.99 290.5L354.36 290.5L355.99 282.38L94.61 282.38L96.23 290.5ZM75.94 225.56L73.5 225.56L83.24 258.03L366.54 258.03L376.28 225.56L373.84 225.56L376.28 217.44L73.5 217.44L75.94 225.56ZM54.83 160.62L52.4 160.62L62.14 193.09L387.64 193.09L397.38 160.62L394.95 160.62L397.38 152.5L52.4 152.5L54.83 160.62Z" id="akji21gHp"></path><path d="M79.19 412.26C69.44 412.26 61.33 401.71 61.33 391.97C61.33 382.22 69.44 371.67 79.19 371.67C108.33 371.67 341.46 371.67 370.6 371.67C380.34 371.67 388.46 382.22 388.46 391.97C388.46 401.71 380.34 412.26 370.6 412.26C312.31 412.26 108.33 412.26 79.19 412.26Z" id="e3KiND2inO"></path><path d="M209.06 412.26C209.06 396.02 192.83 379.79 174.16 371.67C167.91 371.67 117.91 371.67 111.65 371.67C101.1 379.79 93.8 396.02 93.8 412.26C116.85 412.26 197.54 412.26 209.06 412.26Z" id="b1m50oJXdE"></path><path d="M138.44 456.9C114.09 456.9 94.61 434.18 94.61 409.82C94.61 385.47 114.09 365.99 138.44 365.99C162.79 365.18 182.28 385.47 182.28 409.82C182.28 434.18 162.79 456.9 138.44 456.9Z" id="amrKir51x"></path><path d="M138.44 453.66C114.09 453.66 94.61 434.18 94.61 409.82C94.61 385.47 114.09 361.93 138.44 361.93C162.79 361.93 182.28 385.47 182.28 409.82C182.28 434.18 162.79 453.66 138.44 453.66Z" id="c1APfoK5u5"></path><path d="M138.44 365.99C114.23 365.99 94.61 385.61 94.61 409.82C94.61 434.03 114.23 453.66 138.44 453.66C162.65 453.66 182.28 434.03 182.28 409.82C182.28 385.61 162.65 365.99 138.44 365.99Z" id="c18PyLhLoH"></path><path d="M106.78 378.17C123.83 361.12 152.24 361.12 169.29 378.17C186.33 395.21 186.33 423.62 169.29 440.67" id="cOvcENgnY"></path><path d="M112.47 409.82C112.47 395.21 123.83 383.85 138.44 383.85C153.05 383.85 164.42 395.21 164.42 409.82C164.42 424.43 152.24 435.8 138.44 435.8C123.83 435.8 112.47 424.43 112.47 409.82Z" id="aY27e8m"></path><path d="M156.3 391.15C166.85 401.71 166.85 417.94 156.3 428.49C145.75 439.05 129.51 439.05 118.96 428.49" id="apoZQ5jAg"></path><path d="M372.22 412.26C372.22 396.02 355.99 379.79 337.32 371.67C331.07 371.67 281.06 371.67 274.81 371.67C264.26 379.79 256.95 396.02 256.95 412.26C280.01 412.26 360.69 412.26 372.22 412.26Z" id="d2lB57uADy"></path><path d="M301.6 456.9C277.25 456.9 257.77 434.18 257.77 409.82C257.77 385.47 277.25 365.99 301.6 365.99C325.14 365.18 345.43 385.47 345.43 409.82C345.43 434.18 325.95 456.9 301.6 456.9Z" id="e1yQ0J7C3p"></path><path d="M301.6 453.66C277.25 453.66 257.77 434.18 257.77 409.82C257.77 385.47 277.25 361.93 301.6 361.93C325.14 361.93 345.43 385.47 345.43 409.82C345.43 434.18 325.95 453.66 301.6 453.66Z" id="c3xeZoT7kg"></path><path d="M300.79 365.99C276.58 365.99 256.95 385.61 256.95 409.82C256.95 434.03 276.58 453.66 300.79 453.66C325 453.66 344.62 434.03 344.62 409.82C344.62 385.61 325 365.99 300.79 365.99Z" id="a1Mo1FKtOb"></path><path d="M269.94 378.17C286.99 361.12 315.4 361.12 332.45 378.17C349.49 395.21 349.49 423.62 332.45 440.67" id="hYMadxf4l"></path><path d="M274.81 409.82C274.81 395.21 286.18 383.85 300.79 383.85C315.4 383.85 326.76 395.21 326.76 409.82C327.58 424.43 315.4 435.8 300.79 435.8C286.18 435.8 274.81 424.43 274.81 409.82Z" id="b2gPh4HJT"></path><path d="M319.46 391.15C330.01 401.71 330.01 417.94 319.46 428.49C308.91 439.05 292.67 439.05 282.12 428.49" id="c3fZj6KHFj"></path><path d="M502.1 87.57C494.79 87.57 436.35 87.57 429.04 87.57C420.11 87.57 412.81 80.26 412.81 71.33C412.81 71.33 412.81 71.33 412.81 71.33C412.81 62.4 420.11 55.1 429.04 55.1C436.35 55.1 494.79 55.1 502.1 55.1C511.03 55.1 518.33 62.4 518.33 71.33C518.33 71.33 518.33 71.33 518.33 71.33C513.46 82.15 508.05 87.57 502.1 87.57Z" id="jtQl5R9R"></path><path d="M413.62 67.27C416.05 74.58 423.36 79.45 431.48 79.45C438.7 79.45 496.5 79.45 503.72 79.45C511.84 79.45 515.9 74.58 518.33 67.27C515.09 59.97 510.22 55.1 502.1 55.1C497.23 55.1 472.88 55.1 429.04 55.1C420.38 58.34 415.24 62.4 413.62 67.27Z" id="b3t85tGKfI"></path><path d="M412 59.15C351.03 59.15 301.6 108.58 301.6 169.55C301.6 230.52 351.03 279.95 412 279.95C472.97 279.95 522.39 230.52 522.39 169.55C522.39 108.58 472.97 59.15 412 59.15Z" id="aOVILDRDI"></path><path d="M412 59.15C472.88 59.15 522.39 108.67 522.39 169.55C522.39 230.43 472.88 279.95 412 279.95" id="boPIatfuw"></path><path d="M334.07 91.62C377.09 48.6 446.9 48.6 490.73 91.62C533.76 134.65 533.76 204.46 490.73 248.29" id="baIUPpMKd"></path><path d="M420.92 108.45C420.92 115.83 420.92 174.93 420.92 182.31C420.92 186.37 416.87 188.81 412.81 188.81C408.75 188.81 404.69 185.56 404.69 182.31C404.69 174.93 404.69 115.83 404.69 108.45C404.69 104.39 408.75 101.14 412.81 101.14C416.87 101.14 420.92 104.39 420.92 108.45Z" id="b1ndIUcU9e"></path><path d="M412.81 216.68C407.88 216.68 403.88 220.68 403.88 225.61C403.88 230.54 407.88 234.54 412.81 234.54C417.74 234.54 421.74 230.54 421.74 225.61C421.74 220.68 417.74 216.68 412.81 216.68Z" id="a2FIs7P0v8"></path></defs><g><g><path></path><path></path><g><use xlink:href="#d33uLBAYOM" opacity="1" fill="#000000" fill-opacity="1"></use><g><use xlink:href="#d33uLBAYOM" opacity="1" fill-opacity="0" stroke="#000000" stroke-width="1" stroke-opacity="0"></use></g></g><g><use xlink:href="#a4DXc0xc3w" opacity="1" fill="#000000" fill-opacity="1"></use><g><use xlink:href="#a4DXc0xc3w" opacity="1" fill-opacity="0" stroke="#000000" stroke-width="1" stroke-opacity="0"></use></g></g><g><use xlink:href="#bgJauqi2g" opacity="1" fill="#000000" fill-opacity="1"></use><g><use xlink:href="#bgJauqi2g" opacity="1" fill-opacity="0" stroke="#000000" stroke-width="1" stroke-opacity="0"></use></g></g><g><use xlink:href="#ae7VvMVs9" opacity="1" fill="#18456d" fill-opacity="1"></use><g><use xlink:href="#ae7VvMVs9" opacity="1" fill-opacity="0" stroke="#000000" stroke-width="1" stroke-opacity="0"></use></g></g><g><use xlink:href="#akji21gHp" opacity="1" fill="#0b3249" fill-opacity="1"></use><g><use xlink:href="#akji21gHp" opacity="1" fill-opacity="0" stroke="#000000" stroke-width="1" stroke-opacity="0"></use></g></g><g><use xlink:href="#e3KiND2inO" opacity="1" fill="#0b3249" fill-opacity="1"></use><g><use xlink:href="#e3KiND2inO" opacity="1" fill-opacity="0" stroke="#000000" stroke-width="1" stroke-opacity="0"></use></g></g><g><use xlink:href="#b1m50oJXdE" opacity="1" fill="#000000" fill-opacity="1"></use><g><use xlink:href="#b1m50oJXdE" opacity="1" fill-opacity="0" stroke="#000000" stroke-width="1" stroke-opacity="0"></use></g></g><g><use xlink:href="#amrKir51x" opacity="1" fill="#0e3451" fill-opacity="1"></use><g><use xlink:href="#amrKir51x" opacity="1" fill-opacity="0" stroke="#000000" stroke-width="1" stroke-opacity="0"></use></g></g><g><use xlink:href="#c1APfoK5u5" opacity="1" fill="#2689c6" fill-opacity="1"></use><g><use xlink:href="#c1APfoK5u5" opacity="1" fill-opacity="0" stroke="#000000" stroke-width="1" stroke-opacity="0"></use></g></g><g><use xlink:href="#c18PyLhLoH" opacity="1" fill="#1b5a89" fill-opacity="1"></use><g><use xlink:href="#c18PyLhLoH" opacity="1" fill-opacity="0" stroke="#000000" stroke-width="1" stroke-opacity="0"></use></g></g><g><use xlink:href="#cOvcENgnY" opacity="1" fill="#18456d" fill-opacity="1"></use><g><use xlink:href="#cOvcENgnY" opacity="1" fill-opacity="0" stroke="#000000" stroke-width="1" stroke-opacity="0"></use></g></g><g><use xlink:href="#aY27e8m" opacity="1" fill="#0b3249" fill-opacity="1"></use><g><use xlink:href="#aY27e8m" opacity="1" fill-opacity="0" stroke="#000000" stroke-width="1" stroke-opacity="0"></use></g></g><g><use xlink:href="#apoZQ5jAg" opacity="1" fill="#000000" fill-opacity="1"></use><g><use xlink:href="#apoZQ5jAg" opacity="1" fill-opacity="0" stroke="#000000" stroke-width="1" stroke-opacity="0"></use></g></g><g><use xlink:href="#d2lB57uADy" opacity="1" fill="#000000" fill-opacity="1"></use><g><use xlink:href="#d2lB57uADy" opacity="1" fill-opacity="0" stroke="#000000" stroke-width="1" stroke-opacity="0"></use></g></g><g><use xlink:href="#e1yQ0J7C3p" opacity="1" fill="#0e3451" fill-opacity="1"></use><g><use xlink:href="#e1yQ0J7C3p" opacity="1" fill-opacity="0" stroke="#000000" stroke-width="1" stroke-opacity="0"></use></g></g><g><use xlink:href="#c3xeZoT7kg" opacity="1" fill="#2689c6" fill-opacity="1"></use><g><use xlink:href="#c3xeZoT7kg" opacity="1" fill-opacity="0" stroke="#000000" stroke-width="1" stroke-opacity="0"></use></g></g><g><use xlink:href="#a1Mo1FKtOb" opacity="1" fill="#1b5a89" fill-opacity="1"></use><g><use xlink:href="#a1Mo1FKtOb" opacity="1" fill-opacity="0" stroke="#000000" stroke-width="1" stroke-opacity="0"></use></g></g><g><use xlink:href="#hYMadxf4l" opacity="1" fill="#18456d" fill-opacity="1"></use><g><use xlink:href="#hYMadxf4l" opacity="1" fill-opacity="0" stroke="#000000" stroke-width="1" stroke-opacity="0"></use></g></g><g><use xlink:href="#b2gPh4HJT" opacity="1" fill="#0b3249" fill-opacity="1"></use><g><use xlink:href="#b2gPh4HJT" opacity="1" fill-opacity="0" stroke="#000000" stroke-width="1" stroke-opacity="0"></use></g></g><g><use xlink:href="#c3fZj6KHFj" opacity="1" fill="#000000" fill-opacity="1"></use><g><use xlink:href="#c3fZj6KHFj" opacity="1" fill-opacity="0" stroke="#000000" stroke-width="1" stroke-opacity="0"></use></g></g><g><use xlink:href="#jtQl5R9R" opacity="1" fill="#1b5a89" fill-opacity="1"></use><g><use xlink:href="#jtQl5R9R" opacity="1" fill-opacity="0" stroke="#000000" stroke-width="1" stroke-opacity="0"></use></g></g><g><use xlink:href="#b3t85tGKfI" opacity="1" fill="#18456d" fill-opacity="1"></use><g><use xlink:href="#b3t85tGKfI" opacity="1" fill-opacity="0" stroke="#000000" stroke-width="1" stroke-opacity="0"></use></g></g><g><use xlink:href="#aOVILDRDI" opacity="1" fill="#f2ab06" fill-opacity="1"></use><g><use xlink:href="#aOVILDRDI" opacity="1" fill-opacity="0" stroke="#000000" stroke-width="1" stroke-opacity="0"></use></g></g><g><use xlink:href="#boPIatfuw" opacity="1" fill="#ffb200" fill-opacity="1"></use><g><use xlink:href="#boPIatfuw" opacity="1" fill-opacity="0" stroke="#000000" stroke-width="1" stroke-opacity="0"></use></g></g><g><use xlink:href="#baIUPpMKd" opacity="1" fill="#f4af0e" fill-opacity="1"></use><g><use xlink:href="#baIUPpMKd" opacity="1" fill-opacity="0" stroke="#000000" stroke-width="1" stroke-opacity="0"></use></g></g><g><use xlink:href="#b1ndIUcU9e" opacity="1" fill="#ffffff" fill-opacity="1"></use><g><use xlink:href="#b1ndIUcU9e" opacity="1" fill-opacity="0" stroke="#000000" stroke-width="1" stroke-opacity="0"></use></g></g><g><use xlink:href="#a2FIs7P0v8" opacity="1" fill="#ffffff" fill-opacity="1"></use><g><use xlink:href="#a2FIs7P0v8" opacity="1" fill-opacity="0" stroke="#000000" stroke-width="1" stroke-opacity="0"></use></g></g></g></g></svg>