<?xml version="1.0"?>
<svg xmlns="http://www.w3.org/2000/svg" xmlns:xlink="http://www.w3.org/1999/xlink" version="1.1" id="Layer_1" x="0px" y="0px" viewBox="0 0 495 495" style="enable-background:new 0 0 495 495;" xml:space="preserve" width="512px" height="512px" class=""><g><g>
	<polygon style="fill:#FCFCFD" points="162.19,378.44 172.09,285.53 109.47,216.18 200.9,196.89 247.5,115.9 247.5,0 0,0 0,495    247.5,495 247.5,340.31  " data-original="#BDDBFF" class="" data-old_color="#BDDBFF"/>
	<polygon style="fill:#FCFCFD" points="247.5,0 247.5,115.9 294.1,196.89 385.53,216.18 322.91,285.53 332.81,378.44 247.5,340.31    247.5,495 495,495 495,0  " data-original="#9BC9FF" class="" data-old_color="#9BC9FF"/>
	<polygon style="fill:#2488FF" points="332.81,378.44 322.91,285.53 385.53,216.18 294.1,196.89 247.5,115.9 247.5,340.31  " data-original="#005ECE" class="active-path" data-old_color="#005ECE"/>
	<polygon style="fill:#2488FF" points="109.47,216.18 172.09,285.53 162.19,378.44 247.5,340.31 247.5,115.9 200.9,196.89  " data-original="#2488FF" class="" data-old_color="#005ECE"/>
</g></g> </svg>
