<?xml version="1.0" encoding="UTF-8" standalone="no"?>
<!DOCTYPE svg PUBLIC "-//W3C//DTD SVG 1.1//EN" "http://www.w3.org/Graphics/SVG/1.1/DTD/svg11.dtd">
<svg version="1.1" xmlns="http://www.w3.org/2000/svg" xmlns:xlink="http://www.w3.org/1999/xlink" preserveAspectRatio="xMidYMid meet" viewBox="0 0 640 640" width="640" height="640"><defs><path d="M203.59 249.72L217.05 255.04L222.19 255.04L222.19 265.69L213.87 265.69L200.41 260.36L181.8 260.36L181.8 271.01L134.69 271.01L134.69 169.88L181.8 169.88L181.8 249.72L203.59 249.72ZM148.15 260.37L168.34 260.37L168.34 180.53L148.15 180.53L148.15 260.37Z" id="f2TIoHsCo"></path><path d="M305.21 142.17L305.56 142.23L305.91 142.29L306.23 142.38L306.55 142.49L306.85 142.61L307.13 142.76L307.4 142.92L307.65 143.09L307.89 143.29L308.12 143.5L308.33 143.72L308.52 143.96L308.7 144.22L308.86 144.49L309.01 144.77L309.14 145.07L309.26 145.38L309.36 145.71L309.44 146.04L309.51 146.39L309.56 146.75L309.59 147.13L309.61 147.51L309.61 147.9L309.6 148.31L309.56 148.72L309.52 149.14L309.45 149.58L309.37 150.02L309.27 150.46L309.15 150.92L309.01 151.38L308.86 151.86L308.69 152.33L308.5 152.82L308.29 153.31L308.07 153.8L307.82 154.3L293.88 182L293.8 182.14L293.72 182.29L293.66 182.42L293.6 182.56L293.54 182.69L293.5 182.82L293.46 182.95L293.43 183.07L293.41 183.19L293.39 183.31L293.38 183.42L293.38 183.53L293.38 183.64L293.38 183.75L293.39 183.85L293.41 183.95L293.43 184.05L293.45 184.15L293.48 184.24L293.51 184.33L293.54 184.41L293.58 184.5L293.62 184.58L293.66 184.66L293.71 184.73L293.75 184.81L293.8 184.88L293.85 184.95L293.9 185.01L293.95 185.07L294 185.14L294.05 185.19L294.11 185.25L294.16 185.3L294.21 185.35L294.26 185.4L294.3 185.44L294.35 185.48L294.39 185.52L294.44 185.56L296.23 187.23L297.99 189.04L299.73 191L301.44 193.1L303.12 195.33L304.78 197.69L306.4 200.17L307.99 202.76L309.55 205.47L311.07 208.28L312.56 211.19L314.02 214.19L315.43 217.28L316.81 220.45L318.15 223.7L319.45 227.02L320.71 230.41L321.93 233.86L323.1 237.36L324.23 240.91L325.32 244.5L326.36 248.13L327.35 251.79L328.29 255.48L329.19 259.19L330.03 262.92L330.83 266.65L331.57 270.39L332.25 274.13L332.89 277.86L333.46 281.57L333.99 285.27L334.45 288.95L334.85 292.6L335.2 296.21L335.49 299.78L335.71 303.3L335.87 306.78L335.97 310.19L336 313.54L335.95 317.53L335.81 321.38L335.57 325.11L335.24 328.7L334.81 332.17L334.3 335.51L333.71 338.73L333.03 341.83L332.26 344.81L331.41 347.66L330.49 350.4L329.49 353.03L328.41 355.53L327.26 357.93L326.04 360.22L324.74 362.39L323.38 364.46L321.95 366.42L320.46 368.28L318.91 370.04L317.3 371.69L315.62 373.24L313.9 374.7L312.11 376.06L310.27 377.32L308.39 378.49L306.45 379.57L304.47 380.56L302.44 381.46L300.36 382.28L298.25 383.01L296.09 383.65L293.9 384.22L291.67 384.7L289.41 385.1L287.12 385.43L284.79 385.68L282.44 385.86L280.06 385.97L277.65 386L275.25 385.97L272.87 385.86L270.51 385.68L268.19 385.43L265.89 385.1L263.63 384.7L261.4 384.22L259.21 383.65L257.06 383.01L254.94 382.28L252.87 381.46L250.84 380.56L248.85 379.57L246.92 378.49L245.03 377.32L243.19 376.06L241.41 374.7L239.68 373.24L238.01 371.69L236.39 370.04L234.84 368.28L233.35 366.42L231.92 364.46L230.56 362.39L229.27 360.22L228.05 357.93L226.9 355.53L225.82 353.03L224.82 350.4L223.89 347.66L223.04 344.81L222.28 341.83L221.6 338.73L221 335.51L220.49 332.17L220.07 328.7L219.74 325.11L219.5 321.38L219.35 317.53L219.3 313.54L219.34 310.21L219.43 306.82L219.59 303.37L219.81 299.88L220.09 296.33L220.43 292.75L220.83 289.13L221.29 285.48L221.81 281.8L222.38 278.11L223 274.41L223.68 270.7L224.41 266.98L225.19 263.27L226.03 259.57L226.91 255.89L227.84 252.22L228.82 248.58L229.85 244.97L230.92 241.4L232.04 237.86L233.2 234.38L234.4 230.95L235.64 227.58L236.93 224.27L238.25 221.03L239.61 217.86L241.01 214.78L242.45 211.78L243.92 208.87L245.43 206.06L246.97 203.35L248.54 200.75L250.15 198.26L251.78 195.89L253.44 193.64L255.14 191.52L256.86 189.54L258.6 187.7L260.38 186L260.43 185.95L260.49 185.9L260.55 185.85L260.62 185.8L260.68 185.74L260.75 185.69L260.82 185.63L260.9 185.57L260.97 185.5L261.04 185.44L261.12 185.38L261.19 185.31L261.27 185.24L261.34 185.17L261.41 185.1L261.48 185.02L261.55 184.95L261.62 184.87L261.68 184.79L261.74 184.71L261.8 184.62L261.85 184.54L261.9 184.45L261.95 184.36L261.98 184.27L262.02 184.17L262.05 184.08L262.07 183.98L262.09 183.88L262.1 183.78L262.1 183.68L262.1 183.57L262.08 183.46L262.06 183.35L262.03 183.24L262 183.13L261.95 183.01L261.89 182.89L261.82 182.77L261.75 182.65L247.48 154.3L247.24 153.8L247.01 153.31L246.81 152.82L246.62 152.33L246.45 151.86L246.29 151.38L246.16 150.92L246.04 150.46L245.94 150.02L245.85 149.58L245.79 149.14L245.74 148.72L245.71 148.31L245.69 147.9L245.69 147.51L245.71 147.13L245.75 146.75L245.8 146.39L245.86 146.04L245.95 145.71L246.05 145.38L246.16 145.07L246.29 144.77L246.44 144.49L246.6 144.22L246.78 143.96L246.98 143.72L247.19 143.5L247.41 143.29L247.65 143.09L247.91 142.92L248.17 142.76L248.46 142.61L248.76 142.49L249.07 142.38L249.4 142.29L249.74 142.23L250.1 142.17L250.47 142.14L250.85 142.13L304.45 142.13L304.84 142.14L305.21 142.17ZM275.01 229.08L273.71 229.3L272.42 229.61L271.15 230L269.9 230.47L268.67 231.02L267.46 231.66L266.27 232.36L265.1 233.15L263.95 234.01L262.83 234.94L261.73 235.93L260.66 237L259.62 238.14L258.61 239.33L257.62 240.6L256.66 241.92L255.74 243.3L254.85 244.74L253.99 246.24L253.16 247.79L252.38 249.39L251.62 251.04L250.91 252.74L250.23 254.49L249.6 256.29L249 258.13L248.45 260.01L247.94 261.93L247.47 263.89L247.05 265.89L246.67 267.92L246.34 269.99L246.06 272.08L245.82 274.21L245.64 276.37L245.51 278.55L245.43 280.75L245.4 282.98L245.43 285.21L245.51 287.42L245.64 289.6L245.82 291.76L246.06 293.88L246.34 295.98L246.67 298.05L247.05 300.08L247.47 302.07L247.94 304.03L248.45 305.96L249 307.84L249.6 309.68L250.23 311.47L250.91 313.22L251.62 314.92L252.38 316.58L253.16 318.18L253.99 319.73L254.85 321.23L255.74 322.67L256.66 324.05L257.62 325.37L258.61 326.63L259.62 327.83L260.66 328.96L261.73 330.03L262.83 331.03L263.95 331.96L265.1 332.82L266.27 333.6L267.46 334.31L268.67 334.94L269.9 335.5L271.15 335.97L272.42 336.36L273.71 336.67L275.01 336.89L276.32 337.02L277.65 337.07L278.98 337.02L280.3 336.89L281.6 336.67L282.88 336.36L284.15 335.97L285.4 335.5L286.63 334.94L287.85 334.31L289.04 333.6L290.21 332.82L291.35 331.96L292.47 331.03L293.57 330.03L294.64 328.96L295.68 327.83L296.7 326.63L297.68 325.37L298.64 324.05L299.56 322.67L300.46 321.23L301.32 319.73L302.14 318.18L302.93 316.58L303.68 314.92L304.39 313.22L305.07 311.47L305.71 309.68L306.3 307.84L306.86 305.96L307.37 304.03L307.84 302.07L308.26 300.08L308.64 298.04L308.97 295.98L309.25 293.88L309.48 291.76L309.66 289.6L309.8 287.42L309.88 285.21L309.9 282.98L309.88 280.75L309.8 278.55L309.66 276.37L309.48 274.21L309.25 272.08L308.97 269.99L308.64 267.92L308.26 265.89L307.84 263.89L307.37 261.93L306.86 260.01L306.3 258.13L305.71 256.29L305.07 254.49L304.39 252.74L303.68 251.04L302.93 249.39L302.14 247.79L301.32 246.24L300.46 244.74L299.56 243.3L298.64 241.92L297.68 240.6L296.7 239.33L295.68 238.14L294.64 237L293.57 235.93L292.47 234.94L291.35 234.01L290.21 233.15L289.04 232.36L287.85 231.66L286.63 231.02L285.4 230.47L284.15 230L282.88 229.61L281.6 229.3L280.3 229.08L278.98 228.94L277.65 228.9L276.32 228.94L275.01 229.08Z" id="dRUXa5f1K"></path><path d="M203.59 249.72L217.05 255.04L222.19 255.04L222.19 265.69L213.87 265.69L200.41 260.36L181.8 260.36L181.8 271.01L134.69 271.01L134.69 169.88L181.8 169.88L181.8 249.72L203.59 249.72ZM148.15 260.37L168.34 260.37L168.34 180.53L148.15 180.53L148.15 260.37Z" id="b5Npi2EOe"></path><path d="M304.83 169.88L329.88 169.88L330.71 169.9L331.54 169.93L332.35 170L333.15 170.09L333.95 170.21L334.73 170.35L335.5 170.51L336.26 170.7L337 170.91L337.73 171.14L338.45 171.39L339.15 171.67L339.84 171.97L340.51 172.28L341.16 172.62L341.8 172.97L342.42 173.34L343.02 173.74L343.59 174.14L344.15 174.57L344.69 175.01L345.21 175.47L345.7 175.94L346.17 176.43L346.62 176.94L347.05 177.45L347.44 177.98L347.82 178.53L348.16 179.08L348.49 179.65L348.78 180.23L349.04 180.82L349.28 181.42L349.49 182.03L349.66 182.65L349.81 183.27L349.93 183.91L350.01 184.55L350.06 185.2L350.07 185.86L350.07 186.17L350.06 186.47L350.04 186.78L350.02 187.08L349.94 187.68L349.89 187.98L349.84 188.27L349.78 188.57L349.71 188.86L349.55 189.44L349.46 189.72L349.37 190.01L349.27 190.29L349.16 190.57L349.04 190.85L348.92 191.12L348.79 191.39L348.66 191.67L348.52 191.93L348.38 192.2L348.23 192.46L347.91 192.98L347.74 193.24L347.2 193.99L347.01 194.23L346.81 194.48L346.61 194.71L346.41 194.95L346.19 195.18L345.98 195.41L345.76 195.64L345.07 196.3L344.83 196.52L345.06 196.73L345.3 196.95L345.76 197.39L345.98 197.62L346.4 198.08L346.61 198.32L346.81 198.55L347.01 198.8L347.2 199.04L347.56 199.54L347.9 200.04L348.07 200.3L348.22 200.56L348.37 200.83L348.52 201.09L348.66 201.36L348.92 201.9L349.04 202.18L349.16 202.45L349.26 202.73L349.37 203.01L349.46 203.3L349.55 203.58L349.71 204.16L349.78 204.45L349.84 204.74L349.94 205.34L349.98 205.63L350.02 205.94L350.06 206.54L350.07 206.85L350.08 207.15L350.06 207.77L350.02 208.37L349.9 209.27L349.84 209.56L349.78 209.86L349.64 210.44L349.55 210.73L349.46 211.01L349.37 211.3L349.27 211.58L349.16 211.86L349.04 212.13L348.92 212.41L348.8 212.68L348.38 213.49L348.23 213.75L347.91 214.27L347.74 214.52L347.57 214.78L347.39 215.03L347.2 215.27L347.01 215.52L346.61 216L346.41 216.23L346.2 216.47L345.98 216.7L345.53 217.15L345.3 217.37L345.07 217.58L344.83 217.8L345.07 218.01L345.76 218.67L345.98 218.9L346.4 219.36L346.61 219.6L347.01 220.08L347.2 220.32L347.74 221.07L347.9 221.33L348.07 221.59L348.22 221.85L348.38 222.11L348.52 222.37L348.66 222.64L348.79 222.91L348.92 223.19L349.04 223.46L349.16 223.74L349.27 224.02L349.37 224.3L349.46 224.58L349.55 224.87L349.71 225.45L349.78 225.74L349.84 226.03L349.89 226.33L349.94 226.62L350.02 227.22L350.04 227.53L350.06 227.83L350.07 228.14L350.08 228.44L350.06 229.06L350.02 229.66L349.98 229.97L349.94 230.26L349.9 230.56L349.84 230.86L349.78 231.15L349.64 231.73L349.46 232.31L349.37 232.59L349.27 232.87L349.16 233.15L349.04 233.43L348.92 233.7L348.8 233.98L348.66 234.25L348.52 234.51L348.38 234.78L348.23 235.04L347.91 235.56L347.74 235.82L347.57 236.07L347.39 236.32L347.2 236.57L347.01 236.81L346.41 237.53L346.2 237.76L345.98 237.99L345.53 238.44L345.07 238.88L344.83 239.09L345.07 239.3L345.53 239.74L345.98 240.19L346.4 240.65L346.61 240.89L347.01 241.37L347.2 241.61L347.74 242.36L347.9 242.62L348.07 242.88L348.22 243.14L348.38 243.4L348.52 243.67L348.66 243.93L348.79 244.2L348.92 244.48L349.04 244.75L349.16 245.03L349.27 245.31L349.37 245.59L349.46 245.87L349.55 246.16L349.63 246.44L349.71 246.73L349.78 247.03L349.84 247.32L349.89 247.61L349.94 247.91L350.02 248.51L350.04 248.81L350.06 249.12L350.07 249.42L350.08 249.73L350.06 250.39L350.01 251.04L349.93 251.68L349.81 252.32L349.67 252.94L349.49 253.56L349.28 254.17L349.04 254.77L348.78 255.36L348.49 255.94L348.17 256.5L347.82 257.06L347.45 257.6L347.05 258.13L346.62 258.65L346.17 259.15L345.7 259.64L345.21 260.11L344.69 260.57L344.15 261.01L343.6 261.43L343.02 261.84L342.42 262.23L341.8 262.61L341.16 262.96L340.51 263.29L339.84 263.61L339.15 263.9L338.45 264.18L337.74 264.43L337 264.66L336.26 264.87L335.5 265.06L334.73 265.22L333.95 265.36L333.15 265.48L332.35 265.57L331.54 265.63L330.71 265.67L329.88 265.69L302.96 265.69L302.13 265.67L301.31 265.63L300.49 265.57L299.69 265.48L298.9 265.36L298.11 265.22L297.34 265.06L296.59 264.87L295.84 264.66L295.11 264.43L294.39 264.18L293.69 263.9L293 263.61L292.33 263.29L291.68 262.96L291.04 262.6L290.43 262.23L289.83 261.84L289.25 261.43L288.69 261.01L288.15 260.57L287.63 260.11L287.14 259.64L286.67 259.15L286.22 258.64L285.8 258.13L285.4 257.6L285.03 257.06L284.68 256.5L284.36 255.93L284.06 255.35L283.8 254.76L283.56 254.16L283.36 253.55L283.18 252.94L283.03 252.31L282.92 251.67L282.84 251.03L282.78 250.38L282.77 249.72L282.77 249.41L282.78 249.11L282.8 248.8L282.86 248.2L282.9 247.9L282.95 247.6L283 247.31L283.07 247.02L283.13 246.72L283.21 246.43L283.29 246.15L283.38 245.86L283.58 245.3L283.8 244.74L283.92 244.47L284.05 244.19L284.18 243.92L284.32 243.66L284.47 243.39L284.77 242.87L284.94 242.61L285.11 242.36L285.28 242.1L285.46 241.85L285.64 241.61L285.83 241.36L286.23 240.88L286.86 240.19L287.31 239.74L287.54 239.52L288.02 239.08L287.78 238.87L287.54 238.65L287.31 238.43L287.09 238.21L286.65 237.75L286.23 237.29L286.03 237.05L285.84 236.81L285.46 236.31L285.28 236.06L284.94 235.56L284.62 235.04L284.47 234.77L284.32 234.51L284.18 234.24L283.92 233.7L283.8 233.42L283.58 232.86L283.38 232.3L283.29 232.01L283.21 231.73L283.13 231.44L283.07 231.14L283 230.85L282.95 230.55L282.9 230.26L282.86 229.96L282.8 229.36L282.78 229.05L282.77 228.75L282.77 228.13L282.78 227.83L282.8 227.52L282.86 226.92L282.9 226.62L282.95 226.32L283 226.03L283.07 225.73L283.13 225.44L283.29 224.86L283.38 224.58L283.48 224.29L283.58 224.01L283.69 223.73L283.8 223.46L283.92 223.18L284.18 222.64L284.32 222.37L284.47 222.1L284.77 221.58L284.94 221.32L285.11 221.07L285.28 220.81L285.46 220.56L285.64 220.32L285.83 220.07L286.23 219.59L286.44 219.35L286.86 218.89L287.31 218.44L287.54 218.22L287.78 218L288.02 217.79L287.81 217.61L287.41 217.25L287.03 216.89L286.85 216.71L286.66 216.53L286.48 216.34L286.14 215.98L285.97 215.79L285.81 215.61L285.65 215.42L285.5 215.23L285.34 215.04L285.2 214.85L284.78 214.25L284.65 214.05L284.53 213.85L284.4 213.64L284.29 213.43L284.17 213.21L284.07 213L283.96 212.77L283.86 212.55L283.68 212.09L283.59 211.85L283.51 211.61L283.43 211.36L283.29 210.86L283.23 210.59L283.17 210.33L283.12 210.06L283.02 209.5L282.98 209.21L282.86 209.13L282.8 209.1L282.74 209.06L282.62 208.99L282.56 208.95L282.49 208.91L282.43 208.88L282.25 208.76L282.19 208.73L282.07 208.65L282.01 208.62L281.89 208.54L281.82 208.5L281.76 208.46L281.7 208.43L281.52 208.31L281.47 208.27L281.05 207.99L281 207.95L280.94 207.91L280.88 207.86L280.83 207.82L280.71 207.74L280.66 207.69L280.6 207.65L275.54 203.64L246.59 221.96L238.18 213.64L276.54 189.38L290.12 200.12L290.42 200.34L290.72 200.55L291.03 200.76L291.34 200.95L291.67 201.13L292 201.3L292.68 201.62L293.03 201.76L293.38 201.89L293.74 202.01L294.1 202.12L294.47 202.22L294.84 202.31L295.22 202.39L295.59 202.46L295.97 202.52L296.35 202.56L296.74 202.6L297.12 202.63L297.51 202.64L297.89 202.65L298.28 202.65L298.66 202.63L299.05 202.6L299.43 202.57L299.82 202.52L300.2 202.46L300.58 202.39L300.95 202.31L301.33 202.22L301.7 202.12L302.06 202.01L302.42 201.89L302.78 201.76L303.48 201.46L303.82 201.29L304.16 201.11L304.49 200.93L304.67 200.82L305.01 200.6L305.35 200.36L305.67 200.12L305.82 200L306.27 199.61L306.41 199.48L306.54 199.34L306.68 199.21L306.94 198.93L307.06 198.79L307.18 198.64L307.29 198.49L307.4 198.35L307.62 198.05L307.72 197.89L307.81 197.74L308.08 197.26L308.16 197.1L308.23 196.94L308.31 196.78L308.37 196.61L308.44 196.44L308.5 196.28L308.55 196.11L308.61 195.94L308.65 195.76L308.7 195.59L308.74 195.42L308.77 195.24L308.8 195.07L308.83 194.89L308.85 194.71L308.87 194.54L308.88 194.36L308.89 194.19L308.89 193.84L308.88 193.66L308.86 193.32L308.84 193.14L308.82 192.97L308.73 192.46L308.69 192.29L308.54 191.78L308.48 191.62L308.42 191.45L308.36 191.29L308.29 191.12L308.21 190.96L308.14 190.8L308.05 190.64L307.97 190.48L307.88 190.32L307.78 190.17L307.68 190.01L307.48 189.71L307.37 189.56L307.01 189.11L306.88 188.97L306.75 188.82L306.62 188.68L306.48 188.54L292.32 174.55L250.69 165.14L211.17 191.17L175.07 191.17L175.07 180.53L206.29 180.53L247.54 153.36L300.15 165.25L304.83 169.88ZM302.35 244.42L301.75 244.48L301.17 244.59L300.61 244.73L300.08 244.91L299.57 245.13L299.08 245.37L298.63 245.65L298.2 245.96L297.81 246.29L297.46 246.65L297.15 247.04L296.88 247.44L296.65 247.87L296.47 248.31L296.34 248.77L296.26 249.24L296.23 249.72L296.26 250.2L296.34 250.68L296.47 251.13L296.65 251.57L296.88 252L297.15 252.4L297.46 252.79L297.81 253.15L298.2 253.48L298.63 253.79L299.08 254.07L299.57 254.31L300.08 254.53L300.61 254.71L301.17 254.85L301.75 254.96L302.35 255.02L302.96 255.04L329.88 255.04L330.49 255.02L331.09 254.96L331.67 254.85L332.23 254.71L332.76 254.53L333.28 254.31L333.76 254.07L334.22 253.79L334.64 253.48L335.03 253.15L335.38 252.79L335.69 252.4L335.96 252L336.19 251.57L336.37 251.13L336.5 250.68L336.59 250.2L336.61 249.72L336.59 249.24L336.5 248.77L336.37 248.31L336.19 247.87L335.96 247.44L335.69 247.04L335.38 246.65L335.03 246.29L334.64 245.96L334.22 245.65L333.76 245.37L333.28 245.13L332.76 244.91L332.23 244.73L331.67 244.59L331.09 244.48L330.49 244.42L329.88 244.4L302.96 244.4L302.35 244.42ZM302.35 223.13L301.75 223.19L301.17 223.3L300.61 223.44L300.08 223.62L299.57 223.84L299.08 224.08L298.63 224.36L298.2 224.67L297.81 225L297.46 225.36L297.15 225.75L296.88 226.15L296.65 226.58L296.47 227.02L296.34 227.47L296.26 227.95L296.23 228.43L296.26 228.91L296.34 229.38L296.47 229.84L296.65 230.28L296.88 230.71L297.15 231.11L297.46 231.5L297.81 231.86L298.2 232.19L298.63 232.5L299.08 232.78L299.57 233.02L300.08 233.24L300.61 233.42L301.17 233.56L301.75 233.67L302.35 233.73L302.96 233.75L329.88 233.75L330.49 233.73L331.09 233.67L331.67 233.56L332.23 233.42L332.76 233.24L333.28 233.02L333.76 232.78L334.22 232.5L334.64 232.19L335.03 231.86L335.38 231.5L335.69 231.11L335.96 230.71L336.19 230.28L336.37 229.84L336.5 229.39L336.59 228.91L336.61 228.43L336.59 227.95L336.5 227.48L336.37 227.02L336.19 226.58L335.96 226.15L335.69 225.75L335.38 225.36L335.03 225L334.64 224.67L334.22 224.36L333.76 224.08L333.28 223.84L332.76 223.62L332.23 223.44L331.67 223.3L331.09 223.19L330.49 223.13L329.88 223.11L302.96 223.11L302.35 223.13ZM319.76 202.45L319.36 203.07L318.94 203.68L318.49 204.28L318.02 204.87L317.52 205.44L316.99 205.99L316.44 206.54L315.86 207.07L315.25 207.58L314.62 208.07L313.96 208.55L313.28 209.01L312.56 209.45L312.06 209.74L311.55 210.02L311.03 210.29L309.97 210.79L309.43 211.02L308.88 211.24L308.33 211.45L307.78 211.65L306.66 212.01L306.09 212.17L305.52 212.32L304.94 212.46L329.88 212.46L330.67 212.43L331.42 212.32L332.15 212.15L332.84 211.92L333.49 211.63L334.09 211.29L334.64 210.9L335.13 210.47L335.56 209.99L335.93 209.48L336.22 208.93L336.43 208.36L336.57 207.76L336.61 207.14L336.57 206.52L336.43 205.92L336.22 205.35L335.93 204.8L335.56 204.29L335.13 203.81L334.64 203.38L334.09 202.99L333.49 202.65L332.84 202.36L332.15 202.13L331.42 201.96L330.67 201.85L329.88 201.82L320.13 201.82L319.76 202.45ZM316.99 181.9L317.78 182.73L318.51 183.59L319.17 184.47L319.76 185.37L320.29 186.3L320.75 187.24L321.16 188.21L321.49 189.18L321.77 190.17L321.99 191.17L329.88 191.17L330.97 191.1L332.01 190.9L332.97 190.58L333.85 190.14L334.64 189.61L335.31 188.99L335.86 188.29L336.27 187.53L336.52 186.71L336.61 185.85L336.52 184.99L336.27 184.17L335.86 183.41L335.31 182.71L334.64 182.09L333.85 181.56L332.97 181.12L332.01 180.8L330.97 180.6L329.88 180.53L315.6 180.53L316.99 181.9Z" id="jQHhApPa"></path><path d="M278.98 241.57L279.95 241.74L280.91 241.98L281.85 242.28L282.79 242.64L283.71 243.07L284.61 243.55L285.5 244.1L286.37 244.7L287.23 245.36L288.06 246.07L288.88 246.84L289.68 247.66L290.46 248.53L291.22 249.45L291.95 250.42L292.67 251.43L293.36 252.5L294.02 253.6L294.66 254.75L295.28 255.94L295.87 257.17L296.43 258.44L296.96 259.75L297.47 261.1L297.94 262.48L298.39 263.89L298.8 265.33L299.18 266.81L299.53 268.32L299.85 269.85L300.13 271.41L300.37 273L300.59 274.61L300.76 276.24L300.9 277.9L300.99 279.57L301.05 281.27L301.07 282.98L301.05 284.7L300.99 286.39L300.9 288.07L300.76 289.72L300.59 291.36L300.37 292.97L300.13 294.55L299.85 296.12L299.53 297.65L299.18 299.16L298.8 300.63L298.39 302.08L297.94 303.49L297.47 304.87L296.96 306.21L296.43 307.52L295.87 308.79L295.28 310.02L294.66 311.21L294.02 312.36L293.36 313.47L292.67 314.53L291.95 315.55L291.22 316.52L290.46 317.44L289.68 318.31L288.88 319.13L288.06 319.89L287.23 320.61L286.37 321.27L285.5 321.87L284.61 322.41L283.71 322.9L282.79 323.33L281.85 323.69L280.91 323.99L279.95 324.22L278.98 324.39L277.99 324.5L277 324.53L276.01 324.5L275.03 324.39L274.05 324.22L273.1 323.99L272.15 323.69L271.21 323.33L270.3 322.9L269.39 322.41L268.5 321.87L267.63 321.27L266.77 320.61L265.94 319.89L265.12 319.13L264.32 318.31L263.54 317.44L262.78 316.52L262.05 315.55L261.33 314.53L260.64 313.47L259.98 312.36L259.34 311.21L258.72 310.02L258.13 308.79L257.57 307.52L257.04 306.21L256.53 304.87L256.06 303.49L255.61 302.08L255.2 300.63L254.82 299.16L254.47 297.65L254.15 296.12L253.87 294.55L253.63 292.97L253.41 291.36L253.24 289.72L253.1 288.07L253.01 286.39L252.95 284.7L252.93 282.98L252.95 281.27L253.01 279.57L253.1 277.9L253.24 276.24L253.41 274.61L253.63 273L253.87 271.41L254.15 269.85L254.47 268.32L254.82 266.81L255.2 265.33L255.61 263.89L256.06 262.48L256.53 261.1L257.04 259.75L257.57 258.44L258.13 257.17L258.72 255.94L259.34 254.75L259.98 253.6L260.64 252.5L261.33 251.43L262.05 250.42L262.78 249.45L263.54 248.53L264.32 247.66L265.12 246.84L265.94 246.07L266.77 245.36L267.63 244.7L268.5 244.1L269.39 243.55L270.3 243.07L271.21 242.64L272.15 242.28L273.1 241.98L274.05 241.74L275.03 241.57L276.01 241.47L277 241.43L277.99 241.47L278.98 241.57ZM276.47 254.28L276.4 254.29L276.33 254.31L276.27 254.33L276.2 254.35L276.14 254.38L276.08 254.42L276.02 254.46L275.96 254.5L275.9 254.55L275.84 254.61L275.79 254.67L275.74 254.73L275.69 254.8L275.64 254.87L275.59 254.94L275.55 255.02L275.51 255.1L275.47 255.19L275.43 255.27L275.39 255.37L275.36 255.46L275.33 255.56L275.31 255.66L275.28 255.76L275.26 255.86L275.24 255.97L275.23 256.08L275.22 256.19L275.21 256.3L275.2 256.42L275.2 256.53L275.2 260.86L275.2 260.89L275.2 260.92L275.2 260.95L275.19 260.98L275.19 261.01L275.18 261.03L275.18 261.05L275.17 261.08L275.16 261.1L275.15 261.12L275.14 261.14L275.13 261.16L275.12 261.18L275.11 261.2L275.1 261.21L275.09 261.23L275.08 261.24L275.07 261.26L275.05 261.27L275.04 261.28L275.03 261.3L275.02 261.31L275.01 261.32L274.99 261.32L274.98 261.33L274.97 261.34L274.96 261.35L274.95 261.35L274.94 261.36L274.93 261.36L274.93 261.37L274.92 261.37L274.59 261.52L274.27 261.68L273.95 261.86L273.65 262.06L273.35 262.27L273.06 262.5L272.78 262.75L272.51 263.01L272.25 263.28L272 263.57L271.76 263.88L271.52 264.2L271.3 264.53L271.09 264.88L270.88 265.24L270.69 265.61L270.51 265.99L270.34 266.39L270.18 266.8L270.03 267.22L269.89 267.65L269.76 268.09L269.64 268.54L269.54 269L269.45 269.47L269.36 269.95L269.29 270.44L269.24 270.94L269.19 271.44L269.16 271.96L269.14 272.48L269.14 273.01L269.14 273.66L269.17 274.29L269.22 274.9L269.29 275.49L269.37 276.05L269.47 276.6L269.59 277.13L269.72 277.64L269.87 278.13L270.03 278.6L270.21 279.06L270.4 279.49L270.6 279.92L270.82 280.33L271.05 280.72L271.29 281.1L271.54 281.46L271.8 281.82L272.07 282.15L272.34 282.48L272.63 282.8L272.93 283.1L273.23 283.4L273.54 283.68L273.85 283.96L274.17 284.23L274.5 284.49L274.83 284.74L275.16 284.98L275.5 285.22L275.84 285.45L276.18 285.68L276.45 285.87L276.71 286.05L276.96 286.24L277.2 286.43L277.43 286.62L277.65 286.8L277.86 287L278.06 287.19L278.25 287.38L278.43 287.57L278.61 287.77L278.77 287.97L278.93 288.17L279.07 288.37L279.21 288.58L279.34 288.79L279.46 289L279.57 289.21L279.67 289.43L279.77 289.65L279.86 289.88L279.93 290.1L280.01 290.34L280.07 290.57L280.12 290.81L280.17 291.05L280.21 291.3L280.24 291.56L280.27 291.81L280.29 292.08L280.3 292.35L280.3 292.62L280.3 292.92L280.28 293.21L280.26 293.5L280.22 293.77L280.18 294.05L280.13 294.31L280.07 294.57L280 294.82L279.92 295.07L279.83 295.3L279.74 295.53L279.64 295.75L279.53 295.96L279.41 296.17L279.29 296.36L279.15 296.55L279.01 296.72L278.87 296.89L278.71 297.04L278.55 297.19L278.39 297.33L278.22 297.45L278.04 297.56L277.85 297.67L277.66 297.76L277.47 297.84L277.27 297.91L277.06 297.97L276.85 298.01L276.63 298.04L276.41 298.06L276.19 298.07L275.99 298.06L275.79 298.04L275.59 298.01L275.39 297.97L275.18 297.92L274.97 297.86L274.76 297.79L274.56 297.71L274.35 297.63L274.14 297.54L273.94 297.45L273.74 297.35L273.54 297.25L273.35 297.15L273.16 297.04L272.98 296.93L272.8 296.83L272.63 296.72L272.47 296.62L272.31 296.52L272.17 296.42L272.03 296.32L271.9 296.23L271.78 296.15L271.68 296.07L271.58 296L271.5 295.94L271.43 295.89L271.37 295.84L271.33 295.81L271.31 295.79L271.3 295.78L271.28 295.77L271.26 295.76L271.25 295.74L271.23 295.73L271.21 295.72L271.2 295.71L271.18 295.7L271.16 295.69L271.14 295.68L271.13 295.67L271.11 295.66L271.09 295.65L271.07 295.64L271.06 295.63L271.04 295.62L271.02 295.62L271 295.61L270.99 295.6L270.97 295.6L270.95 295.59L270.93 295.59L270.91 295.58L270.9 295.58L270.88 295.58L270.86 295.57L270.84 295.57L270.82 295.57L270.81 295.57L270.79 295.56L270.77 295.56L270.75 295.56L270.73 295.56L270.68 295.56L270.63 295.57L270.59 295.58L270.54 295.59L270.49 295.6L270.44 295.62L270.4 295.64L270.35 295.66L270.31 295.69L270.26 295.72L270.22 295.75L270.17 295.78L270.13 295.82L270.09 295.86L270.05 295.9L270.01 295.95L269.97 296L269.94 296.05L269.9 296.1L269.87 296.15L269.83 296.21L269.8 296.27L269.77 296.33L269.74 296.39L269.71 296.46L269.68 296.53L269.66 296.6L269.63 296.67L269.61 296.74L269.59 296.82L269.57 296.9L269.55 296.98L268.94 299.85L268.92 299.95L268.9 300.05L268.89 300.15L268.88 300.24L268.87 300.34L268.87 300.43L268.87 300.52L268.87 300.61L268.87 300.7L268.88 300.79L268.89 300.87L268.9 300.96L268.91 301.04L268.93 301.12L268.95 301.2L268.97 301.27L268.99 301.35L269.01 301.42L269.04 301.49L269.07 301.56L269.09 301.62L269.12 301.68L269.15 301.75L269.19 301.8L269.22 301.86L269.26 301.91L269.29 301.96L269.33 302.01L269.37 302.06L269.41 302.1L269.45 302.14L269.49 302.18L269.65 302.32L269.83 302.46L270.01 302.6L270.2 302.73L270.39 302.86L270.59 302.98L270.79 303.1L271 303.22L271.21 303.33L271.42 303.43L271.63 303.54L271.84 303.64L272.05 303.73L272.26 303.82L272.47 303.91L272.67 303.99L272.87 304.07L273.06 304.14L273.24 304.21L273.42 304.27L273.59 304.33L273.75 304.39L273.9 304.44L274.04 304.48L274.17 304.52L274.29 304.56L274.39 304.59L274.48 304.61L274.56 304.64L274.61 304.65L274.65 304.66L274.68 304.67L274.68 304.67L274.69 304.67L274.69 304.68L274.7 304.68L274.71 304.68L274.71 304.69L274.72 304.69L274.73 304.7L274.74 304.71L274.75 304.71L274.76 304.72L274.77 304.73L274.78 304.74L274.79 304.75L274.8 304.77L274.81 304.78L274.82 304.79L274.83 304.81L274.84 304.82L274.85 304.84L274.86 304.86L274.87 304.88L274.88 304.9L274.89 304.92L274.89 304.94L274.9 304.96L274.91 304.99L274.91 305.01L274.91 305.04L274.92 305.06L274.92 305.09L274.92 305.12L274.92 309.43L274.92 309.55L274.93 309.66L274.93 309.78L274.95 309.89L274.96 310L274.98 310.1L275 310.21L275.02 310.31L275.05 310.41L275.08 310.51L275.11 310.6L275.15 310.69L275.18 310.78L275.22 310.86L275.27 310.95L275.31 311.02L275.36 311.1L275.41 311.17L275.46 311.24L275.51 311.3L275.56 311.36L275.62 311.41L275.68 311.46L275.74 311.51L275.8 311.55L275.86 311.58L275.92 311.61L275.99 311.64L276.05 311.66L276.12 311.67L276.19 311.68L276.26 311.68L277.45 311.68L277.52 311.68L277.59 311.67L277.65 311.66L277.72 311.64L277.78 311.61L277.85 311.58L277.91 311.55L277.97 311.51L278.03 311.46L278.09 311.41L278.14 311.36L278.2 311.3L278.25 311.24L278.3 311.17L278.35 311.1L278.39 311.02L278.44 310.95L278.48 310.86L278.52 310.78L278.56 310.69L278.59 310.6L278.63 310.51L278.65 310.41L278.68 310.31L278.71 310.21L278.73 310.1L278.74 310L278.76 309.89L278.77 309.78L278.78 309.66L278.79 309.55L278.79 309.43L278.79 304.9L278.79 304.86L278.79 304.82L278.79 304.79L278.79 304.75L278.8 304.72L278.8 304.7L278.81 304.67L278.82 304.64L278.82 304.62L278.83 304.6L278.84 304.58L278.85 304.56L278.85 304.55L278.86 304.53L278.87 304.52L278.88 304.5L278.89 304.49L278.9 304.48L278.91 304.47L278.92 304.46L278.93 304.46L278.94 304.45L278.95 304.45L278.96 304.44L278.96 304.44L278.97 304.43L278.98 304.43L278.99 304.43L278.99 304.42L279.01 304.42L279.36 304.27L279.7 304.11L280.03 303.92L280.36 303.72L280.67 303.49L280.98 303.26L281.28 303L281.56 302.73L281.84 302.44L282.11 302.13L282.36 301.81L282.61 301.48L282.85 301.12L283.07 300.76L283.29 300.38L283.49 299.99L283.68 299.58L283.87 299.16L284.04 298.73L284.19 298.29L284.34 297.83L284.48 297.36L284.6 296.88L284.71 296.4L284.81 295.9L284.89 295.39L284.96 294.87L285.02 294.34L285.07 293.81L285.11 293.26L285.13 292.71L285.13 292.15L285.13 291.58L285.11 291.02L285.08 290.47L285.04 289.93L284.98 289.41L284.92 288.9L284.84 288.4L284.75 287.91L284.65 287.43L284.53 286.96L284.4 286.5L284.26 286.05L284.1 285.61L283.93 285.18L283.75 284.76L283.56 284.35L283.35 283.95L283.13 283.56L282.89 283.17L282.64 282.8L282.37 282.43L282.09 282.07L281.8 281.71L281.49 281.36L281.17 281.02L280.83 280.69L280.48 280.36L280.11 280.04L279.73 279.73L279.33 279.42L278.92 279.11L278.49 278.81L278.17 278.58L277.86 278.36L277.56 278.15L277.28 277.93L277.01 277.72L276.76 277.52L276.51 277.32L276.28 277.12L276.07 276.92L275.86 276.73L275.67 276.54L275.49 276.35L275.32 276.16L275.16 275.97L275.02 275.78L274.88 275.59L274.76 275.4L274.64 275.21L274.53 275.02L274.44 274.82L274.35 274.63L274.27 274.43L274.2 274.23L274.14 274.02L274.09 273.81L274.04 273.6L274.01 273.38L273.98 273.15L273.96 272.93L273.94 272.69L273.93 272.45L273.93 272.2L273.93 272L273.94 271.8L273.95 271.59L273.97 271.39L274 271.18L274.03 270.98L274.07 270.78L274.12 270.57L274.17 270.38L274.23 270.18L274.29 269.98L274.36 269.79L274.44 269.61L274.53 269.43L274.63 269.25L274.73 269.08L274.84 268.92L274.96 268.76L275.08 268.61L275.22 268.47L275.36 268.33L275.51 268.21L275.67 268.09L275.84 267.99L276.01 267.89L276.2 267.81L276.4 267.73L276.6 267.67L276.81 267.62L277.04 267.59L277.27 267.57L277.52 267.56L277.73 267.57L277.95 267.58L278.16 267.6L278.37 267.63L278.57 267.67L278.77 267.71L278.96 267.76L279.15 267.81L279.34 267.87L279.51 267.93L279.69 268L279.86 268.07L280.02 268.14L280.17 268.21L280.32 268.28L280.47 268.36L280.6 268.43L280.73 268.51L280.85 268.58L280.97 268.65L281.07 268.72L281.17 268.79L281.26 268.85L281.35 268.91L281.42 268.97L281.48 269.02L281.54 269.06L281.58 269.1L281.62 269.13L281.65 269.15L281.67 269.16L281.67 269.17L281.69 269.19L281.71 269.2L281.73 269.22L281.74 269.23L281.76 269.25L281.78 269.26L281.8 269.27L281.82 269.28L281.84 269.3L281.85 269.31L281.87 269.32L281.89 269.33L281.91 269.34L281.93 269.35L281.95 269.36L281.97 269.37L281.99 269.38L282.01 269.38L282.03 269.39L282.05 269.4L282.07 269.4L282.09 269.41L282.11 269.42L282.13 269.42L282.15 269.42L282.16 269.43L282.18 269.43L282.2 269.43L282.22 269.43L282.24 269.44L282.26 269.44L282.28 269.44L282.33 269.44L282.38 269.43L282.43 269.42L282.47 269.41L282.52 269.4L282.56 269.38L282.61 269.36L282.65 269.34L282.7 269.32L282.74 269.29L282.78 269.26L282.82 269.22L282.86 269.19L282.9 269.15L282.94 269.11L282.98 269.07L283.02 269.02L283.06 268.97L283.09 268.92L283.12 268.87L283.16 268.81L283.19 268.76L283.22 268.7L283.25 268.64L283.28 268.57L283.3 268.51L283.33 268.44L283.35 268.37L283.38 268.3L283.4 268.22L283.42 268.15L283.44 268.07L284.08 265.23L284.1 265.14L284.12 265.04L284.13 264.95L284.14 264.85L284.15 264.76L284.15 264.67L284.15 264.58L284.15 264.49L284.15 264.4L284.14 264.31L284.13 264.23L284.12 264.15L284.11 264.07L284.09 263.99L284.07 263.91L284.05 263.84L284.03 263.76L284.01 263.69L283.98 263.62L283.95 263.56L283.93 263.49L283.9 263.43L283.86 263.37L283.83 263.32L283.8 263.26L283.76 263.21L283.73 263.16L283.69 263.12L283.65 263.08L283.61 263.04L283.57 263L283.53 262.97L283.39 262.87L283.25 262.77L283.09 262.67L282.93 262.58L282.77 262.48L282.6 262.39L282.43 262.3L282.26 262.21L282.08 262.13L281.9 262.05L281.72 261.97L281.55 261.89L281.37 261.81L281.2 261.74L281.02 261.67L280.86 261.6L280.69 261.54L280.53 261.48L280.38 261.42L280.23 261.37L280.09 261.32L279.96 261.27L279.83 261.23L279.72 261.19L279.62 261.16L279.52 261.13L279.44 261.1L279.37 261.08L279.32 261.07L279.28 261.05L279.25 261.04L279.24 261.04L279.23 261.04L279.22 261.04L279.22 261.03L279.21 261.03L279.2 261.03L279.2 261.02L279.19 261.02L279.18 261.01L279.17 261.01L279.16 261L279.16 261L279.15 260.99L279.14 260.98L279.13 260.97L279.12 260.96L279.11 260.95L279.1 260.94L279.1 260.92L279.09 260.91L279.08 260.9L279.07 260.88L279.07 260.86L279.06 260.84L279.06 260.82L279.05 260.8L279.05 260.78L279.04 260.76L279.04 260.73L279.04 260.71L279.04 260.68L279.04 260.65L279.03 256.53L279.03 256.42L279.02 256.3L279.01 256.19L279 256.08L278.99 255.97L278.97 255.86L278.95 255.76L278.92 255.66L278.9 255.56L278.87 255.46L278.83 255.37L278.8 255.27L278.76 255.19L278.72 255.1L278.68 255.02L278.64 254.94L278.59 254.87L278.54 254.8L278.49 254.73L278.44 254.67L278.38 254.61L278.33 254.55L278.27 254.5L278.21 254.46L278.15 254.42L278.09 254.38L278.02 254.35L277.96 254.33L277.89 254.31L277.83 254.29L277.76 254.28L277.69 254.28L276.54 254.28L276.47 254.28Z" id="b3ur1kLeBJ"></path><path d="M304.83 169.88L329.88 169.88L330.71 169.9L331.54 169.93L332.35 170L333.15 170.09L333.95 170.21L334.73 170.35L335.5 170.51L336.26 170.7L337 170.91L337.73 171.14L338.45 171.39L339.15 171.67L339.84 171.97L340.51 172.28L341.16 172.62L341.8 172.97L342.42 173.34L343.02 173.74L343.59 174.14L344.15 174.57L344.69 175.01L345.21 175.47L345.7 175.94L346.17 176.43L346.62 176.94L347.05 177.45L347.44 177.98L347.82 178.53L348.16 179.08L348.49 179.65L348.78 180.23L349.04 180.82L349.28 181.42L349.49 182.03L349.66 182.65L349.81 183.27L349.93 183.91L350.01 184.55L350.06 185.2L350.07 185.86L350.07 186.17L350.06 186.47L350.04 186.78L350.02 187.08L349.94 187.68L349.89 187.98L349.84 188.27L349.78 188.57L349.71 188.86L349.55 189.44L349.46 189.72L349.37 190.01L349.27 190.29L349.16 190.57L349.04 190.85L348.92 191.12L348.79 191.39L348.66 191.67L348.52 191.93L348.38 192.2L348.23 192.46L347.91 192.98L347.74 193.24L347.2 193.99L347.01 194.23L346.81 194.48L346.61 194.71L346.41 194.95L346.19 195.18L345.98 195.41L345.76 195.64L345.07 196.3L344.83 196.52L345.06 196.73L345.3 196.95L345.76 197.39L345.98 197.62L346.4 198.08L346.61 198.32L346.81 198.55L347.01 198.8L347.2 199.04L347.56 199.54L347.9 200.04L348.07 200.3L348.22 200.56L348.37 200.83L348.52 201.09L348.66 201.36L348.92 201.9L349.04 202.18L349.16 202.45L349.26 202.73L349.37 203.01L349.46 203.3L349.55 203.58L349.71 204.16L349.78 204.45L349.84 204.74L349.94 205.34L349.98 205.63L350.02 205.94L350.06 206.54L350.07 206.85L350.08 207.15L350.06 207.77L350.02 208.37L349.9 209.27L349.84 209.56L349.78 209.86L349.64 210.44L349.55 210.73L349.46 211.01L349.37 211.3L349.27 211.58L349.16 211.86L349.04 212.13L348.92 212.41L348.8 212.68L348.38 213.49L348.23 213.75L347.91 214.27L347.74 214.52L347.57 214.78L347.39 215.03L347.2 215.27L347.01 215.52L346.61 216L346.41 216.23L346.2 216.47L345.98 216.7L345.53 217.15L345.3 217.37L345.07 217.58L344.83 217.8L345.07 218.01L345.76 218.67L345.98 218.9L346.4 219.36L346.61 219.6L347.01 220.08L347.2 220.32L347.74 221.07L347.9 221.33L348.07 221.59L348.22 221.85L348.38 222.11L348.52 222.37L348.66 222.64L348.79 222.91L348.92 223.19L349.04 223.46L349.16 223.74L349.27 224.02L349.37 224.3L349.46 224.58L349.55 224.87L349.71 225.45L349.78 225.74L349.84 226.03L349.89 226.33L349.94 226.62L350.02 227.22L350.04 227.53L350.06 227.83L350.07 228.14L350.08 228.44L350.06 229.06L350.02 229.66L349.98 229.97L349.94 230.26L349.9 230.56L349.84 230.86L349.78 231.15L349.64 231.73L349.46 232.31L349.37 232.59L349.27 232.87L349.16 233.15L349.04 233.43L348.92 233.7L348.8 233.98L348.66 234.25L348.52 234.51L348.38 234.78L348.23 235.04L347.91 235.56L347.74 235.82L347.57 236.07L347.39 236.32L347.2 236.57L347.01 236.81L346.41 237.53L346.2 237.76L345.98 237.99L345.53 238.44L345.07 238.88L344.83 239.09L345.07 239.3L345.53 239.74L345.98 240.19L346.4 240.65L346.61 240.89L347.01 241.37L347.2 241.61L347.74 242.36L347.9 242.62L348.07 242.88L348.22 243.14L348.38 243.4L348.52 243.67L348.66 243.93L348.79 244.2L348.92 244.48L349.04 244.75L349.16 245.03L349.27 245.31L349.37 245.59L349.46 245.87L349.55 246.16L349.63 246.44L349.71 246.73L349.78 247.03L349.84 247.32L349.89 247.61L349.94 247.91L350.02 248.51L350.04 248.81L350.06 249.12L350.07 249.42L350.08 249.73L350.06 250.39L350.01 251.04L349.93 251.68L349.81 252.32L349.67 252.94L349.49 253.56L349.28 254.17L349.04 254.77L348.78 255.36L348.49 255.94L348.17 256.5L347.82 257.06L347.45 257.6L347.05 258.13L346.62 258.65L346.17 259.15L345.7 259.64L345.21 260.11L344.69 260.57L344.15 261.01L343.6 261.43L343.02 261.84L342.42 262.23L341.8 262.61L341.16 262.96L340.51 263.29L339.84 263.61L339.15 263.9L338.45 264.18L337.74 264.43L337 264.66L336.26 264.87L335.5 265.06L334.73 265.22L333.95 265.36L333.15 265.48L332.35 265.57L331.54 265.63L330.71 265.67L329.88 265.69L302.96 265.69L302.13 265.67L301.31 265.63L300.49 265.57L299.69 265.48L298.9 265.36L298.11 265.22L297.34 265.06L296.59 264.87L295.84 264.66L295.11 264.43L294.39 264.18L293.69 263.9L293 263.61L292.33 263.29L291.68 262.96L291.04 262.6L290.43 262.23L289.83 261.84L289.25 261.43L288.69 261.01L288.15 260.57L287.63 260.11L287.14 259.64L286.67 259.15L286.22 258.64L285.8 258.13L285.4 257.6L285.03 257.06L284.68 256.5L284.36 255.93L284.06 255.35L283.8 254.76L283.56 254.16L283.36 253.55L283.18 252.94L283.03 252.31L282.92 251.67L282.84 251.03L282.78 250.38L282.77 249.72L282.77 249.41L282.78 249.11L282.8 248.8L282.86 248.2L282.9 247.9L282.95 247.6L283 247.31L283.07 247.02L283.13 246.72L283.21 246.43L283.29 246.15L283.38 245.86L283.58 245.3L283.8 244.74L283.92 244.47L284.05 244.19L284.18 243.92L284.32 243.66L284.47 243.39L284.77 242.87L284.94 242.61L285.11 242.36L285.28 242.1L285.46 241.85L285.64 241.61L285.83 241.36L286.23 240.88L286.86 240.19L287.31 239.74L287.54 239.52L288.02 239.08L287.78 238.87L287.54 238.65L287.31 238.43L287.09 238.21L286.65 237.75L286.23 237.29L286.03 237.05L285.84 236.81L285.46 236.31L285.28 236.06L284.94 235.56L284.62 235.04L284.47 234.77L284.32 234.51L284.18 234.24L283.92 233.7L283.8 233.42L283.58 232.86L283.38 232.3L283.29 232.01L283.21 231.73L283.13 231.44L283.07 231.14L283 230.85L282.95 230.55L282.9 230.26L282.86 229.96L282.8 229.36L282.78 229.05L282.77 228.75L282.77 228.13L282.78 227.83L282.8 227.52L282.86 226.92L282.9 226.62L282.95 226.32L283 226.03L283.07 225.73L283.13 225.44L283.29 224.86L283.38 224.58L283.48 224.29L283.58 224.01L283.69 223.73L283.8 223.46L283.92 223.18L284.18 222.64L284.32 222.37L284.47 222.1L284.77 221.58L284.94 221.32L285.11 221.07L285.28 220.81L285.46 220.56L285.64 220.32L285.83 220.07L286.23 219.59L286.44 219.35L286.86 218.89L287.31 218.44L287.54 218.22L287.78 218L288.02 217.79L287.81 217.61L287.41 217.25L287.03 216.89L286.85 216.71L286.66 216.53L286.48 216.34L286.14 215.98L285.97 215.79L285.81 215.61L285.65 215.42L285.5 215.23L285.34 215.04L285.2 214.85L284.78 214.25L284.65 214.05L284.53 213.85L284.4 213.64L284.29 213.43L284.17 213.21L284.07 213L283.96 212.77L283.86 212.55L283.68 212.09L283.59 211.85L283.51 211.61L283.43 211.36L283.29 210.86L283.23 210.59L283.17 210.33L283.12 210.06L283.02 209.5L282.98 209.21L282.86 209.13L282.8 209.1L282.74 209.06L282.62 208.99L282.56 208.95L282.49 208.91L282.43 208.88L282.25 208.76L282.19 208.73L282.07 208.65L282.01 208.62L281.89 208.54L281.82 208.5L281.76 208.46L281.7 208.43L281.52 208.31L281.47 208.27L281.05 207.99L281 207.95L280.94 207.91L280.88 207.86L280.83 207.82L280.71 207.74L280.66 207.69L280.6 207.65L275.54 203.64L246.59 221.96L238.18 213.64L276.54 189.38L290.12 200.12L290.42 200.34L290.72 200.55L291.03 200.76L291.34 200.95L291.67 201.13L292 201.3L292.68 201.62L293.03 201.76L293.38 201.89L293.74 202.01L294.1 202.12L294.47 202.22L294.84 202.31L295.22 202.39L295.59 202.46L295.97 202.52L296.35 202.56L296.74 202.6L297.12 202.63L297.51 202.64L297.89 202.65L298.28 202.65L298.66 202.63L299.05 202.6L299.43 202.57L299.82 202.52L300.2 202.46L300.58 202.39L300.95 202.31L301.33 202.22L301.7 202.12L302.06 202.01L302.42 201.89L302.78 201.76L303.48 201.46L303.82 201.29L304.16 201.11L304.49 200.93L304.67 200.82L305.01 200.6L305.35 200.36L305.67 200.12L305.82 200L306.27 199.61L306.41 199.48L306.54 199.34L306.68 199.21L306.94 198.93L307.06 198.79L307.18 198.64L307.29 198.49L307.4 198.35L307.62 198.05L307.72 197.89L307.81 197.74L308.08 197.26L308.16 197.1L308.23 196.94L308.31 196.78L308.37 196.61L308.44 196.44L308.5 196.28L308.55 196.11L308.61 195.94L308.65 195.76L308.7 195.59L308.74 195.42L308.77 195.24L308.8 195.07L308.83 194.89L308.85 194.71L308.87 194.54L308.88 194.36L308.89 194.19L308.89 193.84L308.88 193.66L308.86 193.32L308.84 193.14L308.82 192.97L308.73 192.46L308.69 192.29L308.54 191.78L308.48 191.62L308.42 191.45L308.36 191.29L308.29 191.12L308.21 190.96L308.14 190.8L308.05 190.64L307.97 190.48L307.88 190.32L307.78 190.17L307.68 190.01L307.48 189.71L307.37 189.56L307.01 189.11L306.88 188.97L306.75 188.82L306.62 188.68L306.48 188.54L292.32 174.55L250.69 165.14L211.17 191.17L175.07 191.17L175.07 180.53L206.29 180.53L247.54 153.36L300.15 165.25L304.83 169.88ZM302.35 244.42L301.75 244.48L301.17 244.59L300.61 244.73L300.08 244.91L299.57 245.13L299.08 245.37L298.63 245.65L298.2 245.96L297.81 246.29L297.46 246.65L297.15 247.04L296.88 247.44L296.65 247.87L296.47 248.31L296.34 248.77L296.26 249.24L296.23 249.72L296.26 250.2L296.34 250.68L296.47 251.13L296.65 251.57L296.88 252L297.15 252.4L297.46 252.79L297.81 253.15L298.2 253.48L298.63 253.79L299.08 254.07L299.57 254.31L300.08 254.53L300.61 254.71L301.17 254.85L301.75 254.96L302.35 255.02L302.96 255.04L329.88 255.04L330.49 255.02L331.09 254.96L331.67 254.85L332.23 254.71L332.76 254.53L333.28 254.31L333.76 254.07L334.22 253.79L334.64 253.48L335.03 253.15L335.38 252.79L335.69 252.4L335.96 252L336.19 251.57L336.37 251.13L336.5 250.68L336.59 250.2L336.61 249.72L336.59 249.24L336.5 248.77L336.37 248.31L336.19 247.87L335.96 247.44L335.69 247.04L335.38 246.65L335.03 246.29L334.64 245.96L334.22 245.65L333.76 245.37L333.28 245.13L332.76 244.91L332.23 244.73L331.67 244.59L331.09 244.48L330.49 244.42L329.88 244.4L302.96 244.4L302.35 244.42ZM302.35 223.13L301.75 223.19L301.17 223.3L300.61 223.44L300.08 223.62L299.57 223.84L299.08 224.08L298.63 224.36L298.2 224.67L297.81 225L297.46 225.36L297.15 225.75L296.88 226.15L296.65 226.58L296.47 227.02L296.34 227.47L296.26 227.95L296.23 228.43L296.26 228.91L296.34 229.38L296.47 229.84L296.65 230.28L296.88 230.71L297.15 231.11L297.46 231.5L297.81 231.86L298.2 232.19L298.63 232.5L299.08 232.78L299.57 233.02L300.08 233.24L300.61 233.42L301.17 233.56L301.75 233.67L302.35 233.73L302.96 233.75L329.88 233.75L330.49 233.73L331.09 233.67L331.67 233.56L332.23 233.42L332.76 233.24L333.28 233.02L333.76 232.78L334.22 232.5L334.64 232.19L335.03 231.86L335.38 231.5L335.69 231.11L335.96 230.71L336.19 230.28L336.37 229.84L336.5 229.39L336.59 228.91L336.61 228.43L336.59 227.95L336.5 227.48L336.37 227.02L336.19 226.58L335.96 226.15L335.69 225.75L335.38 225.36L335.03 225L334.64 224.67L334.22 224.36L333.76 224.08L333.28 223.84L332.76 223.62L332.23 223.44L331.67 223.3L331.09 223.19L330.49 223.13L329.88 223.11L302.96 223.11L302.35 223.13ZM319.76 202.45L319.36 203.07L318.94 203.68L318.49 204.28L318.02 204.87L317.52 205.44L316.99 205.99L316.44 206.54L315.86 207.07L315.25 207.58L314.62 208.07L313.96 208.55L313.28 209.01L312.56 209.45L312.06 209.74L311.55 210.02L311.03 210.29L309.97 210.79L309.43 211.02L308.88 211.24L308.33 211.45L307.78 211.65L306.66 212.01L306.09 212.17L305.52 212.32L304.94 212.46L329.88 212.46L330.67 212.43L331.42 212.32L332.15 212.15L332.84 211.92L333.49 211.63L334.09 211.29L334.64 210.9L335.13 210.47L335.56 209.99L335.93 209.48L336.22 208.93L336.43 208.36L336.57 207.76L336.61 207.14L336.57 206.52L336.43 205.92L336.22 205.35L335.93 204.8L335.56 204.29L335.13 203.81L334.64 203.38L334.09 202.99L333.49 202.65L332.84 202.36L332.15 202.13L331.42 201.96L330.67 201.85L329.88 201.82L320.13 201.82L319.76 202.45ZM316.99 181.9L317.78 182.73L318.51 183.59L319.17 184.47L319.76 185.37L320.29 186.3L320.75 187.24L321.16 188.21L321.49 189.18L321.77 190.17L321.99 191.17L329.88 191.17L330.97 191.1L332.01 190.9L332.97 190.58L333.85 190.14L334.64 189.61L335.31 188.99L335.86 188.29L336.27 187.53L336.52 186.71L336.61 185.85L336.52 184.99L336.27 184.17L335.86 183.41L335.31 182.71L334.64 182.09L333.85 181.56L332.97 181.12L332.01 180.8L330.97 180.6L329.88 180.53L315.6 180.53L316.99 181.9Z" id="e6169UKj"></path></defs><g><g><path></path><path></path><g><use xlink:href="#f2TIoHsCo" opacity="1" fill="#475eaa" fill-opacity="1"></use><g><use xlink:href="#f2TIoHsCo" opacity="1" fill-opacity="0" stroke="#000000" stroke-width="1" stroke-opacity="0"></use></g></g><g><use xlink:href="#dRUXa5f1K" opacity="1" fill="#fccb28" fill-opacity="1"></use><g><use xlink:href="#dRUXa5f1K" opacity="1" fill-opacity="0" stroke="#000000" stroke-width="1" stroke-opacity="0"></use></g></g><g><use xlink:href="#b5Npi2EOe" opacity="1" fill="#000000" fill-opacity="0"></use><g><use xlink:href="#b5Npi2EOe" opacity="1" fill-opacity="0" stroke="#000000" stroke-width="1" stroke-opacity="0"></use></g></g><g><use xlink:href="#jQHhApPa" opacity="1" fill="#475eaa" fill-opacity="1"></use><g><use xlink:href="#jQHhApPa" opacity="1" fill-opacity="0" stroke="#000000" stroke-width="1" stroke-opacity="0"></use></g></g><g><use xlink:href="#b3ur1kLeBJ" opacity="1" fill="#000000" fill-opacity="1"></use><g><use xlink:href="#b3ur1kLeBJ" opacity="1" fill-opacity="0" stroke="#000000" stroke-width="1" stroke-opacity="0"></use></g></g><g><use xlink:href="#e6169UKj" opacity="1" fill="#000000" fill-opacity="0"></use><g><use xlink:href="#e6169UKj" opacity="1" fill-opacity="0" stroke="#000000" stroke-width="1" stroke-opacity="0"></use></g></g></g></g></svg>