<?xml version="1.0" encoding="iso-8859-1"?>
<!-- Generator: Adobe Illustrator 19.0.0, SVG Export Plug-In . SVG Version: 6.00 Build 0)  -->
<svg version="1.1" id="Capa_1" xmlns="http://www.w3.org/2000/svg" xmlns:xlink="http://www.w3.org/1999/xlink" x="0px" y="0px"
	 viewBox="0 0 512 512" style="enable-background:new 0 0 512 512;" xml:space="preserve">
<linearGradient id="SVGID_1_" gradientUnits="userSpaceOnUse" x1="-34.1074" y1="644.9879" x2="-34.1074" y2="620.7129" gradientTransform="matrix(20.48 0 0 -20.48 954.52 13224.1992)">
	<stop  offset="0" style="stop-color:#FF5D3B"/>
	<stop  offset="1" style="stop-color:#FF2D67"/>
</linearGradient>
<path style="fill:url(#SVGID_1_);" d="M256,81.92c-95.99,0-174.08,78.09-174.08,174.08c0,32.174,8.806,63.263,25.58,90.583
	L346.583,107.5C319.263,90.726,288.174,81.92,256,81.92z M256,430.08c95.99,0,174.08-78.09,174.08-174.08
	c0-32.174-8.806-63.263-25.58-90.583L165.417,404.5C192.737,421.274,223.826,430.08,256,430.08z M256,0
	c141.169,0,256,114.831,256,256S397.169,512,256,512S0,397.169,0,256S114.831,0,256,0z"/>
<g>
</g>
<g>
</g>
<g>
</g>
<g>
</g>
<g>
</g>
<g>
</g>
<g>
</g>
<g>
</g>
<g>
</g>
<g>
</g>
<g>
</g>
<g>
</g>
<g>
</g>
<g>
</g>
<g>
</g>
</svg>
