<?xml version="1.0" encoding="iso-8859-1"?>
<!-- Generator: Adobe Illustrator 19.0.0, SVG Export Plug-In . SVG Version: 6.00 Build 0)  -->
<svg version="1.1" id="Capa_1" xmlns="http://www.w3.org/2000/svg" xmlns:xlink="http://www.w3.org/1999/xlink" x="0px" y="0px"
	 viewBox="0 0 512 512" style="enable-background:new 0 0 512 512;" xml:space="preserve">
<path style="fill:#195C85;" d="M469.333,187.733H42.667c-0.538-0.017-1.084,0.017-1.621,0.085C18.125,188.638-0.017,207.471,0,230.4
	v238.933C0,492.894,19.106,512,42.667,512h426.667C492.894,512,512,492.894,512,469.333V230.4
	C512,206.839,492.894,187.733,469.333,187.733z M187.733,452.267h-128v-51.2h128V452.267z M469.333,460.8h-17.067V256h17.067V460.8z
	"/>
<rect x="452.267" y="256" style="fill:#F49E21;" width="17.067" height="204.8"/>
<path style="fill:#36AFAD;" d="M375.125,187.733h43.008v-76.8H435.2v76.8h34.133V99.157c-0.017-23.561-19.132-42.65-42.692-42.641
	c-4.753,0-9.472,0.802-13.969,2.364l-97.365,33.707c6.127,3.507,11.93,7.561,17.323,12.117
	C357.513,125.44,372.855,155.426,375.125,187.733z"/>
<g>
	<rect x="418.133" y="110.933" style="fill:#FDBD40;" width="17.067" height="76.8"/>
	<path style="fill:#FDBD40;" d="M136.875,187.733h238.251c-2.27-32.307-17.613-62.293-42.496-83.029
		c-5.393-4.557-11.196-8.61-17.323-12.117c-57.199-32.768-130.125-12.954-162.893,44.245c-2.731,4.762-5.129,9.711-7.177,14.805
		c-2.688,6.537-4.779,13.303-6.229,20.224C137.95,177.101,137.242,182.4,136.875,187.733z M256,102.4v17.067
		c-30.541-0.009-58.18,18.091-70.4,46.08l-15.616-6.827C184.909,124.518,218.684,102.409,256,102.4z"/>
</g>
<g>
	<path style="fill:#F49E21;" d="M256,119.467V102.4c-37.316,0.009-71.091,22.118-86.016,56.32l15.616,6.827
		C197.82,137.557,225.459,119.458,256,119.467z"/>
	<rect x="59.733" y="401.067" style="fill:#F49E21;" width="128" height="51.2"/>
</g>
<rect x="153.6" y="0" style="fill:#195C85;" width="17.067" height="85.333"/>
<path style="fill:#36AFAD;" d="M93.184,187.733h43.691c0.367-5.333,1.075-10.633,2.133-15.872
	c1.451-6.921,3.541-13.687,6.229-20.224L41.045,187.819c0.538-0.068,1.084-0.102,1.621-0.085H93.184z"/>
<rect x="119.467" y="51.2" style="fill:#195C85;" width="17.067" height="68.267"/>
<g>
</g>
<g>
</g>
<g>
</g>
<g>
</g>
<g>
</g>
<g>
</g>
<g>
</g>
<g>
</g>
<g>
</g>
<g>
</g>
<g>
</g>
<g>
</g>
<g>
</g>
<g>
</g>
<g>
</g>
</svg>
